G04 #@! TF.GenerationSoftware,KiCad,Pcbnew,(5.1.9)-1*
G04 #@! TF.CreationDate,2021-06-08T08:05:01+01:00*
G04 #@! TF.ProjectId,LED_Board,4c45445f-426f-4617-9264-2e6b69636164,rev?*
G04 #@! TF.SameCoordinates,Original*
G04 #@! TF.FileFunction,Copper,L4,Bot*
G04 #@! TF.FilePolarity,Positive*
%FSLAX46Y46*%
G04 Gerber Fmt 4.6, Leading zero omitted, Abs format (unit mm)*
G04 Created by KiCad (PCBNEW (5.1.9)-1) date 2021-06-08 08:05:01*
%MOMM*%
%LPD*%
G01*
G04 APERTURE LIST*
G04 #@! TA.AperFunction,ComponentPad*
%ADD10O,1.250000X1.050000*%
G04 #@! TD*
G04 #@! TA.AperFunction,SMDPad,CuDef*
%ADD11R,1.350000X0.400000*%
G04 #@! TD*
G04 #@! TA.AperFunction,ComponentPad*
%ADD12O,1.900000X1.000000*%
G04 #@! TD*
G04 #@! TA.AperFunction,SMDPad,CuDef*
%ADD13R,1.900000X2.900000*%
G04 #@! TD*
G04 #@! TA.AperFunction,SMDPad,CuDef*
%ADD14R,1.900000X0.875000*%
G04 #@! TD*
G04 #@! TA.AperFunction,ComponentPad*
%ADD15R,1.700000X1.700000*%
G04 #@! TD*
G04 #@! TA.AperFunction,ComponentPad*
%ADD16O,1.700000X1.700000*%
G04 #@! TD*
G04 #@! TA.AperFunction,ComponentPad*
%ADD17C,1.800000*%
G04 #@! TD*
G04 #@! TA.AperFunction,ComponentPad*
%ADD18R,1.800000X1.800000*%
G04 #@! TD*
G04 #@! TA.AperFunction,SMDPad,CuDef*
%ADD19C,0.787400*%
G04 #@! TD*
G04 #@! TA.AperFunction,SMDPad,CuDef*
%ADD20C,1.500000*%
G04 #@! TD*
G04 #@! TA.AperFunction,SMDPad,CuDef*
%ADD21R,1.060000X0.650000*%
G04 #@! TD*
G04 #@! TA.AperFunction,SMDPad,CuDef*
%ADD22R,1.000000X1.600000*%
G04 #@! TD*
G04 #@! TA.AperFunction,SMDPad,CuDef*
%ADD23R,2.500000X2.500000*%
G04 #@! TD*
G04 #@! TA.AperFunction,SMDPad,CuDef*
%ADD24R,2.500000X1.000000*%
G04 #@! TD*
G04 #@! TA.AperFunction,SMDPad,CuDef*
%ADD25R,2.400000X2.000000*%
G04 #@! TD*
G04 #@! TA.AperFunction,ComponentPad*
%ADD26C,0.800000*%
G04 #@! TD*
G04 #@! TA.AperFunction,ComponentPad*
%ADD27C,6.000000*%
G04 #@! TD*
G04 #@! TA.AperFunction,SMDPad,CuDef*
%ADD28R,1.600000X1.400000*%
G04 #@! TD*
G04 #@! TA.AperFunction,ViaPad*
%ADD29C,0.685800*%
G04 #@! TD*
G04 #@! TA.AperFunction,Conductor*
%ADD30C,0.254000*%
G04 #@! TD*
G04 #@! TA.AperFunction,Conductor*
%ADD31C,0.508000*%
G04 #@! TD*
G04 #@! TA.AperFunction,Conductor*
%ADD32C,0.152400*%
G04 #@! TD*
G04 #@! TA.AperFunction,Conductor*
%ADD33C,0.762000*%
G04 #@! TD*
G04 #@! TA.AperFunction,Conductor*
%ADD34C,0.117348*%
G04 #@! TD*
G04 #@! TA.AperFunction,Conductor*
%ADD35C,0.330000*%
G04 #@! TD*
G04 #@! TA.AperFunction,Conductor*
%ADD36C,0.100000*%
G04 #@! TD*
G04 APERTURE END LIST*
D10*
X73942200Y-132819100D03*
D11*
X73617200Y-131894100D03*
X73617200Y-131244100D03*
X73617200Y-130594100D03*
X73617200Y-129294100D03*
D10*
X73942200Y-128369100D03*
D12*
X70942200Y-134769100D03*
X70942200Y-126419100D03*
D11*
X73617200Y-129944100D03*
D13*
X70942200Y-130594100D03*
D14*
X70942200Y-126856600D03*
X70942200Y-134331600D03*
D15*
X161848800Y-190652400D03*
D16*
X159308800Y-190652400D03*
X161848800Y-193192400D03*
X159308800Y-193192400D03*
X161848800Y-195732400D03*
X159308800Y-195732400D03*
X161848800Y-198272400D03*
X159308800Y-198272400D03*
G04 #@! TA.AperFunction,SMDPad,CuDef*
G36*
G01*
X166491900Y-93284000D02*
X166171900Y-93284000D01*
G75*
G02*
X166011900Y-93124000I0J160000D01*
G01*
X166011900Y-92729000D01*
G75*
G02*
X166171900Y-92569000I160000J0D01*
G01*
X166491900Y-92569000D01*
G75*
G02*
X166651900Y-92729000I0J-160000D01*
G01*
X166651900Y-93124000D01*
G75*
G02*
X166491900Y-93284000I-160000J0D01*
G01*
G37*
G04 #@! TD.AperFunction*
G04 #@! TA.AperFunction,SMDPad,CuDef*
G36*
G01*
X166491900Y-92089000D02*
X166171900Y-92089000D01*
G75*
G02*
X166011900Y-91929000I0J160000D01*
G01*
X166011900Y-91534000D01*
G75*
G02*
X166171900Y-91374000I160000J0D01*
G01*
X166491900Y-91374000D01*
G75*
G02*
X166651900Y-91534000I0J-160000D01*
G01*
X166651900Y-91929000D01*
G75*
G02*
X166491900Y-92089000I-160000J0D01*
G01*
G37*
G04 #@! TD.AperFunction*
G04 #@! TA.AperFunction,SMDPad,CuDef*
G36*
G01*
X167568900Y-92569000D02*
X167888900Y-92569000D01*
G75*
G02*
X168048900Y-92729000I0J-160000D01*
G01*
X168048900Y-93124000D01*
G75*
G02*
X167888900Y-93284000I-160000J0D01*
G01*
X167568900Y-93284000D01*
G75*
G02*
X167408900Y-93124000I0J160000D01*
G01*
X167408900Y-92729000D01*
G75*
G02*
X167568900Y-92569000I160000J0D01*
G01*
G37*
G04 #@! TD.AperFunction*
G04 #@! TA.AperFunction,SMDPad,CuDef*
G36*
G01*
X167568900Y-91374000D02*
X167888900Y-91374000D01*
G75*
G02*
X168048900Y-91534000I0J-160000D01*
G01*
X168048900Y-91929000D01*
G75*
G02*
X167888900Y-92089000I-160000J0D01*
G01*
X167568900Y-92089000D01*
G75*
G02*
X167408900Y-91929000I0J160000D01*
G01*
X167408900Y-91534000D01*
G75*
G02*
X167568900Y-91374000I160000J0D01*
G01*
G37*
G04 #@! TD.AperFunction*
G04 #@! TA.AperFunction,SMDPad,CuDef*
G36*
G01*
X169135400Y-136299000D02*
X169135400Y-135989000D01*
G75*
G02*
X169290400Y-135834000I155000J0D01*
G01*
X169715400Y-135834000D01*
G75*
G02*
X169870400Y-135989000I0J-155000D01*
G01*
X169870400Y-136299000D01*
G75*
G02*
X169715400Y-136454000I-155000J0D01*
G01*
X169290400Y-136454000D01*
G75*
G02*
X169135400Y-136299000I0J155000D01*
G01*
G37*
G04 #@! TD.AperFunction*
G04 #@! TA.AperFunction,SMDPad,CuDef*
G36*
G01*
X168000400Y-136299000D02*
X168000400Y-135989000D01*
G75*
G02*
X168155400Y-135834000I155000J0D01*
G01*
X168580400Y-135834000D01*
G75*
G02*
X168735400Y-135989000I0J-155000D01*
G01*
X168735400Y-136299000D01*
G75*
G02*
X168580400Y-136454000I-155000J0D01*
G01*
X168155400Y-136454000D01*
G75*
G02*
X168000400Y-136299000I0J155000D01*
G01*
G37*
G04 #@! TD.AperFunction*
G04 #@! TA.AperFunction,SMDPad,CuDef*
G36*
G01*
X149812400Y-134846000D02*
X149812400Y-135156000D01*
G75*
G02*
X149657400Y-135311000I-155000J0D01*
G01*
X149232400Y-135311000D01*
G75*
G02*
X149077400Y-135156000I0J155000D01*
G01*
X149077400Y-134846000D01*
G75*
G02*
X149232400Y-134691000I155000J0D01*
G01*
X149657400Y-134691000D01*
G75*
G02*
X149812400Y-134846000I0J-155000D01*
G01*
G37*
G04 #@! TD.AperFunction*
G04 #@! TA.AperFunction,SMDPad,CuDef*
G36*
G01*
X150947400Y-134846000D02*
X150947400Y-135156000D01*
G75*
G02*
X150792400Y-135311000I-155000J0D01*
G01*
X150367400Y-135311000D01*
G75*
G02*
X150212400Y-135156000I0J155000D01*
G01*
X150212400Y-134846000D01*
G75*
G02*
X150367400Y-134691000I155000J0D01*
G01*
X150792400Y-134691000D01*
G75*
G02*
X150947400Y-134846000I0J-155000D01*
G01*
G37*
G04 #@! TD.AperFunction*
G04 #@! TA.AperFunction,SMDPad,CuDef*
G36*
G01*
X168000400Y-137569000D02*
X168000400Y-137259000D01*
G75*
G02*
X168155400Y-137104000I155000J0D01*
G01*
X168580400Y-137104000D01*
G75*
G02*
X168735400Y-137259000I0J-155000D01*
G01*
X168735400Y-137569000D01*
G75*
G02*
X168580400Y-137724000I-155000J0D01*
G01*
X168155400Y-137724000D01*
G75*
G02*
X168000400Y-137569000I0J155000D01*
G01*
G37*
G04 #@! TD.AperFunction*
G04 #@! TA.AperFunction,SMDPad,CuDef*
G36*
G01*
X169135400Y-137569000D02*
X169135400Y-137259000D01*
G75*
G02*
X169290400Y-137104000I155000J0D01*
G01*
X169715400Y-137104000D01*
G75*
G02*
X169870400Y-137259000I0J-155000D01*
G01*
X169870400Y-137569000D01*
G75*
G02*
X169715400Y-137724000I-155000J0D01*
G01*
X169290400Y-137724000D01*
G75*
G02*
X169135400Y-137569000I0J155000D01*
G01*
G37*
G04 #@! TD.AperFunction*
G04 #@! TA.AperFunction,SMDPad,CuDef*
G36*
G01*
X158366400Y-146631000D02*
X158676400Y-146631000D01*
G75*
G02*
X158831400Y-146786000I0J-155000D01*
G01*
X158831400Y-147211000D01*
G75*
G02*
X158676400Y-147366000I-155000J0D01*
G01*
X158366400Y-147366000D01*
G75*
G02*
X158211400Y-147211000I0J155000D01*
G01*
X158211400Y-146786000D01*
G75*
G02*
X158366400Y-146631000I155000J0D01*
G01*
G37*
G04 #@! TD.AperFunction*
G04 #@! TA.AperFunction,SMDPad,CuDef*
G36*
G01*
X158366400Y-145496000D02*
X158676400Y-145496000D01*
G75*
G02*
X158831400Y-145651000I0J-155000D01*
G01*
X158831400Y-146076000D01*
G75*
G02*
X158676400Y-146231000I-155000J0D01*
G01*
X158366400Y-146231000D01*
G75*
G02*
X158211400Y-146076000I0J155000D01*
G01*
X158211400Y-145651000D01*
G75*
G02*
X158366400Y-145496000I155000J0D01*
G01*
G37*
G04 #@! TD.AperFunction*
G04 #@! TA.AperFunction,SMDPad,CuDef*
G36*
G01*
X137485400Y-136624000D02*
X137485400Y-136934000D01*
G75*
G02*
X137330400Y-137089000I-155000J0D01*
G01*
X136905400Y-137089000D01*
G75*
G02*
X136750400Y-136934000I0J155000D01*
G01*
X136750400Y-136624000D01*
G75*
G02*
X136905400Y-136469000I155000J0D01*
G01*
X137330400Y-136469000D01*
G75*
G02*
X137485400Y-136624000I0J-155000D01*
G01*
G37*
G04 #@! TD.AperFunction*
G04 #@! TA.AperFunction,SMDPad,CuDef*
G36*
G01*
X136350400Y-136624000D02*
X136350400Y-136934000D01*
G75*
G02*
X136195400Y-137089000I-155000J0D01*
G01*
X135770400Y-137089000D01*
G75*
G02*
X135615400Y-136934000I0J155000D01*
G01*
X135615400Y-136624000D01*
G75*
G02*
X135770400Y-136469000I155000J0D01*
G01*
X136195400Y-136469000D01*
G75*
G02*
X136350400Y-136624000I0J-155000D01*
G01*
G37*
G04 #@! TD.AperFunction*
G04 #@! TA.AperFunction,SMDPad,CuDef*
G36*
G01*
X159254200Y-126089700D02*
X158779200Y-126089700D01*
G75*
G02*
X158541700Y-125852200I0J237500D01*
G01*
X158541700Y-125252200D01*
G75*
G02*
X158779200Y-125014700I237500J0D01*
G01*
X159254200Y-125014700D01*
G75*
G02*
X159491700Y-125252200I0J-237500D01*
G01*
X159491700Y-125852200D01*
G75*
G02*
X159254200Y-126089700I-237500J0D01*
G01*
G37*
G04 #@! TD.AperFunction*
G04 #@! TA.AperFunction,SMDPad,CuDef*
G36*
G01*
X159254200Y-124364700D02*
X158779200Y-124364700D01*
G75*
G02*
X158541700Y-124127200I0J237500D01*
G01*
X158541700Y-123527200D01*
G75*
G02*
X158779200Y-123289700I237500J0D01*
G01*
X159254200Y-123289700D01*
G75*
G02*
X159491700Y-123527200I0J-237500D01*
G01*
X159491700Y-124127200D01*
G75*
G02*
X159254200Y-124364700I-237500J0D01*
G01*
G37*
G04 #@! TD.AperFunction*
G04 #@! TA.AperFunction,SMDPad,CuDef*
G36*
G01*
X136350400Y-133449000D02*
X136350400Y-133759000D01*
G75*
G02*
X136195400Y-133914000I-155000J0D01*
G01*
X135770400Y-133914000D01*
G75*
G02*
X135615400Y-133759000I0J155000D01*
G01*
X135615400Y-133449000D01*
G75*
G02*
X135770400Y-133294000I155000J0D01*
G01*
X136195400Y-133294000D01*
G75*
G02*
X136350400Y-133449000I0J-155000D01*
G01*
G37*
G04 #@! TD.AperFunction*
G04 #@! TA.AperFunction,SMDPad,CuDef*
G36*
G01*
X137485400Y-133449000D02*
X137485400Y-133759000D01*
G75*
G02*
X137330400Y-133914000I-155000J0D01*
G01*
X136905400Y-133914000D01*
G75*
G02*
X136750400Y-133759000I0J155000D01*
G01*
X136750400Y-133449000D01*
G75*
G02*
X136905400Y-133294000I155000J0D01*
G01*
X137330400Y-133294000D01*
G75*
G02*
X137485400Y-133449000I0J-155000D01*
G01*
G37*
G04 #@! TD.AperFunction*
G04 #@! TA.AperFunction,SMDPad,CuDef*
G36*
G01*
X148247900Y-142014000D02*
X148247900Y-141704000D01*
G75*
G02*
X148402900Y-141549000I155000J0D01*
G01*
X148827900Y-141549000D01*
G75*
G02*
X148982900Y-141704000I0J-155000D01*
G01*
X148982900Y-142014000D01*
G75*
G02*
X148827900Y-142169000I-155000J0D01*
G01*
X148402900Y-142169000D01*
G75*
G02*
X148247900Y-142014000I0J155000D01*
G01*
G37*
G04 #@! TD.AperFunction*
G04 #@! TA.AperFunction,SMDPad,CuDef*
G36*
G01*
X147112900Y-142014000D02*
X147112900Y-141704000D01*
G75*
G02*
X147267900Y-141549000I155000J0D01*
G01*
X147692900Y-141549000D01*
G75*
G02*
X147847900Y-141704000I0J-155000D01*
G01*
X147847900Y-142014000D01*
G75*
G02*
X147692900Y-142169000I-155000J0D01*
G01*
X147267900Y-142169000D01*
G75*
G02*
X147112900Y-142014000I0J155000D01*
G01*
G37*
G04 #@! TD.AperFunction*
G04 #@! TA.AperFunction,SMDPad,CuDef*
G36*
G01*
X162684400Y-146631000D02*
X162994400Y-146631000D01*
G75*
G02*
X163149400Y-146786000I0J-155000D01*
G01*
X163149400Y-147211000D01*
G75*
G02*
X162994400Y-147366000I-155000J0D01*
G01*
X162684400Y-147366000D01*
G75*
G02*
X162529400Y-147211000I0J155000D01*
G01*
X162529400Y-146786000D01*
G75*
G02*
X162684400Y-146631000I155000J0D01*
G01*
G37*
G04 #@! TD.AperFunction*
G04 #@! TA.AperFunction,SMDPad,CuDef*
G36*
G01*
X162684400Y-145496000D02*
X162994400Y-145496000D01*
G75*
G02*
X163149400Y-145651000I0J-155000D01*
G01*
X163149400Y-146076000D01*
G75*
G02*
X162994400Y-146231000I-155000J0D01*
G01*
X162684400Y-146231000D01*
G75*
G02*
X162529400Y-146076000I0J155000D01*
G01*
X162529400Y-145651000D01*
G75*
G02*
X162684400Y-145496000I155000J0D01*
G01*
G37*
G04 #@! TD.AperFunction*
G04 #@! TA.AperFunction,SMDPad,CuDef*
G36*
G01*
X148974900Y-140561000D02*
X148974900Y-140871000D01*
G75*
G02*
X148819900Y-141026000I-155000J0D01*
G01*
X148394900Y-141026000D01*
G75*
G02*
X148239900Y-140871000I0J155000D01*
G01*
X148239900Y-140561000D01*
G75*
G02*
X148394900Y-140406000I155000J0D01*
G01*
X148819900Y-140406000D01*
G75*
G02*
X148974900Y-140561000I0J-155000D01*
G01*
G37*
G04 #@! TD.AperFunction*
G04 #@! TA.AperFunction,SMDPad,CuDef*
G36*
G01*
X147839900Y-140561000D02*
X147839900Y-140871000D01*
G75*
G02*
X147684900Y-141026000I-155000J0D01*
G01*
X147259900Y-141026000D01*
G75*
G02*
X147104900Y-140871000I0J155000D01*
G01*
X147104900Y-140561000D01*
G75*
G02*
X147259900Y-140406000I155000J0D01*
G01*
X147684900Y-140406000D01*
G75*
G02*
X147839900Y-140561000I0J-155000D01*
G01*
G37*
G04 #@! TD.AperFunction*
G04 #@! TA.AperFunction,SMDPad,CuDef*
G36*
G01*
X157520700Y-126233200D02*
X157210700Y-126233200D01*
G75*
G02*
X157055700Y-126078200I0J155000D01*
G01*
X157055700Y-125653200D01*
G75*
G02*
X157210700Y-125498200I155000J0D01*
G01*
X157520700Y-125498200D01*
G75*
G02*
X157675700Y-125653200I0J-155000D01*
G01*
X157675700Y-126078200D01*
G75*
G02*
X157520700Y-126233200I-155000J0D01*
G01*
G37*
G04 #@! TD.AperFunction*
G04 #@! TA.AperFunction,SMDPad,CuDef*
G36*
G01*
X157520700Y-125098200D02*
X157210700Y-125098200D01*
G75*
G02*
X157055700Y-124943200I0J155000D01*
G01*
X157055700Y-124518200D01*
G75*
G02*
X157210700Y-124363200I155000J0D01*
G01*
X157520700Y-124363200D01*
G75*
G02*
X157675700Y-124518200I0J-155000D01*
G01*
X157675700Y-124943200D01*
G75*
G02*
X157520700Y-125098200I-155000J0D01*
G01*
G37*
G04 #@! TD.AperFunction*
G04 #@! TA.AperFunction,SMDPad,CuDef*
G36*
G01*
X161414400Y-146631000D02*
X161724400Y-146631000D01*
G75*
G02*
X161879400Y-146786000I0J-155000D01*
G01*
X161879400Y-147211000D01*
G75*
G02*
X161724400Y-147366000I-155000J0D01*
G01*
X161414400Y-147366000D01*
G75*
G02*
X161259400Y-147211000I0J155000D01*
G01*
X161259400Y-146786000D01*
G75*
G02*
X161414400Y-146631000I155000J0D01*
G01*
G37*
G04 #@! TD.AperFunction*
G04 #@! TA.AperFunction,SMDPad,CuDef*
G36*
G01*
X161414400Y-145496000D02*
X161724400Y-145496000D01*
G75*
G02*
X161879400Y-145651000I0J-155000D01*
G01*
X161879400Y-146076000D01*
G75*
G02*
X161724400Y-146231000I-155000J0D01*
G01*
X161414400Y-146231000D01*
G75*
G02*
X161259400Y-146076000I0J155000D01*
G01*
X161259400Y-145651000D01*
G75*
G02*
X161414400Y-145496000I155000J0D01*
G01*
G37*
G04 #@! TD.AperFunction*
G04 #@! TA.AperFunction,SMDPad,CuDef*
G36*
G01*
X169827000Y-130652800D02*
X169517000Y-130652800D01*
G75*
G02*
X169362000Y-130497800I0J155000D01*
G01*
X169362000Y-130072800D01*
G75*
G02*
X169517000Y-129917800I155000J0D01*
G01*
X169827000Y-129917800D01*
G75*
G02*
X169982000Y-130072800I0J-155000D01*
G01*
X169982000Y-130497800D01*
G75*
G02*
X169827000Y-130652800I-155000J0D01*
G01*
G37*
G04 #@! TD.AperFunction*
G04 #@! TA.AperFunction,SMDPad,CuDef*
G36*
G01*
X169827000Y-129517800D02*
X169517000Y-129517800D01*
G75*
G02*
X169362000Y-129362800I0J155000D01*
G01*
X169362000Y-128937800D01*
G75*
G02*
X169517000Y-128782800I155000J0D01*
G01*
X169827000Y-128782800D01*
G75*
G02*
X169982000Y-128937800I0J-155000D01*
G01*
X169982000Y-129362800D01*
G75*
G02*
X169827000Y-129517800I-155000J0D01*
G01*
G37*
G04 #@! TD.AperFunction*
G04 #@! TA.AperFunction,SMDPad,CuDef*
G36*
G01*
X156250700Y-126233200D02*
X155940700Y-126233200D01*
G75*
G02*
X155785700Y-126078200I0J155000D01*
G01*
X155785700Y-125653200D01*
G75*
G02*
X155940700Y-125498200I155000J0D01*
G01*
X156250700Y-125498200D01*
G75*
G02*
X156405700Y-125653200I0J-155000D01*
G01*
X156405700Y-126078200D01*
G75*
G02*
X156250700Y-126233200I-155000J0D01*
G01*
G37*
G04 #@! TD.AperFunction*
G04 #@! TA.AperFunction,SMDPad,CuDef*
G36*
G01*
X156250700Y-125098200D02*
X155940700Y-125098200D01*
G75*
G02*
X155785700Y-124943200I0J155000D01*
G01*
X155785700Y-124518200D01*
G75*
G02*
X155940700Y-124363200I155000J0D01*
G01*
X156250700Y-124363200D01*
G75*
G02*
X156405700Y-124518200I0J-155000D01*
G01*
X156405700Y-124943200D01*
G75*
G02*
X156250700Y-125098200I-155000J0D01*
G01*
G37*
G04 #@! TD.AperFunction*
G04 #@! TA.AperFunction,SMDPad,CuDef*
G36*
G01*
X150947400Y-133703000D02*
X150947400Y-134013000D01*
G75*
G02*
X150792400Y-134168000I-155000J0D01*
G01*
X150367400Y-134168000D01*
G75*
G02*
X150212400Y-134013000I0J155000D01*
G01*
X150212400Y-133703000D01*
G75*
G02*
X150367400Y-133548000I155000J0D01*
G01*
X150792400Y-133548000D01*
G75*
G02*
X150947400Y-133703000I0J-155000D01*
G01*
G37*
G04 #@! TD.AperFunction*
G04 #@! TA.AperFunction,SMDPad,CuDef*
G36*
G01*
X149812400Y-133703000D02*
X149812400Y-134013000D01*
G75*
G02*
X149657400Y-134168000I-155000J0D01*
G01*
X149232400Y-134168000D01*
G75*
G02*
X149077400Y-134013000I0J155000D01*
G01*
X149077400Y-133703000D01*
G75*
G02*
X149232400Y-133548000I155000J0D01*
G01*
X149657400Y-133548000D01*
G75*
G02*
X149812400Y-133703000I0J-155000D01*
G01*
G37*
G04 #@! TD.AperFunction*
G04 #@! TA.AperFunction,SMDPad,CuDef*
G36*
G01*
X159636400Y-146631000D02*
X159946400Y-146631000D01*
G75*
G02*
X160101400Y-146786000I0J-155000D01*
G01*
X160101400Y-147211000D01*
G75*
G02*
X159946400Y-147366000I-155000J0D01*
G01*
X159636400Y-147366000D01*
G75*
G02*
X159481400Y-147211000I0J155000D01*
G01*
X159481400Y-146786000D01*
G75*
G02*
X159636400Y-146631000I155000J0D01*
G01*
G37*
G04 #@! TD.AperFunction*
G04 #@! TA.AperFunction,SMDPad,CuDef*
G36*
G01*
X159636400Y-145496000D02*
X159946400Y-145496000D01*
G75*
G02*
X160101400Y-145651000I0J-155000D01*
G01*
X160101400Y-146076000D01*
G75*
G02*
X159946400Y-146231000I-155000J0D01*
G01*
X159636400Y-146231000D01*
G75*
G02*
X159481400Y-146076000I0J155000D01*
G01*
X159481400Y-145651000D01*
G75*
G02*
X159636400Y-145496000I155000J0D01*
G01*
G37*
G04 #@! TD.AperFunction*
G04 #@! TA.AperFunction,SMDPad,CuDef*
G36*
G01*
X227937000Y-90949500D02*
X228247000Y-90949500D01*
G75*
G02*
X228402000Y-91104500I0J-155000D01*
G01*
X228402000Y-91529500D01*
G75*
G02*
X228247000Y-91684500I-155000J0D01*
G01*
X227937000Y-91684500D01*
G75*
G02*
X227782000Y-91529500I0J155000D01*
G01*
X227782000Y-91104500D01*
G75*
G02*
X227937000Y-90949500I155000J0D01*
G01*
G37*
G04 #@! TD.AperFunction*
G04 #@! TA.AperFunction,SMDPad,CuDef*
G36*
G01*
X227937000Y-92084500D02*
X228247000Y-92084500D01*
G75*
G02*
X228402000Y-92239500I0J-155000D01*
G01*
X228402000Y-92664500D01*
G75*
G02*
X228247000Y-92819500I-155000J0D01*
G01*
X227937000Y-92819500D01*
G75*
G02*
X227782000Y-92664500I0J155000D01*
G01*
X227782000Y-92239500D01*
G75*
G02*
X227937000Y-92084500I155000J0D01*
G01*
G37*
G04 #@! TD.AperFunction*
G04 #@! TA.AperFunction,SMDPad,CuDef*
G36*
G01*
X154980700Y-126233200D02*
X154670700Y-126233200D01*
G75*
G02*
X154515700Y-126078200I0J155000D01*
G01*
X154515700Y-125653200D01*
G75*
G02*
X154670700Y-125498200I155000J0D01*
G01*
X154980700Y-125498200D01*
G75*
G02*
X155135700Y-125653200I0J-155000D01*
G01*
X155135700Y-126078200D01*
G75*
G02*
X154980700Y-126233200I-155000J0D01*
G01*
G37*
G04 #@! TD.AperFunction*
G04 #@! TA.AperFunction,SMDPad,CuDef*
G36*
G01*
X154980700Y-125098200D02*
X154670700Y-125098200D01*
G75*
G02*
X154515700Y-124943200I0J155000D01*
G01*
X154515700Y-124518200D01*
G75*
G02*
X154670700Y-124363200I155000J0D01*
G01*
X154980700Y-124363200D01*
G75*
G02*
X155135700Y-124518200I0J-155000D01*
G01*
X155135700Y-124943200D01*
G75*
G02*
X154980700Y-125098200I-155000J0D01*
G01*
G37*
G04 #@! TD.AperFunction*
G04 #@! TA.AperFunction,SMDPad,CuDef*
G36*
G01*
X79733200Y-115844600D02*
X79423200Y-115844600D01*
G75*
G02*
X79268200Y-115689600I0J155000D01*
G01*
X79268200Y-115264600D01*
G75*
G02*
X79423200Y-115109600I155000J0D01*
G01*
X79733200Y-115109600D01*
G75*
G02*
X79888200Y-115264600I0J-155000D01*
G01*
X79888200Y-115689600D01*
G75*
G02*
X79733200Y-115844600I-155000J0D01*
G01*
G37*
G04 #@! TD.AperFunction*
G04 #@! TA.AperFunction,SMDPad,CuDef*
G36*
G01*
X79733200Y-114709600D02*
X79423200Y-114709600D01*
G75*
G02*
X79268200Y-114554600I0J155000D01*
G01*
X79268200Y-114129600D01*
G75*
G02*
X79423200Y-113974600I155000J0D01*
G01*
X79733200Y-113974600D01*
G75*
G02*
X79888200Y-114129600I0J-155000D01*
G01*
X79888200Y-114554600D01*
G75*
G02*
X79733200Y-114709600I-155000J0D01*
G01*
G37*
G04 #@! TD.AperFunction*
G04 #@! TA.AperFunction,SMDPad,CuDef*
G36*
G01*
X73409200Y-115008600D02*
X73409200Y-115318600D01*
G75*
G02*
X73254200Y-115473600I-155000J0D01*
G01*
X72829200Y-115473600D01*
G75*
G02*
X72674200Y-115318600I0J155000D01*
G01*
X72674200Y-115008600D01*
G75*
G02*
X72829200Y-114853600I155000J0D01*
G01*
X73254200Y-114853600D01*
G75*
G02*
X73409200Y-115008600I0J-155000D01*
G01*
G37*
G04 #@! TD.AperFunction*
G04 #@! TA.AperFunction,SMDPad,CuDef*
G36*
G01*
X74544200Y-115008600D02*
X74544200Y-115318600D01*
G75*
G02*
X74389200Y-115473600I-155000J0D01*
G01*
X73964200Y-115473600D01*
G75*
G02*
X73809200Y-115318600I0J155000D01*
G01*
X73809200Y-115008600D01*
G75*
G02*
X73964200Y-114853600I155000J0D01*
G01*
X74389200Y-114853600D01*
G75*
G02*
X74544200Y-115008600I0J-155000D01*
G01*
G37*
G04 #@! TD.AperFunction*
G04 #@! TA.AperFunction,SMDPad,CuDef*
G36*
G01*
X112416500Y-122075000D02*
X112416500Y-121765000D01*
G75*
G02*
X112571500Y-121610000I155000J0D01*
G01*
X112996500Y-121610000D01*
G75*
G02*
X113151500Y-121765000I0J-155000D01*
G01*
X113151500Y-122075000D01*
G75*
G02*
X112996500Y-122230000I-155000J0D01*
G01*
X112571500Y-122230000D01*
G75*
G02*
X112416500Y-122075000I0J155000D01*
G01*
G37*
G04 #@! TD.AperFunction*
G04 #@! TA.AperFunction,SMDPad,CuDef*
G36*
G01*
X113551500Y-122075000D02*
X113551500Y-121765000D01*
G75*
G02*
X113706500Y-121610000I155000J0D01*
G01*
X114131500Y-121610000D01*
G75*
G02*
X114286500Y-121765000I0J-155000D01*
G01*
X114286500Y-122075000D01*
G75*
G02*
X114131500Y-122230000I-155000J0D01*
G01*
X113706500Y-122230000D01*
G75*
G02*
X113551500Y-122075000I0J155000D01*
G01*
G37*
G04 #@! TD.AperFunction*
D17*
X96992800Y-119690200D03*
D18*
X94452800Y-119690200D03*
D17*
X138992800Y-119690200D03*
D18*
X136452800Y-119690200D03*
X178452800Y-119690200D03*
D17*
X180992800Y-119690200D03*
D18*
X220452800Y-119690200D03*
D17*
X222992800Y-119690200D03*
D18*
X94452800Y-161690200D03*
D17*
X96992800Y-161690200D03*
X138992800Y-161690200D03*
D18*
X136452800Y-161690200D03*
D17*
X180992800Y-161690200D03*
D18*
X178452800Y-161690200D03*
D17*
X222992800Y-161690200D03*
D18*
X220452800Y-161690200D03*
D17*
X96992800Y-203690200D03*
D18*
X94452800Y-203690200D03*
X136452800Y-203690200D03*
D17*
X138992800Y-203690200D03*
D18*
X178452800Y-203690200D03*
D17*
X180992800Y-203690200D03*
D18*
X220452800Y-203690200D03*
D17*
X222992800Y-203690200D03*
G04 #@! TA.AperFunction,SMDPad,CuDef*
G36*
G01*
X158218850Y-154514000D02*
X157706350Y-154514000D01*
G75*
G02*
X157487600Y-154295250I0J218750D01*
G01*
X157487600Y-153857750D01*
G75*
G02*
X157706350Y-153639000I218750J0D01*
G01*
X158218850Y-153639000D01*
G75*
G02*
X158437600Y-153857750I0J-218750D01*
G01*
X158437600Y-154295250D01*
G75*
G02*
X158218850Y-154514000I-218750J0D01*
G01*
G37*
G04 #@! TD.AperFunction*
G04 #@! TA.AperFunction,SMDPad,CuDef*
G36*
G01*
X158218850Y-152939000D02*
X157706350Y-152939000D01*
G75*
G02*
X157487600Y-152720250I0J218750D01*
G01*
X157487600Y-152282750D01*
G75*
G02*
X157706350Y-152064000I218750J0D01*
G01*
X158218850Y-152064000D01*
G75*
G02*
X158437600Y-152282750I0J-218750D01*
G01*
X158437600Y-152720250D01*
G75*
G02*
X158218850Y-152939000I-218750J0D01*
G01*
G37*
G04 #@! TD.AperFunction*
G04 #@! TA.AperFunction,SMDPad,CuDef*
G36*
G01*
X153646850Y-152939000D02*
X153134350Y-152939000D01*
G75*
G02*
X152915600Y-152720250I0J218750D01*
G01*
X152915600Y-152282750D01*
G75*
G02*
X153134350Y-152064000I218750J0D01*
G01*
X153646850Y-152064000D01*
G75*
G02*
X153865600Y-152282750I0J-218750D01*
G01*
X153865600Y-152720250D01*
G75*
G02*
X153646850Y-152939000I-218750J0D01*
G01*
G37*
G04 #@! TD.AperFunction*
G04 #@! TA.AperFunction,SMDPad,CuDef*
G36*
G01*
X153646850Y-154514000D02*
X153134350Y-154514000D01*
G75*
G02*
X152915600Y-154295250I0J218750D01*
G01*
X152915600Y-153857750D01*
G75*
G02*
X153134350Y-153639000I218750J0D01*
G01*
X153646850Y-153639000D01*
G75*
G02*
X153865600Y-153857750I0J-218750D01*
G01*
X153865600Y-154295250D01*
G75*
G02*
X153646850Y-154514000I-218750J0D01*
G01*
G37*
G04 #@! TD.AperFunction*
G04 #@! TA.AperFunction,SMDPad,CuDef*
G36*
G01*
X86010200Y-117510850D02*
X86010200Y-118023350D01*
G75*
G02*
X85791450Y-118242100I-218750J0D01*
G01*
X85353950Y-118242100D01*
G75*
G02*
X85135200Y-118023350I0J218750D01*
G01*
X85135200Y-117510850D01*
G75*
G02*
X85353950Y-117292100I218750J0D01*
G01*
X85791450Y-117292100D01*
G75*
G02*
X86010200Y-117510850I0J-218750D01*
G01*
G37*
G04 #@! TD.AperFunction*
G04 #@! TA.AperFunction,SMDPad,CuDef*
G36*
G01*
X84435200Y-117510850D02*
X84435200Y-118023350D01*
G75*
G02*
X84216450Y-118242100I-218750J0D01*
G01*
X83778950Y-118242100D01*
G75*
G02*
X83560200Y-118023350I0J218750D01*
G01*
X83560200Y-117510850D01*
G75*
G02*
X83778950Y-117292100I218750J0D01*
G01*
X84216450Y-117292100D01*
G75*
G02*
X84435200Y-117510850I0J-218750D01*
G01*
G37*
G04 #@! TD.AperFunction*
G04 #@! TA.AperFunction,SMDPad,CuDef*
G36*
G01*
X171355600Y-131756999D02*
X171355600Y-132657001D01*
G75*
G02*
X171105601Y-132907000I-249999J0D01*
G01*
X170455599Y-132907000D01*
G75*
G02*
X170205600Y-132657001I0J249999D01*
G01*
X170205600Y-131756999D01*
G75*
G02*
X170455599Y-131507000I249999J0D01*
G01*
X171105601Y-131507000D01*
G75*
G02*
X171355600Y-131756999I0J-249999D01*
G01*
G37*
G04 #@! TD.AperFunction*
G04 #@! TA.AperFunction,SMDPad,CuDef*
G36*
G01*
X173405600Y-131756999D02*
X173405600Y-132657001D01*
G75*
G02*
X173155601Y-132907000I-249999J0D01*
G01*
X172505599Y-132907000D01*
G75*
G02*
X172255600Y-132657001I0J249999D01*
G01*
X172255600Y-131756999D01*
G75*
G02*
X172505599Y-131507000I249999J0D01*
G01*
X173155601Y-131507000D01*
G75*
G02*
X173405600Y-131756999I0J-249999D01*
G01*
G37*
G04 #@! TD.AperFunction*
G04 #@! TA.AperFunction,SMDPad,CuDef*
G36*
G01*
X75064199Y-110198100D02*
X75964201Y-110198100D01*
G75*
G02*
X76214200Y-110448099I0J-249999D01*
G01*
X76214200Y-111098101D01*
G75*
G02*
X75964201Y-111348100I-249999J0D01*
G01*
X75064199Y-111348100D01*
G75*
G02*
X74814200Y-111098101I0J249999D01*
G01*
X74814200Y-110448099D01*
G75*
G02*
X75064199Y-110198100I249999J0D01*
G01*
G37*
G04 #@! TD.AperFunction*
G04 #@! TA.AperFunction,SMDPad,CuDef*
G36*
G01*
X75064199Y-112248100D02*
X75964201Y-112248100D01*
G75*
G02*
X76214200Y-112498099I0J-249999D01*
G01*
X76214200Y-113148101D01*
G75*
G02*
X75964201Y-113398100I-249999J0D01*
G01*
X75064199Y-113398100D01*
G75*
G02*
X74814200Y-113148101I0J249999D01*
G01*
X74814200Y-112498099D01*
G75*
G02*
X75064199Y-112248100I249999J0D01*
G01*
G37*
G04 #@! TD.AperFunction*
D15*
X182651400Y-86321900D03*
D16*
X182651400Y-83781900D03*
X180111400Y-86321900D03*
X180111400Y-83781900D03*
X177571400Y-86321900D03*
X177571400Y-83781900D03*
X175031400Y-86321900D03*
X175031400Y-83781900D03*
X172491400Y-86321900D03*
X172491400Y-83781900D03*
X169951400Y-86321900D03*
X169951400Y-83781900D03*
X167411400Y-86321900D03*
X167411400Y-83781900D03*
X187325000Y-124206000D03*
X189865000Y-124206000D03*
D15*
X192405000Y-124206000D03*
X150012400Y-86321900D03*
D16*
X150012400Y-83781900D03*
X147472400Y-86321900D03*
X147472400Y-83781900D03*
X144932400Y-86321900D03*
X144932400Y-83781900D03*
X142392400Y-86321900D03*
X142392400Y-83781900D03*
X139852400Y-86321900D03*
X139852400Y-83781900D03*
X137312400Y-86321900D03*
X137312400Y-83781900D03*
X134772400Y-86321900D03*
X134772400Y-83781900D03*
X132232400Y-86321900D03*
X132232400Y-83781900D03*
D15*
X187896500Y-118300500D03*
D16*
X190436500Y-118300500D03*
X192976500Y-118300500D03*
D15*
X214693500Y-83756500D03*
D16*
X212153500Y-83756500D03*
X209613500Y-83756500D03*
X207073500Y-83756500D03*
X204533500Y-83756500D03*
X201993500Y-83756500D03*
X199453500Y-83756500D03*
X196913500Y-83756500D03*
D19*
X123126500Y-112331500D03*
X123126500Y-113601500D03*
X123126500Y-114871500D03*
X123126500Y-116141500D03*
X123126500Y-117411500D03*
X121856500Y-117411500D03*
X121856500Y-116141500D03*
X121856500Y-114871500D03*
X121856500Y-113601500D03*
X121856500Y-112331500D03*
D15*
X113284000Y-116522500D03*
D16*
X110744000Y-116522500D03*
X110655100Y-112204500D03*
D15*
X113195100Y-112204500D03*
G04 #@! TA.AperFunction,SMDPad,CuDef*
G36*
G01*
X165793400Y-146191000D02*
X165473400Y-146191000D01*
G75*
G02*
X165313400Y-146031000I0J160000D01*
G01*
X165313400Y-145636000D01*
G75*
G02*
X165473400Y-145476000I160000J0D01*
G01*
X165793400Y-145476000D01*
G75*
G02*
X165953400Y-145636000I0J-160000D01*
G01*
X165953400Y-146031000D01*
G75*
G02*
X165793400Y-146191000I-160000J0D01*
G01*
G37*
G04 #@! TD.AperFunction*
G04 #@! TA.AperFunction,SMDPad,CuDef*
G36*
G01*
X165793400Y-147386000D02*
X165473400Y-147386000D01*
G75*
G02*
X165313400Y-147226000I0J160000D01*
G01*
X165313400Y-146831000D01*
G75*
G02*
X165473400Y-146671000I160000J0D01*
G01*
X165793400Y-146671000D01*
G75*
G02*
X165953400Y-146831000I0J-160000D01*
G01*
X165953400Y-147226000D01*
G75*
G02*
X165793400Y-147386000I-160000J0D01*
G01*
G37*
G04 #@! TD.AperFunction*
G04 #@! TA.AperFunction,SMDPad,CuDef*
G36*
G01*
X180954700Y-91132100D02*
X181274700Y-91132100D01*
G75*
G02*
X181434700Y-91292100I0J-160000D01*
G01*
X181434700Y-91687100D01*
G75*
G02*
X181274700Y-91847100I-160000J0D01*
G01*
X180954700Y-91847100D01*
G75*
G02*
X180794700Y-91687100I0J160000D01*
G01*
X180794700Y-91292100D01*
G75*
G02*
X180954700Y-91132100I160000J0D01*
G01*
G37*
G04 #@! TD.AperFunction*
G04 #@! TA.AperFunction,SMDPad,CuDef*
G36*
G01*
X180954700Y-92327100D02*
X181274700Y-92327100D01*
G75*
G02*
X181434700Y-92487100I0J-160000D01*
G01*
X181434700Y-92882100D01*
G75*
G02*
X181274700Y-93042100I-160000J0D01*
G01*
X180954700Y-93042100D01*
G75*
G02*
X180794700Y-92882100I0J160000D01*
G01*
X180794700Y-92487100D01*
G75*
G02*
X180954700Y-92327100I160000J0D01*
G01*
G37*
G04 #@! TD.AperFunction*
G04 #@! TA.AperFunction,SMDPad,CuDef*
G36*
G01*
X179877700Y-91809600D02*
X179557700Y-91809600D01*
G75*
G02*
X179397700Y-91649600I0J160000D01*
G01*
X179397700Y-91254600D01*
G75*
G02*
X179557700Y-91094600I160000J0D01*
G01*
X179877700Y-91094600D01*
G75*
G02*
X180037700Y-91254600I0J-160000D01*
G01*
X180037700Y-91649600D01*
G75*
G02*
X179877700Y-91809600I-160000J0D01*
G01*
G37*
G04 #@! TD.AperFunction*
G04 #@! TA.AperFunction,SMDPad,CuDef*
G36*
G01*
X179877700Y-93004600D02*
X179557700Y-93004600D01*
G75*
G02*
X179397700Y-92844600I0J160000D01*
G01*
X179397700Y-92449600D01*
G75*
G02*
X179557700Y-92289600I160000J0D01*
G01*
X179877700Y-92289600D01*
G75*
G02*
X180037700Y-92449600I0J-160000D01*
G01*
X180037700Y-92844600D01*
G75*
G02*
X179877700Y-93004600I-160000J0D01*
G01*
G37*
G04 #@! TD.AperFunction*
G04 #@! TA.AperFunction,SMDPad,CuDef*
G36*
G01*
X164396400Y-147386000D02*
X164076400Y-147386000D01*
G75*
G02*
X163916400Y-147226000I0J160000D01*
G01*
X163916400Y-146831000D01*
G75*
G02*
X164076400Y-146671000I160000J0D01*
G01*
X164396400Y-146671000D01*
G75*
G02*
X164556400Y-146831000I0J-160000D01*
G01*
X164556400Y-147226000D01*
G75*
G02*
X164396400Y-147386000I-160000J0D01*
G01*
G37*
G04 #@! TD.AperFunction*
G04 #@! TA.AperFunction,SMDPad,CuDef*
G36*
G01*
X164396400Y-146191000D02*
X164076400Y-146191000D01*
G75*
G02*
X163916400Y-146031000I0J160000D01*
G01*
X163916400Y-145636000D01*
G75*
G02*
X164076400Y-145476000I160000J0D01*
G01*
X164396400Y-145476000D01*
G75*
G02*
X164556400Y-145636000I0J-160000D01*
G01*
X164556400Y-146031000D01*
G75*
G02*
X164396400Y-146191000I-160000J0D01*
G01*
G37*
G04 #@! TD.AperFunction*
G04 #@! TA.AperFunction,SMDPad,CuDef*
G36*
G01*
X151216400Y-145702000D02*
X151216400Y-145382000D01*
G75*
G02*
X151376400Y-145222000I160000J0D01*
G01*
X151771400Y-145222000D01*
G75*
G02*
X151931400Y-145382000I0J-160000D01*
G01*
X151931400Y-145702000D01*
G75*
G02*
X151771400Y-145862000I-160000J0D01*
G01*
X151376400Y-145862000D01*
G75*
G02*
X151216400Y-145702000I0J160000D01*
G01*
G37*
G04 #@! TD.AperFunction*
G04 #@! TA.AperFunction,SMDPad,CuDef*
G36*
G01*
X152411400Y-145702000D02*
X152411400Y-145382000D01*
G75*
G02*
X152571400Y-145222000I160000J0D01*
G01*
X152966400Y-145222000D01*
G75*
G02*
X153126400Y-145382000I0J-160000D01*
G01*
X153126400Y-145702000D01*
G75*
G02*
X152966400Y-145862000I-160000J0D01*
G01*
X152571400Y-145862000D01*
G75*
G02*
X152411400Y-145702000I0J160000D01*
G01*
G37*
G04 #@! TD.AperFunction*
G04 #@! TA.AperFunction,SMDPad,CuDef*
G36*
G01*
X151931400Y-144112000D02*
X151931400Y-144432000D01*
G75*
G02*
X151771400Y-144592000I-160000J0D01*
G01*
X151376400Y-144592000D01*
G75*
G02*
X151216400Y-144432000I0J160000D01*
G01*
X151216400Y-144112000D01*
G75*
G02*
X151376400Y-143952000I160000J0D01*
G01*
X151771400Y-143952000D01*
G75*
G02*
X151931400Y-144112000I0J-160000D01*
G01*
G37*
G04 #@! TD.AperFunction*
G04 #@! TA.AperFunction,SMDPad,CuDef*
G36*
G01*
X153126400Y-144112000D02*
X153126400Y-144432000D01*
G75*
G02*
X152966400Y-144592000I-160000J0D01*
G01*
X152571400Y-144592000D01*
G75*
G02*
X152411400Y-144432000I0J160000D01*
G01*
X152411400Y-144112000D01*
G75*
G02*
X152571400Y-143952000I160000J0D01*
G01*
X152966400Y-143952000D01*
G75*
G02*
X153126400Y-144112000I0J-160000D01*
G01*
G37*
G04 #@! TD.AperFunction*
G04 #@! TA.AperFunction,SMDPad,CuDef*
G36*
G01*
X157828000Y-157135800D02*
X158148000Y-157135800D01*
G75*
G02*
X158308000Y-157295800I0J-160000D01*
G01*
X158308000Y-157690800D01*
G75*
G02*
X158148000Y-157850800I-160000J0D01*
G01*
X157828000Y-157850800D01*
G75*
G02*
X157668000Y-157690800I0J160000D01*
G01*
X157668000Y-157295800D01*
G75*
G02*
X157828000Y-157135800I160000J0D01*
G01*
G37*
G04 #@! TD.AperFunction*
G04 #@! TA.AperFunction,SMDPad,CuDef*
G36*
G01*
X157828000Y-155940800D02*
X158148000Y-155940800D01*
G75*
G02*
X158308000Y-156100800I0J-160000D01*
G01*
X158308000Y-156495800D01*
G75*
G02*
X158148000Y-156655800I-160000J0D01*
G01*
X157828000Y-156655800D01*
G75*
G02*
X157668000Y-156495800I0J160000D01*
G01*
X157668000Y-156100800D01*
G75*
G02*
X157828000Y-155940800I160000J0D01*
G01*
G37*
G04 #@! TD.AperFunction*
G04 #@! TA.AperFunction,SMDPad,CuDef*
G36*
G01*
X153205200Y-157186600D02*
X153525200Y-157186600D01*
G75*
G02*
X153685200Y-157346600I0J-160000D01*
G01*
X153685200Y-157741600D01*
G75*
G02*
X153525200Y-157901600I-160000J0D01*
G01*
X153205200Y-157901600D01*
G75*
G02*
X153045200Y-157741600I0J160000D01*
G01*
X153045200Y-157346600D01*
G75*
G02*
X153205200Y-157186600I160000J0D01*
G01*
G37*
G04 #@! TD.AperFunction*
G04 #@! TA.AperFunction,SMDPad,CuDef*
G36*
G01*
X153205200Y-155991600D02*
X153525200Y-155991600D01*
G75*
G02*
X153685200Y-156151600I0J-160000D01*
G01*
X153685200Y-156546600D01*
G75*
G02*
X153525200Y-156706600I-160000J0D01*
G01*
X153205200Y-156706600D01*
G75*
G02*
X153045200Y-156546600I0J160000D01*
G01*
X153045200Y-156151600D01*
G75*
G02*
X153205200Y-155991600I160000J0D01*
G01*
G37*
G04 #@! TD.AperFunction*
G04 #@! TA.AperFunction,SMDPad,CuDef*
G36*
G01*
X144076400Y-134634000D02*
X143756400Y-134634000D01*
G75*
G02*
X143596400Y-134474000I0J160000D01*
G01*
X143596400Y-134079000D01*
G75*
G02*
X143756400Y-133919000I160000J0D01*
G01*
X144076400Y-133919000D01*
G75*
G02*
X144236400Y-134079000I0J-160000D01*
G01*
X144236400Y-134474000D01*
G75*
G02*
X144076400Y-134634000I-160000J0D01*
G01*
G37*
G04 #@! TD.AperFunction*
G04 #@! TA.AperFunction,SMDPad,CuDef*
G36*
G01*
X144076400Y-135829000D02*
X143756400Y-135829000D01*
G75*
G02*
X143596400Y-135669000I0J160000D01*
G01*
X143596400Y-135274000D01*
G75*
G02*
X143756400Y-135114000I160000J0D01*
G01*
X144076400Y-135114000D01*
G75*
G02*
X144236400Y-135274000I0J-160000D01*
G01*
X144236400Y-135669000D01*
G75*
G02*
X144076400Y-135829000I-160000J0D01*
G01*
G37*
G04 #@! TD.AperFunction*
G04 #@! TA.AperFunction,SMDPad,CuDef*
G36*
G01*
X226718500Y-89885500D02*
X226718500Y-89565500D01*
G75*
G02*
X226878500Y-89405500I160000J0D01*
G01*
X227273500Y-89405500D01*
G75*
G02*
X227433500Y-89565500I0J-160000D01*
G01*
X227433500Y-89885500D01*
G75*
G02*
X227273500Y-90045500I-160000J0D01*
G01*
X226878500Y-90045500D01*
G75*
G02*
X226718500Y-89885500I0J160000D01*
G01*
G37*
G04 #@! TD.AperFunction*
G04 #@! TA.AperFunction,SMDPad,CuDef*
G36*
G01*
X225523500Y-89885500D02*
X225523500Y-89565500D01*
G75*
G02*
X225683500Y-89405500I160000J0D01*
G01*
X226078500Y-89405500D01*
G75*
G02*
X226238500Y-89565500I0J-160000D01*
G01*
X226238500Y-89885500D01*
G75*
G02*
X226078500Y-90045500I-160000J0D01*
G01*
X225683500Y-90045500D01*
G75*
G02*
X225523500Y-89885500I0J160000D01*
G01*
G37*
G04 #@! TD.AperFunction*
G04 #@! TA.AperFunction,SMDPad,CuDef*
G36*
G01*
X230571000Y-89565500D02*
X230571000Y-89885500D01*
G75*
G02*
X230411000Y-90045500I-160000J0D01*
G01*
X230016000Y-90045500D01*
G75*
G02*
X229856000Y-89885500I0J160000D01*
G01*
X229856000Y-89565500D01*
G75*
G02*
X230016000Y-89405500I160000J0D01*
G01*
X230411000Y-89405500D01*
G75*
G02*
X230571000Y-89565500I0J-160000D01*
G01*
G37*
G04 #@! TD.AperFunction*
G04 #@! TA.AperFunction,SMDPad,CuDef*
G36*
G01*
X229376000Y-89565500D02*
X229376000Y-89885500D01*
G75*
G02*
X229216000Y-90045500I-160000J0D01*
G01*
X228821000Y-90045500D01*
G75*
G02*
X228661000Y-89885500I0J160000D01*
G01*
X228661000Y-89565500D01*
G75*
G02*
X228821000Y-89405500I160000J0D01*
G01*
X229216000Y-89405500D01*
G75*
G02*
X229376000Y-89565500I0J-160000D01*
G01*
G37*
G04 #@! TD.AperFunction*
G04 #@! TA.AperFunction,SMDPad,CuDef*
G36*
G01*
X147708600Y-95811300D02*
X147388600Y-95811300D01*
G75*
G02*
X147228600Y-95651300I0J160000D01*
G01*
X147228600Y-95256300D01*
G75*
G02*
X147388600Y-95096300I160000J0D01*
G01*
X147708600Y-95096300D01*
G75*
G02*
X147868600Y-95256300I0J-160000D01*
G01*
X147868600Y-95651300D01*
G75*
G02*
X147708600Y-95811300I-160000J0D01*
G01*
G37*
G04 #@! TD.AperFunction*
G04 #@! TA.AperFunction,SMDPad,CuDef*
G36*
G01*
X147708600Y-94616300D02*
X147388600Y-94616300D01*
G75*
G02*
X147228600Y-94456300I0J160000D01*
G01*
X147228600Y-94061300D01*
G75*
G02*
X147388600Y-93901300I160000J0D01*
G01*
X147708600Y-93901300D01*
G75*
G02*
X147868600Y-94061300I0J-160000D01*
G01*
X147868600Y-94456300D01*
G75*
G02*
X147708600Y-94616300I-160000J0D01*
G01*
G37*
G04 #@! TD.AperFunction*
G04 #@! TA.AperFunction,SMDPad,CuDef*
G36*
G01*
X140164800Y-95836700D02*
X139844800Y-95836700D01*
G75*
G02*
X139684800Y-95676700I0J160000D01*
G01*
X139684800Y-95281700D01*
G75*
G02*
X139844800Y-95121700I160000J0D01*
G01*
X140164800Y-95121700D01*
G75*
G02*
X140324800Y-95281700I0J-160000D01*
G01*
X140324800Y-95676700D01*
G75*
G02*
X140164800Y-95836700I-160000J0D01*
G01*
G37*
G04 #@! TD.AperFunction*
G04 #@! TA.AperFunction,SMDPad,CuDef*
G36*
G01*
X140164800Y-94641700D02*
X139844800Y-94641700D01*
G75*
G02*
X139684800Y-94481700I0J160000D01*
G01*
X139684800Y-94086700D01*
G75*
G02*
X139844800Y-93926700I160000J0D01*
G01*
X140164800Y-93926700D01*
G75*
G02*
X140324800Y-94086700I0J-160000D01*
G01*
X140324800Y-94481700D01*
G75*
G02*
X140164800Y-94641700I-160000J0D01*
G01*
G37*
G04 #@! TD.AperFunction*
G04 #@! TA.AperFunction,SMDPad,CuDef*
G36*
G01*
X81850200Y-117927100D02*
X81850200Y-117607100D01*
G75*
G02*
X82010200Y-117447100I160000J0D01*
G01*
X82405200Y-117447100D01*
G75*
G02*
X82565200Y-117607100I0J-160000D01*
G01*
X82565200Y-117927100D01*
G75*
G02*
X82405200Y-118087100I-160000J0D01*
G01*
X82010200Y-118087100D01*
G75*
G02*
X81850200Y-117927100I0J160000D01*
G01*
G37*
G04 #@! TD.AperFunction*
G04 #@! TA.AperFunction,SMDPad,CuDef*
G36*
G01*
X80655200Y-117927100D02*
X80655200Y-117607100D01*
G75*
G02*
X80815200Y-117447100I160000J0D01*
G01*
X81210200Y-117447100D01*
G75*
G02*
X81370200Y-117607100I0J-160000D01*
G01*
X81370200Y-117927100D01*
G75*
G02*
X81210200Y-118087100I-160000J0D01*
G01*
X80815200Y-118087100D01*
G75*
G02*
X80655200Y-117927100I0J160000D01*
G01*
G37*
G04 #@! TD.AperFunction*
G04 #@! TA.AperFunction,SMDPad,CuDef*
G36*
G01*
X147363200Y-90446900D02*
X147683200Y-90446900D01*
G75*
G02*
X147843200Y-90606900I0J-160000D01*
G01*
X147843200Y-91001900D01*
G75*
G02*
X147683200Y-91161900I-160000J0D01*
G01*
X147363200Y-91161900D01*
G75*
G02*
X147203200Y-91001900I0J160000D01*
G01*
X147203200Y-90606900D01*
G75*
G02*
X147363200Y-90446900I160000J0D01*
G01*
G37*
G04 #@! TD.AperFunction*
G04 #@! TA.AperFunction,SMDPad,CuDef*
G36*
G01*
X147363200Y-91641900D02*
X147683200Y-91641900D01*
G75*
G02*
X147843200Y-91801900I0J-160000D01*
G01*
X147843200Y-92196900D01*
G75*
G02*
X147683200Y-92356900I-160000J0D01*
G01*
X147363200Y-92356900D01*
G75*
G02*
X147203200Y-92196900I0J160000D01*
G01*
X147203200Y-91801900D01*
G75*
G02*
X147363200Y-91641900I160000J0D01*
G01*
G37*
G04 #@! TD.AperFunction*
G04 #@! TA.AperFunction,SMDPad,CuDef*
G36*
G01*
X139844800Y-91591100D02*
X140164800Y-91591100D01*
G75*
G02*
X140324800Y-91751100I0J-160000D01*
G01*
X140324800Y-92146100D01*
G75*
G02*
X140164800Y-92306100I-160000J0D01*
G01*
X139844800Y-92306100D01*
G75*
G02*
X139684800Y-92146100I0J160000D01*
G01*
X139684800Y-91751100D01*
G75*
G02*
X139844800Y-91591100I160000J0D01*
G01*
G37*
G04 #@! TD.AperFunction*
G04 #@! TA.AperFunction,SMDPad,CuDef*
G36*
G01*
X139844800Y-90396100D02*
X140164800Y-90396100D01*
G75*
G02*
X140324800Y-90556100I0J-160000D01*
G01*
X140324800Y-90951100D01*
G75*
G02*
X140164800Y-91111100I-160000J0D01*
G01*
X139844800Y-91111100D01*
G75*
G02*
X139684800Y-90951100I0J160000D01*
G01*
X139684800Y-90556100D01*
G75*
G02*
X139844800Y-90396100I160000J0D01*
G01*
G37*
G04 #@! TD.AperFunction*
G04 #@! TA.AperFunction,SMDPad,CuDef*
G36*
G01*
X145219400Y-95824600D02*
X144899400Y-95824600D01*
G75*
G02*
X144739400Y-95664600I0J160000D01*
G01*
X144739400Y-95269600D01*
G75*
G02*
X144899400Y-95109600I160000J0D01*
G01*
X145219400Y-95109600D01*
G75*
G02*
X145379400Y-95269600I0J-160000D01*
G01*
X145379400Y-95664600D01*
G75*
G02*
X145219400Y-95824600I-160000J0D01*
G01*
G37*
G04 #@! TD.AperFunction*
G04 #@! TA.AperFunction,SMDPad,CuDef*
G36*
G01*
X145219400Y-94629600D02*
X144899400Y-94629600D01*
G75*
G02*
X144739400Y-94469600I0J160000D01*
G01*
X144739400Y-94074600D01*
G75*
G02*
X144899400Y-93914600I160000J0D01*
G01*
X145219400Y-93914600D01*
G75*
G02*
X145379400Y-94074600I0J-160000D01*
G01*
X145379400Y-94469600D01*
G75*
G02*
X145219400Y-94629600I-160000J0D01*
G01*
G37*
G04 #@! TD.AperFunction*
G04 #@! TA.AperFunction,SMDPad,CuDef*
G36*
G01*
X137497800Y-94641700D02*
X137177800Y-94641700D01*
G75*
G02*
X137017800Y-94481700I0J160000D01*
G01*
X137017800Y-94086700D01*
G75*
G02*
X137177800Y-93926700I160000J0D01*
G01*
X137497800Y-93926700D01*
G75*
G02*
X137657800Y-94086700I0J-160000D01*
G01*
X137657800Y-94481700D01*
G75*
G02*
X137497800Y-94641700I-160000J0D01*
G01*
G37*
G04 #@! TD.AperFunction*
G04 #@! TA.AperFunction,SMDPad,CuDef*
G36*
G01*
X137497800Y-95836700D02*
X137177800Y-95836700D01*
G75*
G02*
X137017800Y-95676700I0J160000D01*
G01*
X137017800Y-95281700D01*
G75*
G02*
X137177800Y-95121700I160000J0D01*
G01*
X137497800Y-95121700D01*
G75*
G02*
X137657800Y-95281700I0J-160000D01*
G01*
X137657800Y-95676700D01*
G75*
G02*
X137497800Y-95836700I-160000J0D01*
G01*
G37*
G04 #@! TD.AperFunction*
G04 #@! TA.AperFunction,SMDPad,CuDef*
G36*
G01*
X144899400Y-91591100D02*
X145219400Y-91591100D01*
G75*
G02*
X145379400Y-91751100I0J-160000D01*
G01*
X145379400Y-92146100D01*
G75*
G02*
X145219400Y-92306100I-160000J0D01*
G01*
X144899400Y-92306100D01*
G75*
G02*
X144739400Y-92146100I0J160000D01*
G01*
X144739400Y-91751100D01*
G75*
G02*
X144899400Y-91591100I160000J0D01*
G01*
G37*
G04 #@! TD.AperFunction*
G04 #@! TA.AperFunction,SMDPad,CuDef*
G36*
G01*
X144899400Y-90396100D02*
X145219400Y-90396100D01*
G75*
G02*
X145379400Y-90556100I0J-160000D01*
G01*
X145379400Y-90951100D01*
G75*
G02*
X145219400Y-91111100I-160000J0D01*
G01*
X144899400Y-91111100D01*
G75*
G02*
X144739400Y-90951100I0J160000D01*
G01*
X144739400Y-90556100D01*
G75*
G02*
X144899400Y-90396100I160000J0D01*
G01*
G37*
G04 #@! TD.AperFunction*
G04 #@! TA.AperFunction,SMDPad,CuDef*
G36*
G01*
X137177800Y-91565700D02*
X137497800Y-91565700D01*
G75*
G02*
X137657800Y-91725700I0J-160000D01*
G01*
X137657800Y-92120700D01*
G75*
G02*
X137497800Y-92280700I-160000J0D01*
G01*
X137177800Y-92280700D01*
G75*
G02*
X137017800Y-92120700I0J160000D01*
G01*
X137017800Y-91725700D01*
G75*
G02*
X137177800Y-91565700I160000J0D01*
G01*
G37*
G04 #@! TD.AperFunction*
G04 #@! TA.AperFunction,SMDPad,CuDef*
G36*
G01*
X137177800Y-90370700D02*
X137497800Y-90370700D01*
G75*
G02*
X137657800Y-90530700I0J-160000D01*
G01*
X137657800Y-90925700D01*
G75*
G02*
X137497800Y-91085700I-160000J0D01*
G01*
X137177800Y-91085700D01*
G75*
G02*
X137017800Y-90925700I0J160000D01*
G01*
X137017800Y-90530700D01*
G75*
G02*
X137177800Y-90370700I160000J0D01*
G01*
G37*
G04 #@! TD.AperFunction*
G04 #@! TA.AperFunction,SMDPad,CuDef*
G36*
G01*
X142704800Y-95836700D02*
X142384800Y-95836700D01*
G75*
G02*
X142224800Y-95676700I0J160000D01*
G01*
X142224800Y-95281700D01*
G75*
G02*
X142384800Y-95121700I160000J0D01*
G01*
X142704800Y-95121700D01*
G75*
G02*
X142864800Y-95281700I0J-160000D01*
G01*
X142864800Y-95676700D01*
G75*
G02*
X142704800Y-95836700I-160000J0D01*
G01*
G37*
G04 #@! TD.AperFunction*
G04 #@! TA.AperFunction,SMDPad,CuDef*
G36*
G01*
X142704800Y-94641700D02*
X142384800Y-94641700D01*
G75*
G02*
X142224800Y-94481700I0J160000D01*
G01*
X142224800Y-94086700D01*
G75*
G02*
X142384800Y-93926700I160000J0D01*
G01*
X142704800Y-93926700D01*
G75*
G02*
X142864800Y-94086700I0J-160000D01*
G01*
X142864800Y-94481700D01*
G75*
G02*
X142704800Y-94641700I-160000J0D01*
G01*
G37*
G04 #@! TD.AperFunction*
G04 #@! TA.AperFunction,SMDPad,CuDef*
G36*
G01*
X135034000Y-94590900D02*
X134714000Y-94590900D01*
G75*
G02*
X134554000Y-94430900I0J160000D01*
G01*
X134554000Y-94035900D01*
G75*
G02*
X134714000Y-93875900I160000J0D01*
G01*
X135034000Y-93875900D01*
G75*
G02*
X135194000Y-94035900I0J-160000D01*
G01*
X135194000Y-94430900D01*
G75*
G02*
X135034000Y-94590900I-160000J0D01*
G01*
G37*
G04 #@! TD.AperFunction*
G04 #@! TA.AperFunction,SMDPad,CuDef*
G36*
G01*
X135034000Y-95785900D02*
X134714000Y-95785900D01*
G75*
G02*
X134554000Y-95625900I0J160000D01*
G01*
X134554000Y-95230900D01*
G75*
G02*
X134714000Y-95070900I160000J0D01*
G01*
X135034000Y-95070900D01*
G75*
G02*
X135194000Y-95230900I0J-160000D01*
G01*
X135194000Y-95625900D01*
G75*
G02*
X135034000Y-95785900I-160000J0D01*
G01*
G37*
G04 #@! TD.AperFunction*
G04 #@! TA.AperFunction,SMDPad,CuDef*
G36*
G01*
X142384800Y-91591100D02*
X142704800Y-91591100D01*
G75*
G02*
X142864800Y-91751100I0J-160000D01*
G01*
X142864800Y-92146100D01*
G75*
G02*
X142704800Y-92306100I-160000J0D01*
G01*
X142384800Y-92306100D01*
G75*
G02*
X142224800Y-92146100I0J160000D01*
G01*
X142224800Y-91751100D01*
G75*
G02*
X142384800Y-91591100I160000J0D01*
G01*
G37*
G04 #@! TD.AperFunction*
G04 #@! TA.AperFunction,SMDPad,CuDef*
G36*
G01*
X142384800Y-90396100D02*
X142704800Y-90396100D01*
G75*
G02*
X142864800Y-90556100I0J-160000D01*
G01*
X142864800Y-90951100D01*
G75*
G02*
X142704800Y-91111100I-160000J0D01*
G01*
X142384800Y-91111100D01*
G75*
G02*
X142224800Y-90951100I0J160000D01*
G01*
X142224800Y-90556100D01*
G75*
G02*
X142384800Y-90396100I160000J0D01*
G01*
G37*
G04 #@! TD.AperFunction*
G04 #@! TA.AperFunction,SMDPad,CuDef*
G36*
G01*
X134688600Y-90396100D02*
X135008600Y-90396100D01*
G75*
G02*
X135168600Y-90556100I0J-160000D01*
G01*
X135168600Y-90951100D01*
G75*
G02*
X135008600Y-91111100I-160000J0D01*
G01*
X134688600Y-91111100D01*
G75*
G02*
X134528600Y-90951100I0J160000D01*
G01*
X134528600Y-90556100D01*
G75*
G02*
X134688600Y-90396100I160000J0D01*
G01*
G37*
G04 #@! TD.AperFunction*
G04 #@! TA.AperFunction,SMDPad,CuDef*
G36*
G01*
X134688600Y-91591100D02*
X135008600Y-91591100D01*
G75*
G02*
X135168600Y-91751100I0J-160000D01*
G01*
X135168600Y-92146100D01*
G75*
G02*
X135008600Y-92306100I-160000J0D01*
G01*
X134688600Y-92306100D01*
G75*
G02*
X134528600Y-92146100I0J160000D01*
G01*
X134528600Y-91751100D01*
G75*
G02*
X134688600Y-91591100I160000J0D01*
G01*
G37*
G04 #@! TD.AperFunction*
G04 #@! TA.AperFunction,SMDPad,CuDef*
G36*
G01*
X129096800Y-112628700D02*
X129096800Y-112948700D01*
G75*
G02*
X128936800Y-113108700I-160000J0D01*
G01*
X128541800Y-113108700D01*
G75*
G02*
X128381800Y-112948700I0J160000D01*
G01*
X128381800Y-112628700D01*
G75*
G02*
X128541800Y-112468700I160000J0D01*
G01*
X128936800Y-112468700D01*
G75*
G02*
X129096800Y-112628700I0J-160000D01*
G01*
G37*
G04 #@! TD.AperFunction*
G04 #@! TA.AperFunction,SMDPad,CuDef*
G36*
G01*
X130291800Y-112628700D02*
X130291800Y-112948700D01*
G75*
G02*
X130131800Y-113108700I-160000J0D01*
G01*
X129736800Y-113108700D01*
G75*
G02*
X129576800Y-112948700I0J160000D01*
G01*
X129576800Y-112628700D01*
G75*
G02*
X129736800Y-112468700I160000J0D01*
G01*
X130131800Y-112468700D01*
G75*
G02*
X130291800Y-112628700I0J-160000D01*
G01*
G37*
G04 #@! TD.AperFunction*
G04 #@! TA.AperFunction,SMDPad,CuDef*
G36*
G01*
X130253700Y-114305100D02*
X130253700Y-114625100D01*
G75*
G02*
X130093700Y-114785100I-160000J0D01*
G01*
X129698700Y-114785100D01*
G75*
G02*
X129538700Y-114625100I0J160000D01*
G01*
X129538700Y-114305100D01*
G75*
G02*
X129698700Y-114145100I160000J0D01*
G01*
X130093700Y-114145100D01*
G75*
G02*
X130253700Y-114305100I0J-160000D01*
G01*
G37*
G04 #@! TD.AperFunction*
G04 #@! TA.AperFunction,SMDPad,CuDef*
G36*
G01*
X129058700Y-114305100D02*
X129058700Y-114625100D01*
G75*
G02*
X128898700Y-114785100I-160000J0D01*
G01*
X128503700Y-114785100D01*
G75*
G02*
X128343700Y-114625100I0J160000D01*
G01*
X128343700Y-114305100D01*
G75*
G02*
X128503700Y-114145100I160000J0D01*
G01*
X128898700Y-114145100D01*
G75*
G02*
X129058700Y-114305100I0J-160000D01*
G01*
G37*
G04 #@! TD.AperFunction*
G04 #@! TA.AperFunction,SMDPad,CuDef*
G36*
G01*
X77226200Y-128849100D02*
X77226200Y-128529100D01*
G75*
G02*
X77386200Y-128369100I160000J0D01*
G01*
X77781200Y-128369100D01*
G75*
G02*
X77941200Y-128529100I0J-160000D01*
G01*
X77941200Y-128849100D01*
G75*
G02*
X77781200Y-129009100I-160000J0D01*
G01*
X77386200Y-129009100D01*
G75*
G02*
X77226200Y-128849100I0J160000D01*
G01*
G37*
G04 #@! TD.AperFunction*
G04 #@! TA.AperFunction,SMDPad,CuDef*
G36*
G01*
X78421200Y-128849100D02*
X78421200Y-128529100D01*
G75*
G02*
X78581200Y-128369100I160000J0D01*
G01*
X78976200Y-128369100D01*
G75*
G02*
X79136200Y-128529100I0J-160000D01*
G01*
X79136200Y-128849100D01*
G75*
G02*
X78976200Y-129009100I-160000J0D01*
G01*
X78581200Y-129009100D01*
G75*
G02*
X78421200Y-128849100I0J160000D01*
G01*
G37*
G04 #@! TD.AperFunction*
G04 #@! TA.AperFunction,SMDPad,CuDef*
G36*
G01*
X77226200Y-132659100D02*
X77226200Y-132339100D01*
G75*
G02*
X77386200Y-132179100I160000J0D01*
G01*
X77781200Y-132179100D01*
G75*
G02*
X77941200Y-132339100I0J-160000D01*
G01*
X77941200Y-132659100D01*
G75*
G02*
X77781200Y-132819100I-160000J0D01*
G01*
X77386200Y-132819100D01*
G75*
G02*
X77226200Y-132659100I0J160000D01*
G01*
G37*
G04 #@! TD.AperFunction*
G04 #@! TA.AperFunction,SMDPad,CuDef*
G36*
G01*
X78421200Y-132659100D02*
X78421200Y-132339100D01*
G75*
G02*
X78581200Y-132179100I160000J0D01*
G01*
X78976200Y-132179100D01*
G75*
G02*
X79136200Y-132339100I0J-160000D01*
G01*
X79136200Y-132659100D01*
G75*
G02*
X78976200Y-132819100I-160000J0D01*
G01*
X78581200Y-132819100D01*
G75*
G02*
X78421200Y-132659100I0J160000D01*
G01*
G37*
G04 #@! TD.AperFunction*
G04 #@! TA.AperFunction,SMDPad,CuDef*
G36*
G01*
X114366000Y-120363000D02*
X114366000Y-120683000D01*
G75*
G02*
X114206000Y-120843000I-160000J0D01*
G01*
X113811000Y-120843000D01*
G75*
G02*
X113651000Y-120683000I0J160000D01*
G01*
X113651000Y-120363000D01*
G75*
G02*
X113811000Y-120203000I160000J0D01*
G01*
X114206000Y-120203000D01*
G75*
G02*
X114366000Y-120363000I0J-160000D01*
G01*
G37*
G04 #@! TD.AperFunction*
G04 #@! TA.AperFunction,SMDPad,CuDef*
G36*
G01*
X113171000Y-120363000D02*
X113171000Y-120683000D01*
G75*
G02*
X113011000Y-120843000I-160000J0D01*
G01*
X112616000Y-120843000D01*
G75*
G02*
X112456000Y-120683000I0J160000D01*
G01*
X112456000Y-120363000D01*
G75*
G02*
X112616000Y-120203000I160000J0D01*
G01*
X113011000Y-120203000D01*
G75*
G02*
X113171000Y-120363000I0J-160000D01*
G01*
G37*
G04 #@! TD.AperFunction*
D20*
X151409400Y-147955000D03*
X146202400Y-146113500D03*
X83642200Y-120688100D03*
X71704200Y-112750600D03*
X75450700Y-108115100D03*
G04 #@! TA.AperFunction,SMDPad,CuDef*
G36*
G01*
X166368400Y-131811000D02*
X166368400Y-131961000D01*
G75*
G02*
X166293400Y-132036000I-75000J0D01*
G01*
X164893400Y-132036000D01*
G75*
G02*
X164818400Y-131961000I0J75000D01*
G01*
X164818400Y-131811000D01*
G75*
G02*
X164893400Y-131736000I75000J0D01*
G01*
X166293400Y-131736000D01*
G75*
G02*
X166368400Y-131811000I0J-75000D01*
G01*
G37*
G04 #@! TD.AperFunction*
G04 #@! TA.AperFunction,SMDPad,CuDef*
G36*
G01*
X166368400Y-132311000D02*
X166368400Y-132461000D01*
G75*
G02*
X166293400Y-132536000I-75000J0D01*
G01*
X164893400Y-132536000D01*
G75*
G02*
X164818400Y-132461000I0J75000D01*
G01*
X164818400Y-132311000D01*
G75*
G02*
X164893400Y-132236000I75000J0D01*
G01*
X166293400Y-132236000D01*
G75*
G02*
X166368400Y-132311000I0J-75000D01*
G01*
G37*
G04 #@! TD.AperFunction*
G04 #@! TA.AperFunction,SMDPad,CuDef*
G36*
G01*
X166368400Y-132811000D02*
X166368400Y-132961000D01*
G75*
G02*
X166293400Y-133036000I-75000J0D01*
G01*
X164893400Y-133036000D01*
G75*
G02*
X164818400Y-132961000I0J75000D01*
G01*
X164818400Y-132811000D01*
G75*
G02*
X164893400Y-132736000I75000J0D01*
G01*
X166293400Y-132736000D01*
G75*
G02*
X166368400Y-132811000I0J-75000D01*
G01*
G37*
G04 #@! TD.AperFunction*
G04 #@! TA.AperFunction,SMDPad,CuDef*
G36*
G01*
X166368400Y-133311000D02*
X166368400Y-133461000D01*
G75*
G02*
X166293400Y-133536000I-75000J0D01*
G01*
X164893400Y-133536000D01*
G75*
G02*
X164818400Y-133461000I0J75000D01*
G01*
X164818400Y-133311000D01*
G75*
G02*
X164893400Y-133236000I75000J0D01*
G01*
X166293400Y-133236000D01*
G75*
G02*
X166368400Y-133311000I0J-75000D01*
G01*
G37*
G04 #@! TD.AperFunction*
G04 #@! TA.AperFunction,SMDPad,CuDef*
G36*
G01*
X166368400Y-133811000D02*
X166368400Y-133961000D01*
G75*
G02*
X166293400Y-134036000I-75000J0D01*
G01*
X164893400Y-134036000D01*
G75*
G02*
X164818400Y-133961000I0J75000D01*
G01*
X164818400Y-133811000D01*
G75*
G02*
X164893400Y-133736000I75000J0D01*
G01*
X166293400Y-133736000D01*
G75*
G02*
X166368400Y-133811000I0J-75000D01*
G01*
G37*
G04 #@! TD.AperFunction*
G04 #@! TA.AperFunction,SMDPad,CuDef*
G36*
G01*
X166368400Y-134311000D02*
X166368400Y-134461000D01*
G75*
G02*
X166293400Y-134536000I-75000J0D01*
G01*
X164893400Y-134536000D01*
G75*
G02*
X164818400Y-134461000I0J75000D01*
G01*
X164818400Y-134311000D01*
G75*
G02*
X164893400Y-134236000I75000J0D01*
G01*
X166293400Y-134236000D01*
G75*
G02*
X166368400Y-134311000I0J-75000D01*
G01*
G37*
G04 #@! TD.AperFunction*
G04 #@! TA.AperFunction,SMDPad,CuDef*
G36*
G01*
X166368400Y-134811000D02*
X166368400Y-134961000D01*
G75*
G02*
X166293400Y-135036000I-75000J0D01*
G01*
X164893400Y-135036000D01*
G75*
G02*
X164818400Y-134961000I0J75000D01*
G01*
X164818400Y-134811000D01*
G75*
G02*
X164893400Y-134736000I75000J0D01*
G01*
X166293400Y-134736000D01*
G75*
G02*
X166368400Y-134811000I0J-75000D01*
G01*
G37*
G04 #@! TD.AperFunction*
G04 #@! TA.AperFunction,SMDPad,CuDef*
G36*
G01*
X166368400Y-135311000D02*
X166368400Y-135461000D01*
G75*
G02*
X166293400Y-135536000I-75000J0D01*
G01*
X164893400Y-135536000D01*
G75*
G02*
X164818400Y-135461000I0J75000D01*
G01*
X164818400Y-135311000D01*
G75*
G02*
X164893400Y-135236000I75000J0D01*
G01*
X166293400Y-135236000D01*
G75*
G02*
X166368400Y-135311000I0J-75000D01*
G01*
G37*
G04 #@! TD.AperFunction*
G04 #@! TA.AperFunction,SMDPad,CuDef*
G36*
G01*
X166368400Y-135811000D02*
X166368400Y-135961000D01*
G75*
G02*
X166293400Y-136036000I-75000J0D01*
G01*
X164893400Y-136036000D01*
G75*
G02*
X164818400Y-135961000I0J75000D01*
G01*
X164818400Y-135811000D01*
G75*
G02*
X164893400Y-135736000I75000J0D01*
G01*
X166293400Y-135736000D01*
G75*
G02*
X166368400Y-135811000I0J-75000D01*
G01*
G37*
G04 #@! TD.AperFunction*
G04 #@! TA.AperFunction,SMDPad,CuDef*
G36*
G01*
X166368400Y-136311000D02*
X166368400Y-136461000D01*
G75*
G02*
X166293400Y-136536000I-75000J0D01*
G01*
X164893400Y-136536000D01*
G75*
G02*
X164818400Y-136461000I0J75000D01*
G01*
X164818400Y-136311000D01*
G75*
G02*
X164893400Y-136236000I75000J0D01*
G01*
X166293400Y-136236000D01*
G75*
G02*
X166368400Y-136311000I0J-75000D01*
G01*
G37*
G04 #@! TD.AperFunction*
G04 #@! TA.AperFunction,SMDPad,CuDef*
G36*
G01*
X166368400Y-136811000D02*
X166368400Y-136961000D01*
G75*
G02*
X166293400Y-137036000I-75000J0D01*
G01*
X164893400Y-137036000D01*
G75*
G02*
X164818400Y-136961000I0J75000D01*
G01*
X164818400Y-136811000D01*
G75*
G02*
X164893400Y-136736000I75000J0D01*
G01*
X166293400Y-136736000D01*
G75*
G02*
X166368400Y-136811000I0J-75000D01*
G01*
G37*
G04 #@! TD.AperFunction*
G04 #@! TA.AperFunction,SMDPad,CuDef*
G36*
G01*
X166368400Y-137311000D02*
X166368400Y-137461000D01*
G75*
G02*
X166293400Y-137536000I-75000J0D01*
G01*
X164893400Y-137536000D01*
G75*
G02*
X164818400Y-137461000I0J75000D01*
G01*
X164818400Y-137311000D01*
G75*
G02*
X164893400Y-137236000I75000J0D01*
G01*
X166293400Y-137236000D01*
G75*
G02*
X166368400Y-137311000I0J-75000D01*
G01*
G37*
G04 #@! TD.AperFunction*
G04 #@! TA.AperFunction,SMDPad,CuDef*
G36*
G01*
X166368400Y-137811000D02*
X166368400Y-137961000D01*
G75*
G02*
X166293400Y-138036000I-75000J0D01*
G01*
X164893400Y-138036000D01*
G75*
G02*
X164818400Y-137961000I0J75000D01*
G01*
X164818400Y-137811000D01*
G75*
G02*
X164893400Y-137736000I75000J0D01*
G01*
X166293400Y-137736000D01*
G75*
G02*
X166368400Y-137811000I0J-75000D01*
G01*
G37*
G04 #@! TD.AperFunction*
G04 #@! TA.AperFunction,SMDPad,CuDef*
G36*
G01*
X166368400Y-138311000D02*
X166368400Y-138461000D01*
G75*
G02*
X166293400Y-138536000I-75000J0D01*
G01*
X164893400Y-138536000D01*
G75*
G02*
X164818400Y-138461000I0J75000D01*
G01*
X164818400Y-138311000D01*
G75*
G02*
X164893400Y-138236000I75000J0D01*
G01*
X166293400Y-138236000D01*
G75*
G02*
X166368400Y-138311000I0J-75000D01*
G01*
G37*
G04 #@! TD.AperFunction*
G04 #@! TA.AperFunction,SMDPad,CuDef*
G36*
G01*
X166368400Y-138811000D02*
X166368400Y-138961000D01*
G75*
G02*
X166293400Y-139036000I-75000J0D01*
G01*
X164893400Y-139036000D01*
G75*
G02*
X164818400Y-138961000I0J75000D01*
G01*
X164818400Y-138811000D01*
G75*
G02*
X164893400Y-138736000I75000J0D01*
G01*
X166293400Y-138736000D01*
G75*
G02*
X166368400Y-138811000I0J-75000D01*
G01*
G37*
G04 #@! TD.AperFunction*
G04 #@! TA.AperFunction,SMDPad,CuDef*
G36*
G01*
X166368400Y-139311000D02*
X166368400Y-139461000D01*
G75*
G02*
X166293400Y-139536000I-75000J0D01*
G01*
X164893400Y-139536000D01*
G75*
G02*
X164818400Y-139461000I0J75000D01*
G01*
X164818400Y-139311000D01*
G75*
G02*
X164893400Y-139236000I75000J0D01*
G01*
X166293400Y-139236000D01*
G75*
G02*
X166368400Y-139311000I0J-75000D01*
G01*
G37*
G04 #@! TD.AperFunction*
G04 #@! TA.AperFunction,SMDPad,CuDef*
G36*
G01*
X163818400Y-140611000D02*
X163818400Y-142011000D01*
G75*
G02*
X163743400Y-142086000I-75000J0D01*
G01*
X163593400Y-142086000D01*
G75*
G02*
X163518400Y-142011000I0J75000D01*
G01*
X163518400Y-140611000D01*
G75*
G02*
X163593400Y-140536000I75000J0D01*
G01*
X163743400Y-140536000D01*
G75*
G02*
X163818400Y-140611000I0J-75000D01*
G01*
G37*
G04 #@! TD.AperFunction*
G04 #@! TA.AperFunction,SMDPad,CuDef*
G36*
G01*
X163318400Y-140611000D02*
X163318400Y-142011000D01*
G75*
G02*
X163243400Y-142086000I-75000J0D01*
G01*
X163093400Y-142086000D01*
G75*
G02*
X163018400Y-142011000I0J75000D01*
G01*
X163018400Y-140611000D01*
G75*
G02*
X163093400Y-140536000I75000J0D01*
G01*
X163243400Y-140536000D01*
G75*
G02*
X163318400Y-140611000I0J-75000D01*
G01*
G37*
G04 #@! TD.AperFunction*
G04 #@! TA.AperFunction,SMDPad,CuDef*
G36*
G01*
X162818400Y-140611000D02*
X162818400Y-142011000D01*
G75*
G02*
X162743400Y-142086000I-75000J0D01*
G01*
X162593400Y-142086000D01*
G75*
G02*
X162518400Y-142011000I0J75000D01*
G01*
X162518400Y-140611000D01*
G75*
G02*
X162593400Y-140536000I75000J0D01*
G01*
X162743400Y-140536000D01*
G75*
G02*
X162818400Y-140611000I0J-75000D01*
G01*
G37*
G04 #@! TD.AperFunction*
G04 #@! TA.AperFunction,SMDPad,CuDef*
G36*
G01*
X162318400Y-140611000D02*
X162318400Y-142011000D01*
G75*
G02*
X162243400Y-142086000I-75000J0D01*
G01*
X162093400Y-142086000D01*
G75*
G02*
X162018400Y-142011000I0J75000D01*
G01*
X162018400Y-140611000D01*
G75*
G02*
X162093400Y-140536000I75000J0D01*
G01*
X162243400Y-140536000D01*
G75*
G02*
X162318400Y-140611000I0J-75000D01*
G01*
G37*
G04 #@! TD.AperFunction*
G04 #@! TA.AperFunction,SMDPad,CuDef*
G36*
G01*
X161818400Y-140611000D02*
X161818400Y-142011000D01*
G75*
G02*
X161743400Y-142086000I-75000J0D01*
G01*
X161593400Y-142086000D01*
G75*
G02*
X161518400Y-142011000I0J75000D01*
G01*
X161518400Y-140611000D01*
G75*
G02*
X161593400Y-140536000I75000J0D01*
G01*
X161743400Y-140536000D01*
G75*
G02*
X161818400Y-140611000I0J-75000D01*
G01*
G37*
G04 #@! TD.AperFunction*
G04 #@! TA.AperFunction,SMDPad,CuDef*
G36*
G01*
X161318400Y-140611000D02*
X161318400Y-142011000D01*
G75*
G02*
X161243400Y-142086000I-75000J0D01*
G01*
X161093400Y-142086000D01*
G75*
G02*
X161018400Y-142011000I0J75000D01*
G01*
X161018400Y-140611000D01*
G75*
G02*
X161093400Y-140536000I75000J0D01*
G01*
X161243400Y-140536000D01*
G75*
G02*
X161318400Y-140611000I0J-75000D01*
G01*
G37*
G04 #@! TD.AperFunction*
G04 #@! TA.AperFunction,SMDPad,CuDef*
G36*
G01*
X160818400Y-140611000D02*
X160818400Y-142011000D01*
G75*
G02*
X160743400Y-142086000I-75000J0D01*
G01*
X160593400Y-142086000D01*
G75*
G02*
X160518400Y-142011000I0J75000D01*
G01*
X160518400Y-140611000D01*
G75*
G02*
X160593400Y-140536000I75000J0D01*
G01*
X160743400Y-140536000D01*
G75*
G02*
X160818400Y-140611000I0J-75000D01*
G01*
G37*
G04 #@! TD.AperFunction*
G04 #@! TA.AperFunction,SMDPad,CuDef*
G36*
G01*
X160318400Y-140611000D02*
X160318400Y-142011000D01*
G75*
G02*
X160243400Y-142086000I-75000J0D01*
G01*
X160093400Y-142086000D01*
G75*
G02*
X160018400Y-142011000I0J75000D01*
G01*
X160018400Y-140611000D01*
G75*
G02*
X160093400Y-140536000I75000J0D01*
G01*
X160243400Y-140536000D01*
G75*
G02*
X160318400Y-140611000I0J-75000D01*
G01*
G37*
G04 #@! TD.AperFunction*
G04 #@! TA.AperFunction,SMDPad,CuDef*
G36*
G01*
X159818400Y-140611000D02*
X159818400Y-142011000D01*
G75*
G02*
X159743400Y-142086000I-75000J0D01*
G01*
X159593400Y-142086000D01*
G75*
G02*
X159518400Y-142011000I0J75000D01*
G01*
X159518400Y-140611000D01*
G75*
G02*
X159593400Y-140536000I75000J0D01*
G01*
X159743400Y-140536000D01*
G75*
G02*
X159818400Y-140611000I0J-75000D01*
G01*
G37*
G04 #@! TD.AperFunction*
G04 #@! TA.AperFunction,SMDPad,CuDef*
G36*
G01*
X159318400Y-140611000D02*
X159318400Y-142011000D01*
G75*
G02*
X159243400Y-142086000I-75000J0D01*
G01*
X159093400Y-142086000D01*
G75*
G02*
X159018400Y-142011000I0J75000D01*
G01*
X159018400Y-140611000D01*
G75*
G02*
X159093400Y-140536000I75000J0D01*
G01*
X159243400Y-140536000D01*
G75*
G02*
X159318400Y-140611000I0J-75000D01*
G01*
G37*
G04 #@! TD.AperFunction*
G04 #@! TA.AperFunction,SMDPad,CuDef*
G36*
G01*
X158818400Y-140611000D02*
X158818400Y-142011000D01*
G75*
G02*
X158743400Y-142086000I-75000J0D01*
G01*
X158593400Y-142086000D01*
G75*
G02*
X158518400Y-142011000I0J75000D01*
G01*
X158518400Y-140611000D01*
G75*
G02*
X158593400Y-140536000I75000J0D01*
G01*
X158743400Y-140536000D01*
G75*
G02*
X158818400Y-140611000I0J-75000D01*
G01*
G37*
G04 #@! TD.AperFunction*
G04 #@! TA.AperFunction,SMDPad,CuDef*
G36*
G01*
X158318400Y-140611000D02*
X158318400Y-142011000D01*
G75*
G02*
X158243400Y-142086000I-75000J0D01*
G01*
X158093400Y-142086000D01*
G75*
G02*
X158018400Y-142011000I0J75000D01*
G01*
X158018400Y-140611000D01*
G75*
G02*
X158093400Y-140536000I75000J0D01*
G01*
X158243400Y-140536000D01*
G75*
G02*
X158318400Y-140611000I0J-75000D01*
G01*
G37*
G04 #@! TD.AperFunction*
G04 #@! TA.AperFunction,SMDPad,CuDef*
G36*
G01*
X157818400Y-140611000D02*
X157818400Y-142011000D01*
G75*
G02*
X157743400Y-142086000I-75000J0D01*
G01*
X157593400Y-142086000D01*
G75*
G02*
X157518400Y-142011000I0J75000D01*
G01*
X157518400Y-140611000D01*
G75*
G02*
X157593400Y-140536000I75000J0D01*
G01*
X157743400Y-140536000D01*
G75*
G02*
X157818400Y-140611000I0J-75000D01*
G01*
G37*
G04 #@! TD.AperFunction*
G04 #@! TA.AperFunction,SMDPad,CuDef*
G36*
G01*
X157318400Y-140611000D02*
X157318400Y-142011000D01*
G75*
G02*
X157243400Y-142086000I-75000J0D01*
G01*
X157093400Y-142086000D01*
G75*
G02*
X157018400Y-142011000I0J75000D01*
G01*
X157018400Y-140611000D01*
G75*
G02*
X157093400Y-140536000I75000J0D01*
G01*
X157243400Y-140536000D01*
G75*
G02*
X157318400Y-140611000I0J-75000D01*
G01*
G37*
G04 #@! TD.AperFunction*
G04 #@! TA.AperFunction,SMDPad,CuDef*
G36*
G01*
X156818400Y-140611000D02*
X156818400Y-142011000D01*
G75*
G02*
X156743400Y-142086000I-75000J0D01*
G01*
X156593400Y-142086000D01*
G75*
G02*
X156518400Y-142011000I0J75000D01*
G01*
X156518400Y-140611000D01*
G75*
G02*
X156593400Y-140536000I75000J0D01*
G01*
X156743400Y-140536000D01*
G75*
G02*
X156818400Y-140611000I0J-75000D01*
G01*
G37*
G04 #@! TD.AperFunction*
G04 #@! TA.AperFunction,SMDPad,CuDef*
G36*
G01*
X156318400Y-140611000D02*
X156318400Y-142011000D01*
G75*
G02*
X156243400Y-142086000I-75000J0D01*
G01*
X156093400Y-142086000D01*
G75*
G02*
X156018400Y-142011000I0J75000D01*
G01*
X156018400Y-140611000D01*
G75*
G02*
X156093400Y-140536000I75000J0D01*
G01*
X156243400Y-140536000D01*
G75*
G02*
X156318400Y-140611000I0J-75000D01*
G01*
G37*
G04 #@! TD.AperFunction*
G04 #@! TA.AperFunction,SMDPad,CuDef*
G36*
G01*
X155018400Y-139311000D02*
X155018400Y-139461000D01*
G75*
G02*
X154943400Y-139536000I-75000J0D01*
G01*
X153543400Y-139536000D01*
G75*
G02*
X153468400Y-139461000I0J75000D01*
G01*
X153468400Y-139311000D01*
G75*
G02*
X153543400Y-139236000I75000J0D01*
G01*
X154943400Y-139236000D01*
G75*
G02*
X155018400Y-139311000I0J-75000D01*
G01*
G37*
G04 #@! TD.AperFunction*
G04 #@! TA.AperFunction,SMDPad,CuDef*
G36*
G01*
X155018400Y-138811000D02*
X155018400Y-138961000D01*
G75*
G02*
X154943400Y-139036000I-75000J0D01*
G01*
X153543400Y-139036000D01*
G75*
G02*
X153468400Y-138961000I0J75000D01*
G01*
X153468400Y-138811000D01*
G75*
G02*
X153543400Y-138736000I75000J0D01*
G01*
X154943400Y-138736000D01*
G75*
G02*
X155018400Y-138811000I0J-75000D01*
G01*
G37*
G04 #@! TD.AperFunction*
G04 #@! TA.AperFunction,SMDPad,CuDef*
G36*
G01*
X155018400Y-138311000D02*
X155018400Y-138461000D01*
G75*
G02*
X154943400Y-138536000I-75000J0D01*
G01*
X153543400Y-138536000D01*
G75*
G02*
X153468400Y-138461000I0J75000D01*
G01*
X153468400Y-138311000D01*
G75*
G02*
X153543400Y-138236000I75000J0D01*
G01*
X154943400Y-138236000D01*
G75*
G02*
X155018400Y-138311000I0J-75000D01*
G01*
G37*
G04 #@! TD.AperFunction*
G04 #@! TA.AperFunction,SMDPad,CuDef*
G36*
G01*
X155018400Y-137811000D02*
X155018400Y-137961000D01*
G75*
G02*
X154943400Y-138036000I-75000J0D01*
G01*
X153543400Y-138036000D01*
G75*
G02*
X153468400Y-137961000I0J75000D01*
G01*
X153468400Y-137811000D01*
G75*
G02*
X153543400Y-137736000I75000J0D01*
G01*
X154943400Y-137736000D01*
G75*
G02*
X155018400Y-137811000I0J-75000D01*
G01*
G37*
G04 #@! TD.AperFunction*
G04 #@! TA.AperFunction,SMDPad,CuDef*
G36*
G01*
X155018400Y-137311000D02*
X155018400Y-137461000D01*
G75*
G02*
X154943400Y-137536000I-75000J0D01*
G01*
X153543400Y-137536000D01*
G75*
G02*
X153468400Y-137461000I0J75000D01*
G01*
X153468400Y-137311000D01*
G75*
G02*
X153543400Y-137236000I75000J0D01*
G01*
X154943400Y-137236000D01*
G75*
G02*
X155018400Y-137311000I0J-75000D01*
G01*
G37*
G04 #@! TD.AperFunction*
G04 #@! TA.AperFunction,SMDPad,CuDef*
G36*
G01*
X155018400Y-136811000D02*
X155018400Y-136961000D01*
G75*
G02*
X154943400Y-137036000I-75000J0D01*
G01*
X153543400Y-137036000D01*
G75*
G02*
X153468400Y-136961000I0J75000D01*
G01*
X153468400Y-136811000D01*
G75*
G02*
X153543400Y-136736000I75000J0D01*
G01*
X154943400Y-136736000D01*
G75*
G02*
X155018400Y-136811000I0J-75000D01*
G01*
G37*
G04 #@! TD.AperFunction*
G04 #@! TA.AperFunction,SMDPad,CuDef*
G36*
G01*
X155018400Y-136311000D02*
X155018400Y-136461000D01*
G75*
G02*
X154943400Y-136536000I-75000J0D01*
G01*
X153543400Y-136536000D01*
G75*
G02*
X153468400Y-136461000I0J75000D01*
G01*
X153468400Y-136311000D01*
G75*
G02*
X153543400Y-136236000I75000J0D01*
G01*
X154943400Y-136236000D01*
G75*
G02*
X155018400Y-136311000I0J-75000D01*
G01*
G37*
G04 #@! TD.AperFunction*
G04 #@! TA.AperFunction,SMDPad,CuDef*
G36*
G01*
X155018400Y-135811000D02*
X155018400Y-135961000D01*
G75*
G02*
X154943400Y-136036000I-75000J0D01*
G01*
X153543400Y-136036000D01*
G75*
G02*
X153468400Y-135961000I0J75000D01*
G01*
X153468400Y-135811000D01*
G75*
G02*
X153543400Y-135736000I75000J0D01*
G01*
X154943400Y-135736000D01*
G75*
G02*
X155018400Y-135811000I0J-75000D01*
G01*
G37*
G04 #@! TD.AperFunction*
G04 #@! TA.AperFunction,SMDPad,CuDef*
G36*
G01*
X155018400Y-135311000D02*
X155018400Y-135461000D01*
G75*
G02*
X154943400Y-135536000I-75000J0D01*
G01*
X153543400Y-135536000D01*
G75*
G02*
X153468400Y-135461000I0J75000D01*
G01*
X153468400Y-135311000D01*
G75*
G02*
X153543400Y-135236000I75000J0D01*
G01*
X154943400Y-135236000D01*
G75*
G02*
X155018400Y-135311000I0J-75000D01*
G01*
G37*
G04 #@! TD.AperFunction*
G04 #@! TA.AperFunction,SMDPad,CuDef*
G36*
G01*
X155018400Y-134811000D02*
X155018400Y-134961000D01*
G75*
G02*
X154943400Y-135036000I-75000J0D01*
G01*
X153543400Y-135036000D01*
G75*
G02*
X153468400Y-134961000I0J75000D01*
G01*
X153468400Y-134811000D01*
G75*
G02*
X153543400Y-134736000I75000J0D01*
G01*
X154943400Y-134736000D01*
G75*
G02*
X155018400Y-134811000I0J-75000D01*
G01*
G37*
G04 #@! TD.AperFunction*
G04 #@! TA.AperFunction,SMDPad,CuDef*
G36*
G01*
X155018400Y-134311000D02*
X155018400Y-134461000D01*
G75*
G02*
X154943400Y-134536000I-75000J0D01*
G01*
X153543400Y-134536000D01*
G75*
G02*
X153468400Y-134461000I0J75000D01*
G01*
X153468400Y-134311000D01*
G75*
G02*
X153543400Y-134236000I75000J0D01*
G01*
X154943400Y-134236000D01*
G75*
G02*
X155018400Y-134311000I0J-75000D01*
G01*
G37*
G04 #@! TD.AperFunction*
G04 #@! TA.AperFunction,SMDPad,CuDef*
G36*
G01*
X155018400Y-133811000D02*
X155018400Y-133961000D01*
G75*
G02*
X154943400Y-134036000I-75000J0D01*
G01*
X153543400Y-134036000D01*
G75*
G02*
X153468400Y-133961000I0J75000D01*
G01*
X153468400Y-133811000D01*
G75*
G02*
X153543400Y-133736000I75000J0D01*
G01*
X154943400Y-133736000D01*
G75*
G02*
X155018400Y-133811000I0J-75000D01*
G01*
G37*
G04 #@! TD.AperFunction*
G04 #@! TA.AperFunction,SMDPad,CuDef*
G36*
G01*
X155018400Y-133311000D02*
X155018400Y-133461000D01*
G75*
G02*
X154943400Y-133536000I-75000J0D01*
G01*
X153543400Y-133536000D01*
G75*
G02*
X153468400Y-133461000I0J75000D01*
G01*
X153468400Y-133311000D01*
G75*
G02*
X153543400Y-133236000I75000J0D01*
G01*
X154943400Y-133236000D01*
G75*
G02*
X155018400Y-133311000I0J-75000D01*
G01*
G37*
G04 #@! TD.AperFunction*
G04 #@! TA.AperFunction,SMDPad,CuDef*
G36*
G01*
X155018400Y-132811000D02*
X155018400Y-132961000D01*
G75*
G02*
X154943400Y-133036000I-75000J0D01*
G01*
X153543400Y-133036000D01*
G75*
G02*
X153468400Y-132961000I0J75000D01*
G01*
X153468400Y-132811000D01*
G75*
G02*
X153543400Y-132736000I75000J0D01*
G01*
X154943400Y-132736000D01*
G75*
G02*
X155018400Y-132811000I0J-75000D01*
G01*
G37*
G04 #@! TD.AperFunction*
G04 #@! TA.AperFunction,SMDPad,CuDef*
G36*
G01*
X155018400Y-132311000D02*
X155018400Y-132461000D01*
G75*
G02*
X154943400Y-132536000I-75000J0D01*
G01*
X153543400Y-132536000D01*
G75*
G02*
X153468400Y-132461000I0J75000D01*
G01*
X153468400Y-132311000D01*
G75*
G02*
X153543400Y-132236000I75000J0D01*
G01*
X154943400Y-132236000D01*
G75*
G02*
X155018400Y-132311000I0J-75000D01*
G01*
G37*
G04 #@! TD.AperFunction*
G04 #@! TA.AperFunction,SMDPad,CuDef*
G36*
G01*
X155018400Y-131811000D02*
X155018400Y-131961000D01*
G75*
G02*
X154943400Y-132036000I-75000J0D01*
G01*
X153543400Y-132036000D01*
G75*
G02*
X153468400Y-131961000I0J75000D01*
G01*
X153468400Y-131811000D01*
G75*
G02*
X153543400Y-131736000I75000J0D01*
G01*
X154943400Y-131736000D01*
G75*
G02*
X155018400Y-131811000I0J-75000D01*
G01*
G37*
G04 #@! TD.AperFunction*
G04 #@! TA.AperFunction,SMDPad,CuDef*
G36*
G01*
X156318400Y-129261000D02*
X156318400Y-130661000D01*
G75*
G02*
X156243400Y-130736000I-75000J0D01*
G01*
X156093400Y-130736000D01*
G75*
G02*
X156018400Y-130661000I0J75000D01*
G01*
X156018400Y-129261000D01*
G75*
G02*
X156093400Y-129186000I75000J0D01*
G01*
X156243400Y-129186000D01*
G75*
G02*
X156318400Y-129261000I0J-75000D01*
G01*
G37*
G04 #@! TD.AperFunction*
G04 #@! TA.AperFunction,SMDPad,CuDef*
G36*
G01*
X156818400Y-129261000D02*
X156818400Y-130661000D01*
G75*
G02*
X156743400Y-130736000I-75000J0D01*
G01*
X156593400Y-130736000D01*
G75*
G02*
X156518400Y-130661000I0J75000D01*
G01*
X156518400Y-129261000D01*
G75*
G02*
X156593400Y-129186000I75000J0D01*
G01*
X156743400Y-129186000D01*
G75*
G02*
X156818400Y-129261000I0J-75000D01*
G01*
G37*
G04 #@! TD.AperFunction*
G04 #@! TA.AperFunction,SMDPad,CuDef*
G36*
G01*
X157318400Y-129261000D02*
X157318400Y-130661000D01*
G75*
G02*
X157243400Y-130736000I-75000J0D01*
G01*
X157093400Y-130736000D01*
G75*
G02*
X157018400Y-130661000I0J75000D01*
G01*
X157018400Y-129261000D01*
G75*
G02*
X157093400Y-129186000I75000J0D01*
G01*
X157243400Y-129186000D01*
G75*
G02*
X157318400Y-129261000I0J-75000D01*
G01*
G37*
G04 #@! TD.AperFunction*
G04 #@! TA.AperFunction,SMDPad,CuDef*
G36*
G01*
X157818400Y-129261000D02*
X157818400Y-130661000D01*
G75*
G02*
X157743400Y-130736000I-75000J0D01*
G01*
X157593400Y-130736000D01*
G75*
G02*
X157518400Y-130661000I0J75000D01*
G01*
X157518400Y-129261000D01*
G75*
G02*
X157593400Y-129186000I75000J0D01*
G01*
X157743400Y-129186000D01*
G75*
G02*
X157818400Y-129261000I0J-75000D01*
G01*
G37*
G04 #@! TD.AperFunction*
G04 #@! TA.AperFunction,SMDPad,CuDef*
G36*
G01*
X158318400Y-129261000D02*
X158318400Y-130661000D01*
G75*
G02*
X158243400Y-130736000I-75000J0D01*
G01*
X158093400Y-130736000D01*
G75*
G02*
X158018400Y-130661000I0J75000D01*
G01*
X158018400Y-129261000D01*
G75*
G02*
X158093400Y-129186000I75000J0D01*
G01*
X158243400Y-129186000D01*
G75*
G02*
X158318400Y-129261000I0J-75000D01*
G01*
G37*
G04 #@! TD.AperFunction*
G04 #@! TA.AperFunction,SMDPad,CuDef*
G36*
G01*
X158818400Y-129261000D02*
X158818400Y-130661000D01*
G75*
G02*
X158743400Y-130736000I-75000J0D01*
G01*
X158593400Y-130736000D01*
G75*
G02*
X158518400Y-130661000I0J75000D01*
G01*
X158518400Y-129261000D01*
G75*
G02*
X158593400Y-129186000I75000J0D01*
G01*
X158743400Y-129186000D01*
G75*
G02*
X158818400Y-129261000I0J-75000D01*
G01*
G37*
G04 #@! TD.AperFunction*
G04 #@! TA.AperFunction,SMDPad,CuDef*
G36*
G01*
X159318400Y-129261000D02*
X159318400Y-130661000D01*
G75*
G02*
X159243400Y-130736000I-75000J0D01*
G01*
X159093400Y-130736000D01*
G75*
G02*
X159018400Y-130661000I0J75000D01*
G01*
X159018400Y-129261000D01*
G75*
G02*
X159093400Y-129186000I75000J0D01*
G01*
X159243400Y-129186000D01*
G75*
G02*
X159318400Y-129261000I0J-75000D01*
G01*
G37*
G04 #@! TD.AperFunction*
G04 #@! TA.AperFunction,SMDPad,CuDef*
G36*
G01*
X159818400Y-129261000D02*
X159818400Y-130661000D01*
G75*
G02*
X159743400Y-130736000I-75000J0D01*
G01*
X159593400Y-130736000D01*
G75*
G02*
X159518400Y-130661000I0J75000D01*
G01*
X159518400Y-129261000D01*
G75*
G02*
X159593400Y-129186000I75000J0D01*
G01*
X159743400Y-129186000D01*
G75*
G02*
X159818400Y-129261000I0J-75000D01*
G01*
G37*
G04 #@! TD.AperFunction*
G04 #@! TA.AperFunction,SMDPad,CuDef*
G36*
G01*
X160318400Y-129261000D02*
X160318400Y-130661000D01*
G75*
G02*
X160243400Y-130736000I-75000J0D01*
G01*
X160093400Y-130736000D01*
G75*
G02*
X160018400Y-130661000I0J75000D01*
G01*
X160018400Y-129261000D01*
G75*
G02*
X160093400Y-129186000I75000J0D01*
G01*
X160243400Y-129186000D01*
G75*
G02*
X160318400Y-129261000I0J-75000D01*
G01*
G37*
G04 #@! TD.AperFunction*
G04 #@! TA.AperFunction,SMDPad,CuDef*
G36*
G01*
X160818400Y-129261000D02*
X160818400Y-130661000D01*
G75*
G02*
X160743400Y-130736000I-75000J0D01*
G01*
X160593400Y-130736000D01*
G75*
G02*
X160518400Y-130661000I0J75000D01*
G01*
X160518400Y-129261000D01*
G75*
G02*
X160593400Y-129186000I75000J0D01*
G01*
X160743400Y-129186000D01*
G75*
G02*
X160818400Y-129261000I0J-75000D01*
G01*
G37*
G04 #@! TD.AperFunction*
G04 #@! TA.AperFunction,SMDPad,CuDef*
G36*
G01*
X161318400Y-129261000D02*
X161318400Y-130661000D01*
G75*
G02*
X161243400Y-130736000I-75000J0D01*
G01*
X161093400Y-130736000D01*
G75*
G02*
X161018400Y-130661000I0J75000D01*
G01*
X161018400Y-129261000D01*
G75*
G02*
X161093400Y-129186000I75000J0D01*
G01*
X161243400Y-129186000D01*
G75*
G02*
X161318400Y-129261000I0J-75000D01*
G01*
G37*
G04 #@! TD.AperFunction*
G04 #@! TA.AperFunction,SMDPad,CuDef*
G36*
G01*
X161818400Y-129261000D02*
X161818400Y-130661000D01*
G75*
G02*
X161743400Y-130736000I-75000J0D01*
G01*
X161593400Y-130736000D01*
G75*
G02*
X161518400Y-130661000I0J75000D01*
G01*
X161518400Y-129261000D01*
G75*
G02*
X161593400Y-129186000I75000J0D01*
G01*
X161743400Y-129186000D01*
G75*
G02*
X161818400Y-129261000I0J-75000D01*
G01*
G37*
G04 #@! TD.AperFunction*
G04 #@! TA.AperFunction,SMDPad,CuDef*
G36*
G01*
X162318400Y-129261000D02*
X162318400Y-130661000D01*
G75*
G02*
X162243400Y-130736000I-75000J0D01*
G01*
X162093400Y-130736000D01*
G75*
G02*
X162018400Y-130661000I0J75000D01*
G01*
X162018400Y-129261000D01*
G75*
G02*
X162093400Y-129186000I75000J0D01*
G01*
X162243400Y-129186000D01*
G75*
G02*
X162318400Y-129261000I0J-75000D01*
G01*
G37*
G04 #@! TD.AperFunction*
G04 #@! TA.AperFunction,SMDPad,CuDef*
G36*
G01*
X162818400Y-129261000D02*
X162818400Y-130661000D01*
G75*
G02*
X162743400Y-130736000I-75000J0D01*
G01*
X162593400Y-130736000D01*
G75*
G02*
X162518400Y-130661000I0J75000D01*
G01*
X162518400Y-129261000D01*
G75*
G02*
X162593400Y-129186000I75000J0D01*
G01*
X162743400Y-129186000D01*
G75*
G02*
X162818400Y-129261000I0J-75000D01*
G01*
G37*
G04 #@! TD.AperFunction*
G04 #@! TA.AperFunction,SMDPad,CuDef*
G36*
G01*
X163318400Y-129261000D02*
X163318400Y-130661000D01*
G75*
G02*
X163243400Y-130736000I-75000J0D01*
G01*
X163093400Y-130736000D01*
G75*
G02*
X163018400Y-130661000I0J75000D01*
G01*
X163018400Y-129261000D01*
G75*
G02*
X163093400Y-129186000I75000J0D01*
G01*
X163243400Y-129186000D01*
G75*
G02*
X163318400Y-129261000I0J-75000D01*
G01*
G37*
G04 #@! TD.AperFunction*
G04 #@! TA.AperFunction,SMDPad,CuDef*
G36*
G01*
X163818400Y-129261000D02*
X163818400Y-130661000D01*
G75*
G02*
X163743400Y-130736000I-75000J0D01*
G01*
X163593400Y-130736000D01*
G75*
G02*
X163518400Y-130661000I0J75000D01*
G01*
X163518400Y-129261000D01*
G75*
G02*
X163593400Y-129186000I75000J0D01*
G01*
X163743400Y-129186000D01*
G75*
G02*
X163818400Y-129261000I0J-75000D01*
G01*
G37*
G04 #@! TD.AperFunction*
D21*
X76890700Y-120050600D03*
X76890700Y-119100600D03*
X76890700Y-118150600D03*
X79090700Y-118150600D03*
X79090700Y-120050600D03*
G04 #@! TA.AperFunction,SMDPad,CuDef*
G36*
G01*
X79637200Y-123614850D02*
X79637200Y-123827350D01*
G75*
G02*
X79543450Y-123921100I-93750J0D01*
G01*
X79355950Y-123921100D01*
G75*
G02*
X79262200Y-123827350I0J93750D01*
G01*
X79262200Y-123614850D01*
G75*
G02*
X79355950Y-123521100I93750J0D01*
G01*
X79543450Y-123521100D01*
G75*
G02*
X79637200Y-123614850I0J-93750D01*
G01*
G37*
G04 #@! TD.AperFunction*
G04 #@! TA.AperFunction,SMDPad,CuDef*
G36*
G01*
X79637200Y-124264850D02*
X79637200Y-124477350D01*
G75*
G02*
X79543450Y-124571100I-93750J0D01*
G01*
X79355950Y-124571100D01*
G75*
G02*
X79262200Y-124477350I0J93750D01*
G01*
X79262200Y-124264850D01*
G75*
G02*
X79355950Y-124171100I93750J0D01*
G01*
X79543450Y-124171100D01*
G75*
G02*
X79637200Y-124264850I0J-93750D01*
G01*
G37*
G04 #@! TD.AperFunction*
G04 #@! TA.AperFunction,SMDPad,CuDef*
G36*
G01*
X79637200Y-124914850D02*
X79637200Y-125127350D01*
G75*
G02*
X79543450Y-125221100I-93750J0D01*
G01*
X79355950Y-125221100D01*
G75*
G02*
X79262200Y-125127350I0J93750D01*
G01*
X79262200Y-124914850D01*
G75*
G02*
X79355950Y-124821100I93750J0D01*
G01*
X79543450Y-124821100D01*
G75*
G02*
X79637200Y-124914850I0J-93750D01*
G01*
G37*
G04 #@! TD.AperFunction*
G04 #@! TA.AperFunction,SMDPad,CuDef*
G36*
G01*
X77862200Y-124914850D02*
X77862200Y-125127350D01*
G75*
G02*
X77768450Y-125221100I-93750J0D01*
G01*
X77580950Y-125221100D01*
G75*
G02*
X77487200Y-125127350I0J93750D01*
G01*
X77487200Y-124914850D01*
G75*
G02*
X77580950Y-124821100I93750J0D01*
G01*
X77768450Y-124821100D01*
G75*
G02*
X77862200Y-124914850I0J-93750D01*
G01*
G37*
G04 #@! TD.AperFunction*
G04 #@! TA.AperFunction,SMDPad,CuDef*
G36*
G01*
X77862200Y-124264850D02*
X77862200Y-124477350D01*
G75*
G02*
X77768450Y-124571100I-93750J0D01*
G01*
X77580950Y-124571100D01*
G75*
G02*
X77487200Y-124477350I0J93750D01*
G01*
X77487200Y-124264850D01*
G75*
G02*
X77580950Y-124171100I93750J0D01*
G01*
X77768450Y-124171100D01*
G75*
G02*
X77862200Y-124264850I0J-93750D01*
G01*
G37*
G04 #@! TD.AperFunction*
G04 #@! TA.AperFunction,SMDPad,CuDef*
G36*
G01*
X77862200Y-123614850D02*
X77862200Y-123827350D01*
G75*
G02*
X77768450Y-123921100I-93750J0D01*
G01*
X77580950Y-123921100D01*
G75*
G02*
X77487200Y-123827350I0J93750D01*
G01*
X77487200Y-123614850D01*
G75*
G02*
X77580950Y-123521100I93750J0D01*
G01*
X77768450Y-123521100D01*
G75*
G02*
X77862200Y-123614850I0J-93750D01*
G01*
G37*
G04 #@! TD.AperFunction*
D22*
X78562200Y-124371100D03*
D23*
X137309400Y-141331000D03*
D24*
X145059400Y-142581000D03*
X145059400Y-140081000D03*
D25*
X140614400Y-137223000D03*
X140614400Y-133223000D03*
D26*
X245370990Y-224139010D03*
X243780000Y-223480000D03*
X242189010Y-224139010D03*
X241530000Y-225730000D03*
X242189010Y-227320990D03*
X243780000Y-227980000D03*
X245370990Y-227320990D03*
X246030000Y-225730000D03*
D27*
X243780000Y-225730000D03*
X158730000Y-225730000D03*
D26*
X160980000Y-225730000D03*
X160320990Y-227320990D03*
X158730000Y-227980000D03*
X157139010Y-227320990D03*
X156480000Y-225730000D03*
X157139010Y-224139010D03*
X158730000Y-223480000D03*
X160320990Y-224139010D03*
D27*
X73680000Y-225730000D03*
D26*
X75930000Y-225730000D03*
X75270990Y-227320990D03*
X73680000Y-227980000D03*
X72089010Y-227320990D03*
X71430000Y-225730000D03*
X72089010Y-224139010D03*
X73680000Y-223480000D03*
X75270990Y-224139010D03*
X245370990Y-96059010D03*
X243780000Y-95400000D03*
X242189010Y-96059010D03*
X241530000Y-97650000D03*
X242189010Y-99240990D03*
X243780000Y-99900000D03*
X245370990Y-99240990D03*
X246030000Y-97650000D03*
D27*
X243780000Y-97650000D03*
X158730000Y-97650000D03*
D26*
X160980000Y-97650000D03*
X160320990Y-99240990D03*
X158730000Y-99900000D03*
X157139010Y-99240990D03*
X156480000Y-97650000D03*
X157139010Y-96059010D03*
X158730000Y-95400000D03*
X160320990Y-96059010D03*
X75270990Y-96059010D03*
X73680000Y-95400000D03*
X72089010Y-96059010D03*
X71430000Y-97650000D03*
X72089010Y-99240990D03*
X73680000Y-99900000D03*
X75270990Y-99240990D03*
X75930000Y-97650000D03*
D27*
X73680000Y-97650000D03*
D15*
X190563500Y-90297000D03*
D16*
X190563500Y-87757000D03*
D15*
X241808000Y-86296500D03*
D16*
X241808000Y-83756500D03*
X239268000Y-86296500D03*
X239268000Y-83756500D03*
X236728000Y-86296500D03*
X236728000Y-83756500D03*
X234188000Y-86296500D03*
X234188000Y-83756500D03*
X231648000Y-86296500D03*
X231648000Y-83756500D03*
X229108000Y-86296500D03*
X229108000Y-83756500D03*
D15*
X220853000Y-82867500D03*
D16*
X220853000Y-85407500D03*
X220853000Y-87947500D03*
D28*
X109283000Y-127980000D03*
X101283000Y-127980000D03*
X109283000Y-123480000D03*
X101283000Y-123480000D03*
D15*
X173355000Y-128270000D03*
D16*
X175895000Y-128270000D03*
X178435000Y-128270000D03*
D29*
X122467158Y-116752158D03*
X179717700Y-90271600D03*
X164934900Y-95402400D03*
X178320700Y-95173800D03*
X202285600Y-127101600D03*
X207365600Y-128752600D03*
X206790100Y-108500100D03*
X212445600Y-118338600D03*
X201015600Y-112877600D03*
X86944200Y-117767100D03*
X80467200Y-125006100D03*
X80975200Y-124371100D03*
X80467200Y-123736100D03*
X115189000Y-121920000D03*
X148424900Y-135001000D03*
X148424900Y-133858000D03*
X134899400Y-136779000D03*
X134899400Y-133604000D03*
X158521400Y-148082000D03*
X159791400Y-148018500D03*
X161569400Y-148031200D03*
X162839400Y-148031200D03*
X150495000Y-144272000D03*
X152298400Y-157556200D03*
X159029400Y-157530800D03*
X168579800Y-129133600D03*
X170688000Y-136144000D03*
X159156400Y-131419600D03*
X164109400Y-137363200D03*
X157365700Y-123698000D03*
X156095700Y-123698000D03*
X154825700Y-123698000D03*
X159042100Y-122478800D03*
X150596600Y-175006000D03*
X164541200Y-179781200D03*
X158800800Y-180797200D03*
X147548600Y-93129100D03*
X145059400Y-93205300D03*
X142567690Y-93230700D03*
X140004800Y-93230700D03*
X137337800Y-93129100D03*
X134848600Y-93103700D03*
X187820300Y-91846400D03*
X166966900Y-90855800D03*
X160578800Y-199059800D03*
X160604200Y-189280800D03*
X160655000Y-197561200D03*
X160553400Y-191947800D03*
X121119900Y-114122200D03*
X124117100Y-114884200D03*
X167576500Y-133032500D03*
X170682841Y-137408841D03*
X111125000Y-127889000D03*
X99187000Y-128016000D03*
X161963110Y-160731200D03*
X192405000Y-125920500D03*
X192976500Y-116459000D03*
X173736000Y-97853500D03*
X80543400Y-114363500D03*
X71907400Y-115189000D03*
X78193900Y-119126000D03*
X72351900Y-130619500D03*
X72351900Y-129540000D03*
X72351900Y-131635500D03*
X181114700Y-90271600D03*
X185686700Y-95173800D03*
X206095600Y-124561600D03*
X211175600Y-126212600D03*
X201777600Y-109702600D03*
X212064600Y-109702600D03*
X204508100Y-113322100D03*
X80721200Y-121196100D03*
X79197200Y-121323100D03*
X80848200Y-119799100D03*
X115252500Y-120523000D03*
X164236400Y-148056600D03*
X150495000Y-145542000D03*
X172821600Y-130657600D03*
X172821600Y-133731000D03*
X159168400Y-143649000D03*
X159168400Y-144969800D03*
X167284400Y-136779000D03*
X152696450Y-175150050D03*
X161366200Y-180848000D03*
X155727400Y-179755800D03*
X92684600Y-152730200D03*
X150012400Y-89090500D03*
X152755600Y-83756500D03*
X132232400Y-89065100D03*
X129514600Y-83756500D03*
X168313100Y-90830400D03*
X159410400Y-137414000D03*
X159470180Y-139884073D03*
X165646110Y-148056600D03*
X224663000Y-89725500D03*
X90805000Y-110744000D03*
X132461000Y-110236000D03*
X130810000Y-112268000D03*
X130556000Y-115062000D03*
X91948000Y-194310000D03*
X237744000Y-219710000D03*
X133858000Y-194310000D03*
X175895000Y-194310000D03*
X217678000Y-194564000D03*
X217678000Y-152527000D03*
X175895000Y-152400000D03*
X133985000Y-152400000D03*
X158242000Y-131445000D03*
X157321250Y-127031750D03*
X152539000Y-134886000D03*
X217106500Y-110490000D03*
X175704500Y-110617000D03*
X159448500Y-126453921D03*
X162687000Y-144907000D03*
X225552000Y-90741500D03*
X201447400Y-92646500D03*
X77177900Y-107950000D03*
X226936300Y-92456000D03*
X147447000Y-131927600D03*
X155905200Y-135991600D03*
X158470600Y-139966700D03*
X172514401Y-95425401D03*
X77177900Y-109728000D03*
X77177900Y-106426000D03*
X80010000Y-106426000D03*
X82042000Y-147955000D03*
X82677000Y-190627000D03*
X143891000Y-209296000D03*
X186690000Y-209296000D03*
X235966000Y-189484000D03*
X236093000Y-148082000D03*
X235839000Y-106680000D03*
X168402000Y-133794500D03*
X167322500Y-131445000D03*
X134945120Y-99722940D03*
X152603200Y-137096500D03*
X151282400Y-127800100D03*
X162382200Y-163347400D03*
X156540200Y-169621200D03*
X162280600Y-162077400D03*
X156743400Y-168351200D03*
X172402500Y-94132400D03*
X152654000Y-172148500D03*
X161163000Y-138303000D03*
X165671500Y-129794000D03*
X169481500Y-94183200D03*
X182638700Y-93941900D03*
X181114700Y-93675200D03*
X167728900Y-93929200D03*
X174002700Y-94830900D03*
X152844500Y-173418500D03*
X160401000Y-139255500D03*
X166217600Y-129032000D03*
X169418000Y-95097600D03*
X182778400Y-94919800D03*
X192151000Y-112826803D03*
X193802002Y-112776000D03*
X195453000Y-112649000D03*
X157802652Y-128455348D03*
X192151000Y-112014000D03*
X171450000Y-127000021D03*
X80340200Y-128968500D03*
X80886300Y-131495800D03*
X152501600Y-132270500D03*
X156235400Y-137414000D03*
X151384000Y-132245100D03*
X160147000Y-131699000D03*
X169926000Y-127635000D03*
X181356000Y-96774000D03*
X168529000Y-128016000D03*
X160959803Y-131699000D03*
X167767000Y-100838000D03*
D30*
X123126500Y-114871500D02*
X123077816Y-114871500D01*
X121856500Y-113601500D02*
X121856500Y-113650184D01*
X179717700Y-91452100D02*
X179717700Y-90271600D01*
D31*
X85572700Y-117767100D02*
X86944200Y-117767100D01*
D30*
X80452200Y-125021100D02*
X80467200Y-125006100D01*
X79449700Y-125021100D02*
X80452200Y-125021100D01*
X79449700Y-124371100D02*
X80975200Y-124371100D01*
X80452200Y-123721100D02*
X80467200Y-123736100D01*
X79449700Y-123721100D02*
X80452200Y-123721100D01*
D31*
X113919000Y-121920000D02*
X115189000Y-121920000D01*
X149444900Y-135001000D02*
X149444900Y-133858000D01*
X149444900Y-135001000D02*
X148424900Y-135001000D01*
X149444900Y-133858000D02*
X148424900Y-133858000D01*
X135982900Y-136779000D02*
X134899400Y-136779000D01*
X135982900Y-133604000D02*
X134899400Y-133604000D01*
X159791400Y-146998500D02*
X158521400Y-146998500D01*
X158521400Y-146998500D02*
X158521400Y-148082000D01*
X159791400Y-146998500D02*
X159791400Y-148018500D01*
X161569400Y-146998500D02*
X161569400Y-148031200D01*
X162839400Y-146998500D02*
X162839400Y-148031200D01*
X151573900Y-144272000D02*
X150495000Y-144272000D01*
X152310500Y-157544100D02*
X152298400Y-157556200D01*
X153365200Y-157544100D02*
X152310500Y-157544100D01*
X158991900Y-157493300D02*
X159029400Y-157530800D01*
X157988000Y-157493300D02*
X158991900Y-157493300D01*
X168596500Y-129150300D02*
X168579800Y-129133600D01*
X169672000Y-129150300D02*
X168596500Y-129150300D01*
X169502900Y-136144000D02*
X170688000Y-136144000D01*
D30*
X164132200Y-137386000D02*
X164109400Y-137363200D01*
X165593400Y-137386000D02*
X164132200Y-137386000D01*
D31*
X157365700Y-124730700D02*
X157365700Y-123698000D01*
X156095700Y-124730700D02*
X156095700Y-123698000D01*
X154825700Y-124730700D02*
X154825700Y-123698000D01*
X159016700Y-122504200D02*
X159042100Y-122478800D01*
X159016700Y-123827200D02*
X159016700Y-122504200D01*
X156641800Y-96875600D02*
X156641800Y-99187000D01*
X159181800Y-96875600D02*
X159181800Y-99161600D01*
X147523200Y-93103700D02*
X147548600Y-93129100D01*
X147523200Y-91999400D02*
X147523200Y-93103700D01*
X147548600Y-94258800D02*
X147548600Y-93129100D01*
X145059400Y-94272100D02*
X145059400Y-93205300D01*
X145059400Y-91948600D02*
X145059400Y-93205300D01*
X142544800Y-91948600D02*
X142544800Y-94284200D01*
X142544800Y-93253590D02*
X142567690Y-93230700D01*
X142544800Y-94284200D02*
X142544800Y-93253590D01*
X140004800Y-91948600D02*
X140004800Y-93230700D01*
X140004800Y-94284200D02*
X140004800Y-93230700D01*
X137337800Y-91923200D02*
X137337800Y-93129100D01*
X137337800Y-94284200D02*
X137337800Y-93129100D01*
X134874000Y-93129100D02*
X134848600Y-93103700D01*
X134874000Y-94233400D02*
X134874000Y-93129100D01*
X134848600Y-91948600D02*
X134848600Y-93103700D01*
X166331900Y-91490800D02*
X166331900Y-91731500D01*
X166966900Y-90855800D02*
X166331900Y-91490800D01*
X159308800Y-198272400D02*
X159791400Y-198272400D01*
X159791400Y-198272400D02*
X160578800Y-199059800D01*
X161848800Y-190652400D02*
X161848800Y-190525400D01*
X161848800Y-190525400D02*
X160604200Y-189280800D01*
X161848800Y-198272400D02*
X161366200Y-198272400D01*
X161366200Y-198272400D02*
X160655000Y-197561200D01*
X159308800Y-190703200D02*
X160553400Y-191947800D01*
X159308800Y-190652400D02*
X159308800Y-190703200D01*
D30*
X159168400Y-131407600D02*
X159156400Y-131419600D01*
X159168400Y-129961000D02*
X159168400Y-131407600D01*
D31*
X124104400Y-114871500D02*
X124117100Y-114884200D01*
X123126500Y-114871500D02*
X124104400Y-114871500D01*
X123126500Y-117411500D02*
X122467158Y-116752158D01*
X121132600Y-114122200D02*
X121119900Y-114122200D01*
X121653300Y-113601500D02*
X121132600Y-114122200D01*
X121856500Y-113601500D02*
X121653300Y-113601500D01*
D30*
X154243400Y-136386000D02*
X155269500Y-136386000D01*
X165593400Y-132886000D02*
X167430000Y-132886000D01*
X167430000Y-132886000D02*
X167576500Y-133032500D01*
D31*
X170677682Y-137414000D02*
X170682841Y-137408841D01*
X169502900Y-137414000D02*
X170677682Y-137414000D01*
X111034000Y-127980000D02*
X111125000Y-127889000D01*
X109283000Y-127980000D02*
X111034000Y-127980000D01*
X99223000Y-127980000D02*
X99187000Y-128016000D01*
X101283000Y-127980000D02*
X99223000Y-127980000D01*
X192405000Y-124206000D02*
X192405000Y-125920500D01*
X192976500Y-118300500D02*
X192976500Y-116459000D01*
D30*
X80522000Y-114342100D02*
X80543400Y-114363500D01*
X79578200Y-114342100D02*
X80522000Y-114342100D01*
X71932800Y-115163600D02*
X71907400Y-115189000D01*
X73041700Y-115163600D02*
X71932800Y-115163600D01*
X78168500Y-119100600D02*
X78193900Y-119126000D01*
X76890700Y-119100600D02*
X78168500Y-119100600D01*
X72326500Y-130594100D02*
X72351900Y-130619500D01*
X70942200Y-130594100D02*
X72326500Y-130594100D01*
X70942200Y-130594100D02*
X70942200Y-130124200D01*
X71526400Y-129540000D02*
X72351900Y-129540000D01*
X70942200Y-130124200D02*
X71526400Y-129540000D01*
X70942200Y-130924300D02*
X70942200Y-130594100D01*
X71653400Y-131635500D02*
X72351900Y-131635500D01*
X70942200Y-130924300D02*
X71653400Y-131635500D01*
X72610500Y-131894100D02*
X72351900Y-131635500D01*
X73617200Y-131894100D02*
X72610500Y-131894100D01*
X168347900Y-137394000D02*
X168367900Y-137414000D01*
X167391400Y-136886000D02*
X167177400Y-136886000D01*
D31*
X167919400Y-137414000D02*
X167391400Y-136886000D01*
X168367900Y-137414000D02*
X167919400Y-137414000D01*
X168367900Y-136144000D02*
X167919400Y-136144000D01*
X167919400Y-136144000D02*
X167284400Y-136779000D01*
X158521400Y-145693000D02*
X159168400Y-145046000D01*
X158521400Y-145863500D02*
X158521400Y-145693000D01*
X159791400Y-145669000D02*
X159168400Y-145046000D01*
X159791400Y-145863500D02*
X159791400Y-145669000D01*
X154825700Y-125865700D02*
X156095700Y-125865700D01*
D30*
X150778400Y-134886000D02*
X150579900Y-134687500D01*
D31*
X150579900Y-134687500D02*
X150579900Y-135001000D01*
X150579900Y-133858000D02*
X150579900Y-134687500D01*
D30*
X181114700Y-91489600D02*
X181114700Y-90271600D01*
D31*
X81012700Y-117767100D02*
X81012700Y-119201600D01*
X81229200Y-120688100D02*
X80721200Y-121196100D01*
X83642200Y-120688100D02*
X81229200Y-120688100D01*
X114008500Y-120523000D02*
X115252500Y-120523000D01*
X164236400Y-147028500D02*
X164236400Y-148056600D01*
X151573900Y-145542000D02*
X150495000Y-145542000D01*
X172830600Y-130666600D02*
X172821600Y-130657600D01*
X172830600Y-132207000D02*
X172830600Y-130666600D01*
X172830600Y-133722000D02*
X172821600Y-133731000D01*
X172830600Y-132207000D02*
X172830600Y-133722000D01*
D30*
X159168400Y-142912400D02*
X159168400Y-144969800D01*
X159168400Y-144969800D02*
X159168400Y-145046000D01*
X159168400Y-143649000D02*
X159168400Y-144969800D01*
X159168400Y-141311000D02*
X159168400Y-142912400D01*
X159168400Y-142912400D02*
X159168400Y-143649000D01*
X167177400Y-136886000D02*
X167284400Y-136779000D01*
X165593400Y-136886000D02*
X167177400Y-136886000D01*
D31*
X150012400Y-83781900D02*
X150012400Y-86321900D01*
X132232400Y-83781900D02*
X132232400Y-86321900D01*
X150012400Y-86321900D02*
X150012400Y-89090500D01*
X152730200Y-83781900D02*
X152755600Y-83756500D01*
X150012400Y-83781900D02*
X152730200Y-83781900D01*
X132232400Y-86321900D02*
X132232400Y-89065100D01*
X129540000Y-83781900D02*
X129514600Y-83756500D01*
X132232400Y-83781900D02*
X129540000Y-83781900D01*
X167728900Y-91414600D02*
X168313100Y-90830400D01*
X167728900Y-91731500D02*
X167728900Y-91414600D01*
D30*
X158668400Y-128378900D02*
X158668400Y-129961000D01*
X159168400Y-141311000D02*
X159168400Y-140185853D01*
X159168400Y-140185853D02*
X159470180Y-139884073D01*
D31*
X165633400Y-147028500D02*
X165633400Y-148043890D01*
X165633400Y-148043890D02*
X165646110Y-148056600D01*
D30*
X225881000Y-89725500D02*
X224663000Y-89725500D01*
D31*
X130289300Y-112788700D02*
X130810000Y-112268000D01*
X129934300Y-112788700D02*
X130289300Y-112788700D01*
X129959100Y-114465100D02*
X130556000Y-115062000D01*
X129896200Y-114465100D02*
X129959100Y-114465100D01*
D30*
X158668400Y-131018600D02*
X158242000Y-131445000D01*
X158668400Y-129961000D02*
X158668400Y-131018600D01*
X156155200Y-125865700D02*
X157321250Y-127031750D01*
X156095700Y-125865700D02*
X156155200Y-125865700D01*
X157321250Y-127031750D02*
X158668400Y-128378900D01*
X154243400Y-134886000D02*
X152539000Y-134886000D01*
X152539000Y-134886000D02*
X150778400Y-134886000D01*
X140170400Y-136779000D02*
X140614400Y-137223000D01*
X137117900Y-136779000D02*
X140170400Y-136779000D01*
X140614400Y-137223000D02*
X143345400Y-137223000D01*
X154243400Y-135886000D02*
X153064400Y-135886000D01*
X153064400Y-135886000D02*
X152552400Y-136398000D01*
X144170400Y-136398000D02*
X144106900Y-136461500D01*
X152552400Y-136398000D02*
X144170400Y-136398000D01*
X143345400Y-137223000D02*
X144106900Y-136461500D01*
X157365700Y-125865700D02*
X157496700Y-125996700D01*
D31*
X159016700Y-125552200D02*
X159016700Y-125679200D01*
X158830200Y-125865700D02*
X157365700Y-125865700D01*
X159016700Y-125679200D02*
X158830200Y-125865700D01*
X162839400Y-145863500D02*
X161569400Y-145863500D01*
D30*
X161569400Y-145186400D02*
X161569400Y-145863500D01*
X159668400Y-143285400D02*
X161569400Y-145186400D01*
X159668400Y-141311000D02*
X159668400Y-143285400D01*
X159668400Y-128168400D02*
X159668400Y-129961000D01*
X157365700Y-125865700D02*
X159668400Y-128168400D01*
D31*
X159016700Y-126022121D02*
X159448500Y-126453921D01*
X159016700Y-125552200D02*
X159016700Y-126022121D01*
X162839400Y-145059400D02*
X162687000Y-144907000D01*
X162839400Y-145863500D02*
X162839400Y-145059400D01*
D30*
X140233400Y-133604000D02*
X140614400Y-133223000D01*
X137117900Y-133604000D02*
X140233400Y-133604000D01*
X140995400Y-133604000D02*
X140614400Y-133223000D01*
X141667900Y-134276500D02*
X140614400Y-133223000D01*
X143916400Y-134276500D02*
X141667900Y-134276500D01*
D31*
X148607400Y-141851000D02*
X148615400Y-141859000D01*
D30*
X150393400Y-141224000D02*
X148742400Y-141224000D01*
X154243400Y-138386000D02*
X153231400Y-138386000D01*
X148742400Y-141224000D02*
X148607400Y-141089000D01*
X153231400Y-138386000D02*
X150393400Y-141224000D01*
D31*
X148607400Y-141089000D02*
X148607400Y-141851000D01*
X148607400Y-140716000D02*
X148607400Y-141089000D01*
D30*
X147480400Y-141859000D02*
X147480400Y-141978000D01*
X146877400Y-142581000D02*
X145059400Y-142581000D01*
X149773400Y-142581000D02*
X153468400Y-138886000D01*
X153468400Y-138886000D02*
X154243400Y-138886000D01*
X147480400Y-142502000D02*
X147559400Y-142581000D01*
X147480400Y-141859000D02*
X147480400Y-142502000D01*
X147559400Y-142581000D02*
X149773400Y-142581000D01*
X146877400Y-142581000D02*
X147559400Y-142581000D01*
X147472400Y-140716000D02*
X147472400Y-140589000D01*
X146964400Y-140081000D02*
X145059400Y-140081000D01*
X147472400Y-140716000D02*
X147472400Y-140081000D01*
X146964400Y-140081000D02*
X147472400Y-140081000D01*
X152969400Y-137886000D02*
X154243400Y-137886000D01*
X150774400Y-140081000D02*
X152969400Y-137886000D01*
X147472400Y-140081000D02*
X150774400Y-140081000D01*
D31*
X170780600Y-132207000D02*
X169672000Y-132207000D01*
X169672000Y-132207000D02*
X169672000Y-130285300D01*
X168351200Y-132207000D02*
X167741600Y-132207000D01*
X169672000Y-132207000D02*
X168351200Y-132207000D01*
D30*
X168287700Y-132270500D02*
X168351200Y-132207000D01*
X166654984Y-132270500D02*
X168287700Y-132270500D01*
X166539484Y-132386000D02*
X166654984Y-132270500D01*
X165593400Y-132386000D02*
X166539484Y-132386000D01*
X228092000Y-90741500D02*
X227076000Y-89725500D01*
X228092000Y-91317000D02*
X228092000Y-90741500D01*
X228092000Y-90652000D02*
X229018500Y-89725500D01*
X228092000Y-91317000D02*
X228092000Y-90652000D01*
D32*
X225552000Y-90741500D02*
X226060000Y-90741500D01*
X226060000Y-90741500D02*
X227076000Y-89725500D01*
X201422000Y-92621100D02*
X201447400Y-92646500D01*
X201422000Y-99631500D02*
X201422000Y-92621100D01*
X167390893Y-138887190D02*
X175374310Y-138887190D01*
X196088000Y-113093500D02*
X196088000Y-104965500D01*
X175374310Y-138887190D02*
X181737000Y-132524500D01*
X181737000Y-132524500D02*
X181737000Y-123364625D01*
X185801000Y-119300625D02*
X185801000Y-115125500D01*
X181737000Y-123364625D02*
X185801000Y-119300625D01*
X195199000Y-113982500D02*
X196088000Y-113093500D01*
X185801000Y-115125500D02*
X186944000Y-113982500D01*
X166889703Y-138386000D02*
X167390893Y-138887190D01*
X186944000Y-113982500D02*
X195199000Y-113982500D01*
X165593400Y-138386000D02*
X166889703Y-138386000D01*
X196088000Y-104965500D02*
X201422000Y-99631500D01*
D30*
X79578200Y-117663100D02*
X79090700Y-118150600D01*
X79578200Y-115477100D02*
X79578200Y-117663100D01*
X76978700Y-129294100D02*
X77583700Y-128689100D01*
X73617200Y-129294100D02*
X76978700Y-129294100D01*
X77674700Y-125021100D02*
X77658200Y-125021100D01*
X77658200Y-125021100D02*
X77643200Y-125006100D01*
X77643200Y-125006100D02*
X76911200Y-125006100D01*
X77674700Y-124371100D02*
X76784200Y-124371100D01*
X77674700Y-123721100D02*
X76926200Y-123721100D01*
D31*
X75441700Y-112750600D02*
X75514200Y-112823100D01*
X71704200Y-112750600D02*
X75441700Y-112750600D01*
D33*
X75514200Y-116878100D02*
X75450700Y-116941600D01*
D31*
X75234800Y-115163600D02*
X75514200Y-114884200D01*
X74176700Y-115163600D02*
X75234800Y-115163600D01*
D33*
X75514200Y-114884200D02*
X75514200Y-116878100D01*
X75514200Y-112823100D02*
X75514200Y-114884200D01*
D30*
X76890700Y-120050600D02*
X76890700Y-121318200D01*
X76890700Y-118150600D02*
X76890700Y-116997300D01*
X112784000Y-120552500D02*
X112813500Y-120523000D01*
X112784000Y-121920000D02*
X112784000Y-120552500D01*
D31*
X112813500Y-116993000D02*
X113284000Y-116522500D01*
X112813500Y-120523000D02*
X112813500Y-116993000D01*
D30*
X101283000Y-123480000D02*
X109283000Y-123480000D01*
X111224000Y-123480000D02*
X112784000Y-121920000D01*
X109283000Y-123480000D02*
X111224000Y-123480000D01*
D31*
X157988000Y-154101900D02*
X157962600Y-154076500D01*
X157988000Y-156298300D02*
X157988000Y-154101900D01*
D32*
X157668400Y-152207300D02*
X157962600Y-152501500D01*
X157668400Y-145552600D02*
X157668400Y-152207300D01*
X157668400Y-141311000D02*
X157668400Y-145552600D01*
X153416100Y-152501500D02*
X153390600Y-152501500D01*
X156668400Y-144959000D02*
X156668400Y-149223700D01*
X156668400Y-141311000D02*
X156668400Y-144959000D01*
X156668400Y-149223700D02*
X153390600Y-152501500D01*
D31*
X153339800Y-154127300D02*
X153390600Y-154076500D01*
X153339800Y-156349100D02*
X153339800Y-154127300D01*
X153365200Y-154101900D02*
X153390600Y-154076500D01*
X153365200Y-156349100D02*
X153365200Y-154101900D01*
X83997700Y-117767100D02*
X82207700Y-117767100D01*
D30*
X226940300Y-92452000D02*
X226936300Y-92456000D01*
X228092000Y-92452000D02*
X226940300Y-92452000D01*
X79212200Y-125021100D02*
X78562200Y-124371100D01*
X79449700Y-125021100D02*
X79212200Y-125021100D01*
X79449700Y-124371100D02*
X78562200Y-124371100D01*
X79212200Y-123721100D02*
X78562200Y-124371100D01*
X79449700Y-123721100D02*
X79212200Y-123721100D01*
X155510800Y-136386000D02*
X155905200Y-135991600D01*
X154243400Y-136386000D02*
X155510800Y-136386000D01*
X158668400Y-140164500D02*
X158470600Y-139966700D01*
X158668400Y-141311000D02*
X158668400Y-140164500D01*
D31*
X75514200Y-108178600D02*
X75450700Y-108115100D01*
X75514200Y-110773100D02*
X75514200Y-108178600D01*
D32*
X165593400Y-133386000D02*
X166977500Y-133386000D01*
X167386000Y-133794500D02*
X168402000Y-133794500D01*
X166977500Y-133386000D02*
X167386000Y-133794500D01*
X166881500Y-131886000D02*
X167322500Y-131445000D01*
X165593400Y-131886000D02*
X166881500Y-131886000D01*
D30*
X177826844Y-142259224D02*
X177211060Y-142875008D01*
X177711100Y-142374968D02*
X177826844Y-142259224D01*
X178620594Y-141465474D02*
X177211059Y-142875010D01*
X177826844Y-142259224D02*
X178620594Y-141465474D01*
X163736020Y-142882620D02*
X177165000Y-142882620D01*
X163168400Y-142315000D02*
X163736020Y-142882620D01*
X163168400Y-141311000D02*
X163168400Y-142315000D01*
X188681534Y-131404534D02*
X188849000Y-131237068D01*
X178620594Y-141465474D02*
X188681534Y-131404534D01*
X188849000Y-131237068D02*
X188849000Y-125285500D01*
X189865000Y-124269500D02*
X189865000Y-124206000D01*
X188849000Y-125285500D02*
X189865000Y-124269500D01*
X163951920Y-142463520D02*
X176888140Y-142463520D01*
X163668400Y-142180000D02*
X163951920Y-142463520D01*
X163668400Y-141311000D02*
X163668400Y-142180000D01*
X176888140Y-142463520D02*
X186514740Y-132836920D01*
X186514740Y-132836920D02*
X186695080Y-132656580D01*
X186855090Y-124675910D02*
X187325000Y-124206000D01*
X188341000Y-125222000D02*
X187325000Y-124206000D01*
X188341000Y-131000500D02*
X188341000Y-125222000D01*
X186514740Y-132826760D02*
X188341000Y-131000500D01*
X186514740Y-132836920D02*
X186514740Y-132826760D01*
X148666200Y-89661400D02*
X147523200Y-90804400D01*
X148666200Y-84975700D02*
X148666200Y-89661400D01*
X147472400Y-83781900D02*
X148666200Y-84975700D01*
D32*
X148653500Y-91614700D02*
X147843200Y-90804400D01*
X165112729Y-119075229D02*
X148653500Y-102616000D01*
X165112729Y-130870555D02*
X165112729Y-119075229D01*
X163576000Y-132407284D02*
X165112729Y-130870555D01*
X163576000Y-133037050D02*
X163576000Y-132407284D01*
X147843200Y-90804400D02*
X147523200Y-90804400D01*
X164924950Y-134386000D02*
X163576000Y-133037050D01*
X148653500Y-102616000D02*
X148653500Y-91614700D01*
X165593400Y-134386000D02*
X164924950Y-134386000D01*
X164924950Y-134886000D02*
X163258500Y-133219550D01*
X165593400Y-134886000D02*
X164924950Y-134886000D01*
X163258500Y-133219550D02*
X163258500Y-132329638D01*
X163258500Y-132329638D02*
X164833319Y-130754820D01*
X164833319Y-130754820D02*
X164833319Y-129387581D01*
X164833319Y-129387581D02*
X164833319Y-129247900D01*
X147548600Y-95811300D02*
X147548600Y-95453800D01*
X147548600Y-102146100D02*
X147548600Y-95811300D01*
X164833319Y-119430819D02*
X147548600Y-102146100D01*
X164833319Y-129387581D02*
X164833319Y-119430819D01*
D30*
X146748500Y-94653700D02*
X147548600Y-95453800D01*
X146748500Y-88247881D02*
X146748500Y-94653700D01*
X147472400Y-87523981D02*
X146748500Y-88247881D01*
X147472400Y-86321900D02*
X147472400Y-87523981D01*
X146100800Y-89712200D02*
X145059400Y-90753600D01*
X146100800Y-84950300D02*
X146100800Y-89712200D01*
X144932400Y-83781900D02*
X146100800Y-84950300D01*
D32*
X146367500Y-92061700D02*
X145059400Y-90753600D01*
X164818400Y-135386000D02*
X162966410Y-133534010D01*
X162966410Y-133324590D02*
X162979091Y-133311909D01*
X164553909Y-130639085D02*
X164553909Y-119849909D01*
X162979091Y-132213903D02*
X164553909Y-130639085D01*
X165593400Y-135386000D02*
X164818400Y-135386000D01*
X162966410Y-133534010D02*
X162966410Y-133324590D01*
X162979091Y-133311909D02*
X162979091Y-132213903D01*
X164553909Y-119849909D02*
X146367500Y-101663500D01*
X146367500Y-101663500D02*
X146367500Y-92061700D01*
X145059400Y-101003100D02*
X145059400Y-95467100D01*
X145059400Y-101053900D02*
X145059400Y-101003100D01*
X164274500Y-120269000D02*
X145059400Y-101053900D01*
X164274500Y-130523350D02*
X164274500Y-120269000D01*
X163858640Y-130939210D02*
X164274500Y-130523350D01*
X163839055Y-130939210D02*
X163858640Y-130939210D01*
X162687000Y-132091265D02*
X163839055Y-130939210D01*
X162687000Y-133754600D02*
X162687000Y-132091265D01*
X164818400Y-135886000D02*
X162687000Y-133754600D01*
X165593400Y-135886000D02*
X164818400Y-135886000D01*
D30*
X144272000Y-94679700D02*
X145059400Y-95467100D01*
X144272000Y-88184381D02*
X144272000Y-94679700D01*
X144932400Y-87523981D02*
X144272000Y-88184381D01*
X144932400Y-86321900D02*
X144932400Y-87523981D01*
X143586200Y-89712200D02*
X142544800Y-90753600D01*
X143586200Y-84975700D02*
X143586200Y-89712200D01*
X142392400Y-83781900D02*
X143586200Y-84975700D01*
D32*
X143827500Y-92360142D02*
X142544800Y-91077442D01*
X143827500Y-100520500D02*
X143827500Y-92360142D01*
X142544800Y-91077442D02*
X142544800Y-90753600D01*
X163668400Y-120361400D02*
X143827500Y-100520500D01*
X163668400Y-129961000D02*
X163668400Y-120361400D01*
D30*
X141732000Y-94666400D02*
X142544800Y-95479200D01*
X141732000Y-86982300D02*
X141732000Y-94666400D01*
X142392400Y-86321900D02*
X141732000Y-86982300D01*
D32*
X142557500Y-95491900D02*
X142544800Y-95479200D01*
X163168400Y-129961000D02*
X163168400Y-120559900D01*
X142544800Y-99936300D02*
X142716250Y-100107750D01*
X142544800Y-95479200D02*
X142544800Y-99936300D01*
X142716250Y-100107750D02*
X142621000Y-100012500D01*
X163168400Y-120559900D02*
X142716250Y-100107750D01*
D30*
X141071600Y-89686800D02*
X140004800Y-90753600D01*
X141071600Y-85001100D02*
X141071600Y-89686800D01*
X139852400Y-83781900D02*
X141071600Y-85001100D01*
D32*
X141287500Y-92036300D02*
X140004800Y-90753600D01*
X141287500Y-99377500D02*
X141287500Y-92036300D01*
X162668400Y-120758400D02*
X141287500Y-99377500D01*
X162668400Y-129961000D02*
X162668400Y-120758400D01*
X140004800Y-98761550D02*
X140004800Y-95479200D01*
X162168400Y-120925150D02*
X140004800Y-98761550D01*
X162168400Y-129961000D02*
X162168400Y-120925150D01*
D30*
X139128500Y-94602900D02*
X140004800Y-95479200D01*
X139128500Y-87045800D02*
X139128500Y-94602900D01*
X139852400Y-86321900D02*
X139128500Y-87045800D01*
X138582400Y-89483600D02*
X137337800Y-90728200D01*
X138582400Y-85051900D02*
X138582400Y-89483600D01*
X137312400Y-83781900D02*
X138582400Y-85051900D01*
D32*
X138620500Y-92010900D02*
X137337800Y-90728200D01*
X138620500Y-98044000D02*
X138620500Y-92010900D01*
X161668400Y-121091900D02*
X138620500Y-98044000D01*
X161668400Y-129961000D02*
X161668400Y-121091900D01*
X137350500Y-95491900D02*
X137337800Y-95479200D01*
X137350500Y-97440750D02*
X137350500Y-95491900D01*
X161168400Y-121258650D02*
X137350500Y-97440750D01*
X161168400Y-129961000D02*
X161168400Y-121258650D01*
D30*
X136525000Y-94666400D02*
X137337800Y-95479200D01*
X136525000Y-89616030D02*
X136525000Y-94666400D01*
X137312400Y-88828630D02*
X136525000Y-89616030D01*
X137312400Y-86321900D02*
X137312400Y-88828630D01*
X136093200Y-89509000D02*
X134848600Y-90753600D01*
X134772400Y-83781900D02*
X136093200Y-85102700D01*
X136093200Y-85102700D02*
X136093200Y-89509000D01*
D32*
X136080500Y-91985500D02*
X134848600Y-90753600D01*
X136080500Y-96837500D02*
X136080500Y-91985500D01*
X160668400Y-121425400D02*
X136080500Y-96837500D01*
X160668400Y-129961000D02*
X160668400Y-121425400D01*
D30*
X133922401Y-94476801D02*
X134874000Y-95428400D01*
X133922401Y-87171899D02*
X133922401Y-94476801D01*
X134772400Y-86321900D02*
X133922401Y-87171899D01*
D32*
X134874000Y-96329500D02*
X134874000Y-95428400D01*
X160168400Y-121623900D02*
X134874000Y-96329500D01*
X160168400Y-129961000D02*
X160168400Y-121623900D01*
D30*
X182880000Y-123698000D02*
X185293000Y-121285000D01*
X182880000Y-132588000D02*
X182880000Y-123698000D01*
X175768000Y-139700000D02*
X182880000Y-132588000D01*
X166995800Y-139700000D02*
X175768000Y-139700000D01*
X166681800Y-139386000D02*
X166995800Y-139700000D01*
X165593400Y-139386000D02*
X166681800Y-139386000D01*
X187325000Y-121285000D02*
X189230000Y-121285000D01*
X185293000Y-121285000D02*
X187325000Y-121285000D01*
X187325000Y-121285000D02*
X187452000Y-121285000D01*
X190436500Y-120078500D02*
X190436500Y-118300500D01*
X189230000Y-121285000D02*
X190436500Y-120078500D01*
X187198000Y-120777000D02*
X187896500Y-120078500D01*
X187896500Y-120078500D02*
X187896500Y-118300500D01*
X185166000Y-120777000D02*
X187198000Y-120777000D01*
X182435500Y-123507500D02*
X185166000Y-120777000D01*
X182435500Y-132397500D02*
X182435500Y-123507500D01*
X175615600Y-139217400D02*
X182435500Y-132397500D01*
X167208200Y-139217400D02*
X175615600Y-139217400D01*
X166876800Y-138886000D02*
X167208200Y-139217400D01*
X165593400Y-138886000D02*
X166876800Y-138886000D01*
D32*
X110744000Y-112293400D02*
X110655100Y-112204500D01*
X123136660Y-99722940D02*
X134945120Y-99722940D01*
X110655100Y-112204500D02*
X123136660Y-99722940D01*
X126627362Y-127800100D02*
X122286131Y-123458869D01*
X127850900Y-127800100D02*
X126627362Y-127800100D01*
X122466100Y-123638838D02*
X122286131Y-123458869D01*
X110655100Y-112204500D02*
X110655100Y-113703100D01*
X111520869Y-114568869D02*
X113396131Y-114568869D01*
X110655100Y-113703100D02*
X111520869Y-114568869D01*
X122286131Y-123458869D02*
X113396131Y-114568869D01*
X110655100Y-116433600D02*
X110744000Y-116522500D01*
X110655100Y-112204500D02*
X110655100Y-116433600D01*
X152813700Y-136886000D02*
X152603200Y-137096500D01*
X154243400Y-136886000D02*
X152813700Y-136886000D01*
X151282400Y-127800100D02*
X127850900Y-127800100D01*
X165963600Y-143601440D02*
X166293800Y-143601440D01*
X162168400Y-142577380D02*
X163192460Y-143601440D01*
X163192460Y-143601440D02*
X165963600Y-143601440D01*
X162168400Y-141311000D02*
X162168400Y-142577380D01*
X197612000Y-105791000D02*
X209613500Y-93789500D01*
X197612000Y-117157500D02*
X197612000Y-105791000D01*
X194183000Y-120586500D02*
X197612000Y-117157500D01*
X194183000Y-128206500D02*
X194183000Y-120586500D01*
X178788060Y-143601440D02*
X194183000Y-128206500D01*
X209613500Y-93789500D02*
X209613500Y-83756500D01*
X165963600Y-143601440D02*
X178788060Y-143601440D01*
X166103300Y-143278860D02*
X166240460Y-143278860D01*
X163456620Y-143278860D02*
X166103300Y-143278860D01*
X162668400Y-142490640D02*
X163456620Y-143278860D01*
X162668400Y-141311000D02*
X162668400Y-142490640D01*
X178602640Y-143278860D02*
X166103300Y-143278860D01*
X197231000Y-105537000D02*
X197231000Y-117030500D01*
X197231000Y-117030500D02*
X193802000Y-120459500D01*
X207073500Y-95694500D02*
X197231000Y-105537000D01*
X193802000Y-128079500D02*
X178602640Y-143278860D01*
X193802000Y-120459500D02*
X193802000Y-128079500D01*
X207073500Y-83756500D02*
X207073500Y-95694500D01*
X204533500Y-84315300D02*
X204533500Y-83756500D01*
X196850000Y-105283000D02*
X204533500Y-97599500D01*
X173474380Y-141660880D02*
X173476920Y-141663420D01*
X183553100Y-123991546D02*
X185599235Y-121945411D01*
X161668400Y-140284260D02*
X161950400Y-140002260D01*
X161950400Y-140002260D02*
X163769040Y-140002260D01*
X163769040Y-140002260D02*
X165427660Y-141660880D01*
X161668400Y-141311000D02*
X161668400Y-140284260D01*
X173476920Y-141663420D02*
X174924720Y-141663420D01*
X185599235Y-121945411D02*
X191808089Y-121945411D01*
X204533500Y-97599500D02*
X204533500Y-83756500D01*
X174924720Y-141663420D02*
X183553100Y-133035040D01*
X165427660Y-141660880D02*
X173474380Y-141660880D01*
X183553100Y-133035040D02*
X183553100Y-123991546D01*
X191808089Y-121945411D02*
X196850000Y-116903500D01*
X196850000Y-116903500D02*
X196850000Y-105283000D01*
X201993500Y-99568000D02*
X201993500Y-83756500D01*
X191582040Y-121666000D02*
X196469000Y-116779040D01*
X196469000Y-116779040D02*
X196469000Y-105092500D01*
X183263540Y-123885960D02*
X185483500Y-121666000D01*
X183263540Y-132803900D02*
X183263540Y-123885960D01*
X174744380Y-141323060D02*
X183263540Y-132803900D01*
X185483500Y-121666000D02*
X191582040Y-121666000D01*
X165587680Y-141323060D02*
X174744380Y-141323060D01*
X163908740Y-139644120D02*
X165587680Y-141323060D01*
X161782760Y-139644120D02*
X163908740Y-139644120D01*
X161168400Y-140258480D02*
X161782760Y-139644120D01*
X196469000Y-105092500D02*
X201993500Y-99568000D01*
X161168400Y-141311000D02*
X161168400Y-140258480D01*
X157168400Y-129961000D02*
X157168400Y-129063300D01*
X154406600Y-127749300D02*
X143129000Y-116471700D01*
X157168400Y-129063300D02*
X155854400Y-127749300D01*
X155854400Y-127749300D02*
X154406600Y-127749300D01*
X127837600Y-113601500D02*
X128701200Y-114465100D01*
X123126500Y-113601500D02*
X127837600Y-113601500D01*
X130707800Y-116471700D02*
X133769100Y-116471700D01*
X128701200Y-114465100D02*
X130707800Y-116471700D01*
X133769100Y-116471700D02*
X133400800Y-116471700D01*
X143129000Y-116471700D02*
X133769100Y-116471700D01*
X120484900Y-113665000D02*
X121183400Y-112966500D01*
X120484900Y-114833400D02*
X120484900Y-113665000D01*
X121158000Y-115506500D02*
X120484900Y-114833400D01*
X122491500Y-115506500D02*
X121158000Y-115506500D01*
X123126500Y-116141500D02*
X122491500Y-115506500D01*
X156006800Y-127431800D02*
X157668400Y-129093400D01*
X154508200Y-127431800D02*
X156006800Y-127431800D01*
X157668400Y-129093400D02*
X157668400Y-129961000D01*
X128561500Y-112966500D02*
X128739300Y-112788700D01*
X126314200Y-112966500D02*
X128561500Y-112966500D01*
X121183400Y-112966500D02*
X126314200Y-112966500D01*
X126314200Y-112966500D02*
X126428500Y-112966500D01*
X128739300Y-112788700D02*
X128828800Y-112788700D01*
X128828800Y-112788700D02*
X129616200Y-113576100D01*
X129616200Y-113576100D02*
X130327400Y-113576100D01*
X130327400Y-113576100D02*
X132918200Y-116166900D01*
X141414500Y-116166900D02*
X143243300Y-116166900D01*
X132918200Y-116166900D02*
X141414500Y-116166900D01*
X143243300Y-116166900D02*
X154508200Y-127431800D01*
X121856500Y-118065282D02*
X121856500Y-117411500D01*
X123171219Y-119380001D02*
X121856500Y-118065282D01*
X128333499Y-119380001D02*
X123171219Y-119380001D01*
X130606800Y-117106700D02*
X128333499Y-119380001D01*
X142849600Y-117106700D02*
X130606800Y-117106700D01*
X154152600Y-128409700D02*
X142849600Y-117106700D01*
X155549600Y-128409700D02*
X154152600Y-128409700D01*
X156168400Y-129028500D02*
X155549600Y-128409700D01*
X156168400Y-129961000D02*
X156168400Y-129028500D01*
X126263401Y-114274599D02*
X122453401Y-114274599D01*
X128778002Y-116789200D02*
X126263401Y-114274599D01*
X122453401Y-114274599D02*
X121856500Y-114871500D01*
X142989300Y-116789200D02*
X128778002Y-116789200D01*
X154254200Y-128054100D02*
X142989300Y-116789200D01*
X155676600Y-128054100D02*
X154254200Y-128054100D01*
X156668400Y-129045900D02*
X155676600Y-128054100D01*
X156668400Y-129961000D02*
X156668400Y-129045900D01*
D30*
X121685049Y-112502951D02*
X113455451Y-112502951D01*
X113455451Y-112502951D02*
X113157000Y-112204500D01*
X121856500Y-112331500D02*
X121685049Y-112502951D01*
X73617200Y-131244100D02*
X75529200Y-131244100D01*
X76784200Y-132499100D02*
X77583700Y-132499100D01*
X75529200Y-131244100D02*
X76784200Y-132499100D01*
X161848800Y-195224400D02*
X161848800Y-195732400D01*
X166065200Y-191008000D02*
X161848800Y-195224400D01*
X166065200Y-183007000D02*
X166065200Y-191008000D01*
X160782000Y-177723800D02*
X166065200Y-183007000D01*
X160782000Y-164947600D02*
X160782000Y-177723800D01*
X162382200Y-163347400D02*
X160782000Y-164947600D01*
X154406600Y-183007000D02*
X154406600Y-191058800D01*
X157505400Y-179908200D02*
X154406600Y-183007000D01*
X159080200Y-195732400D02*
X159308800Y-195732400D01*
X157505400Y-170027600D02*
X157505400Y-179908200D01*
X154406600Y-191058800D02*
X159080200Y-195732400D01*
X157099000Y-169621200D02*
X157505400Y-170027600D01*
X156540200Y-169621200D02*
X157099000Y-169621200D01*
X162991800Y-193192400D02*
X161848800Y-193192400D01*
X165430200Y-190754000D02*
X162991800Y-193192400D01*
X165430200Y-183261000D02*
X165430200Y-190754000D01*
X160147000Y-177977800D02*
X165430200Y-183261000D01*
X160147000Y-164211000D02*
X160147000Y-177977800D01*
X162280600Y-162077400D02*
X160147000Y-164211000D01*
X155016200Y-190703200D02*
X157505400Y-193192400D01*
X157505400Y-193192400D02*
X159308800Y-193192400D01*
X155016200Y-183261000D02*
X155016200Y-190703200D01*
X158115000Y-180162200D02*
X155016200Y-183261000D01*
X158115000Y-169138600D02*
X158115000Y-180162200D01*
X157327600Y-168351200D02*
X158115000Y-169138600D01*
X156743400Y-168351200D02*
X157327600Y-168351200D01*
D32*
X161163000Y-139319000D02*
X161163000Y-138303000D01*
X160668400Y-139813600D02*
X161163000Y-139319000D01*
X160668400Y-141311000D02*
X160668400Y-139813600D01*
X151892000Y-165989000D02*
X151892000Y-171386500D01*
X165100000Y-152781000D02*
X151892000Y-165989000D01*
X165772500Y-145833500D02*
X165100000Y-146506000D01*
X165633400Y-145833500D02*
X165772500Y-145833500D01*
X165100000Y-146506000D02*
X165100000Y-152781000D01*
X151892000Y-171386500D02*
X152654000Y-172148500D01*
X165671500Y-117348000D02*
X165671500Y-129794000D01*
X160668400Y-143269400D02*
X160668400Y-141311000D01*
X161353500Y-143954500D02*
X160668400Y-143269400D01*
X163754400Y-143954500D02*
X161353500Y-143954500D01*
X165633400Y-145833500D02*
X163754400Y-143954500D01*
X167741589Y-99212411D02*
X167741589Y-98831411D01*
X165671500Y-117348000D02*
X165671500Y-101282500D01*
X167741589Y-98831411D02*
X167741589Y-98958411D01*
X165671500Y-101282500D02*
X167741589Y-99212411D01*
X167741589Y-95781078D02*
X167741589Y-98831411D01*
X169339467Y-94183200D02*
X167741589Y-95781078D01*
X169481500Y-94183200D02*
X169339467Y-94183200D01*
X172554900Y-94284800D02*
X172402500Y-94132400D01*
X182295800Y-94284800D02*
X172554900Y-94284800D01*
X182638700Y-93941900D02*
X182295800Y-94284800D01*
X181077200Y-92647100D02*
X181114700Y-92684600D01*
X179717700Y-92647100D02*
X181077200Y-92647100D01*
X181114700Y-93675200D02*
X181114700Y-92684600D01*
X166331900Y-92926500D02*
X167728900Y-92926500D01*
X167728900Y-93929200D02*
X167728900Y-92926500D01*
X174205901Y-94627699D02*
X174002700Y-94830900D01*
X174498001Y-94627699D02*
X174205901Y-94627699D01*
X174498001Y-94627699D02*
X174320199Y-94627699D01*
X164782501Y-152585929D02*
X151506430Y-165862000D01*
X164782501Y-146379601D02*
X164782501Y-152585929D01*
X164236400Y-145833500D02*
X164782501Y-146379601D01*
X151506430Y-165862000D02*
X151506430Y-172080430D01*
X151506430Y-172080430D02*
X152844500Y-173418500D01*
X160083500Y-139573000D02*
X160401000Y-139255500D01*
X160083500Y-141226100D02*
X160083500Y-139573000D01*
X160168400Y-141311000D02*
X160083500Y-141226100D01*
X160168400Y-143226600D02*
X160168400Y-141311000D01*
X161213800Y-144272000D02*
X160168400Y-143226600D01*
X163512500Y-144272000D02*
X161213800Y-144272000D01*
X164236400Y-144995900D02*
X163512500Y-144272000D01*
X164236400Y-145833500D02*
X164236400Y-144995900D01*
X168021000Y-98996500D02*
X168021000Y-99123500D01*
X168021000Y-99377500D02*
X168021000Y-98996500D01*
X165989000Y-101409500D02*
X168021000Y-99377500D01*
X165989000Y-128778000D02*
X165989000Y-101409500D01*
X166179500Y-128968500D02*
X165989000Y-128778000D01*
X166179500Y-128993900D02*
X166179500Y-128968500D01*
X166217600Y-129032000D02*
X166179500Y-128993900D01*
X168021000Y-95948500D02*
X168021000Y-98996500D01*
X169418000Y-95097600D02*
X168871900Y-95097600D01*
X168871900Y-95097600D02*
X168021000Y-95948500D01*
X182486299Y-94627699D02*
X174498001Y-94627699D01*
X182778400Y-94919800D02*
X182486299Y-94627699D01*
X152768900Y-144272000D02*
X152768900Y-145542000D01*
X152768900Y-146595500D02*
X151409400Y-147955000D01*
X152768900Y-145542000D02*
X152768900Y-146595500D01*
X154203400Y-144272000D02*
X152768900Y-144272000D01*
X156168400Y-142307000D02*
X154203400Y-144272000D01*
X156168400Y-141311000D02*
X156168400Y-142307000D01*
X171196000Y-134366000D02*
X171704000Y-134366000D01*
X192100197Y-112776000D02*
X192151000Y-112826803D01*
X191643000Y-112776000D02*
X192100197Y-112776000D01*
X191643000Y-112776000D02*
X191770000Y-112776000D01*
X167132000Y-134366000D02*
X171704000Y-134366000D01*
X166652000Y-133886000D02*
X167132000Y-134366000D01*
X165593400Y-133886000D02*
X166652000Y-133886000D01*
X186943996Y-112776000D02*
X191643000Y-112776000D01*
X184937411Y-114782585D02*
X186943996Y-112776000D01*
X184937411Y-118783089D02*
X184937411Y-114782585D01*
X180784500Y-122936000D02*
X184937411Y-118783089D01*
X180784500Y-129540000D02*
X180784500Y-122936000D01*
X175958500Y-134366000D02*
X180784500Y-129540000D01*
X171704000Y-134366000D02*
X175958500Y-134366000D01*
D30*
X144461890Y-136016990D02*
X143916400Y-135471500D01*
X152394582Y-136016990D02*
X144461890Y-136016990D01*
X153025572Y-135386000D02*
X152394582Y-136016990D01*
X154243400Y-135386000D02*
X153025572Y-135386000D01*
D32*
X193192413Y-113385589D02*
X193802002Y-112776000D01*
X186729553Y-113385589D02*
X193192413Y-113385589D01*
X181102000Y-123126500D02*
X185216822Y-119011678D01*
X185216822Y-114898320D02*
X186729553Y-113385589D01*
X181102000Y-129667000D02*
X181102000Y-123126500D01*
X176123591Y-134645409D02*
X181102000Y-129667000D01*
X185216822Y-119011678D02*
X185216822Y-114898320D01*
X168108991Y-134645409D02*
X176123591Y-134645409D01*
X166368400Y-136386000D02*
X168108991Y-134645409D01*
X165593400Y-136386000D02*
X166368400Y-136386000D01*
X195110101Y-112991899D02*
X195453000Y-112649000D01*
X186845288Y-113665000D02*
X194437000Y-113665000D01*
X185496233Y-115014055D02*
X186845288Y-113665000D01*
X181419500Y-123253500D02*
X185496233Y-119176767D01*
X194437000Y-113665000D02*
X195110101Y-112991899D01*
X172910500Y-138430000D02*
X181419500Y-129921000D01*
X185496233Y-119176767D02*
X185496233Y-115014055D01*
X181419500Y-129921000D02*
X181419500Y-123253500D01*
X167386000Y-138430000D02*
X172910500Y-138430000D01*
X166842000Y-137886000D02*
X167386000Y-138430000D01*
X165593400Y-137886000D02*
X166842000Y-137886000D01*
X158168400Y-128821096D02*
X157802652Y-128455348D01*
X158168400Y-129961000D02*
X158168400Y-128821096D01*
X184658000Y-118618000D02*
X176275979Y-127000021D01*
X184658000Y-114666852D02*
X184658000Y-118618000D01*
X187310852Y-112014000D02*
X184658000Y-114666852D01*
X192151000Y-112014000D02*
X187310852Y-112014000D01*
X176275979Y-127000021D02*
X171450000Y-127000021D01*
X84797900Y-131191000D02*
X83781900Y-131191000D01*
X83934300Y-131191000D02*
X83781900Y-131191000D01*
X84797900Y-131191000D02*
X84632800Y-131191000D01*
X78778700Y-128689100D02*
X80060800Y-128689100D01*
X80060800Y-128689100D02*
X80340200Y-128968500D01*
X80886300Y-131495800D02*
X81495900Y-131495800D01*
D34*
X81699100Y-131279900D02*
X81788000Y-131191000D01*
X81699100Y-131292600D02*
X81699100Y-131279900D01*
D32*
X81495900Y-131495800D02*
X81699100Y-131292600D01*
X81788000Y-131203700D02*
X81699100Y-131292600D01*
X143217900Y-131191000D02*
X81800700Y-131191000D01*
X81800700Y-131191000D02*
X81788000Y-131203700D01*
X143217900Y-131216400D02*
X143217900Y-131191000D01*
X144887500Y-132886000D02*
X143217900Y-131216400D01*
X154243400Y-132886000D02*
X144887500Y-132886000D01*
X78778700Y-132499100D02*
X79603600Y-132499100D01*
X151153300Y-133386000D02*
X154243400Y-133386000D01*
X150990300Y-133223000D02*
X151153300Y-133386000D01*
X142976600Y-131533900D02*
X144665700Y-133223000D01*
X81927700Y-131533900D02*
X142976600Y-131533900D01*
X144665700Y-133223000D02*
X150990300Y-133223000D01*
X80962500Y-132499100D02*
X81927700Y-131533900D01*
X78778700Y-132499100D02*
X80962500Y-132499100D01*
D34*
X154243400Y-132386000D02*
X152617100Y-132386000D01*
X152617100Y-132386000D02*
X152501600Y-132270500D01*
D30*
X154271400Y-137414000D02*
X154243400Y-137386000D01*
X156235400Y-137414000D02*
X154271400Y-137414000D01*
X147027900Y-146113500D02*
X146202400Y-146113500D01*
X153755400Y-139386000D02*
X147027900Y-146113500D01*
X154243400Y-139386000D02*
X153755400Y-139386000D01*
D34*
X154243400Y-131886000D02*
X153107700Y-131886000D01*
X151439908Y-132245100D02*
X151384000Y-132245100D01*
X152189208Y-131495800D02*
X151439908Y-132245100D01*
X152717500Y-131495800D02*
X152189208Y-131495800D01*
X153107700Y-131886000D02*
X152717500Y-131495800D01*
D32*
X157168400Y-141311000D02*
X157168400Y-136836600D01*
X157168400Y-136836600D02*
X160147000Y-133858000D01*
X160147000Y-133858000D02*
X160147000Y-132334000D01*
X160147000Y-132334000D02*
X160147000Y-131699000D01*
X181013101Y-97116899D02*
X181356000Y-96774000D01*
X169926000Y-127635000D02*
X169926000Y-108204000D01*
X169926000Y-108204000D02*
X181356000Y-96774000D01*
X158168400Y-140536000D02*
X157607000Y-139974600D01*
X160528000Y-132334000D02*
X160528000Y-132130803D01*
X160528000Y-132130803D02*
X160959803Y-131699000D01*
X160528000Y-134112000D02*
X160528000Y-132334000D01*
X157607000Y-137033000D02*
X160528000Y-134112000D01*
X157607000Y-139974600D02*
X157607000Y-137033000D01*
X158168400Y-141311000D02*
X158168400Y-140536000D01*
X168529000Y-101600000D02*
X167767000Y-100838000D01*
X168529000Y-128016000D02*
X168529000Y-101600000D01*
D34*
X74629701Y-130594100D02*
X73617200Y-130594100D01*
X155432700Y-133886000D02*
X155498800Y-133819900D01*
X154243400Y-133886000D02*
X155432700Y-133886000D01*
D35*
X156630800Y-132697768D02*
X156630800Y-133545032D01*
X75082400Y-130534100D02*
X154467132Y-130534100D01*
X75022400Y-130594100D02*
X75082400Y-130534100D01*
X74629701Y-130594100D02*
X75022400Y-130594100D01*
X154467132Y-130534100D02*
X156630800Y-132697768D01*
X156630800Y-133545032D02*
X156303432Y-133872400D01*
X156250932Y-133819900D02*
X156303432Y-133872400D01*
X155498800Y-133819900D02*
X156250932Y-133819900D01*
D34*
X74629701Y-129944100D02*
X73617200Y-129944100D01*
X155429900Y-134386000D02*
X155498800Y-134454900D01*
X154243400Y-134386000D02*
X155429900Y-134386000D01*
X74629701Y-129944100D02*
X74635600Y-129944100D01*
D35*
X75022400Y-129944100D02*
X75082400Y-130004100D01*
X156510268Y-134415100D02*
X156248100Y-134415100D01*
X157160800Y-133764568D02*
X156510268Y-134415100D01*
X157160800Y-132478232D02*
X157160800Y-133764568D01*
X75082400Y-130004100D02*
X154686668Y-130004100D01*
X154686668Y-130004100D02*
X157160800Y-132478232D01*
X74635600Y-129944100D02*
X75022400Y-129944100D01*
X156208300Y-134454900D02*
X156248100Y-134415100D01*
X155498800Y-134454900D02*
X156208300Y-134454900D01*
D30*
X230213500Y-89725500D02*
X230213500Y-89382000D01*
X231648000Y-87947500D02*
X231648000Y-86296500D01*
X230213500Y-89382000D02*
X231648000Y-87947500D01*
X77939900Y-117457292D02*
X77871885Y-117374415D01*
X77775194Y-117295063D01*
X77664880Y-117236098D01*
X77545182Y-117199788D01*
X77420700Y-117187528D01*
X77176450Y-117190600D01*
X77017700Y-117349350D01*
X77017700Y-118023600D01*
X77037700Y-118023600D01*
X77037700Y-118137528D01*
X76360700Y-118137528D01*
X76236218Y-118149788D01*
X76116520Y-118186098D01*
X76006206Y-118245063D01*
X75966559Y-118277600D01*
X75884450Y-118277600D01*
X75725700Y-118436350D01*
X75722628Y-118475600D01*
X75734888Y-118600082D01*
X75742629Y-118625600D01*
X75734888Y-118651118D01*
X75722628Y-118775600D01*
X75722628Y-119425600D01*
X75734888Y-119550082D01*
X75742629Y-119575600D01*
X75734888Y-119601118D01*
X75722628Y-119725600D01*
X75725700Y-119764850D01*
X75884450Y-119923600D01*
X75966559Y-119923600D01*
X76006206Y-119956137D01*
X76116520Y-120015102D01*
X76236218Y-120051412D01*
X76360700Y-120063672D01*
X77037700Y-120063672D01*
X77037700Y-120177600D01*
X77017700Y-120177600D01*
X77017700Y-120851850D01*
X77176450Y-121010600D01*
X77420700Y-121013672D01*
X77545182Y-121001412D01*
X77664880Y-120965102D01*
X77775194Y-120906137D01*
X77871885Y-120826785D01*
X77939900Y-120743908D01*
X77939900Y-122845422D01*
X77915702Y-122847622D01*
X77891248Y-122852295D01*
X77868176Y-122861649D01*
X77847372Y-122875325D01*
X77829636Y-122892797D01*
X77815649Y-122913393D01*
X77805949Y-122936322D01*
X77800909Y-122960702D01*
X77800200Y-122974100D01*
X77800200Y-122979850D01*
X77775982Y-123004068D01*
X77707706Y-123040563D01*
X77614200Y-123117301D01*
X77614200Y-123044850D01*
X77455450Y-122886100D01*
X77343588Y-122899399D01*
X77225060Y-122939363D01*
X77116606Y-123001681D01*
X77022393Y-123083961D01*
X76946043Y-123183040D01*
X76890489Y-123295110D01*
X76857866Y-123415865D01*
X76852200Y-123489350D01*
X77010950Y-123648100D01*
X77122838Y-123648100D01*
X77116606Y-123651681D01*
X77022393Y-123733961D01*
X76946043Y-123833040D01*
X76920518Y-123884532D01*
X76852200Y-123952850D01*
X76857866Y-124026335D01*
X76863206Y-124046100D01*
X76857866Y-124065865D01*
X76852200Y-124139350D01*
X76920518Y-124207668D01*
X76946043Y-124259160D01*
X77022393Y-124358239D01*
X77037119Y-124371100D01*
X77022393Y-124383961D01*
X76946043Y-124483040D01*
X76920518Y-124534532D01*
X76852200Y-124602850D01*
X76857866Y-124676335D01*
X76863206Y-124696100D01*
X76857866Y-124715865D01*
X76852200Y-124789350D01*
X76920518Y-124857668D01*
X76946043Y-124909160D01*
X77022393Y-125008239D01*
X77116606Y-125090519D01*
X77122838Y-125094100D01*
X77010950Y-125094100D01*
X76852200Y-125252850D01*
X76857866Y-125326335D01*
X76890489Y-125447090D01*
X76946043Y-125559160D01*
X77022393Y-125658239D01*
X77116606Y-125740519D01*
X77225060Y-125802837D01*
X77343588Y-125842801D01*
X77455450Y-125856100D01*
X77614200Y-125697350D01*
X77614200Y-125624899D01*
X77707706Y-125701637D01*
X77775982Y-125738132D01*
X77800200Y-125762350D01*
X77800200Y-127803350D01*
X77710700Y-127892850D01*
X77710700Y-128562100D01*
X77730700Y-128562100D01*
X77730700Y-128816100D01*
X77710700Y-128816100D01*
X77710700Y-128836100D01*
X77456700Y-128836100D01*
X77456700Y-128816100D01*
X76749950Y-128816100D01*
X76591200Y-128974850D01*
X76588128Y-129009100D01*
X76600388Y-129133582D01*
X76621779Y-129204100D01*
X75335040Y-129204100D01*
X75330028Y-129201421D01*
X75179227Y-129155676D01*
X75061693Y-129144100D01*
X75061691Y-129144100D01*
X75022400Y-129140230D01*
X74983109Y-129144100D01*
X74906799Y-129144100D01*
X75011371Y-129016679D01*
X75119085Y-128815160D01*
X75185415Y-128596500D01*
X75207812Y-128369100D01*
X76588128Y-128369100D01*
X76591200Y-128403350D01*
X76749950Y-128562100D01*
X77456700Y-128562100D01*
X77456700Y-127892850D01*
X77297950Y-127734100D01*
X77226200Y-127731028D01*
X77101718Y-127743288D01*
X76982020Y-127779598D01*
X76871706Y-127838563D01*
X76775015Y-127917915D01*
X76695663Y-128014606D01*
X76636698Y-128124920D01*
X76600388Y-128244618D01*
X76588128Y-128369100D01*
X75207812Y-128369100D01*
X75185415Y-128141700D01*
X75119085Y-127923040D01*
X75011371Y-127721521D01*
X74866412Y-127544888D01*
X74689779Y-127399929D01*
X74488260Y-127292215D01*
X74269600Y-127225885D01*
X74099179Y-127209100D01*
X73785221Y-127209100D01*
X73614800Y-127225885D01*
X73396140Y-127292215D01*
X73194621Y-127399929D01*
X73017988Y-127544888D01*
X72873029Y-127721521D01*
X72765315Y-127923040D01*
X72698985Y-128141700D01*
X72676588Y-128369100D01*
X72690420Y-128509539D01*
X72596236Y-128557961D01*
X72562423Y-128584817D01*
X72466200Y-128565677D01*
X72466200Y-127567282D01*
X72481702Y-127538280D01*
X72518012Y-127418582D01*
X72530272Y-127294100D01*
X72530272Y-126443661D01*
X72532691Y-126419100D01*
X72510777Y-126196601D01*
X72466200Y-126049652D01*
X72466200Y-120375600D01*
X75722628Y-120375600D01*
X75734888Y-120500082D01*
X75771198Y-120619780D01*
X75830163Y-120730094D01*
X75909515Y-120826785D01*
X76006206Y-120906137D01*
X76116520Y-120965102D01*
X76236218Y-121001412D01*
X76360700Y-121013672D01*
X76604950Y-121010600D01*
X76763700Y-120851850D01*
X76763700Y-120177600D01*
X75884450Y-120177600D01*
X75725700Y-120336350D01*
X75722628Y-120375600D01*
X72466200Y-120375600D01*
X72466200Y-117825600D01*
X75722628Y-117825600D01*
X75725700Y-117864850D01*
X75884450Y-118023600D01*
X76763700Y-118023600D01*
X76763700Y-117349350D01*
X76604950Y-117190600D01*
X76360700Y-117187528D01*
X76236218Y-117199788D01*
X76116520Y-117236098D01*
X76006206Y-117295063D01*
X75909515Y-117374415D01*
X75830163Y-117471106D01*
X75771198Y-117581420D01*
X75734888Y-117701118D01*
X75722628Y-117825600D01*
X72466200Y-117825600D01*
X72466200Y-116623819D01*
X77939900Y-116611682D01*
X77939900Y-117457292D01*
G04 #@! TA.AperFunction,Conductor*
D36*
G36*
X77939900Y-117457292D02*
G01*
X77871885Y-117374415D01*
X77775194Y-117295063D01*
X77664880Y-117236098D01*
X77545182Y-117199788D01*
X77420700Y-117187528D01*
X77176450Y-117190600D01*
X77017700Y-117349350D01*
X77017700Y-118023600D01*
X77037700Y-118023600D01*
X77037700Y-118137528D01*
X76360700Y-118137528D01*
X76236218Y-118149788D01*
X76116520Y-118186098D01*
X76006206Y-118245063D01*
X75966559Y-118277600D01*
X75884450Y-118277600D01*
X75725700Y-118436350D01*
X75722628Y-118475600D01*
X75734888Y-118600082D01*
X75742629Y-118625600D01*
X75734888Y-118651118D01*
X75722628Y-118775600D01*
X75722628Y-119425600D01*
X75734888Y-119550082D01*
X75742629Y-119575600D01*
X75734888Y-119601118D01*
X75722628Y-119725600D01*
X75725700Y-119764850D01*
X75884450Y-119923600D01*
X75966559Y-119923600D01*
X76006206Y-119956137D01*
X76116520Y-120015102D01*
X76236218Y-120051412D01*
X76360700Y-120063672D01*
X77037700Y-120063672D01*
X77037700Y-120177600D01*
X77017700Y-120177600D01*
X77017700Y-120851850D01*
X77176450Y-121010600D01*
X77420700Y-121013672D01*
X77545182Y-121001412D01*
X77664880Y-120965102D01*
X77775194Y-120906137D01*
X77871885Y-120826785D01*
X77939900Y-120743908D01*
X77939900Y-122845422D01*
X77915702Y-122847622D01*
X77891248Y-122852295D01*
X77868176Y-122861649D01*
X77847372Y-122875325D01*
X77829636Y-122892797D01*
X77815649Y-122913393D01*
X77805949Y-122936322D01*
X77800909Y-122960702D01*
X77800200Y-122974100D01*
X77800200Y-122979850D01*
X77775982Y-123004068D01*
X77707706Y-123040563D01*
X77614200Y-123117301D01*
X77614200Y-123044850D01*
X77455450Y-122886100D01*
X77343588Y-122899399D01*
X77225060Y-122939363D01*
X77116606Y-123001681D01*
X77022393Y-123083961D01*
X76946043Y-123183040D01*
X76890489Y-123295110D01*
X76857866Y-123415865D01*
X76852200Y-123489350D01*
X77010950Y-123648100D01*
X77122838Y-123648100D01*
X77116606Y-123651681D01*
X77022393Y-123733961D01*
X76946043Y-123833040D01*
X76920518Y-123884532D01*
X76852200Y-123952850D01*
X76857866Y-124026335D01*
X76863206Y-124046100D01*
X76857866Y-124065865D01*
X76852200Y-124139350D01*
X76920518Y-124207668D01*
X76946043Y-124259160D01*
X77022393Y-124358239D01*
X77037119Y-124371100D01*
X77022393Y-124383961D01*
X76946043Y-124483040D01*
X76920518Y-124534532D01*
X76852200Y-124602850D01*
X76857866Y-124676335D01*
X76863206Y-124696100D01*
X76857866Y-124715865D01*
X76852200Y-124789350D01*
X76920518Y-124857668D01*
X76946043Y-124909160D01*
X77022393Y-125008239D01*
X77116606Y-125090519D01*
X77122838Y-125094100D01*
X77010950Y-125094100D01*
X76852200Y-125252850D01*
X76857866Y-125326335D01*
X76890489Y-125447090D01*
X76946043Y-125559160D01*
X77022393Y-125658239D01*
X77116606Y-125740519D01*
X77225060Y-125802837D01*
X77343588Y-125842801D01*
X77455450Y-125856100D01*
X77614200Y-125697350D01*
X77614200Y-125624899D01*
X77707706Y-125701637D01*
X77775982Y-125738132D01*
X77800200Y-125762350D01*
X77800200Y-127803350D01*
X77710700Y-127892850D01*
X77710700Y-128562100D01*
X77730700Y-128562100D01*
X77730700Y-128816100D01*
X77710700Y-128816100D01*
X77710700Y-128836100D01*
X77456700Y-128836100D01*
X77456700Y-128816100D01*
X76749950Y-128816100D01*
X76591200Y-128974850D01*
X76588128Y-129009100D01*
X76600388Y-129133582D01*
X76621779Y-129204100D01*
X75335040Y-129204100D01*
X75330028Y-129201421D01*
X75179227Y-129155676D01*
X75061693Y-129144100D01*
X75061691Y-129144100D01*
X75022400Y-129140230D01*
X74983109Y-129144100D01*
X74906799Y-129144100D01*
X75011371Y-129016679D01*
X75119085Y-128815160D01*
X75185415Y-128596500D01*
X75207812Y-128369100D01*
X76588128Y-128369100D01*
X76591200Y-128403350D01*
X76749950Y-128562100D01*
X77456700Y-128562100D01*
X77456700Y-127892850D01*
X77297950Y-127734100D01*
X77226200Y-127731028D01*
X77101718Y-127743288D01*
X76982020Y-127779598D01*
X76871706Y-127838563D01*
X76775015Y-127917915D01*
X76695663Y-128014606D01*
X76636698Y-128124920D01*
X76600388Y-128244618D01*
X76588128Y-128369100D01*
X75207812Y-128369100D01*
X75185415Y-128141700D01*
X75119085Y-127923040D01*
X75011371Y-127721521D01*
X74866412Y-127544888D01*
X74689779Y-127399929D01*
X74488260Y-127292215D01*
X74269600Y-127225885D01*
X74099179Y-127209100D01*
X73785221Y-127209100D01*
X73614800Y-127225885D01*
X73396140Y-127292215D01*
X73194621Y-127399929D01*
X73017988Y-127544888D01*
X72873029Y-127721521D01*
X72765315Y-127923040D01*
X72698985Y-128141700D01*
X72676588Y-128369100D01*
X72690420Y-128509539D01*
X72596236Y-128557961D01*
X72562423Y-128584817D01*
X72466200Y-128565677D01*
X72466200Y-127567282D01*
X72481702Y-127538280D01*
X72518012Y-127418582D01*
X72530272Y-127294100D01*
X72530272Y-126443661D01*
X72532691Y-126419100D01*
X72510777Y-126196601D01*
X72466200Y-126049652D01*
X72466200Y-120375600D01*
X75722628Y-120375600D01*
X75734888Y-120500082D01*
X75771198Y-120619780D01*
X75830163Y-120730094D01*
X75909515Y-120826785D01*
X76006206Y-120906137D01*
X76116520Y-120965102D01*
X76236218Y-121001412D01*
X76360700Y-121013672D01*
X76604950Y-121010600D01*
X76763700Y-120851850D01*
X76763700Y-120177600D01*
X75884450Y-120177600D01*
X75725700Y-120336350D01*
X75722628Y-120375600D01*
X72466200Y-120375600D01*
X72466200Y-117825600D01*
X75722628Y-117825600D01*
X75725700Y-117864850D01*
X75884450Y-118023600D01*
X76763700Y-118023600D01*
X76763700Y-117349350D01*
X76604950Y-117190600D01*
X76360700Y-117187528D01*
X76236218Y-117199788D01*
X76116520Y-117236098D01*
X76006206Y-117295063D01*
X75909515Y-117374415D01*
X75830163Y-117471106D01*
X75771198Y-117581420D01*
X75734888Y-117701118D01*
X75722628Y-117825600D01*
X72466200Y-117825600D01*
X72466200Y-116623819D01*
X77939900Y-116611682D01*
X77939900Y-117457292D01*
G37*
G04 #@! TD.AperFunction*
D30*
X81356200Y-121577100D02*
X78752700Y-121577100D01*
X78752700Y-121011257D01*
X78804950Y-121010600D01*
X78963700Y-120851850D01*
X78963700Y-120177600D01*
X79217700Y-120177600D01*
X79217700Y-120851850D01*
X79376450Y-121010600D01*
X79620700Y-121013672D01*
X79745182Y-121001412D01*
X79864880Y-120965102D01*
X79975194Y-120906137D01*
X80071885Y-120826785D01*
X80151237Y-120730094D01*
X80210202Y-120619780D01*
X80246512Y-120500082D01*
X80258772Y-120375600D01*
X80255700Y-120336350D01*
X80096950Y-120177600D01*
X79217700Y-120177600D01*
X78963700Y-120177600D01*
X78943700Y-120177600D01*
X78943700Y-119923600D01*
X78963700Y-119923600D01*
X78963700Y-119903600D01*
X79217700Y-119903600D01*
X79217700Y-119923600D01*
X80096950Y-119923600D01*
X80255700Y-119764850D01*
X80258772Y-119725600D01*
X80246512Y-119601118D01*
X80210202Y-119481420D01*
X80151237Y-119371106D01*
X80071885Y-119274415D01*
X79975194Y-119195063D01*
X79917267Y-119164100D01*
X81356200Y-119164100D01*
X81356200Y-121577100D01*
G04 #@! TA.AperFunction,Conductor*
D36*
G36*
X81356200Y-121577100D02*
G01*
X78752700Y-121577100D01*
X78752700Y-121011257D01*
X78804950Y-121010600D01*
X78963700Y-120851850D01*
X78963700Y-120177600D01*
X79217700Y-120177600D01*
X79217700Y-120851850D01*
X79376450Y-121010600D01*
X79620700Y-121013672D01*
X79745182Y-121001412D01*
X79864880Y-120965102D01*
X79975194Y-120906137D01*
X80071885Y-120826785D01*
X80151237Y-120730094D01*
X80210202Y-120619780D01*
X80246512Y-120500082D01*
X80258772Y-120375600D01*
X80255700Y-120336350D01*
X80096950Y-120177600D01*
X79217700Y-120177600D01*
X78963700Y-120177600D01*
X78943700Y-120177600D01*
X78943700Y-119923600D01*
X78963700Y-119923600D01*
X78963700Y-119903600D01*
X79217700Y-119903600D01*
X79217700Y-119923600D01*
X80096950Y-119923600D01*
X80255700Y-119764850D01*
X80258772Y-119725600D01*
X80246512Y-119601118D01*
X80210202Y-119481420D01*
X80151237Y-119371106D01*
X80071885Y-119274415D01*
X79975194Y-119195063D01*
X79917267Y-119164100D01*
X81356200Y-119164100D01*
X81356200Y-121577100D01*
G37*
G04 #@! TD.AperFunction*
D30*
X78320900Y-111633000D02*
X76781936Y-111633000D01*
X76803702Y-111592280D01*
X76840012Y-111472582D01*
X76852272Y-111348100D01*
X76849200Y-111058850D01*
X76690450Y-110900100D01*
X75641200Y-110900100D01*
X75641200Y-110920100D01*
X75387200Y-110920100D01*
X75387200Y-110900100D01*
X74337950Y-110900100D01*
X74179200Y-111058850D01*
X74176128Y-111348100D01*
X74188388Y-111472582D01*
X74224698Y-111592280D01*
X74246464Y-111633000D01*
X74002900Y-111633000D01*
X74002900Y-110198100D01*
X74176128Y-110198100D01*
X74179200Y-110487350D01*
X74337950Y-110646100D01*
X75387200Y-110646100D01*
X75387200Y-109721850D01*
X75641200Y-109721850D01*
X75641200Y-110646100D01*
X76690450Y-110646100D01*
X76849200Y-110487350D01*
X76852272Y-110198100D01*
X76840012Y-110073618D01*
X76803702Y-109953920D01*
X76744737Y-109843606D01*
X76665385Y-109746915D01*
X76568694Y-109667563D01*
X76458380Y-109608598D01*
X76338682Y-109572288D01*
X76214200Y-109560028D01*
X75799950Y-109563100D01*
X75641200Y-109721850D01*
X75387200Y-109721850D01*
X75228450Y-109563100D01*
X74814200Y-109560028D01*
X74689718Y-109572288D01*
X74570020Y-109608598D01*
X74459706Y-109667563D01*
X74363015Y-109746915D01*
X74283663Y-109843606D01*
X74224698Y-109953920D01*
X74188388Y-110073618D01*
X74176128Y-110198100D01*
X74002900Y-110198100D01*
X74002900Y-109072093D01*
X74673312Y-109072093D01*
X74738837Y-109310960D01*
X74985816Y-109426860D01*
X75250660Y-109492350D01*
X75523192Y-109504912D01*
X75792938Y-109464065D01*
X76049532Y-109371377D01*
X76162563Y-109310960D01*
X76228088Y-109072093D01*
X75450700Y-108294705D01*
X74673312Y-109072093D01*
X74002900Y-109072093D01*
X74002900Y-108187592D01*
X74060888Y-108187592D01*
X74101735Y-108457338D01*
X74194423Y-108713932D01*
X74254840Y-108826963D01*
X74493707Y-108892488D01*
X75271095Y-108115100D01*
X75630305Y-108115100D01*
X76407693Y-108892488D01*
X76646560Y-108826963D01*
X76666524Y-108784420D01*
X76714690Y-108816604D01*
X76892657Y-108890320D01*
X77081585Y-108927900D01*
X77274215Y-108927900D01*
X77463143Y-108890320D01*
X77641110Y-108816604D01*
X77801275Y-108709585D01*
X77937485Y-108573375D01*
X78044504Y-108413210D01*
X78118220Y-108235243D01*
X78155800Y-108046315D01*
X78155800Y-107853685D01*
X78118220Y-107664757D01*
X78044504Y-107486790D01*
X77937485Y-107326625D01*
X77801275Y-107190415D01*
X77641110Y-107083396D01*
X77463143Y-107009680D01*
X77274215Y-106972100D01*
X77081585Y-106972100D01*
X76892657Y-107009680D01*
X76714690Y-107083396D01*
X76554525Y-107190415D01*
X76418315Y-107326625D01*
X76410409Y-107338457D01*
X76407693Y-107337712D01*
X75630305Y-108115100D01*
X75271095Y-108115100D01*
X74493707Y-107337712D01*
X74254840Y-107403237D01*
X74138940Y-107650216D01*
X74073450Y-107915060D01*
X74060888Y-108187592D01*
X74002900Y-108187592D01*
X74002900Y-107158107D01*
X74673312Y-107158107D01*
X75450700Y-107935495D01*
X76228088Y-107158107D01*
X76162563Y-106919240D01*
X75915584Y-106803340D01*
X75650740Y-106737850D01*
X75378208Y-106725288D01*
X75108462Y-106766135D01*
X74851868Y-106858823D01*
X74738837Y-106919240D01*
X74673312Y-107158107D01*
X74002900Y-107158107D01*
X74002900Y-105283000D01*
X78320900Y-105283000D01*
X78320900Y-111633000D01*
G04 #@! TA.AperFunction,Conductor*
D36*
G36*
X78320900Y-111633000D02*
G01*
X76781936Y-111633000D01*
X76803702Y-111592280D01*
X76840012Y-111472582D01*
X76852272Y-111348100D01*
X76849200Y-111058850D01*
X76690450Y-110900100D01*
X75641200Y-110900100D01*
X75641200Y-110920100D01*
X75387200Y-110920100D01*
X75387200Y-110900100D01*
X74337950Y-110900100D01*
X74179200Y-111058850D01*
X74176128Y-111348100D01*
X74188388Y-111472582D01*
X74224698Y-111592280D01*
X74246464Y-111633000D01*
X74002900Y-111633000D01*
X74002900Y-110198100D01*
X74176128Y-110198100D01*
X74179200Y-110487350D01*
X74337950Y-110646100D01*
X75387200Y-110646100D01*
X75387200Y-109721850D01*
X75641200Y-109721850D01*
X75641200Y-110646100D01*
X76690450Y-110646100D01*
X76849200Y-110487350D01*
X76852272Y-110198100D01*
X76840012Y-110073618D01*
X76803702Y-109953920D01*
X76744737Y-109843606D01*
X76665385Y-109746915D01*
X76568694Y-109667563D01*
X76458380Y-109608598D01*
X76338682Y-109572288D01*
X76214200Y-109560028D01*
X75799950Y-109563100D01*
X75641200Y-109721850D01*
X75387200Y-109721850D01*
X75228450Y-109563100D01*
X74814200Y-109560028D01*
X74689718Y-109572288D01*
X74570020Y-109608598D01*
X74459706Y-109667563D01*
X74363015Y-109746915D01*
X74283663Y-109843606D01*
X74224698Y-109953920D01*
X74188388Y-110073618D01*
X74176128Y-110198100D01*
X74002900Y-110198100D01*
X74002900Y-109072093D01*
X74673312Y-109072093D01*
X74738837Y-109310960D01*
X74985816Y-109426860D01*
X75250660Y-109492350D01*
X75523192Y-109504912D01*
X75792938Y-109464065D01*
X76049532Y-109371377D01*
X76162563Y-109310960D01*
X76228088Y-109072093D01*
X75450700Y-108294705D01*
X74673312Y-109072093D01*
X74002900Y-109072093D01*
X74002900Y-108187592D01*
X74060888Y-108187592D01*
X74101735Y-108457338D01*
X74194423Y-108713932D01*
X74254840Y-108826963D01*
X74493707Y-108892488D01*
X75271095Y-108115100D01*
X75630305Y-108115100D01*
X76407693Y-108892488D01*
X76646560Y-108826963D01*
X76666524Y-108784420D01*
X76714690Y-108816604D01*
X76892657Y-108890320D01*
X77081585Y-108927900D01*
X77274215Y-108927900D01*
X77463143Y-108890320D01*
X77641110Y-108816604D01*
X77801275Y-108709585D01*
X77937485Y-108573375D01*
X78044504Y-108413210D01*
X78118220Y-108235243D01*
X78155800Y-108046315D01*
X78155800Y-107853685D01*
X78118220Y-107664757D01*
X78044504Y-107486790D01*
X77937485Y-107326625D01*
X77801275Y-107190415D01*
X77641110Y-107083396D01*
X77463143Y-107009680D01*
X77274215Y-106972100D01*
X77081585Y-106972100D01*
X76892657Y-107009680D01*
X76714690Y-107083396D01*
X76554525Y-107190415D01*
X76418315Y-107326625D01*
X76410409Y-107338457D01*
X76407693Y-107337712D01*
X75630305Y-108115100D01*
X75271095Y-108115100D01*
X74493707Y-107337712D01*
X74254840Y-107403237D01*
X74138940Y-107650216D01*
X74073450Y-107915060D01*
X74060888Y-108187592D01*
X74002900Y-108187592D01*
X74002900Y-107158107D01*
X74673312Y-107158107D01*
X75450700Y-107935495D01*
X76228088Y-107158107D01*
X76162563Y-106919240D01*
X75915584Y-106803340D01*
X75650740Y-106737850D01*
X75378208Y-106725288D01*
X75108462Y-106766135D01*
X74851868Y-106858823D01*
X74738837Y-106919240D01*
X74673312Y-107158107D01*
X74002900Y-107158107D01*
X74002900Y-105283000D01*
X78320900Y-105283000D01*
X78320900Y-111633000D01*
G37*
G04 #@! TD.AperFunction*
M02*
