%FSLAX45Y45*%
G04 Gerber Fmt 4.5, Leading zero omitted, Abs format (unit mm)*
G04 Created by KiCad (PCBNEW (5.1.9)-1) date 2021-06-08 08:06:19*
%MOMM*%
%LPD*%
G01*
G04 APERTURE LIST*
%TA.AperFunction,Profile*%
%ADD10C,0.038100*%
%TD*%
%TA.AperFunction,Profile*%
%ADD11C,0.050000*%
%TD*%
%ADD12C,0.200000*%
%ADD13C,0.300000*%
G04 APERTURE END LIST*
D10*
X6949440Y-22678390D02*
G75*
G03*
X7203440Y-22932390I254000J0D01*
G01*
X24521160Y-22932390D02*
G75*
G03*
X24777700Y-22675850I0J256540D01*
G01*
X24777659Y-7613530D02*
G75*
G03*
X24521160Y-7364730I-253959J-5200D01*
G01*
X7206100Y-7367284D02*
G75*
G03*
X6949440Y-7621270I-2660J-253986D01*
G01*
D11*
X6949440Y-13436600D02*
X6949440Y-22678390D01*
D10*
X6949440Y-13436600D02*
X6949220Y-13434410D01*
D11*
X6949220Y-12684410D02*
X6949440Y-7621270D01*
X24521160Y-22932390D02*
X7203440Y-22932390D01*
X24777659Y-7613530D02*
X24777713Y-22675850D01*
X7206100Y-7367284D02*
X24521160Y-7364730D01*
D12*
X7174230Y-11502390D02*
X7207250Y-11535410D01*
X7207250Y-11502390D02*
X7174230Y-11535410D01*
X7218680Y-12937490D02*
X7251700Y-12970510D01*
X7251700Y-12937490D02*
X7218680Y-12970510D01*
X7218680Y-13045440D02*
X7251700Y-13078460D01*
X7251700Y-13045440D02*
X7218680Y-13078460D01*
X7218680Y-13147040D02*
X7251700Y-13180060D01*
X7251700Y-13147040D02*
X7218680Y-13180060D01*
X7701280Y-10626090D02*
X7734300Y-10659110D01*
X7734300Y-10626090D02*
X7701280Y-10659110D01*
X7701280Y-10778490D02*
X7734300Y-10811510D01*
X7734300Y-10778490D02*
X7701280Y-10811510D01*
X7701280Y-10956290D02*
X7734300Y-10989310D01*
X7734300Y-10956290D02*
X7701280Y-10989310D01*
X7802880Y-11896090D02*
X7835900Y-11929110D01*
X7835900Y-11896090D02*
X7802880Y-11929110D01*
X7903210Y-12115800D02*
X7936230Y-12148820D01*
X7936230Y-12115800D02*
X7903210Y-12148820D01*
X7984490Y-10626090D02*
X8017510Y-10659110D01*
X8017510Y-10626090D02*
X7984490Y-10659110D01*
X8017510Y-12880340D02*
X8050530Y-12913360D01*
X8050530Y-12880340D02*
X8017510Y-12913360D01*
X8030210Y-12357100D02*
X8063230Y-12390120D01*
X8063230Y-12357100D02*
X8030210Y-12390120D01*
X8030210Y-12484100D02*
X8063230Y-12517120D01*
X8063230Y-12484100D02*
X8030210Y-12517120D01*
X8037830Y-11419840D02*
X8070850Y-11452860D01*
X8070850Y-11419840D02*
X8037830Y-11452860D01*
X8055610Y-12103100D02*
X8088630Y-12136120D01*
X8088630Y-12103100D02*
X8055610Y-12136120D01*
X8068310Y-11963400D02*
X8101330Y-11996420D01*
X8101330Y-11963400D02*
X8068310Y-11996420D01*
X8072120Y-13133070D02*
X8105140Y-13166090D01*
X8105140Y-13133070D02*
X8072120Y-13166090D01*
X8081010Y-12420600D02*
X8114030Y-12453620D01*
X8114030Y-12420600D02*
X8081010Y-12453620D01*
X8187690Y-14778990D02*
X8220710Y-14812010D01*
X8220710Y-14778990D02*
X8187690Y-14812010D01*
X8251190Y-19046190D02*
X8284210Y-19079210D01*
X8284210Y-19046190D02*
X8251190Y-19079210D01*
X8677910Y-11760200D02*
X8710930Y-11793220D01*
X8710930Y-11760200D02*
X8677910Y-11793220D01*
X9063990Y-11057890D02*
X9097010Y-11090910D01*
X9097010Y-11057890D02*
X9063990Y-11090910D01*
X9178290Y-19414490D02*
X9211310Y-19447510D01*
X9211310Y-19414490D02*
X9178290Y-19447510D01*
X9251950Y-15256510D02*
X9284970Y-15289530D01*
X9284970Y-15256510D02*
X9251950Y-15289530D01*
X9902190Y-12785090D02*
X9935210Y-12818110D01*
X9935210Y-12785090D02*
X9902190Y-12818110D01*
X11095990Y-12772390D02*
X11129010Y-12805410D01*
X11129010Y-12772390D02*
X11095990Y-12805410D01*
X11502390Y-12175490D02*
X11535410Y-12208510D01*
X11535410Y-12175490D02*
X11502390Y-12208510D01*
X11508740Y-12035790D02*
X11541760Y-12068810D01*
X11541760Y-12035790D02*
X11508740Y-12068810D01*
X12095480Y-11395710D02*
X12128500Y-11428730D01*
X12128500Y-11395710D02*
X12095480Y-11428730D01*
X12230206Y-11658706D02*
X12263226Y-11691726D01*
X12263226Y-11658706D02*
X12230206Y-11691726D01*
X12395200Y-11471910D02*
X12428220Y-11504930D01*
X12428220Y-11471910D02*
X12395200Y-11504930D01*
X12934950Y-8359140D02*
X12967970Y-8392160D01*
X12967970Y-8359140D02*
X12934950Y-8392160D01*
X13039090Y-11489690D02*
X13072110Y-11522710D01*
X13072110Y-11489690D02*
X13039090Y-11522710D01*
X13064490Y-11210290D02*
X13097510Y-11243310D01*
X13097510Y-11210290D02*
X13064490Y-11243310D01*
X13206730Y-8890000D02*
X13239750Y-8923020D01*
X13239750Y-8890000D02*
X13206730Y-8923020D01*
X13229590Y-11007090D02*
X13262610Y-11040110D01*
X13262610Y-11007090D02*
X13229590Y-11040110D01*
X13369290Y-19414490D02*
X13402310Y-19447510D01*
X13402310Y-19414490D02*
X13369290Y-19447510D01*
X13381990Y-15223490D02*
X13415010Y-15256510D01*
X13415010Y-15223490D02*
X13381990Y-15256510D01*
X13468350Y-9293860D02*
X13501370Y-9326880D01*
X13501370Y-9293860D02*
X13468350Y-9326880D01*
X13473430Y-13343890D02*
X13506450Y-13376910D01*
X13506450Y-13343890D02*
X13473430Y-13376910D01*
X13473430Y-13661390D02*
X13506450Y-13694410D01*
X13506450Y-13661390D02*
X13473430Y-13694410D01*
X13478002Y-9955784D02*
X13511022Y-9988804D01*
X13511022Y-9955784D02*
X13478002Y-9988804D01*
X13717270Y-9296400D02*
X13750290Y-9329420D01*
X13750290Y-9296400D02*
X13717270Y-9329420D01*
X13983970Y-9306560D02*
X14016990Y-9339580D01*
X14016990Y-9306560D02*
X13983970Y-9339580D01*
X14240259Y-9306560D02*
X14273279Y-9339580D01*
X14273279Y-9306560D02*
X14240259Y-9339580D01*
X14372590Y-20913090D02*
X14405610Y-20946110D01*
X14405610Y-20913090D02*
X14372590Y-20946110D01*
X14489430Y-9304020D02*
X14522450Y-9337040D01*
X14522450Y-9304020D02*
X14489430Y-9337040D01*
X14728190Y-13176250D02*
X14761210Y-13209270D01*
X14761210Y-13176250D02*
X14728190Y-13209270D01*
X14738350Y-9296400D02*
X14771370Y-9329420D01*
X14771370Y-9296400D02*
X14738350Y-9329420D01*
X14825980Y-13369290D02*
X14859000Y-13402310D01*
X14859000Y-13369290D02*
X14825980Y-13402310D01*
X14825980Y-13483590D02*
X14859000Y-13516610D01*
X14859000Y-13483590D02*
X14825980Y-13516610D01*
X14984730Y-8892540D02*
X15017750Y-8925560D01*
X15017750Y-8892540D02*
X14984730Y-8925560D01*
X15032990Y-14410690D02*
X15066010Y-14443710D01*
X15066010Y-14410690D02*
X15032990Y-14443710D01*
X15032990Y-14537690D02*
X15066010Y-14570710D01*
X15066010Y-14537690D02*
X15032990Y-14570710D01*
X15043150Y-17484090D02*
X15076170Y-17517110D01*
X15076170Y-17484090D02*
X15043150Y-17517110D01*
X15111730Y-12763500D02*
X15144750Y-12796520D01*
X15144750Y-12763500D02*
X15111730Y-12796520D01*
X15121890Y-13208000D02*
X15154910Y-13241020D01*
X15154910Y-13208000D02*
X15121890Y-13241020D01*
X15213330Y-15739110D02*
X15246350Y-15772130D01*
X15246350Y-15739110D02*
X15213330Y-15772130D01*
X15233650Y-13210540D02*
X15266670Y-13243560D01*
X15266670Y-13210540D02*
X15233650Y-13243560D01*
X15237390Y-13472090D02*
X15270410Y-13505110D01*
X15270410Y-13472090D02*
X15237390Y-13505110D01*
X15243810Y-13693140D02*
X15276830Y-13726160D01*
X15276830Y-13693140D02*
X15243810Y-13726160D01*
X15248890Y-17198340D02*
X15281910Y-17231360D01*
X15281910Y-17198340D02*
X15248890Y-17231360D01*
X15253135Y-17498495D02*
X15286155Y-17531515D01*
X15286155Y-17498495D02*
X15253135Y-17531515D01*
X15259050Y-8359140D02*
X15292070Y-8392160D01*
X15292070Y-8359140D02*
X15259050Y-8392160D01*
X15267940Y-17325340D02*
X15300960Y-17358360D01*
X15300960Y-17325340D02*
X15267940Y-17358360D01*
X15466060Y-12353290D02*
X15499080Y-12386310D01*
X15499080Y-12353290D02*
X15466060Y-12386310D01*
X15556230Y-17959070D02*
X15589250Y-17992090D01*
X15589250Y-17959070D02*
X15556230Y-17992090D01*
X15574010Y-13582650D02*
X15607030Y-13615670D01*
X15607030Y-13582650D02*
X15574010Y-13615670D01*
X15593060Y-12353290D02*
X15626080Y-12386310D01*
X15626080Y-12353290D02*
X15593060Y-12386310D01*
X15607030Y-13724890D02*
X15640050Y-13757910D01*
X15640050Y-13724890D02*
X15607030Y-13757910D01*
X15637510Y-16945610D02*
X15670530Y-16978630D01*
X15670530Y-16945610D02*
X15637510Y-16978630D01*
X15657830Y-16818610D02*
X15690850Y-16851630D01*
X15690850Y-16818610D02*
X15657830Y-16851630D01*
X15715615Y-12686665D02*
X15748635Y-12719685D01*
X15748635Y-12686665D02*
X15715615Y-12719685D01*
X15720060Y-12353290D02*
X15753080Y-12386310D01*
X15753080Y-12353290D02*
X15720060Y-12386310D01*
X15763755Y-12829025D02*
X15796775Y-12862045D01*
X15796775Y-12829025D02*
X15763755Y-12862045D01*
X15807690Y-13127990D02*
X15840710Y-13161010D01*
X15840710Y-13127990D02*
X15807690Y-13161010D01*
X15830550Y-13980160D02*
X15863570Y-14013180D01*
X15863570Y-13980160D02*
X15830550Y-14013180D01*
X15835630Y-14791690D02*
X15868650Y-14824710D01*
X15868650Y-14791690D02*
X15835630Y-14824710D01*
X15863570Y-18063210D02*
X15896590Y-18096230D01*
X15896590Y-18063210D02*
X15863570Y-18096230D01*
X15886430Y-15736570D02*
X15919450Y-15769590D01*
X15919450Y-15736570D02*
X15886430Y-15769590D01*
X15887700Y-12231370D02*
X15920720Y-12264390D01*
X15920720Y-12231370D02*
X15887700Y-12264390D01*
X15899130Y-13125450D02*
X15932150Y-13158470D01*
X15932150Y-13125450D02*
X15899130Y-13158470D01*
X15900330Y-14348390D02*
X15933350Y-14381410D01*
X15933350Y-14348390D02*
X15900330Y-14381410D01*
X15900330Y-14480470D02*
X15933350Y-14513490D01*
X15933350Y-14480470D02*
X15900330Y-14513490D01*
X15924530Y-13724890D02*
X15957550Y-13757910D01*
X15957550Y-13724890D02*
X15924530Y-13757910D01*
X15928340Y-12628882D02*
X15961360Y-12661902D01*
X15961360Y-12628882D02*
X15928340Y-12661902D01*
X15930508Y-13971897D02*
X15963528Y-14004917D01*
X15963528Y-13971897D02*
X15930508Y-14004917D01*
X15962630Y-14785340D02*
X15995650Y-14818360D01*
X15995650Y-14785340D02*
X15962630Y-14818360D01*
X15998190Y-13153390D02*
X16031210Y-13186410D01*
X16031210Y-13153390D02*
X15998190Y-13186410D01*
X16023590Y-13909040D02*
X16056610Y-13942060D01*
X16056610Y-13909040D02*
X16023590Y-13942060D01*
X16038830Y-19178270D02*
X16071850Y-19211290D01*
X16071850Y-19178270D02*
X16038830Y-19211290D01*
X16041370Y-19889470D02*
X16074390Y-19922490D01*
X16074390Y-19889470D02*
X16041370Y-19922490D01*
X16043910Y-18911570D02*
X16076930Y-18944590D01*
X16076930Y-18911570D02*
X16043910Y-18944590D01*
X16048990Y-19739610D02*
X16082010Y-19772630D01*
X16082010Y-19739610D02*
X16048990Y-19772630D01*
X16079470Y-13153390D02*
X16112490Y-13186410D01*
X16112490Y-13153390D02*
X16079470Y-13186410D01*
X16099790Y-13813790D02*
X16132810Y-13846810D01*
X16132810Y-13813790D02*
X16099790Y-13846810D01*
X16120110Y-18068290D02*
X16153130Y-18101310D01*
X16153130Y-18068290D02*
X16120110Y-18101310D01*
X16140430Y-14786610D02*
X16173450Y-14819630D01*
X16173450Y-14786610D02*
X16140430Y-14819630D01*
X16179801Y-16056610D02*
X16212821Y-16089630D01*
X16212821Y-16056610D02*
X16179801Y-16089630D01*
X16211550Y-16191230D02*
X16244570Y-16224250D01*
X16244570Y-16191230D02*
X16211550Y-16224250D01*
X16221710Y-16318230D02*
X16254730Y-16351250D01*
X16254730Y-16318230D02*
X16221710Y-16351250D01*
X16252190Y-14474190D02*
X16285210Y-14507210D01*
X16285210Y-14474190D02*
X16252190Y-14507210D01*
X16267430Y-14786610D02*
X16300450Y-14819630D01*
X16300450Y-14786610D02*
X16267430Y-14819630D01*
X16394430Y-13719810D02*
X16427450Y-13752830D01*
X16427450Y-13719810D02*
X16394430Y-13752830D01*
X16407130Y-14789150D02*
X16440150Y-14822170D01*
X16440150Y-14789150D02*
X16407130Y-14822170D01*
X16437610Y-17961610D02*
X16470630Y-17994630D01*
X16470630Y-17961610D02*
X16437610Y-17994630D01*
X16476980Y-9523730D02*
X16510000Y-9556750D01*
X16510000Y-9523730D02*
X16476980Y-9556750D01*
X16548101Y-14789150D02*
X16581121Y-14822170D01*
X16581121Y-14789150D02*
X16548101Y-14822170D01*
X16550640Y-12962890D02*
X16583660Y-12995910D01*
X16583660Y-12962890D02*
X16550640Y-12995910D01*
X16605250Y-12886690D02*
X16638270Y-12919710D01*
X16638270Y-12886690D02*
X16605250Y-12919710D01*
X16680180Y-9069070D02*
X16713200Y-9102090D01*
X16713200Y-9069070D02*
X16680180Y-9102090D01*
X16711930Y-13661390D02*
X16744950Y-13694410D01*
X16744950Y-13661390D02*
X16711930Y-13694410D01*
X16715740Y-13127990D02*
X16748760Y-13161010D01*
X16748760Y-13127990D02*
X16715740Y-13161010D01*
X16741140Y-13286740D02*
X16774160Y-13319760D01*
X16774160Y-13286740D02*
X16741140Y-13319760D01*
X16756380Y-9376410D02*
X16789400Y-9409430D01*
X16789400Y-9376410D02*
X16756380Y-9409430D01*
X16760190Y-10067290D02*
X16793210Y-10100310D01*
X16793210Y-10067290D02*
X16760190Y-10100310D01*
X16814800Y-9066530D02*
X16847820Y-9099550D01*
X16847820Y-9066530D02*
X16814800Y-9099550D01*
X16823690Y-13362940D02*
X16856710Y-13395960D01*
X16856710Y-13362940D02*
X16823690Y-13395960D01*
X16836390Y-12785090D02*
X16869410Y-12818110D01*
X16869410Y-12785090D02*
X16836390Y-12818110D01*
X16841470Y-12896850D02*
X16874490Y-12929870D01*
X16874490Y-12896850D02*
X16841470Y-12929870D01*
X16925290Y-9493250D02*
X16958310Y-9526270D01*
X16958310Y-9493250D02*
X16925290Y-9526270D01*
X16931640Y-9401810D02*
X16964660Y-9434830D01*
X16964660Y-9401810D02*
X16931640Y-9434830D01*
X16976090Y-12746990D02*
X17009110Y-12780010D01*
X17009110Y-12746990D02*
X16976090Y-12780010D01*
X17051774Y-13724374D02*
X17084794Y-13757394D01*
X17084794Y-13724374D02*
X17051774Y-13757394D01*
X17052290Y-13597890D02*
X17085310Y-13630910D01*
X17085310Y-13597890D02*
X17052290Y-13630910D01*
X17128490Y-12683492D02*
X17161510Y-12716512D01*
X17161510Y-12683492D02*
X17128490Y-12716512D01*
X17223740Y-9396730D02*
X17256760Y-9429750D01*
X17256760Y-9396730D02*
X17223740Y-9429750D01*
X17234930Y-9526030D02*
X17267950Y-9559050D01*
X17267950Y-9526030D02*
X17234930Y-9559050D01*
X17265650Y-13049250D02*
X17298670Y-13082270D01*
X17298670Y-13049250D02*
X17265650Y-13082270D01*
X17265650Y-13356590D02*
X17298670Y-13389610D01*
X17298670Y-13356590D02*
X17265650Y-13389610D01*
X17357090Y-9768840D02*
X17390110Y-9801860D01*
X17390110Y-9768840D02*
X17357090Y-9801860D01*
X17383760Y-9466580D02*
X17416780Y-9499600D01*
X17416780Y-9466580D02*
X17383760Y-9499600D01*
X17553940Y-11045190D02*
X17586960Y-11078210D01*
X17586960Y-11045190D02*
X17553940Y-11078210D01*
X17572990Y-15223490D02*
X17606010Y-15256510D01*
X17606010Y-15223490D02*
X17572990Y-15256510D01*
X17572990Y-19414490D02*
X17606010Y-19447510D01*
X17606010Y-19414490D02*
X17572990Y-19447510D01*
X17815560Y-9500870D02*
X17848580Y-9533890D01*
X17848580Y-9500870D02*
X17815560Y-9533890D01*
X17955260Y-9010650D02*
X17988280Y-9043670D01*
X17988280Y-9010650D02*
X17955260Y-9043670D01*
X18094960Y-9010650D02*
X18127980Y-9043670D01*
X18127980Y-9010650D02*
X18094960Y-9043670D01*
X18094960Y-9351010D02*
X18127980Y-9384030D01*
X18127980Y-9351010D02*
X18094960Y-9384030D01*
X18119090Y-9660890D02*
X18152110Y-9693910D01*
X18152110Y-9660890D02*
X18119090Y-9693910D01*
X18247360Y-9377680D02*
X18280380Y-9410700D01*
X18280380Y-9377680D02*
X18247360Y-9410700D01*
X18261330Y-9475470D02*
X18294350Y-9508490D01*
X18294350Y-9475470D02*
X18261330Y-9508490D01*
X18552160Y-9500870D02*
X18585180Y-9533890D01*
X18585180Y-9500870D02*
X18552160Y-9533890D01*
X18652490Y-20913090D02*
X18685510Y-20946110D01*
X18685510Y-20913090D02*
X18652490Y-20946110D01*
X18765520Y-9168130D02*
X18798540Y-9201150D01*
X18798540Y-9168130D02*
X18765520Y-9201150D01*
X19198590Y-11184890D02*
X19231610Y-11217910D01*
X19231610Y-11184890D02*
X19198590Y-11217910D01*
X19198590Y-11266170D02*
X19231610Y-11299190D01*
X19231610Y-11266170D02*
X19198590Y-11299190D01*
X19223990Y-12575540D02*
X19257010Y-12608560D01*
X19257010Y-12575540D02*
X19223990Y-12608560D01*
X19281140Y-11629390D02*
X19314160Y-11662410D01*
X19314160Y-11629390D02*
X19281140Y-11662410D01*
X19363690Y-11261090D02*
X19396710Y-11294110D01*
X19396710Y-11261090D02*
X19363690Y-11294110D01*
X19528790Y-11248390D02*
X19561810Y-11281410D01*
X19561810Y-11248390D02*
X19528790Y-11281410D01*
X20085050Y-11271250D02*
X20118070Y-11304270D01*
X20118070Y-11271250D02*
X20085050Y-11304270D01*
X20128230Y-9248140D02*
X20161250Y-9281160D01*
X20161250Y-9248140D02*
X20128230Y-9281160D01*
X20161250Y-10953750D02*
X20194270Y-10986770D01*
X20194270Y-10953750D02*
X20161250Y-10986770D01*
X20212050Y-12693650D02*
X20245070Y-12726670D01*
X20245070Y-12693650D02*
X20212050Y-12726670D01*
X20434300Y-11315700D02*
X20467320Y-11348720D01*
X20467320Y-11315700D02*
X20434300Y-11348720D01*
X20593050Y-12439650D02*
X20626070Y-12472670D01*
X20626070Y-12439650D02*
X20593050Y-12472670D01*
X20662500Y-10833500D02*
X20695520Y-10866520D01*
X20695520Y-10833500D02*
X20662500Y-10866520D01*
X20720050Y-12858750D02*
X20753070Y-12891770D01*
X20753070Y-12858750D02*
X20720050Y-12891770D01*
X21101050Y-12604750D02*
X21134070Y-12637770D01*
X21134070Y-12604750D02*
X21101050Y-12637770D01*
X21189950Y-10953750D02*
X21222970Y-10986770D01*
X21222970Y-10953750D02*
X21189950Y-10986770D01*
X21228050Y-11817350D02*
X21261070Y-11850370D01*
X21261070Y-11817350D02*
X21228050Y-11850370D01*
X21694140Y-11032490D02*
X21727160Y-11065510D01*
X21727160Y-11032490D02*
X21694140Y-11065510D01*
X21751290Y-15236190D02*
X21784310Y-15269210D01*
X21784310Y-15236190D02*
X21751290Y-15269210D01*
X21751290Y-19439890D02*
X21784310Y-19472910D01*
X21784310Y-19439890D02*
X21751290Y-19472910D01*
X22449790Y-8956040D02*
X22482810Y-8989060D01*
X22482810Y-8956040D02*
X22449790Y-8989060D01*
X22538690Y-9057640D02*
X22571710Y-9090660D01*
X22571710Y-9057640D02*
X22538690Y-9090660D01*
X22677120Y-9229090D02*
X22710140Y-9262110D01*
X22710140Y-9229090D02*
X22677120Y-9262110D01*
X23567390Y-10651490D02*
X23600410Y-10684510D01*
X23600410Y-10651490D02*
X23567390Y-10684510D01*
X23580090Y-18931890D02*
X23613110Y-18964910D01*
X23613110Y-18931890D02*
X23580090Y-18964910D01*
X23592790Y-14791690D02*
X23625810Y-14824710D01*
X23625810Y-14791690D02*
X23592790Y-14824710D01*
X23757890Y-21954490D02*
X23790910Y-21987510D01*
X23790910Y-21954490D02*
X23757890Y-21987510D01*
X7168000Y-9765000D02*
G75*
G03*
X7168000Y-9765000I-25000J0D01*
G01*
X7168000Y-22573000D02*
G75*
G03*
X7168000Y-22573000I-25000J0D01*
G01*
X7233901Y-9605901D02*
G75*
G03*
X7233901Y-9605901I-25000J0D01*
G01*
X7233901Y-9924099D02*
G75*
G03*
X7233901Y-9924099I-25000J0D01*
G01*
X7233901Y-22413901D02*
G75*
G03*
X7233901Y-22413901I-25000J0D01*
G01*
X7233901Y-22732099D02*
G75*
G03*
X7233901Y-22732099I-25000J0D01*
G01*
X7393000Y-9540000D02*
G75*
G03*
X7393000Y-9540000I-25000J0D01*
G01*
X7393000Y-9990000D02*
G75*
G03*
X7393000Y-9990000I-25000J0D01*
G01*
X7393000Y-22348000D02*
G75*
G03*
X7393000Y-22348000I-25000J0D01*
G01*
X7393000Y-22798000D02*
G75*
G03*
X7393000Y-22798000I-25000J0D01*
G01*
X7552099Y-9605901D02*
G75*
G03*
X7552099Y-9605901I-25000J0D01*
G01*
X7552099Y-9924099D02*
G75*
G03*
X7552099Y-9924099I-25000J0D01*
G01*
X7552099Y-22413901D02*
G75*
G03*
X7552099Y-22413901I-25000J0D01*
G01*
X7552099Y-22732099D02*
G75*
G03*
X7552099Y-22732099I-25000J0D01*
G01*
X7618000Y-9765000D02*
G75*
G03*
X7618000Y-9765000I-25000J0D01*
G01*
X7618000Y-22573000D02*
G75*
G03*
X7618000Y-22573000I-25000J0D01*
G01*
X15673000Y-9765000D02*
G75*
G03*
X15673000Y-9765000I-25000J0D01*
G01*
X15673000Y-22573000D02*
G75*
G03*
X15673000Y-22573000I-25000J0D01*
G01*
X15738901Y-9605901D02*
G75*
G03*
X15738901Y-9605901I-25000J0D01*
G01*
X15738901Y-9924099D02*
G75*
G03*
X15738901Y-9924099I-25000J0D01*
G01*
X15738901Y-22413901D02*
G75*
G03*
X15738901Y-22413901I-25000J0D01*
G01*
X15738901Y-22732099D02*
G75*
G03*
X15738901Y-22732099I-25000J0D01*
G01*
X15898000Y-9540000D02*
G75*
G03*
X15898000Y-9540000I-25000J0D01*
G01*
X15898000Y-9990000D02*
G75*
G03*
X15898000Y-9990000I-25000J0D01*
G01*
X15898000Y-22348000D02*
G75*
G03*
X15898000Y-22348000I-25000J0D01*
G01*
X15898000Y-22798000D02*
G75*
G03*
X15898000Y-22798000I-25000J0D01*
G01*
X16057099Y-9605901D02*
G75*
G03*
X16057099Y-9605901I-25000J0D01*
G01*
X16057099Y-9924099D02*
G75*
G03*
X16057099Y-9924099I-25000J0D01*
G01*
X16057099Y-22413901D02*
G75*
G03*
X16057099Y-22413901I-25000J0D01*
G01*
X16057099Y-22732099D02*
G75*
G03*
X16057099Y-22732099I-25000J0D01*
G01*
X16123000Y-9765000D02*
G75*
G03*
X16123000Y-9765000I-25000J0D01*
G01*
X16123000Y-22573000D02*
G75*
G03*
X16123000Y-22573000I-25000J0D01*
G01*
X24178000Y-9765000D02*
G75*
G03*
X24178000Y-9765000I-25000J0D01*
G01*
X24178000Y-22573000D02*
G75*
G03*
X24178000Y-22573000I-25000J0D01*
G01*
X24243901Y-9605901D02*
G75*
G03*
X24243901Y-9605901I-25000J0D01*
G01*
X24243901Y-9924099D02*
G75*
G03*
X24243901Y-9924099I-25000J0D01*
G01*
X24243901Y-22413901D02*
G75*
G03*
X24243901Y-22413901I-25000J0D01*
G01*
X24243901Y-22732099D02*
G75*
G03*
X24243901Y-22732099I-25000J0D01*
G01*
X24403000Y-9540000D02*
G75*
G03*
X24403000Y-9540000I-25000J0D01*
G01*
X24403000Y-9990000D02*
G75*
G03*
X24403000Y-9990000I-25000J0D01*
G01*
X24403000Y-22348000D02*
G75*
G03*
X24403000Y-22348000I-25000J0D01*
G01*
X24403000Y-22798000D02*
G75*
G03*
X24403000Y-22798000I-25000J0D01*
G01*
X24562099Y-9605901D02*
G75*
G03*
X24562099Y-9605901I-25000J0D01*
G01*
X24562099Y-9924099D02*
G75*
G03*
X24562099Y-9924099I-25000J0D01*
G01*
X24562099Y-22413901D02*
G75*
G03*
X24562099Y-22413901I-25000J0D01*
G01*
X24562099Y-22732099D02*
G75*
G03*
X24562099Y-22732099I-25000J0D01*
G01*
X24628000Y-9765000D02*
G75*
G03*
X24628000Y-9765000I-25000J0D01*
G01*
X24628000Y-22573000D02*
G75*
G03*
X24628000Y-22573000I-25000J0D01*
G01*
X7094220Y-12611910D02*
X7094220Y-12671910D01*
X7064220Y-12641910D02*
X7124220Y-12641910D01*
X7059220Y-12661910D02*
X7129220Y-12661910D01*
X7059220Y-12621910D02*
X7129220Y-12621910D01*
X7129220Y-12661910D02*
G75*
G03*
X7129220Y-12621910I0J20000D01*
G01*
X7059220Y-12621910D02*
G75*
G03*
X7059220Y-12661910I0J-20000D01*
G01*
X7094220Y-13446910D02*
X7094220Y-13506910D01*
X7064220Y-13476910D02*
X7124220Y-13476910D01*
X7059220Y-13496910D02*
X7129220Y-13496910D01*
X7059220Y-13456910D02*
X7129220Y-13456910D01*
X7129220Y-13496910D02*
G75*
G03*
X7129220Y-13456910I0J20000D01*
G01*
X7059220Y-13456910D02*
G75*
G03*
X7059220Y-13496910I0J-20000D01*
G01*
X7417201Y-12859891D02*
X7417201Y-12813929D01*
X7371239Y-12813929D01*
X7371239Y-12859891D01*
X7417201Y-12859891D01*
X7384220Y-12859410D02*
X7404220Y-12859410D01*
X7384220Y-12814410D02*
X7404220Y-12814410D01*
X7404220Y-12859410D02*
G75*
G03*
X7404220Y-12814410I0J22500D01*
G01*
X7384220Y-12814410D02*
G75*
G03*
X7384220Y-12859410I0J-22500D01*
G01*
X7417201Y-13304891D02*
X7417201Y-13258929D01*
X7371239Y-13258929D01*
X7371239Y-13304891D01*
X7417201Y-13304891D01*
X7384220Y-13304410D02*
X7404220Y-13304410D01*
X7384220Y-13259410D02*
X7404220Y-13259410D01*
X7404220Y-13304410D02*
G75*
G03*
X7404220Y-13259410I0J22500D01*
G01*
X7384220Y-13259410D02*
G75*
G03*
X7384220Y-13304410I0J-22500D01*
G01*
X9445280Y-12014020D02*
X9490280Y-11969020D01*
X9445280Y-11924020D01*
X9400280Y-11969020D01*
X9445280Y-12014020D01*
X9445280Y-16214020D02*
X9490280Y-16169020D01*
X9445280Y-16124020D01*
X9400280Y-16169020D01*
X9445280Y-16214020D01*
X9445280Y-20414020D02*
X9490280Y-20369020D01*
X9445280Y-20324020D01*
X9400280Y-20369020D01*
X9445280Y-20414020D01*
X9699280Y-12014020D02*
X9744280Y-11969020D01*
X9699280Y-11924020D01*
X9654280Y-11969020D01*
X9699280Y-12014020D01*
X9699280Y-16214020D02*
X9744280Y-16169020D01*
X9699280Y-16124020D01*
X9654280Y-16169020D01*
X9699280Y-16214020D01*
X9699280Y-20414020D02*
X9744280Y-20369020D01*
X9699280Y-20324020D01*
X9654280Y-20369020D01*
X9699280Y-20414020D01*
X13645280Y-12014020D02*
X13690280Y-11969020D01*
X13645280Y-11924020D01*
X13600280Y-11969020D01*
X13645280Y-12014020D01*
X13645280Y-16214020D02*
X13690280Y-16169020D01*
X13645280Y-16124020D01*
X13600280Y-16169020D01*
X13645280Y-16214020D01*
X13645280Y-20414020D02*
X13690280Y-20369020D01*
X13645280Y-20324020D01*
X13600280Y-20369020D01*
X13645280Y-20414020D01*
X13899280Y-12014020D02*
X13944280Y-11969020D01*
X13899280Y-11924020D01*
X13854280Y-11969020D01*
X13899280Y-12014020D01*
X13899280Y-16214020D02*
X13944280Y-16169020D01*
X13899280Y-16124020D01*
X13854280Y-16169020D01*
X13899280Y-16214020D01*
X13899280Y-20414020D02*
X13944280Y-20369020D01*
X13899280Y-20324020D01*
X13854280Y-20369020D01*
X13899280Y-20414020D01*
X17845280Y-12014020D02*
X17890280Y-11969020D01*
X17845280Y-11924020D01*
X17800280Y-11969020D01*
X17845280Y-12014020D01*
X17845280Y-16214020D02*
X17890280Y-16169020D01*
X17845280Y-16124020D01*
X17800280Y-16169020D01*
X17845280Y-16214020D01*
X17845280Y-20414020D02*
X17890280Y-20369020D01*
X17845280Y-20324020D01*
X17800280Y-20369020D01*
X17845280Y-20414020D01*
X18099280Y-12014020D02*
X18144280Y-11969020D01*
X18099280Y-11924020D01*
X18054280Y-11969020D01*
X18099280Y-12014020D01*
X18099280Y-16214020D02*
X18144280Y-16169020D01*
X18099280Y-16124020D01*
X18054280Y-16169020D01*
X18099280Y-16214020D01*
X18099280Y-20414020D02*
X18144280Y-20369020D01*
X18099280Y-20324020D01*
X18054280Y-20369020D01*
X18099280Y-20414020D01*
X22045280Y-12014020D02*
X22090280Y-11969020D01*
X22045280Y-11924020D01*
X22000280Y-11969020D01*
X22045280Y-12014020D01*
X22045280Y-16214020D02*
X22090280Y-16169020D01*
X22045280Y-16124020D01*
X22000280Y-16169020D01*
X22045280Y-16214020D01*
X22045280Y-20414020D02*
X22090280Y-20369020D01*
X22045280Y-20324020D01*
X22000280Y-20369020D01*
X22045280Y-20414020D01*
X22299280Y-12014020D02*
X22344280Y-11969020D01*
X22299280Y-11924020D01*
X22254280Y-11969020D01*
X22299280Y-12014020D01*
X22299280Y-16214020D02*
X22344280Y-16169020D01*
X22299280Y-16124020D01*
X22254280Y-16169020D01*
X22299280Y-16214020D01*
X22299280Y-20414020D02*
X22344280Y-20369020D01*
X22299280Y-20324020D01*
X22254280Y-20369020D01*
X22299280Y-20414020D01*
X11015510Y-11170450D02*
X11115510Y-11270450D01*
X11115510Y-11170450D02*
X11015510Y-11270450D01*
X11115510Y-11220450D02*
G75*
G03*
X11115510Y-11220450I-50000J0D01*
G01*
X11024400Y-11602250D02*
X11124400Y-11702250D01*
X11124400Y-11602250D02*
X11024400Y-11702250D01*
X11124400Y-11652250D02*
G75*
G03*
X11124400Y-11652250I-50000J0D01*
G01*
X11269510Y-11170450D02*
X11369510Y-11270450D01*
X11369510Y-11170450D02*
X11269510Y-11270450D01*
X11369510Y-11220450D02*
G75*
G03*
X11369510Y-11220450I-50000J0D01*
G01*
X11278400Y-11602250D02*
X11378400Y-11702250D01*
X11378400Y-11602250D02*
X11278400Y-11702250D01*
X11378400Y-11652250D02*
G75*
G03*
X11378400Y-11652250I-50000J0D01*
G01*
X13173240Y-8328190D02*
X13273240Y-8428190D01*
X13273240Y-8328190D02*
X13173240Y-8428190D01*
X13273240Y-8378190D02*
G75*
G03*
X13273240Y-8378190I-50000J0D01*
G01*
X13173240Y-8582190D02*
X13273240Y-8682190D01*
X13273240Y-8582190D02*
X13173240Y-8682190D01*
X13273240Y-8632190D02*
G75*
G03*
X13273240Y-8632190I-50000J0D01*
G01*
X13427240Y-8328190D02*
X13527240Y-8428190D01*
X13527240Y-8328190D02*
X13427240Y-8428190D01*
X13527240Y-8378190D02*
G75*
G03*
X13527240Y-8378190I-50000J0D01*
G01*
X13427240Y-8582190D02*
X13527240Y-8682190D01*
X13527240Y-8582190D02*
X13427240Y-8682190D01*
X13527240Y-8632190D02*
G75*
G03*
X13527240Y-8632190I-50000J0D01*
G01*
X13681240Y-8328190D02*
X13781240Y-8428190D01*
X13781240Y-8328190D02*
X13681240Y-8428190D01*
X13781240Y-8378190D02*
G75*
G03*
X13781240Y-8378190I-50000J0D01*
G01*
X13681240Y-8582190D02*
X13781240Y-8682190D01*
X13781240Y-8582190D02*
X13681240Y-8682190D01*
X13781240Y-8632190D02*
G75*
G03*
X13781240Y-8632190I-50000J0D01*
G01*
X13935240Y-8328190D02*
X14035240Y-8428190D01*
X14035240Y-8328190D02*
X13935240Y-8428190D01*
X14035240Y-8378190D02*
G75*
G03*
X14035240Y-8378190I-50000J0D01*
G01*
X13935240Y-8582190D02*
X14035240Y-8682190D01*
X14035240Y-8582190D02*
X13935240Y-8682190D01*
X14035240Y-8632190D02*
G75*
G03*
X14035240Y-8632190I-50000J0D01*
G01*
X14189240Y-8328190D02*
X14289240Y-8428190D01*
X14289240Y-8328190D02*
X14189240Y-8428190D01*
X14289240Y-8378190D02*
G75*
G03*
X14289240Y-8378190I-50000J0D01*
G01*
X14189240Y-8582190D02*
X14289240Y-8682190D01*
X14289240Y-8582190D02*
X14189240Y-8682190D01*
X14289240Y-8632190D02*
G75*
G03*
X14289240Y-8632190I-50000J0D01*
G01*
X14443240Y-8328190D02*
X14543240Y-8428190D01*
X14543240Y-8328190D02*
X14443240Y-8428190D01*
X14543240Y-8378190D02*
G75*
G03*
X14543240Y-8378190I-50000J0D01*
G01*
X14443240Y-8582190D02*
X14543240Y-8682190D01*
X14543240Y-8582190D02*
X14443240Y-8682190D01*
X14543240Y-8632190D02*
G75*
G03*
X14543240Y-8632190I-50000J0D01*
G01*
X14697240Y-8328190D02*
X14797240Y-8428190D01*
X14797240Y-8328190D02*
X14697240Y-8428190D01*
X14797240Y-8378190D02*
G75*
G03*
X14797240Y-8378190I-50000J0D01*
G01*
X14697240Y-8582190D02*
X14797240Y-8682190D01*
X14797240Y-8582190D02*
X14697240Y-8682190D01*
X14797240Y-8632190D02*
G75*
G03*
X14797240Y-8632190I-50000J0D01*
G01*
X14951240Y-8328190D02*
X15051240Y-8428190D01*
X15051240Y-8328190D02*
X14951240Y-8428190D01*
X15051240Y-8378190D02*
G75*
G03*
X15051240Y-8378190I-50000J0D01*
G01*
X14951240Y-8582190D02*
X15051240Y-8682190D01*
X15051240Y-8582190D02*
X14951240Y-8682190D01*
X15051240Y-8632190D02*
G75*
G03*
X15051240Y-8632190I-50000J0D01*
G01*
X15880880Y-19015240D02*
X15980880Y-19115240D01*
X15980880Y-19015240D02*
X15880880Y-19115240D01*
X15980880Y-19065240D02*
G75*
G03*
X15980880Y-19065240I-50000J0D01*
G01*
X15880880Y-19269240D02*
X15980880Y-19369240D01*
X15980880Y-19269240D02*
X15880880Y-19369240D01*
X15980880Y-19319240D02*
G75*
G03*
X15980880Y-19319240I-50000J0D01*
G01*
X15880880Y-19523240D02*
X15980880Y-19623240D01*
X15980880Y-19523240D02*
X15880880Y-19623240D01*
X15980880Y-19573240D02*
G75*
G03*
X15980880Y-19573240I-50000J0D01*
G01*
X15880880Y-19777240D02*
X15980880Y-19877240D01*
X15980880Y-19777240D02*
X15880880Y-19877240D01*
X15980880Y-19827240D02*
G75*
G03*
X15980880Y-19827240I-50000J0D01*
G01*
X16134880Y-19015240D02*
X16234880Y-19115240D01*
X16234880Y-19015240D02*
X16134880Y-19115240D01*
X16234880Y-19065240D02*
G75*
G03*
X16234880Y-19065240I-50000J0D01*
G01*
X16134880Y-19269240D02*
X16234880Y-19369240D01*
X16234880Y-19269240D02*
X16134880Y-19369240D01*
X16234880Y-19319240D02*
G75*
G03*
X16234880Y-19319240I-50000J0D01*
G01*
X16134880Y-19523240D02*
X16234880Y-19623240D01*
X16234880Y-19523240D02*
X16134880Y-19623240D01*
X16234880Y-19573240D02*
G75*
G03*
X16234880Y-19573240I-50000J0D01*
G01*
X16134880Y-19777240D02*
X16234880Y-19877240D01*
X16234880Y-19777240D02*
X16134880Y-19877240D01*
X16234880Y-19827240D02*
G75*
G03*
X16234880Y-19827240I-50000J0D01*
G01*
X16691140Y-8328190D02*
X16791140Y-8428190D01*
X16791140Y-8328190D02*
X16691140Y-8428190D01*
X16791140Y-8378190D02*
G75*
G03*
X16791140Y-8378190I-50000J0D01*
G01*
X16691140Y-8582190D02*
X16791140Y-8682190D01*
X16791140Y-8582190D02*
X16691140Y-8682190D01*
X16791140Y-8632190D02*
G75*
G03*
X16791140Y-8632190I-50000J0D01*
G01*
X16945140Y-8328190D02*
X17045140Y-8428190D01*
X17045140Y-8328190D02*
X16945140Y-8428190D01*
X17045140Y-8378190D02*
G75*
G03*
X17045140Y-8378190I-50000J0D01*
G01*
X16945140Y-8582190D02*
X17045140Y-8682190D01*
X17045140Y-8582190D02*
X16945140Y-8682190D01*
X17045140Y-8632190D02*
G75*
G03*
X17045140Y-8632190I-50000J0D01*
G01*
X17199140Y-8328190D02*
X17299140Y-8428190D01*
X17299140Y-8328190D02*
X17199140Y-8428190D01*
X17299140Y-8378190D02*
G75*
G03*
X17299140Y-8378190I-50000J0D01*
G01*
X17199140Y-8582190D02*
X17299140Y-8682190D01*
X17299140Y-8582190D02*
X17199140Y-8682190D01*
X17299140Y-8632190D02*
G75*
G03*
X17299140Y-8632190I-50000J0D01*
G01*
X17285500Y-12777000D02*
X17385500Y-12877000D01*
X17385500Y-12777000D02*
X17285500Y-12877000D01*
X17385500Y-12827000D02*
G75*
G03*
X17385500Y-12827000I-50000J0D01*
G01*
X17453140Y-8328190D02*
X17553140Y-8428190D01*
X17553140Y-8328190D02*
X17453140Y-8428190D01*
X17553140Y-8378190D02*
G75*
G03*
X17553140Y-8378190I-50000J0D01*
G01*
X17453140Y-8582190D02*
X17553140Y-8682190D01*
X17553140Y-8582190D02*
X17453140Y-8682190D01*
X17553140Y-8632190D02*
G75*
G03*
X17553140Y-8632190I-50000J0D01*
G01*
X17539500Y-12777000D02*
X17639500Y-12877000D01*
X17639500Y-12777000D02*
X17539500Y-12877000D01*
X17639500Y-12827000D02*
G75*
G03*
X17639500Y-12827000I-50000J0D01*
G01*
X17707140Y-8328190D02*
X17807140Y-8428190D01*
X17807140Y-8328190D02*
X17707140Y-8428190D01*
X17807140Y-8378190D02*
G75*
G03*
X17807140Y-8378190I-50000J0D01*
G01*
X17707140Y-8582190D02*
X17807140Y-8682190D01*
X17807140Y-8582190D02*
X17707140Y-8682190D01*
X17807140Y-8632190D02*
G75*
G03*
X17807140Y-8632190I-50000J0D01*
G01*
X17793500Y-12777000D02*
X17893500Y-12877000D01*
X17893500Y-12777000D02*
X17793500Y-12877000D01*
X17893500Y-12827000D02*
G75*
G03*
X17893500Y-12827000I-50000J0D01*
G01*
X17961140Y-8328190D02*
X18061140Y-8428190D01*
X18061140Y-8328190D02*
X17961140Y-8428190D01*
X18061140Y-8378190D02*
G75*
G03*
X18061140Y-8378190I-50000J0D01*
G01*
X17961140Y-8582190D02*
X18061140Y-8682190D01*
X18061140Y-8582190D02*
X17961140Y-8682190D01*
X18061140Y-8632190D02*
G75*
G03*
X18061140Y-8632190I-50000J0D01*
G01*
X18215140Y-8328190D02*
X18315140Y-8428190D01*
X18315140Y-8328190D02*
X18215140Y-8428190D01*
X18315140Y-8378190D02*
G75*
G03*
X18315140Y-8378190I-50000J0D01*
G01*
X18215140Y-8582190D02*
X18315140Y-8682190D01*
X18315140Y-8582190D02*
X18215140Y-8682190D01*
X18315140Y-8632190D02*
G75*
G03*
X18315140Y-8632190I-50000J0D01*
G01*
X18682500Y-12370600D02*
X18782500Y-12470600D01*
X18782500Y-12370600D02*
X18682500Y-12470600D01*
X18782500Y-12420600D02*
G75*
G03*
X18782500Y-12420600I-50000J0D01*
G01*
X18739650Y-11780050D02*
X18839650Y-11880050D01*
X18839650Y-11780050D02*
X18739650Y-11880050D01*
X18839650Y-11830050D02*
G75*
G03*
X18839650Y-11830050I-50000J0D01*
G01*
X18936500Y-12370600D02*
X19036500Y-12470600D01*
X19036500Y-12370600D02*
X18936500Y-12470600D01*
X19036500Y-12420600D02*
G75*
G03*
X19036500Y-12420600I-50000J0D01*
G01*
X18993650Y-11780050D02*
X19093650Y-11880050D01*
X19093650Y-11780050D02*
X18993650Y-11880050D01*
X19093650Y-11830050D02*
G75*
G03*
X19093650Y-11830050I-50000J0D01*
G01*
X19006350Y-8725700D02*
X19106350Y-8825700D01*
X19106350Y-8725700D02*
X19006350Y-8825700D01*
X19106350Y-8775700D02*
G75*
G03*
X19106350Y-8775700I-50000J0D01*
G01*
X19006350Y-8979700D02*
X19106350Y-9079700D01*
X19106350Y-8979700D02*
X19006350Y-9079700D01*
X19106350Y-9029700D02*
G75*
G03*
X19106350Y-9029700I-50000J0D01*
G01*
X19190500Y-12370600D02*
X19290500Y-12470600D01*
X19290500Y-12370600D02*
X19190500Y-12470600D01*
X19290500Y-12420600D02*
G75*
G03*
X19290500Y-12420600I-50000J0D01*
G01*
X19247650Y-11780050D02*
X19347650Y-11880050D01*
X19347650Y-11780050D02*
X19247650Y-11880050D01*
X19347650Y-11830050D02*
G75*
G03*
X19347650Y-11830050I-50000J0D01*
G01*
X19641350Y-8325650D02*
X19741350Y-8425650D01*
X19741350Y-8325650D02*
X19641350Y-8425650D01*
X19741350Y-8375650D02*
G75*
G03*
X19741350Y-8375650I-50000J0D01*
G01*
X19895350Y-8325650D02*
X19995350Y-8425650D01*
X19995350Y-8325650D02*
X19895350Y-8425650D01*
X19995350Y-8375650D02*
G75*
G03*
X19995350Y-8375650I-50000J0D01*
G01*
X20149350Y-8325650D02*
X20249350Y-8425650D01*
X20249350Y-8325650D02*
X20149350Y-8425650D01*
X20249350Y-8375650D02*
G75*
G03*
X20249350Y-8375650I-50000J0D01*
G01*
X20403350Y-8325650D02*
X20503350Y-8425650D01*
X20503350Y-8325650D02*
X20403350Y-8425650D01*
X20503350Y-8375650D02*
G75*
G03*
X20503350Y-8375650I-50000J0D01*
G01*
X20657350Y-8325650D02*
X20757350Y-8425650D01*
X20757350Y-8325650D02*
X20657350Y-8425650D01*
X20757350Y-8375650D02*
G75*
G03*
X20757350Y-8375650I-50000J0D01*
G01*
X20911350Y-8325650D02*
X21011350Y-8425650D01*
X21011350Y-8325650D02*
X20911350Y-8425650D01*
X21011350Y-8375650D02*
G75*
G03*
X21011350Y-8375650I-50000J0D01*
G01*
X21165350Y-8325650D02*
X21265350Y-8425650D01*
X21265350Y-8325650D02*
X21165350Y-8425650D01*
X21265350Y-8375650D02*
G75*
G03*
X21265350Y-8375650I-50000J0D01*
G01*
X21419350Y-8325650D02*
X21519350Y-8425650D01*
X21519350Y-8325650D02*
X21419350Y-8425650D01*
X21519350Y-8375650D02*
G75*
G03*
X21519350Y-8375650I-50000J0D01*
G01*
X22035300Y-8236750D02*
X22135300Y-8336750D01*
X22135300Y-8236750D02*
X22035300Y-8336750D01*
X22135300Y-8286750D02*
G75*
G03*
X22135300Y-8286750I-50000J0D01*
G01*
X22035300Y-8490750D02*
X22135300Y-8590750D01*
X22135300Y-8490750D02*
X22035300Y-8590750D01*
X22135300Y-8540750D02*
G75*
G03*
X22135300Y-8540750I-50000J0D01*
G01*
X22035300Y-8744750D02*
X22135300Y-8844750D01*
X22135300Y-8744750D02*
X22035300Y-8844750D01*
X22135300Y-8794750D02*
G75*
G03*
X22135300Y-8794750I-50000J0D01*
G01*
X22860800Y-8325650D02*
X22960800Y-8425650D01*
X22960800Y-8325650D02*
X22860800Y-8425650D01*
X22960800Y-8375650D02*
G75*
G03*
X22960800Y-8375650I-50000J0D01*
G01*
X22860800Y-8579650D02*
X22960800Y-8679650D01*
X22960800Y-8579650D02*
X22860800Y-8679650D01*
X22960800Y-8629650D02*
G75*
G03*
X22960800Y-8629650I-50000J0D01*
G01*
X23114800Y-8325650D02*
X23214800Y-8425650D01*
X23214800Y-8325650D02*
X23114800Y-8425650D01*
X23214800Y-8375650D02*
G75*
G03*
X23214800Y-8375650I-50000J0D01*
G01*
X23114800Y-8579650D02*
X23214800Y-8679650D01*
X23214800Y-8579650D02*
X23114800Y-8679650D01*
X23214800Y-8629650D02*
G75*
G03*
X23214800Y-8629650I-50000J0D01*
G01*
X23368800Y-8325650D02*
X23468800Y-8425650D01*
X23468800Y-8325650D02*
X23368800Y-8425650D01*
X23468800Y-8375650D02*
G75*
G03*
X23468800Y-8375650I-50000J0D01*
G01*
X23368800Y-8579650D02*
X23468800Y-8679650D01*
X23468800Y-8579650D02*
X23368800Y-8679650D01*
X23468800Y-8629650D02*
G75*
G03*
X23468800Y-8629650I-50000J0D01*
G01*
X23622800Y-8325650D02*
X23722800Y-8425650D01*
X23722800Y-8325650D02*
X23622800Y-8425650D01*
X23722800Y-8375650D02*
G75*
G03*
X23722800Y-8375650I-50000J0D01*
G01*
X23622800Y-8579650D02*
X23722800Y-8679650D01*
X23722800Y-8579650D02*
X23622800Y-8679650D01*
X23722800Y-8629650D02*
G75*
G03*
X23722800Y-8629650I-50000J0D01*
G01*
X23876800Y-8325650D02*
X23976800Y-8425650D01*
X23976800Y-8325650D02*
X23876800Y-8425650D01*
X23976800Y-8375650D02*
G75*
G03*
X23976800Y-8375650I-50000J0D01*
G01*
X23876800Y-8579650D02*
X23976800Y-8679650D01*
X23976800Y-8579650D02*
X23876800Y-8679650D01*
X23976800Y-8629650D02*
G75*
G03*
X23976800Y-8629650I-50000J0D01*
G01*
X24130800Y-8325650D02*
X24230800Y-8425650D01*
X24230800Y-8325650D02*
X24130800Y-8425650D01*
X24230800Y-8375650D02*
G75*
G03*
X24230800Y-8375650I-50000J0D01*
G01*
X24130800Y-8579650D02*
X24230800Y-8679650D01*
X24230800Y-8579650D02*
X24130800Y-8679650D01*
X24230800Y-8629650D02*
G75*
G03*
X24230800Y-8629650I-50000J0D01*
G01*
X7218000Y-9615000D02*
X7518000Y-9915000D01*
X7518000Y-9615000D02*
X7218000Y-9915000D01*
X7368000Y-9615000D02*
X7368000Y-9915000D01*
X7218000Y-9765000D02*
X7518000Y-9765000D01*
X7218000Y-22423000D02*
X7518000Y-22723000D01*
X7518000Y-22423000D02*
X7218000Y-22723000D01*
X7368000Y-22423000D02*
X7368000Y-22723000D01*
X7218000Y-22573000D02*
X7518000Y-22573000D01*
X15723000Y-9615000D02*
X16023000Y-9915000D01*
X16023000Y-9615000D02*
X15723000Y-9915000D01*
X15873000Y-9615000D02*
X15873000Y-9915000D01*
X15723000Y-9765000D02*
X16023000Y-9765000D01*
X15723000Y-22423000D02*
X16023000Y-22723000D01*
X16023000Y-22423000D02*
X15723000Y-22723000D01*
X15873000Y-22423000D02*
X15873000Y-22723000D01*
X15723000Y-22573000D02*
X16023000Y-22573000D01*
X24228000Y-9615000D02*
X24528000Y-9915000D01*
X24528000Y-9615000D02*
X24228000Y-9915000D01*
X24378000Y-9615000D02*
X24378000Y-9915000D01*
X24228000Y-9765000D02*
X24528000Y-9765000D01*
X24228000Y-22423000D02*
X24528000Y-22723000D01*
X24528000Y-22423000D02*
X24228000Y-22723000D01*
X24378000Y-22423000D02*
X24378000Y-22723000D01*
X24228000Y-22573000D02*
X24528000Y-22573000D01*
D13*
X7230648Y-23400604D02*
X7230648Y-23100604D01*
X7302077Y-23100604D01*
X7344934Y-23114890D01*
X7373506Y-23143461D01*
X7387791Y-23172033D01*
X7402077Y-23229176D01*
X7402077Y-23272033D01*
X7387791Y-23329176D01*
X7373506Y-23357747D01*
X7344934Y-23386319D01*
X7302077Y-23400604D01*
X7230648Y-23400604D01*
X7530648Y-23400604D02*
X7530648Y-23200604D01*
X7530648Y-23257747D02*
X7544934Y-23229176D01*
X7559220Y-23214890D01*
X7587791Y-23200604D01*
X7616363Y-23200604D01*
X7716363Y-23400604D02*
X7716363Y-23200604D01*
X7716363Y-23100604D02*
X7702077Y-23114890D01*
X7716363Y-23129176D01*
X7730648Y-23114890D01*
X7716363Y-23100604D01*
X7716363Y-23129176D01*
X7902077Y-23400604D02*
X7873506Y-23386319D01*
X7859220Y-23357747D01*
X7859220Y-23100604D01*
X8059220Y-23400604D02*
X8030648Y-23386319D01*
X8016363Y-23357747D01*
X8016363Y-23100604D01*
X8402077Y-23400604D02*
X8402077Y-23100604D01*
X8502077Y-23314890D01*
X8602077Y-23100604D01*
X8602077Y-23400604D01*
X8873506Y-23400604D02*
X8873506Y-23243461D01*
X8859220Y-23214890D01*
X8830648Y-23200604D01*
X8773506Y-23200604D01*
X8744934Y-23214890D01*
X8873506Y-23386319D02*
X8844934Y-23400604D01*
X8773506Y-23400604D01*
X8744934Y-23386319D01*
X8730648Y-23357747D01*
X8730648Y-23329176D01*
X8744934Y-23300604D01*
X8773506Y-23286319D01*
X8844934Y-23286319D01*
X8873506Y-23272033D01*
X9016363Y-23200604D02*
X9016363Y-23500604D01*
X9016363Y-23214890D02*
X9044934Y-23200604D01*
X9102077Y-23200604D01*
X9130648Y-23214890D01*
X9144934Y-23229176D01*
X9159220Y-23257747D01*
X9159220Y-23343461D01*
X9144934Y-23372033D01*
X9130648Y-23386319D01*
X9102077Y-23400604D01*
X9044934Y-23400604D01*
X9016363Y-23386319D01*
X9287791Y-23372033D02*
X9302077Y-23386319D01*
X9287791Y-23400604D01*
X9273506Y-23386319D01*
X9287791Y-23372033D01*
X9287791Y-23400604D01*
X9287791Y-23214890D02*
X9302077Y-23229176D01*
X9287791Y-23243461D01*
X9273506Y-23229176D01*
X9287791Y-23214890D01*
X9287791Y-23243461D01*
X6911200Y-23878380D02*
X6944220Y-23911400D01*
X6944220Y-23878380D02*
X6911200Y-23911400D01*
X7287791Y-23730604D02*
X7316363Y-23730604D01*
X7344934Y-23744890D01*
X7359220Y-23759176D01*
X7373506Y-23787747D01*
X7387791Y-23844890D01*
X7387791Y-23916319D01*
X7373506Y-23973461D01*
X7359220Y-24002033D01*
X7344934Y-24016319D01*
X7316363Y-24030604D01*
X7287791Y-24030604D01*
X7259220Y-24016319D01*
X7244934Y-24002033D01*
X7230648Y-23973461D01*
X7216363Y-23916319D01*
X7216363Y-23844890D01*
X7230648Y-23787747D01*
X7244934Y-23759176D01*
X7259220Y-23744890D01*
X7287791Y-23730604D01*
X7516363Y-24002033D02*
X7530648Y-24016319D01*
X7516363Y-24030604D01*
X7502077Y-24016319D01*
X7516363Y-24002033D01*
X7516363Y-24030604D01*
X7630648Y-23730604D02*
X7816363Y-23730604D01*
X7716363Y-23844890D01*
X7759220Y-23844890D01*
X7787791Y-23859176D01*
X7802077Y-23873461D01*
X7816363Y-23902033D01*
X7816363Y-23973461D01*
X7802077Y-24002033D01*
X7787791Y-24016319D01*
X7759220Y-24030604D01*
X7673506Y-24030604D01*
X7644934Y-24016319D01*
X7630648Y-24002033D01*
X7916363Y-23730604D02*
X8102077Y-23730604D01*
X8002077Y-23844890D01*
X8044934Y-23844890D01*
X8073506Y-23859176D01*
X8087791Y-23873461D01*
X8102077Y-23902033D01*
X8102077Y-23973461D01*
X8087791Y-24002033D01*
X8073506Y-24016319D01*
X8044934Y-24030604D01*
X7959220Y-24030604D01*
X7930648Y-24016319D01*
X7916363Y-24002033D01*
X8230648Y-24030604D02*
X8230648Y-23830604D01*
X8230648Y-23859176D02*
X8244934Y-23844890D01*
X8273506Y-23830604D01*
X8316363Y-23830604D01*
X8344934Y-23844890D01*
X8359220Y-23873461D01*
X8359220Y-24030604D01*
X8359220Y-23873461D02*
X8373506Y-23844890D01*
X8402077Y-23830604D01*
X8444934Y-23830604D01*
X8473506Y-23844890D01*
X8487791Y-23873461D01*
X8487791Y-24030604D01*
X8630648Y-24030604D02*
X8630648Y-23830604D01*
X8630648Y-23859176D02*
X8644934Y-23844890D01*
X8673506Y-23830604D01*
X8716363Y-23830604D01*
X8744934Y-23844890D01*
X8759220Y-23873461D01*
X8759220Y-24030604D01*
X8759220Y-23873461D02*
X8773506Y-23844890D01*
X8802077Y-23830604D01*
X8844934Y-23830604D01*
X8873506Y-23844890D01*
X8887791Y-23873461D01*
X8887791Y-24030604D01*
X9473506Y-23716319D02*
X9216363Y-24102033D01*
X9859220Y-23730604D02*
X9887791Y-23730604D01*
X9916363Y-23744890D01*
X9930648Y-23759176D01*
X9944934Y-23787747D01*
X9959220Y-23844890D01*
X9959220Y-23916319D01*
X9944934Y-23973461D01*
X9930648Y-24002033D01*
X9916363Y-24016319D01*
X9887791Y-24030604D01*
X9859220Y-24030604D01*
X9830648Y-24016319D01*
X9816363Y-24002033D01*
X9802077Y-23973461D01*
X9787791Y-23916319D01*
X9787791Y-23844890D01*
X9802077Y-23787747D01*
X9816363Y-23759176D01*
X9830648Y-23744890D01*
X9859220Y-23730604D01*
X10087791Y-24002033D02*
X10102077Y-24016319D01*
X10087791Y-24030604D01*
X10073506Y-24016319D01*
X10087791Y-24002033D01*
X10087791Y-24030604D01*
X10287791Y-23730604D02*
X10316363Y-23730604D01*
X10344934Y-23744890D01*
X10359220Y-23759176D01*
X10373506Y-23787747D01*
X10387791Y-23844890D01*
X10387791Y-23916319D01*
X10373506Y-23973461D01*
X10359220Y-24002033D01*
X10344934Y-24016319D01*
X10316363Y-24030604D01*
X10287791Y-24030604D01*
X10259220Y-24016319D01*
X10244934Y-24002033D01*
X10230648Y-23973461D01*
X10216363Y-23916319D01*
X10216363Y-23844890D01*
X10230648Y-23787747D01*
X10244934Y-23759176D01*
X10259220Y-23744890D01*
X10287791Y-23730604D01*
X10673506Y-24030604D02*
X10502077Y-24030604D01*
X10587791Y-24030604D02*
X10587791Y-23730604D01*
X10559220Y-23773461D01*
X10530648Y-23802033D01*
X10502077Y-23816319D01*
X10773506Y-23730604D02*
X10959220Y-23730604D01*
X10859220Y-23844890D01*
X10902077Y-23844890D01*
X10930648Y-23859176D01*
X10944934Y-23873461D01*
X10959220Y-23902033D01*
X10959220Y-23973461D01*
X10944934Y-24002033D01*
X10930648Y-24016319D01*
X10902077Y-24030604D01*
X10816363Y-24030604D01*
X10787791Y-24016319D01*
X10773506Y-24002033D01*
X11073506Y-23730604D02*
X11073506Y-23787747D01*
X11187791Y-23730604D02*
X11187791Y-23787747D01*
X11630648Y-24144890D02*
X11616363Y-24130604D01*
X11587791Y-24087747D01*
X11573506Y-24059176D01*
X11559220Y-24016319D01*
X11544934Y-23944890D01*
X11544934Y-23887747D01*
X11559220Y-23816319D01*
X11573506Y-23773461D01*
X11587791Y-23744890D01*
X11616363Y-23702033D01*
X11630648Y-23687747D01*
X11902077Y-24030604D02*
X11730648Y-24030604D01*
X11816363Y-24030604D02*
X11816363Y-23730604D01*
X11787791Y-23773461D01*
X11759220Y-23802033D01*
X11730648Y-23816319D01*
X12002077Y-23730604D02*
X12202077Y-23730604D01*
X12073506Y-24030604D01*
X12302077Y-23759176D02*
X12316363Y-23744890D01*
X12344934Y-23730604D01*
X12416363Y-23730604D01*
X12444934Y-23744890D01*
X12459220Y-23759176D01*
X12473506Y-23787747D01*
X12473506Y-23816319D01*
X12459220Y-23859176D01*
X12287791Y-24030604D01*
X12473506Y-24030604D01*
X12830648Y-24030604D02*
X12830648Y-23730604D01*
X12959220Y-24030604D02*
X12959220Y-23873461D01*
X12944934Y-23844890D01*
X12916363Y-23830604D01*
X12873506Y-23830604D01*
X12844934Y-23844890D01*
X12830648Y-23859176D01*
X13144934Y-24030604D02*
X13116363Y-24016319D01*
X13102077Y-24002033D01*
X13087791Y-23973461D01*
X13087791Y-23887747D01*
X13102077Y-23859176D01*
X13116363Y-23844890D01*
X13144934Y-23830604D01*
X13187791Y-23830604D01*
X13216363Y-23844890D01*
X13230648Y-23859176D01*
X13244934Y-23887747D01*
X13244934Y-23973461D01*
X13230648Y-24002033D01*
X13216363Y-24016319D01*
X13187791Y-24030604D01*
X13144934Y-24030604D01*
X13416363Y-24030604D02*
X13387791Y-24016319D01*
X13373506Y-23987747D01*
X13373506Y-23730604D01*
X13644934Y-24016319D02*
X13616363Y-24030604D01*
X13559220Y-24030604D01*
X13530648Y-24016319D01*
X13516363Y-23987747D01*
X13516363Y-23873461D01*
X13530648Y-23844890D01*
X13559220Y-23830604D01*
X13616363Y-23830604D01*
X13644934Y-23844890D01*
X13659220Y-23873461D01*
X13659220Y-23902033D01*
X13516363Y-23930604D01*
X13773506Y-24016319D02*
X13802077Y-24030604D01*
X13859220Y-24030604D01*
X13887791Y-24016319D01*
X13902077Y-23987747D01*
X13902077Y-23973461D01*
X13887791Y-23944890D01*
X13859220Y-23930604D01*
X13816363Y-23930604D01*
X13787791Y-23916319D01*
X13773506Y-23887747D01*
X13773506Y-23873461D01*
X13787791Y-23844890D01*
X13816363Y-23830604D01*
X13859220Y-23830604D01*
X13887791Y-23844890D01*
X14002077Y-24144890D02*
X14016363Y-24130604D01*
X14044934Y-24087747D01*
X14059220Y-24059176D01*
X14073506Y-24016319D01*
X14087791Y-23944890D01*
X14087791Y-23887747D01*
X14073506Y-23816319D01*
X14059220Y-23773461D01*
X14044934Y-23744890D01*
X14016363Y-23702033D01*
X14002077Y-23687747D01*
X6944220Y-24290890D02*
G75*
G03*
X6944220Y-24290890I-25000J0D01*
G01*
X7287791Y-24126604D02*
X7316363Y-24126604D01*
X7344934Y-24140890D01*
X7359220Y-24155176D01*
X7373506Y-24183747D01*
X7387791Y-24240890D01*
X7387791Y-24312319D01*
X7373506Y-24369461D01*
X7359220Y-24398033D01*
X7344934Y-24412319D01*
X7316363Y-24426604D01*
X7287791Y-24426604D01*
X7259220Y-24412319D01*
X7244934Y-24398033D01*
X7230648Y-24369461D01*
X7216363Y-24312319D01*
X7216363Y-24240890D01*
X7230648Y-24183747D01*
X7244934Y-24155176D01*
X7259220Y-24140890D01*
X7287791Y-24126604D01*
X7516363Y-24398033D02*
X7530648Y-24412319D01*
X7516363Y-24426604D01*
X7502077Y-24412319D01*
X7516363Y-24398033D01*
X7516363Y-24426604D01*
X7802077Y-24126604D02*
X7659220Y-24126604D01*
X7644934Y-24269461D01*
X7659220Y-24255176D01*
X7687791Y-24240890D01*
X7759220Y-24240890D01*
X7787791Y-24255176D01*
X7802077Y-24269461D01*
X7816363Y-24298033D01*
X7816363Y-24369461D01*
X7802077Y-24398033D01*
X7787791Y-24412319D01*
X7759220Y-24426604D01*
X7687791Y-24426604D01*
X7659220Y-24412319D01*
X7644934Y-24398033D01*
X8002077Y-24126604D02*
X8030648Y-24126604D01*
X8059220Y-24140890D01*
X8073506Y-24155176D01*
X8087791Y-24183747D01*
X8102077Y-24240890D01*
X8102077Y-24312319D01*
X8087791Y-24369461D01*
X8073506Y-24398033D01*
X8059220Y-24412319D01*
X8030648Y-24426604D01*
X8002077Y-24426604D01*
X7973506Y-24412319D01*
X7959220Y-24398033D01*
X7944934Y-24369461D01*
X7930648Y-24312319D01*
X7930648Y-24240890D01*
X7944934Y-24183747D01*
X7959220Y-24155176D01*
X7973506Y-24140890D01*
X8002077Y-24126604D01*
X8230648Y-24426604D02*
X8230648Y-24226604D01*
X8230648Y-24255176D02*
X8244934Y-24240890D01*
X8273506Y-24226604D01*
X8316363Y-24226604D01*
X8344934Y-24240890D01*
X8359220Y-24269461D01*
X8359220Y-24426604D01*
X8359220Y-24269461D02*
X8373506Y-24240890D01*
X8402077Y-24226604D01*
X8444934Y-24226604D01*
X8473506Y-24240890D01*
X8487791Y-24269461D01*
X8487791Y-24426604D01*
X8630648Y-24426604D02*
X8630648Y-24226604D01*
X8630648Y-24255176D02*
X8644934Y-24240890D01*
X8673506Y-24226604D01*
X8716363Y-24226604D01*
X8744934Y-24240890D01*
X8759220Y-24269461D01*
X8759220Y-24426604D01*
X8759220Y-24269461D02*
X8773506Y-24240890D01*
X8802077Y-24226604D01*
X8844934Y-24226604D01*
X8873506Y-24240890D01*
X8887791Y-24269461D01*
X8887791Y-24426604D01*
X9473506Y-24112319D02*
X9216363Y-24498033D01*
X9859220Y-24126604D02*
X9887791Y-24126604D01*
X9916363Y-24140890D01*
X9930648Y-24155176D01*
X9944934Y-24183747D01*
X9959220Y-24240890D01*
X9959220Y-24312319D01*
X9944934Y-24369461D01*
X9930648Y-24398033D01*
X9916363Y-24412319D01*
X9887791Y-24426604D01*
X9859220Y-24426604D01*
X9830648Y-24412319D01*
X9816363Y-24398033D01*
X9802077Y-24369461D01*
X9787791Y-24312319D01*
X9787791Y-24240890D01*
X9802077Y-24183747D01*
X9816363Y-24155176D01*
X9830648Y-24140890D01*
X9859220Y-24126604D01*
X10087791Y-24398033D02*
X10102077Y-24412319D01*
X10087791Y-24426604D01*
X10073506Y-24412319D01*
X10087791Y-24398033D01*
X10087791Y-24426604D01*
X10287791Y-24126604D02*
X10316363Y-24126604D01*
X10344934Y-24140890D01*
X10359220Y-24155176D01*
X10373506Y-24183747D01*
X10387791Y-24240890D01*
X10387791Y-24312319D01*
X10373506Y-24369461D01*
X10359220Y-24398033D01*
X10344934Y-24412319D01*
X10316363Y-24426604D01*
X10287791Y-24426604D01*
X10259220Y-24412319D01*
X10244934Y-24398033D01*
X10230648Y-24369461D01*
X10216363Y-24312319D01*
X10216363Y-24240890D01*
X10230648Y-24183747D01*
X10244934Y-24155176D01*
X10259220Y-24140890D01*
X10287791Y-24126604D01*
X10502077Y-24155176D02*
X10516363Y-24140890D01*
X10544934Y-24126604D01*
X10616363Y-24126604D01*
X10644934Y-24140890D01*
X10659220Y-24155176D01*
X10673506Y-24183747D01*
X10673506Y-24212319D01*
X10659220Y-24255176D01*
X10487791Y-24426604D01*
X10673506Y-24426604D01*
X10859220Y-24126604D02*
X10887791Y-24126604D01*
X10916363Y-24140890D01*
X10930648Y-24155176D01*
X10944934Y-24183747D01*
X10959220Y-24240890D01*
X10959220Y-24312319D01*
X10944934Y-24369461D01*
X10930648Y-24398033D01*
X10916363Y-24412319D01*
X10887791Y-24426604D01*
X10859220Y-24426604D01*
X10830648Y-24412319D01*
X10816363Y-24398033D01*
X10802077Y-24369461D01*
X10787791Y-24312319D01*
X10787791Y-24240890D01*
X10802077Y-24183747D01*
X10816363Y-24155176D01*
X10830648Y-24140890D01*
X10859220Y-24126604D01*
X11073506Y-24126604D02*
X11073506Y-24183747D01*
X11187791Y-24126604D02*
X11187791Y-24183747D01*
X11630648Y-24540890D02*
X11616363Y-24526604D01*
X11587791Y-24483747D01*
X11573506Y-24455176D01*
X11559220Y-24412319D01*
X11544934Y-24340890D01*
X11544934Y-24283747D01*
X11559220Y-24212319D01*
X11573506Y-24169461D01*
X11587791Y-24140890D01*
X11616363Y-24098033D01*
X11630648Y-24083747D01*
X11873506Y-24226604D02*
X11873506Y-24426604D01*
X11802077Y-24112319D02*
X11730648Y-24326604D01*
X11916363Y-24326604D01*
X12073506Y-24255176D02*
X12044934Y-24240890D01*
X12030648Y-24226604D01*
X12016363Y-24198033D01*
X12016363Y-24183747D01*
X12030648Y-24155176D01*
X12044934Y-24140890D01*
X12073506Y-24126604D01*
X12130648Y-24126604D01*
X12159220Y-24140890D01*
X12173506Y-24155176D01*
X12187791Y-24183747D01*
X12187791Y-24198033D01*
X12173506Y-24226604D01*
X12159220Y-24240890D01*
X12130648Y-24255176D01*
X12073506Y-24255176D01*
X12044934Y-24269461D01*
X12030648Y-24283747D01*
X12016363Y-24312319D01*
X12016363Y-24369461D01*
X12030648Y-24398033D01*
X12044934Y-24412319D01*
X12073506Y-24426604D01*
X12130648Y-24426604D01*
X12159220Y-24412319D01*
X12173506Y-24398033D01*
X12187791Y-24369461D01*
X12187791Y-24312319D01*
X12173506Y-24283747D01*
X12159220Y-24269461D01*
X12130648Y-24255176D01*
X12544934Y-24426604D02*
X12544934Y-24126604D01*
X12673506Y-24426604D02*
X12673506Y-24269461D01*
X12659220Y-24240890D01*
X12630648Y-24226604D01*
X12587791Y-24226604D01*
X12559220Y-24240890D01*
X12544934Y-24255176D01*
X12859220Y-24426604D02*
X12830648Y-24412319D01*
X12816363Y-24398033D01*
X12802077Y-24369461D01*
X12802077Y-24283747D01*
X12816363Y-24255176D01*
X12830648Y-24240890D01*
X12859220Y-24226604D01*
X12902077Y-24226604D01*
X12930648Y-24240890D01*
X12944934Y-24255176D01*
X12959220Y-24283747D01*
X12959220Y-24369461D01*
X12944934Y-24398033D01*
X12930648Y-24412319D01*
X12902077Y-24426604D01*
X12859220Y-24426604D01*
X13130648Y-24426604D02*
X13102077Y-24412319D01*
X13087791Y-24383747D01*
X13087791Y-24126604D01*
X13359220Y-24412319D02*
X13330648Y-24426604D01*
X13273506Y-24426604D01*
X13244934Y-24412319D01*
X13230648Y-24383747D01*
X13230648Y-24269461D01*
X13244934Y-24240890D01*
X13273506Y-24226604D01*
X13330648Y-24226604D01*
X13359220Y-24240890D01*
X13373506Y-24269461D01*
X13373506Y-24298033D01*
X13230648Y-24326604D01*
X13487791Y-24412319D02*
X13516363Y-24426604D01*
X13573506Y-24426604D01*
X13602077Y-24412319D01*
X13616363Y-24383747D01*
X13616363Y-24369461D01*
X13602077Y-24340890D01*
X13573506Y-24326604D01*
X13530648Y-24326604D01*
X13502077Y-24312319D01*
X13487791Y-24283747D01*
X13487791Y-24269461D01*
X13502077Y-24240890D01*
X13530648Y-24226604D01*
X13573506Y-24226604D01*
X13602077Y-24240890D01*
X13716363Y-24540890D02*
X13730648Y-24526604D01*
X13759220Y-24483747D01*
X13773506Y-24455176D01*
X13787791Y-24412319D01*
X13802077Y-24340890D01*
X13802077Y-24283747D01*
X13787791Y-24212319D01*
X13773506Y-24169461D01*
X13759220Y-24140890D01*
X13730648Y-24098033D01*
X13716363Y-24083747D01*
X6914220Y-24656890D02*
X6914220Y-24716890D01*
X6884220Y-24686890D02*
X6944220Y-24686890D01*
X7287791Y-24522604D02*
X7316363Y-24522604D01*
X7344934Y-24536890D01*
X7359220Y-24551176D01*
X7373506Y-24579747D01*
X7387791Y-24636890D01*
X7387791Y-24708319D01*
X7373506Y-24765461D01*
X7359220Y-24794033D01*
X7344934Y-24808319D01*
X7316363Y-24822604D01*
X7287791Y-24822604D01*
X7259220Y-24808319D01*
X7244934Y-24794033D01*
X7230648Y-24765461D01*
X7216363Y-24708319D01*
X7216363Y-24636890D01*
X7230648Y-24579747D01*
X7244934Y-24551176D01*
X7259220Y-24536890D01*
X7287791Y-24522604D01*
X7516363Y-24794033D02*
X7530648Y-24808319D01*
X7516363Y-24822604D01*
X7502077Y-24808319D01*
X7516363Y-24794033D01*
X7516363Y-24822604D01*
X7787791Y-24522604D02*
X7730648Y-24522604D01*
X7702077Y-24536890D01*
X7687791Y-24551176D01*
X7659220Y-24594033D01*
X7644934Y-24651176D01*
X7644934Y-24765461D01*
X7659220Y-24794033D01*
X7673506Y-24808319D01*
X7702077Y-24822604D01*
X7759220Y-24822604D01*
X7787791Y-24808319D01*
X7802077Y-24794033D01*
X7816363Y-24765461D01*
X7816363Y-24694033D01*
X7802077Y-24665461D01*
X7787791Y-24651176D01*
X7759220Y-24636890D01*
X7702077Y-24636890D01*
X7673506Y-24651176D01*
X7659220Y-24665461D01*
X7644934Y-24694033D01*
X8002077Y-24522604D02*
X8030648Y-24522604D01*
X8059220Y-24536890D01*
X8073506Y-24551176D01*
X8087791Y-24579747D01*
X8102077Y-24636890D01*
X8102077Y-24708319D01*
X8087791Y-24765461D01*
X8073506Y-24794033D01*
X8059220Y-24808319D01*
X8030648Y-24822604D01*
X8002077Y-24822604D01*
X7973506Y-24808319D01*
X7959220Y-24794033D01*
X7944934Y-24765461D01*
X7930648Y-24708319D01*
X7930648Y-24636890D01*
X7944934Y-24579747D01*
X7959220Y-24551176D01*
X7973506Y-24536890D01*
X8002077Y-24522604D01*
X8230648Y-24822604D02*
X8230648Y-24622604D01*
X8230648Y-24651176D02*
X8244934Y-24636890D01*
X8273506Y-24622604D01*
X8316363Y-24622604D01*
X8344934Y-24636890D01*
X8359220Y-24665461D01*
X8359220Y-24822604D01*
X8359220Y-24665461D02*
X8373506Y-24636890D01*
X8402077Y-24622604D01*
X8444934Y-24622604D01*
X8473506Y-24636890D01*
X8487791Y-24665461D01*
X8487791Y-24822604D01*
X8630648Y-24822604D02*
X8630648Y-24622604D01*
X8630648Y-24651176D02*
X8644934Y-24636890D01*
X8673506Y-24622604D01*
X8716363Y-24622604D01*
X8744934Y-24636890D01*
X8759220Y-24665461D01*
X8759220Y-24822604D01*
X8759220Y-24665461D02*
X8773506Y-24636890D01*
X8802077Y-24622604D01*
X8844934Y-24622604D01*
X8873506Y-24636890D01*
X8887791Y-24665461D01*
X8887791Y-24822604D01*
X9473506Y-24508319D02*
X9216363Y-24894033D01*
X9859220Y-24522604D02*
X9887791Y-24522604D01*
X9916363Y-24536890D01*
X9930648Y-24551176D01*
X9944934Y-24579747D01*
X9959220Y-24636890D01*
X9959220Y-24708319D01*
X9944934Y-24765461D01*
X9930648Y-24794033D01*
X9916363Y-24808319D01*
X9887791Y-24822604D01*
X9859220Y-24822604D01*
X9830648Y-24808319D01*
X9816363Y-24794033D01*
X9802077Y-24765461D01*
X9787791Y-24708319D01*
X9787791Y-24636890D01*
X9802077Y-24579747D01*
X9816363Y-24551176D01*
X9830648Y-24536890D01*
X9859220Y-24522604D01*
X10087791Y-24794033D02*
X10102077Y-24808319D01*
X10087791Y-24822604D01*
X10073506Y-24808319D01*
X10087791Y-24794033D01*
X10087791Y-24822604D01*
X10287791Y-24522604D02*
X10316363Y-24522604D01*
X10344934Y-24536890D01*
X10359220Y-24551176D01*
X10373506Y-24579747D01*
X10387791Y-24636890D01*
X10387791Y-24708319D01*
X10373506Y-24765461D01*
X10359220Y-24794033D01*
X10344934Y-24808319D01*
X10316363Y-24822604D01*
X10287791Y-24822604D01*
X10259220Y-24808319D01*
X10244934Y-24794033D01*
X10230648Y-24765461D01*
X10216363Y-24708319D01*
X10216363Y-24636890D01*
X10230648Y-24579747D01*
X10244934Y-24551176D01*
X10259220Y-24536890D01*
X10287791Y-24522604D01*
X10502077Y-24551176D02*
X10516363Y-24536890D01*
X10544934Y-24522604D01*
X10616363Y-24522604D01*
X10644934Y-24536890D01*
X10659220Y-24551176D01*
X10673506Y-24579747D01*
X10673506Y-24608319D01*
X10659220Y-24651176D01*
X10487791Y-24822604D01*
X10673506Y-24822604D01*
X10930648Y-24622604D02*
X10930648Y-24822604D01*
X10859220Y-24508319D02*
X10787791Y-24722604D01*
X10973506Y-24722604D01*
X11073506Y-24522604D02*
X11073506Y-24579747D01*
X11187791Y-24522604D02*
X11187791Y-24579747D01*
X11630648Y-24936890D02*
X11616363Y-24922604D01*
X11587791Y-24879747D01*
X11573506Y-24851176D01*
X11559220Y-24808319D01*
X11544934Y-24736890D01*
X11544934Y-24679747D01*
X11559220Y-24608319D01*
X11573506Y-24565461D01*
X11587791Y-24536890D01*
X11616363Y-24494033D01*
X11630648Y-24479747D01*
X11802077Y-24522604D02*
X11830648Y-24522604D01*
X11859220Y-24536890D01*
X11873506Y-24551176D01*
X11887791Y-24579747D01*
X11902077Y-24636890D01*
X11902077Y-24708319D01*
X11887791Y-24765461D01*
X11873506Y-24794033D01*
X11859220Y-24808319D01*
X11830648Y-24822604D01*
X11802077Y-24822604D01*
X11773506Y-24808319D01*
X11759220Y-24794033D01*
X11744934Y-24765461D01*
X11730648Y-24708319D01*
X11730648Y-24636890D01*
X11744934Y-24579747D01*
X11759220Y-24551176D01*
X11773506Y-24536890D01*
X11802077Y-24522604D01*
X12259220Y-24822604D02*
X12259220Y-24522604D01*
X12387791Y-24822604D02*
X12387791Y-24665461D01*
X12373506Y-24636890D01*
X12344934Y-24622604D01*
X12302077Y-24622604D01*
X12273506Y-24636890D01*
X12259220Y-24651176D01*
X12573506Y-24822604D02*
X12544934Y-24808319D01*
X12530648Y-24794033D01*
X12516363Y-24765461D01*
X12516363Y-24679747D01*
X12530648Y-24651176D01*
X12544934Y-24636890D01*
X12573506Y-24622604D01*
X12616363Y-24622604D01*
X12644934Y-24636890D01*
X12659220Y-24651176D01*
X12673506Y-24679747D01*
X12673506Y-24765461D01*
X12659220Y-24794033D01*
X12644934Y-24808319D01*
X12616363Y-24822604D01*
X12573506Y-24822604D01*
X12844934Y-24822604D02*
X12816363Y-24808319D01*
X12802077Y-24779747D01*
X12802077Y-24522604D01*
X13073506Y-24808319D02*
X13044934Y-24822604D01*
X12987791Y-24822604D01*
X12959220Y-24808319D01*
X12944934Y-24779747D01*
X12944934Y-24665461D01*
X12959220Y-24636890D01*
X12987791Y-24622604D01*
X13044934Y-24622604D01*
X13073506Y-24636890D01*
X13087791Y-24665461D01*
X13087791Y-24694033D01*
X12944934Y-24722604D01*
X13202077Y-24808319D02*
X13230648Y-24822604D01*
X13287791Y-24822604D01*
X13316363Y-24808319D01*
X13330648Y-24779747D01*
X13330648Y-24765461D01*
X13316363Y-24736890D01*
X13287791Y-24722604D01*
X13244934Y-24722604D01*
X13216363Y-24708319D01*
X13202077Y-24679747D01*
X13202077Y-24665461D01*
X13216363Y-24636890D01*
X13244934Y-24622604D01*
X13287791Y-24622604D01*
X13316363Y-24636890D01*
X13687791Y-24708319D02*
X13916363Y-24708319D01*
X13802077Y-24822604D02*
X13802077Y-24594033D01*
X14273506Y-24551176D02*
X14287791Y-24536890D01*
X14316363Y-24522604D01*
X14387791Y-24522604D01*
X14416363Y-24536890D01*
X14430648Y-24551176D01*
X14444934Y-24579747D01*
X14444934Y-24608319D01*
X14430648Y-24651176D01*
X14259220Y-24822604D01*
X14444934Y-24822604D01*
X14787791Y-24808319D02*
X14816363Y-24822604D01*
X14873506Y-24822604D01*
X14902077Y-24808319D01*
X14916363Y-24779747D01*
X14916363Y-24765461D01*
X14902077Y-24736890D01*
X14873506Y-24722604D01*
X14830648Y-24722604D01*
X14802077Y-24708319D01*
X14787791Y-24679747D01*
X14787791Y-24665461D01*
X14802077Y-24636890D01*
X14830648Y-24622604D01*
X14873506Y-24622604D01*
X14902077Y-24636890D01*
X15087791Y-24822604D02*
X15059220Y-24808319D01*
X15044934Y-24779747D01*
X15044934Y-24522604D01*
X15244934Y-24822604D02*
X15216363Y-24808319D01*
X15202077Y-24794033D01*
X15187791Y-24765461D01*
X15187791Y-24679747D01*
X15202077Y-24651176D01*
X15216363Y-24636890D01*
X15244934Y-24622604D01*
X15287791Y-24622604D01*
X15316363Y-24636890D01*
X15330648Y-24651176D01*
X15344934Y-24679747D01*
X15344934Y-24765461D01*
X15330648Y-24794033D01*
X15316363Y-24808319D01*
X15287791Y-24822604D01*
X15244934Y-24822604D01*
X15430648Y-24622604D02*
X15544934Y-24622604D01*
X15473506Y-24522604D02*
X15473506Y-24779747D01*
X15487791Y-24808319D01*
X15516363Y-24822604D01*
X15544934Y-24822604D01*
X15630648Y-24808319D02*
X15659220Y-24822604D01*
X15716363Y-24822604D01*
X15744934Y-24808319D01*
X15759220Y-24779747D01*
X15759220Y-24765461D01*
X15744934Y-24736890D01*
X15716363Y-24722604D01*
X15673506Y-24722604D01*
X15644934Y-24708319D01*
X15630648Y-24679747D01*
X15630648Y-24665461D01*
X15644934Y-24636890D01*
X15673506Y-24622604D01*
X15716363Y-24622604D01*
X15744934Y-24636890D01*
X15859220Y-24936890D02*
X15873506Y-24922604D01*
X15902077Y-24879747D01*
X15916363Y-24851176D01*
X15930648Y-24808319D01*
X15944934Y-24736890D01*
X15944934Y-24679747D01*
X15930648Y-24608319D01*
X15916363Y-24565461D01*
X15902077Y-24536890D01*
X15873506Y-24494033D01*
X15859220Y-24479747D01*
X6934701Y-25105871D02*
X6934701Y-25059909D01*
X6888739Y-25059909D01*
X6888739Y-25105871D01*
X6934701Y-25105871D01*
X7287791Y-24918604D02*
X7316363Y-24918604D01*
X7344934Y-24932890D01*
X7359220Y-24947176D01*
X7373506Y-24975747D01*
X7387791Y-25032890D01*
X7387791Y-25104319D01*
X7373506Y-25161461D01*
X7359220Y-25190033D01*
X7344934Y-25204319D01*
X7316363Y-25218604D01*
X7287791Y-25218604D01*
X7259220Y-25204319D01*
X7244934Y-25190033D01*
X7230648Y-25161461D01*
X7216363Y-25104319D01*
X7216363Y-25032890D01*
X7230648Y-24975747D01*
X7244934Y-24947176D01*
X7259220Y-24932890D01*
X7287791Y-24918604D01*
X7516363Y-25190033D02*
X7530648Y-25204319D01*
X7516363Y-25218604D01*
X7502077Y-25204319D01*
X7516363Y-25190033D01*
X7516363Y-25218604D01*
X7787791Y-24918604D02*
X7730648Y-24918604D01*
X7702077Y-24932890D01*
X7687791Y-24947176D01*
X7659220Y-24990033D01*
X7644934Y-25047176D01*
X7644934Y-25161461D01*
X7659220Y-25190033D01*
X7673506Y-25204319D01*
X7702077Y-25218604D01*
X7759220Y-25218604D01*
X7787791Y-25204319D01*
X7802077Y-25190033D01*
X7816363Y-25161461D01*
X7816363Y-25090033D01*
X7802077Y-25061461D01*
X7787791Y-25047176D01*
X7759220Y-25032890D01*
X7702077Y-25032890D01*
X7673506Y-25047176D01*
X7659220Y-25061461D01*
X7644934Y-25090033D01*
X8087791Y-24918604D02*
X7944934Y-24918604D01*
X7930648Y-25061461D01*
X7944934Y-25047176D01*
X7973506Y-25032890D01*
X8044934Y-25032890D01*
X8073506Y-25047176D01*
X8087791Y-25061461D01*
X8102077Y-25090033D01*
X8102077Y-25161461D01*
X8087791Y-25190033D01*
X8073506Y-25204319D01*
X8044934Y-25218604D01*
X7973506Y-25218604D01*
X7944934Y-25204319D01*
X7930648Y-25190033D01*
X8230648Y-25218604D02*
X8230648Y-25018604D01*
X8230648Y-25047176D02*
X8244934Y-25032890D01*
X8273506Y-25018604D01*
X8316363Y-25018604D01*
X8344934Y-25032890D01*
X8359220Y-25061461D01*
X8359220Y-25218604D01*
X8359220Y-25061461D02*
X8373506Y-25032890D01*
X8402077Y-25018604D01*
X8444934Y-25018604D01*
X8473506Y-25032890D01*
X8487791Y-25061461D01*
X8487791Y-25218604D01*
X8630648Y-25218604D02*
X8630648Y-25018604D01*
X8630648Y-25047176D02*
X8644934Y-25032890D01*
X8673506Y-25018604D01*
X8716363Y-25018604D01*
X8744934Y-25032890D01*
X8759220Y-25061461D01*
X8759220Y-25218604D01*
X8759220Y-25061461D02*
X8773506Y-25032890D01*
X8802077Y-25018604D01*
X8844934Y-25018604D01*
X8873506Y-25032890D01*
X8887791Y-25061461D01*
X8887791Y-25218604D01*
X9473506Y-24904319D02*
X9216363Y-25290033D01*
X9859220Y-24918604D02*
X9887791Y-24918604D01*
X9916363Y-24932890D01*
X9930648Y-24947176D01*
X9944934Y-24975747D01*
X9959220Y-25032890D01*
X9959220Y-25104319D01*
X9944934Y-25161461D01*
X9930648Y-25190033D01*
X9916363Y-25204319D01*
X9887791Y-25218604D01*
X9859220Y-25218604D01*
X9830648Y-25204319D01*
X9816363Y-25190033D01*
X9802077Y-25161461D01*
X9787791Y-25104319D01*
X9787791Y-25032890D01*
X9802077Y-24975747D01*
X9816363Y-24947176D01*
X9830648Y-24932890D01*
X9859220Y-24918604D01*
X10087791Y-25190033D02*
X10102077Y-25204319D01*
X10087791Y-25218604D01*
X10073506Y-25204319D01*
X10087791Y-25190033D01*
X10087791Y-25218604D01*
X10287791Y-24918604D02*
X10316363Y-24918604D01*
X10344934Y-24932890D01*
X10359220Y-24947176D01*
X10373506Y-24975747D01*
X10387791Y-25032890D01*
X10387791Y-25104319D01*
X10373506Y-25161461D01*
X10359220Y-25190033D01*
X10344934Y-25204319D01*
X10316363Y-25218604D01*
X10287791Y-25218604D01*
X10259220Y-25204319D01*
X10244934Y-25190033D01*
X10230648Y-25161461D01*
X10216363Y-25104319D01*
X10216363Y-25032890D01*
X10230648Y-24975747D01*
X10244934Y-24947176D01*
X10259220Y-24932890D01*
X10287791Y-24918604D01*
X10502077Y-24947176D02*
X10516363Y-24932890D01*
X10544934Y-24918604D01*
X10616363Y-24918604D01*
X10644934Y-24932890D01*
X10659220Y-24947176D01*
X10673506Y-24975747D01*
X10673506Y-25004319D01*
X10659220Y-25047176D01*
X10487791Y-25218604D01*
X10673506Y-25218604D01*
X10930648Y-24918604D02*
X10873506Y-24918604D01*
X10844934Y-24932890D01*
X10830648Y-24947176D01*
X10802077Y-24990033D01*
X10787791Y-25047176D01*
X10787791Y-25161461D01*
X10802077Y-25190033D01*
X10816363Y-25204319D01*
X10844934Y-25218604D01*
X10902077Y-25218604D01*
X10930648Y-25204319D01*
X10944934Y-25190033D01*
X10959220Y-25161461D01*
X10959220Y-25090033D01*
X10944934Y-25061461D01*
X10930648Y-25047176D01*
X10902077Y-25032890D01*
X10844934Y-25032890D01*
X10816363Y-25047176D01*
X10802077Y-25061461D01*
X10787791Y-25090033D01*
X11073506Y-24918604D02*
X11073506Y-24975747D01*
X11187791Y-24918604D02*
X11187791Y-24975747D01*
X11630648Y-25332890D02*
X11616363Y-25318604D01*
X11587791Y-25275747D01*
X11573506Y-25247176D01*
X11559220Y-25204319D01*
X11544934Y-25132890D01*
X11544934Y-25075747D01*
X11559220Y-25004319D01*
X11573506Y-24961461D01*
X11587791Y-24932890D01*
X11616363Y-24890033D01*
X11630648Y-24875747D01*
X11802077Y-24918604D02*
X11830648Y-24918604D01*
X11859220Y-24932890D01*
X11873506Y-24947176D01*
X11887791Y-24975747D01*
X11902077Y-25032890D01*
X11902077Y-25104319D01*
X11887791Y-25161461D01*
X11873506Y-25190033D01*
X11859220Y-25204319D01*
X11830648Y-25218604D01*
X11802077Y-25218604D01*
X11773506Y-25204319D01*
X11759220Y-25190033D01*
X11744934Y-25161461D01*
X11730648Y-25104319D01*
X11730648Y-25032890D01*
X11744934Y-24975747D01*
X11759220Y-24947176D01*
X11773506Y-24932890D01*
X11802077Y-24918604D01*
X12259220Y-25218604D02*
X12259220Y-24918604D01*
X12387791Y-25218604D02*
X12387791Y-25061461D01*
X12373506Y-25032890D01*
X12344934Y-25018604D01*
X12302077Y-25018604D01*
X12273506Y-25032890D01*
X12259220Y-25047176D01*
X12573506Y-25218604D02*
X12544934Y-25204319D01*
X12530648Y-25190033D01*
X12516363Y-25161461D01*
X12516363Y-25075747D01*
X12530648Y-25047176D01*
X12544934Y-25032890D01*
X12573506Y-25018604D01*
X12616363Y-25018604D01*
X12644934Y-25032890D01*
X12659220Y-25047176D01*
X12673506Y-25075747D01*
X12673506Y-25161461D01*
X12659220Y-25190033D01*
X12644934Y-25204319D01*
X12616363Y-25218604D01*
X12573506Y-25218604D01*
X12844934Y-25218604D02*
X12816363Y-25204319D01*
X12802077Y-25175747D01*
X12802077Y-24918604D01*
X13073506Y-25204319D02*
X13044934Y-25218604D01*
X12987791Y-25218604D01*
X12959220Y-25204319D01*
X12944934Y-25175747D01*
X12944934Y-25061461D01*
X12959220Y-25032890D01*
X12987791Y-25018604D01*
X13044934Y-25018604D01*
X13073506Y-25032890D01*
X13087791Y-25061461D01*
X13087791Y-25090033D01*
X12944934Y-25118604D01*
X13202077Y-25204319D02*
X13230648Y-25218604D01*
X13287791Y-25218604D01*
X13316363Y-25204319D01*
X13330648Y-25175747D01*
X13330648Y-25161461D01*
X13316363Y-25132890D01*
X13287791Y-25118604D01*
X13244934Y-25118604D01*
X13216363Y-25104319D01*
X13202077Y-25075747D01*
X13202077Y-25061461D01*
X13216363Y-25032890D01*
X13244934Y-25018604D01*
X13287791Y-25018604D01*
X13316363Y-25032890D01*
X13687791Y-25104319D02*
X13916363Y-25104319D01*
X13802077Y-25218604D02*
X13802077Y-24990033D01*
X14273506Y-24947176D02*
X14287791Y-24932890D01*
X14316363Y-24918604D01*
X14387791Y-24918604D01*
X14416363Y-24932890D01*
X14430648Y-24947176D01*
X14444934Y-24975747D01*
X14444934Y-25004319D01*
X14430648Y-25047176D01*
X14259220Y-25218604D01*
X14444934Y-25218604D01*
X14787791Y-25204319D02*
X14816363Y-25218604D01*
X14873506Y-25218604D01*
X14902077Y-25204319D01*
X14916363Y-25175747D01*
X14916363Y-25161461D01*
X14902077Y-25132890D01*
X14873506Y-25118604D01*
X14830648Y-25118604D01*
X14802077Y-25104319D01*
X14787791Y-25075747D01*
X14787791Y-25061461D01*
X14802077Y-25032890D01*
X14830648Y-25018604D01*
X14873506Y-25018604D01*
X14902077Y-25032890D01*
X15087791Y-25218604D02*
X15059220Y-25204319D01*
X15044934Y-25175747D01*
X15044934Y-24918604D01*
X15244934Y-25218604D02*
X15216363Y-25204319D01*
X15202077Y-25190033D01*
X15187791Y-25161461D01*
X15187791Y-25075747D01*
X15202077Y-25047176D01*
X15216363Y-25032890D01*
X15244934Y-25018604D01*
X15287791Y-25018604D01*
X15316363Y-25032890D01*
X15330648Y-25047176D01*
X15344934Y-25075747D01*
X15344934Y-25161461D01*
X15330648Y-25190033D01*
X15316363Y-25204319D01*
X15287791Y-25218604D01*
X15244934Y-25218604D01*
X15430648Y-25018604D02*
X15544934Y-25018604D01*
X15473506Y-24918604D02*
X15473506Y-25175747D01*
X15487791Y-25204319D01*
X15516363Y-25218604D01*
X15544934Y-25218604D01*
X15630648Y-25204319D02*
X15659220Y-25218604D01*
X15716363Y-25218604D01*
X15744934Y-25204319D01*
X15759220Y-25175747D01*
X15759220Y-25161461D01*
X15744934Y-25132890D01*
X15716363Y-25118604D01*
X15673506Y-25118604D01*
X15644934Y-25104319D01*
X15630648Y-25075747D01*
X15630648Y-25061461D01*
X15644934Y-25032890D01*
X15673506Y-25018604D01*
X15716363Y-25018604D01*
X15744934Y-25032890D01*
X15859220Y-25332890D02*
X15873506Y-25318604D01*
X15902077Y-25275747D01*
X15916363Y-25247176D01*
X15930648Y-25204319D01*
X15944934Y-25132890D01*
X15944934Y-25075747D01*
X15930648Y-25004319D01*
X15916363Y-24961461D01*
X15902077Y-24932890D01*
X15873506Y-24890033D01*
X15859220Y-24875747D01*
X6899220Y-25523890D02*
X6944220Y-25478890D01*
X6899220Y-25433890D01*
X6854220Y-25478890D01*
X6899220Y-25523890D01*
X7287791Y-25314604D02*
X7316363Y-25314604D01*
X7344934Y-25328890D01*
X7359220Y-25343176D01*
X7373506Y-25371747D01*
X7387791Y-25428890D01*
X7387791Y-25500319D01*
X7373506Y-25557461D01*
X7359220Y-25586033D01*
X7344934Y-25600319D01*
X7316363Y-25614604D01*
X7287791Y-25614604D01*
X7259220Y-25600319D01*
X7244934Y-25586033D01*
X7230648Y-25557461D01*
X7216363Y-25500319D01*
X7216363Y-25428890D01*
X7230648Y-25371747D01*
X7244934Y-25343176D01*
X7259220Y-25328890D01*
X7287791Y-25314604D01*
X7516363Y-25586033D02*
X7530648Y-25600319D01*
X7516363Y-25614604D01*
X7502077Y-25600319D01*
X7516363Y-25586033D01*
X7516363Y-25614604D01*
X7673506Y-25614604D02*
X7730648Y-25614604D01*
X7759220Y-25600319D01*
X7773506Y-25586033D01*
X7802077Y-25543176D01*
X7816363Y-25486033D01*
X7816363Y-25371747D01*
X7802077Y-25343176D01*
X7787791Y-25328890D01*
X7759220Y-25314604D01*
X7702077Y-25314604D01*
X7673506Y-25328890D01*
X7659220Y-25343176D01*
X7644934Y-25371747D01*
X7644934Y-25443176D01*
X7659220Y-25471747D01*
X7673506Y-25486033D01*
X7702077Y-25500319D01*
X7759220Y-25500319D01*
X7787791Y-25486033D01*
X7802077Y-25471747D01*
X7816363Y-25443176D01*
X8002077Y-25314604D02*
X8030648Y-25314604D01*
X8059220Y-25328890D01*
X8073506Y-25343176D01*
X8087791Y-25371747D01*
X8102077Y-25428890D01*
X8102077Y-25500319D01*
X8087791Y-25557461D01*
X8073506Y-25586033D01*
X8059220Y-25600319D01*
X8030648Y-25614604D01*
X8002077Y-25614604D01*
X7973506Y-25600319D01*
X7959220Y-25586033D01*
X7944934Y-25557461D01*
X7930648Y-25500319D01*
X7930648Y-25428890D01*
X7944934Y-25371747D01*
X7959220Y-25343176D01*
X7973506Y-25328890D01*
X8002077Y-25314604D01*
X8230648Y-25614604D02*
X8230648Y-25414604D01*
X8230648Y-25443176D02*
X8244934Y-25428890D01*
X8273506Y-25414604D01*
X8316363Y-25414604D01*
X8344934Y-25428890D01*
X8359220Y-25457461D01*
X8359220Y-25614604D01*
X8359220Y-25457461D02*
X8373506Y-25428890D01*
X8402077Y-25414604D01*
X8444934Y-25414604D01*
X8473506Y-25428890D01*
X8487791Y-25457461D01*
X8487791Y-25614604D01*
X8630648Y-25614604D02*
X8630648Y-25414604D01*
X8630648Y-25443176D02*
X8644934Y-25428890D01*
X8673506Y-25414604D01*
X8716363Y-25414604D01*
X8744934Y-25428890D01*
X8759220Y-25457461D01*
X8759220Y-25614604D01*
X8759220Y-25457461D02*
X8773506Y-25428890D01*
X8802077Y-25414604D01*
X8844934Y-25414604D01*
X8873506Y-25428890D01*
X8887791Y-25457461D01*
X8887791Y-25614604D01*
X9473506Y-25300319D02*
X9216363Y-25686033D01*
X9859220Y-25314604D02*
X9887791Y-25314604D01*
X9916363Y-25328890D01*
X9930648Y-25343176D01*
X9944934Y-25371747D01*
X9959220Y-25428890D01*
X9959220Y-25500319D01*
X9944934Y-25557461D01*
X9930648Y-25586033D01*
X9916363Y-25600319D01*
X9887791Y-25614604D01*
X9859220Y-25614604D01*
X9830648Y-25600319D01*
X9816363Y-25586033D01*
X9802077Y-25557461D01*
X9787791Y-25500319D01*
X9787791Y-25428890D01*
X9802077Y-25371747D01*
X9816363Y-25343176D01*
X9830648Y-25328890D01*
X9859220Y-25314604D01*
X10087791Y-25586033D02*
X10102077Y-25600319D01*
X10087791Y-25614604D01*
X10073506Y-25600319D01*
X10087791Y-25586033D01*
X10087791Y-25614604D01*
X10287791Y-25314604D02*
X10316363Y-25314604D01*
X10344934Y-25328890D01*
X10359220Y-25343176D01*
X10373506Y-25371747D01*
X10387791Y-25428890D01*
X10387791Y-25500319D01*
X10373506Y-25557461D01*
X10359220Y-25586033D01*
X10344934Y-25600319D01*
X10316363Y-25614604D01*
X10287791Y-25614604D01*
X10259220Y-25600319D01*
X10244934Y-25586033D01*
X10230648Y-25557461D01*
X10216363Y-25500319D01*
X10216363Y-25428890D01*
X10230648Y-25371747D01*
X10244934Y-25343176D01*
X10259220Y-25328890D01*
X10287791Y-25314604D01*
X10487791Y-25314604D02*
X10673506Y-25314604D01*
X10573506Y-25428890D01*
X10616363Y-25428890D01*
X10644934Y-25443176D01*
X10659220Y-25457461D01*
X10673506Y-25486033D01*
X10673506Y-25557461D01*
X10659220Y-25586033D01*
X10644934Y-25600319D01*
X10616363Y-25614604D01*
X10530648Y-25614604D01*
X10502077Y-25600319D01*
X10487791Y-25586033D01*
X10944934Y-25314604D02*
X10802077Y-25314604D01*
X10787791Y-25457461D01*
X10802077Y-25443176D01*
X10830648Y-25428890D01*
X10902077Y-25428890D01*
X10930648Y-25443176D01*
X10944934Y-25457461D01*
X10959220Y-25486033D01*
X10959220Y-25557461D01*
X10944934Y-25586033D01*
X10930648Y-25600319D01*
X10902077Y-25614604D01*
X10830648Y-25614604D01*
X10802077Y-25600319D01*
X10787791Y-25586033D01*
X11073506Y-25314604D02*
X11073506Y-25371747D01*
X11187791Y-25314604D02*
X11187791Y-25371747D01*
X11630648Y-25728890D02*
X11616363Y-25714604D01*
X11587791Y-25671747D01*
X11573506Y-25643176D01*
X11559220Y-25600319D01*
X11544934Y-25528890D01*
X11544934Y-25471747D01*
X11559220Y-25400319D01*
X11573506Y-25357461D01*
X11587791Y-25328890D01*
X11616363Y-25286033D01*
X11630648Y-25271747D01*
X11730648Y-25343176D02*
X11744934Y-25328890D01*
X11773506Y-25314604D01*
X11844934Y-25314604D01*
X11873506Y-25328890D01*
X11887791Y-25343176D01*
X11902077Y-25371747D01*
X11902077Y-25400319D01*
X11887791Y-25443176D01*
X11716363Y-25614604D01*
X11902077Y-25614604D01*
X12159220Y-25414604D02*
X12159220Y-25614604D01*
X12087791Y-25300319D02*
X12016363Y-25514604D01*
X12202077Y-25514604D01*
X12544934Y-25614604D02*
X12544934Y-25314604D01*
X12673506Y-25614604D02*
X12673506Y-25457461D01*
X12659220Y-25428890D01*
X12630648Y-25414604D01*
X12587791Y-25414604D01*
X12559220Y-25428890D01*
X12544934Y-25443176D01*
X12859220Y-25614604D02*
X12830648Y-25600319D01*
X12816363Y-25586033D01*
X12802077Y-25557461D01*
X12802077Y-25471747D01*
X12816363Y-25443176D01*
X12830648Y-25428890D01*
X12859220Y-25414604D01*
X12902077Y-25414604D01*
X12930648Y-25428890D01*
X12944934Y-25443176D01*
X12959220Y-25471747D01*
X12959220Y-25557461D01*
X12944934Y-25586033D01*
X12930648Y-25600319D01*
X12902077Y-25614604D01*
X12859220Y-25614604D01*
X13130648Y-25614604D02*
X13102077Y-25600319D01*
X13087791Y-25571747D01*
X13087791Y-25314604D01*
X13359220Y-25600319D02*
X13330648Y-25614604D01*
X13273506Y-25614604D01*
X13244934Y-25600319D01*
X13230648Y-25571747D01*
X13230648Y-25457461D01*
X13244934Y-25428890D01*
X13273506Y-25414604D01*
X13330648Y-25414604D01*
X13359220Y-25428890D01*
X13373506Y-25457461D01*
X13373506Y-25486033D01*
X13230648Y-25514604D01*
X13487791Y-25600319D02*
X13516363Y-25614604D01*
X13573506Y-25614604D01*
X13602077Y-25600319D01*
X13616363Y-25571747D01*
X13616363Y-25557461D01*
X13602077Y-25528890D01*
X13573506Y-25514604D01*
X13530648Y-25514604D01*
X13502077Y-25500319D01*
X13487791Y-25471747D01*
X13487791Y-25457461D01*
X13502077Y-25428890D01*
X13530648Y-25414604D01*
X13573506Y-25414604D01*
X13602077Y-25428890D01*
X13716363Y-25728890D02*
X13730648Y-25714604D01*
X13759220Y-25671747D01*
X13773506Y-25643176D01*
X13787791Y-25600319D01*
X13802077Y-25528890D01*
X13802077Y-25471747D01*
X13787791Y-25400319D01*
X13773506Y-25357461D01*
X13759220Y-25328890D01*
X13730648Y-25286033D01*
X13716363Y-25271747D01*
X6844220Y-25824890D02*
X6944220Y-25924890D01*
X6944220Y-25824890D02*
X6844220Y-25924890D01*
X6944220Y-25874890D02*
G75*
G03*
X6944220Y-25874890I-50000J0D01*
G01*
X7387791Y-26010604D02*
X7216363Y-26010604D01*
X7302077Y-26010604D02*
X7302077Y-25710604D01*
X7273506Y-25753461D01*
X7244934Y-25782033D01*
X7216363Y-25796319D01*
X7516363Y-25982033D02*
X7530648Y-25996319D01*
X7516363Y-26010604D01*
X7502077Y-25996319D01*
X7516363Y-25982033D01*
X7516363Y-26010604D01*
X7716363Y-25710604D02*
X7744934Y-25710604D01*
X7773506Y-25724890D01*
X7787791Y-25739176D01*
X7802077Y-25767747D01*
X7816363Y-25824890D01*
X7816363Y-25896319D01*
X7802077Y-25953461D01*
X7787791Y-25982033D01*
X7773506Y-25996319D01*
X7744934Y-26010604D01*
X7716363Y-26010604D01*
X7687791Y-25996319D01*
X7673506Y-25982033D01*
X7659220Y-25953461D01*
X7644934Y-25896319D01*
X7644934Y-25824890D01*
X7659220Y-25767747D01*
X7673506Y-25739176D01*
X7687791Y-25724890D01*
X7716363Y-25710604D01*
X8002077Y-25710604D02*
X8030648Y-25710604D01*
X8059220Y-25724890D01*
X8073506Y-25739176D01*
X8087791Y-25767747D01*
X8102077Y-25824890D01*
X8102077Y-25896319D01*
X8087791Y-25953461D01*
X8073506Y-25982033D01*
X8059220Y-25996319D01*
X8030648Y-26010604D01*
X8002077Y-26010604D01*
X7973506Y-25996319D01*
X7959220Y-25982033D01*
X7944934Y-25953461D01*
X7930648Y-25896319D01*
X7930648Y-25824890D01*
X7944934Y-25767747D01*
X7959220Y-25739176D01*
X7973506Y-25724890D01*
X8002077Y-25710604D01*
X8230648Y-26010604D02*
X8230648Y-25810604D01*
X8230648Y-25839176D02*
X8244934Y-25824890D01*
X8273506Y-25810604D01*
X8316363Y-25810604D01*
X8344934Y-25824890D01*
X8359220Y-25853461D01*
X8359220Y-26010604D01*
X8359220Y-25853461D02*
X8373506Y-25824890D01*
X8402077Y-25810604D01*
X8444934Y-25810604D01*
X8473506Y-25824890D01*
X8487791Y-25853461D01*
X8487791Y-26010604D01*
X8630648Y-26010604D02*
X8630648Y-25810604D01*
X8630648Y-25839176D02*
X8644934Y-25824890D01*
X8673506Y-25810604D01*
X8716363Y-25810604D01*
X8744934Y-25824890D01*
X8759220Y-25853461D01*
X8759220Y-26010604D01*
X8759220Y-25853461D02*
X8773506Y-25824890D01*
X8802077Y-25810604D01*
X8844934Y-25810604D01*
X8873506Y-25824890D01*
X8887791Y-25853461D01*
X8887791Y-26010604D01*
X9473506Y-25696319D02*
X9216363Y-26082033D01*
X9859220Y-25710604D02*
X9887791Y-25710604D01*
X9916363Y-25724890D01*
X9930648Y-25739176D01*
X9944934Y-25767747D01*
X9959220Y-25824890D01*
X9959220Y-25896319D01*
X9944934Y-25953461D01*
X9930648Y-25982033D01*
X9916363Y-25996319D01*
X9887791Y-26010604D01*
X9859220Y-26010604D01*
X9830648Y-25996319D01*
X9816363Y-25982033D01*
X9802077Y-25953461D01*
X9787791Y-25896319D01*
X9787791Y-25824890D01*
X9802077Y-25767747D01*
X9816363Y-25739176D01*
X9830648Y-25724890D01*
X9859220Y-25710604D01*
X10087791Y-25982033D02*
X10102077Y-25996319D01*
X10087791Y-26010604D01*
X10073506Y-25996319D01*
X10087791Y-25982033D01*
X10087791Y-26010604D01*
X10287791Y-25710604D02*
X10316363Y-25710604D01*
X10344934Y-25724890D01*
X10359220Y-25739176D01*
X10373506Y-25767747D01*
X10387791Y-25824890D01*
X10387791Y-25896319D01*
X10373506Y-25953461D01*
X10359220Y-25982033D01*
X10344934Y-25996319D01*
X10316363Y-26010604D01*
X10287791Y-26010604D01*
X10259220Y-25996319D01*
X10244934Y-25982033D01*
X10230648Y-25953461D01*
X10216363Y-25896319D01*
X10216363Y-25824890D01*
X10230648Y-25767747D01*
X10244934Y-25739176D01*
X10259220Y-25724890D01*
X10287791Y-25710604D01*
X10487791Y-25710604D02*
X10673506Y-25710604D01*
X10573506Y-25824890D01*
X10616363Y-25824890D01*
X10644934Y-25839176D01*
X10659220Y-25853461D01*
X10673506Y-25882033D01*
X10673506Y-25953461D01*
X10659220Y-25982033D01*
X10644934Y-25996319D01*
X10616363Y-26010604D01*
X10530648Y-26010604D01*
X10502077Y-25996319D01*
X10487791Y-25982033D01*
X10816363Y-26010604D02*
X10873506Y-26010604D01*
X10902077Y-25996319D01*
X10916363Y-25982033D01*
X10944934Y-25939176D01*
X10959220Y-25882033D01*
X10959220Y-25767747D01*
X10944934Y-25739176D01*
X10930648Y-25724890D01*
X10902077Y-25710604D01*
X10844934Y-25710604D01*
X10816363Y-25724890D01*
X10802077Y-25739176D01*
X10787791Y-25767747D01*
X10787791Y-25839176D01*
X10802077Y-25867747D01*
X10816363Y-25882033D01*
X10844934Y-25896319D01*
X10902077Y-25896319D01*
X10930648Y-25882033D01*
X10944934Y-25867747D01*
X10959220Y-25839176D01*
X11073506Y-25710604D02*
X11073506Y-25767747D01*
X11187791Y-25710604D02*
X11187791Y-25767747D01*
X11630648Y-26124890D02*
X11616363Y-26110604D01*
X11587791Y-26067747D01*
X11573506Y-26039176D01*
X11559220Y-25996319D01*
X11544934Y-25924890D01*
X11544934Y-25867747D01*
X11559220Y-25796319D01*
X11573506Y-25753461D01*
X11587791Y-25724890D01*
X11616363Y-25682033D01*
X11630648Y-25667747D01*
X11716363Y-25710604D02*
X11916363Y-25710604D01*
X11787791Y-26010604D01*
X12159220Y-25710604D02*
X12102077Y-25710604D01*
X12073506Y-25724890D01*
X12059220Y-25739176D01*
X12030648Y-25782033D01*
X12016363Y-25839176D01*
X12016363Y-25953461D01*
X12030648Y-25982033D01*
X12044934Y-25996319D01*
X12073506Y-26010604D01*
X12130648Y-26010604D01*
X12159220Y-25996319D01*
X12173506Y-25982033D01*
X12187791Y-25953461D01*
X12187791Y-25882033D01*
X12173506Y-25853461D01*
X12159220Y-25839176D01*
X12130648Y-25824890D01*
X12073506Y-25824890D01*
X12044934Y-25839176D01*
X12030648Y-25853461D01*
X12016363Y-25882033D01*
X12544934Y-26010604D02*
X12544934Y-25710604D01*
X12673506Y-26010604D02*
X12673506Y-25853461D01*
X12659220Y-25824890D01*
X12630648Y-25810604D01*
X12587791Y-25810604D01*
X12559220Y-25824890D01*
X12544934Y-25839176D01*
X12859220Y-26010604D02*
X12830648Y-25996319D01*
X12816363Y-25982033D01*
X12802077Y-25953461D01*
X12802077Y-25867747D01*
X12816363Y-25839176D01*
X12830648Y-25824890D01*
X12859220Y-25810604D01*
X12902077Y-25810604D01*
X12930648Y-25824890D01*
X12944934Y-25839176D01*
X12959220Y-25867747D01*
X12959220Y-25953461D01*
X12944934Y-25982033D01*
X12930648Y-25996319D01*
X12902077Y-26010604D01*
X12859220Y-26010604D01*
X13130648Y-26010604D02*
X13102077Y-25996319D01*
X13087791Y-25967747D01*
X13087791Y-25710604D01*
X13359220Y-25996319D02*
X13330648Y-26010604D01*
X13273506Y-26010604D01*
X13244934Y-25996319D01*
X13230648Y-25967747D01*
X13230648Y-25853461D01*
X13244934Y-25824890D01*
X13273506Y-25810604D01*
X13330648Y-25810604D01*
X13359220Y-25824890D01*
X13373506Y-25853461D01*
X13373506Y-25882033D01*
X13230648Y-25910604D01*
X13487791Y-25996319D02*
X13516363Y-26010604D01*
X13573506Y-26010604D01*
X13602077Y-25996319D01*
X13616363Y-25967747D01*
X13616363Y-25953461D01*
X13602077Y-25924890D01*
X13573506Y-25910604D01*
X13530648Y-25910604D01*
X13502077Y-25896319D01*
X13487791Y-25867747D01*
X13487791Y-25853461D01*
X13502077Y-25824890D01*
X13530648Y-25810604D01*
X13573506Y-25810604D01*
X13602077Y-25824890D01*
X13716363Y-26124890D02*
X13730648Y-26110604D01*
X13759220Y-26067747D01*
X13773506Y-26039176D01*
X13787791Y-25996319D01*
X13802077Y-25924890D01*
X13802077Y-25867747D01*
X13787791Y-25796319D01*
X13773506Y-25753461D01*
X13759220Y-25724890D01*
X13730648Y-25682033D01*
X13716363Y-25667747D01*
X6644220Y-26120890D02*
X6944220Y-26420890D01*
X6944220Y-26120890D02*
X6644220Y-26420890D01*
X6794220Y-26120890D02*
X6794220Y-26420890D01*
X6644220Y-26270890D02*
X6944220Y-26270890D01*
X7202077Y-26106604D02*
X7387791Y-26106604D01*
X7287791Y-26220890D01*
X7330648Y-26220890D01*
X7359220Y-26235176D01*
X7373506Y-26249461D01*
X7387791Y-26278033D01*
X7387791Y-26349461D01*
X7373506Y-26378033D01*
X7359220Y-26392319D01*
X7330648Y-26406604D01*
X7244934Y-26406604D01*
X7216363Y-26392319D01*
X7202077Y-26378033D01*
X7516363Y-26378033D02*
X7530648Y-26392319D01*
X7516363Y-26406604D01*
X7502077Y-26392319D01*
X7516363Y-26378033D01*
X7516363Y-26406604D01*
X7716363Y-26106604D02*
X7744934Y-26106604D01*
X7773506Y-26120890D01*
X7787791Y-26135176D01*
X7802077Y-26163747D01*
X7816363Y-26220890D01*
X7816363Y-26292319D01*
X7802077Y-26349461D01*
X7787791Y-26378033D01*
X7773506Y-26392319D01*
X7744934Y-26406604D01*
X7716363Y-26406604D01*
X7687791Y-26392319D01*
X7673506Y-26378033D01*
X7659220Y-26349461D01*
X7644934Y-26292319D01*
X7644934Y-26220890D01*
X7659220Y-26163747D01*
X7673506Y-26135176D01*
X7687791Y-26120890D01*
X7716363Y-26106604D01*
X8002077Y-26106604D02*
X8030648Y-26106604D01*
X8059220Y-26120890D01*
X8073506Y-26135176D01*
X8087791Y-26163747D01*
X8102077Y-26220890D01*
X8102077Y-26292319D01*
X8087791Y-26349461D01*
X8073506Y-26378033D01*
X8059220Y-26392319D01*
X8030648Y-26406604D01*
X8002077Y-26406604D01*
X7973506Y-26392319D01*
X7959220Y-26378033D01*
X7944934Y-26349461D01*
X7930648Y-26292319D01*
X7930648Y-26220890D01*
X7944934Y-26163747D01*
X7959220Y-26135176D01*
X7973506Y-26120890D01*
X8002077Y-26106604D01*
X8230648Y-26406604D02*
X8230648Y-26206604D01*
X8230648Y-26235176D02*
X8244934Y-26220890D01*
X8273506Y-26206604D01*
X8316363Y-26206604D01*
X8344934Y-26220890D01*
X8359220Y-26249461D01*
X8359220Y-26406604D01*
X8359220Y-26249461D02*
X8373506Y-26220890D01*
X8402077Y-26206604D01*
X8444934Y-26206604D01*
X8473506Y-26220890D01*
X8487791Y-26249461D01*
X8487791Y-26406604D01*
X8630648Y-26406604D02*
X8630648Y-26206604D01*
X8630648Y-26235176D02*
X8644934Y-26220890D01*
X8673506Y-26206604D01*
X8716363Y-26206604D01*
X8744934Y-26220890D01*
X8759220Y-26249461D01*
X8759220Y-26406604D01*
X8759220Y-26249461D02*
X8773506Y-26220890D01*
X8802077Y-26206604D01*
X8844934Y-26206604D01*
X8873506Y-26220890D01*
X8887791Y-26249461D01*
X8887791Y-26406604D01*
X9473506Y-26092319D02*
X9216363Y-26478033D01*
X9859220Y-26106604D02*
X9887791Y-26106604D01*
X9916363Y-26120890D01*
X9930648Y-26135176D01*
X9944934Y-26163747D01*
X9959220Y-26220890D01*
X9959220Y-26292319D01*
X9944934Y-26349461D01*
X9930648Y-26378033D01*
X9916363Y-26392319D01*
X9887791Y-26406604D01*
X9859220Y-26406604D01*
X9830648Y-26392319D01*
X9816363Y-26378033D01*
X9802077Y-26349461D01*
X9787791Y-26292319D01*
X9787791Y-26220890D01*
X9802077Y-26163747D01*
X9816363Y-26135176D01*
X9830648Y-26120890D01*
X9859220Y-26106604D01*
X10087791Y-26378033D02*
X10102077Y-26392319D01*
X10087791Y-26406604D01*
X10073506Y-26392319D01*
X10087791Y-26378033D01*
X10087791Y-26406604D01*
X10387791Y-26406604D02*
X10216363Y-26406604D01*
X10302077Y-26406604D02*
X10302077Y-26106604D01*
X10273506Y-26149461D01*
X10244934Y-26178033D01*
X10216363Y-26192319D01*
X10673506Y-26406604D02*
X10502077Y-26406604D01*
X10587791Y-26406604D02*
X10587791Y-26106604D01*
X10559220Y-26149461D01*
X10530648Y-26178033D01*
X10502077Y-26192319D01*
X10844934Y-26235176D02*
X10816363Y-26220890D01*
X10802077Y-26206604D01*
X10787791Y-26178033D01*
X10787791Y-26163747D01*
X10802077Y-26135176D01*
X10816363Y-26120890D01*
X10844934Y-26106604D01*
X10902077Y-26106604D01*
X10930648Y-26120890D01*
X10944934Y-26135176D01*
X10959220Y-26163747D01*
X10959220Y-26178033D01*
X10944934Y-26206604D01*
X10930648Y-26220890D01*
X10902077Y-26235176D01*
X10844934Y-26235176D01*
X10816363Y-26249461D01*
X10802077Y-26263747D01*
X10787791Y-26292319D01*
X10787791Y-26349461D01*
X10802077Y-26378033D01*
X10816363Y-26392319D01*
X10844934Y-26406604D01*
X10902077Y-26406604D01*
X10930648Y-26392319D01*
X10944934Y-26378033D01*
X10959220Y-26349461D01*
X10959220Y-26292319D01*
X10944934Y-26263747D01*
X10930648Y-26249461D01*
X10902077Y-26235176D01*
X11073506Y-26106604D02*
X11073506Y-26163747D01*
X11187791Y-26106604D02*
X11187791Y-26163747D01*
X11630648Y-26520890D02*
X11616363Y-26506604D01*
X11587791Y-26463747D01*
X11573506Y-26435176D01*
X11559220Y-26392319D01*
X11544934Y-26320890D01*
X11544934Y-26263747D01*
X11559220Y-26192319D01*
X11573506Y-26149461D01*
X11587791Y-26120890D01*
X11616363Y-26078033D01*
X11630648Y-26063747D01*
X11873506Y-26106604D02*
X11816363Y-26106604D01*
X11787791Y-26120890D01*
X11773506Y-26135176D01*
X11744934Y-26178033D01*
X11730648Y-26235176D01*
X11730648Y-26349461D01*
X11744934Y-26378033D01*
X11759220Y-26392319D01*
X11787791Y-26406604D01*
X11844934Y-26406604D01*
X11873506Y-26392319D01*
X11887791Y-26378033D01*
X11902077Y-26349461D01*
X11902077Y-26278033D01*
X11887791Y-26249461D01*
X11873506Y-26235176D01*
X11844934Y-26220890D01*
X11787791Y-26220890D01*
X11759220Y-26235176D01*
X11744934Y-26249461D01*
X11730648Y-26278033D01*
X12259220Y-26406604D02*
X12259220Y-26106604D01*
X12387791Y-26406604D02*
X12387791Y-26249461D01*
X12373506Y-26220890D01*
X12344934Y-26206604D01*
X12302077Y-26206604D01*
X12273506Y-26220890D01*
X12259220Y-26235176D01*
X12573506Y-26406604D02*
X12544934Y-26392319D01*
X12530648Y-26378033D01*
X12516363Y-26349461D01*
X12516363Y-26263747D01*
X12530648Y-26235176D01*
X12544934Y-26220890D01*
X12573506Y-26206604D01*
X12616363Y-26206604D01*
X12644934Y-26220890D01*
X12659220Y-26235176D01*
X12673506Y-26263747D01*
X12673506Y-26349461D01*
X12659220Y-26378033D01*
X12644934Y-26392319D01*
X12616363Y-26406604D01*
X12573506Y-26406604D01*
X12844934Y-26406604D02*
X12816363Y-26392319D01*
X12802077Y-26363747D01*
X12802077Y-26106604D01*
X13073506Y-26392319D02*
X13044934Y-26406604D01*
X12987791Y-26406604D01*
X12959220Y-26392319D01*
X12944934Y-26363747D01*
X12944934Y-26249461D01*
X12959220Y-26220890D01*
X12987791Y-26206604D01*
X13044934Y-26206604D01*
X13073506Y-26220890D01*
X13087791Y-26249461D01*
X13087791Y-26278033D01*
X12944934Y-26306604D01*
X13202077Y-26392319D02*
X13230648Y-26406604D01*
X13287791Y-26406604D01*
X13316363Y-26392319D01*
X13330648Y-26363747D01*
X13330648Y-26349461D01*
X13316363Y-26320890D01*
X13287791Y-26306604D01*
X13244934Y-26306604D01*
X13216363Y-26292319D01*
X13202077Y-26263747D01*
X13202077Y-26249461D01*
X13216363Y-26220890D01*
X13244934Y-26206604D01*
X13287791Y-26206604D01*
X13316363Y-26220890D01*
X13430648Y-26520890D02*
X13444934Y-26506604D01*
X13473506Y-26463747D01*
X13487791Y-26435176D01*
X13502077Y-26392319D01*
X13516363Y-26320890D01*
X13516363Y-26263747D01*
X13502077Y-26192319D01*
X13487791Y-26149461D01*
X13473506Y-26120890D01*
X13444934Y-26078033D01*
X13430648Y-26063747D01*
M02*
