%FSLAX45Y45*%
G04 Gerber Fmt 4.5, Leading zero omitted, Abs format (unit mm)*
G04 Created by KiCad (PCBNEW (5.1.9)-1) date 2021-06-08 08:06:19*
%MOMM*%
%LPD*%
G01*
G04 APERTURE LIST*
%TA.AperFunction,Profile*%
%ADD10C,0.038100*%
%TD*%
%TA.AperFunction,Profile*%
%ADD11C,0.050000*%
%TD*%
%ADD12C,0.200000*%
%ADD13C,0.300000*%
G04 APERTURE END LIST*
D10*
X6949440Y-22678390D02*
G75*
G03*
X7203440Y-22932390I254000J0D01*
G01*
X24521160Y-22932390D02*
G75*
G03*
X24777700Y-22675850I0J256540D01*
G01*
X24777659Y-7613530D02*
G75*
G03*
X24521160Y-7364730I-253959J-5200D01*
G01*
X7206100Y-7367284D02*
G75*
G03*
X6949440Y-7621270I-2660J-253986D01*
G01*
D11*
X6949440Y-13436600D02*
X6949440Y-22678390D01*
D10*
X6949440Y-13436600D02*
X6949220Y-13434410D01*
D11*
X6949220Y-12684410D02*
X6949440Y-7621270D01*
X24521160Y-22932390D02*
X7203440Y-22932390D01*
X24777659Y-7613530D02*
X24777713Y-22675850D01*
X7206100Y-7367284D02*
X24521160Y-7364730D01*
D12*
X12098120Y-11818620D02*
X12197180Y-11917680D01*
X12197180Y-11818620D02*
X12098120Y-11917680D01*
X12199620Y-11056620D02*
X12298680Y-11155680D01*
X12298680Y-11056620D02*
X12199620Y-11155680D01*
X12301120Y-11818620D02*
X12400180Y-11917680D01*
X12400180Y-11818620D02*
X12301120Y-11917680D01*
X12113895Y-11106150D02*
G75*
G03*
X12113895Y-11106150I-118745J0D01*
G01*
X12113895Y-11677650D02*
G75*
G03*
X12113895Y-11677650I-118745J0D01*
G01*
X12621895Y-11106150D02*
G75*
G03*
X12621895Y-11106150I-118745J0D01*
G01*
X12621895Y-11677650D02*
G75*
G03*
X12621895Y-11677650I-118745J0D01*
G01*
D13*
X7230648Y-23400604D02*
X7230648Y-23100604D01*
X7302077Y-23100604D01*
X7344934Y-23114890D01*
X7373506Y-23143461D01*
X7387791Y-23172033D01*
X7402077Y-23229176D01*
X7402077Y-23272033D01*
X7387791Y-23329176D01*
X7373506Y-23357747D01*
X7344934Y-23386319D01*
X7302077Y-23400604D01*
X7230648Y-23400604D01*
X7530648Y-23400604D02*
X7530648Y-23200604D01*
X7530648Y-23257747D02*
X7544934Y-23229176D01*
X7559220Y-23214890D01*
X7587791Y-23200604D01*
X7616363Y-23200604D01*
X7716363Y-23400604D02*
X7716363Y-23200604D01*
X7716363Y-23100604D02*
X7702077Y-23114890D01*
X7716363Y-23129176D01*
X7730648Y-23114890D01*
X7716363Y-23100604D01*
X7716363Y-23129176D01*
X7902077Y-23400604D02*
X7873506Y-23386319D01*
X7859220Y-23357747D01*
X7859220Y-23100604D01*
X8059220Y-23400604D02*
X8030648Y-23386319D01*
X8016363Y-23357747D01*
X8016363Y-23100604D01*
X8402077Y-23400604D02*
X8402077Y-23100604D01*
X8502077Y-23314890D01*
X8602077Y-23100604D01*
X8602077Y-23400604D01*
X8873506Y-23400604D02*
X8873506Y-23243461D01*
X8859220Y-23214890D01*
X8830648Y-23200604D01*
X8773506Y-23200604D01*
X8744934Y-23214890D01*
X8873506Y-23386319D02*
X8844934Y-23400604D01*
X8773506Y-23400604D01*
X8744934Y-23386319D01*
X8730648Y-23357747D01*
X8730648Y-23329176D01*
X8744934Y-23300604D01*
X8773506Y-23286319D01*
X8844934Y-23286319D01*
X8873506Y-23272033D01*
X9016363Y-23200604D02*
X9016363Y-23500604D01*
X9016363Y-23214890D02*
X9044934Y-23200604D01*
X9102077Y-23200604D01*
X9130648Y-23214890D01*
X9144934Y-23229176D01*
X9159220Y-23257747D01*
X9159220Y-23343461D01*
X9144934Y-23372033D01*
X9130648Y-23386319D01*
X9102077Y-23400604D01*
X9044934Y-23400604D01*
X9016363Y-23386319D01*
X9287791Y-23372033D02*
X9302077Y-23386319D01*
X9287791Y-23400604D01*
X9273506Y-23386319D01*
X9287791Y-23372033D01*
X9287791Y-23400604D01*
X9287791Y-23214890D02*
X9302077Y-23229176D01*
X9287791Y-23243461D01*
X9273506Y-23229176D01*
X9287791Y-23214890D01*
X9287791Y-23243461D01*
X6845160Y-23845360D02*
X6944220Y-23944420D01*
X6944220Y-23845360D02*
X6845160Y-23944420D01*
X7287791Y-23730604D02*
X7316363Y-23730604D01*
X7344934Y-23744890D01*
X7359220Y-23759176D01*
X7373506Y-23787747D01*
X7387791Y-23844890D01*
X7387791Y-23916319D01*
X7373506Y-23973461D01*
X7359220Y-24002033D01*
X7344934Y-24016319D01*
X7316363Y-24030604D01*
X7287791Y-24030604D01*
X7259220Y-24016319D01*
X7244934Y-24002033D01*
X7230648Y-23973461D01*
X7216363Y-23916319D01*
X7216363Y-23844890D01*
X7230648Y-23787747D01*
X7244934Y-23759176D01*
X7259220Y-23744890D01*
X7287791Y-23730604D01*
X7516363Y-24002033D02*
X7530648Y-24016319D01*
X7516363Y-24030604D01*
X7502077Y-24016319D01*
X7516363Y-24002033D01*
X7516363Y-24030604D01*
X7673506Y-24030604D02*
X7730648Y-24030604D01*
X7759220Y-24016319D01*
X7773506Y-24002033D01*
X7802077Y-23959176D01*
X7816363Y-23902033D01*
X7816363Y-23787747D01*
X7802077Y-23759176D01*
X7787791Y-23744890D01*
X7759220Y-23730604D01*
X7702077Y-23730604D01*
X7673506Y-23744890D01*
X7659220Y-23759176D01*
X7644934Y-23787747D01*
X7644934Y-23859176D01*
X7659220Y-23887747D01*
X7673506Y-23902033D01*
X7702077Y-23916319D01*
X7759220Y-23916319D01*
X7787791Y-23902033D01*
X7802077Y-23887747D01*
X7816363Y-23859176D01*
X7959220Y-24030604D02*
X8016363Y-24030604D01*
X8044934Y-24016319D01*
X8059220Y-24002033D01*
X8087791Y-23959176D01*
X8102077Y-23902033D01*
X8102077Y-23787747D01*
X8087791Y-23759176D01*
X8073506Y-23744890D01*
X8044934Y-23730604D01*
X7987791Y-23730604D01*
X7959220Y-23744890D01*
X7944934Y-23759176D01*
X7930648Y-23787747D01*
X7930648Y-23859176D01*
X7944934Y-23887747D01*
X7959220Y-23902033D01*
X7987791Y-23916319D01*
X8044934Y-23916319D01*
X8073506Y-23902033D01*
X8087791Y-23887747D01*
X8102077Y-23859176D01*
X8230648Y-24030604D02*
X8230648Y-23830604D01*
X8230648Y-23859176D02*
X8244934Y-23844890D01*
X8273506Y-23830604D01*
X8316363Y-23830604D01*
X8344934Y-23844890D01*
X8359220Y-23873461D01*
X8359220Y-24030604D01*
X8359220Y-23873461D02*
X8373506Y-23844890D01*
X8402077Y-23830604D01*
X8444934Y-23830604D01*
X8473506Y-23844890D01*
X8487791Y-23873461D01*
X8487791Y-24030604D01*
X8630648Y-24030604D02*
X8630648Y-23830604D01*
X8630648Y-23859176D02*
X8644934Y-23844890D01*
X8673506Y-23830604D01*
X8716363Y-23830604D01*
X8744934Y-23844890D01*
X8759220Y-23873461D01*
X8759220Y-24030604D01*
X8759220Y-23873461D02*
X8773506Y-23844890D01*
X8802077Y-23830604D01*
X8844934Y-23830604D01*
X8873506Y-23844890D01*
X8887791Y-23873461D01*
X8887791Y-24030604D01*
X9473506Y-23716319D02*
X9216363Y-24102033D01*
X9859220Y-23730604D02*
X9887791Y-23730604D01*
X9916363Y-23744890D01*
X9930648Y-23759176D01*
X9944934Y-23787747D01*
X9959220Y-23844890D01*
X9959220Y-23916319D01*
X9944934Y-23973461D01*
X9930648Y-24002033D01*
X9916363Y-24016319D01*
X9887791Y-24030604D01*
X9859220Y-24030604D01*
X9830648Y-24016319D01*
X9816363Y-24002033D01*
X9802077Y-23973461D01*
X9787791Y-23916319D01*
X9787791Y-23844890D01*
X9802077Y-23787747D01*
X9816363Y-23759176D01*
X9830648Y-23744890D01*
X9859220Y-23730604D01*
X10087791Y-24002033D02*
X10102077Y-24016319D01*
X10087791Y-24030604D01*
X10073506Y-24016319D01*
X10087791Y-24002033D01*
X10087791Y-24030604D01*
X10287791Y-23730604D02*
X10316363Y-23730604D01*
X10344934Y-23744890D01*
X10359220Y-23759176D01*
X10373506Y-23787747D01*
X10387791Y-23844890D01*
X10387791Y-23916319D01*
X10373506Y-23973461D01*
X10359220Y-24002033D01*
X10344934Y-24016319D01*
X10316363Y-24030604D01*
X10287791Y-24030604D01*
X10259220Y-24016319D01*
X10244934Y-24002033D01*
X10230648Y-23973461D01*
X10216363Y-23916319D01*
X10216363Y-23844890D01*
X10230648Y-23787747D01*
X10244934Y-23759176D01*
X10259220Y-23744890D01*
X10287791Y-23730604D01*
X10487791Y-23730604D02*
X10673506Y-23730604D01*
X10573506Y-23844890D01*
X10616363Y-23844890D01*
X10644934Y-23859176D01*
X10659220Y-23873461D01*
X10673506Y-23902033D01*
X10673506Y-23973461D01*
X10659220Y-24002033D01*
X10644934Y-24016319D01*
X10616363Y-24030604D01*
X10530648Y-24030604D01*
X10502077Y-24016319D01*
X10487791Y-24002033D01*
X10816363Y-24030604D02*
X10873506Y-24030604D01*
X10902077Y-24016319D01*
X10916363Y-24002033D01*
X10944934Y-23959176D01*
X10959220Y-23902033D01*
X10959220Y-23787747D01*
X10944934Y-23759176D01*
X10930648Y-23744890D01*
X10902077Y-23730604D01*
X10844934Y-23730604D01*
X10816363Y-23744890D01*
X10802077Y-23759176D01*
X10787791Y-23787747D01*
X10787791Y-23859176D01*
X10802077Y-23887747D01*
X10816363Y-23902033D01*
X10844934Y-23916319D01*
X10902077Y-23916319D01*
X10930648Y-23902033D01*
X10944934Y-23887747D01*
X10959220Y-23859176D01*
X11073506Y-23730604D02*
X11073506Y-23787747D01*
X11187791Y-23730604D02*
X11187791Y-23787747D01*
X11630648Y-24144890D02*
X11616363Y-24130604D01*
X11587791Y-24087747D01*
X11573506Y-24059176D01*
X11559220Y-24016319D01*
X11544934Y-23944890D01*
X11544934Y-23887747D01*
X11559220Y-23816319D01*
X11573506Y-23773461D01*
X11587791Y-23744890D01*
X11616363Y-23702033D01*
X11630648Y-23687747D01*
X11716363Y-23730604D02*
X11902077Y-23730604D01*
X11802077Y-23844890D01*
X11844934Y-23844890D01*
X11873506Y-23859176D01*
X11887791Y-23873461D01*
X11902077Y-23902033D01*
X11902077Y-23973461D01*
X11887791Y-24002033D01*
X11873506Y-24016319D01*
X11844934Y-24030604D01*
X11759220Y-24030604D01*
X11730648Y-24016319D01*
X11716363Y-24002033D01*
X12259220Y-24030604D02*
X12259220Y-23730604D01*
X12387791Y-24030604D02*
X12387791Y-23873461D01*
X12373506Y-23844890D01*
X12344934Y-23830604D01*
X12302077Y-23830604D01*
X12273506Y-23844890D01*
X12259220Y-23859176D01*
X12573506Y-24030604D02*
X12544934Y-24016319D01*
X12530648Y-24002033D01*
X12516363Y-23973461D01*
X12516363Y-23887747D01*
X12530648Y-23859176D01*
X12544934Y-23844890D01*
X12573506Y-23830604D01*
X12616363Y-23830604D01*
X12644934Y-23844890D01*
X12659220Y-23859176D01*
X12673506Y-23887747D01*
X12673506Y-23973461D01*
X12659220Y-24002033D01*
X12644934Y-24016319D01*
X12616363Y-24030604D01*
X12573506Y-24030604D01*
X12844934Y-24030604D02*
X12816363Y-24016319D01*
X12802077Y-23987747D01*
X12802077Y-23730604D01*
X13073506Y-24016319D02*
X13044934Y-24030604D01*
X12987791Y-24030604D01*
X12959220Y-24016319D01*
X12944934Y-23987747D01*
X12944934Y-23873461D01*
X12959220Y-23844890D01*
X12987791Y-23830604D01*
X13044934Y-23830604D01*
X13073506Y-23844890D01*
X13087791Y-23873461D01*
X13087791Y-23902033D01*
X12944934Y-23930604D01*
X13202077Y-24016319D02*
X13230648Y-24030604D01*
X13287791Y-24030604D01*
X13316363Y-24016319D01*
X13330648Y-23987747D01*
X13330648Y-23973461D01*
X13316363Y-23944890D01*
X13287791Y-23930604D01*
X13244934Y-23930604D01*
X13216363Y-23916319D01*
X13202077Y-23887747D01*
X13202077Y-23873461D01*
X13216363Y-23844890D01*
X13244934Y-23830604D01*
X13287791Y-23830604D01*
X13316363Y-23844890D01*
X13430648Y-24144890D02*
X13444934Y-24130604D01*
X13473506Y-24087747D01*
X13487791Y-24059176D01*
X13502077Y-24016319D01*
X13516363Y-23944890D01*
X13516363Y-23887747D01*
X13502077Y-23816319D01*
X13487791Y-23773461D01*
X13473506Y-23744890D01*
X13444934Y-23702033D01*
X13430648Y-23687747D01*
X13973506Y-24144890D02*
X13959220Y-24130604D01*
X13930648Y-24087747D01*
X13916363Y-24059176D01*
X13902077Y-24016319D01*
X13887791Y-23944890D01*
X13887791Y-23887747D01*
X13902077Y-23816319D01*
X13916363Y-23773461D01*
X13930648Y-23744890D01*
X13959220Y-23702033D01*
X13973506Y-23687747D01*
X14087791Y-23830604D02*
X14087791Y-24030604D01*
X14087791Y-23859176D02*
X14102077Y-23844890D01*
X14130648Y-23830604D01*
X14173506Y-23830604D01*
X14202077Y-23844890D01*
X14216363Y-23873461D01*
X14216363Y-24030604D01*
X14402077Y-24030604D02*
X14373506Y-24016319D01*
X14359220Y-24002033D01*
X14344934Y-23973461D01*
X14344934Y-23887747D01*
X14359220Y-23859176D01*
X14373506Y-23844890D01*
X14402077Y-23830604D01*
X14444934Y-23830604D01*
X14473506Y-23844890D01*
X14487791Y-23859176D01*
X14502077Y-23887747D01*
X14502077Y-23973461D01*
X14487791Y-24002033D01*
X14473506Y-24016319D01*
X14444934Y-24030604D01*
X14402077Y-24030604D01*
X14587791Y-23830604D02*
X14702077Y-23830604D01*
X14630648Y-23730604D02*
X14630648Y-23987747D01*
X14644934Y-24016319D01*
X14673506Y-24030604D01*
X14702077Y-24030604D01*
X15030648Y-23830604D02*
X15030648Y-24130604D01*
X15030648Y-23844890D02*
X15059220Y-23830604D01*
X15116363Y-23830604D01*
X15144934Y-23844890D01*
X15159220Y-23859176D01*
X15173506Y-23887747D01*
X15173506Y-23973461D01*
X15159220Y-24002033D01*
X15144934Y-24016319D01*
X15116363Y-24030604D01*
X15059220Y-24030604D01*
X15030648Y-24016319D01*
X15344934Y-24030604D02*
X15316363Y-24016319D01*
X15302077Y-23987747D01*
X15302077Y-23730604D01*
X15587791Y-24030604D02*
X15587791Y-23873461D01*
X15573506Y-23844890D01*
X15544934Y-23830604D01*
X15487791Y-23830604D01*
X15459220Y-23844890D01*
X15587791Y-24016319D02*
X15559220Y-24030604D01*
X15487791Y-24030604D01*
X15459220Y-24016319D01*
X15444934Y-23987747D01*
X15444934Y-23959176D01*
X15459220Y-23930604D01*
X15487791Y-23916319D01*
X15559220Y-23916319D01*
X15587791Y-23902033D01*
X15687791Y-23830604D02*
X15802077Y-23830604D01*
X15730648Y-23730604D02*
X15730648Y-23987747D01*
X15744934Y-24016319D01*
X15773506Y-24030604D01*
X15802077Y-24030604D01*
X16016363Y-24016319D02*
X15987791Y-24030604D01*
X15930648Y-24030604D01*
X15902077Y-24016319D01*
X15887791Y-23987747D01*
X15887791Y-23873461D01*
X15902077Y-23844890D01*
X15930648Y-23830604D01*
X15987791Y-23830604D01*
X16016363Y-23844890D01*
X16030648Y-23873461D01*
X16030648Y-23902033D01*
X15887791Y-23930604D01*
X16287791Y-24030604D02*
X16287791Y-23730604D01*
X16287791Y-24016319D02*
X16259220Y-24030604D01*
X16202077Y-24030604D01*
X16173506Y-24016319D01*
X16159220Y-24002033D01*
X16144934Y-23973461D01*
X16144934Y-23887747D01*
X16159220Y-23859176D01*
X16173506Y-23844890D01*
X16202077Y-23830604D01*
X16259220Y-23830604D01*
X16287791Y-23844890D01*
X16402077Y-24144890D02*
X16416363Y-24130604D01*
X16444934Y-24087747D01*
X16459220Y-24059176D01*
X16473506Y-24016319D01*
X16487791Y-23944890D01*
X16487791Y-23887747D01*
X16473506Y-23816319D01*
X16459220Y-23773461D01*
X16444934Y-23744890D01*
X16416363Y-23702033D01*
X16402077Y-23687747D01*
X6944220Y-24290890D02*
G75*
G03*
X6944220Y-24290890I-118745J0D01*
G01*
X7216363Y-24155176D02*
X7230648Y-24140890D01*
X7259220Y-24126604D01*
X7330648Y-24126604D01*
X7359220Y-24140890D01*
X7373506Y-24155176D01*
X7387791Y-24183747D01*
X7387791Y-24212319D01*
X7373506Y-24255176D01*
X7202077Y-24426604D01*
X7387791Y-24426604D01*
X7516363Y-24398033D02*
X7530648Y-24412319D01*
X7516363Y-24426604D01*
X7502077Y-24412319D01*
X7516363Y-24398033D01*
X7516363Y-24426604D01*
X7630648Y-24126604D02*
X7816363Y-24126604D01*
X7716363Y-24240890D01*
X7759220Y-24240890D01*
X7787791Y-24255176D01*
X7802077Y-24269461D01*
X7816363Y-24298033D01*
X7816363Y-24369461D01*
X7802077Y-24398033D01*
X7787791Y-24412319D01*
X7759220Y-24426604D01*
X7673506Y-24426604D01*
X7644934Y-24412319D01*
X7630648Y-24398033D01*
X7916363Y-24126604D02*
X8116363Y-24126604D01*
X7987791Y-24426604D01*
X8230648Y-24426604D02*
X8230648Y-24226604D01*
X8230648Y-24255176D02*
X8244934Y-24240890D01*
X8273506Y-24226604D01*
X8316363Y-24226604D01*
X8344934Y-24240890D01*
X8359220Y-24269461D01*
X8359220Y-24426604D01*
X8359220Y-24269461D02*
X8373506Y-24240890D01*
X8402077Y-24226604D01*
X8444934Y-24226604D01*
X8473506Y-24240890D01*
X8487791Y-24269461D01*
X8487791Y-24426604D01*
X8630648Y-24426604D02*
X8630648Y-24226604D01*
X8630648Y-24255176D02*
X8644934Y-24240890D01*
X8673506Y-24226604D01*
X8716363Y-24226604D01*
X8744934Y-24240890D01*
X8759220Y-24269461D01*
X8759220Y-24426604D01*
X8759220Y-24269461D02*
X8773506Y-24240890D01*
X8802077Y-24226604D01*
X8844934Y-24226604D01*
X8873506Y-24240890D01*
X8887791Y-24269461D01*
X8887791Y-24426604D01*
X9473506Y-24112319D02*
X9216363Y-24498033D01*
X9859220Y-24126604D02*
X9887791Y-24126604D01*
X9916363Y-24140890D01*
X9930648Y-24155176D01*
X9944934Y-24183747D01*
X9959220Y-24240890D01*
X9959220Y-24312319D01*
X9944934Y-24369461D01*
X9930648Y-24398033D01*
X9916363Y-24412319D01*
X9887791Y-24426604D01*
X9859220Y-24426604D01*
X9830648Y-24412319D01*
X9816363Y-24398033D01*
X9802077Y-24369461D01*
X9787791Y-24312319D01*
X9787791Y-24240890D01*
X9802077Y-24183747D01*
X9816363Y-24155176D01*
X9830648Y-24140890D01*
X9859220Y-24126604D01*
X10087791Y-24398033D02*
X10102077Y-24412319D01*
X10087791Y-24426604D01*
X10073506Y-24412319D01*
X10087791Y-24398033D01*
X10087791Y-24426604D01*
X10287791Y-24126604D02*
X10316363Y-24126604D01*
X10344934Y-24140890D01*
X10359220Y-24155176D01*
X10373506Y-24183747D01*
X10387791Y-24240890D01*
X10387791Y-24312319D01*
X10373506Y-24369461D01*
X10359220Y-24398033D01*
X10344934Y-24412319D01*
X10316363Y-24426604D01*
X10287791Y-24426604D01*
X10259220Y-24412319D01*
X10244934Y-24398033D01*
X10230648Y-24369461D01*
X10216363Y-24312319D01*
X10216363Y-24240890D01*
X10230648Y-24183747D01*
X10244934Y-24155176D01*
X10259220Y-24140890D01*
X10287791Y-24126604D01*
X10530648Y-24426604D02*
X10587791Y-24426604D01*
X10616363Y-24412319D01*
X10630648Y-24398033D01*
X10659220Y-24355176D01*
X10673506Y-24298033D01*
X10673506Y-24183747D01*
X10659220Y-24155176D01*
X10644934Y-24140890D01*
X10616363Y-24126604D01*
X10559220Y-24126604D01*
X10530648Y-24140890D01*
X10516363Y-24155176D01*
X10502077Y-24183747D01*
X10502077Y-24255176D01*
X10516363Y-24283747D01*
X10530648Y-24298033D01*
X10559220Y-24312319D01*
X10616363Y-24312319D01*
X10644934Y-24298033D01*
X10659220Y-24283747D01*
X10673506Y-24255176D01*
X10773506Y-24126604D02*
X10959220Y-24126604D01*
X10859220Y-24240890D01*
X10902077Y-24240890D01*
X10930648Y-24255176D01*
X10944934Y-24269461D01*
X10959220Y-24298033D01*
X10959220Y-24369461D01*
X10944934Y-24398033D01*
X10930648Y-24412319D01*
X10902077Y-24426604D01*
X10816363Y-24426604D01*
X10787791Y-24412319D01*
X10773506Y-24398033D01*
X11073506Y-24126604D02*
X11073506Y-24183747D01*
X11187791Y-24126604D02*
X11187791Y-24183747D01*
X11630648Y-24540890D02*
X11616363Y-24526604D01*
X11587791Y-24483747D01*
X11573506Y-24455176D01*
X11559220Y-24412319D01*
X11544934Y-24340890D01*
X11544934Y-24283747D01*
X11559220Y-24212319D01*
X11573506Y-24169461D01*
X11587791Y-24140890D01*
X11616363Y-24098033D01*
X11630648Y-24083747D01*
X11873506Y-24226604D02*
X11873506Y-24426604D01*
X11802077Y-24112319D02*
X11730648Y-24326604D01*
X11916363Y-24326604D01*
X12259220Y-24426604D02*
X12259220Y-24126604D01*
X12387791Y-24426604D02*
X12387791Y-24269461D01*
X12373506Y-24240890D01*
X12344934Y-24226604D01*
X12302077Y-24226604D01*
X12273506Y-24240890D01*
X12259220Y-24255176D01*
X12573506Y-24426604D02*
X12544934Y-24412319D01*
X12530648Y-24398033D01*
X12516363Y-24369461D01*
X12516363Y-24283747D01*
X12530648Y-24255176D01*
X12544934Y-24240890D01*
X12573506Y-24226604D01*
X12616363Y-24226604D01*
X12644934Y-24240890D01*
X12659220Y-24255176D01*
X12673506Y-24283747D01*
X12673506Y-24369461D01*
X12659220Y-24398033D01*
X12644934Y-24412319D01*
X12616363Y-24426604D01*
X12573506Y-24426604D01*
X12844934Y-24426604D02*
X12816363Y-24412319D01*
X12802077Y-24383747D01*
X12802077Y-24126604D01*
X13073506Y-24412319D02*
X13044934Y-24426604D01*
X12987791Y-24426604D01*
X12959220Y-24412319D01*
X12944934Y-24383747D01*
X12944934Y-24269461D01*
X12959220Y-24240890D01*
X12987791Y-24226604D01*
X13044934Y-24226604D01*
X13073506Y-24240890D01*
X13087791Y-24269461D01*
X13087791Y-24298033D01*
X12944934Y-24326604D01*
X13202077Y-24412319D02*
X13230648Y-24426604D01*
X13287791Y-24426604D01*
X13316363Y-24412319D01*
X13330648Y-24383747D01*
X13330648Y-24369461D01*
X13316363Y-24340890D01*
X13287791Y-24326604D01*
X13244934Y-24326604D01*
X13216363Y-24312319D01*
X13202077Y-24283747D01*
X13202077Y-24269461D01*
X13216363Y-24240890D01*
X13244934Y-24226604D01*
X13287791Y-24226604D01*
X13316363Y-24240890D01*
X13430648Y-24540890D02*
X13444934Y-24526604D01*
X13473506Y-24483747D01*
X13487791Y-24455176D01*
X13502077Y-24412319D01*
X13516363Y-24340890D01*
X13516363Y-24283747D01*
X13502077Y-24212319D01*
X13487791Y-24169461D01*
X13473506Y-24140890D01*
X13444934Y-24098033D01*
X13430648Y-24083747D01*
X13973506Y-24540890D02*
X13959220Y-24526604D01*
X13930648Y-24483747D01*
X13916363Y-24455176D01*
X13902077Y-24412319D01*
X13887791Y-24340890D01*
X13887791Y-24283747D01*
X13902077Y-24212319D01*
X13916363Y-24169461D01*
X13930648Y-24140890D01*
X13959220Y-24098033D01*
X13973506Y-24083747D01*
X14087791Y-24226604D02*
X14087791Y-24426604D01*
X14087791Y-24255176D02*
X14102077Y-24240890D01*
X14130648Y-24226604D01*
X14173506Y-24226604D01*
X14202077Y-24240890D01*
X14216363Y-24269461D01*
X14216363Y-24426604D01*
X14402077Y-24426604D02*
X14373506Y-24412319D01*
X14359220Y-24398033D01*
X14344934Y-24369461D01*
X14344934Y-24283747D01*
X14359220Y-24255176D01*
X14373506Y-24240890D01*
X14402077Y-24226604D01*
X14444934Y-24226604D01*
X14473506Y-24240890D01*
X14487791Y-24255176D01*
X14502077Y-24283747D01*
X14502077Y-24369461D01*
X14487791Y-24398033D01*
X14473506Y-24412319D01*
X14444934Y-24426604D01*
X14402077Y-24426604D01*
X14587791Y-24226604D02*
X14702077Y-24226604D01*
X14630648Y-24126604D02*
X14630648Y-24383747D01*
X14644934Y-24412319D01*
X14673506Y-24426604D01*
X14702077Y-24426604D01*
X15030648Y-24226604D02*
X15030648Y-24526604D01*
X15030648Y-24240890D02*
X15059220Y-24226604D01*
X15116363Y-24226604D01*
X15144934Y-24240890D01*
X15159220Y-24255176D01*
X15173506Y-24283747D01*
X15173506Y-24369461D01*
X15159220Y-24398033D01*
X15144934Y-24412319D01*
X15116363Y-24426604D01*
X15059220Y-24426604D01*
X15030648Y-24412319D01*
X15344934Y-24426604D02*
X15316363Y-24412319D01*
X15302077Y-24383747D01*
X15302077Y-24126604D01*
X15587791Y-24426604D02*
X15587791Y-24269461D01*
X15573506Y-24240890D01*
X15544934Y-24226604D01*
X15487791Y-24226604D01*
X15459220Y-24240890D01*
X15587791Y-24412319D02*
X15559220Y-24426604D01*
X15487791Y-24426604D01*
X15459220Y-24412319D01*
X15444934Y-24383747D01*
X15444934Y-24355176D01*
X15459220Y-24326604D01*
X15487791Y-24312319D01*
X15559220Y-24312319D01*
X15587791Y-24298033D01*
X15687791Y-24226604D02*
X15802077Y-24226604D01*
X15730648Y-24126604D02*
X15730648Y-24383747D01*
X15744934Y-24412319D01*
X15773506Y-24426604D01*
X15802077Y-24426604D01*
X16016363Y-24412319D02*
X15987791Y-24426604D01*
X15930648Y-24426604D01*
X15902077Y-24412319D01*
X15887791Y-24383747D01*
X15887791Y-24269461D01*
X15902077Y-24240890D01*
X15930648Y-24226604D01*
X15987791Y-24226604D01*
X16016363Y-24240890D01*
X16030648Y-24269461D01*
X16030648Y-24298033D01*
X15887791Y-24326604D01*
X16287791Y-24426604D02*
X16287791Y-24126604D01*
X16287791Y-24412319D02*
X16259220Y-24426604D01*
X16202077Y-24426604D01*
X16173506Y-24412319D01*
X16159220Y-24398033D01*
X16144934Y-24369461D01*
X16144934Y-24283747D01*
X16159220Y-24255176D01*
X16173506Y-24240890D01*
X16202077Y-24226604D01*
X16259220Y-24226604D01*
X16287791Y-24240890D01*
X16402077Y-24540890D02*
X16416363Y-24526604D01*
X16444934Y-24483747D01*
X16459220Y-24455176D01*
X16473506Y-24412319D01*
X16487791Y-24340890D01*
X16487791Y-24283747D01*
X16473506Y-24212319D01*
X16459220Y-24169461D01*
X16444934Y-24140890D01*
X16416363Y-24098033D01*
X16402077Y-24083747D01*
M02*
