G04 #@! TF.GenerationSoftware,KiCad,Pcbnew,(5.1.9)-1*
G04 #@! TF.CreationDate,2021-06-08T08:05:01+01:00*
G04 #@! TF.ProjectId,LED_Board,4c45445f-426f-4617-9264-2e6b69636164,rev?*
G04 #@! TF.SameCoordinates,Original*
G04 #@! TF.FileFunction,Copper,L1,Top*
G04 #@! TF.FilePolarity,Positive*
%FSLAX46Y46*%
G04 Gerber Fmt 4.6, Leading zero omitted, Abs format (unit mm)*
G04 Created by KiCad (PCBNEW (5.1.9)-1) date 2021-06-08 08:05:01*
%MOMM*%
%LPD*%
G01*
G04 APERTURE LIST*
G04 #@! TA.AperFunction,SMDPad,CuDef*
%ADD10C,1.000000*%
G04 #@! TD*
G04 #@! TA.AperFunction,ComponentPad*
%ADD11O,1.250000X1.050000*%
G04 #@! TD*
G04 #@! TA.AperFunction,ComponentPad*
%ADD12O,1.900000X1.000000*%
G04 #@! TD*
G04 #@! TA.AperFunction,ComponentPad*
%ADD13R,1.700000X1.700000*%
G04 #@! TD*
G04 #@! TA.AperFunction,ComponentPad*
%ADD14O,1.700000X1.700000*%
G04 #@! TD*
G04 #@! TA.AperFunction,ComponentPad*
%ADD15C,1.800000*%
G04 #@! TD*
G04 #@! TA.AperFunction,ComponentPad*
%ADD16R,1.800000X1.800000*%
G04 #@! TD*
G04 #@! TA.AperFunction,SMDPad,CuDef*
%ADD17C,1.500000*%
G04 #@! TD*
G04 #@! TA.AperFunction,ComponentPad*
%ADD18C,0.800000*%
G04 #@! TD*
G04 #@! TA.AperFunction,ComponentPad*
%ADD19C,6.000000*%
G04 #@! TD*
G04 #@! TA.AperFunction,ViaPad*
%ADD20C,0.685800*%
G04 #@! TD*
G04 #@! TA.AperFunction,Conductor*
%ADD21C,0.254000*%
G04 #@! TD*
G04 #@! TA.AperFunction,Conductor*
%ADD22C,0.508000*%
G04 #@! TD*
G04 #@! TA.AperFunction,Conductor*
%ADD23C,0.152400*%
G04 #@! TD*
G04 #@! TA.AperFunction,Conductor*
%ADD24C,0.762000*%
G04 #@! TD*
G04 #@! TA.AperFunction,Conductor*
%ADD25C,0.117348*%
G04 #@! TD*
G04 #@! TA.AperFunction,Conductor*
%ADD26C,0.100000*%
G04 #@! TD*
G04 APERTURE END LIST*
D10*
X219964000Y-222491300D03*
X88176100Y-221259400D03*
X81711800Y-82003900D03*
D11*
X73942200Y-132819100D03*
X73942200Y-128369100D03*
D12*
X70942200Y-134769100D03*
X70942200Y-126419100D03*
D13*
X161848800Y-190652400D03*
D14*
X159308800Y-190652400D03*
X161848800Y-193192400D03*
X159308800Y-193192400D03*
X161848800Y-195732400D03*
X159308800Y-195732400D03*
X161848800Y-198272400D03*
X159308800Y-198272400D03*
G04 #@! TA.AperFunction,SMDPad,CuDef*
G36*
G01*
X159301200Y-178216600D02*
X159621200Y-178216600D01*
G75*
G02*
X159781200Y-178376600I0J-160000D01*
G01*
X159781200Y-178771600D01*
G75*
G02*
X159621200Y-178931600I-160000J0D01*
G01*
X159301200Y-178931600D01*
G75*
G02*
X159141200Y-178771600I0J160000D01*
G01*
X159141200Y-178376600D01*
G75*
G02*
X159301200Y-178216600I160000J0D01*
G01*
G37*
G04 #@! TD.AperFunction*
G04 #@! TA.AperFunction,SMDPad,CuDef*
G36*
G01*
X159301200Y-179411600D02*
X159621200Y-179411600D01*
G75*
G02*
X159781200Y-179571600I0J-160000D01*
G01*
X159781200Y-179966600D01*
G75*
G02*
X159621200Y-180126600I-160000J0D01*
G01*
X159301200Y-180126600D01*
G75*
G02*
X159141200Y-179966600I0J160000D01*
G01*
X159141200Y-179571600D01*
G75*
G02*
X159301200Y-179411600I160000J0D01*
G01*
G37*
G04 #@! TD.AperFunction*
G04 #@! TA.AperFunction,SMDPad,CuDef*
G36*
G01*
X162237400Y-178931600D02*
X161917400Y-178931600D01*
G75*
G02*
X161757400Y-178771600I0J160000D01*
G01*
X161757400Y-178376600D01*
G75*
G02*
X161917400Y-178216600I160000J0D01*
G01*
X162237400Y-178216600D01*
G75*
G02*
X162397400Y-178376600I0J-160000D01*
G01*
X162397400Y-178771600D01*
G75*
G02*
X162237400Y-178931600I-160000J0D01*
G01*
G37*
G04 #@! TD.AperFunction*
G04 #@! TA.AperFunction,SMDPad,CuDef*
G36*
G01*
X162237400Y-180126600D02*
X161917400Y-180126600D01*
G75*
G02*
X161757400Y-179966600I0J160000D01*
G01*
X161757400Y-179571600D01*
G75*
G02*
X161917400Y-179411600I160000J0D01*
G01*
X162237400Y-179411600D01*
G75*
G02*
X162397400Y-179571600I0J-160000D01*
G01*
X162397400Y-179966600D01*
G75*
G02*
X162237400Y-180126600I-160000J0D01*
G01*
G37*
G04 #@! TD.AperFunction*
G04 #@! TA.AperFunction,SMDPad,CuDef*
G36*
G01*
X163314400Y-178216600D02*
X163634400Y-178216600D01*
G75*
G02*
X163794400Y-178376600I0J-160000D01*
G01*
X163794400Y-178771600D01*
G75*
G02*
X163634400Y-178931600I-160000J0D01*
G01*
X163314400Y-178931600D01*
G75*
G02*
X163154400Y-178771600I0J160000D01*
G01*
X163154400Y-178376600D01*
G75*
G02*
X163314400Y-178216600I160000J0D01*
G01*
G37*
G04 #@! TD.AperFunction*
G04 #@! TA.AperFunction,SMDPad,CuDef*
G36*
G01*
X163314400Y-179411600D02*
X163634400Y-179411600D01*
G75*
G02*
X163794400Y-179571600I0J-160000D01*
G01*
X163794400Y-179966600D01*
G75*
G02*
X163634400Y-180126600I-160000J0D01*
G01*
X163314400Y-180126600D01*
G75*
G02*
X163154400Y-179966600I0J160000D01*
G01*
X163154400Y-179571600D01*
G75*
G02*
X163314400Y-179411600I160000J0D01*
G01*
G37*
G04 #@! TD.AperFunction*
G04 #@! TA.AperFunction,SMDPad,CuDef*
G36*
G01*
X160891200Y-178931600D02*
X160571200Y-178931600D01*
G75*
G02*
X160411200Y-178771600I0J160000D01*
G01*
X160411200Y-178376600D01*
G75*
G02*
X160571200Y-178216600I160000J0D01*
G01*
X160891200Y-178216600D01*
G75*
G02*
X161051200Y-178376600I0J-160000D01*
G01*
X161051200Y-178771600D01*
G75*
G02*
X160891200Y-178931600I-160000J0D01*
G01*
G37*
G04 #@! TD.AperFunction*
G04 #@! TA.AperFunction,SMDPad,CuDef*
G36*
G01*
X160891200Y-180126600D02*
X160571200Y-180126600D01*
G75*
G02*
X160411200Y-179966600I0J160000D01*
G01*
X160411200Y-179571600D01*
G75*
G02*
X160571200Y-179411600I160000J0D01*
G01*
X160891200Y-179411600D01*
G75*
G02*
X161051200Y-179571600I0J-160000D01*
G01*
X161051200Y-179966600D01*
G75*
G02*
X160891200Y-180126600I-160000J0D01*
G01*
G37*
G04 #@! TD.AperFunction*
G04 #@! TA.AperFunction,SMDPad,CuDef*
G36*
G01*
X150980800Y-175943200D02*
X150980800Y-176253200D01*
G75*
G02*
X150825800Y-176408200I-155000J0D01*
G01*
X150400800Y-176408200D01*
G75*
G02*
X150245800Y-176253200I0J155000D01*
G01*
X150245800Y-175943200D01*
G75*
G02*
X150400800Y-175788200I155000J0D01*
G01*
X150825800Y-175788200D01*
G75*
G02*
X150980800Y-175943200I0J-155000D01*
G01*
G37*
G04 #@! TD.AperFunction*
G04 #@! TA.AperFunction,SMDPad,CuDef*
G36*
G01*
X152115800Y-175943200D02*
X152115800Y-176253200D01*
G75*
G02*
X151960800Y-176408200I-155000J0D01*
G01*
X151535800Y-176408200D01*
G75*
G02*
X151380800Y-176253200I0J155000D01*
G01*
X151380800Y-175943200D01*
G75*
G02*
X151535800Y-175788200I155000J0D01*
G01*
X151960800Y-175788200D01*
G75*
G02*
X152115800Y-175943200I0J-155000D01*
G01*
G37*
G04 #@! TD.AperFunction*
G04 #@! TA.AperFunction,SMDPad,CuDef*
G36*
G01*
X203273600Y-125591100D02*
X203583600Y-125591100D01*
G75*
G02*
X203738600Y-125746100I0J-155000D01*
G01*
X203738600Y-126171100D01*
G75*
G02*
X203583600Y-126326100I-155000J0D01*
G01*
X203273600Y-126326100D01*
G75*
G02*
X203118600Y-126171100I0J155000D01*
G01*
X203118600Y-125746100D01*
G75*
G02*
X203273600Y-125591100I155000J0D01*
G01*
G37*
G04 #@! TD.AperFunction*
G04 #@! TA.AperFunction,SMDPad,CuDef*
G36*
G01*
X203273600Y-126726100D02*
X203583600Y-126726100D01*
G75*
G02*
X203738600Y-126881100I0J-155000D01*
G01*
X203738600Y-127306100D01*
G75*
G02*
X203583600Y-127461100I-155000J0D01*
G01*
X203273600Y-127461100D01*
G75*
G02*
X203118600Y-127306100I0J155000D01*
G01*
X203118600Y-126881100D01*
G75*
G02*
X203273600Y-126726100I155000J0D01*
G01*
G37*
G04 #@! TD.AperFunction*
G04 #@! TA.AperFunction,SMDPad,CuDef*
G36*
G01*
X207210600Y-125726100D02*
X207520600Y-125726100D01*
G75*
G02*
X207675600Y-125881100I0J-155000D01*
G01*
X207675600Y-126306100D01*
G75*
G02*
X207520600Y-126461100I-155000J0D01*
G01*
X207210600Y-126461100D01*
G75*
G02*
X207055600Y-126306100I0J155000D01*
G01*
X207055600Y-125881100D01*
G75*
G02*
X207210600Y-125726100I155000J0D01*
G01*
G37*
G04 #@! TD.AperFunction*
G04 #@! TA.AperFunction,SMDPad,CuDef*
G36*
G01*
X207210600Y-126861100D02*
X207520600Y-126861100D01*
G75*
G02*
X207675600Y-127016100I0J-155000D01*
G01*
X207675600Y-127441100D01*
G75*
G02*
X207520600Y-127596100I-155000J0D01*
G01*
X207210600Y-127596100D01*
G75*
G02*
X207055600Y-127441100I0J155000D01*
G01*
X207055600Y-127016100D01*
G75*
G02*
X207210600Y-126861100I155000J0D01*
G01*
G37*
G04 #@! TD.AperFunction*
G04 #@! TA.AperFunction,SMDPad,CuDef*
G36*
G01*
X208409600Y-108867600D02*
X208099600Y-108867600D01*
G75*
G02*
X207944600Y-108712600I0J155000D01*
G01*
X207944600Y-108287600D01*
G75*
G02*
X208099600Y-108132600I155000J0D01*
G01*
X208409600Y-108132600D01*
G75*
G02*
X208564600Y-108287600I0J-155000D01*
G01*
X208564600Y-108712600D01*
G75*
G02*
X208409600Y-108867600I-155000J0D01*
G01*
G37*
G04 #@! TD.AperFunction*
G04 #@! TA.AperFunction,SMDPad,CuDef*
G36*
G01*
X208409600Y-110002600D02*
X208099600Y-110002600D01*
G75*
G02*
X207944600Y-109847600I0J155000D01*
G01*
X207944600Y-109422600D01*
G75*
G02*
X208099600Y-109267600I155000J0D01*
G01*
X208409600Y-109267600D01*
G75*
G02*
X208564600Y-109422600I0J-155000D01*
G01*
X208564600Y-109847600D01*
G75*
G02*
X208409600Y-110002600I-155000J0D01*
G01*
G37*
G04 #@! TD.AperFunction*
G04 #@! TA.AperFunction,SMDPad,CuDef*
G36*
G01*
X205488600Y-108867600D02*
X205178600Y-108867600D01*
G75*
G02*
X205023600Y-108712600I0J155000D01*
G01*
X205023600Y-108287600D01*
G75*
G02*
X205178600Y-108132600I155000J0D01*
G01*
X205488600Y-108132600D01*
G75*
G02*
X205643600Y-108287600I0J-155000D01*
G01*
X205643600Y-108712600D01*
G75*
G02*
X205488600Y-108867600I-155000J0D01*
G01*
G37*
G04 #@! TD.AperFunction*
G04 #@! TA.AperFunction,SMDPad,CuDef*
G36*
G01*
X205488600Y-110002600D02*
X205178600Y-110002600D01*
G75*
G02*
X205023600Y-109847600I0J155000D01*
G01*
X205023600Y-109422600D01*
G75*
G02*
X205178600Y-109267600I155000J0D01*
G01*
X205488600Y-109267600D01*
G75*
G02*
X205643600Y-109422600I0J-155000D01*
G01*
X205643600Y-109847600D01*
G75*
G02*
X205488600Y-110002600I-155000J0D01*
G01*
G37*
G04 #@! TD.AperFunction*
G04 #@! TA.AperFunction,SMDPad,CuDef*
G36*
G01*
X173085700Y-95381800D02*
X173395700Y-95381800D01*
G75*
G02*
X173550700Y-95536800I0J-155000D01*
G01*
X173550700Y-95961800D01*
G75*
G02*
X173395700Y-96116800I-155000J0D01*
G01*
X173085700Y-96116800D01*
G75*
G02*
X172930700Y-95961800I0J155000D01*
G01*
X172930700Y-95536800D01*
G75*
G02*
X173085700Y-95381800I155000J0D01*
G01*
G37*
G04 #@! TD.AperFunction*
G04 #@! TA.AperFunction,SMDPad,CuDef*
G36*
G01*
X173085700Y-96516800D02*
X173395700Y-96516800D01*
G75*
G02*
X173550700Y-96671800I0J-155000D01*
G01*
X173550700Y-97096800D01*
G75*
G02*
X173395700Y-97251800I-155000J0D01*
G01*
X173085700Y-97251800D01*
G75*
G02*
X172930700Y-97096800I0J155000D01*
G01*
X172930700Y-96671800D01*
G75*
G02*
X173085700Y-96516800I155000J0D01*
G01*
G37*
G04 #@! TD.AperFunction*
G04 #@! TA.AperFunction,SMDPad,CuDef*
G36*
G01*
X187467300Y-93297400D02*
X187157300Y-93297400D01*
G75*
G02*
X187002300Y-93142400I0J155000D01*
G01*
X187002300Y-92717400D01*
G75*
G02*
X187157300Y-92562400I155000J0D01*
G01*
X187467300Y-92562400D01*
G75*
G02*
X187622300Y-92717400I0J-155000D01*
G01*
X187622300Y-93142400D01*
G75*
G02*
X187467300Y-93297400I-155000J0D01*
G01*
G37*
G04 #@! TD.AperFunction*
G04 #@! TA.AperFunction,SMDPad,CuDef*
G36*
G01*
X187467300Y-94432400D02*
X187157300Y-94432400D01*
G75*
G02*
X187002300Y-94277400I0J155000D01*
G01*
X187002300Y-93852400D01*
G75*
G02*
X187157300Y-93697400I155000J0D01*
G01*
X187467300Y-93697400D01*
G75*
G02*
X187622300Y-93852400I0J-155000D01*
G01*
X187622300Y-94277400D01*
G75*
G02*
X187467300Y-94432400I-155000J0D01*
G01*
G37*
G04 #@! TD.AperFunction*
D15*
X96992800Y-119690200D03*
D16*
X94452800Y-119690200D03*
D15*
X138992800Y-119690200D03*
D16*
X136452800Y-119690200D03*
X178452800Y-119690200D03*
D15*
X180992800Y-119690200D03*
D16*
X220452800Y-119690200D03*
D15*
X222992800Y-119690200D03*
D16*
X94452800Y-161690200D03*
D15*
X96992800Y-161690200D03*
X138992800Y-161690200D03*
D16*
X136452800Y-161690200D03*
D15*
X180992800Y-161690200D03*
D16*
X178452800Y-161690200D03*
D15*
X222992800Y-161690200D03*
D16*
X220452800Y-161690200D03*
D15*
X96992800Y-203690200D03*
D16*
X94452800Y-203690200D03*
X136452800Y-203690200D03*
D15*
X138992800Y-203690200D03*
D16*
X178452800Y-203690200D03*
D15*
X180992800Y-203690200D03*
D16*
X220452800Y-203690200D03*
D15*
X222992800Y-203690200D03*
D13*
X182651400Y-86321900D03*
D14*
X182651400Y-83781900D03*
X180111400Y-86321900D03*
X180111400Y-83781900D03*
X177571400Y-86321900D03*
X177571400Y-83781900D03*
X175031400Y-86321900D03*
X175031400Y-83781900D03*
X172491400Y-86321900D03*
X172491400Y-83781900D03*
X169951400Y-86321900D03*
X169951400Y-83781900D03*
X167411400Y-86321900D03*
X167411400Y-83781900D03*
X187325000Y-124206000D03*
X189865000Y-124206000D03*
D13*
X192405000Y-124206000D03*
X150012400Y-86321900D03*
D14*
X150012400Y-83781900D03*
X147472400Y-86321900D03*
X147472400Y-83781900D03*
X144932400Y-86321900D03*
X144932400Y-83781900D03*
X142392400Y-86321900D03*
X142392400Y-83781900D03*
X139852400Y-86321900D03*
X139852400Y-83781900D03*
X137312400Y-86321900D03*
X137312400Y-83781900D03*
X134772400Y-86321900D03*
X134772400Y-83781900D03*
X132232400Y-86321900D03*
X132232400Y-83781900D03*
D13*
X187896500Y-118300500D03*
D14*
X190436500Y-118300500D03*
X192976500Y-118300500D03*
D13*
X214693500Y-83756500D03*
D14*
X212153500Y-83756500D03*
X209613500Y-83756500D03*
X207073500Y-83756500D03*
X204533500Y-83756500D03*
X201993500Y-83756500D03*
X199453500Y-83756500D03*
X196913500Y-83756500D03*
D13*
X113284000Y-116522500D03*
D14*
X110744000Y-116522500D03*
X110655100Y-112204500D03*
D13*
X113195100Y-112204500D03*
G04 #@! TA.AperFunction,SMDPad,CuDef*
G36*
G01*
X97436300Y-109644200D02*
X97436300Y-109964200D01*
G75*
G02*
X97276300Y-110124200I-160000J0D01*
G01*
X96881300Y-110124200D01*
G75*
G02*
X96721300Y-109964200I0J160000D01*
G01*
X96721300Y-109644200D01*
G75*
G02*
X96881300Y-109484200I160000J0D01*
G01*
X97276300Y-109484200D01*
G75*
G02*
X97436300Y-109644200I0J-160000D01*
G01*
G37*
G04 #@! TD.AperFunction*
G04 #@! TA.AperFunction,SMDPad,CuDef*
G36*
G01*
X98631300Y-109644200D02*
X98631300Y-109964200D01*
G75*
G02*
X98471300Y-110124200I-160000J0D01*
G01*
X98076300Y-110124200D01*
G75*
G02*
X97916300Y-109964200I0J160000D01*
G01*
X97916300Y-109644200D01*
G75*
G02*
X98076300Y-109484200I160000J0D01*
G01*
X98471300Y-109484200D01*
G75*
G02*
X98631300Y-109644200I0J-160000D01*
G01*
G37*
G04 #@! TD.AperFunction*
G04 #@! TA.AperFunction,SMDPad,CuDef*
G36*
G01*
X138786300Y-109644200D02*
X138786300Y-109964200D01*
G75*
G02*
X138626300Y-110124200I-160000J0D01*
G01*
X138231300Y-110124200D01*
G75*
G02*
X138071300Y-109964200I0J160000D01*
G01*
X138071300Y-109644200D01*
G75*
G02*
X138231300Y-109484200I160000J0D01*
G01*
X138626300Y-109484200D01*
G75*
G02*
X138786300Y-109644200I0J-160000D01*
G01*
G37*
G04 #@! TD.AperFunction*
G04 #@! TA.AperFunction,SMDPad,CuDef*
G36*
G01*
X139981300Y-109644200D02*
X139981300Y-109964200D01*
G75*
G02*
X139821300Y-110124200I-160000J0D01*
G01*
X139426300Y-110124200D01*
G75*
G02*
X139266300Y-109964200I0J160000D01*
G01*
X139266300Y-109644200D01*
G75*
G02*
X139426300Y-109484200I160000J0D01*
G01*
X139821300Y-109484200D01*
G75*
G02*
X139981300Y-109644200I0J-160000D01*
G01*
G37*
G04 #@! TD.AperFunction*
G04 #@! TA.AperFunction,SMDPad,CuDef*
G36*
G01*
X182451300Y-109644200D02*
X182451300Y-109964200D01*
G75*
G02*
X182291300Y-110124200I-160000J0D01*
G01*
X181896300Y-110124200D01*
G75*
G02*
X181736300Y-109964200I0J160000D01*
G01*
X181736300Y-109644200D01*
G75*
G02*
X181896300Y-109484200I160000J0D01*
G01*
X182291300Y-109484200D01*
G75*
G02*
X182451300Y-109644200I0J-160000D01*
G01*
G37*
G04 #@! TD.AperFunction*
G04 #@! TA.AperFunction,SMDPad,CuDef*
G36*
G01*
X181256300Y-109644200D02*
X181256300Y-109964200D01*
G75*
G02*
X181096300Y-110124200I-160000J0D01*
G01*
X180701300Y-110124200D01*
G75*
G02*
X180541300Y-109964200I0J160000D01*
G01*
X180541300Y-109644200D01*
G75*
G02*
X180701300Y-109484200I160000J0D01*
G01*
X181096300Y-109484200D01*
G75*
G02*
X181256300Y-109644200I0J-160000D01*
G01*
G37*
G04 #@! TD.AperFunction*
G04 #@! TA.AperFunction,SMDPad,CuDef*
G36*
G01*
X95521800Y-112457200D02*
X95841800Y-112457200D01*
G75*
G02*
X96001800Y-112617200I0J-160000D01*
G01*
X96001800Y-113012200D01*
G75*
G02*
X95841800Y-113172200I-160000J0D01*
G01*
X95521800Y-113172200D01*
G75*
G02*
X95361800Y-113012200I0J160000D01*
G01*
X95361800Y-112617200D01*
G75*
G02*
X95521800Y-112457200I160000J0D01*
G01*
G37*
G04 #@! TD.AperFunction*
G04 #@! TA.AperFunction,SMDPad,CuDef*
G36*
G01*
X95521800Y-111262200D02*
X95841800Y-111262200D01*
G75*
G02*
X96001800Y-111422200I0J-160000D01*
G01*
X96001800Y-111817200D01*
G75*
G02*
X95841800Y-111977200I-160000J0D01*
G01*
X95521800Y-111977200D01*
G75*
G02*
X95361800Y-111817200I0J160000D01*
G01*
X95361800Y-111422200D01*
G75*
G02*
X95521800Y-111262200I160000J0D01*
G01*
G37*
G04 #@! TD.AperFunction*
G04 #@! TA.AperFunction,SMDPad,CuDef*
G36*
G01*
X136796800Y-112457200D02*
X137116800Y-112457200D01*
G75*
G02*
X137276800Y-112617200I0J-160000D01*
G01*
X137276800Y-113012200D01*
G75*
G02*
X137116800Y-113172200I-160000J0D01*
G01*
X136796800Y-113172200D01*
G75*
G02*
X136636800Y-113012200I0J160000D01*
G01*
X136636800Y-112617200D01*
G75*
G02*
X136796800Y-112457200I160000J0D01*
G01*
G37*
G04 #@! TD.AperFunction*
G04 #@! TA.AperFunction,SMDPad,CuDef*
G36*
G01*
X136796800Y-111262200D02*
X137116800Y-111262200D01*
G75*
G02*
X137276800Y-111422200I0J-160000D01*
G01*
X137276800Y-111817200D01*
G75*
G02*
X137116800Y-111977200I-160000J0D01*
G01*
X136796800Y-111977200D01*
G75*
G02*
X136636800Y-111817200I0J160000D01*
G01*
X136636800Y-111422200D01*
G75*
G02*
X136796800Y-111262200I160000J0D01*
G01*
G37*
G04 #@! TD.AperFunction*
G04 #@! TA.AperFunction,SMDPad,CuDef*
G36*
G01*
X179341800Y-111262200D02*
X179661800Y-111262200D01*
G75*
G02*
X179821800Y-111422200I0J-160000D01*
G01*
X179821800Y-111817200D01*
G75*
G02*
X179661800Y-111977200I-160000J0D01*
G01*
X179341800Y-111977200D01*
G75*
G02*
X179181800Y-111817200I0J160000D01*
G01*
X179181800Y-111422200D01*
G75*
G02*
X179341800Y-111262200I160000J0D01*
G01*
G37*
G04 #@! TD.AperFunction*
G04 #@! TA.AperFunction,SMDPad,CuDef*
G36*
G01*
X179341800Y-112457200D02*
X179661800Y-112457200D01*
G75*
G02*
X179821800Y-112617200I0J-160000D01*
G01*
X179821800Y-113012200D01*
G75*
G02*
X179661800Y-113172200I-160000J0D01*
G01*
X179341800Y-113172200D01*
G75*
G02*
X179181800Y-113012200I0J160000D01*
G01*
X179181800Y-112617200D01*
G75*
G02*
X179341800Y-112457200I160000J0D01*
G01*
G37*
G04 #@! TD.AperFunction*
G04 #@! TA.AperFunction,SMDPad,CuDef*
G36*
G01*
X92313800Y-109964200D02*
X92313800Y-109644200D01*
G75*
G02*
X92473800Y-109484200I160000J0D01*
G01*
X92868800Y-109484200D01*
G75*
G02*
X93028800Y-109644200I0J-160000D01*
G01*
X93028800Y-109964200D01*
G75*
G02*
X92868800Y-110124200I-160000J0D01*
G01*
X92473800Y-110124200D01*
G75*
G02*
X92313800Y-109964200I0J160000D01*
G01*
G37*
G04 #@! TD.AperFunction*
G04 #@! TA.AperFunction,SMDPad,CuDef*
G36*
G01*
X93508800Y-109964200D02*
X93508800Y-109644200D01*
G75*
G02*
X93668800Y-109484200I160000J0D01*
G01*
X94063800Y-109484200D01*
G75*
G02*
X94223800Y-109644200I0J-160000D01*
G01*
X94223800Y-109964200D01*
G75*
G02*
X94063800Y-110124200I-160000J0D01*
G01*
X93668800Y-110124200D01*
G75*
G02*
X93508800Y-109964200I0J160000D01*
G01*
G37*
G04 #@! TD.AperFunction*
G04 #@! TA.AperFunction,SMDPad,CuDef*
G36*
G01*
X133551300Y-109964200D02*
X133551300Y-109644200D01*
G75*
G02*
X133711300Y-109484200I160000J0D01*
G01*
X134106300Y-109484200D01*
G75*
G02*
X134266300Y-109644200I0J-160000D01*
G01*
X134266300Y-109964200D01*
G75*
G02*
X134106300Y-110124200I-160000J0D01*
G01*
X133711300Y-110124200D01*
G75*
G02*
X133551300Y-109964200I0J160000D01*
G01*
G37*
G04 #@! TD.AperFunction*
G04 #@! TA.AperFunction,SMDPad,CuDef*
G36*
G01*
X134746300Y-109964200D02*
X134746300Y-109644200D01*
G75*
G02*
X134906300Y-109484200I160000J0D01*
G01*
X135301300Y-109484200D01*
G75*
G02*
X135461300Y-109644200I0J-160000D01*
G01*
X135461300Y-109964200D01*
G75*
G02*
X135301300Y-110124200I-160000J0D01*
G01*
X134906300Y-110124200D01*
G75*
G02*
X134746300Y-109964200I0J160000D01*
G01*
G37*
G04 #@! TD.AperFunction*
G04 #@! TA.AperFunction,SMDPad,CuDef*
G36*
G01*
X177366300Y-109964200D02*
X177366300Y-109644200D01*
G75*
G02*
X177526300Y-109484200I160000J0D01*
G01*
X177921300Y-109484200D01*
G75*
G02*
X178081300Y-109644200I0J-160000D01*
G01*
X178081300Y-109964200D01*
G75*
G02*
X177921300Y-110124200I-160000J0D01*
G01*
X177526300Y-110124200D01*
G75*
G02*
X177366300Y-109964200I0J160000D01*
G01*
G37*
G04 #@! TD.AperFunction*
G04 #@! TA.AperFunction,SMDPad,CuDef*
G36*
G01*
X176171300Y-109964200D02*
X176171300Y-109644200D01*
G75*
G02*
X176331300Y-109484200I160000J0D01*
G01*
X176726300Y-109484200D01*
G75*
G02*
X176886300Y-109644200I0J-160000D01*
G01*
X176886300Y-109964200D01*
G75*
G02*
X176726300Y-110124200I-160000J0D01*
G01*
X176331300Y-110124200D01*
G75*
G02*
X176171300Y-109964200I0J160000D01*
G01*
G37*
G04 #@! TD.AperFunction*
G04 #@! TA.AperFunction,SMDPad,CuDef*
G36*
G01*
X222531300Y-109644200D02*
X222531300Y-109964200D01*
G75*
G02*
X222371300Y-110124200I-160000J0D01*
G01*
X221976300Y-110124200D01*
G75*
G02*
X221816300Y-109964200I0J160000D01*
G01*
X221816300Y-109644200D01*
G75*
G02*
X221976300Y-109484200I160000J0D01*
G01*
X222371300Y-109484200D01*
G75*
G02*
X222531300Y-109644200I0J-160000D01*
G01*
G37*
G04 #@! TD.AperFunction*
G04 #@! TA.AperFunction,SMDPad,CuDef*
G36*
G01*
X223726300Y-109644200D02*
X223726300Y-109964200D01*
G75*
G02*
X223566300Y-110124200I-160000J0D01*
G01*
X223171300Y-110124200D01*
G75*
G02*
X223011300Y-109964200I0J160000D01*
G01*
X223011300Y-109644200D01*
G75*
G02*
X223171300Y-109484200I160000J0D01*
G01*
X223566300Y-109484200D01*
G75*
G02*
X223726300Y-109644200I0J-160000D01*
G01*
G37*
G04 #@! TD.AperFunction*
G04 #@! TA.AperFunction,SMDPad,CuDef*
G36*
G01*
X98668800Y-151537200D02*
X98668800Y-151857200D01*
G75*
G02*
X98508800Y-152017200I-160000J0D01*
G01*
X98113800Y-152017200D01*
G75*
G02*
X97953800Y-151857200I0J160000D01*
G01*
X97953800Y-151537200D01*
G75*
G02*
X98113800Y-151377200I160000J0D01*
G01*
X98508800Y-151377200D01*
G75*
G02*
X98668800Y-151537200I0J-160000D01*
G01*
G37*
G04 #@! TD.AperFunction*
G04 #@! TA.AperFunction,SMDPad,CuDef*
G36*
G01*
X97473800Y-151537200D02*
X97473800Y-151857200D01*
G75*
G02*
X97313800Y-152017200I-160000J0D01*
G01*
X96918800Y-152017200D01*
G75*
G02*
X96758800Y-151857200I0J160000D01*
G01*
X96758800Y-151537200D01*
G75*
G02*
X96918800Y-151377200I160000J0D01*
G01*
X97313800Y-151377200D01*
G75*
G02*
X97473800Y-151537200I0J-160000D01*
G01*
G37*
G04 #@! TD.AperFunction*
G04 #@! TA.AperFunction,SMDPad,CuDef*
G36*
G01*
X139510800Y-151537200D02*
X139510800Y-151857200D01*
G75*
G02*
X139350800Y-152017200I-160000J0D01*
G01*
X138955800Y-152017200D01*
G75*
G02*
X138795800Y-151857200I0J160000D01*
G01*
X138795800Y-151537200D01*
G75*
G02*
X138955800Y-151377200I160000J0D01*
G01*
X139350800Y-151377200D01*
G75*
G02*
X139510800Y-151537200I0J-160000D01*
G01*
G37*
G04 #@! TD.AperFunction*
G04 #@! TA.AperFunction,SMDPad,CuDef*
G36*
G01*
X140705800Y-151537200D02*
X140705800Y-151857200D01*
G75*
G02*
X140545800Y-152017200I-160000J0D01*
G01*
X140150800Y-152017200D01*
G75*
G02*
X139990800Y-151857200I0J160000D01*
G01*
X139990800Y-151537200D01*
G75*
G02*
X140150800Y-151377200I160000J0D01*
G01*
X140545800Y-151377200D01*
G75*
G02*
X140705800Y-151537200I0J-160000D01*
G01*
G37*
G04 #@! TD.AperFunction*
G04 #@! TA.AperFunction,SMDPad,CuDef*
G36*
G01*
X220616800Y-112494700D02*
X220936800Y-112494700D01*
G75*
G02*
X221096800Y-112654700I0J-160000D01*
G01*
X221096800Y-113049700D01*
G75*
G02*
X220936800Y-113209700I-160000J0D01*
G01*
X220616800Y-113209700D01*
G75*
G02*
X220456800Y-113049700I0J160000D01*
G01*
X220456800Y-112654700D01*
G75*
G02*
X220616800Y-112494700I160000J0D01*
G01*
G37*
G04 #@! TD.AperFunction*
G04 #@! TA.AperFunction,SMDPad,CuDef*
G36*
G01*
X220616800Y-111299700D02*
X220936800Y-111299700D01*
G75*
G02*
X221096800Y-111459700I0J-160000D01*
G01*
X221096800Y-111854700D01*
G75*
G02*
X220936800Y-112014700I-160000J0D01*
G01*
X220616800Y-112014700D01*
G75*
G02*
X220456800Y-111854700I0J160000D01*
G01*
X220456800Y-111459700D01*
G75*
G02*
X220616800Y-111299700I160000J0D01*
G01*
G37*
G04 #@! TD.AperFunction*
G04 #@! TA.AperFunction,SMDPad,CuDef*
G36*
G01*
X95521800Y-154367200D02*
X95841800Y-154367200D01*
G75*
G02*
X96001800Y-154527200I0J-160000D01*
G01*
X96001800Y-154922200D01*
G75*
G02*
X95841800Y-155082200I-160000J0D01*
G01*
X95521800Y-155082200D01*
G75*
G02*
X95361800Y-154922200I0J160000D01*
G01*
X95361800Y-154527200D01*
G75*
G02*
X95521800Y-154367200I160000J0D01*
G01*
G37*
G04 #@! TD.AperFunction*
G04 #@! TA.AperFunction,SMDPad,CuDef*
G36*
G01*
X95521800Y-153172200D02*
X95841800Y-153172200D01*
G75*
G02*
X96001800Y-153332200I0J-160000D01*
G01*
X96001800Y-153727200D01*
G75*
G02*
X95841800Y-153887200I-160000J0D01*
G01*
X95521800Y-153887200D01*
G75*
G02*
X95361800Y-153727200I0J160000D01*
G01*
X95361800Y-153332200D01*
G75*
G02*
X95521800Y-153172200I160000J0D01*
G01*
G37*
G04 #@! TD.AperFunction*
G04 #@! TA.AperFunction,SMDPad,CuDef*
G36*
G01*
X137431800Y-153172200D02*
X137751800Y-153172200D01*
G75*
G02*
X137911800Y-153332200I0J-160000D01*
G01*
X137911800Y-153727200D01*
G75*
G02*
X137751800Y-153887200I-160000J0D01*
G01*
X137431800Y-153887200D01*
G75*
G02*
X137271800Y-153727200I0J160000D01*
G01*
X137271800Y-153332200D01*
G75*
G02*
X137431800Y-153172200I160000J0D01*
G01*
G37*
G04 #@! TD.AperFunction*
G04 #@! TA.AperFunction,SMDPad,CuDef*
G36*
G01*
X137431800Y-154367200D02*
X137751800Y-154367200D01*
G75*
G02*
X137911800Y-154527200I0J-160000D01*
G01*
X137911800Y-154922200D01*
G75*
G02*
X137751800Y-155082200I-160000J0D01*
G01*
X137431800Y-155082200D01*
G75*
G02*
X137271800Y-154922200I0J160000D01*
G01*
X137271800Y-154527200D01*
G75*
G02*
X137431800Y-154367200I160000J0D01*
G01*
G37*
G04 #@! TD.AperFunction*
G04 #@! TA.AperFunction,SMDPad,CuDef*
G36*
G01*
X217446300Y-109964200D02*
X217446300Y-109644200D01*
G75*
G02*
X217606300Y-109484200I160000J0D01*
G01*
X218001300Y-109484200D01*
G75*
G02*
X218161300Y-109644200I0J-160000D01*
G01*
X218161300Y-109964200D01*
G75*
G02*
X218001300Y-110124200I-160000J0D01*
G01*
X217606300Y-110124200D01*
G75*
G02*
X217446300Y-109964200I0J160000D01*
G01*
G37*
G04 #@! TD.AperFunction*
G04 #@! TA.AperFunction,SMDPad,CuDef*
G36*
G01*
X218641300Y-109964200D02*
X218641300Y-109644200D01*
G75*
G02*
X218801300Y-109484200I160000J0D01*
G01*
X219196300Y-109484200D01*
G75*
G02*
X219356300Y-109644200I0J-160000D01*
G01*
X219356300Y-109964200D01*
G75*
G02*
X219196300Y-110124200I-160000J0D01*
G01*
X218801300Y-110124200D01*
G75*
G02*
X218641300Y-109964200I0J160000D01*
G01*
G37*
G04 #@! TD.AperFunction*
G04 #@! TA.AperFunction,SMDPad,CuDef*
G36*
G01*
X92313800Y-151857200D02*
X92313800Y-151537200D01*
G75*
G02*
X92473800Y-151377200I160000J0D01*
G01*
X92868800Y-151377200D01*
G75*
G02*
X93028800Y-151537200I0J-160000D01*
G01*
X93028800Y-151857200D01*
G75*
G02*
X92868800Y-152017200I-160000J0D01*
G01*
X92473800Y-152017200D01*
G75*
G02*
X92313800Y-151857200I0J160000D01*
G01*
G37*
G04 #@! TD.AperFunction*
G04 #@! TA.AperFunction,SMDPad,CuDef*
G36*
G01*
X93508800Y-151857200D02*
X93508800Y-151537200D01*
G75*
G02*
X93668800Y-151377200I160000J0D01*
G01*
X94063800Y-151377200D01*
G75*
G02*
X94223800Y-151537200I0J-160000D01*
G01*
X94223800Y-151857200D01*
G75*
G02*
X94063800Y-152017200I-160000J0D01*
G01*
X93668800Y-152017200D01*
G75*
G02*
X93508800Y-151857200I0J160000D01*
G01*
G37*
G04 #@! TD.AperFunction*
G04 #@! TA.AperFunction,SMDPad,CuDef*
G36*
G01*
X134350800Y-151857200D02*
X134350800Y-151537200D01*
G75*
G02*
X134510800Y-151377200I160000J0D01*
G01*
X134905800Y-151377200D01*
G75*
G02*
X135065800Y-151537200I0J-160000D01*
G01*
X135065800Y-151857200D01*
G75*
G02*
X134905800Y-152017200I-160000J0D01*
G01*
X134510800Y-152017200D01*
G75*
G02*
X134350800Y-151857200I0J160000D01*
G01*
G37*
G04 #@! TD.AperFunction*
G04 #@! TA.AperFunction,SMDPad,CuDef*
G36*
G01*
X135545800Y-151857200D02*
X135545800Y-151537200D01*
G75*
G02*
X135705800Y-151377200I160000J0D01*
G01*
X136100800Y-151377200D01*
G75*
G02*
X136260800Y-151537200I0J-160000D01*
G01*
X136260800Y-151857200D01*
G75*
G02*
X136100800Y-152017200I-160000J0D01*
G01*
X135705800Y-152017200D01*
G75*
G02*
X135545800Y-151857200I0J160000D01*
G01*
G37*
G04 #@! TD.AperFunction*
G04 #@! TA.AperFunction,SMDPad,CuDef*
G36*
G01*
X181420800Y-151537200D02*
X181420800Y-151857200D01*
G75*
G02*
X181260800Y-152017200I-160000J0D01*
G01*
X180865800Y-152017200D01*
G75*
G02*
X180705800Y-151857200I0J160000D01*
G01*
X180705800Y-151537200D01*
G75*
G02*
X180865800Y-151377200I160000J0D01*
G01*
X181260800Y-151377200D01*
G75*
G02*
X181420800Y-151537200I0J-160000D01*
G01*
G37*
G04 #@! TD.AperFunction*
G04 #@! TA.AperFunction,SMDPad,CuDef*
G36*
G01*
X182615800Y-151537200D02*
X182615800Y-151857200D01*
G75*
G02*
X182455800Y-152017200I-160000J0D01*
G01*
X182060800Y-152017200D01*
G75*
G02*
X181900800Y-151857200I0J160000D01*
G01*
X181900800Y-151537200D01*
G75*
G02*
X182060800Y-151377200I160000J0D01*
G01*
X182455800Y-151377200D01*
G75*
G02*
X182615800Y-151537200I0J-160000D01*
G01*
G37*
G04 #@! TD.AperFunction*
G04 #@! TA.AperFunction,SMDPad,CuDef*
G36*
G01*
X224525800Y-151537200D02*
X224525800Y-151857200D01*
G75*
G02*
X224365800Y-152017200I-160000J0D01*
G01*
X223970800Y-152017200D01*
G75*
G02*
X223810800Y-151857200I0J160000D01*
G01*
X223810800Y-151537200D01*
G75*
G02*
X223970800Y-151377200I160000J0D01*
G01*
X224365800Y-151377200D01*
G75*
G02*
X224525800Y-151537200I0J-160000D01*
G01*
G37*
G04 #@! TD.AperFunction*
G04 #@! TA.AperFunction,SMDPad,CuDef*
G36*
G01*
X223330800Y-151537200D02*
X223330800Y-151857200D01*
G75*
G02*
X223170800Y-152017200I-160000J0D01*
G01*
X222775800Y-152017200D01*
G75*
G02*
X222615800Y-151857200I0J160000D01*
G01*
X222615800Y-151537200D01*
G75*
G02*
X222775800Y-151377200I160000J0D01*
G01*
X223170800Y-151377200D01*
G75*
G02*
X223330800Y-151537200I0J-160000D01*
G01*
G37*
G04 #@! TD.AperFunction*
G04 #@! TA.AperFunction,SMDPad,CuDef*
G36*
G01*
X97600800Y-193447200D02*
X97600800Y-193767200D01*
G75*
G02*
X97440800Y-193927200I-160000J0D01*
G01*
X97045800Y-193927200D01*
G75*
G02*
X96885800Y-193767200I0J160000D01*
G01*
X96885800Y-193447200D01*
G75*
G02*
X97045800Y-193287200I160000J0D01*
G01*
X97440800Y-193287200D01*
G75*
G02*
X97600800Y-193447200I0J-160000D01*
G01*
G37*
G04 #@! TD.AperFunction*
G04 #@! TA.AperFunction,SMDPad,CuDef*
G36*
G01*
X98795800Y-193447200D02*
X98795800Y-193767200D01*
G75*
G02*
X98635800Y-193927200I-160000J0D01*
G01*
X98240800Y-193927200D01*
G75*
G02*
X98080800Y-193767200I0J160000D01*
G01*
X98080800Y-193447200D01*
G75*
G02*
X98240800Y-193287200I160000J0D01*
G01*
X98635800Y-193287200D01*
G75*
G02*
X98795800Y-193447200I0J-160000D01*
G01*
G37*
G04 #@! TD.AperFunction*
G04 #@! TA.AperFunction,SMDPad,CuDef*
G36*
G01*
X179341800Y-153172200D02*
X179661800Y-153172200D01*
G75*
G02*
X179821800Y-153332200I0J-160000D01*
G01*
X179821800Y-153727200D01*
G75*
G02*
X179661800Y-153887200I-160000J0D01*
G01*
X179341800Y-153887200D01*
G75*
G02*
X179181800Y-153727200I0J160000D01*
G01*
X179181800Y-153332200D01*
G75*
G02*
X179341800Y-153172200I160000J0D01*
G01*
G37*
G04 #@! TD.AperFunction*
G04 #@! TA.AperFunction,SMDPad,CuDef*
G36*
G01*
X179341800Y-154367200D02*
X179661800Y-154367200D01*
G75*
G02*
X179821800Y-154527200I0J-160000D01*
G01*
X179821800Y-154922200D01*
G75*
G02*
X179661800Y-155082200I-160000J0D01*
G01*
X179341800Y-155082200D01*
G75*
G02*
X179181800Y-154922200I0J160000D01*
G01*
X179181800Y-154527200D01*
G75*
G02*
X179341800Y-154367200I160000J0D01*
G01*
G37*
G04 #@! TD.AperFunction*
G04 #@! TA.AperFunction,SMDPad,CuDef*
G36*
G01*
X221251800Y-153172200D02*
X221571800Y-153172200D01*
G75*
G02*
X221731800Y-153332200I0J-160000D01*
G01*
X221731800Y-153727200D01*
G75*
G02*
X221571800Y-153887200I-160000J0D01*
G01*
X221251800Y-153887200D01*
G75*
G02*
X221091800Y-153727200I0J160000D01*
G01*
X221091800Y-153332200D01*
G75*
G02*
X221251800Y-153172200I160000J0D01*
G01*
G37*
G04 #@! TD.AperFunction*
G04 #@! TA.AperFunction,SMDPad,CuDef*
G36*
G01*
X221251800Y-154367200D02*
X221571800Y-154367200D01*
G75*
G02*
X221731800Y-154527200I0J-160000D01*
G01*
X221731800Y-154922200D01*
G75*
G02*
X221571800Y-155082200I-160000J0D01*
G01*
X221251800Y-155082200D01*
G75*
G02*
X221091800Y-154922200I0J160000D01*
G01*
X221091800Y-154527200D01*
G75*
G02*
X221251800Y-154367200I160000J0D01*
G01*
G37*
G04 #@! TD.AperFunction*
G04 #@! TA.AperFunction,SMDPad,CuDef*
G36*
G01*
X95521800Y-196277200D02*
X95841800Y-196277200D01*
G75*
G02*
X96001800Y-196437200I0J-160000D01*
G01*
X96001800Y-196832200D01*
G75*
G02*
X95841800Y-196992200I-160000J0D01*
G01*
X95521800Y-196992200D01*
G75*
G02*
X95361800Y-196832200I0J160000D01*
G01*
X95361800Y-196437200D01*
G75*
G02*
X95521800Y-196277200I160000J0D01*
G01*
G37*
G04 #@! TD.AperFunction*
G04 #@! TA.AperFunction,SMDPad,CuDef*
G36*
G01*
X95521800Y-195082200D02*
X95841800Y-195082200D01*
G75*
G02*
X96001800Y-195242200I0J-160000D01*
G01*
X96001800Y-195637200D01*
G75*
G02*
X95841800Y-195797200I-160000J0D01*
G01*
X95521800Y-195797200D01*
G75*
G02*
X95361800Y-195637200I0J160000D01*
G01*
X95361800Y-195242200D01*
G75*
G02*
X95521800Y-195082200I160000J0D01*
G01*
G37*
G04 #@! TD.AperFunction*
G04 #@! TA.AperFunction,SMDPad,CuDef*
G36*
G01*
X176260800Y-151857200D02*
X176260800Y-151537200D01*
G75*
G02*
X176420800Y-151377200I160000J0D01*
G01*
X176815800Y-151377200D01*
G75*
G02*
X176975800Y-151537200I0J-160000D01*
G01*
X176975800Y-151857200D01*
G75*
G02*
X176815800Y-152017200I-160000J0D01*
G01*
X176420800Y-152017200D01*
G75*
G02*
X176260800Y-151857200I0J160000D01*
G01*
G37*
G04 #@! TD.AperFunction*
G04 #@! TA.AperFunction,SMDPad,CuDef*
G36*
G01*
X177455800Y-151857200D02*
X177455800Y-151537200D01*
G75*
G02*
X177615800Y-151377200I160000J0D01*
G01*
X178010800Y-151377200D01*
G75*
G02*
X178170800Y-151537200I0J-160000D01*
G01*
X178170800Y-151857200D01*
G75*
G02*
X178010800Y-152017200I-160000J0D01*
G01*
X177615800Y-152017200D01*
G75*
G02*
X177455800Y-151857200I0J160000D01*
G01*
G37*
G04 #@! TD.AperFunction*
G04 #@! TA.AperFunction,SMDPad,CuDef*
G36*
G01*
X219365800Y-151857200D02*
X219365800Y-151537200D01*
G75*
G02*
X219525800Y-151377200I160000J0D01*
G01*
X219920800Y-151377200D01*
G75*
G02*
X220080800Y-151537200I0J-160000D01*
G01*
X220080800Y-151857200D01*
G75*
G02*
X219920800Y-152017200I-160000J0D01*
G01*
X219525800Y-152017200D01*
G75*
G02*
X219365800Y-151857200I0J160000D01*
G01*
G37*
G04 #@! TD.AperFunction*
G04 #@! TA.AperFunction,SMDPad,CuDef*
G36*
G01*
X218170800Y-151857200D02*
X218170800Y-151537200D01*
G75*
G02*
X218330800Y-151377200I160000J0D01*
G01*
X218725800Y-151377200D01*
G75*
G02*
X218885800Y-151537200I0J-160000D01*
G01*
X218885800Y-151857200D01*
G75*
G02*
X218725800Y-152017200I-160000J0D01*
G01*
X218330800Y-152017200D01*
G75*
G02*
X218170800Y-151857200I0J160000D01*
G01*
G37*
G04 #@! TD.AperFunction*
G04 #@! TA.AperFunction,SMDPad,CuDef*
G36*
G01*
X92440800Y-193767200D02*
X92440800Y-193447200D01*
G75*
G02*
X92600800Y-193287200I160000J0D01*
G01*
X92995800Y-193287200D01*
G75*
G02*
X93155800Y-193447200I0J-160000D01*
G01*
X93155800Y-193767200D01*
G75*
G02*
X92995800Y-193927200I-160000J0D01*
G01*
X92600800Y-193927200D01*
G75*
G02*
X92440800Y-193767200I0J160000D01*
G01*
G37*
G04 #@! TD.AperFunction*
G04 #@! TA.AperFunction,SMDPad,CuDef*
G36*
G01*
X93635800Y-193767200D02*
X93635800Y-193447200D01*
G75*
G02*
X93795800Y-193287200I160000J0D01*
G01*
X94190800Y-193287200D01*
G75*
G02*
X94350800Y-193447200I0J-160000D01*
G01*
X94350800Y-193767200D01*
G75*
G02*
X94190800Y-193927200I-160000J0D01*
G01*
X93795800Y-193927200D01*
G75*
G02*
X93635800Y-193767200I0J160000D01*
G01*
G37*
G04 #@! TD.AperFunction*
G04 #@! TA.AperFunction,SMDPad,CuDef*
G36*
G01*
X139510800Y-193447200D02*
X139510800Y-193767200D01*
G75*
G02*
X139350800Y-193927200I-160000J0D01*
G01*
X138955800Y-193927200D01*
G75*
G02*
X138795800Y-193767200I0J160000D01*
G01*
X138795800Y-193447200D01*
G75*
G02*
X138955800Y-193287200I160000J0D01*
G01*
X139350800Y-193287200D01*
G75*
G02*
X139510800Y-193447200I0J-160000D01*
G01*
G37*
G04 #@! TD.AperFunction*
G04 #@! TA.AperFunction,SMDPad,CuDef*
G36*
G01*
X140705800Y-193447200D02*
X140705800Y-193767200D01*
G75*
G02*
X140545800Y-193927200I-160000J0D01*
G01*
X140150800Y-193927200D01*
G75*
G02*
X139990800Y-193767200I0J160000D01*
G01*
X139990800Y-193447200D01*
G75*
G02*
X140150800Y-193287200I160000J0D01*
G01*
X140545800Y-193287200D01*
G75*
G02*
X140705800Y-193447200I0J-160000D01*
G01*
G37*
G04 #@! TD.AperFunction*
G04 #@! TA.AperFunction,SMDPad,CuDef*
G36*
G01*
X182615800Y-193447200D02*
X182615800Y-193767200D01*
G75*
G02*
X182455800Y-193927200I-160000J0D01*
G01*
X182060800Y-193927200D01*
G75*
G02*
X181900800Y-193767200I0J160000D01*
G01*
X181900800Y-193447200D01*
G75*
G02*
X182060800Y-193287200I160000J0D01*
G01*
X182455800Y-193287200D01*
G75*
G02*
X182615800Y-193447200I0J-160000D01*
G01*
G37*
G04 #@! TD.AperFunction*
G04 #@! TA.AperFunction,SMDPad,CuDef*
G36*
G01*
X181420800Y-193447200D02*
X181420800Y-193767200D01*
G75*
G02*
X181260800Y-193927200I-160000J0D01*
G01*
X180865800Y-193927200D01*
G75*
G02*
X180705800Y-193767200I0J160000D01*
G01*
X180705800Y-193447200D01*
G75*
G02*
X180865800Y-193287200I160000J0D01*
G01*
X181260800Y-193287200D01*
G75*
G02*
X181420800Y-193447200I0J-160000D01*
G01*
G37*
G04 #@! TD.AperFunction*
G04 #@! TA.AperFunction,SMDPad,CuDef*
G36*
G01*
X223457800Y-193447200D02*
X223457800Y-193767200D01*
G75*
G02*
X223297800Y-193927200I-160000J0D01*
G01*
X222902800Y-193927200D01*
G75*
G02*
X222742800Y-193767200I0J160000D01*
G01*
X222742800Y-193447200D01*
G75*
G02*
X222902800Y-193287200I160000J0D01*
G01*
X223297800Y-193287200D01*
G75*
G02*
X223457800Y-193447200I0J-160000D01*
G01*
G37*
G04 #@! TD.AperFunction*
G04 #@! TA.AperFunction,SMDPad,CuDef*
G36*
G01*
X224652800Y-193447200D02*
X224652800Y-193767200D01*
G75*
G02*
X224492800Y-193927200I-160000J0D01*
G01*
X224097800Y-193927200D01*
G75*
G02*
X223937800Y-193767200I0J160000D01*
G01*
X223937800Y-193447200D01*
G75*
G02*
X224097800Y-193287200I160000J0D01*
G01*
X224492800Y-193287200D01*
G75*
G02*
X224652800Y-193447200I0J-160000D01*
G01*
G37*
G04 #@! TD.AperFunction*
G04 #@! TA.AperFunction,SMDPad,CuDef*
G36*
G01*
X137431800Y-196277200D02*
X137751800Y-196277200D01*
G75*
G02*
X137911800Y-196437200I0J-160000D01*
G01*
X137911800Y-196832200D01*
G75*
G02*
X137751800Y-196992200I-160000J0D01*
G01*
X137431800Y-196992200D01*
G75*
G02*
X137271800Y-196832200I0J160000D01*
G01*
X137271800Y-196437200D01*
G75*
G02*
X137431800Y-196277200I160000J0D01*
G01*
G37*
G04 #@! TD.AperFunction*
G04 #@! TA.AperFunction,SMDPad,CuDef*
G36*
G01*
X137431800Y-195082200D02*
X137751800Y-195082200D01*
G75*
G02*
X137911800Y-195242200I0J-160000D01*
G01*
X137911800Y-195637200D01*
G75*
G02*
X137751800Y-195797200I-160000J0D01*
G01*
X137431800Y-195797200D01*
G75*
G02*
X137271800Y-195637200I0J160000D01*
G01*
X137271800Y-195242200D01*
G75*
G02*
X137431800Y-195082200I160000J0D01*
G01*
G37*
G04 #@! TD.AperFunction*
G04 #@! TA.AperFunction,SMDPad,CuDef*
G36*
G01*
X179341800Y-195082200D02*
X179661800Y-195082200D01*
G75*
G02*
X179821800Y-195242200I0J-160000D01*
G01*
X179821800Y-195637200D01*
G75*
G02*
X179661800Y-195797200I-160000J0D01*
G01*
X179341800Y-195797200D01*
G75*
G02*
X179181800Y-195637200I0J160000D01*
G01*
X179181800Y-195242200D01*
G75*
G02*
X179341800Y-195082200I160000J0D01*
G01*
G37*
G04 #@! TD.AperFunction*
G04 #@! TA.AperFunction,SMDPad,CuDef*
G36*
G01*
X179341800Y-196277200D02*
X179661800Y-196277200D01*
G75*
G02*
X179821800Y-196437200I0J-160000D01*
G01*
X179821800Y-196832200D01*
G75*
G02*
X179661800Y-196992200I-160000J0D01*
G01*
X179341800Y-196992200D01*
G75*
G02*
X179181800Y-196832200I0J160000D01*
G01*
X179181800Y-196437200D01*
G75*
G02*
X179341800Y-196277200I160000J0D01*
G01*
G37*
G04 #@! TD.AperFunction*
G04 #@! TA.AperFunction,SMDPad,CuDef*
G36*
G01*
X221251800Y-196277200D02*
X221571800Y-196277200D01*
G75*
G02*
X221731800Y-196437200I0J-160000D01*
G01*
X221731800Y-196832200D01*
G75*
G02*
X221571800Y-196992200I-160000J0D01*
G01*
X221251800Y-196992200D01*
G75*
G02*
X221091800Y-196832200I0J160000D01*
G01*
X221091800Y-196437200D01*
G75*
G02*
X221251800Y-196277200I160000J0D01*
G01*
G37*
G04 #@! TD.AperFunction*
G04 #@! TA.AperFunction,SMDPad,CuDef*
G36*
G01*
X221251800Y-195082200D02*
X221571800Y-195082200D01*
G75*
G02*
X221731800Y-195242200I0J-160000D01*
G01*
X221731800Y-195637200D01*
G75*
G02*
X221571800Y-195797200I-160000J0D01*
G01*
X221251800Y-195797200D01*
G75*
G02*
X221091800Y-195637200I0J160000D01*
G01*
X221091800Y-195242200D01*
G75*
G02*
X221251800Y-195082200I160000J0D01*
G01*
G37*
G04 #@! TD.AperFunction*
G04 #@! TA.AperFunction,SMDPad,CuDef*
G36*
G01*
X135508300Y-193767200D02*
X135508300Y-193447200D01*
G75*
G02*
X135668300Y-193287200I160000J0D01*
G01*
X136063300Y-193287200D01*
G75*
G02*
X136223300Y-193447200I0J-160000D01*
G01*
X136223300Y-193767200D01*
G75*
G02*
X136063300Y-193927200I-160000J0D01*
G01*
X135668300Y-193927200D01*
G75*
G02*
X135508300Y-193767200I0J160000D01*
G01*
G37*
G04 #@! TD.AperFunction*
G04 #@! TA.AperFunction,SMDPad,CuDef*
G36*
G01*
X134313300Y-193767200D02*
X134313300Y-193447200D01*
G75*
G02*
X134473300Y-193287200I160000J0D01*
G01*
X134868300Y-193287200D01*
G75*
G02*
X135028300Y-193447200I0J-160000D01*
G01*
X135028300Y-193767200D01*
G75*
G02*
X134868300Y-193927200I-160000J0D01*
G01*
X134473300Y-193927200D01*
G75*
G02*
X134313300Y-193767200I0J160000D01*
G01*
G37*
G04 #@! TD.AperFunction*
G04 #@! TA.AperFunction,SMDPad,CuDef*
G36*
G01*
X177455800Y-193767200D02*
X177455800Y-193447200D01*
G75*
G02*
X177615800Y-193287200I160000J0D01*
G01*
X178010800Y-193287200D01*
G75*
G02*
X178170800Y-193447200I0J-160000D01*
G01*
X178170800Y-193767200D01*
G75*
G02*
X178010800Y-193927200I-160000J0D01*
G01*
X177615800Y-193927200D01*
G75*
G02*
X177455800Y-193767200I0J160000D01*
G01*
G37*
G04 #@! TD.AperFunction*
G04 #@! TA.AperFunction,SMDPad,CuDef*
G36*
G01*
X176260800Y-193767200D02*
X176260800Y-193447200D01*
G75*
G02*
X176420800Y-193287200I160000J0D01*
G01*
X176815800Y-193287200D01*
G75*
G02*
X176975800Y-193447200I0J-160000D01*
G01*
X176975800Y-193767200D01*
G75*
G02*
X176815800Y-193927200I-160000J0D01*
G01*
X176420800Y-193927200D01*
G75*
G02*
X176260800Y-193767200I0J160000D01*
G01*
G37*
G04 #@! TD.AperFunction*
G04 #@! TA.AperFunction,SMDPad,CuDef*
G36*
G01*
X218297800Y-193767200D02*
X218297800Y-193447200D01*
G75*
G02*
X218457800Y-193287200I160000J0D01*
G01*
X218852800Y-193287200D01*
G75*
G02*
X219012800Y-193447200I0J-160000D01*
G01*
X219012800Y-193767200D01*
G75*
G02*
X218852800Y-193927200I-160000J0D01*
G01*
X218457800Y-193927200D01*
G75*
G02*
X218297800Y-193767200I0J160000D01*
G01*
G37*
G04 #@! TD.AperFunction*
G04 #@! TA.AperFunction,SMDPad,CuDef*
G36*
G01*
X219492800Y-193767200D02*
X219492800Y-193447200D01*
G75*
G02*
X219652800Y-193287200I160000J0D01*
G01*
X220047800Y-193287200D01*
G75*
G02*
X220207800Y-193447200I0J-160000D01*
G01*
X220207800Y-193767200D01*
G75*
G02*
X220047800Y-193927200I-160000J0D01*
G01*
X219652800Y-193927200D01*
G75*
G02*
X219492800Y-193767200I0J160000D01*
G01*
G37*
G04 #@! TD.AperFunction*
G04 #@! TA.AperFunction,SMDPad,CuDef*
G36*
G01*
X156979600Y-180126600D02*
X156659600Y-180126600D01*
G75*
G02*
X156499600Y-179966600I0J160000D01*
G01*
X156499600Y-179571600D01*
G75*
G02*
X156659600Y-179411600I160000J0D01*
G01*
X156979600Y-179411600D01*
G75*
G02*
X157139600Y-179571600I0J-160000D01*
G01*
X157139600Y-179966600D01*
G75*
G02*
X156979600Y-180126600I-160000J0D01*
G01*
G37*
G04 #@! TD.AperFunction*
G04 #@! TA.AperFunction,SMDPad,CuDef*
G36*
G01*
X156979600Y-178931600D02*
X156659600Y-178931600D01*
G75*
G02*
X156499600Y-178771600I0J160000D01*
G01*
X156499600Y-178376600D01*
G75*
G02*
X156659600Y-178216600I160000J0D01*
G01*
X156979600Y-178216600D01*
G75*
G02*
X157139600Y-178376600I0J-160000D01*
G01*
X157139600Y-178771600D01*
G75*
G02*
X156979600Y-178931600I-160000J0D01*
G01*
G37*
G04 #@! TD.AperFunction*
G04 #@! TA.AperFunction,SMDPad,CuDef*
G36*
G01*
X157955000Y-178203300D02*
X158275000Y-178203300D01*
G75*
G02*
X158435000Y-178363300I0J-160000D01*
G01*
X158435000Y-178758300D01*
G75*
G02*
X158275000Y-178918300I-160000J0D01*
G01*
X157955000Y-178918300D01*
G75*
G02*
X157795000Y-178758300I0J160000D01*
G01*
X157795000Y-178363300D01*
G75*
G02*
X157955000Y-178203300I160000J0D01*
G01*
G37*
G04 #@! TD.AperFunction*
G04 #@! TA.AperFunction,SMDPad,CuDef*
G36*
G01*
X157955000Y-179398300D02*
X158275000Y-179398300D01*
G75*
G02*
X158435000Y-179558300I0J-160000D01*
G01*
X158435000Y-179953300D01*
G75*
G02*
X158275000Y-180113300I-160000J0D01*
G01*
X157955000Y-180113300D01*
G75*
G02*
X157795000Y-179953300I0J160000D01*
G01*
X157795000Y-179558300D01*
G75*
G02*
X157955000Y-179398300I160000J0D01*
G01*
G37*
G04 #@! TD.AperFunction*
G04 #@! TA.AperFunction,SMDPad,CuDef*
G36*
G01*
X205935600Y-125638600D02*
X206255600Y-125638600D01*
G75*
G02*
X206415600Y-125798600I0J-160000D01*
G01*
X206415600Y-126193600D01*
G75*
G02*
X206255600Y-126353600I-160000J0D01*
G01*
X205935600Y-126353600D01*
G75*
G02*
X205775600Y-126193600I0J160000D01*
G01*
X205775600Y-125798600D01*
G75*
G02*
X205935600Y-125638600I160000J0D01*
G01*
G37*
G04 #@! TD.AperFunction*
G04 #@! TA.AperFunction,SMDPad,CuDef*
G36*
G01*
X205935600Y-126833600D02*
X206255600Y-126833600D01*
G75*
G02*
X206415600Y-126993600I0J-160000D01*
G01*
X206415600Y-127388600D01*
G75*
G02*
X206255600Y-127548600I-160000J0D01*
G01*
X205935600Y-127548600D01*
G75*
G02*
X205775600Y-127388600I0J160000D01*
G01*
X205775600Y-126993600D01*
G75*
G02*
X205935600Y-126833600I160000J0D01*
G01*
G37*
G04 #@! TD.AperFunction*
G04 #@! TA.AperFunction,SMDPad,CuDef*
G36*
G01*
X204985600Y-127548600D02*
X204665600Y-127548600D01*
G75*
G02*
X204505600Y-127388600I0J160000D01*
G01*
X204505600Y-126993600D01*
G75*
G02*
X204665600Y-126833600I160000J0D01*
G01*
X204985600Y-126833600D01*
G75*
G02*
X205145600Y-126993600I0J-160000D01*
G01*
X205145600Y-127388600D01*
G75*
G02*
X204985600Y-127548600I-160000J0D01*
G01*
G37*
G04 #@! TD.AperFunction*
G04 #@! TA.AperFunction,SMDPad,CuDef*
G36*
G01*
X204985600Y-126353600D02*
X204665600Y-126353600D01*
G75*
G02*
X204505600Y-126193600I0J160000D01*
G01*
X204505600Y-125798600D01*
G75*
G02*
X204665600Y-125638600I160000J0D01*
G01*
X204985600Y-125638600D01*
G75*
G02*
X205145600Y-125798600I0J-160000D01*
G01*
X205145600Y-126193600D01*
G75*
G02*
X204985600Y-126353600I-160000J0D01*
G01*
G37*
G04 #@! TD.AperFunction*
G04 #@! TA.AperFunction,SMDPad,CuDef*
G36*
G01*
X203823600Y-124528600D02*
X203823600Y-124848600D01*
G75*
G02*
X203663600Y-125008600I-160000J0D01*
G01*
X203268600Y-125008600D01*
G75*
G02*
X203108600Y-124848600I0J160000D01*
G01*
X203108600Y-124528600D01*
G75*
G02*
X203268600Y-124368600I160000J0D01*
G01*
X203663600Y-124368600D01*
G75*
G02*
X203823600Y-124528600I0J-160000D01*
G01*
G37*
G04 #@! TD.AperFunction*
G04 #@! TA.AperFunction,SMDPad,CuDef*
G36*
G01*
X205018600Y-124528600D02*
X205018600Y-124848600D01*
G75*
G02*
X204858600Y-125008600I-160000J0D01*
G01*
X204463600Y-125008600D01*
G75*
G02*
X204303600Y-124848600I0J160000D01*
G01*
X204303600Y-124528600D01*
G75*
G02*
X204463600Y-124368600I160000J0D01*
G01*
X204858600Y-124368600D01*
G75*
G02*
X205018600Y-124528600I0J-160000D01*
G01*
G37*
G04 #@! TD.AperFunction*
G04 #@! TA.AperFunction,SMDPad,CuDef*
G36*
G01*
X209745600Y-125765600D02*
X210065600Y-125765600D01*
G75*
G02*
X210225600Y-125925600I0J-160000D01*
G01*
X210225600Y-126320600D01*
G75*
G02*
X210065600Y-126480600I-160000J0D01*
G01*
X209745600Y-126480600D01*
G75*
G02*
X209585600Y-126320600I0J160000D01*
G01*
X209585600Y-125925600D01*
G75*
G02*
X209745600Y-125765600I160000J0D01*
G01*
G37*
G04 #@! TD.AperFunction*
G04 #@! TA.AperFunction,SMDPad,CuDef*
G36*
G01*
X209745600Y-126960600D02*
X210065600Y-126960600D01*
G75*
G02*
X210225600Y-127120600I0J-160000D01*
G01*
X210225600Y-127515600D01*
G75*
G02*
X210065600Y-127675600I-160000J0D01*
G01*
X209745600Y-127675600D01*
G75*
G02*
X209585600Y-127515600I0J160000D01*
G01*
X209585600Y-127120600D01*
G75*
G02*
X209745600Y-126960600I160000J0D01*
G01*
G37*
G04 #@! TD.AperFunction*
G04 #@! TA.AperFunction,SMDPad,CuDef*
G36*
G01*
X208795600Y-127675600D02*
X208475600Y-127675600D01*
G75*
G02*
X208315600Y-127515600I0J160000D01*
G01*
X208315600Y-127120600D01*
G75*
G02*
X208475600Y-126960600I160000J0D01*
G01*
X208795600Y-126960600D01*
G75*
G02*
X208955600Y-127120600I0J-160000D01*
G01*
X208955600Y-127515600D01*
G75*
G02*
X208795600Y-127675600I-160000J0D01*
G01*
G37*
G04 #@! TD.AperFunction*
G04 #@! TA.AperFunction,SMDPad,CuDef*
G36*
G01*
X208795600Y-126480600D02*
X208475600Y-126480600D01*
G75*
G02*
X208315600Y-126320600I0J160000D01*
G01*
X208315600Y-125925600D01*
G75*
G02*
X208475600Y-125765600I160000J0D01*
G01*
X208795600Y-125765600D01*
G75*
G02*
X208955600Y-125925600I0J-160000D01*
G01*
X208955600Y-126320600D01*
G75*
G02*
X208795600Y-126480600I-160000J0D01*
G01*
G37*
G04 #@! TD.AperFunction*
G04 #@! TA.AperFunction,SMDPad,CuDef*
G36*
G01*
X208955600Y-124528600D02*
X208955600Y-124848600D01*
G75*
G02*
X208795600Y-125008600I-160000J0D01*
G01*
X208400600Y-125008600D01*
G75*
G02*
X208240600Y-124848600I0J160000D01*
G01*
X208240600Y-124528600D01*
G75*
G02*
X208400600Y-124368600I160000J0D01*
G01*
X208795600Y-124368600D01*
G75*
G02*
X208955600Y-124528600I0J-160000D01*
G01*
G37*
G04 #@! TD.AperFunction*
G04 #@! TA.AperFunction,SMDPad,CuDef*
G36*
G01*
X207760600Y-124528600D02*
X207760600Y-124848600D01*
G75*
G02*
X207600600Y-125008600I-160000J0D01*
G01*
X207205600Y-125008600D01*
G75*
G02*
X207045600Y-124848600I0J160000D01*
G01*
X207045600Y-124528600D01*
G75*
G02*
X207205600Y-124368600I160000J0D01*
G01*
X207600600Y-124368600D01*
G75*
G02*
X207760600Y-124528600I0J-160000D01*
G01*
G37*
G04 #@! TD.AperFunction*
G04 #@! TA.AperFunction,SMDPad,CuDef*
G36*
G01*
X210954600Y-110022600D02*
X210634600Y-110022600D01*
G75*
G02*
X210474600Y-109862600I0J160000D01*
G01*
X210474600Y-109467600D01*
G75*
G02*
X210634600Y-109307600I160000J0D01*
G01*
X210954600Y-109307600D01*
G75*
G02*
X211114600Y-109467600I0J-160000D01*
G01*
X211114600Y-109862600D01*
G75*
G02*
X210954600Y-110022600I-160000J0D01*
G01*
G37*
G04 #@! TD.AperFunction*
G04 #@! TA.AperFunction,SMDPad,CuDef*
G36*
G01*
X210954600Y-108827600D02*
X210634600Y-108827600D01*
G75*
G02*
X210474600Y-108667600I0J160000D01*
G01*
X210474600Y-108272600D01*
G75*
G02*
X210634600Y-108112600I160000J0D01*
G01*
X210954600Y-108112600D01*
G75*
G02*
X211114600Y-108272600I0J-160000D01*
G01*
X211114600Y-108667600D01*
G75*
G02*
X210954600Y-108827600I-160000J0D01*
G01*
G37*
G04 #@! TD.AperFunction*
G04 #@! TA.AperFunction,SMDPad,CuDef*
G36*
G01*
X209364600Y-109307600D02*
X209684600Y-109307600D01*
G75*
G02*
X209844600Y-109467600I0J-160000D01*
G01*
X209844600Y-109862600D01*
G75*
G02*
X209684600Y-110022600I-160000J0D01*
G01*
X209364600Y-110022600D01*
G75*
G02*
X209204600Y-109862600I0J160000D01*
G01*
X209204600Y-109467600D01*
G75*
G02*
X209364600Y-109307600I160000J0D01*
G01*
G37*
G04 #@! TD.AperFunction*
G04 #@! TA.AperFunction,SMDPad,CuDef*
G36*
G01*
X209364600Y-108112600D02*
X209684600Y-108112600D01*
G75*
G02*
X209844600Y-108272600I0J-160000D01*
G01*
X209844600Y-108667600D01*
G75*
G02*
X209684600Y-108827600I-160000J0D01*
G01*
X209364600Y-108827600D01*
G75*
G02*
X209204600Y-108667600I0J160000D01*
G01*
X209204600Y-108272600D01*
G75*
G02*
X209364600Y-108112600I160000J0D01*
G01*
G37*
G04 #@! TD.AperFunction*
G04 #@! TA.AperFunction,SMDPad,CuDef*
G36*
G01*
X208649600Y-111066600D02*
X208649600Y-111386600D01*
G75*
G02*
X208489600Y-111546600I-160000J0D01*
G01*
X208094600Y-111546600D01*
G75*
G02*
X207934600Y-111386600I0J160000D01*
G01*
X207934600Y-111066600D01*
G75*
G02*
X208094600Y-110906600I160000J0D01*
G01*
X208489600Y-110906600D01*
G75*
G02*
X208649600Y-111066600I0J-160000D01*
G01*
G37*
G04 #@! TD.AperFunction*
G04 #@! TA.AperFunction,SMDPad,CuDef*
G36*
G01*
X209844600Y-111066600D02*
X209844600Y-111386600D01*
G75*
G02*
X209684600Y-111546600I-160000J0D01*
G01*
X209289600Y-111546600D01*
G75*
G02*
X209129600Y-111386600I0J160000D01*
G01*
X209129600Y-111066600D01*
G75*
G02*
X209289600Y-110906600I160000J0D01*
G01*
X209684600Y-110906600D01*
G75*
G02*
X209844600Y-111066600I0J-160000D01*
G01*
G37*
G04 #@! TD.AperFunction*
G04 #@! TA.AperFunction,SMDPad,CuDef*
G36*
G01*
X202953600Y-110022600D02*
X202633600Y-110022600D01*
G75*
G02*
X202473600Y-109862600I0J160000D01*
G01*
X202473600Y-109467600D01*
G75*
G02*
X202633600Y-109307600I160000J0D01*
G01*
X202953600Y-109307600D01*
G75*
G02*
X203113600Y-109467600I0J-160000D01*
G01*
X203113600Y-109862600D01*
G75*
G02*
X202953600Y-110022600I-160000J0D01*
G01*
G37*
G04 #@! TD.AperFunction*
G04 #@! TA.AperFunction,SMDPad,CuDef*
G36*
G01*
X202953600Y-108827600D02*
X202633600Y-108827600D01*
G75*
G02*
X202473600Y-108667600I0J160000D01*
G01*
X202473600Y-108272600D01*
G75*
G02*
X202633600Y-108112600I160000J0D01*
G01*
X202953600Y-108112600D01*
G75*
G02*
X203113600Y-108272600I0J-160000D01*
G01*
X203113600Y-108667600D01*
G75*
G02*
X202953600Y-108827600I-160000J0D01*
G01*
G37*
G04 #@! TD.AperFunction*
G04 #@! TA.AperFunction,SMDPad,CuDef*
G36*
G01*
X203903600Y-109307600D02*
X204223600Y-109307600D01*
G75*
G02*
X204383600Y-109467600I0J-160000D01*
G01*
X204383600Y-109862600D01*
G75*
G02*
X204223600Y-110022600I-160000J0D01*
G01*
X203903600Y-110022600D01*
G75*
G02*
X203743600Y-109862600I0J160000D01*
G01*
X203743600Y-109467600D01*
G75*
G02*
X203903600Y-109307600I160000J0D01*
G01*
G37*
G04 #@! TD.AperFunction*
G04 #@! TA.AperFunction,SMDPad,CuDef*
G36*
G01*
X203903600Y-108112600D02*
X204223600Y-108112600D01*
G75*
G02*
X204383600Y-108272600I0J-160000D01*
G01*
X204383600Y-108667600D01*
G75*
G02*
X204223600Y-108827600I-160000J0D01*
G01*
X203903600Y-108827600D01*
G75*
G02*
X203743600Y-108667600I0J160000D01*
G01*
X203743600Y-108272600D01*
G75*
G02*
X203903600Y-108112600I160000J0D01*
G01*
G37*
G04 #@! TD.AperFunction*
G04 #@! TA.AperFunction,SMDPad,CuDef*
G36*
G01*
X206923600Y-111104100D02*
X206923600Y-111424100D01*
G75*
G02*
X206763600Y-111584100I-160000J0D01*
G01*
X206368600Y-111584100D01*
G75*
G02*
X206208600Y-111424100I0J160000D01*
G01*
X206208600Y-111104100D01*
G75*
G02*
X206368600Y-110944100I160000J0D01*
G01*
X206763600Y-110944100D01*
G75*
G02*
X206923600Y-111104100I0J-160000D01*
G01*
G37*
G04 #@! TD.AperFunction*
G04 #@! TA.AperFunction,SMDPad,CuDef*
G36*
G01*
X205728600Y-111104100D02*
X205728600Y-111424100D01*
G75*
G02*
X205568600Y-111584100I-160000J0D01*
G01*
X205173600Y-111584100D01*
G75*
G02*
X205013600Y-111424100I0J160000D01*
G01*
X205013600Y-111104100D01*
G75*
G02*
X205173600Y-110944100I160000J0D01*
G01*
X205568600Y-110944100D01*
G75*
G02*
X205728600Y-111104100I0J-160000D01*
G01*
G37*
G04 #@! TD.AperFunction*
G04 #@! TA.AperFunction,SMDPad,CuDef*
G36*
G01*
X148832600Y-132440700D02*
X148832600Y-132760700D01*
G75*
G02*
X148672600Y-132920700I-160000J0D01*
G01*
X148277600Y-132920700D01*
G75*
G02*
X148117600Y-132760700I0J160000D01*
G01*
X148117600Y-132440700D01*
G75*
G02*
X148277600Y-132280700I160000J0D01*
G01*
X148672600Y-132280700D01*
G75*
G02*
X148832600Y-132440700I0J-160000D01*
G01*
G37*
G04 #@! TD.AperFunction*
G04 #@! TA.AperFunction,SMDPad,CuDef*
G36*
G01*
X150027600Y-132440700D02*
X150027600Y-132760700D01*
G75*
G02*
X149867600Y-132920700I-160000J0D01*
G01*
X149472600Y-132920700D01*
G75*
G02*
X149312600Y-132760700I0J160000D01*
G01*
X149312600Y-132440700D01*
G75*
G02*
X149472600Y-132280700I160000J0D01*
G01*
X149867600Y-132280700D01*
G75*
G02*
X150027600Y-132440700I0J-160000D01*
G01*
G37*
G04 #@! TD.AperFunction*
G04 #@! TA.AperFunction,SMDPad,CuDef*
G36*
G01*
X157999400Y-137574000D02*
X157999400Y-137254000D01*
G75*
G02*
X158159400Y-137094000I160000J0D01*
G01*
X158554400Y-137094000D01*
G75*
G02*
X158714400Y-137254000I0J-160000D01*
G01*
X158714400Y-137574000D01*
G75*
G02*
X158554400Y-137734000I-160000J0D01*
G01*
X158159400Y-137734000D01*
G75*
G02*
X157999400Y-137574000I0J160000D01*
G01*
G37*
G04 #@! TD.AperFunction*
G04 #@! TA.AperFunction,SMDPad,CuDef*
G36*
G01*
X156804400Y-137574000D02*
X156804400Y-137254000D01*
G75*
G02*
X156964400Y-137094000I160000J0D01*
G01*
X157359400Y-137094000D01*
G75*
G02*
X157519400Y-137254000I0J-160000D01*
G01*
X157519400Y-137574000D01*
G75*
G02*
X157359400Y-137734000I-160000J0D01*
G01*
X156964400Y-137734000D01*
G75*
G02*
X156804400Y-137574000I0J160000D01*
G01*
G37*
G04 #@! TD.AperFunction*
D17*
X236601000Y-221742000D03*
G04 #@! TA.AperFunction,SMDPad,CuDef*
G36*
G01*
X165237800Y-174551200D02*
X165237800Y-174851200D01*
G75*
G02*
X165087800Y-175001200I-150000J0D01*
G01*
X163337800Y-175001200D01*
G75*
G02*
X163187800Y-174851200I0J150000D01*
G01*
X163187800Y-174551200D01*
G75*
G02*
X163337800Y-174401200I150000J0D01*
G01*
X165087800Y-174401200D01*
G75*
G02*
X165237800Y-174551200I0J-150000D01*
G01*
G37*
G04 #@! TD.AperFunction*
G04 #@! TA.AperFunction,SMDPad,CuDef*
G36*
G01*
X165237800Y-173281200D02*
X165237800Y-173581200D01*
G75*
G02*
X165087800Y-173731200I-150000J0D01*
G01*
X163337800Y-173731200D01*
G75*
G02*
X163187800Y-173581200I0J150000D01*
G01*
X163187800Y-173281200D01*
G75*
G02*
X163337800Y-173131200I150000J0D01*
G01*
X165087800Y-173131200D01*
G75*
G02*
X165237800Y-173281200I0J-150000D01*
G01*
G37*
G04 #@! TD.AperFunction*
G04 #@! TA.AperFunction,SMDPad,CuDef*
G36*
G01*
X165237800Y-172011200D02*
X165237800Y-172311200D01*
G75*
G02*
X165087800Y-172461200I-150000J0D01*
G01*
X163337800Y-172461200D01*
G75*
G02*
X163187800Y-172311200I0J150000D01*
G01*
X163187800Y-172011200D01*
G75*
G02*
X163337800Y-171861200I150000J0D01*
G01*
X165087800Y-171861200D01*
G75*
G02*
X165237800Y-172011200I0J-150000D01*
G01*
G37*
G04 #@! TD.AperFunction*
G04 #@! TA.AperFunction,SMDPad,CuDef*
G36*
G01*
X165237800Y-170741200D02*
X165237800Y-171041200D01*
G75*
G02*
X165087800Y-171191200I-150000J0D01*
G01*
X163337800Y-171191200D01*
G75*
G02*
X163187800Y-171041200I0J150000D01*
G01*
X163187800Y-170741200D01*
G75*
G02*
X163337800Y-170591200I150000J0D01*
G01*
X165087800Y-170591200D01*
G75*
G02*
X165237800Y-170741200I0J-150000D01*
G01*
G37*
G04 #@! TD.AperFunction*
G04 #@! TA.AperFunction,SMDPad,CuDef*
G36*
G01*
X165237800Y-169471200D02*
X165237800Y-169771200D01*
G75*
G02*
X165087800Y-169921200I-150000J0D01*
G01*
X163337800Y-169921200D01*
G75*
G02*
X163187800Y-169771200I0J150000D01*
G01*
X163187800Y-169471200D01*
G75*
G02*
X163337800Y-169321200I150000J0D01*
G01*
X165087800Y-169321200D01*
G75*
G02*
X165237800Y-169471200I0J-150000D01*
G01*
G37*
G04 #@! TD.AperFunction*
G04 #@! TA.AperFunction,SMDPad,CuDef*
G36*
G01*
X165237800Y-168201200D02*
X165237800Y-168501200D01*
G75*
G02*
X165087800Y-168651200I-150000J0D01*
G01*
X163337800Y-168651200D01*
G75*
G02*
X163187800Y-168501200I0J150000D01*
G01*
X163187800Y-168201200D01*
G75*
G02*
X163337800Y-168051200I150000J0D01*
G01*
X165087800Y-168051200D01*
G75*
G02*
X165237800Y-168201200I0J-150000D01*
G01*
G37*
G04 #@! TD.AperFunction*
G04 #@! TA.AperFunction,SMDPad,CuDef*
G36*
G01*
X165237800Y-166931200D02*
X165237800Y-167231200D01*
G75*
G02*
X165087800Y-167381200I-150000J0D01*
G01*
X163337800Y-167381200D01*
G75*
G02*
X163187800Y-167231200I0J150000D01*
G01*
X163187800Y-166931200D01*
G75*
G02*
X163337800Y-166781200I150000J0D01*
G01*
X165087800Y-166781200D01*
G75*
G02*
X165237800Y-166931200I0J-150000D01*
G01*
G37*
G04 #@! TD.AperFunction*
G04 #@! TA.AperFunction,SMDPad,CuDef*
G36*
G01*
X165237800Y-165661200D02*
X165237800Y-165961200D01*
G75*
G02*
X165087800Y-166111200I-150000J0D01*
G01*
X163337800Y-166111200D01*
G75*
G02*
X163187800Y-165961200I0J150000D01*
G01*
X163187800Y-165661200D01*
G75*
G02*
X163337800Y-165511200I150000J0D01*
G01*
X165087800Y-165511200D01*
G75*
G02*
X165237800Y-165661200I0J-150000D01*
G01*
G37*
G04 #@! TD.AperFunction*
G04 #@! TA.AperFunction,SMDPad,CuDef*
G36*
G01*
X165237800Y-164391200D02*
X165237800Y-164691200D01*
G75*
G02*
X165087800Y-164841200I-150000J0D01*
G01*
X163337800Y-164841200D01*
G75*
G02*
X163187800Y-164691200I0J150000D01*
G01*
X163187800Y-164391200D01*
G75*
G02*
X163337800Y-164241200I150000J0D01*
G01*
X165087800Y-164241200D01*
G75*
G02*
X165237800Y-164391200I0J-150000D01*
G01*
G37*
G04 #@! TD.AperFunction*
G04 #@! TA.AperFunction,SMDPad,CuDef*
G36*
G01*
X165237800Y-163121200D02*
X165237800Y-163421200D01*
G75*
G02*
X165087800Y-163571200I-150000J0D01*
G01*
X163337800Y-163571200D01*
G75*
G02*
X163187800Y-163421200I0J150000D01*
G01*
X163187800Y-163121200D01*
G75*
G02*
X163337800Y-162971200I150000J0D01*
G01*
X165087800Y-162971200D01*
G75*
G02*
X165237800Y-163121200I0J-150000D01*
G01*
G37*
G04 #@! TD.AperFunction*
G04 #@! TA.AperFunction,SMDPad,CuDef*
G36*
G01*
X165237800Y-161851200D02*
X165237800Y-162151200D01*
G75*
G02*
X165087800Y-162301200I-150000J0D01*
G01*
X163337800Y-162301200D01*
G75*
G02*
X163187800Y-162151200I0J150000D01*
G01*
X163187800Y-161851200D01*
G75*
G02*
X163337800Y-161701200I150000J0D01*
G01*
X165087800Y-161701200D01*
G75*
G02*
X165237800Y-161851200I0J-150000D01*
G01*
G37*
G04 #@! TD.AperFunction*
G04 #@! TA.AperFunction,SMDPad,CuDef*
G36*
G01*
X165237800Y-160581200D02*
X165237800Y-160881200D01*
G75*
G02*
X165087800Y-161031200I-150000J0D01*
G01*
X163337800Y-161031200D01*
G75*
G02*
X163187800Y-160881200I0J150000D01*
G01*
X163187800Y-160581200D01*
G75*
G02*
X163337800Y-160431200I150000J0D01*
G01*
X165087800Y-160431200D01*
G75*
G02*
X165237800Y-160581200I0J-150000D01*
G01*
G37*
G04 #@! TD.AperFunction*
G04 #@! TA.AperFunction,SMDPad,CuDef*
G36*
G01*
X155937800Y-160581200D02*
X155937800Y-160881200D01*
G75*
G02*
X155787800Y-161031200I-150000J0D01*
G01*
X154037800Y-161031200D01*
G75*
G02*
X153887800Y-160881200I0J150000D01*
G01*
X153887800Y-160581200D01*
G75*
G02*
X154037800Y-160431200I150000J0D01*
G01*
X155787800Y-160431200D01*
G75*
G02*
X155937800Y-160581200I0J-150000D01*
G01*
G37*
G04 #@! TD.AperFunction*
G04 #@! TA.AperFunction,SMDPad,CuDef*
G36*
G01*
X155937800Y-161851200D02*
X155937800Y-162151200D01*
G75*
G02*
X155787800Y-162301200I-150000J0D01*
G01*
X154037800Y-162301200D01*
G75*
G02*
X153887800Y-162151200I0J150000D01*
G01*
X153887800Y-161851200D01*
G75*
G02*
X154037800Y-161701200I150000J0D01*
G01*
X155787800Y-161701200D01*
G75*
G02*
X155937800Y-161851200I0J-150000D01*
G01*
G37*
G04 #@! TD.AperFunction*
G04 #@! TA.AperFunction,SMDPad,CuDef*
G36*
G01*
X155937800Y-163121200D02*
X155937800Y-163421200D01*
G75*
G02*
X155787800Y-163571200I-150000J0D01*
G01*
X154037800Y-163571200D01*
G75*
G02*
X153887800Y-163421200I0J150000D01*
G01*
X153887800Y-163121200D01*
G75*
G02*
X154037800Y-162971200I150000J0D01*
G01*
X155787800Y-162971200D01*
G75*
G02*
X155937800Y-163121200I0J-150000D01*
G01*
G37*
G04 #@! TD.AperFunction*
G04 #@! TA.AperFunction,SMDPad,CuDef*
G36*
G01*
X155937800Y-164391200D02*
X155937800Y-164691200D01*
G75*
G02*
X155787800Y-164841200I-150000J0D01*
G01*
X154037800Y-164841200D01*
G75*
G02*
X153887800Y-164691200I0J150000D01*
G01*
X153887800Y-164391200D01*
G75*
G02*
X154037800Y-164241200I150000J0D01*
G01*
X155787800Y-164241200D01*
G75*
G02*
X155937800Y-164391200I0J-150000D01*
G01*
G37*
G04 #@! TD.AperFunction*
G04 #@! TA.AperFunction,SMDPad,CuDef*
G36*
G01*
X155937800Y-165661200D02*
X155937800Y-165961200D01*
G75*
G02*
X155787800Y-166111200I-150000J0D01*
G01*
X154037800Y-166111200D01*
G75*
G02*
X153887800Y-165961200I0J150000D01*
G01*
X153887800Y-165661200D01*
G75*
G02*
X154037800Y-165511200I150000J0D01*
G01*
X155787800Y-165511200D01*
G75*
G02*
X155937800Y-165661200I0J-150000D01*
G01*
G37*
G04 #@! TD.AperFunction*
G04 #@! TA.AperFunction,SMDPad,CuDef*
G36*
G01*
X155937800Y-166931200D02*
X155937800Y-167231200D01*
G75*
G02*
X155787800Y-167381200I-150000J0D01*
G01*
X154037800Y-167381200D01*
G75*
G02*
X153887800Y-167231200I0J150000D01*
G01*
X153887800Y-166931200D01*
G75*
G02*
X154037800Y-166781200I150000J0D01*
G01*
X155787800Y-166781200D01*
G75*
G02*
X155937800Y-166931200I0J-150000D01*
G01*
G37*
G04 #@! TD.AperFunction*
G04 #@! TA.AperFunction,SMDPad,CuDef*
G36*
G01*
X155937800Y-168201200D02*
X155937800Y-168501200D01*
G75*
G02*
X155787800Y-168651200I-150000J0D01*
G01*
X154037800Y-168651200D01*
G75*
G02*
X153887800Y-168501200I0J150000D01*
G01*
X153887800Y-168201200D01*
G75*
G02*
X154037800Y-168051200I150000J0D01*
G01*
X155787800Y-168051200D01*
G75*
G02*
X155937800Y-168201200I0J-150000D01*
G01*
G37*
G04 #@! TD.AperFunction*
G04 #@! TA.AperFunction,SMDPad,CuDef*
G36*
G01*
X155937800Y-169471200D02*
X155937800Y-169771200D01*
G75*
G02*
X155787800Y-169921200I-150000J0D01*
G01*
X154037800Y-169921200D01*
G75*
G02*
X153887800Y-169771200I0J150000D01*
G01*
X153887800Y-169471200D01*
G75*
G02*
X154037800Y-169321200I150000J0D01*
G01*
X155787800Y-169321200D01*
G75*
G02*
X155937800Y-169471200I0J-150000D01*
G01*
G37*
G04 #@! TD.AperFunction*
G04 #@! TA.AperFunction,SMDPad,CuDef*
G36*
G01*
X155937800Y-170741200D02*
X155937800Y-171041200D01*
G75*
G02*
X155787800Y-171191200I-150000J0D01*
G01*
X154037800Y-171191200D01*
G75*
G02*
X153887800Y-171041200I0J150000D01*
G01*
X153887800Y-170741200D01*
G75*
G02*
X154037800Y-170591200I150000J0D01*
G01*
X155787800Y-170591200D01*
G75*
G02*
X155937800Y-170741200I0J-150000D01*
G01*
G37*
G04 #@! TD.AperFunction*
G04 #@! TA.AperFunction,SMDPad,CuDef*
G36*
G01*
X155937800Y-172011200D02*
X155937800Y-172311200D01*
G75*
G02*
X155787800Y-172461200I-150000J0D01*
G01*
X154037800Y-172461200D01*
G75*
G02*
X153887800Y-172311200I0J150000D01*
G01*
X153887800Y-172011200D01*
G75*
G02*
X154037800Y-171861200I150000J0D01*
G01*
X155787800Y-171861200D01*
G75*
G02*
X155937800Y-172011200I0J-150000D01*
G01*
G37*
G04 #@! TD.AperFunction*
G04 #@! TA.AperFunction,SMDPad,CuDef*
G36*
G01*
X155937800Y-173281200D02*
X155937800Y-173581200D01*
G75*
G02*
X155787800Y-173731200I-150000J0D01*
G01*
X154037800Y-173731200D01*
G75*
G02*
X153887800Y-173581200I0J150000D01*
G01*
X153887800Y-173281200D01*
G75*
G02*
X154037800Y-173131200I150000J0D01*
G01*
X155787800Y-173131200D01*
G75*
G02*
X155937800Y-173281200I0J-150000D01*
G01*
G37*
G04 #@! TD.AperFunction*
G04 #@! TA.AperFunction,SMDPad,CuDef*
G36*
G01*
X155937800Y-174551200D02*
X155937800Y-174851200D01*
G75*
G02*
X155787800Y-175001200I-150000J0D01*
G01*
X154037800Y-175001200D01*
G75*
G02*
X153887800Y-174851200I0J150000D01*
G01*
X153887800Y-174551200D01*
G75*
G02*
X154037800Y-174401200I150000J0D01*
G01*
X155787800Y-174401200D01*
G75*
G02*
X155937800Y-174551200I0J-150000D01*
G01*
G37*
G04 #@! TD.AperFunction*
G04 #@! TA.AperFunction,SMDPad,CuDef*
G36*
G01*
X203601600Y-112722600D02*
X203601600Y-113032600D01*
G75*
G02*
X203446600Y-113187600I-155000J0D01*
G01*
X203021600Y-113187600D01*
G75*
G02*
X202866600Y-113032600I0J155000D01*
G01*
X202866600Y-112722600D01*
G75*
G02*
X203021600Y-112567600I155000J0D01*
G01*
X203446600Y-112567600D01*
G75*
G02*
X203601600Y-112722600I0J-155000D01*
G01*
G37*
G04 #@! TD.AperFunction*
G04 #@! TA.AperFunction,SMDPad,CuDef*
G36*
G01*
X202466600Y-112722600D02*
X202466600Y-113032600D01*
G75*
G02*
X202311600Y-113187600I-155000J0D01*
G01*
X201886600Y-113187600D01*
G75*
G02*
X201731600Y-113032600I0J155000D01*
G01*
X201731600Y-112722600D01*
G75*
G02*
X201886600Y-112567600I155000J0D01*
G01*
X202311600Y-112567600D01*
G75*
G02*
X202466600Y-112722600I0J-155000D01*
G01*
G37*
G04 #@! TD.AperFunction*
D18*
X245370990Y-224139010D03*
X243780000Y-223480000D03*
X242189010Y-224139010D03*
X241530000Y-225730000D03*
X242189010Y-227320990D03*
X243780000Y-227980000D03*
X245370990Y-227320990D03*
X246030000Y-225730000D03*
D19*
X243780000Y-225730000D03*
X158730000Y-225730000D03*
D18*
X160980000Y-225730000D03*
X160320990Y-227320990D03*
X158730000Y-227980000D03*
X157139010Y-227320990D03*
X156480000Y-225730000D03*
X157139010Y-224139010D03*
X158730000Y-223480000D03*
X160320990Y-224139010D03*
D19*
X73680000Y-225730000D03*
D18*
X75930000Y-225730000D03*
X75270990Y-227320990D03*
X73680000Y-227980000D03*
X72089010Y-227320990D03*
X71430000Y-225730000D03*
X72089010Y-224139010D03*
X73680000Y-223480000D03*
X75270990Y-224139010D03*
X245370990Y-96059010D03*
X243780000Y-95400000D03*
X242189010Y-96059010D03*
X241530000Y-97650000D03*
X242189010Y-99240990D03*
X243780000Y-99900000D03*
X245370990Y-99240990D03*
X246030000Y-97650000D03*
D19*
X243780000Y-97650000D03*
X158730000Y-97650000D03*
D18*
X160980000Y-97650000D03*
X160320990Y-99240990D03*
X158730000Y-99900000D03*
X157139010Y-99240990D03*
X156480000Y-97650000D03*
X157139010Y-96059010D03*
X158730000Y-95400000D03*
X160320990Y-96059010D03*
X75270990Y-96059010D03*
X73680000Y-95400000D03*
X72089010Y-96059010D03*
X71430000Y-97650000D03*
X72089010Y-99240990D03*
X73680000Y-99900000D03*
X75270990Y-99240990D03*
X75930000Y-97650000D03*
D19*
X73680000Y-97650000D03*
D13*
X190563500Y-90297000D03*
D14*
X190563500Y-87757000D03*
D13*
X241808000Y-86296500D03*
D14*
X241808000Y-83756500D03*
X239268000Y-86296500D03*
X239268000Y-83756500D03*
X236728000Y-86296500D03*
X236728000Y-83756500D03*
X234188000Y-86296500D03*
X234188000Y-83756500D03*
X231648000Y-86296500D03*
X231648000Y-83756500D03*
X229108000Y-86296500D03*
X229108000Y-83756500D03*
D13*
X220853000Y-82867500D03*
D14*
X220853000Y-85407500D03*
X220853000Y-87947500D03*
D13*
X173355000Y-128270000D03*
D14*
X175895000Y-128270000D03*
X178435000Y-128270000D03*
G04 #@! TA.AperFunction,SMDPad,CuDef*
G36*
G01*
X204975600Y-121153600D02*
X204675600Y-121153600D01*
G75*
G02*
X204525600Y-121003600I0J150000D01*
G01*
X204525600Y-119353600D01*
G75*
G02*
X204675600Y-119203600I150000J0D01*
G01*
X204975600Y-119203600D01*
G75*
G02*
X205125600Y-119353600I0J-150000D01*
G01*
X205125600Y-121003600D01*
G75*
G02*
X204975600Y-121153600I-150000J0D01*
G01*
G37*
G04 #@! TD.AperFunction*
G04 #@! TA.AperFunction,SMDPad,CuDef*
G36*
G01*
X206245600Y-121153600D02*
X205945600Y-121153600D01*
G75*
G02*
X205795600Y-121003600I0J150000D01*
G01*
X205795600Y-119353600D01*
G75*
G02*
X205945600Y-119203600I150000J0D01*
G01*
X206245600Y-119203600D01*
G75*
G02*
X206395600Y-119353600I0J-150000D01*
G01*
X206395600Y-121003600D01*
G75*
G02*
X206245600Y-121153600I-150000J0D01*
G01*
G37*
G04 #@! TD.AperFunction*
G04 #@! TA.AperFunction,SMDPad,CuDef*
G36*
G01*
X207515600Y-121153600D02*
X207215600Y-121153600D01*
G75*
G02*
X207065600Y-121003600I0J150000D01*
G01*
X207065600Y-119353600D01*
G75*
G02*
X207215600Y-119203600I150000J0D01*
G01*
X207515600Y-119203600D01*
G75*
G02*
X207665600Y-119353600I0J-150000D01*
G01*
X207665600Y-121003600D01*
G75*
G02*
X207515600Y-121153600I-150000J0D01*
G01*
G37*
G04 #@! TD.AperFunction*
G04 #@! TA.AperFunction,SMDPad,CuDef*
G36*
G01*
X208785600Y-121153600D02*
X208485600Y-121153600D01*
G75*
G02*
X208335600Y-121003600I0J150000D01*
G01*
X208335600Y-119353600D01*
G75*
G02*
X208485600Y-119203600I150000J0D01*
G01*
X208785600Y-119203600D01*
G75*
G02*
X208935600Y-119353600I0J-150000D01*
G01*
X208935600Y-121003600D01*
G75*
G02*
X208785600Y-121153600I-150000J0D01*
G01*
G37*
G04 #@! TD.AperFunction*
G04 #@! TA.AperFunction,SMDPad,CuDef*
G36*
G01*
X210055600Y-121153600D02*
X209755600Y-121153600D01*
G75*
G02*
X209605600Y-121003600I0J150000D01*
G01*
X209605600Y-119353600D01*
G75*
G02*
X209755600Y-119203600I150000J0D01*
G01*
X210055600Y-119203600D01*
G75*
G02*
X210205600Y-119353600I0J-150000D01*
G01*
X210205600Y-121003600D01*
G75*
G02*
X210055600Y-121153600I-150000J0D01*
G01*
G37*
G04 #@! TD.AperFunction*
G04 #@! TA.AperFunction,SMDPad,CuDef*
G36*
G01*
X211325600Y-121153600D02*
X211025600Y-121153600D01*
G75*
G02*
X210875600Y-121003600I0J150000D01*
G01*
X210875600Y-119353600D01*
G75*
G02*
X211025600Y-119203600I150000J0D01*
G01*
X211325600Y-119203600D01*
G75*
G02*
X211475600Y-119353600I0J-150000D01*
G01*
X211475600Y-121003600D01*
G75*
G02*
X211325600Y-121153600I-150000J0D01*
G01*
G37*
G04 #@! TD.AperFunction*
G04 #@! TA.AperFunction,SMDPad,CuDef*
G36*
G01*
X212595600Y-121153600D02*
X212295600Y-121153600D01*
G75*
G02*
X212145600Y-121003600I0J150000D01*
G01*
X212145600Y-119353600D01*
G75*
G02*
X212295600Y-119203600I150000J0D01*
G01*
X212595600Y-119203600D01*
G75*
G02*
X212745600Y-119353600I0J-150000D01*
G01*
X212745600Y-121003600D01*
G75*
G02*
X212595600Y-121153600I-150000J0D01*
G01*
G37*
G04 #@! TD.AperFunction*
G04 #@! TA.AperFunction,SMDPad,CuDef*
G36*
G01*
X212595600Y-116203600D02*
X212295600Y-116203600D01*
G75*
G02*
X212145600Y-116053600I0J150000D01*
G01*
X212145600Y-114403600D01*
G75*
G02*
X212295600Y-114253600I150000J0D01*
G01*
X212595600Y-114253600D01*
G75*
G02*
X212745600Y-114403600I0J-150000D01*
G01*
X212745600Y-116053600D01*
G75*
G02*
X212595600Y-116203600I-150000J0D01*
G01*
G37*
G04 #@! TD.AperFunction*
G04 #@! TA.AperFunction,SMDPad,CuDef*
G36*
G01*
X211325600Y-116203600D02*
X211025600Y-116203600D01*
G75*
G02*
X210875600Y-116053600I0J150000D01*
G01*
X210875600Y-114403600D01*
G75*
G02*
X211025600Y-114253600I150000J0D01*
G01*
X211325600Y-114253600D01*
G75*
G02*
X211475600Y-114403600I0J-150000D01*
G01*
X211475600Y-116053600D01*
G75*
G02*
X211325600Y-116203600I-150000J0D01*
G01*
G37*
G04 #@! TD.AperFunction*
G04 #@! TA.AperFunction,SMDPad,CuDef*
G36*
G01*
X210055600Y-116203600D02*
X209755600Y-116203600D01*
G75*
G02*
X209605600Y-116053600I0J150000D01*
G01*
X209605600Y-114403600D01*
G75*
G02*
X209755600Y-114253600I150000J0D01*
G01*
X210055600Y-114253600D01*
G75*
G02*
X210205600Y-114403600I0J-150000D01*
G01*
X210205600Y-116053600D01*
G75*
G02*
X210055600Y-116203600I-150000J0D01*
G01*
G37*
G04 #@! TD.AperFunction*
G04 #@! TA.AperFunction,SMDPad,CuDef*
G36*
G01*
X208785600Y-116203600D02*
X208485600Y-116203600D01*
G75*
G02*
X208335600Y-116053600I0J150000D01*
G01*
X208335600Y-114403600D01*
G75*
G02*
X208485600Y-114253600I150000J0D01*
G01*
X208785600Y-114253600D01*
G75*
G02*
X208935600Y-114403600I0J-150000D01*
G01*
X208935600Y-116053600D01*
G75*
G02*
X208785600Y-116203600I-150000J0D01*
G01*
G37*
G04 #@! TD.AperFunction*
G04 #@! TA.AperFunction,SMDPad,CuDef*
G36*
G01*
X207515600Y-116203600D02*
X207215600Y-116203600D01*
G75*
G02*
X207065600Y-116053600I0J150000D01*
G01*
X207065600Y-114403600D01*
G75*
G02*
X207215600Y-114253600I150000J0D01*
G01*
X207515600Y-114253600D01*
G75*
G02*
X207665600Y-114403600I0J-150000D01*
G01*
X207665600Y-116053600D01*
G75*
G02*
X207515600Y-116203600I-150000J0D01*
G01*
G37*
G04 #@! TD.AperFunction*
G04 #@! TA.AperFunction,SMDPad,CuDef*
G36*
G01*
X206245600Y-116203600D02*
X205945600Y-116203600D01*
G75*
G02*
X205795600Y-116053600I0J150000D01*
G01*
X205795600Y-114403600D01*
G75*
G02*
X205945600Y-114253600I150000J0D01*
G01*
X206245600Y-114253600D01*
G75*
G02*
X206395600Y-114403600I0J-150000D01*
G01*
X206395600Y-116053600D01*
G75*
G02*
X206245600Y-116203600I-150000J0D01*
G01*
G37*
G04 #@! TD.AperFunction*
G04 #@! TA.AperFunction,SMDPad,CuDef*
G36*
G01*
X204975600Y-116203600D02*
X204675600Y-116203600D01*
G75*
G02*
X204525600Y-116053600I0J150000D01*
G01*
X204525600Y-114403600D01*
G75*
G02*
X204675600Y-114253600I150000J0D01*
G01*
X204975600Y-114253600D01*
G75*
G02*
X205125600Y-114403600I0J-150000D01*
G01*
X205125600Y-116053600D01*
G75*
G02*
X204975600Y-116203600I-150000J0D01*
G01*
G37*
G04 #@! TD.AperFunction*
G04 #@! TA.AperFunction,SMDPad,CuDef*
G36*
G01*
X183478700Y-94248800D02*
X183478700Y-94098800D01*
G75*
G02*
X183553700Y-94023800I75000J0D01*
G01*
X184853700Y-94023800D01*
G75*
G02*
X184928700Y-94098800I0J-75000D01*
G01*
X184928700Y-94248800D01*
G75*
G02*
X184853700Y-94323800I-75000J0D01*
G01*
X183553700Y-94323800D01*
G75*
G02*
X183478700Y-94248800I0J75000D01*
G01*
G37*
G04 #@! TD.AperFunction*
G04 #@! TA.AperFunction,SMDPad,CuDef*
G36*
G01*
X183478700Y-94748800D02*
X183478700Y-94598800D01*
G75*
G02*
X183553700Y-94523800I75000J0D01*
G01*
X184853700Y-94523800D01*
G75*
G02*
X184928700Y-94598800I0J-75000D01*
G01*
X184928700Y-94748800D01*
G75*
G02*
X184853700Y-94823800I-75000J0D01*
G01*
X183553700Y-94823800D01*
G75*
G02*
X183478700Y-94748800I0J75000D01*
G01*
G37*
G04 #@! TD.AperFunction*
G04 #@! TA.AperFunction,SMDPad,CuDef*
G36*
G01*
X183478700Y-95248800D02*
X183478700Y-95098800D01*
G75*
G02*
X183553700Y-95023800I75000J0D01*
G01*
X184853700Y-95023800D01*
G75*
G02*
X184928700Y-95098800I0J-75000D01*
G01*
X184928700Y-95248800D01*
G75*
G02*
X184853700Y-95323800I-75000J0D01*
G01*
X183553700Y-95323800D01*
G75*
G02*
X183478700Y-95248800I0J75000D01*
G01*
G37*
G04 #@! TD.AperFunction*
G04 #@! TA.AperFunction,SMDPad,CuDef*
G36*
G01*
X183478700Y-95748800D02*
X183478700Y-95598800D01*
G75*
G02*
X183553700Y-95523800I75000J0D01*
G01*
X184853700Y-95523800D01*
G75*
G02*
X184928700Y-95598800I0J-75000D01*
G01*
X184928700Y-95748800D01*
G75*
G02*
X184853700Y-95823800I-75000J0D01*
G01*
X183553700Y-95823800D01*
G75*
G02*
X183478700Y-95748800I0J75000D01*
G01*
G37*
G04 #@! TD.AperFunction*
G04 #@! TA.AperFunction,SMDPad,CuDef*
G36*
G01*
X183478700Y-96248800D02*
X183478700Y-96098800D01*
G75*
G02*
X183553700Y-96023800I75000J0D01*
G01*
X184853700Y-96023800D01*
G75*
G02*
X184928700Y-96098800I0J-75000D01*
G01*
X184928700Y-96248800D01*
G75*
G02*
X184853700Y-96323800I-75000J0D01*
G01*
X183553700Y-96323800D01*
G75*
G02*
X183478700Y-96248800I0J75000D01*
G01*
G37*
G04 #@! TD.AperFunction*
G04 #@! TA.AperFunction,SMDPad,CuDef*
G36*
G01*
X179078700Y-96248800D02*
X179078700Y-96098800D01*
G75*
G02*
X179153700Y-96023800I75000J0D01*
G01*
X180453700Y-96023800D01*
G75*
G02*
X180528700Y-96098800I0J-75000D01*
G01*
X180528700Y-96248800D01*
G75*
G02*
X180453700Y-96323800I-75000J0D01*
G01*
X179153700Y-96323800D01*
G75*
G02*
X179078700Y-96248800I0J75000D01*
G01*
G37*
G04 #@! TD.AperFunction*
G04 #@! TA.AperFunction,SMDPad,CuDef*
G36*
G01*
X179078700Y-95748800D02*
X179078700Y-95598800D01*
G75*
G02*
X179153700Y-95523800I75000J0D01*
G01*
X180453700Y-95523800D01*
G75*
G02*
X180528700Y-95598800I0J-75000D01*
G01*
X180528700Y-95748800D01*
G75*
G02*
X180453700Y-95823800I-75000J0D01*
G01*
X179153700Y-95823800D01*
G75*
G02*
X179078700Y-95748800I0J75000D01*
G01*
G37*
G04 #@! TD.AperFunction*
G04 #@! TA.AperFunction,SMDPad,CuDef*
G36*
G01*
X179078700Y-95248800D02*
X179078700Y-95098800D01*
G75*
G02*
X179153700Y-95023800I75000J0D01*
G01*
X180453700Y-95023800D01*
G75*
G02*
X180528700Y-95098800I0J-75000D01*
G01*
X180528700Y-95248800D01*
G75*
G02*
X180453700Y-95323800I-75000J0D01*
G01*
X179153700Y-95323800D01*
G75*
G02*
X179078700Y-95248800I0J75000D01*
G01*
G37*
G04 #@! TD.AperFunction*
G04 #@! TA.AperFunction,SMDPad,CuDef*
G36*
G01*
X179078700Y-94748800D02*
X179078700Y-94598800D01*
G75*
G02*
X179153700Y-94523800I75000J0D01*
G01*
X180453700Y-94523800D01*
G75*
G02*
X180528700Y-94598800I0J-75000D01*
G01*
X180528700Y-94748800D01*
G75*
G02*
X180453700Y-94823800I-75000J0D01*
G01*
X179153700Y-94823800D01*
G75*
G02*
X179078700Y-94748800I0J75000D01*
G01*
G37*
G04 #@! TD.AperFunction*
G04 #@! TA.AperFunction,SMDPad,CuDef*
G36*
G01*
X179078700Y-94248800D02*
X179078700Y-94098800D01*
G75*
G02*
X179153700Y-94023800I75000J0D01*
G01*
X180453700Y-94023800D01*
G75*
G02*
X180528700Y-94098800I0J-75000D01*
G01*
X180528700Y-94248800D01*
G75*
G02*
X180453700Y-94323800I-75000J0D01*
G01*
X179153700Y-94323800D01*
G75*
G02*
X179078700Y-94248800I0J75000D01*
G01*
G37*
G04 #@! TD.AperFunction*
G04 #@! TA.AperFunction,SMDPad,CuDef*
G36*
G01*
X165692900Y-94500401D02*
X165692900Y-94350401D01*
G75*
G02*
X165767900Y-94275401I75000J0D01*
G01*
X167067900Y-94275401D01*
G75*
G02*
X167142900Y-94350401I0J-75000D01*
G01*
X167142900Y-94500401D01*
G75*
G02*
X167067900Y-94575401I-75000J0D01*
G01*
X165767900Y-94575401D01*
G75*
G02*
X165692900Y-94500401I0J75000D01*
G01*
G37*
G04 #@! TD.AperFunction*
G04 #@! TA.AperFunction,SMDPad,CuDef*
G36*
G01*
X165692900Y-95000401D02*
X165692900Y-94850401D01*
G75*
G02*
X165767900Y-94775401I75000J0D01*
G01*
X167067900Y-94775401D01*
G75*
G02*
X167142900Y-94850401I0J-75000D01*
G01*
X167142900Y-95000401D01*
G75*
G02*
X167067900Y-95075401I-75000J0D01*
G01*
X165767900Y-95075401D01*
G75*
G02*
X165692900Y-95000401I0J75000D01*
G01*
G37*
G04 #@! TD.AperFunction*
G04 #@! TA.AperFunction,SMDPad,CuDef*
G36*
G01*
X165692900Y-95500401D02*
X165692900Y-95350401D01*
G75*
G02*
X165767900Y-95275401I75000J0D01*
G01*
X167067900Y-95275401D01*
G75*
G02*
X167142900Y-95350401I0J-75000D01*
G01*
X167142900Y-95500401D01*
G75*
G02*
X167067900Y-95575401I-75000J0D01*
G01*
X165767900Y-95575401D01*
G75*
G02*
X165692900Y-95500401I0J75000D01*
G01*
G37*
G04 #@! TD.AperFunction*
G04 #@! TA.AperFunction,SMDPad,CuDef*
G36*
G01*
X165692900Y-96000401D02*
X165692900Y-95850401D01*
G75*
G02*
X165767900Y-95775401I75000J0D01*
G01*
X167067900Y-95775401D01*
G75*
G02*
X167142900Y-95850401I0J-75000D01*
G01*
X167142900Y-96000401D01*
G75*
G02*
X167067900Y-96075401I-75000J0D01*
G01*
X165767900Y-96075401D01*
G75*
G02*
X165692900Y-96000401I0J75000D01*
G01*
G37*
G04 #@! TD.AperFunction*
G04 #@! TA.AperFunction,SMDPad,CuDef*
G36*
G01*
X165692900Y-96500401D02*
X165692900Y-96350401D01*
G75*
G02*
X165767900Y-96275401I75000J0D01*
G01*
X167067900Y-96275401D01*
G75*
G02*
X167142900Y-96350401I0J-75000D01*
G01*
X167142900Y-96500401D01*
G75*
G02*
X167067900Y-96575401I-75000J0D01*
G01*
X165767900Y-96575401D01*
G75*
G02*
X165692900Y-96500401I0J75000D01*
G01*
G37*
G04 #@! TD.AperFunction*
G04 #@! TA.AperFunction,SMDPad,CuDef*
G36*
G01*
X170092900Y-96500401D02*
X170092900Y-96350401D01*
G75*
G02*
X170167900Y-96275401I75000J0D01*
G01*
X171467900Y-96275401D01*
G75*
G02*
X171542900Y-96350401I0J-75000D01*
G01*
X171542900Y-96500401D01*
G75*
G02*
X171467900Y-96575401I-75000J0D01*
G01*
X170167900Y-96575401D01*
G75*
G02*
X170092900Y-96500401I0J75000D01*
G01*
G37*
G04 #@! TD.AperFunction*
G04 #@! TA.AperFunction,SMDPad,CuDef*
G36*
G01*
X170092900Y-96000401D02*
X170092900Y-95850401D01*
G75*
G02*
X170167900Y-95775401I75000J0D01*
G01*
X171467900Y-95775401D01*
G75*
G02*
X171542900Y-95850401I0J-75000D01*
G01*
X171542900Y-96000401D01*
G75*
G02*
X171467900Y-96075401I-75000J0D01*
G01*
X170167900Y-96075401D01*
G75*
G02*
X170092900Y-96000401I0J75000D01*
G01*
G37*
G04 #@! TD.AperFunction*
G04 #@! TA.AperFunction,SMDPad,CuDef*
G36*
G01*
X170092900Y-95500401D02*
X170092900Y-95350401D01*
G75*
G02*
X170167900Y-95275401I75000J0D01*
G01*
X171467900Y-95275401D01*
G75*
G02*
X171542900Y-95350401I0J-75000D01*
G01*
X171542900Y-95500401D01*
G75*
G02*
X171467900Y-95575401I-75000J0D01*
G01*
X170167900Y-95575401D01*
G75*
G02*
X170092900Y-95500401I0J75000D01*
G01*
G37*
G04 #@! TD.AperFunction*
G04 #@! TA.AperFunction,SMDPad,CuDef*
G36*
G01*
X170092900Y-95000401D02*
X170092900Y-94850401D01*
G75*
G02*
X170167900Y-94775401I75000J0D01*
G01*
X171467900Y-94775401D01*
G75*
G02*
X171542900Y-94850401I0J-75000D01*
G01*
X171542900Y-95000401D01*
G75*
G02*
X171467900Y-95075401I-75000J0D01*
G01*
X170167900Y-95075401D01*
G75*
G02*
X170092900Y-95000401I0J75000D01*
G01*
G37*
G04 #@! TD.AperFunction*
G04 #@! TA.AperFunction,SMDPad,CuDef*
G36*
G01*
X170092900Y-94500401D02*
X170092900Y-94350401D01*
G75*
G02*
X170167900Y-94275401I75000J0D01*
G01*
X171467900Y-94275401D01*
G75*
G02*
X171542900Y-94350401I0J-75000D01*
G01*
X171542900Y-94500401D01*
G75*
G02*
X171467900Y-94575401I-75000J0D01*
G01*
X170167900Y-94575401D01*
G75*
G02*
X170092900Y-94500401I0J75000D01*
G01*
G37*
G04 #@! TD.AperFunction*
D20*
X122467158Y-116752158D03*
X179717700Y-90271600D03*
X164934900Y-95402400D03*
X178320700Y-95173800D03*
X202285600Y-127101600D03*
X207365600Y-128752600D03*
X206790100Y-108500100D03*
X212445600Y-118338600D03*
X201015600Y-112877600D03*
X86944200Y-117767100D03*
X80467200Y-125006100D03*
X80975200Y-124371100D03*
X80467200Y-123736100D03*
X115189000Y-121920000D03*
X148424900Y-135001000D03*
X148424900Y-133858000D03*
X134899400Y-136779000D03*
X134899400Y-133604000D03*
X158521400Y-148082000D03*
X159791400Y-148018500D03*
X161569400Y-148031200D03*
X162839400Y-148031200D03*
X150495000Y-144272000D03*
X152298400Y-157556200D03*
X159029400Y-157530800D03*
X168579800Y-129133600D03*
X170688000Y-136144000D03*
X159156400Y-131419600D03*
X164109400Y-137363200D03*
X157365700Y-123698000D03*
X156095700Y-123698000D03*
X154825700Y-123698000D03*
X159042100Y-122478800D03*
X150596600Y-175006000D03*
X164541200Y-179781200D03*
X158800800Y-180797200D03*
X147548600Y-93129100D03*
X145059400Y-93205300D03*
X142567690Y-93230700D03*
X140004800Y-93230700D03*
X137337800Y-93129100D03*
X134848600Y-93103700D03*
X187820300Y-91846400D03*
X166966900Y-90855800D03*
X160578800Y-199059800D03*
X160604200Y-189280800D03*
X160655000Y-197561200D03*
X160553400Y-191947800D03*
X121119900Y-114122200D03*
X124117100Y-114884200D03*
X167576500Y-133032500D03*
X170682841Y-137408841D03*
X111125000Y-127889000D03*
X99187000Y-128016000D03*
X161963110Y-160731200D03*
X192405000Y-125920500D03*
X192976500Y-116459000D03*
X173736000Y-97853500D03*
X80543400Y-114363500D03*
X71907400Y-115189000D03*
X78193900Y-119126000D03*
X72351900Y-130619500D03*
X72351900Y-129540000D03*
X72351900Y-131635500D03*
X181114700Y-90271600D03*
X185686700Y-95173800D03*
X206095600Y-124561600D03*
X211175600Y-126212600D03*
X201777600Y-109702600D03*
X212064600Y-109702600D03*
X204508100Y-113322100D03*
X80721200Y-121196100D03*
X79197200Y-121323100D03*
X80848200Y-119799100D03*
X115252500Y-120523000D03*
X164236400Y-148056600D03*
X150495000Y-145542000D03*
X172821600Y-130657600D03*
X172821600Y-133731000D03*
X159168400Y-143649000D03*
X159168400Y-144969800D03*
X167284400Y-136779000D03*
X152696450Y-175150050D03*
X161366200Y-180848000D03*
X155727400Y-179755800D03*
X92684600Y-152730200D03*
X150012400Y-89090500D03*
X152755600Y-83756500D03*
X132232400Y-89065100D03*
X129514600Y-83756500D03*
X168313100Y-90830400D03*
X159410400Y-137414000D03*
X159470180Y-139884073D03*
X165646110Y-148056600D03*
X224663000Y-89725500D03*
X90805000Y-110744000D03*
X132461000Y-110236000D03*
X130810000Y-112268000D03*
X130556000Y-115062000D03*
X91948000Y-194310000D03*
X237744000Y-219710000D03*
X133858000Y-194310000D03*
X175895000Y-194310000D03*
X217678000Y-194564000D03*
X217678000Y-152527000D03*
X175895000Y-152400000D03*
X133985000Y-152400000D03*
X158242000Y-131445000D03*
X157321250Y-127031750D03*
X152539000Y-134886000D03*
X217106500Y-110490000D03*
X175704500Y-110617000D03*
X159448500Y-126453921D03*
X162687000Y-144907000D03*
X225552000Y-90741500D03*
X201447400Y-92646500D03*
X77177900Y-107950000D03*
X226936300Y-92456000D03*
X147447000Y-131927600D03*
X155905200Y-135991600D03*
X158470600Y-139966700D03*
X172514401Y-95425401D03*
X77177900Y-109728000D03*
X77177900Y-106426000D03*
X80010000Y-106426000D03*
X82042000Y-147955000D03*
X82677000Y-190627000D03*
X143891000Y-209296000D03*
X186690000Y-209296000D03*
X235966000Y-189484000D03*
X236093000Y-148082000D03*
X235839000Y-106680000D03*
X168402000Y-133794500D03*
X167322500Y-131445000D03*
X134945120Y-99722940D03*
X152603200Y-137096500D03*
X151282400Y-127800100D03*
X162382200Y-163347400D03*
X156540200Y-169621200D03*
X162280600Y-162077400D03*
X156743400Y-168351200D03*
X172402500Y-94132400D03*
X152654000Y-172148500D03*
X161163000Y-138303000D03*
X165671500Y-129794000D03*
X169481500Y-94183200D03*
X182638700Y-93941900D03*
X181114700Y-93675200D03*
X167728900Y-93929200D03*
X174002700Y-94830900D03*
X152844500Y-173418500D03*
X160401000Y-139255500D03*
X166217600Y-129032000D03*
X169418000Y-95097600D03*
X182778400Y-94919800D03*
X192151000Y-112826803D03*
X193802002Y-112776000D03*
X195453000Y-112649000D03*
X157802652Y-128455348D03*
X192151000Y-112014000D03*
X171450000Y-127000021D03*
X80340200Y-128968500D03*
X80886300Y-131495800D03*
X152501600Y-132270500D03*
X156235400Y-137414000D03*
X151384000Y-132245100D03*
X160147000Y-131699000D03*
X169926000Y-127635000D03*
X181356000Y-96774000D03*
X168529000Y-128016000D03*
X160959803Y-131699000D03*
X167767000Y-100838000D03*
D21*
X164957901Y-95425401D02*
X164934900Y-95402400D01*
X166467900Y-95425401D02*
X164957901Y-95425401D01*
X179853700Y-95173800D02*
X178320700Y-95173800D01*
X202293600Y-127093600D02*
X202285600Y-127101600D01*
X203428600Y-127093600D02*
X202293600Y-127093600D01*
X207365600Y-127228600D02*
X207365600Y-128752600D01*
X208254600Y-108500100D02*
X206790100Y-108500100D01*
X205333600Y-108500100D02*
X206790100Y-108500100D01*
D22*
X212445600Y-120178600D02*
X212445600Y-118338600D01*
X202099100Y-112877600D02*
X201015600Y-112877600D01*
X150613300Y-175022700D02*
X150596600Y-175006000D01*
X150613300Y-176098200D02*
X150613300Y-175022700D01*
D21*
X163474400Y-179769100D02*
X164529100Y-179769100D01*
X164529100Y-179769100D02*
X164541200Y-179781200D01*
X158128300Y-179769100D02*
X158115000Y-179755800D01*
X158787500Y-180783900D02*
X158800800Y-180797200D01*
X158787500Y-179769100D02*
X158787500Y-180783900D01*
X159461200Y-179769100D02*
X158787500Y-179769100D01*
X158787500Y-179769100D02*
X158128300Y-179769100D01*
X187312300Y-92354400D02*
X187820300Y-91846400D01*
X187312300Y-92929900D02*
X187312300Y-92354400D01*
D22*
X164212800Y-160731200D02*
X161963110Y-160731200D01*
D21*
X173240700Y-97358200D02*
X173736000Y-97853500D01*
X173240700Y-96884300D02*
X173240700Y-97358200D01*
X184153700Y-95173800D02*
X185686700Y-95173800D01*
X206095600Y-125996100D02*
X206095600Y-124561600D01*
X211086100Y-126123100D02*
X211175600Y-126212600D01*
X209905600Y-126123100D02*
X211086100Y-126123100D01*
X201815100Y-109665100D02*
X201777600Y-109702600D01*
X202793600Y-109665100D02*
X201815100Y-109665100D01*
X212027100Y-109665100D02*
X212064600Y-109702600D01*
X210794600Y-109665100D02*
X212027100Y-109665100D01*
D22*
X203234100Y-112877600D02*
X204063600Y-112877600D01*
X204825600Y-115228600D02*
X204825600Y-113639600D01*
X204825600Y-113639600D02*
X204508100Y-113322100D01*
X204063600Y-112877600D02*
X204508100Y-113322100D01*
X153145300Y-174701200D02*
X152696450Y-175150050D01*
X154912800Y-174701200D02*
X153145300Y-174701200D01*
X152696450Y-175150050D02*
X151748300Y-176098200D01*
D21*
X161352900Y-179769100D02*
X161352900Y-180834700D01*
X161352900Y-179769100D02*
X160731200Y-179769100D01*
X162077400Y-179769100D02*
X161352900Y-179769100D01*
X161352900Y-180834700D02*
X161366200Y-180848000D01*
X155740700Y-179769100D02*
X155727400Y-179755800D01*
X156819600Y-179769100D02*
X155740700Y-179769100D01*
D22*
X92671300Y-152716900D02*
X92684600Y-152730200D01*
X92671300Y-151697200D02*
X92671300Y-152716900D01*
D21*
X187312300Y-94064900D02*
X187312300Y-94716600D01*
X186855100Y-95173800D02*
X185686700Y-95173800D01*
X187312300Y-94716600D02*
X186855100Y-95173800D01*
D22*
X158356900Y-137414000D02*
X159410400Y-137414000D01*
X91744800Y-109804200D02*
X90805000Y-110744000D01*
X92671300Y-109804200D02*
X91744800Y-109804200D01*
X132892800Y-109804200D02*
X132461000Y-110236000D01*
X133908800Y-109804200D02*
X132892800Y-109804200D01*
X92650800Y-193607200D02*
X91948000Y-194310000D01*
X92798300Y-193607200D02*
X92650800Y-193607200D01*
X236601000Y-220853000D02*
X237744000Y-219710000D01*
X236601000Y-221742000D02*
X236601000Y-220853000D01*
X134560800Y-193607200D02*
X133858000Y-194310000D01*
X134670800Y-193607200D02*
X134560800Y-193607200D01*
X176597800Y-193607200D02*
X175895000Y-194310000D01*
X176618300Y-193607200D02*
X176597800Y-193607200D01*
X218634800Y-193607200D02*
X217678000Y-194564000D01*
X218655300Y-193607200D02*
X218634800Y-193607200D01*
X218507800Y-151697200D02*
X217678000Y-152527000D01*
X218528300Y-151697200D02*
X218507800Y-151697200D01*
X176597800Y-151697200D02*
X175895000Y-152400000D01*
X176618300Y-151697200D02*
X176597800Y-151697200D01*
X134687800Y-151697200D02*
X133985000Y-152400000D01*
X134708300Y-151697200D02*
X134687800Y-151697200D01*
X217792300Y-109804200D02*
X217106500Y-110490000D01*
X217803800Y-109804200D02*
X217792300Y-109804200D01*
X176517300Y-109804200D02*
X175704500Y-110617000D01*
X176528800Y-109804200D02*
X176517300Y-109804200D01*
D21*
X203466100Y-125996100D02*
X203428600Y-125958600D01*
X204825600Y-125996100D02*
X203466100Y-125996100D01*
X203428600Y-124726100D02*
X203466100Y-124688600D01*
X203428600Y-125958600D02*
X203428600Y-124726100D01*
X204825600Y-122783600D02*
X204825600Y-120178600D01*
X203466100Y-124143100D02*
X204825600Y-122783600D01*
X203466100Y-124688600D02*
X203466100Y-124143100D01*
X207395100Y-126123100D02*
X207365600Y-126093600D01*
X208635600Y-126123100D02*
X207395100Y-126123100D01*
X207365600Y-124726100D02*
X207403100Y-124688600D01*
X207365600Y-126093600D02*
X207365600Y-124726100D01*
X207403100Y-120216100D02*
X207365600Y-120178600D01*
X207403100Y-124688600D02*
X207403100Y-120216100D01*
X208284600Y-109665100D02*
X208254600Y-109635100D01*
X209524600Y-109665100D02*
X208284600Y-109665100D01*
X208254600Y-111189100D02*
X208292100Y-111226600D01*
X208254600Y-109635100D02*
X208254600Y-111189100D01*
X208635600Y-111570100D02*
X208635600Y-115228600D01*
X208292100Y-111226600D02*
X208635600Y-111570100D01*
D23*
X225488500Y-90805000D02*
X225552000Y-90741500D01*
X203288900Y-90805000D02*
X225488500Y-90805000D01*
X201447400Y-92646500D02*
X203288900Y-90805000D01*
D21*
X205303600Y-109665100D02*
X205333600Y-109635100D01*
X204063600Y-109665100D02*
X205303600Y-109665100D01*
X205371100Y-109672600D02*
X205333600Y-109635100D01*
X205371100Y-111264100D02*
X205371100Y-109672600D01*
X206095600Y-112623600D02*
X206095600Y-115228600D01*
X205371100Y-111899100D02*
X206095600Y-112623600D01*
X205371100Y-111264100D02*
X205371100Y-111899100D01*
D22*
X95681800Y-112814700D02*
X95681800Y-114757200D01*
X96992800Y-116068200D02*
X96992800Y-119690200D01*
X95681800Y-114757200D02*
X96992800Y-116068200D01*
D21*
X146558000Y-167081200D02*
X154912800Y-167081200D01*
X144754600Y-168884600D02*
X146558000Y-167081200D01*
X136601200Y-168884600D02*
X144754600Y-168884600D01*
X131114800Y-174371000D02*
X136601200Y-168884600D01*
X131114800Y-198352200D02*
X131114800Y-174371000D01*
X136452800Y-203690200D02*
X131114800Y-198352200D01*
D22*
X136956800Y-112814700D02*
X136956800Y-113995200D01*
X138992800Y-116031200D02*
X138992800Y-119690200D01*
X136956800Y-113995200D02*
X138992800Y-116031200D01*
D21*
X96850200Y-126568200D02*
X94452800Y-124170800D01*
X131800600Y-126568200D02*
X96850200Y-126568200D01*
X148412200Y-143179800D02*
X131800600Y-126568200D01*
X148412200Y-157073600D02*
X148412200Y-143179800D01*
X153339800Y-162001200D02*
X148412200Y-157073600D01*
X94452800Y-124170800D02*
X94452800Y-119690200D01*
X154912800Y-162001200D02*
X153339800Y-162001200D01*
X173061800Y-167081200D02*
X178452800Y-161690200D01*
X164212800Y-167081200D02*
X173061800Y-167081200D01*
D22*
X179501800Y-112814700D02*
X179501800Y-114503200D01*
X180992800Y-115994200D02*
X180992800Y-119690200D01*
X179501800Y-114503200D02*
X180992800Y-115994200D01*
D21*
X154912800Y-165811200D02*
X145719800Y-165811200D01*
X145719800Y-165811200D02*
X143941800Y-167589200D01*
X117873300Y-167589200D02*
X100965000Y-184497500D01*
X143941800Y-167589200D02*
X117873300Y-167589200D01*
X100965000Y-184497500D02*
X100965000Y-204571600D01*
X100965000Y-204571600D02*
X99466400Y-206070200D01*
X96832800Y-206070200D02*
X94452800Y-203690200D01*
X99466400Y-206070200D02*
X96832800Y-206070200D01*
D22*
X220776800Y-112852200D02*
X220776800Y-113868200D01*
X222992800Y-116084200D02*
X222992800Y-119690200D01*
X220776800Y-113868200D02*
X222992800Y-116084200D01*
D21*
X154912800Y-160731200D02*
X153492200Y-160731200D01*
X153492200Y-160731200D02*
X149275800Y-156514800D01*
X149275800Y-156514800D02*
X149275800Y-142773400D01*
X136452800Y-129950400D02*
X136452800Y-119690200D01*
X149275800Y-142773400D02*
X136452800Y-129950400D01*
D22*
X95681800Y-154724700D02*
X95681800Y-156794200D01*
X96992800Y-158105200D02*
X96992800Y-161690200D01*
X95681800Y-156794200D02*
X96992800Y-158105200D01*
X137591800Y-154724700D02*
X137591800Y-156667200D01*
X138992800Y-158068200D02*
X138992800Y-161690200D01*
X137591800Y-156667200D02*
X138992800Y-158068200D01*
D21*
X213791800Y-168351200D02*
X220452800Y-161690200D01*
X164212800Y-168351200D02*
X213791800Y-168351200D01*
D22*
X179501800Y-154724700D02*
X179501800Y-156540200D01*
X180992800Y-158031200D02*
X180992800Y-161690200D01*
X179501800Y-156540200D02*
X180992800Y-158031200D01*
D21*
X97075200Y-164312600D02*
X94452800Y-161690200D01*
X99031000Y-166268400D02*
X97075200Y-164312600D01*
X143230600Y-166268400D02*
X99031000Y-166268400D01*
X144957800Y-164541200D02*
X143230600Y-166268400D01*
X154912800Y-164541200D02*
X144957800Y-164541200D01*
D22*
X221411800Y-154724700D02*
X221411800Y-156540200D01*
X222992800Y-158121200D02*
X222992800Y-161690200D01*
X221411800Y-156540200D02*
X222992800Y-158121200D01*
D21*
X180467000Y-131419600D02*
X180467000Y-121704400D01*
X168630600Y-143256000D02*
X180467000Y-131419600D01*
X168630600Y-162102800D02*
X168630600Y-143256000D01*
X166192200Y-164541200D02*
X168630600Y-162102800D01*
X180467000Y-121704400D02*
X178452800Y-119690200D01*
X164212800Y-164541200D02*
X166192200Y-164541200D01*
D22*
X95681800Y-196634700D02*
X95681800Y-198831200D01*
X96992800Y-200142200D02*
X96992800Y-203690200D01*
X95681800Y-198831200D02*
X96992800Y-200142200D01*
D21*
X164212800Y-169621200D02*
X202158600Y-169621200D01*
X202158600Y-169621200D02*
X215773000Y-183235600D01*
X215773000Y-199010400D02*
X220452800Y-203690200D01*
X215773000Y-183235600D02*
X215773000Y-199010400D01*
X154912800Y-163271200D02*
X144449800Y-163271200D01*
X144449800Y-163271200D02*
X142621000Y-165100000D01*
X139862600Y-165100000D02*
X136452800Y-161690200D01*
X142621000Y-165100000D02*
X139862600Y-165100000D01*
D22*
X137591800Y-196634700D02*
X137591800Y-198704200D01*
X138992800Y-200105200D02*
X138992800Y-203690200D01*
X137591800Y-198704200D02*
X138992800Y-200105200D01*
D21*
X220452800Y-142005200D02*
X220452800Y-119690200D01*
X174785020Y-146685000D02*
X215773000Y-146685000D01*
X169672000Y-151798020D02*
X174785020Y-146685000D01*
X169672000Y-162433000D02*
X169672000Y-151798020D01*
X166293800Y-165811200D02*
X169672000Y-162433000D01*
X215773000Y-146685000D02*
X220452800Y-142005200D01*
X164212800Y-165811200D02*
X166293800Y-165811200D01*
D22*
X179501800Y-196634700D02*
X179501800Y-198577200D01*
X180992800Y-200068200D02*
X180992800Y-203690200D01*
X179501800Y-198577200D02*
X180992800Y-200068200D01*
D21*
X164212800Y-170891200D02*
X168783000Y-170891200D01*
X168783000Y-170891200D02*
X173863000Y-175971200D01*
X173863000Y-199100400D02*
X178452800Y-203690200D01*
X173863000Y-175971200D02*
X173863000Y-199100400D01*
D22*
X221411800Y-196634700D02*
X221411800Y-198577200D01*
X222992800Y-200158200D02*
X222992800Y-203690200D01*
X221411800Y-198577200D02*
X222992800Y-200158200D01*
D21*
X148120100Y-132600700D02*
X147447000Y-131927600D01*
X148475100Y-132600700D02*
X148120100Y-132600700D01*
D22*
X173240700Y-95631000D02*
X173240700Y-95749300D01*
X173035101Y-95425401D02*
X173240700Y-95631000D01*
X172514401Y-95425401D02*
X173035101Y-95425401D01*
D21*
X172514401Y-95425401D02*
X170767900Y-95425401D01*
D24*
X98273800Y-109804200D02*
X98273800Y-108179800D01*
X98273800Y-108179800D02*
X96520000Y-106426000D01*
X96520000Y-106426000D02*
X96012000Y-106426000D01*
X96012000Y-106426000D02*
X80010000Y-106426000D01*
X139623800Y-108127800D02*
X139623800Y-109804200D01*
X137922000Y-106426000D02*
X139623800Y-108127800D01*
X140348300Y-151697200D02*
X140348300Y-149111300D01*
X140348300Y-149111300D02*
X139192000Y-147955000D01*
X98311300Y-151697200D02*
X98311300Y-150254300D01*
X96012000Y-147955000D02*
X95123000Y-147955000D01*
X98311300Y-150254300D02*
X96012000Y-147955000D01*
X95123000Y-147955000D02*
X82042000Y-147955000D01*
X139192000Y-147955000D02*
X95123000Y-147955000D01*
X98438300Y-193607200D02*
X98438300Y-192164300D01*
X96901000Y-190627000D02*
X82677000Y-190627000D01*
X98438300Y-192164300D02*
X96901000Y-190627000D01*
X140348300Y-193607200D02*
X142045200Y-193607200D01*
X143891000Y-195453000D02*
X143891000Y-209296000D01*
X142045200Y-193607200D02*
X143891000Y-195453000D01*
X182258300Y-193607200D02*
X184209200Y-193607200D01*
X184209200Y-193607200D02*
X186690000Y-196088000D01*
X186690000Y-196088000D02*
X186690000Y-209296000D01*
X224295300Y-193607200D02*
X224295300Y-191502700D01*
X226314000Y-189484000D02*
X235966000Y-189484000D01*
X224295300Y-191502700D02*
X226314000Y-189484000D01*
X182258300Y-151697200D02*
X182258300Y-149973700D01*
X182258300Y-149973700D02*
X184150000Y-148082000D01*
X224168300Y-151697200D02*
X224168300Y-150354700D01*
X226441000Y-148082000D02*
X227584000Y-148082000D01*
X224168300Y-150354700D02*
X226441000Y-148082000D01*
X227584000Y-148082000D02*
X236093000Y-148082000D01*
X184150000Y-148082000D02*
X227584000Y-148082000D01*
X223368800Y-109804200D02*
X223368800Y-108355200D01*
X223368800Y-108355200D02*
X225044000Y-106680000D01*
X225044000Y-106680000D02*
X235839000Y-106680000D01*
X133985000Y-106426000D02*
X180784500Y-106426000D01*
X96012000Y-106426000D02*
X133985000Y-106426000D01*
X133985000Y-106426000D02*
X137922000Y-106426000D01*
X182093800Y-107735300D02*
X182093800Y-109804200D01*
X180784500Y-106426000D02*
X182093800Y-107735300D01*
X80010000Y-92202000D02*
X80010000Y-106426000D01*
X219583000Y-78994000D02*
X93218000Y-78994000D01*
X220853000Y-80264000D02*
X219583000Y-78994000D01*
X93218000Y-78994000D02*
X80010000Y-92202000D01*
X220853000Y-82867500D02*
X220853000Y-80264000D01*
D23*
X169951400Y-86779100D02*
X169951400Y-86321900D01*
X163766500Y-92964000D02*
X169951400Y-86779100D01*
X163766500Y-95300800D02*
X163766500Y-92964000D01*
X164414201Y-95948501D02*
X163766500Y-95300800D01*
X166444800Y-95948501D02*
X164414201Y-95948501D01*
X166467900Y-95925401D02*
X166444800Y-95948501D01*
X168744900Y-84988400D02*
X169951400Y-83781900D01*
X168744900Y-87503000D02*
X168744900Y-84988400D01*
X163461700Y-92786200D02*
X168744900Y-87503000D01*
X164459301Y-96425401D02*
X163461700Y-95427800D01*
X163461700Y-95427800D02*
X163461700Y-92786200D01*
X166467900Y-96425401D02*
X164459301Y-96425401D01*
X168427400Y-95478600D02*
X169374201Y-96425401D01*
X168427400Y-92062300D02*
X168427400Y-95478600D01*
X171183300Y-89306400D02*
X168427400Y-92062300D01*
X171183300Y-85090000D02*
X171183300Y-89306400D01*
X169374201Y-96425401D02*
X170767900Y-96425401D01*
X172491400Y-83781900D02*
X171183300Y-85090000D01*
X169369501Y-95925401D02*
X170767900Y-95925401D01*
X168744900Y-95300800D02*
X169369501Y-95925401D01*
X168744900Y-92252800D02*
X168744900Y-95300800D01*
X171538900Y-89458800D02*
X168744900Y-92252800D01*
X171538900Y-87274400D02*
X171538900Y-89458800D01*
X172491400Y-86321900D02*
X171538900Y-87274400D01*
X178028601Y-95719901D02*
X179807599Y-95719901D01*
X179807599Y-95719901D02*
X179853700Y-95673800D01*
X176923700Y-94615000D02*
X178028601Y-95719901D01*
X176923700Y-86969600D02*
X176923700Y-94615000D01*
X176923700Y-86969600D02*
X177571400Y-86321900D01*
X177822100Y-96173800D02*
X179853700Y-96173800D01*
X176480099Y-94831799D02*
X177822100Y-96173800D01*
X176480099Y-84873201D02*
X176480099Y-94831799D01*
X176480099Y-84873201D02*
X177571400Y-83781900D01*
X180111400Y-86423500D02*
X180111400Y-86321900D01*
X181711600Y-88023700D02*
X180111400Y-86423500D01*
X182584600Y-96173800D02*
X181711600Y-95300800D01*
X181711600Y-95300800D02*
X181711600Y-88023700D01*
X184153700Y-96173800D02*
X182584600Y-96173800D01*
X182079900Y-87833200D02*
X181292500Y-87045800D01*
X181292500Y-84963000D02*
X180111400Y-83781900D01*
X182079900Y-95123000D02*
X182079900Y-87833200D01*
X182630700Y-95673800D02*
X182079900Y-95123000D01*
X181292500Y-87045800D02*
X181292500Y-84963000D01*
X184153700Y-95673800D02*
X182630700Y-95673800D01*
X168402000Y-133794500D02*
X168402000Y-132397500D01*
X168402000Y-132397500D02*
X171005500Y-129794000D01*
X174371000Y-129794000D02*
X175895000Y-128270000D01*
X171005500Y-129794000D02*
X174371000Y-129794000D01*
X170497500Y-128270000D02*
X173355000Y-128270000D01*
X167322500Y-131445000D02*
X170497500Y-128270000D01*
X134945120Y-99722940D02*
X149451060Y-99722940D01*
X210280250Y-81883250D02*
X212153500Y-83756500D01*
X210248500Y-81851500D02*
X210280250Y-81883250D01*
X167284400Y-81851500D02*
X210248500Y-81851500D01*
X149451060Y-99684840D02*
X167284400Y-81851500D01*
X149451060Y-99722940D02*
X149451060Y-99684840D01*
X152603200Y-137096500D02*
X153847800Y-137096500D01*
X153847800Y-137096500D02*
X154381200Y-136563100D01*
X154381200Y-130898900D02*
X151282400Y-127800100D01*
X154381200Y-136563100D02*
X154381200Y-130898900D01*
D21*
X164212800Y-163271200D02*
X162458400Y-163271200D01*
X162458400Y-163271200D02*
X162382200Y-163347400D01*
X154912800Y-169621200D02*
X156540200Y-169621200D01*
X162356800Y-162001200D02*
X162280600Y-162077400D01*
X164212800Y-162001200D02*
X162356800Y-162001200D01*
X154912800Y-168351200D02*
X156743400Y-168351200D01*
X156832900Y-178560800D02*
X156819600Y-178574100D01*
X158115000Y-178560800D02*
X156832900Y-178560800D01*
X158115000Y-173068400D02*
X158115000Y-178560800D01*
X155937800Y-170891200D02*
X158115000Y-173068400D01*
X154912800Y-170891200D02*
X155937800Y-170891200D01*
X162077400Y-178574100D02*
X163474400Y-178574100D01*
X162077400Y-174541600D02*
X162077400Y-178574100D01*
X163187800Y-173431200D02*
X162077400Y-174541600D01*
X164212800Y-173431200D02*
X163187800Y-173431200D01*
X160184500Y-178574100D02*
X159461200Y-178574100D01*
X160731200Y-178574100D02*
X160184500Y-178574100D01*
X160731200Y-174617800D02*
X160731200Y-178574100D01*
X163187800Y-172161200D02*
X160731200Y-174617800D01*
X164212800Y-172161200D02*
X163187800Y-172161200D01*
D22*
X95681800Y-110820200D02*
X95681800Y-111619700D01*
X97078800Y-109804200D02*
X96189800Y-109804200D01*
X95681800Y-110312200D02*
X95681800Y-110820200D01*
X96189800Y-109804200D02*
X95681800Y-110312200D01*
X95173800Y-109804200D02*
X95681800Y-110312200D01*
X93866300Y-109804200D02*
X95173800Y-109804200D01*
X135103800Y-109804200D02*
X136448800Y-109804200D01*
X136956800Y-110312200D02*
X136956800Y-111619700D01*
X136448800Y-109804200D02*
X136956800Y-110312200D01*
X137464800Y-109804200D02*
X136956800Y-110312200D01*
X138428800Y-109804200D02*
X137464800Y-109804200D01*
X177723800Y-109804200D02*
X178866800Y-109804200D01*
X179501800Y-110439200D02*
X179501800Y-111619700D01*
X178866800Y-109804200D02*
X179501800Y-110439200D01*
X180136800Y-109804200D02*
X179501800Y-110439200D01*
X180898800Y-109804200D02*
X180136800Y-109804200D01*
X218998800Y-109804200D02*
X220141800Y-109804200D01*
X220776800Y-110439200D02*
X220776800Y-111657200D01*
X220141800Y-109804200D02*
X220776800Y-110439200D01*
X221411800Y-109804200D02*
X220776800Y-110439200D01*
X222173800Y-109804200D02*
X221411800Y-109804200D01*
X93866300Y-151697200D02*
X94902800Y-151697200D01*
X95681800Y-152476200D02*
X95681800Y-153529700D01*
X94902800Y-151697200D02*
X95681800Y-152476200D01*
X96460800Y-151697200D02*
X95681800Y-152476200D01*
X97116300Y-151697200D02*
X96460800Y-151697200D01*
X135903300Y-151697200D02*
X136812800Y-151697200D01*
X137591800Y-152476200D02*
X137591800Y-153529700D01*
X136812800Y-151697200D02*
X137591800Y-152476200D01*
X138370800Y-151697200D02*
X137591800Y-152476200D01*
X139153300Y-151697200D02*
X138370800Y-151697200D01*
X177813300Y-151697200D02*
X178849800Y-151697200D01*
X179501800Y-152349200D02*
X179501800Y-153529700D01*
X178849800Y-151697200D02*
X179501800Y-152349200D01*
X180153800Y-151697200D02*
X179501800Y-152349200D01*
X181063300Y-151697200D02*
X180153800Y-151697200D01*
X219723300Y-151697200D02*
X220759800Y-151697200D01*
X221411800Y-152349200D02*
X221411800Y-153529700D01*
X220759800Y-151697200D02*
X221411800Y-152349200D01*
X222063800Y-151697200D02*
X221411800Y-152349200D01*
X222973300Y-151697200D02*
X222063800Y-151697200D01*
X93993300Y-193607200D02*
X95029800Y-193607200D01*
X95681800Y-194259200D02*
X95681800Y-195439700D01*
X95029800Y-193607200D02*
X95681800Y-194259200D01*
X96333800Y-193607200D02*
X95681800Y-194259200D01*
X97243300Y-193607200D02*
X96333800Y-193607200D01*
X135865800Y-193607200D02*
X136939800Y-193607200D01*
X137591800Y-194259200D02*
X137591800Y-195439700D01*
X136939800Y-193607200D02*
X137591800Y-194259200D01*
X138243800Y-193607200D02*
X137591800Y-194259200D01*
X139153300Y-193607200D02*
X138243800Y-193607200D01*
X177813300Y-193607200D02*
X178976800Y-193607200D01*
X179501800Y-194132200D02*
X179501800Y-195439700D01*
X178976800Y-193607200D02*
X179501800Y-194132200D01*
X180026800Y-193607200D02*
X179501800Y-194132200D01*
X181063300Y-193607200D02*
X180026800Y-193607200D01*
X219850300Y-193607200D02*
X220886800Y-193607200D01*
X221411800Y-194132200D02*
X221411800Y-195439700D01*
X220886800Y-193607200D02*
X221411800Y-194132200D01*
X221936800Y-193607200D02*
X221411800Y-194132200D01*
X223100300Y-193607200D02*
X221936800Y-193607200D01*
D23*
X152666700Y-172161200D02*
X152654000Y-172148500D01*
X154912800Y-172161200D02*
X152666700Y-172161200D01*
X161163000Y-134302500D02*
X165671500Y-129794000D01*
X161163000Y-138303000D02*
X161163000Y-134302500D01*
X171843700Y-94132400D02*
X172402500Y-94132400D01*
X171550699Y-94425401D02*
X171843700Y-94132400D01*
X169723701Y-94425401D02*
X171550699Y-94425401D01*
X169481500Y-94183200D02*
X169723701Y-94425401D01*
X182638700Y-93941900D02*
X182918100Y-93941900D01*
X183150000Y-94173800D02*
X184203700Y-94173800D01*
X182918100Y-93941900D02*
X183150000Y-94173800D01*
X188404500Y-89916000D02*
X190563500Y-87757000D01*
X185737500Y-91694000D02*
X187515500Y-89916000D01*
X185737500Y-93599000D02*
X185737500Y-91694000D01*
X185162700Y-94173800D02*
X185737500Y-93599000D01*
X187515500Y-89916000D02*
X188404500Y-89916000D01*
X184781700Y-94173800D02*
X185162700Y-94173800D01*
X180616100Y-94173800D02*
X181114700Y-93675200D01*
X179853700Y-94173800D02*
X180616100Y-94173800D01*
X167728900Y-94043500D02*
X167728900Y-93929200D01*
X167346999Y-94425401D02*
X167728900Y-94043500D01*
X166467900Y-94425401D02*
X167346999Y-94425401D01*
X154900100Y-173418500D02*
X154912800Y-173431200D01*
X152844500Y-173418500D02*
X154900100Y-173418500D01*
X161480500Y-137477500D02*
X161734500Y-137731500D01*
X161734500Y-138724453D02*
X161203453Y-139255500D01*
X161480500Y-134429500D02*
X161480500Y-137477500D01*
X165258750Y-130651250D02*
X161480500Y-134429500D01*
X161734500Y-137731500D02*
X161734500Y-138724453D01*
X165893750Y-130651250D02*
X165258750Y-130651250D01*
X166217600Y-130327400D02*
X165893750Y-130651250D01*
X161203453Y-139255500D02*
X160401000Y-139255500D01*
X166217600Y-129032000D02*
X166217600Y-130327400D01*
X171881800Y-94830900D02*
X174002700Y-94830900D01*
X171787299Y-94925401D02*
X171881800Y-94830900D01*
X169590199Y-94925401D02*
X171787299Y-94925401D01*
X169418000Y-95097600D02*
X169590199Y-94925401D01*
X187642500Y-90297000D02*
X190563500Y-90297000D01*
X186093100Y-91846400D02*
X187642500Y-90297000D01*
X186093100Y-93802200D02*
X186093100Y-91846400D01*
X185221500Y-94673800D02*
X186093100Y-93802200D01*
X183192800Y-94673800D02*
X185221500Y-94673800D01*
X182946800Y-94919800D02*
X183192800Y-94673800D01*
X182778400Y-94919800D02*
X182946800Y-94919800D01*
D21*
X206095600Y-122529600D02*
X206095600Y-120178600D01*
X204661100Y-123964100D02*
X206095600Y-122529600D01*
X204661100Y-124688600D02*
X204661100Y-123964100D01*
D23*
X206095600Y-119203600D02*
X206095600Y-120178600D01*
X205002000Y-118110000D02*
X206095600Y-119203600D01*
X200025000Y-118110000D02*
X205002000Y-118110000D01*
X195453000Y-113538000D02*
X200025000Y-118110000D01*
X193675000Y-113538000D02*
X195453000Y-113538000D01*
X192963803Y-112826803D02*
X193675000Y-113538000D01*
X192151000Y-112826803D02*
X192963803Y-112826803D01*
D21*
X208598100Y-120216100D02*
X208635600Y-120178600D01*
X208598100Y-124688600D02*
X208598100Y-120216100D01*
D23*
X207161000Y-117729000D02*
X208635600Y-119203600D01*
X208635600Y-119203600D02*
X208635600Y-120178600D01*
X200279000Y-117729000D02*
X207161000Y-117729000D01*
X195808589Y-113258589D02*
X200279000Y-117729000D01*
X194919589Y-113258589D02*
X195808589Y-113258589D01*
X194437000Y-112776000D02*
X194919589Y-113258589D01*
X193802002Y-112776000D02*
X194437000Y-112776000D01*
D21*
X209905600Y-111645100D02*
X209905600Y-115228600D01*
X209487100Y-111226600D02*
X209905600Y-111645100D01*
D23*
X209905600Y-116203600D02*
X209905600Y-115228600D01*
X208761200Y-117348000D02*
X209905600Y-116203600D01*
X200533000Y-117348000D02*
X208761200Y-117348000D01*
X195834000Y-112649000D02*
X200533000Y-117348000D01*
X195453000Y-112649000D02*
X195834000Y-112649000D01*
D21*
X207365600Y-113004600D02*
X207365600Y-115228600D01*
X206566100Y-112205100D02*
X207365600Y-113004600D01*
X206566100Y-111264100D02*
X206566100Y-112205100D01*
D23*
X207365600Y-116484400D02*
X207365600Y-115228600D01*
X206883000Y-116967000D02*
X207365600Y-116484400D01*
X200787000Y-116967000D02*
X206883000Y-116967000D01*
X195834000Y-112014000D02*
X200787000Y-116967000D01*
X192151000Y-112014000D02*
X195834000Y-112014000D01*
X159257979Y-127000021D02*
X171450000Y-127000021D01*
X157802652Y-128455348D02*
X159257979Y-127000021D01*
X80340200Y-130949700D02*
X80340200Y-128968500D01*
X80886300Y-131495800D02*
X80340200Y-130949700D01*
D25*
X150635300Y-131635500D02*
X151866600Y-131635500D01*
X149670100Y-132600700D02*
X150635300Y-131635500D01*
X151866600Y-131635500D02*
X152501600Y-132270500D01*
D21*
X157161900Y-137414000D02*
X156235400Y-137414000D01*
D23*
X151384000Y-142748000D02*
X151384000Y-132245100D01*
X164212800Y-174701200D02*
X166547800Y-174701200D01*
X166547800Y-174701200D02*
X167386000Y-173863000D01*
X167386000Y-173863000D02*
X167386000Y-172720000D01*
X167386000Y-172720000D02*
X166243000Y-171577000D01*
X166243000Y-171577000D02*
X162179000Y-171577000D01*
X162179000Y-171577000D02*
X161163000Y-170561000D01*
X161163000Y-170561000D02*
X161163000Y-152527000D01*
X161163000Y-152527000D02*
X151384000Y-142748000D01*
X169837100Y-127635000D02*
X169926000Y-127635000D01*
X169037000Y-127381000D02*
X169291000Y-127635000D01*
X169291000Y-127635000D02*
X169837100Y-127635000D01*
X161544000Y-127381000D02*
X169037000Y-127381000D01*
X160147000Y-128778000D02*
X161544000Y-127381000D01*
X160147000Y-131699000D02*
X160147000Y-128778000D01*
X181279800Y-95097600D02*
X180856000Y-94673800D01*
X180856000Y-94673800D02*
X179853700Y-94673800D01*
X181279800Y-96697800D02*
X181279800Y-95097600D01*
X181356000Y-96774000D02*
X181279800Y-96697800D01*
X166243000Y-128016000D02*
X168529000Y-128016000D01*
X160959803Y-131699000D02*
X160959803Y-128473197D01*
X160959803Y-128473197D02*
X161671000Y-127762000D01*
X161671000Y-127762000D02*
X165989000Y-127762000D01*
X165989000Y-127762000D02*
X166243000Y-128016000D01*
X167340801Y-94925401D02*
X166467900Y-94925401D01*
X167767000Y-95351600D02*
X167340801Y-94925401D01*
X167767000Y-100838000D02*
X167767000Y-95351600D01*
D21*
X206095600Y-127191100D02*
X204825600Y-127191100D01*
D23*
X240157000Y-87947500D02*
X241808000Y-86296500D01*
X231457500Y-92583000D02*
X236093000Y-87947500D01*
X230251000Y-92583000D02*
X231457500Y-92583000D01*
X214503000Y-108331000D02*
X230251000Y-92583000D01*
X236093000Y-87947500D02*
X240157000Y-87947500D01*
X210947000Y-129540000D02*
X214503000Y-125984000D01*
X214503000Y-125984000D02*
X214503000Y-108331000D01*
X206756000Y-129540000D02*
X210947000Y-129540000D01*
X206095600Y-128879600D02*
X206756000Y-129540000D01*
X206095600Y-127191100D02*
X206095600Y-128879600D01*
D21*
X209905600Y-127318100D02*
X208635600Y-127318100D01*
D23*
X238506000Y-86296500D02*
X239268000Y-86296500D01*
X237299500Y-87503000D02*
X238506000Y-86296500D01*
X235902500Y-87503000D02*
X237299500Y-87503000D01*
X231203500Y-92202000D02*
X235902500Y-87503000D01*
X214122000Y-108204000D02*
X230124000Y-92202000D01*
X214122000Y-125730000D02*
X214122000Y-108204000D01*
X212533900Y-127318100D02*
X214122000Y-125730000D01*
X230124000Y-92202000D02*
X231203500Y-92202000D01*
X209905600Y-127318100D02*
X212533900Y-127318100D01*
D21*
X210794600Y-108470100D02*
X209524600Y-108470100D01*
D23*
X236474000Y-86296500D02*
X236728000Y-86296500D01*
X230949500Y-91821000D02*
X236474000Y-86296500D01*
X229997000Y-91821000D02*
X230949500Y-91821000D01*
X213347900Y-108470100D02*
X229997000Y-91821000D01*
X210794600Y-108470100D02*
X213347900Y-108470100D01*
D21*
X202793600Y-108470100D02*
X204063600Y-108470100D01*
D23*
X234188000Y-87947500D02*
X234188000Y-86296500D01*
X230695500Y-91440000D02*
X234188000Y-87947500D01*
X229870000Y-91440000D02*
X230695500Y-91440000D01*
X214319150Y-106990850D02*
X229870000Y-91440000D01*
X205542850Y-106990850D02*
X214319150Y-106990850D01*
X204063600Y-108470100D02*
X205542850Y-106990850D01*
D24*
X220853000Y-85407500D02*
X223393000Y-85407500D01*
X224282000Y-86296500D02*
X229108000Y-86296500D01*
X223393000Y-85407500D02*
X224282000Y-86296500D01*
D21*
X78320900Y-111633000D02*
X74002900Y-111633000D01*
X74002900Y-107853685D01*
X76200000Y-107853685D01*
X76200000Y-108046315D01*
X76237580Y-108235243D01*
X76311296Y-108413210D01*
X76418315Y-108573375D01*
X76554525Y-108709585D01*
X76714690Y-108816604D01*
X76892657Y-108890320D01*
X77081585Y-108927900D01*
X77274215Y-108927900D01*
X77463143Y-108890320D01*
X77641110Y-108816604D01*
X77801275Y-108709585D01*
X77937485Y-108573375D01*
X78044504Y-108413210D01*
X78118220Y-108235243D01*
X78155800Y-108046315D01*
X78155800Y-107853685D01*
X78118220Y-107664757D01*
X78044504Y-107486790D01*
X77937485Y-107326625D01*
X77801275Y-107190415D01*
X77641110Y-107083396D01*
X77463143Y-107009680D01*
X77274215Y-106972100D01*
X77081585Y-106972100D01*
X76892657Y-107009680D01*
X76714690Y-107083396D01*
X76554525Y-107190415D01*
X76418315Y-107326625D01*
X76311296Y-107486790D01*
X76237580Y-107664757D01*
X76200000Y-107853685D01*
X74002900Y-107853685D01*
X74002900Y-105283000D01*
X78320900Y-105283000D01*
X78320900Y-111633000D01*
G04 #@! TA.AperFunction,Conductor*
D26*
G36*
X78320900Y-111633000D02*
G01*
X74002900Y-111633000D01*
X74002900Y-107853685D01*
X76200000Y-107853685D01*
X76200000Y-108046315D01*
X76237580Y-108235243D01*
X76311296Y-108413210D01*
X76418315Y-108573375D01*
X76554525Y-108709585D01*
X76714690Y-108816604D01*
X76892657Y-108890320D01*
X77081585Y-108927900D01*
X77274215Y-108927900D01*
X77463143Y-108890320D01*
X77641110Y-108816604D01*
X77801275Y-108709585D01*
X77937485Y-108573375D01*
X78044504Y-108413210D01*
X78118220Y-108235243D01*
X78155800Y-108046315D01*
X78155800Y-107853685D01*
X78118220Y-107664757D01*
X78044504Y-107486790D01*
X77937485Y-107326625D01*
X77801275Y-107190415D01*
X77641110Y-107083396D01*
X77463143Y-107009680D01*
X77274215Y-106972100D01*
X77081585Y-106972100D01*
X76892657Y-107009680D01*
X76714690Y-107083396D01*
X76554525Y-107190415D01*
X76418315Y-107326625D01*
X76311296Y-107486790D01*
X76237580Y-107664757D01*
X76200000Y-107853685D01*
X74002900Y-107853685D01*
X74002900Y-105283000D01*
X78320900Y-105283000D01*
X78320900Y-111633000D01*
G37*
G04 #@! TD.AperFunction*
D21*
X83439000Y-111633000D02*
X74002900Y-111633000D01*
X74002900Y-107853685D01*
X76200000Y-107853685D01*
X76200000Y-108046315D01*
X76237580Y-108235243D01*
X76311296Y-108413210D01*
X76418315Y-108573375D01*
X76554525Y-108709585D01*
X76714690Y-108816604D01*
X76892657Y-108890320D01*
X77081585Y-108927900D01*
X77274215Y-108927900D01*
X77463143Y-108890320D01*
X77641110Y-108816604D01*
X77801275Y-108709585D01*
X77937485Y-108573375D01*
X78044504Y-108413210D01*
X78118220Y-108235243D01*
X78155800Y-108046315D01*
X78155800Y-107853685D01*
X78118220Y-107664757D01*
X78044504Y-107486790D01*
X77937485Y-107326625D01*
X77801275Y-107190415D01*
X77641110Y-107083396D01*
X77463143Y-107009680D01*
X77274215Y-106972100D01*
X77081585Y-106972100D01*
X76892657Y-107009680D01*
X76714690Y-107083396D01*
X76554525Y-107190415D01*
X76418315Y-107326625D01*
X76311296Y-107486790D01*
X76237580Y-107664757D01*
X76200000Y-107853685D01*
X74002900Y-107853685D01*
X74002900Y-105283000D01*
X83439000Y-105283000D01*
X83439000Y-111633000D01*
G04 #@! TA.AperFunction,Conductor*
D26*
G36*
X83439000Y-111633000D02*
G01*
X74002900Y-111633000D01*
X74002900Y-107853685D01*
X76200000Y-107853685D01*
X76200000Y-108046315D01*
X76237580Y-108235243D01*
X76311296Y-108413210D01*
X76418315Y-108573375D01*
X76554525Y-108709585D01*
X76714690Y-108816604D01*
X76892657Y-108890320D01*
X77081585Y-108927900D01*
X77274215Y-108927900D01*
X77463143Y-108890320D01*
X77641110Y-108816604D01*
X77801275Y-108709585D01*
X77937485Y-108573375D01*
X78044504Y-108413210D01*
X78118220Y-108235243D01*
X78155800Y-108046315D01*
X78155800Y-107853685D01*
X78118220Y-107664757D01*
X78044504Y-107486790D01*
X77937485Y-107326625D01*
X77801275Y-107190415D01*
X77641110Y-107083396D01*
X77463143Y-107009680D01*
X77274215Y-106972100D01*
X77081585Y-106972100D01*
X76892657Y-107009680D01*
X76714690Y-107083396D01*
X76554525Y-107190415D01*
X76418315Y-107326625D01*
X76311296Y-107486790D01*
X76237580Y-107664757D01*
X76200000Y-107853685D01*
X74002900Y-107853685D01*
X74002900Y-105283000D01*
X83439000Y-105283000D01*
X83439000Y-111633000D01*
G37*
G04 #@! TD.AperFunction*
D21*
X83439000Y-215265000D02*
X76327000Y-215265000D01*
X76327000Y-128872185D01*
X79362300Y-128872185D01*
X79362300Y-129064815D01*
X79399880Y-129253743D01*
X79473596Y-129431710D01*
X79580615Y-129591875D01*
X79629001Y-129640261D01*
X79629000Y-130914774D01*
X79625560Y-130949700D01*
X79629000Y-130984626D01*
X79629000Y-130984635D01*
X79639291Y-131089119D01*
X79679958Y-131223180D01*
X79745998Y-131346732D01*
X79834873Y-131455026D01*
X79862010Y-131477297D01*
X79908400Y-131523687D01*
X79908400Y-131592115D01*
X79945980Y-131781043D01*
X80019696Y-131959010D01*
X80126715Y-132119175D01*
X80262925Y-132255385D01*
X80423090Y-132362404D01*
X80601057Y-132436120D01*
X80789985Y-132473700D01*
X80982615Y-132473700D01*
X81171543Y-132436120D01*
X81349510Y-132362404D01*
X81509675Y-132255385D01*
X81645885Y-132119175D01*
X81752904Y-131959010D01*
X81826620Y-131781043D01*
X81864200Y-131592115D01*
X81864200Y-131399485D01*
X81826620Y-131210557D01*
X81752904Y-131032590D01*
X81645885Y-130872425D01*
X81509675Y-130736215D01*
X81349510Y-130629196D01*
X81171543Y-130555480D01*
X81051400Y-130531582D01*
X81051400Y-129640260D01*
X81099785Y-129591875D01*
X81206804Y-129431710D01*
X81280520Y-129253743D01*
X81318100Y-129064815D01*
X81318100Y-128872185D01*
X81280520Y-128683257D01*
X81206804Y-128505290D01*
X81099785Y-128345125D01*
X80963575Y-128208915D01*
X80803410Y-128101896D01*
X80625443Y-128028180D01*
X80436515Y-127990600D01*
X80243885Y-127990600D01*
X80054957Y-128028180D01*
X79876990Y-128101896D01*
X79716825Y-128208915D01*
X79580615Y-128345125D01*
X79473596Y-128505290D01*
X79399880Y-128683257D01*
X79362300Y-128872185D01*
X76327000Y-128872185D01*
X76327000Y-123639785D01*
X79489300Y-123639785D01*
X79489300Y-123832415D01*
X79526880Y-124021343D01*
X79600596Y-124199310D01*
X79707615Y-124359475D01*
X79719240Y-124371100D01*
X79707615Y-124382725D01*
X79600596Y-124542890D01*
X79526880Y-124720857D01*
X79489300Y-124909785D01*
X79489300Y-125102415D01*
X79526880Y-125291343D01*
X79600596Y-125469310D01*
X79707615Y-125629475D01*
X79843825Y-125765685D01*
X80003990Y-125872704D01*
X80181957Y-125946420D01*
X80370885Y-125984000D01*
X80563515Y-125984000D01*
X80752443Y-125946420D01*
X80930410Y-125872704D01*
X81090575Y-125765685D01*
X81226785Y-125629475D01*
X81333804Y-125469310D01*
X81407520Y-125291343D01*
X81416374Y-125246832D01*
X81438410Y-125237704D01*
X81598575Y-125130685D01*
X81734785Y-124994475D01*
X81841804Y-124834310D01*
X81915520Y-124656343D01*
X81953100Y-124467415D01*
X81953100Y-124274785D01*
X81915520Y-124085857D01*
X81841804Y-123907890D01*
X81734785Y-123747725D01*
X81598575Y-123611515D01*
X81438410Y-123504496D01*
X81416374Y-123495368D01*
X81407520Y-123450857D01*
X81333804Y-123272890D01*
X81226785Y-123112725D01*
X81090575Y-122976515D01*
X80930410Y-122869496D01*
X80752443Y-122795780D01*
X80563515Y-122758200D01*
X80370885Y-122758200D01*
X80181957Y-122795780D01*
X80003990Y-122869496D01*
X79843825Y-122976515D01*
X79707615Y-123112725D01*
X79600596Y-123272890D01*
X79526880Y-123450857D01*
X79489300Y-123639785D01*
X76327000Y-123639785D01*
X76327000Y-121226785D01*
X78219300Y-121226785D01*
X78219300Y-121419415D01*
X78256880Y-121608343D01*
X78330596Y-121786310D01*
X78437615Y-121946475D01*
X78573825Y-122082685D01*
X78733990Y-122189704D01*
X78911957Y-122263420D01*
X79100885Y-122301000D01*
X79293515Y-122301000D01*
X79482443Y-122263420D01*
X79660410Y-122189704D01*
X79820575Y-122082685D01*
X79956785Y-121946475D01*
X80009589Y-121867449D01*
X80097825Y-121955685D01*
X80257990Y-122062704D01*
X80435957Y-122136420D01*
X80624885Y-122174000D01*
X80817515Y-122174000D01*
X81006443Y-122136420D01*
X81184410Y-122062704D01*
X81344575Y-121955685D01*
X81480785Y-121819475D01*
X81587804Y-121659310D01*
X81661520Y-121481343D01*
X81699100Y-121292415D01*
X81699100Y-121099785D01*
X81661520Y-120910857D01*
X81587804Y-120732890D01*
X81480785Y-120572725D01*
X81468680Y-120560620D01*
X81471575Y-120558685D01*
X81607785Y-120422475D01*
X81714804Y-120262310D01*
X81788520Y-120084343D01*
X81826100Y-119895415D01*
X81826100Y-119702785D01*
X81788520Y-119513857D01*
X81714804Y-119335890D01*
X81607785Y-119175725D01*
X81471575Y-119039515D01*
X81311410Y-118932496D01*
X81133443Y-118858780D01*
X80944515Y-118821200D01*
X80751885Y-118821200D01*
X80562957Y-118858780D01*
X80384990Y-118932496D01*
X80224825Y-119039515D01*
X80088615Y-119175725D01*
X79981596Y-119335890D01*
X79907880Y-119513857D01*
X79870300Y-119702785D01*
X79870300Y-119895415D01*
X79907880Y-120084343D01*
X79981596Y-120262310D01*
X80088615Y-120422475D01*
X80100720Y-120434580D01*
X80097825Y-120436515D01*
X79961615Y-120572725D01*
X79908811Y-120651751D01*
X79820575Y-120563515D01*
X79660410Y-120456496D01*
X79482443Y-120382780D01*
X79293515Y-120345200D01*
X79100885Y-120345200D01*
X78911957Y-120382780D01*
X78733990Y-120456496D01*
X78573825Y-120563515D01*
X78437615Y-120699725D01*
X78330596Y-120859890D01*
X78256880Y-121037857D01*
X78219300Y-121226785D01*
X76327000Y-121226785D01*
X76327000Y-119029685D01*
X77216000Y-119029685D01*
X77216000Y-119222315D01*
X77253580Y-119411243D01*
X77327296Y-119589210D01*
X77434315Y-119749375D01*
X77570525Y-119885585D01*
X77730690Y-119992604D01*
X77908657Y-120066320D01*
X78097585Y-120103900D01*
X78290215Y-120103900D01*
X78479143Y-120066320D01*
X78657110Y-119992604D01*
X78817275Y-119885585D01*
X78953485Y-119749375D01*
X79060504Y-119589210D01*
X79134220Y-119411243D01*
X79171800Y-119222315D01*
X79171800Y-119029685D01*
X79134220Y-118840757D01*
X79060504Y-118662790D01*
X78953485Y-118502625D01*
X78817275Y-118366415D01*
X78657110Y-118259396D01*
X78479143Y-118185680D01*
X78290215Y-118148100D01*
X78097585Y-118148100D01*
X77908657Y-118185680D01*
X77730690Y-118259396D01*
X77570525Y-118366415D01*
X77434315Y-118502625D01*
X77327296Y-118662790D01*
X77253580Y-118840757D01*
X77216000Y-119029685D01*
X76327000Y-119029685D01*
X76327000Y-114267185D01*
X79565500Y-114267185D01*
X79565500Y-114459815D01*
X79603080Y-114648743D01*
X79676796Y-114826710D01*
X79783815Y-114986875D01*
X79920025Y-115123085D01*
X80080190Y-115230104D01*
X80258157Y-115303820D01*
X80447085Y-115341400D01*
X80639715Y-115341400D01*
X80828643Y-115303820D01*
X81006610Y-115230104D01*
X81166775Y-115123085D01*
X81302985Y-114986875D01*
X81410004Y-114826710D01*
X81483720Y-114648743D01*
X81521300Y-114459815D01*
X81521300Y-114267185D01*
X81483720Y-114078257D01*
X81410004Y-113900290D01*
X81302985Y-113740125D01*
X81166775Y-113603915D01*
X81006610Y-113496896D01*
X80828643Y-113423180D01*
X80639715Y-113385600D01*
X80447085Y-113385600D01*
X80258157Y-113423180D01*
X80080190Y-113496896D01*
X79920025Y-113603915D01*
X79783815Y-113740125D01*
X79676796Y-113900290D01*
X79603080Y-114078257D01*
X79565500Y-114267185D01*
X76327000Y-114267185D01*
X76327000Y-108436713D01*
X76418315Y-108573375D01*
X76554525Y-108709585D01*
X76714690Y-108816604D01*
X76892657Y-108890320D01*
X77081585Y-108927900D01*
X77274215Y-108927900D01*
X77463143Y-108890320D01*
X77641110Y-108816604D01*
X77801275Y-108709585D01*
X77937485Y-108573375D01*
X78044504Y-108413210D01*
X78118220Y-108235243D01*
X78155800Y-108046315D01*
X78155800Y-107853685D01*
X78118220Y-107664757D01*
X78044504Y-107486790D01*
X77937485Y-107326625D01*
X77801275Y-107190415D01*
X77641110Y-107083396D01*
X77463143Y-107009680D01*
X77274215Y-106972100D01*
X77081585Y-106972100D01*
X76892657Y-107009680D01*
X76714690Y-107083396D01*
X76554525Y-107190415D01*
X76418315Y-107326625D01*
X76327000Y-107463287D01*
X76327000Y-105283000D01*
X83439000Y-105283000D01*
X83439000Y-215265000D01*
G04 #@! TA.AperFunction,Conductor*
D26*
G36*
X83439000Y-215265000D02*
G01*
X76327000Y-215265000D01*
X76327000Y-128872185D01*
X79362300Y-128872185D01*
X79362300Y-129064815D01*
X79399880Y-129253743D01*
X79473596Y-129431710D01*
X79580615Y-129591875D01*
X79629001Y-129640261D01*
X79629000Y-130914774D01*
X79625560Y-130949700D01*
X79629000Y-130984626D01*
X79629000Y-130984635D01*
X79639291Y-131089119D01*
X79679958Y-131223180D01*
X79745998Y-131346732D01*
X79834873Y-131455026D01*
X79862010Y-131477297D01*
X79908400Y-131523687D01*
X79908400Y-131592115D01*
X79945980Y-131781043D01*
X80019696Y-131959010D01*
X80126715Y-132119175D01*
X80262925Y-132255385D01*
X80423090Y-132362404D01*
X80601057Y-132436120D01*
X80789985Y-132473700D01*
X80982615Y-132473700D01*
X81171543Y-132436120D01*
X81349510Y-132362404D01*
X81509675Y-132255385D01*
X81645885Y-132119175D01*
X81752904Y-131959010D01*
X81826620Y-131781043D01*
X81864200Y-131592115D01*
X81864200Y-131399485D01*
X81826620Y-131210557D01*
X81752904Y-131032590D01*
X81645885Y-130872425D01*
X81509675Y-130736215D01*
X81349510Y-130629196D01*
X81171543Y-130555480D01*
X81051400Y-130531582D01*
X81051400Y-129640260D01*
X81099785Y-129591875D01*
X81206804Y-129431710D01*
X81280520Y-129253743D01*
X81318100Y-129064815D01*
X81318100Y-128872185D01*
X81280520Y-128683257D01*
X81206804Y-128505290D01*
X81099785Y-128345125D01*
X80963575Y-128208915D01*
X80803410Y-128101896D01*
X80625443Y-128028180D01*
X80436515Y-127990600D01*
X80243885Y-127990600D01*
X80054957Y-128028180D01*
X79876990Y-128101896D01*
X79716825Y-128208915D01*
X79580615Y-128345125D01*
X79473596Y-128505290D01*
X79399880Y-128683257D01*
X79362300Y-128872185D01*
X76327000Y-128872185D01*
X76327000Y-123639785D01*
X79489300Y-123639785D01*
X79489300Y-123832415D01*
X79526880Y-124021343D01*
X79600596Y-124199310D01*
X79707615Y-124359475D01*
X79719240Y-124371100D01*
X79707615Y-124382725D01*
X79600596Y-124542890D01*
X79526880Y-124720857D01*
X79489300Y-124909785D01*
X79489300Y-125102415D01*
X79526880Y-125291343D01*
X79600596Y-125469310D01*
X79707615Y-125629475D01*
X79843825Y-125765685D01*
X80003990Y-125872704D01*
X80181957Y-125946420D01*
X80370885Y-125984000D01*
X80563515Y-125984000D01*
X80752443Y-125946420D01*
X80930410Y-125872704D01*
X81090575Y-125765685D01*
X81226785Y-125629475D01*
X81333804Y-125469310D01*
X81407520Y-125291343D01*
X81416374Y-125246832D01*
X81438410Y-125237704D01*
X81598575Y-125130685D01*
X81734785Y-124994475D01*
X81841804Y-124834310D01*
X81915520Y-124656343D01*
X81953100Y-124467415D01*
X81953100Y-124274785D01*
X81915520Y-124085857D01*
X81841804Y-123907890D01*
X81734785Y-123747725D01*
X81598575Y-123611515D01*
X81438410Y-123504496D01*
X81416374Y-123495368D01*
X81407520Y-123450857D01*
X81333804Y-123272890D01*
X81226785Y-123112725D01*
X81090575Y-122976515D01*
X80930410Y-122869496D01*
X80752443Y-122795780D01*
X80563515Y-122758200D01*
X80370885Y-122758200D01*
X80181957Y-122795780D01*
X80003990Y-122869496D01*
X79843825Y-122976515D01*
X79707615Y-123112725D01*
X79600596Y-123272890D01*
X79526880Y-123450857D01*
X79489300Y-123639785D01*
X76327000Y-123639785D01*
X76327000Y-121226785D01*
X78219300Y-121226785D01*
X78219300Y-121419415D01*
X78256880Y-121608343D01*
X78330596Y-121786310D01*
X78437615Y-121946475D01*
X78573825Y-122082685D01*
X78733990Y-122189704D01*
X78911957Y-122263420D01*
X79100885Y-122301000D01*
X79293515Y-122301000D01*
X79482443Y-122263420D01*
X79660410Y-122189704D01*
X79820575Y-122082685D01*
X79956785Y-121946475D01*
X80009589Y-121867449D01*
X80097825Y-121955685D01*
X80257990Y-122062704D01*
X80435957Y-122136420D01*
X80624885Y-122174000D01*
X80817515Y-122174000D01*
X81006443Y-122136420D01*
X81184410Y-122062704D01*
X81344575Y-121955685D01*
X81480785Y-121819475D01*
X81587804Y-121659310D01*
X81661520Y-121481343D01*
X81699100Y-121292415D01*
X81699100Y-121099785D01*
X81661520Y-120910857D01*
X81587804Y-120732890D01*
X81480785Y-120572725D01*
X81468680Y-120560620D01*
X81471575Y-120558685D01*
X81607785Y-120422475D01*
X81714804Y-120262310D01*
X81788520Y-120084343D01*
X81826100Y-119895415D01*
X81826100Y-119702785D01*
X81788520Y-119513857D01*
X81714804Y-119335890D01*
X81607785Y-119175725D01*
X81471575Y-119039515D01*
X81311410Y-118932496D01*
X81133443Y-118858780D01*
X80944515Y-118821200D01*
X80751885Y-118821200D01*
X80562957Y-118858780D01*
X80384990Y-118932496D01*
X80224825Y-119039515D01*
X80088615Y-119175725D01*
X79981596Y-119335890D01*
X79907880Y-119513857D01*
X79870300Y-119702785D01*
X79870300Y-119895415D01*
X79907880Y-120084343D01*
X79981596Y-120262310D01*
X80088615Y-120422475D01*
X80100720Y-120434580D01*
X80097825Y-120436515D01*
X79961615Y-120572725D01*
X79908811Y-120651751D01*
X79820575Y-120563515D01*
X79660410Y-120456496D01*
X79482443Y-120382780D01*
X79293515Y-120345200D01*
X79100885Y-120345200D01*
X78911957Y-120382780D01*
X78733990Y-120456496D01*
X78573825Y-120563515D01*
X78437615Y-120699725D01*
X78330596Y-120859890D01*
X78256880Y-121037857D01*
X78219300Y-121226785D01*
X76327000Y-121226785D01*
X76327000Y-119029685D01*
X77216000Y-119029685D01*
X77216000Y-119222315D01*
X77253580Y-119411243D01*
X77327296Y-119589210D01*
X77434315Y-119749375D01*
X77570525Y-119885585D01*
X77730690Y-119992604D01*
X77908657Y-120066320D01*
X78097585Y-120103900D01*
X78290215Y-120103900D01*
X78479143Y-120066320D01*
X78657110Y-119992604D01*
X78817275Y-119885585D01*
X78953485Y-119749375D01*
X79060504Y-119589210D01*
X79134220Y-119411243D01*
X79171800Y-119222315D01*
X79171800Y-119029685D01*
X79134220Y-118840757D01*
X79060504Y-118662790D01*
X78953485Y-118502625D01*
X78817275Y-118366415D01*
X78657110Y-118259396D01*
X78479143Y-118185680D01*
X78290215Y-118148100D01*
X78097585Y-118148100D01*
X77908657Y-118185680D01*
X77730690Y-118259396D01*
X77570525Y-118366415D01*
X77434315Y-118502625D01*
X77327296Y-118662790D01*
X77253580Y-118840757D01*
X77216000Y-119029685D01*
X76327000Y-119029685D01*
X76327000Y-114267185D01*
X79565500Y-114267185D01*
X79565500Y-114459815D01*
X79603080Y-114648743D01*
X79676796Y-114826710D01*
X79783815Y-114986875D01*
X79920025Y-115123085D01*
X80080190Y-115230104D01*
X80258157Y-115303820D01*
X80447085Y-115341400D01*
X80639715Y-115341400D01*
X80828643Y-115303820D01*
X81006610Y-115230104D01*
X81166775Y-115123085D01*
X81302985Y-114986875D01*
X81410004Y-114826710D01*
X81483720Y-114648743D01*
X81521300Y-114459815D01*
X81521300Y-114267185D01*
X81483720Y-114078257D01*
X81410004Y-113900290D01*
X81302985Y-113740125D01*
X81166775Y-113603915D01*
X81006610Y-113496896D01*
X80828643Y-113423180D01*
X80639715Y-113385600D01*
X80447085Y-113385600D01*
X80258157Y-113423180D01*
X80080190Y-113496896D01*
X79920025Y-113603915D01*
X79783815Y-113740125D01*
X79676796Y-113900290D01*
X79603080Y-114078257D01*
X79565500Y-114267185D01*
X76327000Y-114267185D01*
X76327000Y-108436713D01*
X76418315Y-108573375D01*
X76554525Y-108709585D01*
X76714690Y-108816604D01*
X76892657Y-108890320D01*
X77081585Y-108927900D01*
X77274215Y-108927900D01*
X77463143Y-108890320D01*
X77641110Y-108816604D01*
X77801275Y-108709585D01*
X77937485Y-108573375D01*
X78044504Y-108413210D01*
X78118220Y-108235243D01*
X78155800Y-108046315D01*
X78155800Y-107853685D01*
X78118220Y-107664757D01*
X78044504Y-107486790D01*
X77937485Y-107326625D01*
X77801275Y-107190415D01*
X77641110Y-107083396D01*
X77463143Y-107009680D01*
X77274215Y-106972100D01*
X77081585Y-106972100D01*
X76892657Y-107009680D01*
X76714690Y-107083396D01*
X76554525Y-107190415D01*
X76418315Y-107326625D01*
X76327000Y-107463287D01*
X76327000Y-105283000D01*
X83439000Y-105283000D01*
X83439000Y-215265000D01*
G37*
G04 #@! TD.AperFunction*
D21*
X243713000Y-216027000D02*
X235077000Y-216027000D01*
X235077000Y-105791000D01*
X243713000Y-105791000D01*
X243713000Y-216027000D01*
G04 #@! TA.AperFunction,Conductor*
D26*
G36*
X243713000Y-216027000D02*
G01*
X235077000Y-216027000D01*
X235077000Y-105791000D01*
X243713000Y-105791000D01*
X243713000Y-216027000D01*
G37*
G04 #@! TD.AperFunction*
D21*
X243713000Y-216026807D02*
X76327000Y-215773192D01*
X76327000Y-208407000D01*
X243713000Y-208407000D01*
X243713000Y-216026807D01*
G04 #@! TA.AperFunction,Conductor*
D26*
G36*
X243713000Y-216026807D02*
G01*
X76327000Y-215773192D01*
X76327000Y-208407000D01*
X243713000Y-208407000D01*
X243713000Y-216026807D01*
G37*
G04 #@! TD.AperFunction*
M02*
