G04 #@! TF.GenerationSoftware,KiCad,Pcbnew,(5.1.9)-1*
G04 #@! TF.CreationDate,2021-06-08T08:05:01+01:00*
G04 #@! TF.ProjectId,LED_Board,4c45445f-426f-4617-9264-2e6b69636164,rev?*
G04 #@! TF.SameCoordinates,Original*
G04 #@! TF.FileFunction,Paste,Top*
G04 #@! TF.FilePolarity,Positive*
%FSLAX46Y46*%
G04 Gerber Fmt 4.6, Leading zero omitted, Abs format (unit mm)*
G04 Created by KiCad (PCBNEW (5.1.9)-1) date 2021-06-08 08:05:01*
%MOMM*%
%LPD*%
G01*
G04 APERTURE LIST*
G04 APERTURE END LIST*
G36*
G01*
X159301200Y-178216600D02*
X159621200Y-178216600D01*
G75*
G02*
X159781200Y-178376600I0J-160000D01*
G01*
X159781200Y-178771600D01*
G75*
G02*
X159621200Y-178931600I-160000J0D01*
G01*
X159301200Y-178931600D01*
G75*
G02*
X159141200Y-178771600I0J160000D01*
G01*
X159141200Y-178376600D01*
G75*
G02*
X159301200Y-178216600I160000J0D01*
G01*
G37*
G36*
G01*
X159301200Y-179411600D02*
X159621200Y-179411600D01*
G75*
G02*
X159781200Y-179571600I0J-160000D01*
G01*
X159781200Y-179966600D01*
G75*
G02*
X159621200Y-180126600I-160000J0D01*
G01*
X159301200Y-180126600D01*
G75*
G02*
X159141200Y-179966600I0J160000D01*
G01*
X159141200Y-179571600D01*
G75*
G02*
X159301200Y-179411600I160000J0D01*
G01*
G37*
G36*
G01*
X162237400Y-178931600D02*
X161917400Y-178931600D01*
G75*
G02*
X161757400Y-178771600I0J160000D01*
G01*
X161757400Y-178376600D01*
G75*
G02*
X161917400Y-178216600I160000J0D01*
G01*
X162237400Y-178216600D01*
G75*
G02*
X162397400Y-178376600I0J-160000D01*
G01*
X162397400Y-178771600D01*
G75*
G02*
X162237400Y-178931600I-160000J0D01*
G01*
G37*
G36*
G01*
X162237400Y-180126600D02*
X161917400Y-180126600D01*
G75*
G02*
X161757400Y-179966600I0J160000D01*
G01*
X161757400Y-179571600D01*
G75*
G02*
X161917400Y-179411600I160000J0D01*
G01*
X162237400Y-179411600D01*
G75*
G02*
X162397400Y-179571600I0J-160000D01*
G01*
X162397400Y-179966600D01*
G75*
G02*
X162237400Y-180126600I-160000J0D01*
G01*
G37*
G36*
G01*
X163314400Y-178216600D02*
X163634400Y-178216600D01*
G75*
G02*
X163794400Y-178376600I0J-160000D01*
G01*
X163794400Y-178771600D01*
G75*
G02*
X163634400Y-178931600I-160000J0D01*
G01*
X163314400Y-178931600D01*
G75*
G02*
X163154400Y-178771600I0J160000D01*
G01*
X163154400Y-178376600D01*
G75*
G02*
X163314400Y-178216600I160000J0D01*
G01*
G37*
G36*
G01*
X163314400Y-179411600D02*
X163634400Y-179411600D01*
G75*
G02*
X163794400Y-179571600I0J-160000D01*
G01*
X163794400Y-179966600D01*
G75*
G02*
X163634400Y-180126600I-160000J0D01*
G01*
X163314400Y-180126600D01*
G75*
G02*
X163154400Y-179966600I0J160000D01*
G01*
X163154400Y-179571600D01*
G75*
G02*
X163314400Y-179411600I160000J0D01*
G01*
G37*
G36*
G01*
X160891200Y-178931600D02*
X160571200Y-178931600D01*
G75*
G02*
X160411200Y-178771600I0J160000D01*
G01*
X160411200Y-178376600D01*
G75*
G02*
X160571200Y-178216600I160000J0D01*
G01*
X160891200Y-178216600D01*
G75*
G02*
X161051200Y-178376600I0J-160000D01*
G01*
X161051200Y-178771600D01*
G75*
G02*
X160891200Y-178931600I-160000J0D01*
G01*
G37*
G36*
G01*
X160891200Y-180126600D02*
X160571200Y-180126600D01*
G75*
G02*
X160411200Y-179966600I0J160000D01*
G01*
X160411200Y-179571600D01*
G75*
G02*
X160571200Y-179411600I160000J0D01*
G01*
X160891200Y-179411600D01*
G75*
G02*
X161051200Y-179571600I0J-160000D01*
G01*
X161051200Y-179966600D01*
G75*
G02*
X160891200Y-180126600I-160000J0D01*
G01*
G37*
G36*
G01*
X150980800Y-175943200D02*
X150980800Y-176253200D01*
G75*
G02*
X150825800Y-176408200I-155000J0D01*
G01*
X150400800Y-176408200D01*
G75*
G02*
X150245800Y-176253200I0J155000D01*
G01*
X150245800Y-175943200D01*
G75*
G02*
X150400800Y-175788200I155000J0D01*
G01*
X150825800Y-175788200D01*
G75*
G02*
X150980800Y-175943200I0J-155000D01*
G01*
G37*
G36*
G01*
X152115800Y-175943200D02*
X152115800Y-176253200D01*
G75*
G02*
X151960800Y-176408200I-155000J0D01*
G01*
X151535800Y-176408200D01*
G75*
G02*
X151380800Y-176253200I0J155000D01*
G01*
X151380800Y-175943200D01*
G75*
G02*
X151535800Y-175788200I155000J0D01*
G01*
X151960800Y-175788200D01*
G75*
G02*
X152115800Y-175943200I0J-155000D01*
G01*
G37*
G36*
G01*
X203273600Y-125591100D02*
X203583600Y-125591100D01*
G75*
G02*
X203738600Y-125746100I0J-155000D01*
G01*
X203738600Y-126171100D01*
G75*
G02*
X203583600Y-126326100I-155000J0D01*
G01*
X203273600Y-126326100D01*
G75*
G02*
X203118600Y-126171100I0J155000D01*
G01*
X203118600Y-125746100D01*
G75*
G02*
X203273600Y-125591100I155000J0D01*
G01*
G37*
G36*
G01*
X203273600Y-126726100D02*
X203583600Y-126726100D01*
G75*
G02*
X203738600Y-126881100I0J-155000D01*
G01*
X203738600Y-127306100D01*
G75*
G02*
X203583600Y-127461100I-155000J0D01*
G01*
X203273600Y-127461100D01*
G75*
G02*
X203118600Y-127306100I0J155000D01*
G01*
X203118600Y-126881100D01*
G75*
G02*
X203273600Y-126726100I155000J0D01*
G01*
G37*
G36*
G01*
X207210600Y-125726100D02*
X207520600Y-125726100D01*
G75*
G02*
X207675600Y-125881100I0J-155000D01*
G01*
X207675600Y-126306100D01*
G75*
G02*
X207520600Y-126461100I-155000J0D01*
G01*
X207210600Y-126461100D01*
G75*
G02*
X207055600Y-126306100I0J155000D01*
G01*
X207055600Y-125881100D01*
G75*
G02*
X207210600Y-125726100I155000J0D01*
G01*
G37*
G36*
G01*
X207210600Y-126861100D02*
X207520600Y-126861100D01*
G75*
G02*
X207675600Y-127016100I0J-155000D01*
G01*
X207675600Y-127441100D01*
G75*
G02*
X207520600Y-127596100I-155000J0D01*
G01*
X207210600Y-127596100D01*
G75*
G02*
X207055600Y-127441100I0J155000D01*
G01*
X207055600Y-127016100D01*
G75*
G02*
X207210600Y-126861100I155000J0D01*
G01*
G37*
G36*
G01*
X208409600Y-108867600D02*
X208099600Y-108867600D01*
G75*
G02*
X207944600Y-108712600I0J155000D01*
G01*
X207944600Y-108287600D01*
G75*
G02*
X208099600Y-108132600I155000J0D01*
G01*
X208409600Y-108132600D01*
G75*
G02*
X208564600Y-108287600I0J-155000D01*
G01*
X208564600Y-108712600D01*
G75*
G02*
X208409600Y-108867600I-155000J0D01*
G01*
G37*
G36*
G01*
X208409600Y-110002600D02*
X208099600Y-110002600D01*
G75*
G02*
X207944600Y-109847600I0J155000D01*
G01*
X207944600Y-109422600D01*
G75*
G02*
X208099600Y-109267600I155000J0D01*
G01*
X208409600Y-109267600D01*
G75*
G02*
X208564600Y-109422600I0J-155000D01*
G01*
X208564600Y-109847600D01*
G75*
G02*
X208409600Y-110002600I-155000J0D01*
G01*
G37*
G36*
G01*
X205488600Y-108867600D02*
X205178600Y-108867600D01*
G75*
G02*
X205023600Y-108712600I0J155000D01*
G01*
X205023600Y-108287600D01*
G75*
G02*
X205178600Y-108132600I155000J0D01*
G01*
X205488600Y-108132600D01*
G75*
G02*
X205643600Y-108287600I0J-155000D01*
G01*
X205643600Y-108712600D01*
G75*
G02*
X205488600Y-108867600I-155000J0D01*
G01*
G37*
G36*
G01*
X205488600Y-110002600D02*
X205178600Y-110002600D01*
G75*
G02*
X205023600Y-109847600I0J155000D01*
G01*
X205023600Y-109422600D01*
G75*
G02*
X205178600Y-109267600I155000J0D01*
G01*
X205488600Y-109267600D01*
G75*
G02*
X205643600Y-109422600I0J-155000D01*
G01*
X205643600Y-109847600D01*
G75*
G02*
X205488600Y-110002600I-155000J0D01*
G01*
G37*
G36*
G01*
X173085700Y-95381800D02*
X173395700Y-95381800D01*
G75*
G02*
X173550700Y-95536800I0J-155000D01*
G01*
X173550700Y-95961800D01*
G75*
G02*
X173395700Y-96116800I-155000J0D01*
G01*
X173085700Y-96116800D01*
G75*
G02*
X172930700Y-95961800I0J155000D01*
G01*
X172930700Y-95536800D01*
G75*
G02*
X173085700Y-95381800I155000J0D01*
G01*
G37*
G36*
G01*
X173085700Y-96516800D02*
X173395700Y-96516800D01*
G75*
G02*
X173550700Y-96671800I0J-155000D01*
G01*
X173550700Y-97096800D01*
G75*
G02*
X173395700Y-97251800I-155000J0D01*
G01*
X173085700Y-97251800D01*
G75*
G02*
X172930700Y-97096800I0J155000D01*
G01*
X172930700Y-96671800D01*
G75*
G02*
X173085700Y-96516800I155000J0D01*
G01*
G37*
G36*
G01*
X187467300Y-93297400D02*
X187157300Y-93297400D01*
G75*
G02*
X187002300Y-93142400I0J155000D01*
G01*
X187002300Y-92717400D01*
G75*
G02*
X187157300Y-92562400I155000J0D01*
G01*
X187467300Y-92562400D01*
G75*
G02*
X187622300Y-92717400I0J-155000D01*
G01*
X187622300Y-93142400D01*
G75*
G02*
X187467300Y-93297400I-155000J0D01*
G01*
G37*
G36*
G01*
X187467300Y-94432400D02*
X187157300Y-94432400D01*
G75*
G02*
X187002300Y-94277400I0J155000D01*
G01*
X187002300Y-93852400D01*
G75*
G02*
X187157300Y-93697400I155000J0D01*
G01*
X187467300Y-93697400D01*
G75*
G02*
X187622300Y-93852400I0J-155000D01*
G01*
X187622300Y-94277400D01*
G75*
G02*
X187467300Y-94432400I-155000J0D01*
G01*
G37*
G36*
G01*
X97436300Y-109644200D02*
X97436300Y-109964200D01*
G75*
G02*
X97276300Y-110124200I-160000J0D01*
G01*
X96881300Y-110124200D01*
G75*
G02*
X96721300Y-109964200I0J160000D01*
G01*
X96721300Y-109644200D01*
G75*
G02*
X96881300Y-109484200I160000J0D01*
G01*
X97276300Y-109484200D01*
G75*
G02*
X97436300Y-109644200I0J-160000D01*
G01*
G37*
G36*
G01*
X98631300Y-109644200D02*
X98631300Y-109964200D01*
G75*
G02*
X98471300Y-110124200I-160000J0D01*
G01*
X98076300Y-110124200D01*
G75*
G02*
X97916300Y-109964200I0J160000D01*
G01*
X97916300Y-109644200D01*
G75*
G02*
X98076300Y-109484200I160000J0D01*
G01*
X98471300Y-109484200D01*
G75*
G02*
X98631300Y-109644200I0J-160000D01*
G01*
G37*
G36*
G01*
X138786300Y-109644200D02*
X138786300Y-109964200D01*
G75*
G02*
X138626300Y-110124200I-160000J0D01*
G01*
X138231300Y-110124200D01*
G75*
G02*
X138071300Y-109964200I0J160000D01*
G01*
X138071300Y-109644200D01*
G75*
G02*
X138231300Y-109484200I160000J0D01*
G01*
X138626300Y-109484200D01*
G75*
G02*
X138786300Y-109644200I0J-160000D01*
G01*
G37*
G36*
G01*
X139981300Y-109644200D02*
X139981300Y-109964200D01*
G75*
G02*
X139821300Y-110124200I-160000J0D01*
G01*
X139426300Y-110124200D01*
G75*
G02*
X139266300Y-109964200I0J160000D01*
G01*
X139266300Y-109644200D01*
G75*
G02*
X139426300Y-109484200I160000J0D01*
G01*
X139821300Y-109484200D01*
G75*
G02*
X139981300Y-109644200I0J-160000D01*
G01*
G37*
G36*
G01*
X182451300Y-109644200D02*
X182451300Y-109964200D01*
G75*
G02*
X182291300Y-110124200I-160000J0D01*
G01*
X181896300Y-110124200D01*
G75*
G02*
X181736300Y-109964200I0J160000D01*
G01*
X181736300Y-109644200D01*
G75*
G02*
X181896300Y-109484200I160000J0D01*
G01*
X182291300Y-109484200D01*
G75*
G02*
X182451300Y-109644200I0J-160000D01*
G01*
G37*
G36*
G01*
X181256300Y-109644200D02*
X181256300Y-109964200D01*
G75*
G02*
X181096300Y-110124200I-160000J0D01*
G01*
X180701300Y-110124200D01*
G75*
G02*
X180541300Y-109964200I0J160000D01*
G01*
X180541300Y-109644200D01*
G75*
G02*
X180701300Y-109484200I160000J0D01*
G01*
X181096300Y-109484200D01*
G75*
G02*
X181256300Y-109644200I0J-160000D01*
G01*
G37*
G36*
G01*
X95521800Y-112457200D02*
X95841800Y-112457200D01*
G75*
G02*
X96001800Y-112617200I0J-160000D01*
G01*
X96001800Y-113012200D01*
G75*
G02*
X95841800Y-113172200I-160000J0D01*
G01*
X95521800Y-113172200D01*
G75*
G02*
X95361800Y-113012200I0J160000D01*
G01*
X95361800Y-112617200D01*
G75*
G02*
X95521800Y-112457200I160000J0D01*
G01*
G37*
G36*
G01*
X95521800Y-111262200D02*
X95841800Y-111262200D01*
G75*
G02*
X96001800Y-111422200I0J-160000D01*
G01*
X96001800Y-111817200D01*
G75*
G02*
X95841800Y-111977200I-160000J0D01*
G01*
X95521800Y-111977200D01*
G75*
G02*
X95361800Y-111817200I0J160000D01*
G01*
X95361800Y-111422200D01*
G75*
G02*
X95521800Y-111262200I160000J0D01*
G01*
G37*
G36*
G01*
X136796800Y-112457200D02*
X137116800Y-112457200D01*
G75*
G02*
X137276800Y-112617200I0J-160000D01*
G01*
X137276800Y-113012200D01*
G75*
G02*
X137116800Y-113172200I-160000J0D01*
G01*
X136796800Y-113172200D01*
G75*
G02*
X136636800Y-113012200I0J160000D01*
G01*
X136636800Y-112617200D01*
G75*
G02*
X136796800Y-112457200I160000J0D01*
G01*
G37*
G36*
G01*
X136796800Y-111262200D02*
X137116800Y-111262200D01*
G75*
G02*
X137276800Y-111422200I0J-160000D01*
G01*
X137276800Y-111817200D01*
G75*
G02*
X137116800Y-111977200I-160000J0D01*
G01*
X136796800Y-111977200D01*
G75*
G02*
X136636800Y-111817200I0J160000D01*
G01*
X136636800Y-111422200D01*
G75*
G02*
X136796800Y-111262200I160000J0D01*
G01*
G37*
G36*
G01*
X179341800Y-111262200D02*
X179661800Y-111262200D01*
G75*
G02*
X179821800Y-111422200I0J-160000D01*
G01*
X179821800Y-111817200D01*
G75*
G02*
X179661800Y-111977200I-160000J0D01*
G01*
X179341800Y-111977200D01*
G75*
G02*
X179181800Y-111817200I0J160000D01*
G01*
X179181800Y-111422200D01*
G75*
G02*
X179341800Y-111262200I160000J0D01*
G01*
G37*
G36*
G01*
X179341800Y-112457200D02*
X179661800Y-112457200D01*
G75*
G02*
X179821800Y-112617200I0J-160000D01*
G01*
X179821800Y-113012200D01*
G75*
G02*
X179661800Y-113172200I-160000J0D01*
G01*
X179341800Y-113172200D01*
G75*
G02*
X179181800Y-113012200I0J160000D01*
G01*
X179181800Y-112617200D01*
G75*
G02*
X179341800Y-112457200I160000J0D01*
G01*
G37*
G36*
G01*
X92313800Y-109964200D02*
X92313800Y-109644200D01*
G75*
G02*
X92473800Y-109484200I160000J0D01*
G01*
X92868800Y-109484200D01*
G75*
G02*
X93028800Y-109644200I0J-160000D01*
G01*
X93028800Y-109964200D01*
G75*
G02*
X92868800Y-110124200I-160000J0D01*
G01*
X92473800Y-110124200D01*
G75*
G02*
X92313800Y-109964200I0J160000D01*
G01*
G37*
G36*
G01*
X93508800Y-109964200D02*
X93508800Y-109644200D01*
G75*
G02*
X93668800Y-109484200I160000J0D01*
G01*
X94063800Y-109484200D01*
G75*
G02*
X94223800Y-109644200I0J-160000D01*
G01*
X94223800Y-109964200D01*
G75*
G02*
X94063800Y-110124200I-160000J0D01*
G01*
X93668800Y-110124200D01*
G75*
G02*
X93508800Y-109964200I0J160000D01*
G01*
G37*
G36*
G01*
X133551300Y-109964200D02*
X133551300Y-109644200D01*
G75*
G02*
X133711300Y-109484200I160000J0D01*
G01*
X134106300Y-109484200D01*
G75*
G02*
X134266300Y-109644200I0J-160000D01*
G01*
X134266300Y-109964200D01*
G75*
G02*
X134106300Y-110124200I-160000J0D01*
G01*
X133711300Y-110124200D01*
G75*
G02*
X133551300Y-109964200I0J160000D01*
G01*
G37*
G36*
G01*
X134746300Y-109964200D02*
X134746300Y-109644200D01*
G75*
G02*
X134906300Y-109484200I160000J0D01*
G01*
X135301300Y-109484200D01*
G75*
G02*
X135461300Y-109644200I0J-160000D01*
G01*
X135461300Y-109964200D01*
G75*
G02*
X135301300Y-110124200I-160000J0D01*
G01*
X134906300Y-110124200D01*
G75*
G02*
X134746300Y-109964200I0J160000D01*
G01*
G37*
G36*
G01*
X177366300Y-109964200D02*
X177366300Y-109644200D01*
G75*
G02*
X177526300Y-109484200I160000J0D01*
G01*
X177921300Y-109484200D01*
G75*
G02*
X178081300Y-109644200I0J-160000D01*
G01*
X178081300Y-109964200D01*
G75*
G02*
X177921300Y-110124200I-160000J0D01*
G01*
X177526300Y-110124200D01*
G75*
G02*
X177366300Y-109964200I0J160000D01*
G01*
G37*
G36*
G01*
X176171300Y-109964200D02*
X176171300Y-109644200D01*
G75*
G02*
X176331300Y-109484200I160000J0D01*
G01*
X176726300Y-109484200D01*
G75*
G02*
X176886300Y-109644200I0J-160000D01*
G01*
X176886300Y-109964200D01*
G75*
G02*
X176726300Y-110124200I-160000J0D01*
G01*
X176331300Y-110124200D01*
G75*
G02*
X176171300Y-109964200I0J160000D01*
G01*
G37*
G36*
G01*
X222531300Y-109644200D02*
X222531300Y-109964200D01*
G75*
G02*
X222371300Y-110124200I-160000J0D01*
G01*
X221976300Y-110124200D01*
G75*
G02*
X221816300Y-109964200I0J160000D01*
G01*
X221816300Y-109644200D01*
G75*
G02*
X221976300Y-109484200I160000J0D01*
G01*
X222371300Y-109484200D01*
G75*
G02*
X222531300Y-109644200I0J-160000D01*
G01*
G37*
G36*
G01*
X223726300Y-109644200D02*
X223726300Y-109964200D01*
G75*
G02*
X223566300Y-110124200I-160000J0D01*
G01*
X223171300Y-110124200D01*
G75*
G02*
X223011300Y-109964200I0J160000D01*
G01*
X223011300Y-109644200D01*
G75*
G02*
X223171300Y-109484200I160000J0D01*
G01*
X223566300Y-109484200D01*
G75*
G02*
X223726300Y-109644200I0J-160000D01*
G01*
G37*
G36*
G01*
X98668800Y-151537200D02*
X98668800Y-151857200D01*
G75*
G02*
X98508800Y-152017200I-160000J0D01*
G01*
X98113800Y-152017200D01*
G75*
G02*
X97953800Y-151857200I0J160000D01*
G01*
X97953800Y-151537200D01*
G75*
G02*
X98113800Y-151377200I160000J0D01*
G01*
X98508800Y-151377200D01*
G75*
G02*
X98668800Y-151537200I0J-160000D01*
G01*
G37*
G36*
G01*
X97473800Y-151537200D02*
X97473800Y-151857200D01*
G75*
G02*
X97313800Y-152017200I-160000J0D01*
G01*
X96918800Y-152017200D01*
G75*
G02*
X96758800Y-151857200I0J160000D01*
G01*
X96758800Y-151537200D01*
G75*
G02*
X96918800Y-151377200I160000J0D01*
G01*
X97313800Y-151377200D01*
G75*
G02*
X97473800Y-151537200I0J-160000D01*
G01*
G37*
G36*
G01*
X139510800Y-151537200D02*
X139510800Y-151857200D01*
G75*
G02*
X139350800Y-152017200I-160000J0D01*
G01*
X138955800Y-152017200D01*
G75*
G02*
X138795800Y-151857200I0J160000D01*
G01*
X138795800Y-151537200D01*
G75*
G02*
X138955800Y-151377200I160000J0D01*
G01*
X139350800Y-151377200D01*
G75*
G02*
X139510800Y-151537200I0J-160000D01*
G01*
G37*
G36*
G01*
X140705800Y-151537200D02*
X140705800Y-151857200D01*
G75*
G02*
X140545800Y-152017200I-160000J0D01*
G01*
X140150800Y-152017200D01*
G75*
G02*
X139990800Y-151857200I0J160000D01*
G01*
X139990800Y-151537200D01*
G75*
G02*
X140150800Y-151377200I160000J0D01*
G01*
X140545800Y-151377200D01*
G75*
G02*
X140705800Y-151537200I0J-160000D01*
G01*
G37*
G36*
G01*
X220616800Y-112494700D02*
X220936800Y-112494700D01*
G75*
G02*
X221096800Y-112654700I0J-160000D01*
G01*
X221096800Y-113049700D01*
G75*
G02*
X220936800Y-113209700I-160000J0D01*
G01*
X220616800Y-113209700D01*
G75*
G02*
X220456800Y-113049700I0J160000D01*
G01*
X220456800Y-112654700D01*
G75*
G02*
X220616800Y-112494700I160000J0D01*
G01*
G37*
G36*
G01*
X220616800Y-111299700D02*
X220936800Y-111299700D01*
G75*
G02*
X221096800Y-111459700I0J-160000D01*
G01*
X221096800Y-111854700D01*
G75*
G02*
X220936800Y-112014700I-160000J0D01*
G01*
X220616800Y-112014700D01*
G75*
G02*
X220456800Y-111854700I0J160000D01*
G01*
X220456800Y-111459700D01*
G75*
G02*
X220616800Y-111299700I160000J0D01*
G01*
G37*
G36*
G01*
X95521800Y-154367200D02*
X95841800Y-154367200D01*
G75*
G02*
X96001800Y-154527200I0J-160000D01*
G01*
X96001800Y-154922200D01*
G75*
G02*
X95841800Y-155082200I-160000J0D01*
G01*
X95521800Y-155082200D01*
G75*
G02*
X95361800Y-154922200I0J160000D01*
G01*
X95361800Y-154527200D01*
G75*
G02*
X95521800Y-154367200I160000J0D01*
G01*
G37*
G36*
G01*
X95521800Y-153172200D02*
X95841800Y-153172200D01*
G75*
G02*
X96001800Y-153332200I0J-160000D01*
G01*
X96001800Y-153727200D01*
G75*
G02*
X95841800Y-153887200I-160000J0D01*
G01*
X95521800Y-153887200D01*
G75*
G02*
X95361800Y-153727200I0J160000D01*
G01*
X95361800Y-153332200D01*
G75*
G02*
X95521800Y-153172200I160000J0D01*
G01*
G37*
G36*
G01*
X137431800Y-153172200D02*
X137751800Y-153172200D01*
G75*
G02*
X137911800Y-153332200I0J-160000D01*
G01*
X137911800Y-153727200D01*
G75*
G02*
X137751800Y-153887200I-160000J0D01*
G01*
X137431800Y-153887200D01*
G75*
G02*
X137271800Y-153727200I0J160000D01*
G01*
X137271800Y-153332200D01*
G75*
G02*
X137431800Y-153172200I160000J0D01*
G01*
G37*
G36*
G01*
X137431800Y-154367200D02*
X137751800Y-154367200D01*
G75*
G02*
X137911800Y-154527200I0J-160000D01*
G01*
X137911800Y-154922200D01*
G75*
G02*
X137751800Y-155082200I-160000J0D01*
G01*
X137431800Y-155082200D01*
G75*
G02*
X137271800Y-154922200I0J160000D01*
G01*
X137271800Y-154527200D01*
G75*
G02*
X137431800Y-154367200I160000J0D01*
G01*
G37*
G36*
G01*
X217446300Y-109964200D02*
X217446300Y-109644200D01*
G75*
G02*
X217606300Y-109484200I160000J0D01*
G01*
X218001300Y-109484200D01*
G75*
G02*
X218161300Y-109644200I0J-160000D01*
G01*
X218161300Y-109964200D01*
G75*
G02*
X218001300Y-110124200I-160000J0D01*
G01*
X217606300Y-110124200D01*
G75*
G02*
X217446300Y-109964200I0J160000D01*
G01*
G37*
G36*
G01*
X218641300Y-109964200D02*
X218641300Y-109644200D01*
G75*
G02*
X218801300Y-109484200I160000J0D01*
G01*
X219196300Y-109484200D01*
G75*
G02*
X219356300Y-109644200I0J-160000D01*
G01*
X219356300Y-109964200D01*
G75*
G02*
X219196300Y-110124200I-160000J0D01*
G01*
X218801300Y-110124200D01*
G75*
G02*
X218641300Y-109964200I0J160000D01*
G01*
G37*
G36*
G01*
X92313800Y-151857200D02*
X92313800Y-151537200D01*
G75*
G02*
X92473800Y-151377200I160000J0D01*
G01*
X92868800Y-151377200D01*
G75*
G02*
X93028800Y-151537200I0J-160000D01*
G01*
X93028800Y-151857200D01*
G75*
G02*
X92868800Y-152017200I-160000J0D01*
G01*
X92473800Y-152017200D01*
G75*
G02*
X92313800Y-151857200I0J160000D01*
G01*
G37*
G36*
G01*
X93508800Y-151857200D02*
X93508800Y-151537200D01*
G75*
G02*
X93668800Y-151377200I160000J0D01*
G01*
X94063800Y-151377200D01*
G75*
G02*
X94223800Y-151537200I0J-160000D01*
G01*
X94223800Y-151857200D01*
G75*
G02*
X94063800Y-152017200I-160000J0D01*
G01*
X93668800Y-152017200D01*
G75*
G02*
X93508800Y-151857200I0J160000D01*
G01*
G37*
G36*
G01*
X134350800Y-151857200D02*
X134350800Y-151537200D01*
G75*
G02*
X134510800Y-151377200I160000J0D01*
G01*
X134905800Y-151377200D01*
G75*
G02*
X135065800Y-151537200I0J-160000D01*
G01*
X135065800Y-151857200D01*
G75*
G02*
X134905800Y-152017200I-160000J0D01*
G01*
X134510800Y-152017200D01*
G75*
G02*
X134350800Y-151857200I0J160000D01*
G01*
G37*
G36*
G01*
X135545800Y-151857200D02*
X135545800Y-151537200D01*
G75*
G02*
X135705800Y-151377200I160000J0D01*
G01*
X136100800Y-151377200D01*
G75*
G02*
X136260800Y-151537200I0J-160000D01*
G01*
X136260800Y-151857200D01*
G75*
G02*
X136100800Y-152017200I-160000J0D01*
G01*
X135705800Y-152017200D01*
G75*
G02*
X135545800Y-151857200I0J160000D01*
G01*
G37*
G36*
G01*
X181420800Y-151537200D02*
X181420800Y-151857200D01*
G75*
G02*
X181260800Y-152017200I-160000J0D01*
G01*
X180865800Y-152017200D01*
G75*
G02*
X180705800Y-151857200I0J160000D01*
G01*
X180705800Y-151537200D01*
G75*
G02*
X180865800Y-151377200I160000J0D01*
G01*
X181260800Y-151377200D01*
G75*
G02*
X181420800Y-151537200I0J-160000D01*
G01*
G37*
G36*
G01*
X182615800Y-151537200D02*
X182615800Y-151857200D01*
G75*
G02*
X182455800Y-152017200I-160000J0D01*
G01*
X182060800Y-152017200D01*
G75*
G02*
X181900800Y-151857200I0J160000D01*
G01*
X181900800Y-151537200D01*
G75*
G02*
X182060800Y-151377200I160000J0D01*
G01*
X182455800Y-151377200D01*
G75*
G02*
X182615800Y-151537200I0J-160000D01*
G01*
G37*
G36*
G01*
X224525800Y-151537200D02*
X224525800Y-151857200D01*
G75*
G02*
X224365800Y-152017200I-160000J0D01*
G01*
X223970800Y-152017200D01*
G75*
G02*
X223810800Y-151857200I0J160000D01*
G01*
X223810800Y-151537200D01*
G75*
G02*
X223970800Y-151377200I160000J0D01*
G01*
X224365800Y-151377200D01*
G75*
G02*
X224525800Y-151537200I0J-160000D01*
G01*
G37*
G36*
G01*
X223330800Y-151537200D02*
X223330800Y-151857200D01*
G75*
G02*
X223170800Y-152017200I-160000J0D01*
G01*
X222775800Y-152017200D01*
G75*
G02*
X222615800Y-151857200I0J160000D01*
G01*
X222615800Y-151537200D01*
G75*
G02*
X222775800Y-151377200I160000J0D01*
G01*
X223170800Y-151377200D01*
G75*
G02*
X223330800Y-151537200I0J-160000D01*
G01*
G37*
G36*
G01*
X97600800Y-193447200D02*
X97600800Y-193767200D01*
G75*
G02*
X97440800Y-193927200I-160000J0D01*
G01*
X97045800Y-193927200D01*
G75*
G02*
X96885800Y-193767200I0J160000D01*
G01*
X96885800Y-193447200D01*
G75*
G02*
X97045800Y-193287200I160000J0D01*
G01*
X97440800Y-193287200D01*
G75*
G02*
X97600800Y-193447200I0J-160000D01*
G01*
G37*
G36*
G01*
X98795800Y-193447200D02*
X98795800Y-193767200D01*
G75*
G02*
X98635800Y-193927200I-160000J0D01*
G01*
X98240800Y-193927200D01*
G75*
G02*
X98080800Y-193767200I0J160000D01*
G01*
X98080800Y-193447200D01*
G75*
G02*
X98240800Y-193287200I160000J0D01*
G01*
X98635800Y-193287200D01*
G75*
G02*
X98795800Y-193447200I0J-160000D01*
G01*
G37*
G36*
G01*
X179341800Y-153172200D02*
X179661800Y-153172200D01*
G75*
G02*
X179821800Y-153332200I0J-160000D01*
G01*
X179821800Y-153727200D01*
G75*
G02*
X179661800Y-153887200I-160000J0D01*
G01*
X179341800Y-153887200D01*
G75*
G02*
X179181800Y-153727200I0J160000D01*
G01*
X179181800Y-153332200D01*
G75*
G02*
X179341800Y-153172200I160000J0D01*
G01*
G37*
G36*
G01*
X179341800Y-154367200D02*
X179661800Y-154367200D01*
G75*
G02*
X179821800Y-154527200I0J-160000D01*
G01*
X179821800Y-154922200D01*
G75*
G02*
X179661800Y-155082200I-160000J0D01*
G01*
X179341800Y-155082200D01*
G75*
G02*
X179181800Y-154922200I0J160000D01*
G01*
X179181800Y-154527200D01*
G75*
G02*
X179341800Y-154367200I160000J0D01*
G01*
G37*
G36*
G01*
X221251800Y-153172200D02*
X221571800Y-153172200D01*
G75*
G02*
X221731800Y-153332200I0J-160000D01*
G01*
X221731800Y-153727200D01*
G75*
G02*
X221571800Y-153887200I-160000J0D01*
G01*
X221251800Y-153887200D01*
G75*
G02*
X221091800Y-153727200I0J160000D01*
G01*
X221091800Y-153332200D01*
G75*
G02*
X221251800Y-153172200I160000J0D01*
G01*
G37*
G36*
G01*
X221251800Y-154367200D02*
X221571800Y-154367200D01*
G75*
G02*
X221731800Y-154527200I0J-160000D01*
G01*
X221731800Y-154922200D01*
G75*
G02*
X221571800Y-155082200I-160000J0D01*
G01*
X221251800Y-155082200D01*
G75*
G02*
X221091800Y-154922200I0J160000D01*
G01*
X221091800Y-154527200D01*
G75*
G02*
X221251800Y-154367200I160000J0D01*
G01*
G37*
G36*
G01*
X95521800Y-196277200D02*
X95841800Y-196277200D01*
G75*
G02*
X96001800Y-196437200I0J-160000D01*
G01*
X96001800Y-196832200D01*
G75*
G02*
X95841800Y-196992200I-160000J0D01*
G01*
X95521800Y-196992200D01*
G75*
G02*
X95361800Y-196832200I0J160000D01*
G01*
X95361800Y-196437200D01*
G75*
G02*
X95521800Y-196277200I160000J0D01*
G01*
G37*
G36*
G01*
X95521800Y-195082200D02*
X95841800Y-195082200D01*
G75*
G02*
X96001800Y-195242200I0J-160000D01*
G01*
X96001800Y-195637200D01*
G75*
G02*
X95841800Y-195797200I-160000J0D01*
G01*
X95521800Y-195797200D01*
G75*
G02*
X95361800Y-195637200I0J160000D01*
G01*
X95361800Y-195242200D01*
G75*
G02*
X95521800Y-195082200I160000J0D01*
G01*
G37*
G36*
G01*
X176260800Y-151857200D02*
X176260800Y-151537200D01*
G75*
G02*
X176420800Y-151377200I160000J0D01*
G01*
X176815800Y-151377200D01*
G75*
G02*
X176975800Y-151537200I0J-160000D01*
G01*
X176975800Y-151857200D01*
G75*
G02*
X176815800Y-152017200I-160000J0D01*
G01*
X176420800Y-152017200D01*
G75*
G02*
X176260800Y-151857200I0J160000D01*
G01*
G37*
G36*
G01*
X177455800Y-151857200D02*
X177455800Y-151537200D01*
G75*
G02*
X177615800Y-151377200I160000J0D01*
G01*
X178010800Y-151377200D01*
G75*
G02*
X178170800Y-151537200I0J-160000D01*
G01*
X178170800Y-151857200D01*
G75*
G02*
X178010800Y-152017200I-160000J0D01*
G01*
X177615800Y-152017200D01*
G75*
G02*
X177455800Y-151857200I0J160000D01*
G01*
G37*
G36*
G01*
X219365800Y-151857200D02*
X219365800Y-151537200D01*
G75*
G02*
X219525800Y-151377200I160000J0D01*
G01*
X219920800Y-151377200D01*
G75*
G02*
X220080800Y-151537200I0J-160000D01*
G01*
X220080800Y-151857200D01*
G75*
G02*
X219920800Y-152017200I-160000J0D01*
G01*
X219525800Y-152017200D01*
G75*
G02*
X219365800Y-151857200I0J160000D01*
G01*
G37*
G36*
G01*
X218170800Y-151857200D02*
X218170800Y-151537200D01*
G75*
G02*
X218330800Y-151377200I160000J0D01*
G01*
X218725800Y-151377200D01*
G75*
G02*
X218885800Y-151537200I0J-160000D01*
G01*
X218885800Y-151857200D01*
G75*
G02*
X218725800Y-152017200I-160000J0D01*
G01*
X218330800Y-152017200D01*
G75*
G02*
X218170800Y-151857200I0J160000D01*
G01*
G37*
G36*
G01*
X92440800Y-193767200D02*
X92440800Y-193447200D01*
G75*
G02*
X92600800Y-193287200I160000J0D01*
G01*
X92995800Y-193287200D01*
G75*
G02*
X93155800Y-193447200I0J-160000D01*
G01*
X93155800Y-193767200D01*
G75*
G02*
X92995800Y-193927200I-160000J0D01*
G01*
X92600800Y-193927200D01*
G75*
G02*
X92440800Y-193767200I0J160000D01*
G01*
G37*
G36*
G01*
X93635800Y-193767200D02*
X93635800Y-193447200D01*
G75*
G02*
X93795800Y-193287200I160000J0D01*
G01*
X94190800Y-193287200D01*
G75*
G02*
X94350800Y-193447200I0J-160000D01*
G01*
X94350800Y-193767200D01*
G75*
G02*
X94190800Y-193927200I-160000J0D01*
G01*
X93795800Y-193927200D01*
G75*
G02*
X93635800Y-193767200I0J160000D01*
G01*
G37*
G36*
G01*
X139510800Y-193447200D02*
X139510800Y-193767200D01*
G75*
G02*
X139350800Y-193927200I-160000J0D01*
G01*
X138955800Y-193927200D01*
G75*
G02*
X138795800Y-193767200I0J160000D01*
G01*
X138795800Y-193447200D01*
G75*
G02*
X138955800Y-193287200I160000J0D01*
G01*
X139350800Y-193287200D01*
G75*
G02*
X139510800Y-193447200I0J-160000D01*
G01*
G37*
G36*
G01*
X140705800Y-193447200D02*
X140705800Y-193767200D01*
G75*
G02*
X140545800Y-193927200I-160000J0D01*
G01*
X140150800Y-193927200D01*
G75*
G02*
X139990800Y-193767200I0J160000D01*
G01*
X139990800Y-193447200D01*
G75*
G02*
X140150800Y-193287200I160000J0D01*
G01*
X140545800Y-193287200D01*
G75*
G02*
X140705800Y-193447200I0J-160000D01*
G01*
G37*
G36*
G01*
X182615800Y-193447200D02*
X182615800Y-193767200D01*
G75*
G02*
X182455800Y-193927200I-160000J0D01*
G01*
X182060800Y-193927200D01*
G75*
G02*
X181900800Y-193767200I0J160000D01*
G01*
X181900800Y-193447200D01*
G75*
G02*
X182060800Y-193287200I160000J0D01*
G01*
X182455800Y-193287200D01*
G75*
G02*
X182615800Y-193447200I0J-160000D01*
G01*
G37*
G36*
G01*
X181420800Y-193447200D02*
X181420800Y-193767200D01*
G75*
G02*
X181260800Y-193927200I-160000J0D01*
G01*
X180865800Y-193927200D01*
G75*
G02*
X180705800Y-193767200I0J160000D01*
G01*
X180705800Y-193447200D01*
G75*
G02*
X180865800Y-193287200I160000J0D01*
G01*
X181260800Y-193287200D01*
G75*
G02*
X181420800Y-193447200I0J-160000D01*
G01*
G37*
G36*
G01*
X223457800Y-193447200D02*
X223457800Y-193767200D01*
G75*
G02*
X223297800Y-193927200I-160000J0D01*
G01*
X222902800Y-193927200D01*
G75*
G02*
X222742800Y-193767200I0J160000D01*
G01*
X222742800Y-193447200D01*
G75*
G02*
X222902800Y-193287200I160000J0D01*
G01*
X223297800Y-193287200D01*
G75*
G02*
X223457800Y-193447200I0J-160000D01*
G01*
G37*
G36*
G01*
X224652800Y-193447200D02*
X224652800Y-193767200D01*
G75*
G02*
X224492800Y-193927200I-160000J0D01*
G01*
X224097800Y-193927200D01*
G75*
G02*
X223937800Y-193767200I0J160000D01*
G01*
X223937800Y-193447200D01*
G75*
G02*
X224097800Y-193287200I160000J0D01*
G01*
X224492800Y-193287200D01*
G75*
G02*
X224652800Y-193447200I0J-160000D01*
G01*
G37*
G36*
G01*
X137431800Y-196277200D02*
X137751800Y-196277200D01*
G75*
G02*
X137911800Y-196437200I0J-160000D01*
G01*
X137911800Y-196832200D01*
G75*
G02*
X137751800Y-196992200I-160000J0D01*
G01*
X137431800Y-196992200D01*
G75*
G02*
X137271800Y-196832200I0J160000D01*
G01*
X137271800Y-196437200D01*
G75*
G02*
X137431800Y-196277200I160000J0D01*
G01*
G37*
G36*
G01*
X137431800Y-195082200D02*
X137751800Y-195082200D01*
G75*
G02*
X137911800Y-195242200I0J-160000D01*
G01*
X137911800Y-195637200D01*
G75*
G02*
X137751800Y-195797200I-160000J0D01*
G01*
X137431800Y-195797200D01*
G75*
G02*
X137271800Y-195637200I0J160000D01*
G01*
X137271800Y-195242200D01*
G75*
G02*
X137431800Y-195082200I160000J0D01*
G01*
G37*
G36*
G01*
X179341800Y-195082200D02*
X179661800Y-195082200D01*
G75*
G02*
X179821800Y-195242200I0J-160000D01*
G01*
X179821800Y-195637200D01*
G75*
G02*
X179661800Y-195797200I-160000J0D01*
G01*
X179341800Y-195797200D01*
G75*
G02*
X179181800Y-195637200I0J160000D01*
G01*
X179181800Y-195242200D01*
G75*
G02*
X179341800Y-195082200I160000J0D01*
G01*
G37*
G36*
G01*
X179341800Y-196277200D02*
X179661800Y-196277200D01*
G75*
G02*
X179821800Y-196437200I0J-160000D01*
G01*
X179821800Y-196832200D01*
G75*
G02*
X179661800Y-196992200I-160000J0D01*
G01*
X179341800Y-196992200D01*
G75*
G02*
X179181800Y-196832200I0J160000D01*
G01*
X179181800Y-196437200D01*
G75*
G02*
X179341800Y-196277200I160000J0D01*
G01*
G37*
G36*
G01*
X221251800Y-196277200D02*
X221571800Y-196277200D01*
G75*
G02*
X221731800Y-196437200I0J-160000D01*
G01*
X221731800Y-196832200D01*
G75*
G02*
X221571800Y-196992200I-160000J0D01*
G01*
X221251800Y-196992200D01*
G75*
G02*
X221091800Y-196832200I0J160000D01*
G01*
X221091800Y-196437200D01*
G75*
G02*
X221251800Y-196277200I160000J0D01*
G01*
G37*
G36*
G01*
X221251800Y-195082200D02*
X221571800Y-195082200D01*
G75*
G02*
X221731800Y-195242200I0J-160000D01*
G01*
X221731800Y-195637200D01*
G75*
G02*
X221571800Y-195797200I-160000J0D01*
G01*
X221251800Y-195797200D01*
G75*
G02*
X221091800Y-195637200I0J160000D01*
G01*
X221091800Y-195242200D01*
G75*
G02*
X221251800Y-195082200I160000J0D01*
G01*
G37*
G36*
G01*
X135508300Y-193767200D02*
X135508300Y-193447200D01*
G75*
G02*
X135668300Y-193287200I160000J0D01*
G01*
X136063300Y-193287200D01*
G75*
G02*
X136223300Y-193447200I0J-160000D01*
G01*
X136223300Y-193767200D01*
G75*
G02*
X136063300Y-193927200I-160000J0D01*
G01*
X135668300Y-193927200D01*
G75*
G02*
X135508300Y-193767200I0J160000D01*
G01*
G37*
G36*
G01*
X134313300Y-193767200D02*
X134313300Y-193447200D01*
G75*
G02*
X134473300Y-193287200I160000J0D01*
G01*
X134868300Y-193287200D01*
G75*
G02*
X135028300Y-193447200I0J-160000D01*
G01*
X135028300Y-193767200D01*
G75*
G02*
X134868300Y-193927200I-160000J0D01*
G01*
X134473300Y-193927200D01*
G75*
G02*
X134313300Y-193767200I0J160000D01*
G01*
G37*
G36*
G01*
X177455800Y-193767200D02*
X177455800Y-193447200D01*
G75*
G02*
X177615800Y-193287200I160000J0D01*
G01*
X178010800Y-193287200D01*
G75*
G02*
X178170800Y-193447200I0J-160000D01*
G01*
X178170800Y-193767200D01*
G75*
G02*
X178010800Y-193927200I-160000J0D01*
G01*
X177615800Y-193927200D01*
G75*
G02*
X177455800Y-193767200I0J160000D01*
G01*
G37*
G36*
G01*
X176260800Y-193767200D02*
X176260800Y-193447200D01*
G75*
G02*
X176420800Y-193287200I160000J0D01*
G01*
X176815800Y-193287200D01*
G75*
G02*
X176975800Y-193447200I0J-160000D01*
G01*
X176975800Y-193767200D01*
G75*
G02*
X176815800Y-193927200I-160000J0D01*
G01*
X176420800Y-193927200D01*
G75*
G02*
X176260800Y-193767200I0J160000D01*
G01*
G37*
G36*
G01*
X218297800Y-193767200D02*
X218297800Y-193447200D01*
G75*
G02*
X218457800Y-193287200I160000J0D01*
G01*
X218852800Y-193287200D01*
G75*
G02*
X219012800Y-193447200I0J-160000D01*
G01*
X219012800Y-193767200D01*
G75*
G02*
X218852800Y-193927200I-160000J0D01*
G01*
X218457800Y-193927200D01*
G75*
G02*
X218297800Y-193767200I0J160000D01*
G01*
G37*
G36*
G01*
X219492800Y-193767200D02*
X219492800Y-193447200D01*
G75*
G02*
X219652800Y-193287200I160000J0D01*
G01*
X220047800Y-193287200D01*
G75*
G02*
X220207800Y-193447200I0J-160000D01*
G01*
X220207800Y-193767200D01*
G75*
G02*
X220047800Y-193927200I-160000J0D01*
G01*
X219652800Y-193927200D01*
G75*
G02*
X219492800Y-193767200I0J160000D01*
G01*
G37*
G36*
G01*
X156979600Y-180126600D02*
X156659600Y-180126600D01*
G75*
G02*
X156499600Y-179966600I0J160000D01*
G01*
X156499600Y-179571600D01*
G75*
G02*
X156659600Y-179411600I160000J0D01*
G01*
X156979600Y-179411600D01*
G75*
G02*
X157139600Y-179571600I0J-160000D01*
G01*
X157139600Y-179966600D01*
G75*
G02*
X156979600Y-180126600I-160000J0D01*
G01*
G37*
G36*
G01*
X156979600Y-178931600D02*
X156659600Y-178931600D01*
G75*
G02*
X156499600Y-178771600I0J160000D01*
G01*
X156499600Y-178376600D01*
G75*
G02*
X156659600Y-178216600I160000J0D01*
G01*
X156979600Y-178216600D01*
G75*
G02*
X157139600Y-178376600I0J-160000D01*
G01*
X157139600Y-178771600D01*
G75*
G02*
X156979600Y-178931600I-160000J0D01*
G01*
G37*
G36*
G01*
X157955000Y-178203300D02*
X158275000Y-178203300D01*
G75*
G02*
X158435000Y-178363300I0J-160000D01*
G01*
X158435000Y-178758300D01*
G75*
G02*
X158275000Y-178918300I-160000J0D01*
G01*
X157955000Y-178918300D01*
G75*
G02*
X157795000Y-178758300I0J160000D01*
G01*
X157795000Y-178363300D01*
G75*
G02*
X157955000Y-178203300I160000J0D01*
G01*
G37*
G36*
G01*
X157955000Y-179398300D02*
X158275000Y-179398300D01*
G75*
G02*
X158435000Y-179558300I0J-160000D01*
G01*
X158435000Y-179953300D01*
G75*
G02*
X158275000Y-180113300I-160000J0D01*
G01*
X157955000Y-180113300D01*
G75*
G02*
X157795000Y-179953300I0J160000D01*
G01*
X157795000Y-179558300D01*
G75*
G02*
X157955000Y-179398300I160000J0D01*
G01*
G37*
G36*
G01*
X205935600Y-125638600D02*
X206255600Y-125638600D01*
G75*
G02*
X206415600Y-125798600I0J-160000D01*
G01*
X206415600Y-126193600D01*
G75*
G02*
X206255600Y-126353600I-160000J0D01*
G01*
X205935600Y-126353600D01*
G75*
G02*
X205775600Y-126193600I0J160000D01*
G01*
X205775600Y-125798600D01*
G75*
G02*
X205935600Y-125638600I160000J0D01*
G01*
G37*
G36*
G01*
X205935600Y-126833600D02*
X206255600Y-126833600D01*
G75*
G02*
X206415600Y-126993600I0J-160000D01*
G01*
X206415600Y-127388600D01*
G75*
G02*
X206255600Y-127548600I-160000J0D01*
G01*
X205935600Y-127548600D01*
G75*
G02*
X205775600Y-127388600I0J160000D01*
G01*
X205775600Y-126993600D01*
G75*
G02*
X205935600Y-126833600I160000J0D01*
G01*
G37*
G36*
G01*
X204985600Y-127548600D02*
X204665600Y-127548600D01*
G75*
G02*
X204505600Y-127388600I0J160000D01*
G01*
X204505600Y-126993600D01*
G75*
G02*
X204665600Y-126833600I160000J0D01*
G01*
X204985600Y-126833600D01*
G75*
G02*
X205145600Y-126993600I0J-160000D01*
G01*
X205145600Y-127388600D01*
G75*
G02*
X204985600Y-127548600I-160000J0D01*
G01*
G37*
G36*
G01*
X204985600Y-126353600D02*
X204665600Y-126353600D01*
G75*
G02*
X204505600Y-126193600I0J160000D01*
G01*
X204505600Y-125798600D01*
G75*
G02*
X204665600Y-125638600I160000J0D01*
G01*
X204985600Y-125638600D01*
G75*
G02*
X205145600Y-125798600I0J-160000D01*
G01*
X205145600Y-126193600D01*
G75*
G02*
X204985600Y-126353600I-160000J0D01*
G01*
G37*
G36*
G01*
X203823600Y-124528600D02*
X203823600Y-124848600D01*
G75*
G02*
X203663600Y-125008600I-160000J0D01*
G01*
X203268600Y-125008600D01*
G75*
G02*
X203108600Y-124848600I0J160000D01*
G01*
X203108600Y-124528600D01*
G75*
G02*
X203268600Y-124368600I160000J0D01*
G01*
X203663600Y-124368600D01*
G75*
G02*
X203823600Y-124528600I0J-160000D01*
G01*
G37*
G36*
G01*
X205018600Y-124528600D02*
X205018600Y-124848600D01*
G75*
G02*
X204858600Y-125008600I-160000J0D01*
G01*
X204463600Y-125008600D01*
G75*
G02*
X204303600Y-124848600I0J160000D01*
G01*
X204303600Y-124528600D01*
G75*
G02*
X204463600Y-124368600I160000J0D01*
G01*
X204858600Y-124368600D01*
G75*
G02*
X205018600Y-124528600I0J-160000D01*
G01*
G37*
G36*
G01*
X209745600Y-125765600D02*
X210065600Y-125765600D01*
G75*
G02*
X210225600Y-125925600I0J-160000D01*
G01*
X210225600Y-126320600D01*
G75*
G02*
X210065600Y-126480600I-160000J0D01*
G01*
X209745600Y-126480600D01*
G75*
G02*
X209585600Y-126320600I0J160000D01*
G01*
X209585600Y-125925600D01*
G75*
G02*
X209745600Y-125765600I160000J0D01*
G01*
G37*
G36*
G01*
X209745600Y-126960600D02*
X210065600Y-126960600D01*
G75*
G02*
X210225600Y-127120600I0J-160000D01*
G01*
X210225600Y-127515600D01*
G75*
G02*
X210065600Y-127675600I-160000J0D01*
G01*
X209745600Y-127675600D01*
G75*
G02*
X209585600Y-127515600I0J160000D01*
G01*
X209585600Y-127120600D01*
G75*
G02*
X209745600Y-126960600I160000J0D01*
G01*
G37*
G36*
G01*
X208795600Y-127675600D02*
X208475600Y-127675600D01*
G75*
G02*
X208315600Y-127515600I0J160000D01*
G01*
X208315600Y-127120600D01*
G75*
G02*
X208475600Y-126960600I160000J0D01*
G01*
X208795600Y-126960600D01*
G75*
G02*
X208955600Y-127120600I0J-160000D01*
G01*
X208955600Y-127515600D01*
G75*
G02*
X208795600Y-127675600I-160000J0D01*
G01*
G37*
G36*
G01*
X208795600Y-126480600D02*
X208475600Y-126480600D01*
G75*
G02*
X208315600Y-126320600I0J160000D01*
G01*
X208315600Y-125925600D01*
G75*
G02*
X208475600Y-125765600I160000J0D01*
G01*
X208795600Y-125765600D01*
G75*
G02*
X208955600Y-125925600I0J-160000D01*
G01*
X208955600Y-126320600D01*
G75*
G02*
X208795600Y-126480600I-160000J0D01*
G01*
G37*
G36*
G01*
X208955600Y-124528600D02*
X208955600Y-124848600D01*
G75*
G02*
X208795600Y-125008600I-160000J0D01*
G01*
X208400600Y-125008600D01*
G75*
G02*
X208240600Y-124848600I0J160000D01*
G01*
X208240600Y-124528600D01*
G75*
G02*
X208400600Y-124368600I160000J0D01*
G01*
X208795600Y-124368600D01*
G75*
G02*
X208955600Y-124528600I0J-160000D01*
G01*
G37*
G36*
G01*
X207760600Y-124528600D02*
X207760600Y-124848600D01*
G75*
G02*
X207600600Y-125008600I-160000J0D01*
G01*
X207205600Y-125008600D01*
G75*
G02*
X207045600Y-124848600I0J160000D01*
G01*
X207045600Y-124528600D01*
G75*
G02*
X207205600Y-124368600I160000J0D01*
G01*
X207600600Y-124368600D01*
G75*
G02*
X207760600Y-124528600I0J-160000D01*
G01*
G37*
G36*
G01*
X210954600Y-110022600D02*
X210634600Y-110022600D01*
G75*
G02*
X210474600Y-109862600I0J160000D01*
G01*
X210474600Y-109467600D01*
G75*
G02*
X210634600Y-109307600I160000J0D01*
G01*
X210954600Y-109307600D01*
G75*
G02*
X211114600Y-109467600I0J-160000D01*
G01*
X211114600Y-109862600D01*
G75*
G02*
X210954600Y-110022600I-160000J0D01*
G01*
G37*
G36*
G01*
X210954600Y-108827600D02*
X210634600Y-108827600D01*
G75*
G02*
X210474600Y-108667600I0J160000D01*
G01*
X210474600Y-108272600D01*
G75*
G02*
X210634600Y-108112600I160000J0D01*
G01*
X210954600Y-108112600D01*
G75*
G02*
X211114600Y-108272600I0J-160000D01*
G01*
X211114600Y-108667600D01*
G75*
G02*
X210954600Y-108827600I-160000J0D01*
G01*
G37*
G36*
G01*
X209364600Y-109307600D02*
X209684600Y-109307600D01*
G75*
G02*
X209844600Y-109467600I0J-160000D01*
G01*
X209844600Y-109862600D01*
G75*
G02*
X209684600Y-110022600I-160000J0D01*
G01*
X209364600Y-110022600D01*
G75*
G02*
X209204600Y-109862600I0J160000D01*
G01*
X209204600Y-109467600D01*
G75*
G02*
X209364600Y-109307600I160000J0D01*
G01*
G37*
G36*
G01*
X209364600Y-108112600D02*
X209684600Y-108112600D01*
G75*
G02*
X209844600Y-108272600I0J-160000D01*
G01*
X209844600Y-108667600D01*
G75*
G02*
X209684600Y-108827600I-160000J0D01*
G01*
X209364600Y-108827600D01*
G75*
G02*
X209204600Y-108667600I0J160000D01*
G01*
X209204600Y-108272600D01*
G75*
G02*
X209364600Y-108112600I160000J0D01*
G01*
G37*
G36*
G01*
X208649600Y-111066600D02*
X208649600Y-111386600D01*
G75*
G02*
X208489600Y-111546600I-160000J0D01*
G01*
X208094600Y-111546600D01*
G75*
G02*
X207934600Y-111386600I0J160000D01*
G01*
X207934600Y-111066600D01*
G75*
G02*
X208094600Y-110906600I160000J0D01*
G01*
X208489600Y-110906600D01*
G75*
G02*
X208649600Y-111066600I0J-160000D01*
G01*
G37*
G36*
G01*
X209844600Y-111066600D02*
X209844600Y-111386600D01*
G75*
G02*
X209684600Y-111546600I-160000J0D01*
G01*
X209289600Y-111546600D01*
G75*
G02*
X209129600Y-111386600I0J160000D01*
G01*
X209129600Y-111066600D01*
G75*
G02*
X209289600Y-110906600I160000J0D01*
G01*
X209684600Y-110906600D01*
G75*
G02*
X209844600Y-111066600I0J-160000D01*
G01*
G37*
G36*
G01*
X202953600Y-110022600D02*
X202633600Y-110022600D01*
G75*
G02*
X202473600Y-109862600I0J160000D01*
G01*
X202473600Y-109467600D01*
G75*
G02*
X202633600Y-109307600I160000J0D01*
G01*
X202953600Y-109307600D01*
G75*
G02*
X203113600Y-109467600I0J-160000D01*
G01*
X203113600Y-109862600D01*
G75*
G02*
X202953600Y-110022600I-160000J0D01*
G01*
G37*
G36*
G01*
X202953600Y-108827600D02*
X202633600Y-108827600D01*
G75*
G02*
X202473600Y-108667600I0J160000D01*
G01*
X202473600Y-108272600D01*
G75*
G02*
X202633600Y-108112600I160000J0D01*
G01*
X202953600Y-108112600D01*
G75*
G02*
X203113600Y-108272600I0J-160000D01*
G01*
X203113600Y-108667600D01*
G75*
G02*
X202953600Y-108827600I-160000J0D01*
G01*
G37*
G36*
G01*
X203903600Y-109307600D02*
X204223600Y-109307600D01*
G75*
G02*
X204383600Y-109467600I0J-160000D01*
G01*
X204383600Y-109862600D01*
G75*
G02*
X204223600Y-110022600I-160000J0D01*
G01*
X203903600Y-110022600D01*
G75*
G02*
X203743600Y-109862600I0J160000D01*
G01*
X203743600Y-109467600D01*
G75*
G02*
X203903600Y-109307600I160000J0D01*
G01*
G37*
G36*
G01*
X203903600Y-108112600D02*
X204223600Y-108112600D01*
G75*
G02*
X204383600Y-108272600I0J-160000D01*
G01*
X204383600Y-108667600D01*
G75*
G02*
X204223600Y-108827600I-160000J0D01*
G01*
X203903600Y-108827600D01*
G75*
G02*
X203743600Y-108667600I0J160000D01*
G01*
X203743600Y-108272600D01*
G75*
G02*
X203903600Y-108112600I160000J0D01*
G01*
G37*
G36*
G01*
X206923600Y-111104100D02*
X206923600Y-111424100D01*
G75*
G02*
X206763600Y-111584100I-160000J0D01*
G01*
X206368600Y-111584100D01*
G75*
G02*
X206208600Y-111424100I0J160000D01*
G01*
X206208600Y-111104100D01*
G75*
G02*
X206368600Y-110944100I160000J0D01*
G01*
X206763600Y-110944100D01*
G75*
G02*
X206923600Y-111104100I0J-160000D01*
G01*
G37*
G36*
G01*
X205728600Y-111104100D02*
X205728600Y-111424100D01*
G75*
G02*
X205568600Y-111584100I-160000J0D01*
G01*
X205173600Y-111584100D01*
G75*
G02*
X205013600Y-111424100I0J160000D01*
G01*
X205013600Y-111104100D01*
G75*
G02*
X205173600Y-110944100I160000J0D01*
G01*
X205568600Y-110944100D01*
G75*
G02*
X205728600Y-111104100I0J-160000D01*
G01*
G37*
G36*
G01*
X148832600Y-132440700D02*
X148832600Y-132760700D01*
G75*
G02*
X148672600Y-132920700I-160000J0D01*
G01*
X148277600Y-132920700D01*
G75*
G02*
X148117600Y-132760700I0J160000D01*
G01*
X148117600Y-132440700D01*
G75*
G02*
X148277600Y-132280700I160000J0D01*
G01*
X148672600Y-132280700D01*
G75*
G02*
X148832600Y-132440700I0J-160000D01*
G01*
G37*
G36*
G01*
X150027600Y-132440700D02*
X150027600Y-132760700D01*
G75*
G02*
X149867600Y-132920700I-160000J0D01*
G01*
X149472600Y-132920700D01*
G75*
G02*
X149312600Y-132760700I0J160000D01*
G01*
X149312600Y-132440700D01*
G75*
G02*
X149472600Y-132280700I160000J0D01*
G01*
X149867600Y-132280700D01*
G75*
G02*
X150027600Y-132440700I0J-160000D01*
G01*
G37*
G36*
G01*
X157999400Y-137574000D02*
X157999400Y-137254000D01*
G75*
G02*
X158159400Y-137094000I160000J0D01*
G01*
X158554400Y-137094000D01*
G75*
G02*
X158714400Y-137254000I0J-160000D01*
G01*
X158714400Y-137574000D01*
G75*
G02*
X158554400Y-137734000I-160000J0D01*
G01*
X158159400Y-137734000D01*
G75*
G02*
X157999400Y-137574000I0J160000D01*
G01*
G37*
G36*
G01*
X156804400Y-137574000D02*
X156804400Y-137254000D01*
G75*
G02*
X156964400Y-137094000I160000J0D01*
G01*
X157359400Y-137094000D01*
G75*
G02*
X157519400Y-137254000I0J-160000D01*
G01*
X157519400Y-137574000D01*
G75*
G02*
X157359400Y-137734000I-160000J0D01*
G01*
X156964400Y-137734000D01*
G75*
G02*
X156804400Y-137574000I0J160000D01*
G01*
G37*
G36*
G01*
X165237800Y-174551200D02*
X165237800Y-174851200D01*
G75*
G02*
X165087800Y-175001200I-150000J0D01*
G01*
X163337800Y-175001200D01*
G75*
G02*
X163187800Y-174851200I0J150000D01*
G01*
X163187800Y-174551200D01*
G75*
G02*
X163337800Y-174401200I150000J0D01*
G01*
X165087800Y-174401200D01*
G75*
G02*
X165237800Y-174551200I0J-150000D01*
G01*
G37*
G36*
G01*
X165237800Y-173281200D02*
X165237800Y-173581200D01*
G75*
G02*
X165087800Y-173731200I-150000J0D01*
G01*
X163337800Y-173731200D01*
G75*
G02*
X163187800Y-173581200I0J150000D01*
G01*
X163187800Y-173281200D01*
G75*
G02*
X163337800Y-173131200I150000J0D01*
G01*
X165087800Y-173131200D01*
G75*
G02*
X165237800Y-173281200I0J-150000D01*
G01*
G37*
G36*
G01*
X165237800Y-172011200D02*
X165237800Y-172311200D01*
G75*
G02*
X165087800Y-172461200I-150000J0D01*
G01*
X163337800Y-172461200D01*
G75*
G02*
X163187800Y-172311200I0J150000D01*
G01*
X163187800Y-172011200D01*
G75*
G02*
X163337800Y-171861200I150000J0D01*
G01*
X165087800Y-171861200D01*
G75*
G02*
X165237800Y-172011200I0J-150000D01*
G01*
G37*
G36*
G01*
X165237800Y-170741200D02*
X165237800Y-171041200D01*
G75*
G02*
X165087800Y-171191200I-150000J0D01*
G01*
X163337800Y-171191200D01*
G75*
G02*
X163187800Y-171041200I0J150000D01*
G01*
X163187800Y-170741200D01*
G75*
G02*
X163337800Y-170591200I150000J0D01*
G01*
X165087800Y-170591200D01*
G75*
G02*
X165237800Y-170741200I0J-150000D01*
G01*
G37*
G36*
G01*
X165237800Y-169471200D02*
X165237800Y-169771200D01*
G75*
G02*
X165087800Y-169921200I-150000J0D01*
G01*
X163337800Y-169921200D01*
G75*
G02*
X163187800Y-169771200I0J150000D01*
G01*
X163187800Y-169471200D01*
G75*
G02*
X163337800Y-169321200I150000J0D01*
G01*
X165087800Y-169321200D01*
G75*
G02*
X165237800Y-169471200I0J-150000D01*
G01*
G37*
G36*
G01*
X165237800Y-168201200D02*
X165237800Y-168501200D01*
G75*
G02*
X165087800Y-168651200I-150000J0D01*
G01*
X163337800Y-168651200D01*
G75*
G02*
X163187800Y-168501200I0J150000D01*
G01*
X163187800Y-168201200D01*
G75*
G02*
X163337800Y-168051200I150000J0D01*
G01*
X165087800Y-168051200D01*
G75*
G02*
X165237800Y-168201200I0J-150000D01*
G01*
G37*
G36*
G01*
X165237800Y-166931200D02*
X165237800Y-167231200D01*
G75*
G02*
X165087800Y-167381200I-150000J0D01*
G01*
X163337800Y-167381200D01*
G75*
G02*
X163187800Y-167231200I0J150000D01*
G01*
X163187800Y-166931200D01*
G75*
G02*
X163337800Y-166781200I150000J0D01*
G01*
X165087800Y-166781200D01*
G75*
G02*
X165237800Y-166931200I0J-150000D01*
G01*
G37*
G36*
G01*
X165237800Y-165661200D02*
X165237800Y-165961200D01*
G75*
G02*
X165087800Y-166111200I-150000J0D01*
G01*
X163337800Y-166111200D01*
G75*
G02*
X163187800Y-165961200I0J150000D01*
G01*
X163187800Y-165661200D01*
G75*
G02*
X163337800Y-165511200I150000J0D01*
G01*
X165087800Y-165511200D01*
G75*
G02*
X165237800Y-165661200I0J-150000D01*
G01*
G37*
G36*
G01*
X165237800Y-164391200D02*
X165237800Y-164691200D01*
G75*
G02*
X165087800Y-164841200I-150000J0D01*
G01*
X163337800Y-164841200D01*
G75*
G02*
X163187800Y-164691200I0J150000D01*
G01*
X163187800Y-164391200D01*
G75*
G02*
X163337800Y-164241200I150000J0D01*
G01*
X165087800Y-164241200D01*
G75*
G02*
X165237800Y-164391200I0J-150000D01*
G01*
G37*
G36*
G01*
X165237800Y-163121200D02*
X165237800Y-163421200D01*
G75*
G02*
X165087800Y-163571200I-150000J0D01*
G01*
X163337800Y-163571200D01*
G75*
G02*
X163187800Y-163421200I0J150000D01*
G01*
X163187800Y-163121200D01*
G75*
G02*
X163337800Y-162971200I150000J0D01*
G01*
X165087800Y-162971200D01*
G75*
G02*
X165237800Y-163121200I0J-150000D01*
G01*
G37*
G36*
G01*
X165237800Y-161851200D02*
X165237800Y-162151200D01*
G75*
G02*
X165087800Y-162301200I-150000J0D01*
G01*
X163337800Y-162301200D01*
G75*
G02*
X163187800Y-162151200I0J150000D01*
G01*
X163187800Y-161851200D01*
G75*
G02*
X163337800Y-161701200I150000J0D01*
G01*
X165087800Y-161701200D01*
G75*
G02*
X165237800Y-161851200I0J-150000D01*
G01*
G37*
G36*
G01*
X165237800Y-160581200D02*
X165237800Y-160881200D01*
G75*
G02*
X165087800Y-161031200I-150000J0D01*
G01*
X163337800Y-161031200D01*
G75*
G02*
X163187800Y-160881200I0J150000D01*
G01*
X163187800Y-160581200D01*
G75*
G02*
X163337800Y-160431200I150000J0D01*
G01*
X165087800Y-160431200D01*
G75*
G02*
X165237800Y-160581200I0J-150000D01*
G01*
G37*
G36*
G01*
X155937800Y-160581200D02*
X155937800Y-160881200D01*
G75*
G02*
X155787800Y-161031200I-150000J0D01*
G01*
X154037800Y-161031200D01*
G75*
G02*
X153887800Y-160881200I0J150000D01*
G01*
X153887800Y-160581200D01*
G75*
G02*
X154037800Y-160431200I150000J0D01*
G01*
X155787800Y-160431200D01*
G75*
G02*
X155937800Y-160581200I0J-150000D01*
G01*
G37*
G36*
G01*
X155937800Y-161851200D02*
X155937800Y-162151200D01*
G75*
G02*
X155787800Y-162301200I-150000J0D01*
G01*
X154037800Y-162301200D01*
G75*
G02*
X153887800Y-162151200I0J150000D01*
G01*
X153887800Y-161851200D01*
G75*
G02*
X154037800Y-161701200I150000J0D01*
G01*
X155787800Y-161701200D01*
G75*
G02*
X155937800Y-161851200I0J-150000D01*
G01*
G37*
G36*
G01*
X155937800Y-163121200D02*
X155937800Y-163421200D01*
G75*
G02*
X155787800Y-163571200I-150000J0D01*
G01*
X154037800Y-163571200D01*
G75*
G02*
X153887800Y-163421200I0J150000D01*
G01*
X153887800Y-163121200D01*
G75*
G02*
X154037800Y-162971200I150000J0D01*
G01*
X155787800Y-162971200D01*
G75*
G02*
X155937800Y-163121200I0J-150000D01*
G01*
G37*
G36*
G01*
X155937800Y-164391200D02*
X155937800Y-164691200D01*
G75*
G02*
X155787800Y-164841200I-150000J0D01*
G01*
X154037800Y-164841200D01*
G75*
G02*
X153887800Y-164691200I0J150000D01*
G01*
X153887800Y-164391200D01*
G75*
G02*
X154037800Y-164241200I150000J0D01*
G01*
X155787800Y-164241200D01*
G75*
G02*
X155937800Y-164391200I0J-150000D01*
G01*
G37*
G36*
G01*
X155937800Y-165661200D02*
X155937800Y-165961200D01*
G75*
G02*
X155787800Y-166111200I-150000J0D01*
G01*
X154037800Y-166111200D01*
G75*
G02*
X153887800Y-165961200I0J150000D01*
G01*
X153887800Y-165661200D01*
G75*
G02*
X154037800Y-165511200I150000J0D01*
G01*
X155787800Y-165511200D01*
G75*
G02*
X155937800Y-165661200I0J-150000D01*
G01*
G37*
G36*
G01*
X155937800Y-166931200D02*
X155937800Y-167231200D01*
G75*
G02*
X155787800Y-167381200I-150000J0D01*
G01*
X154037800Y-167381200D01*
G75*
G02*
X153887800Y-167231200I0J150000D01*
G01*
X153887800Y-166931200D01*
G75*
G02*
X154037800Y-166781200I150000J0D01*
G01*
X155787800Y-166781200D01*
G75*
G02*
X155937800Y-166931200I0J-150000D01*
G01*
G37*
G36*
G01*
X155937800Y-168201200D02*
X155937800Y-168501200D01*
G75*
G02*
X155787800Y-168651200I-150000J0D01*
G01*
X154037800Y-168651200D01*
G75*
G02*
X153887800Y-168501200I0J150000D01*
G01*
X153887800Y-168201200D01*
G75*
G02*
X154037800Y-168051200I150000J0D01*
G01*
X155787800Y-168051200D01*
G75*
G02*
X155937800Y-168201200I0J-150000D01*
G01*
G37*
G36*
G01*
X155937800Y-169471200D02*
X155937800Y-169771200D01*
G75*
G02*
X155787800Y-169921200I-150000J0D01*
G01*
X154037800Y-169921200D01*
G75*
G02*
X153887800Y-169771200I0J150000D01*
G01*
X153887800Y-169471200D01*
G75*
G02*
X154037800Y-169321200I150000J0D01*
G01*
X155787800Y-169321200D01*
G75*
G02*
X155937800Y-169471200I0J-150000D01*
G01*
G37*
G36*
G01*
X155937800Y-170741200D02*
X155937800Y-171041200D01*
G75*
G02*
X155787800Y-171191200I-150000J0D01*
G01*
X154037800Y-171191200D01*
G75*
G02*
X153887800Y-171041200I0J150000D01*
G01*
X153887800Y-170741200D01*
G75*
G02*
X154037800Y-170591200I150000J0D01*
G01*
X155787800Y-170591200D01*
G75*
G02*
X155937800Y-170741200I0J-150000D01*
G01*
G37*
G36*
G01*
X155937800Y-172011200D02*
X155937800Y-172311200D01*
G75*
G02*
X155787800Y-172461200I-150000J0D01*
G01*
X154037800Y-172461200D01*
G75*
G02*
X153887800Y-172311200I0J150000D01*
G01*
X153887800Y-172011200D01*
G75*
G02*
X154037800Y-171861200I150000J0D01*
G01*
X155787800Y-171861200D01*
G75*
G02*
X155937800Y-172011200I0J-150000D01*
G01*
G37*
G36*
G01*
X155937800Y-173281200D02*
X155937800Y-173581200D01*
G75*
G02*
X155787800Y-173731200I-150000J0D01*
G01*
X154037800Y-173731200D01*
G75*
G02*
X153887800Y-173581200I0J150000D01*
G01*
X153887800Y-173281200D01*
G75*
G02*
X154037800Y-173131200I150000J0D01*
G01*
X155787800Y-173131200D01*
G75*
G02*
X155937800Y-173281200I0J-150000D01*
G01*
G37*
G36*
G01*
X155937800Y-174551200D02*
X155937800Y-174851200D01*
G75*
G02*
X155787800Y-175001200I-150000J0D01*
G01*
X154037800Y-175001200D01*
G75*
G02*
X153887800Y-174851200I0J150000D01*
G01*
X153887800Y-174551200D01*
G75*
G02*
X154037800Y-174401200I150000J0D01*
G01*
X155787800Y-174401200D01*
G75*
G02*
X155937800Y-174551200I0J-150000D01*
G01*
G37*
G36*
G01*
X203601600Y-112722600D02*
X203601600Y-113032600D01*
G75*
G02*
X203446600Y-113187600I-155000J0D01*
G01*
X203021600Y-113187600D01*
G75*
G02*
X202866600Y-113032600I0J155000D01*
G01*
X202866600Y-112722600D01*
G75*
G02*
X203021600Y-112567600I155000J0D01*
G01*
X203446600Y-112567600D01*
G75*
G02*
X203601600Y-112722600I0J-155000D01*
G01*
G37*
G36*
G01*
X202466600Y-112722600D02*
X202466600Y-113032600D01*
G75*
G02*
X202311600Y-113187600I-155000J0D01*
G01*
X201886600Y-113187600D01*
G75*
G02*
X201731600Y-113032600I0J155000D01*
G01*
X201731600Y-112722600D01*
G75*
G02*
X201886600Y-112567600I155000J0D01*
G01*
X202311600Y-112567600D01*
G75*
G02*
X202466600Y-112722600I0J-155000D01*
G01*
G37*
G36*
G01*
X204975600Y-121153600D02*
X204675600Y-121153600D01*
G75*
G02*
X204525600Y-121003600I0J150000D01*
G01*
X204525600Y-119353600D01*
G75*
G02*
X204675600Y-119203600I150000J0D01*
G01*
X204975600Y-119203600D01*
G75*
G02*
X205125600Y-119353600I0J-150000D01*
G01*
X205125600Y-121003600D01*
G75*
G02*
X204975600Y-121153600I-150000J0D01*
G01*
G37*
G36*
G01*
X206245600Y-121153600D02*
X205945600Y-121153600D01*
G75*
G02*
X205795600Y-121003600I0J150000D01*
G01*
X205795600Y-119353600D01*
G75*
G02*
X205945600Y-119203600I150000J0D01*
G01*
X206245600Y-119203600D01*
G75*
G02*
X206395600Y-119353600I0J-150000D01*
G01*
X206395600Y-121003600D01*
G75*
G02*
X206245600Y-121153600I-150000J0D01*
G01*
G37*
G36*
G01*
X207515600Y-121153600D02*
X207215600Y-121153600D01*
G75*
G02*
X207065600Y-121003600I0J150000D01*
G01*
X207065600Y-119353600D01*
G75*
G02*
X207215600Y-119203600I150000J0D01*
G01*
X207515600Y-119203600D01*
G75*
G02*
X207665600Y-119353600I0J-150000D01*
G01*
X207665600Y-121003600D01*
G75*
G02*
X207515600Y-121153600I-150000J0D01*
G01*
G37*
G36*
G01*
X208785600Y-121153600D02*
X208485600Y-121153600D01*
G75*
G02*
X208335600Y-121003600I0J150000D01*
G01*
X208335600Y-119353600D01*
G75*
G02*
X208485600Y-119203600I150000J0D01*
G01*
X208785600Y-119203600D01*
G75*
G02*
X208935600Y-119353600I0J-150000D01*
G01*
X208935600Y-121003600D01*
G75*
G02*
X208785600Y-121153600I-150000J0D01*
G01*
G37*
G36*
G01*
X210055600Y-121153600D02*
X209755600Y-121153600D01*
G75*
G02*
X209605600Y-121003600I0J150000D01*
G01*
X209605600Y-119353600D01*
G75*
G02*
X209755600Y-119203600I150000J0D01*
G01*
X210055600Y-119203600D01*
G75*
G02*
X210205600Y-119353600I0J-150000D01*
G01*
X210205600Y-121003600D01*
G75*
G02*
X210055600Y-121153600I-150000J0D01*
G01*
G37*
G36*
G01*
X211325600Y-121153600D02*
X211025600Y-121153600D01*
G75*
G02*
X210875600Y-121003600I0J150000D01*
G01*
X210875600Y-119353600D01*
G75*
G02*
X211025600Y-119203600I150000J0D01*
G01*
X211325600Y-119203600D01*
G75*
G02*
X211475600Y-119353600I0J-150000D01*
G01*
X211475600Y-121003600D01*
G75*
G02*
X211325600Y-121153600I-150000J0D01*
G01*
G37*
G36*
G01*
X212595600Y-121153600D02*
X212295600Y-121153600D01*
G75*
G02*
X212145600Y-121003600I0J150000D01*
G01*
X212145600Y-119353600D01*
G75*
G02*
X212295600Y-119203600I150000J0D01*
G01*
X212595600Y-119203600D01*
G75*
G02*
X212745600Y-119353600I0J-150000D01*
G01*
X212745600Y-121003600D01*
G75*
G02*
X212595600Y-121153600I-150000J0D01*
G01*
G37*
G36*
G01*
X212595600Y-116203600D02*
X212295600Y-116203600D01*
G75*
G02*
X212145600Y-116053600I0J150000D01*
G01*
X212145600Y-114403600D01*
G75*
G02*
X212295600Y-114253600I150000J0D01*
G01*
X212595600Y-114253600D01*
G75*
G02*
X212745600Y-114403600I0J-150000D01*
G01*
X212745600Y-116053600D01*
G75*
G02*
X212595600Y-116203600I-150000J0D01*
G01*
G37*
G36*
G01*
X211325600Y-116203600D02*
X211025600Y-116203600D01*
G75*
G02*
X210875600Y-116053600I0J150000D01*
G01*
X210875600Y-114403600D01*
G75*
G02*
X211025600Y-114253600I150000J0D01*
G01*
X211325600Y-114253600D01*
G75*
G02*
X211475600Y-114403600I0J-150000D01*
G01*
X211475600Y-116053600D01*
G75*
G02*
X211325600Y-116203600I-150000J0D01*
G01*
G37*
G36*
G01*
X210055600Y-116203600D02*
X209755600Y-116203600D01*
G75*
G02*
X209605600Y-116053600I0J150000D01*
G01*
X209605600Y-114403600D01*
G75*
G02*
X209755600Y-114253600I150000J0D01*
G01*
X210055600Y-114253600D01*
G75*
G02*
X210205600Y-114403600I0J-150000D01*
G01*
X210205600Y-116053600D01*
G75*
G02*
X210055600Y-116203600I-150000J0D01*
G01*
G37*
G36*
G01*
X208785600Y-116203600D02*
X208485600Y-116203600D01*
G75*
G02*
X208335600Y-116053600I0J150000D01*
G01*
X208335600Y-114403600D01*
G75*
G02*
X208485600Y-114253600I150000J0D01*
G01*
X208785600Y-114253600D01*
G75*
G02*
X208935600Y-114403600I0J-150000D01*
G01*
X208935600Y-116053600D01*
G75*
G02*
X208785600Y-116203600I-150000J0D01*
G01*
G37*
G36*
G01*
X207515600Y-116203600D02*
X207215600Y-116203600D01*
G75*
G02*
X207065600Y-116053600I0J150000D01*
G01*
X207065600Y-114403600D01*
G75*
G02*
X207215600Y-114253600I150000J0D01*
G01*
X207515600Y-114253600D01*
G75*
G02*
X207665600Y-114403600I0J-150000D01*
G01*
X207665600Y-116053600D01*
G75*
G02*
X207515600Y-116203600I-150000J0D01*
G01*
G37*
G36*
G01*
X206245600Y-116203600D02*
X205945600Y-116203600D01*
G75*
G02*
X205795600Y-116053600I0J150000D01*
G01*
X205795600Y-114403600D01*
G75*
G02*
X205945600Y-114253600I150000J0D01*
G01*
X206245600Y-114253600D01*
G75*
G02*
X206395600Y-114403600I0J-150000D01*
G01*
X206395600Y-116053600D01*
G75*
G02*
X206245600Y-116203600I-150000J0D01*
G01*
G37*
G36*
G01*
X204975600Y-116203600D02*
X204675600Y-116203600D01*
G75*
G02*
X204525600Y-116053600I0J150000D01*
G01*
X204525600Y-114403600D01*
G75*
G02*
X204675600Y-114253600I150000J0D01*
G01*
X204975600Y-114253600D01*
G75*
G02*
X205125600Y-114403600I0J-150000D01*
G01*
X205125600Y-116053600D01*
G75*
G02*
X204975600Y-116203600I-150000J0D01*
G01*
G37*
G36*
G01*
X183478700Y-94248800D02*
X183478700Y-94098800D01*
G75*
G02*
X183553700Y-94023800I75000J0D01*
G01*
X184853700Y-94023800D01*
G75*
G02*
X184928700Y-94098800I0J-75000D01*
G01*
X184928700Y-94248800D01*
G75*
G02*
X184853700Y-94323800I-75000J0D01*
G01*
X183553700Y-94323800D01*
G75*
G02*
X183478700Y-94248800I0J75000D01*
G01*
G37*
G36*
G01*
X183478700Y-94748800D02*
X183478700Y-94598800D01*
G75*
G02*
X183553700Y-94523800I75000J0D01*
G01*
X184853700Y-94523800D01*
G75*
G02*
X184928700Y-94598800I0J-75000D01*
G01*
X184928700Y-94748800D01*
G75*
G02*
X184853700Y-94823800I-75000J0D01*
G01*
X183553700Y-94823800D01*
G75*
G02*
X183478700Y-94748800I0J75000D01*
G01*
G37*
G36*
G01*
X183478700Y-95248800D02*
X183478700Y-95098800D01*
G75*
G02*
X183553700Y-95023800I75000J0D01*
G01*
X184853700Y-95023800D01*
G75*
G02*
X184928700Y-95098800I0J-75000D01*
G01*
X184928700Y-95248800D01*
G75*
G02*
X184853700Y-95323800I-75000J0D01*
G01*
X183553700Y-95323800D01*
G75*
G02*
X183478700Y-95248800I0J75000D01*
G01*
G37*
G36*
G01*
X183478700Y-95748800D02*
X183478700Y-95598800D01*
G75*
G02*
X183553700Y-95523800I75000J0D01*
G01*
X184853700Y-95523800D01*
G75*
G02*
X184928700Y-95598800I0J-75000D01*
G01*
X184928700Y-95748800D01*
G75*
G02*
X184853700Y-95823800I-75000J0D01*
G01*
X183553700Y-95823800D01*
G75*
G02*
X183478700Y-95748800I0J75000D01*
G01*
G37*
G36*
G01*
X183478700Y-96248800D02*
X183478700Y-96098800D01*
G75*
G02*
X183553700Y-96023800I75000J0D01*
G01*
X184853700Y-96023800D01*
G75*
G02*
X184928700Y-96098800I0J-75000D01*
G01*
X184928700Y-96248800D01*
G75*
G02*
X184853700Y-96323800I-75000J0D01*
G01*
X183553700Y-96323800D01*
G75*
G02*
X183478700Y-96248800I0J75000D01*
G01*
G37*
G36*
G01*
X179078700Y-96248800D02*
X179078700Y-96098800D01*
G75*
G02*
X179153700Y-96023800I75000J0D01*
G01*
X180453700Y-96023800D01*
G75*
G02*
X180528700Y-96098800I0J-75000D01*
G01*
X180528700Y-96248800D01*
G75*
G02*
X180453700Y-96323800I-75000J0D01*
G01*
X179153700Y-96323800D01*
G75*
G02*
X179078700Y-96248800I0J75000D01*
G01*
G37*
G36*
G01*
X179078700Y-95748800D02*
X179078700Y-95598800D01*
G75*
G02*
X179153700Y-95523800I75000J0D01*
G01*
X180453700Y-95523800D01*
G75*
G02*
X180528700Y-95598800I0J-75000D01*
G01*
X180528700Y-95748800D01*
G75*
G02*
X180453700Y-95823800I-75000J0D01*
G01*
X179153700Y-95823800D01*
G75*
G02*
X179078700Y-95748800I0J75000D01*
G01*
G37*
G36*
G01*
X179078700Y-95248800D02*
X179078700Y-95098800D01*
G75*
G02*
X179153700Y-95023800I75000J0D01*
G01*
X180453700Y-95023800D01*
G75*
G02*
X180528700Y-95098800I0J-75000D01*
G01*
X180528700Y-95248800D01*
G75*
G02*
X180453700Y-95323800I-75000J0D01*
G01*
X179153700Y-95323800D01*
G75*
G02*
X179078700Y-95248800I0J75000D01*
G01*
G37*
G36*
G01*
X179078700Y-94748800D02*
X179078700Y-94598800D01*
G75*
G02*
X179153700Y-94523800I75000J0D01*
G01*
X180453700Y-94523800D01*
G75*
G02*
X180528700Y-94598800I0J-75000D01*
G01*
X180528700Y-94748800D01*
G75*
G02*
X180453700Y-94823800I-75000J0D01*
G01*
X179153700Y-94823800D01*
G75*
G02*
X179078700Y-94748800I0J75000D01*
G01*
G37*
G36*
G01*
X179078700Y-94248800D02*
X179078700Y-94098800D01*
G75*
G02*
X179153700Y-94023800I75000J0D01*
G01*
X180453700Y-94023800D01*
G75*
G02*
X180528700Y-94098800I0J-75000D01*
G01*
X180528700Y-94248800D01*
G75*
G02*
X180453700Y-94323800I-75000J0D01*
G01*
X179153700Y-94323800D01*
G75*
G02*
X179078700Y-94248800I0J75000D01*
G01*
G37*
G36*
G01*
X165692900Y-94500401D02*
X165692900Y-94350401D01*
G75*
G02*
X165767900Y-94275401I75000J0D01*
G01*
X167067900Y-94275401D01*
G75*
G02*
X167142900Y-94350401I0J-75000D01*
G01*
X167142900Y-94500401D01*
G75*
G02*
X167067900Y-94575401I-75000J0D01*
G01*
X165767900Y-94575401D01*
G75*
G02*
X165692900Y-94500401I0J75000D01*
G01*
G37*
G36*
G01*
X165692900Y-95000401D02*
X165692900Y-94850401D01*
G75*
G02*
X165767900Y-94775401I75000J0D01*
G01*
X167067900Y-94775401D01*
G75*
G02*
X167142900Y-94850401I0J-75000D01*
G01*
X167142900Y-95000401D01*
G75*
G02*
X167067900Y-95075401I-75000J0D01*
G01*
X165767900Y-95075401D01*
G75*
G02*
X165692900Y-95000401I0J75000D01*
G01*
G37*
G36*
G01*
X165692900Y-95500401D02*
X165692900Y-95350401D01*
G75*
G02*
X165767900Y-95275401I75000J0D01*
G01*
X167067900Y-95275401D01*
G75*
G02*
X167142900Y-95350401I0J-75000D01*
G01*
X167142900Y-95500401D01*
G75*
G02*
X167067900Y-95575401I-75000J0D01*
G01*
X165767900Y-95575401D01*
G75*
G02*
X165692900Y-95500401I0J75000D01*
G01*
G37*
G36*
G01*
X165692900Y-96000401D02*
X165692900Y-95850401D01*
G75*
G02*
X165767900Y-95775401I75000J0D01*
G01*
X167067900Y-95775401D01*
G75*
G02*
X167142900Y-95850401I0J-75000D01*
G01*
X167142900Y-96000401D01*
G75*
G02*
X167067900Y-96075401I-75000J0D01*
G01*
X165767900Y-96075401D01*
G75*
G02*
X165692900Y-96000401I0J75000D01*
G01*
G37*
G36*
G01*
X165692900Y-96500401D02*
X165692900Y-96350401D01*
G75*
G02*
X165767900Y-96275401I75000J0D01*
G01*
X167067900Y-96275401D01*
G75*
G02*
X167142900Y-96350401I0J-75000D01*
G01*
X167142900Y-96500401D01*
G75*
G02*
X167067900Y-96575401I-75000J0D01*
G01*
X165767900Y-96575401D01*
G75*
G02*
X165692900Y-96500401I0J75000D01*
G01*
G37*
G36*
G01*
X170092900Y-96500401D02*
X170092900Y-96350401D01*
G75*
G02*
X170167900Y-96275401I75000J0D01*
G01*
X171467900Y-96275401D01*
G75*
G02*
X171542900Y-96350401I0J-75000D01*
G01*
X171542900Y-96500401D01*
G75*
G02*
X171467900Y-96575401I-75000J0D01*
G01*
X170167900Y-96575401D01*
G75*
G02*
X170092900Y-96500401I0J75000D01*
G01*
G37*
G36*
G01*
X170092900Y-96000401D02*
X170092900Y-95850401D01*
G75*
G02*
X170167900Y-95775401I75000J0D01*
G01*
X171467900Y-95775401D01*
G75*
G02*
X171542900Y-95850401I0J-75000D01*
G01*
X171542900Y-96000401D01*
G75*
G02*
X171467900Y-96075401I-75000J0D01*
G01*
X170167900Y-96075401D01*
G75*
G02*
X170092900Y-96000401I0J75000D01*
G01*
G37*
G36*
G01*
X170092900Y-95500401D02*
X170092900Y-95350401D01*
G75*
G02*
X170167900Y-95275401I75000J0D01*
G01*
X171467900Y-95275401D01*
G75*
G02*
X171542900Y-95350401I0J-75000D01*
G01*
X171542900Y-95500401D01*
G75*
G02*
X171467900Y-95575401I-75000J0D01*
G01*
X170167900Y-95575401D01*
G75*
G02*
X170092900Y-95500401I0J75000D01*
G01*
G37*
G36*
G01*
X170092900Y-95000401D02*
X170092900Y-94850401D01*
G75*
G02*
X170167900Y-94775401I75000J0D01*
G01*
X171467900Y-94775401D01*
G75*
G02*
X171542900Y-94850401I0J-75000D01*
G01*
X171542900Y-95000401D01*
G75*
G02*
X171467900Y-95075401I-75000J0D01*
G01*
X170167900Y-95075401D01*
G75*
G02*
X170092900Y-95000401I0J75000D01*
G01*
G37*
G36*
G01*
X170092900Y-94500401D02*
X170092900Y-94350401D01*
G75*
G02*
X170167900Y-94275401I75000J0D01*
G01*
X171467900Y-94275401D01*
G75*
G02*
X171542900Y-94350401I0J-75000D01*
G01*
X171542900Y-94500401D01*
G75*
G02*
X171467900Y-94575401I-75000J0D01*
G01*
X170167900Y-94575401D01*
G75*
G02*
X170092900Y-94500401I0J75000D01*
G01*
G37*
M02*
