M48
; DRILL file {KiCad (5.1.9)-1} date 06/08/21 08:06:04
; FORMAT={-:-/ absolute / metric / decimal}
; #@! TF.CreationDate,2021-06-08T08:06:04+01:00
; #@! TF.GenerationSoftware,Kicad,Pcbnew,(5.1.9)-1
; #@! TF.FileFunction,Plated,1,4,PTH
FMAT,2
METRIC
T1C0.330
T2C0.500
T3C0.600
T4C0.650
T5C0.900
T6C1.000
T7C3.000
%
G90
G05
T1
X71.907Y-115.189
X72.352Y-129.54
X72.352Y-130.619
X72.352Y-131.636
X77.178Y-106.426
X77.178Y-107.95
X77.178Y-109.728
X78.194Y-119.126
X79.197Y-121.323
X80.01Y-106.426
X80.34Y-128.969
X80.467Y-123.736
X80.467Y-125.006
X80.543Y-114.363
X80.721Y-121.196
X80.848Y-119.799
X80.886Y-131.496
X80.975Y-124.371
X82.042Y-147.955
X82.677Y-190.627
X86.944Y-117.767
X90.805Y-110.744
X91.948Y-194.31
X92.685Y-152.73
X99.187Y-128.016
X111.125Y-127.889
X115.189Y-121.92
X115.252Y-120.523
X121.12Y-114.122
X122.467Y-116.752
X124.117Y-114.884
X129.515Y-83.757
X130.556Y-115.062
X130.81Y-112.268
X132.232Y-89.065
X132.461Y-110.236
X133.858Y-194.31
X133.985Y-152.4
X134.849Y-93.104
X134.899Y-133.604
X134.899Y-136.779
X134.945Y-99.723
X137.338Y-93.129
X140.005Y-93.231
X142.568Y-93.231
X143.891Y-209.296
X145.059Y-93.205
X147.447Y-131.928
X147.549Y-93.129
X148.425Y-133.858
X148.425Y-135.001
X150.012Y-89.09
X150.495Y-144.272
X150.495Y-145.542
X150.597Y-175.006
X151.282Y-127.8
X151.384Y-132.245
X152.298Y-157.556
X152.502Y-132.27
X152.539Y-134.886
X152.603Y-137.096
X152.654Y-172.148
X152.696Y-175.15
X152.756Y-83.757
X152.844Y-173.418
X154.826Y-123.698
X155.727Y-179.756
X155.905Y-135.992
X156.096Y-123.698
X156.235Y-137.414
X156.54Y-169.621
X156.743Y-168.351
X157.321Y-127.032
X157.366Y-123.698
X157.803Y-128.455
X158.242Y-131.445
X158.471Y-139.967
X158.521Y-148.082
X158.801Y-180.797
X159.029Y-157.531
X159.042Y-122.479
X159.156Y-131.42
X159.168Y-143.649
X159.168Y-144.97
X159.41Y-137.414
X159.448Y-126.454
X159.47Y-139.884
X159.791Y-148.018
X160.147Y-131.699
X160.401Y-139.255
X160.553Y-191.948
X160.579Y-199.06
X160.604Y-189.281
X160.655Y-197.561
X160.96Y-131.699
X161.163Y-138.303
X161.366Y-180.848
X161.569Y-148.031
X161.963Y-160.731
X162.281Y-162.077
X162.382Y-163.347
X162.687Y-144.907
X162.839Y-148.031
X164.109Y-137.363
X164.236Y-148.057
X164.541Y-179.781
X164.935Y-95.402
X165.646Y-148.057
X165.671Y-129.794
X166.218Y-129.032
X166.967Y-90.856
X167.284Y-136.779
X167.322Y-131.445
X167.576Y-133.032
X167.729Y-93.929
X167.767Y-100.838
X168.313Y-90.83
X168.402Y-133.794
X168.529Y-128.016
X168.58Y-129.134
X169.418Y-95.098
X169.481Y-94.183
X169.926Y-127.635
X170.683Y-137.409
X170.688Y-136.144
X171.45Y-127.0
X172.403Y-94.132
X172.514Y-95.425
X172.822Y-130.658
X172.822Y-133.731
X173.736Y-97.853
X174.003Y-94.831
X175.704Y-110.617
X175.895Y-152.4
X175.895Y-194.31
X178.321Y-95.174
X179.718Y-90.272
X181.115Y-90.272
X181.115Y-93.675
X181.356Y-96.774
X182.639Y-93.942
X182.778Y-94.92
X185.687Y-95.174
X186.69Y-209.296
X187.82Y-91.846
X192.151Y-112.014
X192.151Y-112.827
X192.405Y-125.92
X192.976Y-116.459
X193.802Y-112.776
X195.453Y-112.649
X201.016Y-112.878
X201.447Y-92.646
X201.778Y-109.703
X202.286Y-127.102
X204.508Y-113.322
X206.096Y-124.562
X206.79Y-108.5
X207.366Y-128.753
X211.176Y-126.213
X212.065Y-109.703
X212.446Y-118.339
X217.106Y-110.49
X217.678Y-152.527
X217.678Y-194.564
X224.663Y-89.725
X225.552Y-90.742
X226.936Y-92.456
X235.839Y-106.68
X235.966Y-189.484
X236.093Y-148.082
X237.744Y-219.71
T2
X71.43Y-97.65
X71.43Y-225.73
X72.089Y-96.059
X72.089Y-99.241
X72.089Y-224.139
X72.089Y-227.321
X73.68Y-95.4
X73.68Y-99.9
X73.68Y-223.48
X73.68Y-227.98
X75.271Y-96.059
X75.271Y-99.241
X75.271Y-224.139
X75.271Y-227.321
X75.93Y-97.65
X75.93Y-225.73
X156.48Y-97.65
X156.48Y-225.73
X157.139Y-96.059
X157.139Y-99.241
X157.139Y-224.139
X157.139Y-227.321
X158.73Y-95.4
X158.73Y-99.9
X158.73Y-223.48
X158.73Y-227.98
X160.321Y-96.059
X160.321Y-99.241
X160.321Y-224.139
X160.321Y-227.321
X160.98Y-97.65
X160.98Y-225.73
X241.53Y-97.65
X241.53Y-225.73
X242.189Y-96.059
X242.189Y-99.241
X242.189Y-224.139
X242.189Y-227.321
X243.78Y-95.4
X243.78Y-99.9
X243.78Y-223.48
X243.78Y-227.98
X245.371Y-96.059
X245.371Y-99.241
X245.371Y-224.139
X245.371Y-227.321
X246.03Y-97.65
X246.03Y-225.73
T5
X94.453Y-119.69
X94.453Y-161.69
X94.453Y-203.69
X96.993Y-119.69
X96.993Y-161.69
X96.993Y-203.69
X136.453Y-119.69
X136.453Y-161.69
X136.453Y-203.69
X138.993Y-119.69
X138.993Y-161.69
X138.993Y-203.69
X178.453Y-119.69
X178.453Y-161.69
X178.453Y-203.69
X180.993Y-119.69
X180.993Y-161.69
X180.993Y-203.69
X220.453Y-119.69
X220.453Y-161.69
X220.453Y-203.69
X222.993Y-119.69
X222.993Y-161.69
X222.993Y-203.69
T6
X110.655Y-112.204
X110.744Y-116.522
X113.195Y-112.204
X113.284Y-116.522
X132.232Y-83.782
X132.232Y-86.322
X134.772Y-83.782
X134.772Y-86.322
X137.312Y-83.782
X137.312Y-86.322
X139.852Y-83.782
X139.852Y-86.322
X142.392Y-83.782
X142.392Y-86.322
X144.932Y-83.782
X144.932Y-86.322
X147.472Y-83.782
X147.472Y-86.322
X150.012Y-83.782
X150.012Y-86.322
X159.309Y-190.652
X159.309Y-193.192
X159.309Y-195.732
X159.309Y-198.272
X161.849Y-190.652
X161.849Y-193.192
X161.849Y-195.732
X161.849Y-198.272
X167.411Y-83.782
X167.411Y-86.322
X169.951Y-83.782
X169.951Y-86.322
X172.491Y-83.782
X172.491Y-86.322
X173.355Y-128.27
X175.031Y-83.782
X175.031Y-86.322
X175.895Y-128.27
X177.571Y-83.782
X177.571Y-86.322
X178.435Y-128.27
X180.111Y-83.782
X180.111Y-86.322
X182.651Y-83.782
X182.651Y-86.322
X187.325Y-124.206
X187.897Y-118.3
X189.865Y-124.206
X190.436Y-118.3
X190.564Y-87.757
X190.564Y-90.297
X192.405Y-124.206
X192.976Y-118.3
X196.913Y-83.757
X199.453Y-83.757
X201.993Y-83.757
X204.534Y-83.757
X207.073Y-83.757
X209.613Y-83.757
X212.153Y-83.757
X214.694Y-83.757
X220.853Y-82.867
X220.853Y-85.407
X220.853Y-87.947
X229.108Y-83.757
X229.108Y-86.296
X231.648Y-83.757
X231.648Y-86.296
X234.188Y-83.757
X234.188Y-86.296
X236.728Y-83.757
X236.728Y-86.296
X239.268Y-83.757
X239.268Y-86.296
X241.808Y-83.757
X241.808Y-86.296
T7
X73.68Y-97.65
X73.68Y-225.73
X158.73Y-97.65
X158.73Y-225.73
X243.78Y-97.65
X243.78Y-225.73
T3
X70.592Y-126.419G85X71.292Y-126.419
G05
X70.592Y-134.769G85X71.292Y-134.769
G05
T4
X73.842Y-128.369G85X74.042Y-128.369
G05
X73.842Y-132.819G85X74.042Y-132.819
G05
T0
M30
