%FSLAX45Y45*%
G04 Gerber Fmt 4.5, Leading zero omitted, Abs format (unit mm)*
G04 Created by KiCad (PCBNEW (5.1.9)-1) date 2021-06-08 08:10:25*
%MOMM*%
%LPD*%
G01*
G04 APERTURE LIST*
%TA.AperFunction,Profile*%
%ADD10C,0.038100*%
%TD*%
%TA.AperFunction,Profile*%
%ADD11C,0.050000*%
%TD*%
%ADD12C,0.200000*%
%ADD13C,0.300000*%
G04 APERTURE END LIST*
D10*
X5991860Y-19474180D02*
G75*
G03*
X6245860Y-19728180I254000J0D01*
G01*
X23563580Y-19728180D02*
G75*
G03*
X23820120Y-19471640I0J256540D01*
G01*
X23820079Y-4409320D02*
G75*
G03*
X23563580Y-4160520I-253959J-5200D01*
G01*
X6248520Y-4163074D02*
G75*
G03*
X5991860Y-4417060I-2660J-253986D01*
G01*
D11*
X5991860Y-10232390D02*
X5991860Y-19474180D01*
D10*
X5991860Y-10232390D02*
X5991640Y-10230200D01*
D11*
X5991640Y-9480200D02*
X5991860Y-4417060D01*
X23563580Y-19728180D02*
X6245860Y-19728180D01*
X23820079Y-4409320D02*
X23820133Y-19471640D01*
X6248520Y-4163074D02*
X23563580Y-4160520D01*
D12*
X6216650Y-8298180D02*
X6249670Y-8331200D01*
X6249670Y-8298180D02*
X6216650Y-8331200D01*
X6261100Y-9733280D02*
X6294120Y-9766300D01*
X6294120Y-9733280D02*
X6261100Y-9766300D01*
X6261100Y-9841230D02*
X6294120Y-9874250D01*
X6294120Y-9841230D02*
X6261100Y-9874250D01*
X6261100Y-9942830D02*
X6294120Y-9975850D01*
X6294120Y-9942830D02*
X6261100Y-9975850D01*
X6743700Y-7421880D02*
X6776720Y-7454900D01*
X6776720Y-7421880D02*
X6743700Y-7454900D01*
X6743700Y-7574280D02*
X6776720Y-7607300D01*
X6776720Y-7574280D02*
X6743700Y-7607300D01*
X6743700Y-7752080D02*
X6776720Y-7785100D01*
X6776720Y-7752080D02*
X6743700Y-7785100D01*
X6845300Y-8691880D02*
X6878320Y-8724900D01*
X6878320Y-8691880D02*
X6845300Y-8724900D01*
X6945630Y-8911590D02*
X6978650Y-8944610D01*
X6978650Y-8911590D02*
X6945630Y-8944610D01*
X7072630Y-9152890D02*
X7105650Y-9185910D01*
X7105650Y-9152890D02*
X7072630Y-9185910D01*
X7072630Y-9279890D02*
X7105650Y-9312910D01*
X7105650Y-9279890D02*
X7072630Y-9312910D01*
X7080250Y-8215630D02*
X7113270Y-8248650D01*
X7113270Y-8215630D02*
X7080250Y-8248650D01*
X7098030Y-8898890D02*
X7131050Y-8931910D01*
X7131050Y-8898890D02*
X7098030Y-8931910D01*
X7110730Y-8759190D02*
X7143750Y-8792210D01*
X7143750Y-8759190D02*
X7110730Y-8792210D01*
X7123430Y-9216390D02*
X7156450Y-9249410D01*
X7156450Y-9216390D02*
X7123430Y-9249410D01*
X7720330Y-8555990D02*
X7753350Y-8589010D01*
X7753350Y-8555990D02*
X7720330Y-8589010D01*
X7814818Y-13101066D02*
X7847838Y-13134086D01*
X7847838Y-13101066D02*
X7814818Y-13134086D01*
X7815834Y-11322050D02*
X7848854Y-11355070D01*
X7848854Y-11322050D02*
X7815834Y-11355070D01*
X7817866Y-12338050D02*
X7850886Y-12371070D01*
X7850886Y-12338050D02*
X7817866Y-12371070D01*
X7818374Y-12592050D02*
X7851394Y-12625070D01*
X7851394Y-12592050D02*
X7818374Y-12625070D01*
X7818628Y-11064240D02*
X7851648Y-11097260D01*
X7851648Y-11064240D02*
X7818628Y-11097260D01*
X7818882Y-12849098D02*
X7851902Y-12882118D01*
X7851902Y-12849098D02*
X7818882Y-12882118D01*
X7819898Y-11832590D02*
X7852918Y-11865610D01*
X7852918Y-11832590D02*
X7819898Y-11865610D01*
X7820406Y-12085066D02*
X7853426Y-12118086D01*
X7853426Y-12085066D02*
X7820406Y-12118086D01*
X8171180Y-5377180D02*
X8204200Y-5410200D01*
X8204200Y-5377180D02*
X8171180Y-5410200D01*
X8200390Y-16659860D02*
X8233410Y-16692880D01*
X8233410Y-16659860D02*
X8200390Y-16692880D01*
X8200390Y-16799560D02*
X8233410Y-16832580D01*
X8233410Y-16799560D02*
X8200390Y-16832580D01*
X8221980Y-11557000D02*
X8255000Y-11590020D01*
X8255000Y-11557000D02*
X8221980Y-11590020D01*
X8233410Y-17860010D02*
X8266430Y-17893030D01*
X8266430Y-17860010D02*
X8233410Y-17893030D01*
X8238490Y-17722850D02*
X8271510Y-17755870D01*
X8271510Y-17722850D02*
X8238490Y-17755870D01*
X8477250Y-5299710D02*
X8510270Y-5332730D01*
X8510270Y-5299710D02*
X8477250Y-5332730D01*
X8536940Y-10754360D02*
X8569960Y-10787380D01*
X8569960Y-10754360D02*
X8536940Y-10787380D01*
X8540750Y-16659860D02*
X8573770Y-16692880D01*
X8573770Y-16659860D02*
X8540750Y-16692880D01*
X8540750Y-16948150D02*
X8573770Y-16981170D01*
X8573770Y-16948150D02*
X8540750Y-16981170D01*
X8558530Y-17725390D02*
X8591550Y-17758410D01*
X8591550Y-17725390D02*
X8558530Y-17758410D01*
X8568690Y-5344160D02*
X8601710Y-5377180D01*
X8601710Y-5344160D02*
X8568690Y-5377180D01*
X8568690Y-17260570D02*
X8601710Y-17293590D01*
X8601710Y-17260570D02*
X8568690Y-17293590D01*
X8578850Y-11786870D02*
X8611870Y-11819890D01*
X8611870Y-11786870D02*
X8578850Y-11819890D01*
X8583930Y-17993360D02*
X8616950Y-18026380D01*
X8616950Y-17993360D02*
X8583930Y-18026380D01*
X8589010Y-16501110D02*
X8622030Y-16534130D01*
X8622030Y-16501110D02*
X8589010Y-16534130D01*
X8589010Y-17565370D02*
X8622030Y-17598390D01*
X8622030Y-17565370D02*
X8589010Y-17598390D01*
X8599170Y-13114020D02*
X8632190Y-13147040D01*
X8632190Y-13114020D02*
X8599170Y-13147040D01*
X8619490Y-5491480D02*
X8652510Y-5524500D01*
X8652510Y-5491480D02*
X8619490Y-5524500D01*
X8637270Y-13876020D02*
X8670290Y-13909040D01*
X8670290Y-13876020D02*
X8637270Y-13909040D01*
X8643874Y-10870438D02*
X8676894Y-10903458D01*
X8676894Y-10870438D02*
X8643874Y-10903458D01*
X8662670Y-12494260D02*
X8695690Y-12527280D01*
X8695690Y-12494260D02*
X8662670Y-12527280D01*
X8669020Y-10144760D02*
X8702040Y-10177780D01*
X8702040Y-10144760D02*
X8669020Y-10177780D01*
X8670290Y-17166590D02*
X8703310Y-17199610D01*
X8703310Y-17166590D02*
X8670290Y-17199610D01*
X8675370Y-16490950D02*
X8708390Y-16523970D01*
X8708390Y-16490950D02*
X8675370Y-16523970D01*
X8675702Y-17564670D02*
X8708722Y-17597690D01*
X8708722Y-17564670D02*
X8675702Y-17597690D01*
X8680450Y-5332730D02*
X8713470Y-5365750D01*
X8713470Y-5332730D02*
X8680450Y-5365750D01*
X8690610Y-16202660D02*
X8723630Y-16235680D01*
X8723630Y-16202660D02*
X8690610Y-16235680D01*
X8729980Y-11450320D02*
X8763000Y-11483340D01*
X8763000Y-11450320D02*
X8729980Y-11483340D01*
X8731805Y-17258585D02*
X8764825Y-17291605D01*
X8764825Y-17258585D02*
X8731805Y-17291605D01*
X8792210Y-10870438D02*
X8825230Y-10903458D01*
X8825230Y-10870438D02*
X8792210Y-10903458D01*
X8856980Y-13242290D02*
X8890000Y-13275310D01*
X8890000Y-13242290D02*
X8856980Y-13275310D01*
X8952738Y-10734802D02*
X8985758Y-10767822D01*
X8985758Y-10734802D02*
X8952738Y-10767822D01*
X8978900Y-13107670D02*
X9011920Y-13140690D01*
X9011920Y-13107670D02*
X8978900Y-13140690D01*
X9036050Y-9917430D02*
X9069070Y-9950450D01*
X9069070Y-9917430D02*
X9036050Y-9950450D01*
X9043670Y-12240260D02*
X9076690Y-12273280D01*
X9076690Y-12240260D02*
X9043670Y-12273280D01*
X9052560Y-17191990D02*
X9085580Y-17225010D01*
X9085580Y-17191990D02*
X9052560Y-17225010D01*
X9060180Y-17466310D02*
X9093200Y-17499330D01*
X9093200Y-17466310D02*
X9060180Y-17499330D01*
X9067800Y-16191230D02*
X9100820Y-16224250D01*
X9100820Y-16191230D02*
X9067800Y-16224250D01*
X9072880Y-5283200D02*
X9105900Y-5316220D01*
X9105900Y-5283200D02*
X9072880Y-5316220D01*
X9073642Y-10881614D02*
X9106662Y-10914634D01*
X9106662Y-10881614D02*
X9073642Y-10914634D01*
X9101220Y-11674710D02*
X9134240Y-11707730D01*
X9134240Y-11674710D02*
X9101220Y-11707730D01*
X9156700Y-10297160D02*
X9189720Y-10330180D01*
X9189720Y-10297160D02*
X9156700Y-10330180D01*
X9163050Y-13261340D02*
X9196070Y-13294360D01*
X9196070Y-13261340D02*
X9163050Y-13294360D01*
X9164720Y-13996270D02*
X9197740Y-14029290D01*
X9197740Y-13996270D02*
X9164720Y-14029290D01*
X9170670Y-12659360D02*
X9203690Y-12692380D01*
X9203690Y-12659360D02*
X9170670Y-12692380D01*
X9236202Y-10723626D02*
X9269222Y-10756646D01*
X9269222Y-10723626D02*
X9236202Y-10756646D01*
X9267190Y-13091160D02*
X9300210Y-13124180D01*
X9300210Y-13091160D02*
X9267190Y-13124180D01*
X9392920Y-13615670D02*
X9425940Y-13648690D01*
X9425940Y-13615670D02*
X9392920Y-13648690D01*
X9518650Y-10601960D02*
X9551670Y-10634980D01*
X9551670Y-10601960D02*
X9518650Y-10634980D01*
X9537700Y-10043160D02*
X9570720Y-10076180D01*
X9570720Y-10043160D02*
X9537700Y-10076180D01*
X9551670Y-12405360D02*
X9584690Y-12438380D01*
X9584690Y-12405360D02*
X9551670Y-12438380D01*
X9602470Y-11554460D02*
X9635490Y-11587480D01*
X9635490Y-11554460D02*
X9602470Y-11587480D01*
X9620250Y-10821162D02*
X9653270Y-10854182D01*
X9653270Y-10821162D02*
X9620250Y-10854182D01*
X9665970Y-13876020D02*
X9698990Y-13909040D01*
X9698990Y-13876020D02*
X9665970Y-13909040D01*
X9742170Y-13660120D02*
X9775190Y-13693140D01*
X9775190Y-13660120D02*
X9742170Y-13693140D01*
X10885170Y-12179300D02*
X10918190Y-12212320D01*
X10918190Y-12179300D02*
X10885170Y-12212320D01*
X11095990Y-12586970D02*
X11129010Y-12619990D01*
X11129010Y-12586970D02*
X11095990Y-12619990D01*
X11109960Y-9991090D02*
X11142980Y-10024110D01*
X11142980Y-9991090D02*
X11109960Y-10024110D01*
X11182350Y-12575540D02*
X11215370Y-12608560D01*
X11215370Y-12575540D02*
X11182350Y-12608560D01*
X11219180Y-9998710D02*
X11252200Y-10031730D01*
X11252200Y-9998710D02*
X11219180Y-10031730D01*
X11272520Y-12567920D02*
X11305540Y-12600940D01*
X11305540Y-12567920D02*
X11272520Y-12600940D01*
X11360150Y-12564110D02*
X11393170Y-12597130D01*
X11393170Y-12564110D02*
X11360150Y-12597130D01*
X11911330Y-12618720D02*
X11944350Y-12651740D01*
X11944350Y-12618720D02*
X11911330Y-12651740D01*
X12061190Y-12807950D02*
X12094210Y-12840970D01*
X12094210Y-12807950D02*
X12061190Y-12840970D01*
X12199620Y-12158980D02*
X12232640Y-12192000D01*
X12232640Y-12158980D02*
X12199620Y-12192000D01*
X12280138Y-11624818D02*
X12313158Y-11657838D01*
X12313158Y-11624818D02*
X12280138Y-11657838D01*
X12297410Y-12313920D02*
X12330430Y-12346940D01*
X12330430Y-12313920D02*
X12297410Y-12346940D01*
X12297926Y-12187436D02*
X12330946Y-12220456D01*
X12330946Y-12187436D02*
X12297926Y-12220456D01*
X12353290Y-11678158D02*
X12386310Y-11711178D01*
X12386310Y-11678158D02*
X12353290Y-11711178D01*
X12608560Y-12625070D02*
X12641580Y-12658090D01*
X12641580Y-12625070D02*
X12608560Y-12658090D01*
X12622530Y-11540490D02*
X12655550Y-11573510D01*
X12655550Y-11540490D02*
X12622530Y-11573510D01*
X12637770Y-12250420D02*
X12670790Y-12283440D01*
X12670790Y-12250420D02*
X12637770Y-12283440D01*
X12803886Y-11514074D02*
X12836906Y-11547094D01*
X12836906Y-11514074D02*
X12803886Y-11547094D01*
X12834619Y-11013440D02*
X12867639Y-11046460D01*
X12867639Y-11013440D02*
X12834619Y-11046460D01*
X12955270Y-12192000D02*
X12988290Y-12225020D01*
X12988290Y-12192000D02*
X12955270Y-12225020D01*
X12961366Y-12084050D02*
X12994386Y-12117070D01*
X12994386Y-12084050D02*
X12961366Y-12117070D01*
X12965430Y-12289282D02*
X12998450Y-12322302D01*
X12998450Y-12289282D02*
X12965430Y-12322302D01*
X12975590Y-11013440D02*
X13008610Y-11046460D01*
X13008610Y-11013440D02*
X12975590Y-11046460D01*
X13216890Y-11158220D02*
X13249910Y-11191240D01*
X13249910Y-11158220D02*
X13216890Y-11191240D01*
X13276580Y-12810490D02*
X13309600Y-12843510D01*
X13309600Y-12810490D02*
X13276580Y-12843510D01*
X13343890Y-11158220D02*
X13376910Y-11191240D01*
X13376910Y-11158220D02*
X13343890Y-11191240D01*
X13357860Y-12712700D02*
X13390880Y-12745720D01*
X13390880Y-12712700D02*
X13357860Y-12745720D01*
X13387070Y-12613640D02*
X13420090Y-12646660D01*
X13420090Y-12613640D02*
X13387070Y-12646660D01*
X13401040Y-11507470D02*
X13434060Y-11540490D01*
X13434060Y-11507470D02*
X13401040Y-11540490D01*
X13409930Y-12793980D02*
X13442950Y-12827000D01*
X13442950Y-12793980D02*
X13409930Y-12827000D01*
X13419192Y-11939913D02*
X13452212Y-11972933D01*
X13452212Y-11939913D02*
X13419192Y-11972933D01*
X13421360Y-13282928D02*
X13454380Y-13315948D01*
X13454380Y-13282928D02*
X13421360Y-13315948D01*
X13462000Y-13680440D02*
X13495020Y-13713460D01*
X13495020Y-13680440D02*
X13462000Y-13713460D01*
X13464540Y-11160760D02*
X13497560Y-11193780D01*
X13497560Y-11160760D02*
X13464540Y-11193780D01*
X13498830Y-12788900D02*
X13531850Y-12821920D01*
X13531850Y-12788900D02*
X13498830Y-12821920D01*
X13503910Y-12510770D02*
X13536930Y-12543790D01*
X13536930Y-12510770D02*
X13503910Y-12543790D01*
X13506450Y-11946890D02*
X13539470Y-11979910D01*
X13539470Y-11946890D02*
X13506450Y-11979910D01*
X13526770Y-11631930D02*
X13559790Y-11664950D01*
X13559790Y-11631930D02*
X13526770Y-11664950D01*
X13526840Y-11465630D02*
X13559860Y-11498650D01*
X13559860Y-11465630D02*
X13526840Y-11498650D01*
X13591540Y-11154410D02*
X13624560Y-11187430D01*
X13624560Y-11154410D02*
X13591540Y-11187430D01*
X13629640Y-13558520D02*
X13662660Y-13591540D01*
X13662660Y-13558520D02*
X13629640Y-13591540D01*
X13632180Y-10168890D02*
X13665200Y-10201910D01*
X13665200Y-10168890D02*
X13632180Y-10201910D01*
X13634085Y-13225145D02*
X13667105Y-13258165D01*
X13667105Y-13225145D02*
X13634085Y-13258165D01*
X13756640Y-12666980D02*
X13789660Y-12700000D01*
X13789660Y-12666980D02*
X13756640Y-12700000D01*
X13756640Y-13558520D02*
X13789660Y-13591540D01*
X13789660Y-13558520D02*
X13756640Y-13591540D01*
X13789660Y-11653520D02*
X13822680Y-11686540D01*
X13822680Y-11653520D02*
X13789660Y-11686540D01*
X13796010Y-12332970D02*
X13829030Y-12365990D01*
X13829030Y-12332970D02*
X13796010Y-12365990D01*
X13797280Y-11339830D02*
X13830300Y-11372850D01*
X13830300Y-11339830D02*
X13797280Y-11372850D01*
X13883640Y-13558520D02*
X13916660Y-13591540D01*
X13916660Y-13558520D02*
X13883640Y-13591540D01*
X13924280Y-11339830D02*
X13957300Y-11372850D01*
X13957300Y-11339830D02*
X13924280Y-11372850D01*
X14091920Y-12260580D02*
X14124940Y-12293600D01*
X14124940Y-12260580D02*
X14091920Y-12293600D01*
X14112310Y-12439720D02*
X14145330Y-12472740D01*
X14145330Y-12439720D02*
X14112310Y-12472740D01*
X14126210Y-12699411D02*
X14159230Y-12732431D01*
X14159230Y-12699411D02*
X14126210Y-12732431D01*
X14136370Y-10172700D02*
X14169390Y-10205720D01*
X14169390Y-10172700D02*
X14136370Y-10205720D01*
X14163040Y-12179300D02*
X14196060Y-12212320D01*
X14196060Y-12179300D02*
X14163040Y-12212320D01*
X14342110Y-11562080D02*
X14375130Y-11595100D01*
X14375130Y-11562080D02*
X14342110Y-11595100D01*
X14488160Y-12291060D02*
X14521180Y-12324080D01*
X14521180Y-12291060D02*
X14488160Y-12324080D01*
X14488160Y-12405360D02*
X14521180Y-12438380D01*
X14521180Y-12405360D02*
X14488160Y-12438380D01*
X14494510Y-12514580D02*
X14527530Y-12547600D01*
X14527530Y-12514580D02*
X14494510Y-12547600D01*
X14502130Y-12153900D02*
X14535150Y-12186920D01*
X14535150Y-12153900D02*
X14502130Y-12186920D01*
X14560550Y-11002010D02*
X14593570Y-11035030D01*
X14593570Y-11002010D02*
X14560550Y-11035030D01*
X16285210Y-14701520D02*
X16318230Y-14734540D01*
X16318230Y-14701520D02*
X16285210Y-14734540D01*
X16310610Y-14422120D02*
X16343630Y-14455140D01*
X16343630Y-14422120D02*
X16310610Y-14455140D01*
X16703474Y-13148310D02*
X16736494Y-13181330D01*
X16736494Y-13148310D02*
X16703474Y-13181330D01*
X16737330Y-11074400D02*
X16770350Y-11107420D01*
X16770350Y-11074400D02*
X16737330Y-11107420D01*
X16954500Y-14439900D02*
X16987520Y-14472920D01*
X16987520Y-14439900D02*
X16954500Y-14472920D01*
X17054830Y-11074400D02*
X17087850Y-11107420D01*
X17087850Y-11074400D02*
X17054830Y-11107420D01*
X17119494Y-14253104D02*
X17152514Y-14286124D01*
X17152514Y-14253104D02*
X17119494Y-14286124D01*
X17254220Y-14516100D02*
X17287240Y-14549120D01*
X17287240Y-14516100D02*
X17254220Y-14549120D01*
X17840960Y-13876020D02*
X17873980Y-13909040D01*
X17873980Y-13876020D02*
X17840960Y-13909040D01*
X17847310Y-13736320D02*
X17880330Y-13769340D01*
X17880330Y-13736320D02*
X17847310Y-13769340D01*
X18253710Y-13139420D02*
X18286730Y-13172440D01*
X18286730Y-13139420D02*
X18253710Y-13172440D01*
X19447510Y-13126720D02*
X19480530Y-13159740D01*
X19480530Y-13126720D02*
X19447510Y-13159740D01*
X22668230Y-4839970D02*
X22701250Y-4872990D01*
X22701250Y-4839970D02*
X22668230Y-4872990D01*
X22800310Y-18750280D02*
X22833330Y-18783300D01*
X22833330Y-18750280D02*
X22800310Y-18783300D01*
X6210420Y-19368790D02*
G75*
G03*
X6210420Y-19368790I-25000J0D01*
G01*
X6276321Y-19209691D02*
G75*
G03*
X6276321Y-19209691I-25000J0D01*
G01*
X6276321Y-19527889D02*
G75*
G03*
X6276321Y-19527889I-25000J0D01*
G01*
X6435420Y-19143790D02*
G75*
G03*
X6435420Y-19143790I-25000J0D01*
G01*
X6435420Y-19593790D02*
G75*
G03*
X6435420Y-19593790I-25000J0D01*
G01*
X6594519Y-19209691D02*
G75*
G03*
X6594519Y-19209691I-25000J0D01*
G01*
X6594519Y-19527889D02*
G75*
G03*
X6594519Y-19527889I-25000J0D01*
G01*
X6660420Y-19368790D02*
G75*
G03*
X6660420Y-19368790I-25000J0D01*
G01*
X6904380Y-6611620D02*
G75*
G03*
X6904380Y-6611620I-25000J0D01*
G01*
X6970281Y-6452521D02*
G75*
G03*
X6970281Y-6452521I-25000J0D01*
G01*
X6970281Y-6770719D02*
G75*
G03*
X6970281Y-6770719I-25000J0D01*
G01*
X7129380Y-6386620D02*
G75*
G03*
X7129380Y-6386620I-25000J0D01*
G01*
X7129380Y-6836620D02*
G75*
G03*
X7129380Y-6836620I-25000J0D01*
G01*
X7288479Y-6452521D02*
G75*
G03*
X7288479Y-6452521I-25000J0D01*
G01*
X7288479Y-6770719D02*
G75*
G03*
X7288479Y-6770719I-25000J0D01*
G01*
X7354380Y-6611620D02*
G75*
G03*
X7354380Y-6611620I-25000J0D01*
G01*
X14715420Y-6560790D02*
G75*
G03*
X14715420Y-6560790I-25000J0D01*
G01*
X14715420Y-19368790D02*
G75*
G03*
X14715420Y-19368790I-25000J0D01*
G01*
X14781321Y-6401691D02*
G75*
G03*
X14781321Y-6401691I-25000J0D01*
G01*
X14781321Y-6719889D02*
G75*
G03*
X14781321Y-6719889I-25000J0D01*
G01*
X14781321Y-19209691D02*
G75*
G03*
X14781321Y-19209691I-25000J0D01*
G01*
X14781321Y-19527889D02*
G75*
G03*
X14781321Y-19527889I-25000J0D01*
G01*
X14940420Y-6335790D02*
G75*
G03*
X14940420Y-6335790I-25000J0D01*
G01*
X14940420Y-6785790D02*
G75*
G03*
X14940420Y-6785790I-25000J0D01*
G01*
X14940420Y-19143790D02*
G75*
G03*
X14940420Y-19143790I-25000J0D01*
G01*
X14940420Y-19593790D02*
G75*
G03*
X14940420Y-19593790I-25000J0D01*
G01*
X15099519Y-6401691D02*
G75*
G03*
X15099519Y-6401691I-25000J0D01*
G01*
X15099519Y-6719889D02*
G75*
G03*
X15099519Y-6719889I-25000J0D01*
G01*
X15099519Y-19209691D02*
G75*
G03*
X15099519Y-19209691I-25000J0D01*
G01*
X15099519Y-19527889D02*
G75*
G03*
X15099519Y-19527889I-25000J0D01*
G01*
X15165420Y-6560790D02*
G75*
G03*
X15165420Y-6560790I-25000J0D01*
G01*
X15165420Y-19368790D02*
G75*
G03*
X15165420Y-19368790I-25000J0D01*
G01*
X23220420Y-6560790D02*
G75*
G03*
X23220420Y-6560790I-25000J0D01*
G01*
X23220420Y-19368790D02*
G75*
G03*
X23220420Y-19368790I-25000J0D01*
G01*
X23286321Y-6401691D02*
G75*
G03*
X23286321Y-6401691I-25000J0D01*
G01*
X23286321Y-6719889D02*
G75*
G03*
X23286321Y-6719889I-25000J0D01*
G01*
X23286321Y-19209691D02*
G75*
G03*
X23286321Y-19209691I-25000J0D01*
G01*
X23286321Y-19527889D02*
G75*
G03*
X23286321Y-19527889I-25000J0D01*
G01*
X23445420Y-6335790D02*
G75*
G03*
X23445420Y-6335790I-25000J0D01*
G01*
X23445420Y-6785790D02*
G75*
G03*
X23445420Y-6785790I-25000J0D01*
G01*
X23445420Y-19143790D02*
G75*
G03*
X23445420Y-19143790I-25000J0D01*
G01*
X23445420Y-19593790D02*
G75*
G03*
X23445420Y-19593790I-25000J0D01*
G01*
X23604519Y-6401691D02*
G75*
G03*
X23604519Y-6401691I-25000J0D01*
G01*
X23604519Y-6719889D02*
G75*
G03*
X23604519Y-6719889I-25000J0D01*
G01*
X23604519Y-19209691D02*
G75*
G03*
X23604519Y-19209691I-25000J0D01*
G01*
X23604519Y-19527889D02*
G75*
G03*
X23604519Y-19527889I-25000J0D01*
G01*
X23670420Y-6560790D02*
G75*
G03*
X23670420Y-6560790I-25000J0D01*
G01*
X23670420Y-19368790D02*
G75*
G03*
X23670420Y-19368790I-25000J0D01*
G01*
X6136640Y-9407700D02*
X6136640Y-9467700D01*
X6106640Y-9437700D02*
X6166640Y-9437700D01*
X6101640Y-9457700D02*
X6171640Y-9457700D01*
X6101640Y-9417700D02*
X6171640Y-9417700D01*
X6171640Y-9457700D02*
G75*
G03*
X6171640Y-9417700I0J20000D01*
G01*
X6101640Y-9417700D02*
G75*
G03*
X6101640Y-9457700I0J-20000D01*
G01*
X6136640Y-10242700D02*
X6136640Y-10302700D01*
X6106640Y-10272700D02*
X6166640Y-10272700D01*
X6101640Y-10292700D02*
X6171640Y-10292700D01*
X6101640Y-10252700D02*
X6171640Y-10252700D01*
X6171640Y-10292700D02*
G75*
G03*
X6171640Y-10252700I0J20000D01*
G01*
X6101640Y-10252700D02*
G75*
G03*
X6101640Y-10292700I0J-20000D01*
G01*
X6459621Y-9655681D02*
X6459621Y-9609719D01*
X6413659Y-9609719D01*
X6413659Y-9655681D01*
X6459621Y-9655681D01*
X6426640Y-9655200D02*
X6446640Y-9655200D01*
X6426640Y-9610200D02*
X6446640Y-9610200D01*
X6446640Y-9655200D02*
G75*
G03*
X6446640Y-9610200I0J22500D01*
G01*
X6426640Y-9610200D02*
G75*
G03*
X6426640Y-9655200I0J-22500D01*
G01*
X6459621Y-10100681D02*
X6459621Y-10054719D01*
X6413659Y-10054719D01*
X6413659Y-10100681D01*
X6459621Y-10100681D01*
X6426640Y-10100200D02*
X6446640Y-10100200D01*
X6426640Y-10055200D02*
X6446640Y-10055200D01*
X6446640Y-10100200D02*
G75*
G03*
X6446640Y-10055200I0J22500D01*
G01*
X6426640Y-10055200D02*
G75*
G03*
X6426640Y-10100200I0J-22500D01*
G01*
X7002780Y-14079690D02*
X7052780Y-14029690D01*
X7002780Y-13979690D01*
X6952780Y-14029690D01*
X7002780Y-14079690D01*
X7002780Y-14333690D02*
X7052780Y-14283690D01*
X7002780Y-14233690D01*
X6952780Y-14283690D01*
X7002780Y-14333690D01*
X7002780Y-14587690D02*
X7052780Y-14537690D01*
X7002780Y-14487690D01*
X6952780Y-14537690D01*
X7002780Y-14587690D01*
X7002780Y-14841690D02*
X7052780Y-14791690D01*
X7002780Y-14741690D01*
X6952780Y-14791690D01*
X7002780Y-14841690D01*
X7002780Y-15095690D02*
X7052780Y-15045690D01*
X7002780Y-14995690D01*
X6952780Y-15045690D01*
X7002780Y-15095690D01*
X7002780Y-15349690D02*
X7052780Y-15299690D01*
X7002780Y-15249690D01*
X6952780Y-15299690D01*
X7002780Y-15349690D01*
X7005320Y-4973790D02*
X7055320Y-4923790D01*
X7005320Y-4873790D01*
X6955320Y-4923790D01*
X7005320Y-4973790D01*
X7005320Y-5227790D02*
X7055320Y-5177790D01*
X7005320Y-5127790D01*
X6955320Y-5177790D01*
X7005320Y-5227790D01*
X7005320Y-5481790D02*
X7055320Y-5431790D01*
X7005320Y-5381790D01*
X6955320Y-5431790D01*
X7005320Y-5481790D01*
X7005320Y-5735790D02*
X7055320Y-5685790D01*
X7005320Y-5635790D01*
X6955320Y-5685790D01*
X7005320Y-5735790D01*
X7007860Y-10879290D02*
X7057860Y-10829290D01*
X7007860Y-10779290D01*
X6957860Y-10829290D01*
X7007860Y-10879290D01*
X7007860Y-11133290D02*
X7057860Y-11083290D01*
X7007860Y-11033290D01*
X6957860Y-11083290D01*
X7007860Y-11133290D01*
X7007860Y-11387290D02*
X7057860Y-11337290D01*
X7007860Y-11287290D01*
X6957860Y-11337290D01*
X7007860Y-11387290D01*
X7007860Y-11641290D02*
X7057860Y-11591290D01*
X7007860Y-11541290D01*
X6957860Y-11591290D01*
X7007860Y-11641290D01*
X7007860Y-11895290D02*
X7057860Y-11845290D01*
X7007860Y-11795290D01*
X6957860Y-11845290D01*
X7007860Y-11895290D01*
X7007860Y-12149290D02*
X7057860Y-12099290D01*
X7007860Y-12049290D01*
X6957860Y-12099290D01*
X7007860Y-12149290D01*
X7007860Y-12403290D02*
X7057860Y-12353290D01*
X7007860Y-12303290D01*
X6957860Y-12353290D01*
X7007860Y-12403290D01*
X7007860Y-12657290D02*
X7057860Y-12607290D01*
X7007860Y-12557290D01*
X6957860Y-12607290D01*
X7007860Y-12657290D01*
X7007860Y-12911290D02*
X7057860Y-12861290D01*
X7007860Y-12811290D01*
X6957860Y-12861290D01*
X7007860Y-12911290D01*
X7007860Y-13165290D02*
X7057860Y-13115290D01*
X7007860Y-13065290D01*
X6957860Y-13115290D01*
X7007860Y-13165290D01*
X7007860Y-13419290D02*
X7057860Y-13369290D01*
X7007860Y-13319290D01*
X6957860Y-13369290D01*
X7007860Y-13419290D01*
X7018020Y-16276790D02*
X7068020Y-16226790D01*
X7018020Y-16176790D01*
X6968020Y-16226790D01*
X7018020Y-16276790D01*
X7018020Y-16530790D02*
X7068020Y-16480790D01*
X7018020Y-16430790D01*
X6968020Y-16480790D01*
X7018020Y-16530790D01*
X7018020Y-16784790D02*
X7068020Y-16734790D01*
X7018020Y-16684790D01*
X6968020Y-16734790D01*
X7018020Y-16784790D01*
X7018020Y-17038790D02*
X7068020Y-16988790D01*
X7018020Y-16938790D01*
X6968020Y-16988790D01*
X7018020Y-17038790D01*
X7018020Y-17292790D02*
X7068020Y-17242790D01*
X7018020Y-17192790D01*
X6968020Y-17242790D01*
X7018020Y-17292790D01*
X7018020Y-17546790D02*
X7068020Y-17496790D01*
X7018020Y-17446790D01*
X6968020Y-17496790D01*
X7018020Y-17546790D01*
X7018020Y-17800790D02*
X7068020Y-17750790D01*
X7018020Y-17700790D01*
X6968020Y-17750790D01*
X7018020Y-17800790D01*
X7256780Y-14079690D02*
X7306780Y-14029690D01*
X7256780Y-13979690D01*
X7206780Y-14029690D01*
X7256780Y-14079690D01*
X7256780Y-14333690D02*
X7306780Y-14283690D01*
X7256780Y-14233690D01*
X7206780Y-14283690D01*
X7256780Y-14333690D01*
X7256780Y-14587690D02*
X7306780Y-14537690D01*
X7256780Y-14487690D01*
X7206780Y-14537690D01*
X7256780Y-14587690D01*
X7256780Y-14841690D02*
X7306780Y-14791690D01*
X7256780Y-14741690D01*
X7206780Y-14791690D01*
X7256780Y-14841690D01*
X7256780Y-15095690D02*
X7306780Y-15045690D01*
X7256780Y-14995690D01*
X7206780Y-15045690D01*
X7256780Y-15095690D01*
X7256780Y-15349690D02*
X7306780Y-15299690D01*
X7256780Y-15249690D01*
X7206780Y-15299690D01*
X7256780Y-15349690D01*
X7259320Y-4973790D02*
X7309320Y-4923790D01*
X7259320Y-4873790D01*
X7209320Y-4923790D01*
X7259320Y-4973790D01*
X7259320Y-5227790D02*
X7309320Y-5177790D01*
X7259320Y-5127790D01*
X7209320Y-5177790D01*
X7259320Y-5227790D01*
X7259320Y-5481790D02*
X7309320Y-5431790D01*
X7259320Y-5381790D01*
X7209320Y-5431790D01*
X7259320Y-5481790D01*
X7259320Y-5735790D02*
X7309320Y-5685790D01*
X7259320Y-5635790D01*
X7209320Y-5685790D01*
X7259320Y-5735790D01*
X7261860Y-10879290D02*
X7311860Y-10829290D01*
X7261860Y-10779290D01*
X7211860Y-10829290D01*
X7261860Y-10879290D01*
X7261860Y-11133290D02*
X7311860Y-11083290D01*
X7261860Y-11033290D01*
X7211860Y-11083290D01*
X7261860Y-11133290D01*
X7261860Y-11387290D02*
X7311860Y-11337290D01*
X7261860Y-11287290D01*
X7211860Y-11337290D01*
X7261860Y-11387290D01*
X7261860Y-11641290D02*
X7311860Y-11591290D01*
X7261860Y-11541290D01*
X7211860Y-11591290D01*
X7261860Y-11641290D01*
X7261860Y-11895290D02*
X7311860Y-11845290D01*
X7261860Y-11795290D01*
X7211860Y-11845290D01*
X7261860Y-11895290D01*
X7261860Y-12149290D02*
X7311860Y-12099290D01*
X7261860Y-12049290D01*
X7211860Y-12099290D01*
X7261860Y-12149290D01*
X7261860Y-12403290D02*
X7311860Y-12353290D01*
X7261860Y-12303290D01*
X7211860Y-12353290D01*
X7261860Y-12403290D01*
X7261860Y-12657290D02*
X7311860Y-12607290D01*
X7261860Y-12557290D01*
X7211860Y-12607290D01*
X7261860Y-12657290D01*
X7261860Y-12911290D02*
X7311860Y-12861290D01*
X7261860Y-12811290D01*
X7211860Y-12861290D01*
X7261860Y-12911290D01*
X7261860Y-13165290D02*
X7311860Y-13115290D01*
X7261860Y-13065290D01*
X7211860Y-13115290D01*
X7261860Y-13165290D01*
X7261860Y-13419290D02*
X7311860Y-13369290D01*
X7261860Y-13319290D01*
X7211860Y-13369290D01*
X7261860Y-13419290D01*
X7272020Y-16276790D02*
X7322020Y-16226790D01*
X7272020Y-16176790D01*
X7222020Y-16226790D01*
X7272020Y-16276790D01*
X7272020Y-16530790D02*
X7322020Y-16480790D01*
X7272020Y-16430790D01*
X7222020Y-16480790D01*
X7272020Y-16530790D01*
X7272020Y-16784790D02*
X7322020Y-16734790D01*
X7272020Y-16684790D01*
X7222020Y-16734790D01*
X7272020Y-16784790D01*
X7272020Y-17038790D02*
X7322020Y-16988790D01*
X7272020Y-16938790D01*
X7222020Y-16988790D01*
X7272020Y-17038790D01*
X7272020Y-17292790D02*
X7322020Y-17242790D01*
X7272020Y-17192790D01*
X7222020Y-17242790D01*
X7272020Y-17292790D01*
X7272020Y-17546790D02*
X7322020Y-17496790D01*
X7272020Y-17446790D01*
X7222020Y-17496790D01*
X7272020Y-17546790D01*
X7272020Y-17800790D02*
X7322020Y-17750790D01*
X7272020Y-17700790D01*
X7222020Y-17750790D01*
X7272020Y-17800790D01*
X8782050Y-18459920D02*
X8832050Y-18409920D01*
X8782050Y-18359920D01*
X8732050Y-18409920D01*
X8782050Y-18459920D01*
X9036050Y-18459920D02*
X9086050Y-18409920D01*
X9036050Y-18359920D01*
X8986050Y-18409920D01*
X9036050Y-18459920D01*
X10872470Y-11243780D02*
X10922470Y-11193780D01*
X10872470Y-11143780D01*
X10822470Y-11193780D01*
X10872470Y-11243780D01*
X10901680Y-12061660D02*
X10951680Y-12011660D01*
X10901680Y-11961660D01*
X10851680Y-12011660D01*
X10901680Y-12061660D01*
X11126470Y-11243780D02*
X11176470Y-11193780D01*
X11126470Y-11143780D01*
X11076470Y-11193780D01*
X11126470Y-11243780D01*
X11155680Y-12061660D02*
X11205680Y-12011660D01*
X11155680Y-11961660D01*
X11105680Y-12011660D01*
X11155680Y-12061660D01*
X11380470Y-11243780D02*
X11430470Y-11193780D01*
X11380470Y-11143780D01*
X11330470Y-11193780D01*
X11380470Y-11243780D01*
X11409680Y-12061660D02*
X11459680Y-12011660D01*
X11409680Y-11961660D01*
X11359680Y-12011660D01*
X11409680Y-12061660D01*
X14203680Y-14265110D02*
X14253680Y-14215110D01*
X14203680Y-14165110D01*
X14153680Y-14215110D01*
X14203680Y-14265110D01*
X14457680Y-14265110D02*
X14507680Y-14215110D01*
X14457680Y-14165110D01*
X14407680Y-14215110D01*
X14457680Y-14265110D01*
X18054320Y-14342580D02*
X18104320Y-14292580D01*
X18054320Y-14242580D01*
X18004320Y-14292580D01*
X18054320Y-14342580D01*
X18063210Y-14774380D02*
X18113210Y-14724380D01*
X18063210Y-14674380D01*
X18013210Y-14724380D01*
X18063210Y-14774380D01*
X18308320Y-14342580D02*
X18358320Y-14292580D01*
X18308320Y-14242580D01*
X18258320Y-14292580D01*
X18308320Y-14342580D01*
X18317210Y-14774380D02*
X18367210Y-14724380D01*
X18317210Y-14674380D01*
X18267210Y-14724380D01*
X18317210Y-14774380D01*
X6260420Y-19218790D02*
X6560420Y-19518790D01*
X6560420Y-19218790D02*
X6260420Y-19518790D01*
X6560420Y-19368790D02*
G75*
G03*
X6560420Y-19368790I-150000J0D01*
G01*
X6954380Y-6461620D02*
X7254380Y-6761620D01*
X7254380Y-6461620D02*
X6954380Y-6761620D01*
X7254380Y-6611620D02*
G75*
G03*
X7254380Y-6611620I-150000J0D01*
G01*
X14765420Y-6410790D02*
X15065420Y-6710790D01*
X15065420Y-6410790D02*
X14765420Y-6710790D01*
X15065420Y-6560790D02*
G75*
G03*
X15065420Y-6560790I-150000J0D01*
G01*
X14765420Y-19218790D02*
X15065420Y-19518790D01*
X15065420Y-19218790D02*
X14765420Y-19518790D01*
X15065420Y-19368790D02*
G75*
G03*
X15065420Y-19368790I-150000J0D01*
G01*
X23270420Y-6410790D02*
X23570420Y-6710790D01*
X23570420Y-6410790D02*
X23270420Y-6710790D01*
X23570420Y-6560790D02*
G75*
G03*
X23570420Y-6560790I-150000J0D01*
G01*
X23270420Y-19218790D02*
X23570420Y-19518790D01*
X23570420Y-19218790D02*
X23270420Y-19518790D01*
X23570420Y-19368790D02*
G75*
G03*
X23570420Y-19368790I-150000J0D01*
G01*
D13*
X6273068Y-20196394D02*
X6273068Y-19896394D01*
X6344497Y-19896394D01*
X6387354Y-19910680D01*
X6415926Y-19939252D01*
X6430211Y-19967823D01*
X6444497Y-20024966D01*
X6444497Y-20067823D01*
X6430211Y-20124966D01*
X6415926Y-20153537D01*
X6387354Y-20182109D01*
X6344497Y-20196394D01*
X6273068Y-20196394D01*
X6573068Y-20196394D02*
X6573068Y-19996394D01*
X6573068Y-20053537D02*
X6587354Y-20024966D01*
X6601640Y-20010680D01*
X6630211Y-19996394D01*
X6658783Y-19996394D01*
X6758783Y-20196394D02*
X6758783Y-19996394D01*
X6758783Y-19896394D02*
X6744497Y-19910680D01*
X6758783Y-19924966D01*
X6773068Y-19910680D01*
X6758783Y-19896394D01*
X6758783Y-19924966D01*
X6944497Y-20196394D02*
X6915926Y-20182109D01*
X6901640Y-20153537D01*
X6901640Y-19896394D01*
X7101640Y-20196394D02*
X7073068Y-20182109D01*
X7058783Y-20153537D01*
X7058783Y-19896394D01*
X7444497Y-20196394D02*
X7444497Y-19896394D01*
X7544497Y-20110680D01*
X7644497Y-19896394D01*
X7644497Y-20196394D01*
X7915926Y-20196394D02*
X7915926Y-20039252D01*
X7901640Y-20010680D01*
X7873068Y-19996394D01*
X7815926Y-19996394D01*
X7787354Y-20010680D01*
X7915926Y-20182109D02*
X7887354Y-20196394D01*
X7815926Y-20196394D01*
X7787354Y-20182109D01*
X7773068Y-20153537D01*
X7773068Y-20124966D01*
X7787354Y-20096394D01*
X7815926Y-20082109D01*
X7887354Y-20082109D01*
X7915926Y-20067823D01*
X8058783Y-19996394D02*
X8058783Y-20296394D01*
X8058783Y-20010680D02*
X8087354Y-19996394D01*
X8144497Y-19996394D01*
X8173068Y-20010680D01*
X8187354Y-20024966D01*
X8201640Y-20053537D01*
X8201640Y-20139252D01*
X8187354Y-20167823D01*
X8173068Y-20182109D01*
X8144497Y-20196394D01*
X8087354Y-20196394D01*
X8058783Y-20182109D01*
X8330211Y-20167823D02*
X8344497Y-20182109D01*
X8330211Y-20196394D01*
X8315926Y-20182109D01*
X8330211Y-20167823D01*
X8330211Y-20196394D01*
X8330211Y-20010680D02*
X8344497Y-20024966D01*
X8330211Y-20039252D01*
X8315926Y-20024966D01*
X8330211Y-20010680D01*
X8330211Y-20039252D01*
X5953620Y-20674170D02*
X5986640Y-20707190D01*
X5986640Y-20674170D02*
X5953620Y-20707190D01*
X6330211Y-20526394D02*
X6358783Y-20526394D01*
X6387354Y-20540680D01*
X6401640Y-20554966D01*
X6415926Y-20583537D01*
X6430211Y-20640680D01*
X6430211Y-20712109D01*
X6415926Y-20769252D01*
X6401640Y-20797823D01*
X6387354Y-20812109D01*
X6358783Y-20826394D01*
X6330211Y-20826394D01*
X6301640Y-20812109D01*
X6287354Y-20797823D01*
X6273068Y-20769252D01*
X6258783Y-20712109D01*
X6258783Y-20640680D01*
X6273068Y-20583537D01*
X6287354Y-20554966D01*
X6301640Y-20540680D01*
X6330211Y-20526394D01*
X6558783Y-20797823D02*
X6573068Y-20812109D01*
X6558783Y-20826394D01*
X6544497Y-20812109D01*
X6558783Y-20797823D01*
X6558783Y-20826394D01*
X6673068Y-20526394D02*
X6858783Y-20526394D01*
X6758783Y-20640680D01*
X6801640Y-20640680D01*
X6830211Y-20654966D01*
X6844497Y-20669252D01*
X6858783Y-20697823D01*
X6858783Y-20769252D01*
X6844497Y-20797823D01*
X6830211Y-20812109D01*
X6801640Y-20826394D01*
X6715926Y-20826394D01*
X6687354Y-20812109D01*
X6673068Y-20797823D01*
X6958783Y-20526394D02*
X7144497Y-20526394D01*
X7044497Y-20640680D01*
X7087354Y-20640680D01*
X7115926Y-20654966D01*
X7130211Y-20669252D01*
X7144497Y-20697823D01*
X7144497Y-20769252D01*
X7130211Y-20797823D01*
X7115926Y-20812109D01*
X7087354Y-20826394D01*
X7001640Y-20826394D01*
X6973068Y-20812109D01*
X6958783Y-20797823D01*
X7273068Y-20826394D02*
X7273068Y-20626394D01*
X7273068Y-20654966D02*
X7287354Y-20640680D01*
X7315926Y-20626394D01*
X7358783Y-20626394D01*
X7387354Y-20640680D01*
X7401640Y-20669252D01*
X7401640Y-20826394D01*
X7401640Y-20669252D02*
X7415926Y-20640680D01*
X7444497Y-20626394D01*
X7487354Y-20626394D01*
X7515926Y-20640680D01*
X7530211Y-20669252D01*
X7530211Y-20826394D01*
X7673068Y-20826394D02*
X7673068Y-20626394D01*
X7673068Y-20654966D02*
X7687354Y-20640680D01*
X7715926Y-20626394D01*
X7758783Y-20626394D01*
X7787354Y-20640680D01*
X7801640Y-20669252D01*
X7801640Y-20826394D01*
X7801640Y-20669252D02*
X7815926Y-20640680D01*
X7844497Y-20626394D01*
X7887354Y-20626394D01*
X7915926Y-20640680D01*
X7930211Y-20669252D01*
X7930211Y-20826394D01*
X8515926Y-20512109D02*
X8258783Y-20897823D01*
X8901640Y-20526394D02*
X8930211Y-20526394D01*
X8958783Y-20540680D01*
X8973068Y-20554966D01*
X8987354Y-20583537D01*
X9001640Y-20640680D01*
X9001640Y-20712109D01*
X8987354Y-20769252D01*
X8973068Y-20797823D01*
X8958783Y-20812109D01*
X8930211Y-20826394D01*
X8901640Y-20826394D01*
X8873068Y-20812109D01*
X8858783Y-20797823D01*
X8844497Y-20769252D01*
X8830211Y-20712109D01*
X8830211Y-20640680D01*
X8844497Y-20583537D01*
X8858783Y-20554966D01*
X8873068Y-20540680D01*
X8901640Y-20526394D01*
X9130211Y-20797823D02*
X9144497Y-20812109D01*
X9130211Y-20826394D01*
X9115926Y-20812109D01*
X9130211Y-20797823D01*
X9130211Y-20826394D01*
X9330211Y-20526394D02*
X9358783Y-20526394D01*
X9387354Y-20540680D01*
X9401640Y-20554966D01*
X9415926Y-20583537D01*
X9430211Y-20640680D01*
X9430211Y-20712109D01*
X9415926Y-20769252D01*
X9401640Y-20797823D01*
X9387354Y-20812109D01*
X9358783Y-20826394D01*
X9330211Y-20826394D01*
X9301640Y-20812109D01*
X9287354Y-20797823D01*
X9273068Y-20769252D01*
X9258783Y-20712109D01*
X9258783Y-20640680D01*
X9273068Y-20583537D01*
X9287354Y-20554966D01*
X9301640Y-20540680D01*
X9330211Y-20526394D01*
X9715926Y-20826394D02*
X9544497Y-20826394D01*
X9630211Y-20826394D02*
X9630211Y-20526394D01*
X9601640Y-20569252D01*
X9573068Y-20597823D01*
X9544497Y-20612109D01*
X9815926Y-20526394D02*
X10001640Y-20526394D01*
X9901640Y-20640680D01*
X9944497Y-20640680D01*
X9973068Y-20654966D01*
X9987354Y-20669252D01*
X10001640Y-20697823D01*
X10001640Y-20769252D01*
X9987354Y-20797823D01*
X9973068Y-20812109D01*
X9944497Y-20826394D01*
X9858783Y-20826394D01*
X9830211Y-20812109D01*
X9815926Y-20797823D01*
X10115926Y-20526394D02*
X10115926Y-20583537D01*
X10230211Y-20526394D02*
X10230211Y-20583537D01*
X10673068Y-20940680D02*
X10658783Y-20926394D01*
X10630211Y-20883537D01*
X10615926Y-20854966D01*
X10601640Y-20812109D01*
X10587354Y-20740680D01*
X10587354Y-20683537D01*
X10601640Y-20612109D01*
X10615926Y-20569252D01*
X10630211Y-20540680D01*
X10658783Y-20497823D01*
X10673068Y-20483537D01*
X10944497Y-20826394D02*
X10773068Y-20826394D01*
X10858783Y-20826394D02*
X10858783Y-20526394D01*
X10830211Y-20569252D01*
X10801640Y-20597823D01*
X10773068Y-20612109D01*
X11215926Y-20526394D02*
X11073068Y-20526394D01*
X11058783Y-20669252D01*
X11073068Y-20654966D01*
X11101640Y-20640680D01*
X11173068Y-20640680D01*
X11201640Y-20654966D01*
X11215926Y-20669252D01*
X11230211Y-20697823D01*
X11230211Y-20769252D01*
X11215926Y-20797823D01*
X11201640Y-20812109D01*
X11173068Y-20826394D01*
X11101640Y-20826394D01*
X11073068Y-20812109D01*
X11058783Y-20797823D01*
X11501640Y-20526394D02*
X11358783Y-20526394D01*
X11344497Y-20669252D01*
X11358783Y-20654966D01*
X11387354Y-20640680D01*
X11458783Y-20640680D01*
X11487354Y-20654966D01*
X11501640Y-20669252D01*
X11515926Y-20697823D01*
X11515926Y-20769252D01*
X11501640Y-20797823D01*
X11487354Y-20812109D01*
X11458783Y-20826394D01*
X11387354Y-20826394D01*
X11358783Y-20812109D01*
X11344497Y-20797823D01*
X11873068Y-20826394D02*
X11873068Y-20526394D01*
X12001640Y-20826394D02*
X12001640Y-20669252D01*
X11987354Y-20640680D01*
X11958783Y-20626394D01*
X11915926Y-20626394D01*
X11887354Y-20640680D01*
X11873068Y-20654966D01*
X12187354Y-20826394D02*
X12158783Y-20812109D01*
X12144497Y-20797823D01*
X12130211Y-20769252D01*
X12130211Y-20683537D01*
X12144497Y-20654966D01*
X12158783Y-20640680D01*
X12187354Y-20626394D01*
X12230211Y-20626394D01*
X12258783Y-20640680D01*
X12273068Y-20654966D01*
X12287354Y-20683537D01*
X12287354Y-20769252D01*
X12273068Y-20797823D01*
X12258783Y-20812109D01*
X12230211Y-20826394D01*
X12187354Y-20826394D01*
X12458783Y-20826394D02*
X12430211Y-20812109D01*
X12415926Y-20783537D01*
X12415926Y-20526394D01*
X12687354Y-20812109D02*
X12658783Y-20826394D01*
X12601640Y-20826394D01*
X12573068Y-20812109D01*
X12558783Y-20783537D01*
X12558783Y-20669252D01*
X12573068Y-20640680D01*
X12601640Y-20626394D01*
X12658783Y-20626394D01*
X12687354Y-20640680D01*
X12701640Y-20669252D01*
X12701640Y-20697823D01*
X12558783Y-20726394D01*
X12815926Y-20812109D02*
X12844497Y-20826394D01*
X12901640Y-20826394D01*
X12930211Y-20812109D01*
X12944497Y-20783537D01*
X12944497Y-20769252D01*
X12930211Y-20740680D01*
X12901640Y-20726394D01*
X12858783Y-20726394D01*
X12830211Y-20712109D01*
X12815926Y-20683537D01*
X12815926Y-20669252D01*
X12830211Y-20640680D01*
X12858783Y-20626394D01*
X12901640Y-20626394D01*
X12930211Y-20640680D01*
X13044497Y-20940680D02*
X13058783Y-20926394D01*
X13087354Y-20883537D01*
X13101640Y-20854966D01*
X13115926Y-20812109D01*
X13130211Y-20740680D01*
X13130211Y-20683537D01*
X13115926Y-20612109D01*
X13101640Y-20569252D01*
X13087354Y-20540680D01*
X13058783Y-20497823D01*
X13044497Y-20483537D01*
X5986640Y-21086680D02*
G75*
G03*
X5986640Y-21086680I-25000J0D01*
G01*
X6330211Y-20922394D02*
X6358783Y-20922394D01*
X6387354Y-20936680D01*
X6401640Y-20950966D01*
X6415926Y-20979537D01*
X6430211Y-21036680D01*
X6430211Y-21108109D01*
X6415926Y-21165252D01*
X6401640Y-21193823D01*
X6387354Y-21208109D01*
X6358783Y-21222394D01*
X6330211Y-21222394D01*
X6301640Y-21208109D01*
X6287354Y-21193823D01*
X6273068Y-21165252D01*
X6258783Y-21108109D01*
X6258783Y-21036680D01*
X6273068Y-20979537D01*
X6287354Y-20950966D01*
X6301640Y-20936680D01*
X6330211Y-20922394D01*
X6558783Y-21193823D02*
X6573068Y-21208109D01*
X6558783Y-21222394D01*
X6544497Y-21208109D01*
X6558783Y-21193823D01*
X6558783Y-21222394D01*
X6844497Y-20922394D02*
X6701640Y-20922394D01*
X6687354Y-21065252D01*
X6701640Y-21050966D01*
X6730211Y-21036680D01*
X6801640Y-21036680D01*
X6830211Y-21050966D01*
X6844497Y-21065252D01*
X6858783Y-21093823D01*
X6858783Y-21165252D01*
X6844497Y-21193823D01*
X6830211Y-21208109D01*
X6801640Y-21222394D01*
X6730211Y-21222394D01*
X6701640Y-21208109D01*
X6687354Y-21193823D01*
X7044497Y-20922394D02*
X7073068Y-20922394D01*
X7101640Y-20936680D01*
X7115926Y-20950966D01*
X7130211Y-20979537D01*
X7144497Y-21036680D01*
X7144497Y-21108109D01*
X7130211Y-21165252D01*
X7115926Y-21193823D01*
X7101640Y-21208109D01*
X7073068Y-21222394D01*
X7044497Y-21222394D01*
X7015926Y-21208109D01*
X7001640Y-21193823D01*
X6987354Y-21165252D01*
X6973068Y-21108109D01*
X6973068Y-21036680D01*
X6987354Y-20979537D01*
X7001640Y-20950966D01*
X7015926Y-20936680D01*
X7044497Y-20922394D01*
X7273068Y-21222394D02*
X7273068Y-21022394D01*
X7273068Y-21050966D02*
X7287354Y-21036680D01*
X7315926Y-21022394D01*
X7358783Y-21022394D01*
X7387354Y-21036680D01*
X7401640Y-21065252D01*
X7401640Y-21222394D01*
X7401640Y-21065252D02*
X7415926Y-21036680D01*
X7444497Y-21022394D01*
X7487354Y-21022394D01*
X7515926Y-21036680D01*
X7530211Y-21065252D01*
X7530211Y-21222394D01*
X7673068Y-21222394D02*
X7673068Y-21022394D01*
X7673068Y-21050966D02*
X7687354Y-21036680D01*
X7715926Y-21022394D01*
X7758783Y-21022394D01*
X7787354Y-21036680D01*
X7801640Y-21065252D01*
X7801640Y-21222394D01*
X7801640Y-21065252D02*
X7815926Y-21036680D01*
X7844497Y-21022394D01*
X7887354Y-21022394D01*
X7915926Y-21036680D01*
X7930211Y-21065252D01*
X7930211Y-21222394D01*
X8515926Y-20908109D02*
X8258783Y-21293823D01*
X8901640Y-20922394D02*
X8930211Y-20922394D01*
X8958783Y-20936680D01*
X8973068Y-20950966D01*
X8987354Y-20979537D01*
X9001640Y-21036680D01*
X9001640Y-21108109D01*
X8987354Y-21165252D01*
X8973068Y-21193823D01*
X8958783Y-21208109D01*
X8930211Y-21222394D01*
X8901640Y-21222394D01*
X8873068Y-21208109D01*
X8858783Y-21193823D01*
X8844497Y-21165252D01*
X8830211Y-21108109D01*
X8830211Y-21036680D01*
X8844497Y-20979537D01*
X8858783Y-20950966D01*
X8873068Y-20936680D01*
X8901640Y-20922394D01*
X9130211Y-21193823D02*
X9144497Y-21208109D01*
X9130211Y-21222394D01*
X9115926Y-21208109D01*
X9130211Y-21193823D01*
X9130211Y-21222394D01*
X9330211Y-20922394D02*
X9358783Y-20922394D01*
X9387354Y-20936680D01*
X9401640Y-20950966D01*
X9415926Y-20979537D01*
X9430211Y-21036680D01*
X9430211Y-21108109D01*
X9415926Y-21165252D01*
X9401640Y-21193823D01*
X9387354Y-21208109D01*
X9358783Y-21222394D01*
X9330211Y-21222394D01*
X9301640Y-21208109D01*
X9287354Y-21193823D01*
X9273068Y-21165252D01*
X9258783Y-21108109D01*
X9258783Y-21036680D01*
X9273068Y-20979537D01*
X9287354Y-20950966D01*
X9301640Y-20936680D01*
X9330211Y-20922394D01*
X9544497Y-20950966D02*
X9558783Y-20936680D01*
X9587354Y-20922394D01*
X9658783Y-20922394D01*
X9687354Y-20936680D01*
X9701640Y-20950966D01*
X9715926Y-20979537D01*
X9715926Y-21008109D01*
X9701640Y-21050966D01*
X9530211Y-21222394D01*
X9715926Y-21222394D01*
X9901640Y-20922394D02*
X9930211Y-20922394D01*
X9958783Y-20936680D01*
X9973068Y-20950966D01*
X9987354Y-20979537D01*
X10001640Y-21036680D01*
X10001640Y-21108109D01*
X9987354Y-21165252D01*
X9973068Y-21193823D01*
X9958783Y-21208109D01*
X9930211Y-21222394D01*
X9901640Y-21222394D01*
X9873068Y-21208109D01*
X9858783Y-21193823D01*
X9844497Y-21165252D01*
X9830211Y-21108109D01*
X9830211Y-21036680D01*
X9844497Y-20979537D01*
X9858783Y-20950966D01*
X9873068Y-20936680D01*
X9901640Y-20922394D01*
X10115926Y-20922394D02*
X10115926Y-20979537D01*
X10230211Y-20922394D02*
X10230211Y-20979537D01*
X10673068Y-21336680D02*
X10658783Y-21322394D01*
X10630211Y-21279537D01*
X10615926Y-21250966D01*
X10601640Y-21208109D01*
X10587354Y-21136680D01*
X10587354Y-21079537D01*
X10601640Y-21008109D01*
X10615926Y-20965252D01*
X10630211Y-20936680D01*
X10658783Y-20893823D01*
X10673068Y-20879537D01*
X10915926Y-21022394D02*
X10915926Y-21222394D01*
X10844497Y-20908109D02*
X10773068Y-21122394D01*
X10958783Y-21122394D01*
X11115926Y-21050966D02*
X11087354Y-21036680D01*
X11073068Y-21022394D01*
X11058783Y-20993823D01*
X11058783Y-20979537D01*
X11073068Y-20950966D01*
X11087354Y-20936680D01*
X11115926Y-20922394D01*
X11173068Y-20922394D01*
X11201640Y-20936680D01*
X11215926Y-20950966D01*
X11230211Y-20979537D01*
X11230211Y-20993823D01*
X11215926Y-21022394D01*
X11201640Y-21036680D01*
X11173068Y-21050966D01*
X11115926Y-21050966D01*
X11087354Y-21065252D01*
X11073068Y-21079537D01*
X11058783Y-21108109D01*
X11058783Y-21165252D01*
X11073068Y-21193823D01*
X11087354Y-21208109D01*
X11115926Y-21222394D01*
X11173068Y-21222394D01*
X11201640Y-21208109D01*
X11215926Y-21193823D01*
X11230211Y-21165252D01*
X11230211Y-21108109D01*
X11215926Y-21079537D01*
X11201640Y-21065252D01*
X11173068Y-21050966D01*
X11587354Y-21222394D02*
X11587354Y-20922394D01*
X11715926Y-21222394D02*
X11715926Y-21065252D01*
X11701640Y-21036680D01*
X11673068Y-21022394D01*
X11630211Y-21022394D01*
X11601640Y-21036680D01*
X11587354Y-21050966D01*
X11901640Y-21222394D02*
X11873068Y-21208109D01*
X11858783Y-21193823D01*
X11844497Y-21165252D01*
X11844497Y-21079537D01*
X11858783Y-21050966D01*
X11873068Y-21036680D01*
X11901640Y-21022394D01*
X11944497Y-21022394D01*
X11973068Y-21036680D01*
X11987354Y-21050966D01*
X12001640Y-21079537D01*
X12001640Y-21165252D01*
X11987354Y-21193823D01*
X11973068Y-21208109D01*
X11944497Y-21222394D01*
X11901640Y-21222394D01*
X12173068Y-21222394D02*
X12144497Y-21208109D01*
X12130211Y-21179537D01*
X12130211Y-20922394D01*
X12401640Y-21208109D02*
X12373068Y-21222394D01*
X12315926Y-21222394D01*
X12287354Y-21208109D01*
X12273068Y-21179537D01*
X12273068Y-21065252D01*
X12287354Y-21036680D01*
X12315926Y-21022394D01*
X12373068Y-21022394D01*
X12401640Y-21036680D01*
X12415926Y-21065252D01*
X12415926Y-21093823D01*
X12273068Y-21122394D01*
X12530211Y-21208109D02*
X12558783Y-21222394D01*
X12615926Y-21222394D01*
X12644497Y-21208109D01*
X12658783Y-21179537D01*
X12658783Y-21165252D01*
X12644497Y-21136680D01*
X12615926Y-21122394D01*
X12573068Y-21122394D01*
X12544497Y-21108109D01*
X12530211Y-21079537D01*
X12530211Y-21065252D01*
X12544497Y-21036680D01*
X12573068Y-21022394D01*
X12615926Y-21022394D01*
X12644497Y-21036680D01*
X12758783Y-21336680D02*
X12773068Y-21322394D01*
X12801640Y-21279537D01*
X12815926Y-21250966D01*
X12830211Y-21208109D01*
X12844497Y-21136680D01*
X12844497Y-21079537D01*
X12830211Y-21008109D01*
X12815926Y-20965252D01*
X12801640Y-20936680D01*
X12773068Y-20893823D01*
X12758783Y-20879537D01*
X5956640Y-21452680D02*
X5956640Y-21512680D01*
X5926640Y-21482680D02*
X5986640Y-21482680D01*
X6330211Y-21318394D02*
X6358783Y-21318394D01*
X6387354Y-21332680D01*
X6401640Y-21346966D01*
X6415926Y-21375537D01*
X6430211Y-21432680D01*
X6430211Y-21504109D01*
X6415926Y-21561252D01*
X6401640Y-21589823D01*
X6387354Y-21604109D01*
X6358783Y-21618394D01*
X6330211Y-21618394D01*
X6301640Y-21604109D01*
X6287354Y-21589823D01*
X6273068Y-21561252D01*
X6258783Y-21504109D01*
X6258783Y-21432680D01*
X6273068Y-21375537D01*
X6287354Y-21346966D01*
X6301640Y-21332680D01*
X6330211Y-21318394D01*
X6558783Y-21589823D02*
X6573068Y-21604109D01*
X6558783Y-21618394D01*
X6544497Y-21604109D01*
X6558783Y-21589823D01*
X6558783Y-21618394D01*
X6830211Y-21318394D02*
X6773068Y-21318394D01*
X6744497Y-21332680D01*
X6730211Y-21346966D01*
X6701640Y-21389823D01*
X6687354Y-21446966D01*
X6687354Y-21561252D01*
X6701640Y-21589823D01*
X6715926Y-21604109D01*
X6744497Y-21618394D01*
X6801640Y-21618394D01*
X6830211Y-21604109D01*
X6844497Y-21589823D01*
X6858783Y-21561252D01*
X6858783Y-21489823D01*
X6844497Y-21461252D01*
X6830211Y-21446966D01*
X6801640Y-21432680D01*
X6744497Y-21432680D01*
X6715926Y-21446966D01*
X6701640Y-21461252D01*
X6687354Y-21489823D01*
X7044497Y-21318394D02*
X7073068Y-21318394D01*
X7101640Y-21332680D01*
X7115926Y-21346966D01*
X7130211Y-21375537D01*
X7144497Y-21432680D01*
X7144497Y-21504109D01*
X7130211Y-21561252D01*
X7115926Y-21589823D01*
X7101640Y-21604109D01*
X7073068Y-21618394D01*
X7044497Y-21618394D01*
X7015926Y-21604109D01*
X7001640Y-21589823D01*
X6987354Y-21561252D01*
X6973068Y-21504109D01*
X6973068Y-21432680D01*
X6987354Y-21375537D01*
X7001640Y-21346966D01*
X7015926Y-21332680D01*
X7044497Y-21318394D01*
X7273068Y-21618394D02*
X7273068Y-21418394D01*
X7273068Y-21446966D02*
X7287354Y-21432680D01*
X7315926Y-21418394D01*
X7358783Y-21418394D01*
X7387354Y-21432680D01*
X7401640Y-21461252D01*
X7401640Y-21618394D01*
X7401640Y-21461252D02*
X7415926Y-21432680D01*
X7444497Y-21418394D01*
X7487354Y-21418394D01*
X7515926Y-21432680D01*
X7530211Y-21461252D01*
X7530211Y-21618394D01*
X7673068Y-21618394D02*
X7673068Y-21418394D01*
X7673068Y-21446966D02*
X7687354Y-21432680D01*
X7715926Y-21418394D01*
X7758783Y-21418394D01*
X7787354Y-21432680D01*
X7801640Y-21461252D01*
X7801640Y-21618394D01*
X7801640Y-21461252D02*
X7815926Y-21432680D01*
X7844497Y-21418394D01*
X7887354Y-21418394D01*
X7915926Y-21432680D01*
X7930211Y-21461252D01*
X7930211Y-21618394D01*
X8515926Y-21304109D02*
X8258783Y-21689823D01*
X8901640Y-21318394D02*
X8930211Y-21318394D01*
X8958783Y-21332680D01*
X8973068Y-21346966D01*
X8987354Y-21375537D01*
X9001640Y-21432680D01*
X9001640Y-21504109D01*
X8987354Y-21561252D01*
X8973068Y-21589823D01*
X8958783Y-21604109D01*
X8930211Y-21618394D01*
X8901640Y-21618394D01*
X8873068Y-21604109D01*
X8858783Y-21589823D01*
X8844497Y-21561252D01*
X8830211Y-21504109D01*
X8830211Y-21432680D01*
X8844497Y-21375537D01*
X8858783Y-21346966D01*
X8873068Y-21332680D01*
X8901640Y-21318394D01*
X9130211Y-21589823D02*
X9144497Y-21604109D01*
X9130211Y-21618394D01*
X9115926Y-21604109D01*
X9130211Y-21589823D01*
X9130211Y-21618394D01*
X9330211Y-21318394D02*
X9358783Y-21318394D01*
X9387354Y-21332680D01*
X9401640Y-21346966D01*
X9415926Y-21375537D01*
X9430211Y-21432680D01*
X9430211Y-21504109D01*
X9415926Y-21561252D01*
X9401640Y-21589823D01*
X9387354Y-21604109D01*
X9358783Y-21618394D01*
X9330211Y-21618394D01*
X9301640Y-21604109D01*
X9287354Y-21589823D01*
X9273068Y-21561252D01*
X9258783Y-21504109D01*
X9258783Y-21432680D01*
X9273068Y-21375537D01*
X9287354Y-21346966D01*
X9301640Y-21332680D01*
X9330211Y-21318394D01*
X9544497Y-21346966D02*
X9558783Y-21332680D01*
X9587354Y-21318394D01*
X9658783Y-21318394D01*
X9687354Y-21332680D01*
X9701640Y-21346966D01*
X9715926Y-21375537D01*
X9715926Y-21404109D01*
X9701640Y-21446966D01*
X9530211Y-21618394D01*
X9715926Y-21618394D01*
X9973068Y-21418394D02*
X9973068Y-21618394D01*
X9901640Y-21304109D02*
X9830211Y-21518394D01*
X10015926Y-21518394D01*
X10115926Y-21318394D02*
X10115926Y-21375537D01*
X10230211Y-21318394D02*
X10230211Y-21375537D01*
X10673068Y-21732680D02*
X10658783Y-21718394D01*
X10630211Y-21675537D01*
X10615926Y-21646966D01*
X10601640Y-21604109D01*
X10587354Y-21532680D01*
X10587354Y-21475537D01*
X10601640Y-21404109D01*
X10615926Y-21361252D01*
X10630211Y-21332680D01*
X10658783Y-21289823D01*
X10673068Y-21275537D01*
X10844497Y-21318394D02*
X10873068Y-21318394D01*
X10901640Y-21332680D01*
X10915926Y-21346966D01*
X10930211Y-21375537D01*
X10944497Y-21432680D01*
X10944497Y-21504109D01*
X10930211Y-21561252D01*
X10915926Y-21589823D01*
X10901640Y-21604109D01*
X10873068Y-21618394D01*
X10844497Y-21618394D01*
X10815926Y-21604109D01*
X10801640Y-21589823D01*
X10787354Y-21561252D01*
X10773068Y-21504109D01*
X10773068Y-21432680D01*
X10787354Y-21375537D01*
X10801640Y-21346966D01*
X10815926Y-21332680D01*
X10844497Y-21318394D01*
X11301640Y-21618394D02*
X11301640Y-21318394D01*
X11430211Y-21618394D02*
X11430211Y-21461252D01*
X11415926Y-21432680D01*
X11387354Y-21418394D01*
X11344497Y-21418394D01*
X11315926Y-21432680D01*
X11301640Y-21446966D01*
X11615926Y-21618394D02*
X11587354Y-21604109D01*
X11573068Y-21589823D01*
X11558783Y-21561252D01*
X11558783Y-21475537D01*
X11573068Y-21446966D01*
X11587354Y-21432680D01*
X11615926Y-21418394D01*
X11658783Y-21418394D01*
X11687354Y-21432680D01*
X11701640Y-21446966D01*
X11715926Y-21475537D01*
X11715926Y-21561252D01*
X11701640Y-21589823D01*
X11687354Y-21604109D01*
X11658783Y-21618394D01*
X11615926Y-21618394D01*
X11887354Y-21618394D02*
X11858783Y-21604109D01*
X11844497Y-21575537D01*
X11844497Y-21318394D01*
X12115926Y-21604109D02*
X12087354Y-21618394D01*
X12030211Y-21618394D01*
X12001640Y-21604109D01*
X11987354Y-21575537D01*
X11987354Y-21461252D01*
X12001640Y-21432680D01*
X12030211Y-21418394D01*
X12087354Y-21418394D01*
X12115926Y-21432680D01*
X12130211Y-21461252D01*
X12130211Y-21489823D01*
X11987354Y-21518394D01*
X12244497Y-21604109D02*
X12273068Y-21618394D01*
X12330211Y-21618394D01*
X12358783Y-21604109D01*
X12373068Y-21575537D01*
X12373068Y-21561252D01*
X12358783Y-21532680D01*
X12330211Y-21518394D01*
X12287354Y-21518394D01*
X12258783Y-21504109D01*
X12244497Y-21475537D01*
X12244497Y-21461252D01*
X12258783Y-21432680D01*
X12287354Y-21418394D01*
X12330211Y-21418394D01*
X12358783Y-21432680D01*
X12730211Y-21504109D02*
X12958783Y-21504109D01*
X12844497Y-21618394D02*
X12844497Y-21389823D01*
X13315926Y-21346966D02*
X13330211Y-21332680D01*
X13358783Y-21318394D01*
X13430211Y-21318394D01*
X13458783Y-21332680D01*
X13473068Y-21346966D01*
X13487354Y-21375537D01*
X13487354Y-21404109D01*
X13473068Y-21446966D01*
X13301640Y-21618394D01*
X13487354Y-21618394D01*
X13830211Y-21604109D02*
X13858783Y-21618394D01*
X13915926Y-21618394D01*
X13944497Y-21604109D01*
X13958783Y-21575537D01*
X13958783Y-21561252D01*
X13944497Y-21532680D01*
X13915926Y-21518394D01*
X13873068Y-21518394D01*
X13844497Y-21504109D01*
X13830211Y-21475537D01*
X13830211Y-21461252D01*
X13844497Y-21432680D01*
X13873068Y-21418394D01*
X13915926Y-21418394D01*
X13944497Y-21432680D01*
X14130211Y-21618394D02*
X14101640Y-21604109D01*
X14087354Y-21575537D01*
X14087354Y-21318394D01*
X14287354Y-21618394D02*
X14258783Y-21604109D01*
X14244497Y-21589823D01*
X14230211Y-21561252D01*
X14230211Y-21475537D01*
X14244497Y-21446966D01*
X14258783Y-21432680D01*
X14287354Y-21418394D01*
X14330211Y-21418394D01*
X14358783Y-21432680D01*
X14373068Y-21446966D01*
X14387354Y-21475537D01*
X14387354Y-21561252D01*
X14373068Y-21589823D01*
X14358783Y-21604109D01*
X14330211Y-21618394D01*
X14287354Y-21618394D01*
X14473068Y-21418394D02*
X14587354Y-21418394D01*
X14515926Y-21318394D02*
X14515926Y-21575537D01*
X14530211Y-21604109D01*
X14558783Y-21618394D01*
X14587354Y-21618394D01*
X14673068Y-21604109D02*
X14701640Y-21618394D01*
X14758783Y-21618394D01*
X14787354Y-21604109D01*
X14801640Y-21575537D01*
X14801640Y-21561252D01*
X14787354Y-21532680D01*
X14758783Y-21518394D01*
X14715926Y-21518394D01*
X14687354Y-21504109D01*
X14673068Y-21475537D01*
X14673068Y-21461252D01*
X14687354Y-21432680D01*
X14715926Y-21418394D01*
X14758783Y-21418394D01*
X14787354Y-21432680D01*
X14901640Y-21732680D02*
X14915926Y-21718394D01*
X14944497Y-21675537D01*
X14958783Y-21646966D01*
X14973068Y-21604109D01*
X14987354Y-21532680D01*
X14987354Y-21475537D01*
X14973068Y-21404109D01*
X14958783Y-21361252D01*
X14944497Y-21332680D01*
X14915926Y-21289823D01*
X14901640Y-21275537D01*
X5977121Y-21901661D02*
X5977121Y-21855699D01*
X5931159Y-21855699D01*
X5931159Y-21901661D01*
X5977121Y-21901661D01*
X6330211Y-21714394D02*
X6358783Y-21714394D01*
X6387354Y-21728680D01*
X6401640Y-21742966D01*
X6415926Y-21771537D01*
X6430211Y-21828680D01*
X6430211Y-21900109D01*
X6415926Y-21957252D01*
X6401640Y-21985823D01*
X6387354Y-22000109D01*
X6358783Y-22014394D01*
X6330211Y-22014394D01*
X6301640Y-22000109D01*
X6287354Y-21985823D01*
X6273068Y-21957252D01*
X6258783Y-21900109D01*
X6258783Y-21828680D01*
X6273068Y-21771537D01*
X6287354Y-21742966D01*
X6301640Y-21728680D01*
X6330211Y-21714394D01*
X6558783Y-21985823D02*
X6573068Y-22000109D01*
X6558783Y-22014394D01*
X6544497Y-22000109D01*
X6558783Y-21985823D01*
X6558783Y-22014394D01*
X6830211Y-21714394D02*
X6773068Y-21714394D01*
X6744497Y-21728680D01*
X6730211Y-21742966D01*
X6701640Y-21785823D01*
X6687354Y-21842966D01*
X6687354Y-21957252D01*
X6701640Y-21985823D01*
X6715926Y-22000109D01*
X6744497Y-22014394D01*
X6801640Y-22014394D01*
X6830211Y-22000109D01*
X6844497Y-21985823D01*
X6858783Y-21957252D01*
X6858783Y-21885823D01*
X6844497Y-21857252D01*
X6830211Y-21842966D01*
X6801640Y-21828680D01*
X6744497Y-21828680D01*
X6715926Y-21842966D01*
X6701640Y-21857252D01*
X6687354Y-21885823D01*
X7130211Y-21714394D02*
X6987354Y-21714394D01*
X6973068Y-21857252D01*
X6987354Y-21842966D01*
X7015926Y-21828680D01*
X7087354Y-21828680D01*
X7115926Y-21842966D01*
X7130211Y-21857252D01*
X7144497Y-21885823D01*
X7144497Y-21957252D01*
X7130211Y-21985823D01*
X7115926Y-22000109D01*
X7087354Y-22014394D01*
X7015926Y-22014394D01*
X6987354Y-22000109D01*
X6973068Y-21985823D01*
X7273068Y-22014394D02*
X7273068Y-21814394D01*
X7273068Y-21842966D02*
X7287354Y-21828680D01*
X7315926Y-21814394D01*
X7358783Y-21814394D01*
X7387354Y-21828680D01*
X7401640Y-21857252D01*
X7401640Y-22014394D01*
X7401640Y-21857252D02*
X7415926Y-21828680D01*
X7444497Y-21814394D01*
X7487354Y-21814394D01*
X7515926Y-21828680D01*
X7530211Y-21857252D01*
X7530211Y-22014394D01*
X7673068Y-22014394D02*
X7673068Y-21814394D01*
X7673068Y-21842966D02*
X7687354Y-21828680D01*
X7715926Y-21814394D01*
X7758783Y-21814394D01*
X7787354Y-21828680D01*
X7801640Y-21857252D01*
X7801640Y-22014394D01*
X7801640Y-21857252D02*
X7815926Y-21828680D01*
X7844497Y-21814394D01*
X7887354Y-21814394D01*
X7915926Y-21828680D01*
X7930211Y-21857252D01*
X7930211Y-22014394D01*
X8515926Y-21700109D02*
X8258783Y-22085823D01*
X8901640Y-21714394D02*
X8930211Y-21714394D01*
X8958783Y-21728680D01*
X8973068Y-21742966D01*
X8987354Y-21771537D01*
X9001640Y-21828680D01*
X9001640Y-21900109D01*
X8987354Y-21957252D01*
X8973068Y-21985823D01*
X8958783Y-22000109D01*
X8930211Y-22014394D01*
X8901640Y-22014394D01*
X8873068Y-22000109D01*
X8858783Y-21985823D01*
X8844497Y-21957252D01*
X8830211Y-21900109D01*
X8830211Y-21828680D01*
X8844497Y-21771537D01*
X8858783Y-21742966D01*
X8873068Y-21728680D01*
X8901640Y-21714394D01*
X9130211Y-21985823D02*
X9144497Y-22000109D01*
X9130211Y-22014394D01*
X9115926Y-22000109D01*
X9130211Y-21985823D01*
X9130211Y-22014394D01*
X9330211Y-21714394D02*
X9358783Y-21714394D01*
X9387354Y-21728680D01*
X9401640Y-21742966D01*
X9415926Y-21771537D01*
X9430211Y-21828680D01*
X9430211Y-21900109D01*
X9415926Y-21957252D01*
X9401640Y-21985823D01*
X9387354Y-22000109D01*
X9358783Y-22014394D01*
X9330211Y-22014394D01*
X9301640Y-22000109D01*
X9287354Y-21985823D01*
X9273068Y-21957252D01*
X9258783Y-21900109D01*
X9258783Y-21828680D01*
X9273068Y-21771537D01*
X9287354Y-21742966D01*
X9301640Y-21728680D01*
X9330211Y-21714394D01*
X9544497Y-21742966D02*
X9558783Y-21728680D01*
X9587354Y-21714394D01*
X9658783Y-21714394D01*
X9687354Y-21728680D01*
X9701640Y-21742966D01*
X9715926Y-21771537D01*
X9715926Y-21800109D01*
X9701640Y-21842966D01*
X9530211Y-22014394D01*
X9715926Y-22014394D01*
X9973068Y-21714394D02*
X9915926Y-21714394D01*
X9887354Y-21728680D01*
X9873068Y-21742966D01*
X9844497Y-21785823D01*
X9830211Y-21842966D01*
X9830211Y-21957252D01*
X9844497Y-21985823D01*
X9858783Y-22000109D01*
X9887354Y-22014394D01*
X9944497Y-22014394D01*
X9973068Y-22000109D01*
X9987354Y-21985823D01*
X10001640Y-21957252D01*
X10001640Y-21885823D01*
X9987354Y-21857252D01*
X9973068Y-21842966D01*
X9944497Y-21828680D01*
X9887354Y-21828680D01*
X9858783Y-21842966D01*
X9844497Y-21857252D01*
X9830211Y-21885823D01*
X10115926Y-21714394D02*
X10115926Y-21771537D01*
X10230211Y-21714394D02*
X10230211Y-21771537D01*
X10673068Y-22128680D02*
X10658783Y-22114394D01*
X10630211Y-22071537D01*
X10615926Y-22042966D01*
X10601640Y-22000109D01*
X10587354Y-21928680D01*
X10587354Y-21871537D01*
X10601640Y-21800109D01*
X10615926Y-21757252D01*
X10630211Y-21728680D01*
X10658783Y-21685823D01*
X10673068Y-21671537D01*
X10844497Y-21714394D02*
X10873068Y-21714394D01*
X10901640Y-21728680D01*
X10915926Y-21742966D01*
X10930211Y-21771537D01*
X10944497Y-21828680D01*
X10944497Y-21900109D01*
X10930211Y-21957252D01*
X10915926Y-21985823D01*
X10901640Y-22000109D01*
X10873068Y-22014394D01*
X10844497Y-22014394D01*
X10815926Y-22000109D01*
X10801640Y-21985823D01*
X10787354Y-21957252D01*
X10773068Y-21900109D01*
X10773068Y-21828680D01*
X10787354Y-21771537D01*
X10801640Y-21742966D01*
X10815926Y-21728680D01*
X10844497Y-21714394D01*
X11301640Y-22014394D02*
X11301640Y-21714394D01*
X11430211Y-22014394D02*
X11430211Y-21857252D01*
X11415926Y-21828680D01*
X11387354Y-21814394D01*
X11344497Y-21814394D01*
X11315926Y-21828680D01*
X11301640Y-21842966D01*
X11615926Y-22014394D02*
X11587354Y-22000109D01*
X11573068Y-21985823D01*
X11558783Y-21957252D01*
X11558783Y-21871537D01*
X11573068Y-21842966D01*
X11587354Y-21828680D01*
X11615926Y-21814394D01*
X11658783Y-21814394D01*
X11687354Y-21828680D01*
X11701640Y-21842966D01*
X11715926Y-21871537D01*
X11715926Y-21957252D01*
X11701640Y-21985823D01*
X11687354Y-22000109D01*
X11658783Y-22014394D01*
X11615926Y-22014394D01*
X11887354Y-22014394D02*
X11858783Y-22000109D01*
X11844497Y-21971537D01*
X11844497Y-21714394D01*
X12115926Y-22000109D02*
X12087354Y-22014394D01*
X12030211Y-22014394D01*
X12001640Y-22000109D01*
X11987354Y-21971537D01*
X11987354Y-21857252D01*
X12001640Y-21828680D01*
X12030211Y-21814394D01*
X12087354Y-21814394D01*
X12115926Y-21828680D01*
X12130211Y-21857252D01*
X12130211Y-21885823D01*
X11987354Y-21914394D01*
X12244497Y-22000109D02*
X12273068Y-22014394D01*
X12330211Y-22014394D01*
X12358783Y-22000109D01*
X12373068Y-21971537D01*
X12373068Y-21957252D01*
X12358783Y-21928680D01*
X12330211Y-21914394D01*
X12287354Y-21914394D01*
X12258783Y-21900109D01*
X12244497Y-21871537D01*
X12244497Y-21857252D01*
X12258783Y-21828680D01*
X12287354Y-21814394D01*
X12330211Y-21814394D01*
X12358783Y-21828680D01*
X12730211Y-21900109D02*
X12958783Y-21900109D01*
X12844497Y-22014394D02*
X12844497Y-21785823D01*
X13315926Y-21742966D02*
X13330211Y-21728680D01*
X13358783Y-21714394D01*
X13430211Y-21714394D01*
X13458783Y-21728680D01*
X13473068Y-21742966D01*
X13487354Y-21771537D01*
X13487354Y-21800109D01*
X13473068Y-21842966D01*
X13301640Y-22014394D01*
X13487354Y-22014394D01*
X13830211Y-22000109D02*
X13858783Y-22014394D01*
X13915926Y-22014394D01*
X13944497Y-22000109D01*
X13958783Y-21971537D01*
X13958783Y-21957252D01*
X13944497Y-21928680D01*
X13915926Y-21914394D01*
X13873068Y-21914394D01*
X13844497Y-21900109D01*
X13830211Y-21871537D01*
X13830211Y-21857252D01*
X13844497Y-21828680D01*
X13873068Y-21814394D01*
X13915926Y-21814394D01*
X13944497Y-21828680D01*
X14130211Y-22014394D02*
X14101640Y-22000109D01*
X14087354Y-21971537D01*
X14087354Y-21714394D01*
X14287354Y-22014394D02*
X14258783Y-22000109D01*
X14244497Y-21985823D01*
X14230211Y-21957252D01*
X14230211Y-21871537D01*
X14244497Y-21842966D01*
X14258783Y-21828680D01*
X14287354Y-21814394D01*
X14330211Y-21814394D01*
X14358783Y-21828680D01*
X14373068Y-21842966D01*
X14387354Y-21871537D01*
X14387354Y-21957252D01*
X14373068Y-21985823D01*
X14358783Y-22000109D01*
X14330211Y-22014394D01*
X14287354Y-22014394D01*
X14473068Y-21814394D02*
X14587354Y-21814394D01*
X14515926Y-21714394D02*
X14515926Y-21971537D01*
X14530211Y-22000109D01*
X14558783Y-22014394D01*
X14587354Y-22014394D01*
X14673068Y-22000109D02*
X14701640Y-22014394D01*
X14758783Y-22014394D01*
X14787354Y-22000109D01*
X14801640Y-21971537D01*
X14801640Y-21957252D01*
X14787354Y-21928680D01*
X14758783Y-21914394D01*
X14715926Y-21914394D01*
X14687354Y-21900109D01*
X14673068Y-21871537D01*
X14673068Y-21857252D01*
X14687354Y-21828680D01*
X14715926Y-21814394D01*
X14758783Y-21814394D01*
X14787354Y-21828680D01*
X14901640Y-22128680D02*
X14915926Y-22114394D01*
X14944497Y-22071537D01*
X14958783Y-22042966D01*
X14973068Y-22000109D01*
X14987354Y-21928680D01*
X14987354Y-21871537D01*
X14973068Y-21800109D01*
X14958783Y-21757252D01*
X14944497Y-21728680D01*
X14915926Y-21685823D01*
X14901640Y-21671537D01*
X5936640Y-22324680D02*
X5986640Y-22274680D01*
X5936640Y-22224680D01*
X5886640Y-22274680D01*
X5936640Y-22324680D01*
X6430211Y-22410394D02*
X6258783Y-22410394D01*
X6344497Y-22410394D02*
X6344497Y-22110394D01*
X6315926Y-22153252D01*
X6287354Y-22181823D01*
X6258783Y-22196109D01*
X6558783Y-22381823D02*
X6573068Y-22396109D01*
X6558783Y-22410394D01*
X6544497Y-22396109D01*
X6558783Y-22381823D01*
X6558783Y-22410394D01*
X6758783Y-22110394D02*
X6787354Y-22110394D01*
X6815926Y-22124680D01*
X6830211Y-22138966D01*
X6844497Y-22167537D01*
X6858783Y-22224680D01*
X6858783Y-22296109D01*
X6844497Y-22353252D01*
X6830211Y-22381823D01*
X6815926Y-22396109D01*
X6787354Y-22410394D01*
X6758783Y-22410394D01*
X6730211Y-22396109D01*
X6715926Y-22381823D01*
X6701640Y-22353252D01*
X6687354Y-22296109D01*
X6687354Y-22224680D01*
X6701640Y-22167537D01*
X6715926Y-22138966D01*
X6730211Y-22124680D01*
X6758783Y-22110394D01*
X7044497Y-22110394D02*
X7073068Y-22110394D01*
X7101640Y-22124680D01*
X7115926Y-22138966D01*
X7130211Y-22167537D01*
X7144497Y-22224680D01*
X7144497Y-22296109D01*
X7130211Y-22353252D01*
X7115926Y-22381823D01*
X7101640Y-22396109D01*
X7073068Y-22410394D01*
X7044497Y-22410394D01*
X7015926Y-22396109D01*
X7001640Y-22381823D01*
X6987354Y-22353252D01*
X6973068Y-22296109D01*
X6973068Y-22224680D01*
X6987354Y-22167537D01*
X7001640Y-22138966D01*
X7015926Y-22124680D01*
X7044497Y-22110394D01*
X7273068Y-22410394D02*
X7273068Y-22210394D01*
X7273068Y-22238966D02*
X7287354Y-22224680D01*
X7315926Y-22210394D01*
X7358783Y-22210394D01*
X7387354Y-22224680D01*
X7401640Y-22253252D01*
X7401640Y-22410394D01*
X7401640Y-22253252D02*
X7415926Y-22224680D01*
X7444497Y-22210394D01*
X7487354Y-22210394D01*
X7515926Y-22224680D01*
X7530211Y-22253252D01*
X7530211Y-22410394D01*
X7673068Y-22410394D02*
X7673068Y-22210394D01*
X7673068Y-22238966D02*
X7687354Y-22224680D01*
X7715926Y-22210394D01*
X7758783Y-22210394D01*
X7787354Y-22224680D01*
X7801640Y-22253252D01*
X7801640Y-22410394D01*
X7801640Y-22253252D02*
X7815926Y-22224680D01*
X7844497Y-22210394D01*
X7887354Y-22210394D01*
X7915926Y-22224680D01*
X7930211Y-22253252D01*
X7930211Y-22410394D01*
X8515926Y-22096109D02*
X8258783Y-22481823D01*
X8901640Y-22110394D02*
X8930211Y-22110394D01*
X8958783Y-22124680D01*
X8973068Y-22138966D01*
X8987354Y-22167537D01*
X9001640Y-22224680D01*
X9001640Y-22296109D01*
X8987354Y-22353252D01*
X8973068Y-22381823D01*
X8958783Y-22396109D01*
X8930211Y-22410394D01*
X8901640Y-22410394D01*
X8873068Y-22396109D01*
X8858783Y-22381823D01*
X8844497Y-22353252D01*
X8830211Y-22296109D01*
X8830211Y-22224680D01*
X8844497Y-22167537D01*
X8858783Y-22138966D01*
X8873068Y-22124680D01*
X8901640Y-22110394D01*
X9130211Y-22381823D02*
X9144497Y-22396109D01*
X9130211Y-22410394D01*
X9115926Y-22396109D01*
X9130211Y-22381823D01*
X9130211Y-22410394D01*
X9330211Y-22110394D02*
X9358783Y-22110394D01*
X9387354Y-22124680D01*
X9401640Y-22138966D01*
X9415926Y-22167537D01*
X9430211Y-22224680D01*
X9430211Y-22296109D01*
X9415926Y-22353252D01*
X9401640Y-22381823D01*
X9387354Y-22396109D01*
X9358783Y-22410394D01*
X9330211Y-22410394D01*
X9301640Y-22396109D01*
X9287354Y-22381823D01*
X9273068Y-22353252D01*
X9258783Y-22296109D01*
X9258783Y-22224680D01*
X9273068Y-22167537D01*
X9287354Y-22138966D01*
X9301640Y-22124680D01*
X9330211Y-22110394D01*
X9530211Y-22110394D02*
X9715926Y-22110394D01*
X9615926Y-22224680D01*
X9658783Y-22224680D01*
X9687354Y-22238966D01*
X9701640Y-22253252D01*
X9715926Y-22281823D01*
X9715926Y-22353252D01*
X9701640Y-22381823D01*
X9687354Y-22396109D01*
X9658783Y-22410394D01*
X9573068Y-22410394D01*
X9544497Y-22396109D01*
X9530211Y-22381823D01*
X9858783Y-22410394D02*
X9915926Y-22410394D01*
X9944497Y-22396109D01*
X9958783Y-22381823D01*
X9987354Y-22338966D01*
X10001640Y-22281823D01*
X10001640Y-22167537D01*
X9987354Y-22138966D01*
X9973068Y-22124680D01*
X9944497Y-22110394D01*
X9887354Y-22110394D01*
X9858783Y-22124680D01*
X9844497Y-22138966D01*
X9830211Y-22167537D01*
X9830211Y-22238966D01*
X9844497Y-22267537D01*
X9858783Y-22281823D01*
X9887354Y-22296109D01*
X9944497Y-22296109D01*
X9973068Y-22281823D01*
X9987354Y-22267537D01*
X10001640Y-22238966D01*
X10115926Y-22110394D02*
X10115926Y-22167537D01*
X10230211Y-22110394D02*
X10230211Y-22167537D01*
X10673068Y-22524680D02*
X10658783Y-22510394D01*
X10630211Y-22467537D01*
X10615926Y-22438966D01*
X10601640Y-22396109D01*
X10587354Y-22324680D01*
X10587354Y-22267537D01*
X10601640Y-22196109D01*
X10615926Y-22153252D01*
X10630211Y-22124680D01*
X10658783Y-22081823D01*
X10673068Y-22067537D01*
X10758783Y-22110394D02*
X10958783Y-22110394D01*
X10830211Y-22410394D01*
X11130211Y-22110394D02*
X11158783Y-22110394D01*
X11187354Y-22124680D01*
X11201640Y-22138966D01*
X11215926Y-22167537D01*
X11230211Y-22224680D01*
X11230211Y-22296109D01*
X11215926Y-22353252D01*
X11201640Y-22381823D01*
X11187354Y-22396109D01*
X11158783Y-22410394D01*
X11130211Y-22410394D01*
X11101640Y-22396109D01*
X11087354Y-22381823D01*
X11073068Y-22353252D01*
X11058783Y-22296109D01*
X11058783Y-22224680D01*
X11073068Y-22167537D01*
X11087354Y-22138966D01*
X11101640Y-22124680D01*
X11130211Y-22110394D01*
X11587354Y-22410394D02*
X11587354Y-22110394D01*
X11715926Y-22410394D02*
X11715926Y-22253252D01*
X11701640Y-22224680D01*
X11673068Y-22210394D01*
X11630211Y-22210394D01*
X11601640Y-22224680D01*
X11587354Y-22238966D01*
X11901640Y-22410394D02*
X11873068Y-22396109D01*
X11858783Y-22381823D01*
X11844497Y-22353252D01*
X11844497Y-22267537D01*
X11858783Y-22238966D01*
X11873068Y-22224680D01*
X11901640Y-22210394D01*
X11944497Y-22210394D01*
X11973068Y-22224680D01*
X11987354Y-22238966D01*
X12001640Y-22267537D01*
X12001640Y-22353252D01*
X11987354Y-22381823D01*
X11973068Y-22396109D01*
X11944497Y-22410394D01*
X11901640Y-22410394D01*
X12173068Y-22410394D02*
X12144497Y-22396109D01*
X12130211Y-22367537D01*
X12130211Y-22110394D01*
X12401640Y-22396109D02*
X12373068Y-22410394D01*
X12315926Y-22410394D01*
X12287354Y-22396109D01*
X12273068Y-22367537D01*
X12273068Y-22253252D01*
X12287354Y-22224680D01*
X12315926Y-22210394D01*
X12373068Y-22210394D01*
X12401640Y-22224680D01*
X12415926Y-22253252D01*
X12415926Y-22281823D01*
X12273068Y-22310394D01*
X12530211Y-22396109D02*
X12558783Y-22410394D01*
X12615926Y-22410394D01*
X12644497Y-22396109D01*
X12658783Y-22367537D01*
X12658783Y-22353252D01*
X12644497Y-22324680D01*
X12615926Y-22310394D01*
X12573068Y-22310394D01*
X12544497Y-22296109D01*
X12530211Y-22267537D01*
X12530211Y-22253252D01*
X12544497Y-22224680D01*
X12573068Y-22210394D01*
X12615926Y-22210394D01*
X12644497Y-22224680D01*
X12758783Y-22524680D02*
X12773068Y-22510394D01*
X12801640Y-22467537D01*
X12815926Y-22438966D01*
X12830211Y-22396109D01*
X12844497Y-22324680D01*
X12844497Y-22267537D01*
X12830211Y-22196109D01*
X12815926Y-22153252D01*
X12801640Y-22124680D01*
X12773068Y-22081823D01*
X12758783Y-22067537D01*
X5686640Y-22520680D02*
X5986640Y-22820680D01*
X5986640Y-22520680D02*
X5686640Y-22820680D01*
X5986640Y-22670680D02*
G75*
G03*
X5986640Y-22670680I-150000J0D01*
G01*
X6244497Y-22506394D02*
X6430211Y-22506394D01*
X6330211Y-22620680D01*
X6373068Y-22620680D01*
X6401640Y-22634966D01*
X6415926Y-22649251D01*
X6430211Y-22677823D01*
X6430211Y-22749251D01*
X6415926Y-22777823D01*
X6401640Y-22792109D01*
X6373068Y-22806394D01*
X6287354Y-22806394D01*
X6258783Y-22792109D01*
X6244497Y-22777823D01*
X6558783Y-22777823D02*
X6573068Y-22792109D01*
X6558783Y-22806394D01*
X6544497Y-22792109D01*
X6558783Y-22777823D01*
X6558783Y-22806394D01*
X6758783Y-22506394D02*
X6787354Y-22506394D01*
X6815926Y-22520680D01*
X6830211Y-22534966D01*
X6844497Y-22563537D01*
X6858783Y-22620680D01*
X6858783Y-22692109D01*
X6844497Y-22749251D01*
X6830211Y-22777823D01*
X6815926Y-22792109D01*
X6787354Y-22806394D01*
X6758783Y-22806394D01*
X6730211Y-22792109D01*
X6715926Y-22777823D01*
X6701640Y-22749251D01*
X6687354Y-22692109D01*
X6687354Y-22620680D01*
X6701640Y-22563537D01*
X6715926Y-22534966D01*
X6730211Y-22520680D01*
X6758783Y-22506394D01*
X7044497Y-22506394D02*
X7073068Y-22506394D01*
X7101640Y-22520680D01*
X7115926Y-22534966D01*
X7130211Y-22563537D01*
X7144497Y-22620680D01*
X7144497Y-22692109D01*
X7130211Y-22749251D01*
X7115926Y-22777823D01*
X7101640Y-22792109D01*
X7073068Y-22806394D01*
X7044497Y-22806394D01*
X7015926Y-22792109D01*
X7001640Y-22777823D01*
X6987354Y-22749251D01*
X6973068Y-22692109D01*
X6973068Y-22620680D01*
X6987354Y-22563537D01*
X7001640Y-22534966D01*
X7015926Y-22520680D01*
X7044497Y-22506394D01*
X7273068Y-22806394D02*
X7273068Y-22606394D01*
X7273068Y-22634966D02*
X7287354Y-22620680D01*
X7315926Y-22606394D01*
X7358783Y-22606394D01*
X7387354Y-22620680D01*
X7401640Y-22649251D01*
X7401640Y-22806394D01*
X7401640Y-22649251D02*
X7415926Y-22620680D01*
X7444497Y-22606394D01*
X7487354Y-22606394D01*
X7515926Y-22620680D01*
X7530211Y-22649251D01*
X7530211Y-22806394D01*
X7673068Y-22806394D02*
X7673068Y-22606394D01*
X7673068Y-22634966D02*
X7687354Y-22620680D01*
X7715926Y-22606394D01*
X7758783Y-22606394D01*
X7787354Y-22620680D01*
X7801640Y-22649251D01*
X7801640Y-22806394D01*
X7801640Y-22649251D02*
X7815926Y-22620680D01*
X7844497Y-22606394D01*
X7887354Y-22606394D01*
X7915926Y-22620680D01*
X7930211Y-22649251D01*
X7930211Y-22806394D01*
X8515926Y-22492109D02*
X8258783Y-22877823D01*
X8901640Y-22506394D02*
X8930211Y-22506394D01*
X8958783Y-22520680D01*
X8973068Y-22534966D01*
X8987354Y-22563537D01*
X9001640Y-22620680D01*
X9001640Y-22692109D01*
X8987354Y-22749251D01*
X8973068Y-22777823D01*
X8958783Y-22792109D01*
X8930211Y-22806394D01*
X8901640Y-22806394D01*
X8873068Y-22792109D01*
X8858783Y-22777823D01*
X8844497Y-22749251D01*
X8830211Y-22692109D01*
X8830211Y-22620680D01*
X8844497Y-22563537D01*
X8858783Y-22534966D01*
X8873068Y-22520680D01*
X8901640Y-22506394D01*
X9130211Y-22777823D02*
X9144497Y-22792109D01*
X9130211Y-22806394D01*
X9115926Y-22792109D01*
X9130211Y-22777823D01*
X9130211Y-22806394D01*
X9430211Y-22806394D02*
X9258783Y-22806394D01*
X9344497Y-22806394D02*
X9344497Y-22506394D01*
X9315926Y-22549251D01*
X9287354Y-22577823D01*
X9258783Y-22592109D01*
X9715926Y-22806394D02*
X9544497Y-22806394D01*
X9630211Y-22806394D02*
X9630211Y-22506394D01*
X9601640Y-22549251D01*
X9573068Y-22577823D01*
X9544497Y-22592109D01*
X9887354Y-22634966D02*
X9858783Y-22620680D01*
X9844497Y-22606394D01*
X9830211Y-22577823D01*
X9830211Y-22563537D01*
X9844497Y-22534966D01*
X9858783Y-22520680D01*
X9887354Y-22506394D01*
X9944497Y-22506394D01*
X9973068Y-22520680D01*
X9987354Y-22534966D01*
X10001640Y-22563537D01*
X10001640Y-22577823D01*
X9987354Y-22606394D01*
X9973068Y-22620680D01*
X9944497Y-22634966D01*
X9887354Y-22634966D01*
X9858783Y-22649251D01*
X9844497Y-22663537D01*
X9830211Y-22692109D01*
X9830211Y-22749251D01*
X9844497Y-22777823D01*
X9858783Y-22792109D01*
X9887354Y-22806394D01*
X9944497Y-22806394D01*
X9973068Y-22792109D01*
X9987354Y-22777823D01*
X10001640Y-22749251D01*
X10001640Y-22692109D01*
X9987354Y-22663537D01*
X9973068Y-22649251D01*
X9944497Y-22634966D01*
X10115926Y-22506394D02*
X10115926Y-22563537D01*
X10230211Y-22506394D02*
X10230211Y-22563537D01*
X10673068Y-22920680D02*
X10658783Y-22906394D01*
X10630211Y-22863537D01*
X10615926Y-22834966D01*
X10601640Y-22792109D01*
X10587354Y-22720680D01*
X10587354Y-22663537D01*
X10601640Y-22592109D01*
X10615926Y-22549251D01*
X10630211Y-22520680D01*
X10658783Y-22477823D01*
X10673068Y-22463537D01*
X10915926Y-22506394D02*
X10858783Y-22506394D01*
X10830211Y-22520680D01*
X10815926Y-22534966D01*
X10787354Y-22577823D01*
X10773068Y-22634966D01*
X10773068Y-22749251D01*
X10787354Y-22777823D01*
X10801640Y-22792109D01*
X10830211Y-22806394D01*
X10887354Y-22806394D01*
X10915926Y-22792109D01*
X10930211Y-22777823D01*
X10944497Y-22749251D01*
X10944497Y-22677823D01*
X10930211Y-22649251D01*
X10915926Y-22634966D01*
X10887354Y-22620680D01*
X10830211Y-22620680D01*
X10801640Y-22634966D01*
X10787354Y-22649251D01*
X10773068Y-22677823D01*
X11301640Y-22806394D02*
X11301640Y-22506394D01*
X11430211Y-22806394D02*
X11430211Y-22649251D01*
X11415926Y-22620680D01*
X11387354Y-22606394D01*
X11344497Y-22606394D01*
X11315926Y-22620680D01*
X11301640Y-22634966D01*
X11615926Y-22806394D02*
X11587354Y-22792109D01*
X11573068Y-22777823D01*
X11558783Y-22749251D01*
X11558783Y-22663537D01*
X11573068Y-22634966D01*
X11587354Y-22620680D01*
X11615926Y-22606394D01*
X11658783Y-22606394D01*
X11687354Y-22620680D01*
X11701640Y-22634966D01*
X11715926Y-22663537D01*
X11715926Y-22749251D01*
X11701640Y-22777823D01*
X11687354Y-22792109D01*
X11658783Y-22806394D01*
X11615926Y-22806394D01*
X11887354Y-22806394D02*
X11858783Y-22792109D01*
X11844497Y-22763537D01*
X11844497Y-22506394D01*
X12115926Y-22792109D02*
X12087354Y-22806394D01*
X12030211Y-22806394D01*
X12001640Y-22792109D01*
X11987354Y-22763537D01*
X11987354Y-22649251D01*
X12001640Y-22620680D01*
X12030211Y-22606394D01*
X12087354Y-22606394D01*
X12115926Y-22620680D01*
X12130211Y-22649251D01*
X12130211Y-22677823D01*
X11987354Y-22706394D01*
X12244497Y-22792109D02*
X12273068Y-22806394D01*
X12330211Y-22806394D01*
X12358783Y-22792109D01*
X12373068Y-22763537D01*
X12373068Y-22749251D01*
X12358783Y-22720680D01*
X12330211Y-22706394D01*
X12287354Y-22706394D01*
X12258783Y-22692109D01*
X12244497Y-22663537D01*
X12244497Y-22649251D01*
X12258783Y-22620680D01*
X12287354Y-22606394D01*
X12330211Y-22606394D01*
X12358783Y-22620680D01*
X12473068Y-22920680D02*
X12487354Y-22906394D01*
X12515926Y-22863537D01*
X12530211Y-22834966D01*
X12544497Y-22792109D01*
X12558783Y-22720680D01*
X12558783Y-22663537D01*
X12544497Y-22592109D01*
X12530211Y-22549251D01*
X12515926Y-22520680D01*
X12487354Y-22477823D01*
X12473068Y-22463537D01*
M02*
