G04 #@! TF.GenerationSoftware,KiCad,Pcbnew,(5.1.9)-1*
G04 #@! TF.CreationDate,2021-06-08T08:09:59+01:00*
G04 #@! TF.ProjectId,Looper_Board,4c6f6f70-6572-45f4-926f-6172642e6b69,rev?*
G04 #@! TF.SameCoordinates,Original*
G04 #@! TF.FileFunction,Soldermask,Top*
G04 #@! TF.FilePolarity,Negative*
%FSLAX46Y46*%
G04 Gerber Fmt 4.6, Leading zero omitted, Abs format (unit mm)*
G04 Created by KiCad (PCBNEW (5.1.9)-1) date 2021-06-08 08:09:59*
%MOMM*%
%LPD*%
G01*
G04 APERTURE LIST*
%ADD10R,1.700000X1.700000*%
%ADD11O,1.700000X1.700000*%
%ADD12O,1.250000X1.050000*%
%ADD13O,1.900000X1.000000*%
%ADD14C,1.500000*%
%ADD15C,2.374900*%
%ADD16C,0.990600*%
%ADD17C,0.800000*%
%ADD18C,6.000000*%
G04 APERTURE END LIST*
G36*
G01*
X93004500Y-109792900D02*
X93304500Y-109792900D01*
G75*
G02*
X93454500Y-109942900I0J-150000D01*
G01*
X93454500Y-111592900D01*
G75*
G02*
X93304500Y-111742900I-150000J0D01*
G01*
X93004500Y-111742900D01*
G75*
G02*
X92854500Y-111592900I0J150000D01*
G01*
X92854500Y-109942900D01*
G75*
G02*
X93004500Y-109792900I150000J0D01*
G01*
G37*
G36*
G01*
X91734500Y-109792900D02*
X92034500Y-109792900D01*
G75*
G02*
X92184500Y-109942900I0J-150000D01*
G01*
X92184500Y-111592900D01*
G75*
G02*
X92034500Y-111742900I-150000J0D01*
G01*
X91734500Y-111742900D01*
G75*
G02*
X91584500Y-111592900I0J150000D01*
G01*
X91584500Y-109942900D01*
G75*
G02*
X91734500Y-109792900I150000J0D01*
G01*
G37*
G36*
G01*
X90464500Y-109792900D02*
X90764500Y-109792900D01*
G75*
G02*
X90914500Y-109942900I0J-150000D01*
G01*
X90914500Y-111592900D01*
G75*
G02*
X90764500Y-111742900I-150000J0D01*
G01*
X90464500Y-111742900D01*
G75*
G02*
X90314500Y-111592900I0J150000D01*
G01*
X90314500Y-109942900D01*
G75*
G02*
X90464500Y-109792900I150000J0D01*
G01*
G37*
G36*
G01*
X89194500Y-109792900D02*
X89494500Y-109792900D01*
G75*
G02*
X89644500Y-109942900I0J-150000D01*
G01*
X89644500Y-111592900D01*
G75*
G02*
X89494500Y-111742900I-150000J0D01*
G01*
X89194500Y-111742900D01*
G75*
G02*
X89044500Y-111592900I0J150000D01*
G01*
X89044500Y-109942900D01*
G75*
G02*
X89194500Y-109792900I150000J0D01*
G01*
G37*
G36*
G01*
X87924500Y-109792900D02*
X88224500Y-109792900D01*
G75*
G02*
X88374500Y-109942900I0J-150000D01*
G01*
X88374500Y-111592900D01*
G75*
G02*
X88224500Y-111742900I-150000J0D01*
G01*
X87924500Y-111742900D01*
G75*
G02*
X87774500Y-111592900I0J150000D01*
G01*
X87774500Y-109942900D01*
G75*
G02*
X87924500Y-109792900I150000J0D01*
G01*
G37*
G36*
G01*
X86654500Y-109792900D02*
X86954500Y-109792900D01*
G75*
G02*
X87104500Y-109942900I0J-150000D01*
G01*
X87104500Y-111592900D01*
G75*
G02*
X86954500Y-111742900I-150000J0D01*
G01*
X86654500Y-111742900D01*
G75*
G02*
X86504500Y-111592900I0J150000D01*
G01*
X86504500Y-109942900D01*
G75*
G02*
X86654500Y-109792900I150000J0D01*
G01*
G37*
G36*
G01*
X85384500Y-109792900D02*
X85684500Y-109792900D01*
G75*
G02*
X85834500Y-109942900I0J-150000D01*
G01*
X85834500Y-111592900D01*
G75*
G02*
X85684500Y-111742900I-150000J0D01*
G01*
X85384500Y-111742900D01*
G75*
G02*
X85234500Y-111592900I0J150000D01*
G01*
X85234500Y-109942900D01*
G75*
G02*
X85384500Y-109792900I150000J0D01*
G01*
G37*
G36*
G01*
X85384500Y-104842900D02*
X85684500Y-104842900D01*
G75*
G02*
X85834500Y-104992900I0J-150000D01*
G01*
X85834500Y-106642900D01*
G75*
G02*
X85684500Y-106792900I-150000J0D01*
G01*
X85384500Y-106792900D01*
G75*
G02*
X85234500Y-106642900I0J150000D01*
G01*
X85234500Y-104992900D01*
G75*
G02*
X85384500Y-104842900I150000J0D01*
G01*
G37*
G36*
G01*
X86654500Y-104842900D02*
X86954500Y-104842900D01*
G75*
G02*
X87104500Y-104992900I0J-150000D01*
G01*
X87104500Y-106642900D01*
G75*
G02*
X86954500Y-106792900I-150000J0D01*
G01*
X86654500Y-106792900D01*
G75*
G02*
X86504500Y-106642900I0J150000D01*
G01*
X86504500Y-104992900D01*
G75*
G02*
X86654500Y-104842900I150000J0D01*
G01*
G37*
G36*
G01*
X87924500Y-104842900D02*
X88224500Y-104842900D01*
G75*
G02*
X88374500Y-104992900I0J-150000D01*
G01*
X88374500Y-106642900D01*
G75*
G02*
X88224500Y-106792900I-150000J0D01*
G01*
X87924500Y-106792900D01*
G75*
G02*
X87774500Y-106642900I0J150000D01*
G01*
X87774500Y-104992900D01*
G75*
G02*
X87924500Y-104842900I150000J0D01*
G01*
G37*
G36*
G01*
X89194500Y-104842900D02*
X89494500Y-104842900D01*
G75*
G02*
X89644500Y-104992900I0J-150000D01*
G01*
X89644500Y-106642900D01*
G75*
G02*
X89494500Y-106792900I-150000J0D01*
G01*
X89194500Y-106792900D01*
G75*
G02*
X89044500Y-106642900I0J150000D01*
G01*
X89044500Y-104992900D01*
G75*
G02*
X89194500Y-104842900I150000J0D01*
G01*
G37*
G36*
G01*
X90464500Y-104842900D02*
X90764500Y-104842900D01*
G75*
G02*
X90914500Y-104992900I0J-150000D01*
G01*
X90914500Y-106642900D01*
G75*
G02*
X90764500Y-106792900I-150000J0D01*
G01*
X90464500Y-106792900D01*
G75*
G02*
X90314500Y-106642900I0J150000D01*
G01*
X90314500Y-104992900D01*
G75*
G02*
X90464500Y-104842900I150000J0D01*
G01*
G37*
G36*
G01*
X91734500Y-104842900D02*
X92034500Y-104842900D01*
G75*
G02*
X92184500Y-104992900I0J-150000D01*
G01*
X92184500Y-106642900D01*
G75*
G02*
X92034500Y-106792900I-150000J0D01*
G01*
X91734500Y-106792900D01*
G75*
G02*
X91584500Y-106642900I0J150000D01*
G01*
X91584500Y-104992900D01*
G75*
G02*
X91734500Y-104842900I150000J0D01*
G01*
G37*
G36*
G01*
X93004500Y-104842900D02*
X93304500Y-104842900D01*
G75*
G02*
X93454500Y-104992900I0J-150000D01*
G01*
X93454500Y-106642900D01*
G75*
G02*
X93304500Y-106792900I-150000J0D01*
G01*
X93004500Y-106792900D01*
G75*
G02*
X92854500Y-106642900I0J150000D01*
G01*
X92854500Y-104992900D01*
G75*
G02*
X93004500Y-104842900I150000J0D01*
G01*
G37*
D10*
X90360500Y-184099200D03*
D11*
X87820500Y-184099200D03*
G36*
G01*
X94554100Y-100980900D02*
X94244100Y-100980900D01*
G75*
G02*
X94089100Y-100825900I0J155000D01*
G01*
X94089100Y-100400900D01*
G75*
G02*
X94244100Y-100245900I155000J0D01*
G01*
X94554100Y-100245900D01*
G75*
G02*
X94709100Y-100400900I0J-155000D01*
G01*
X94709100Y-100825900D01*
G75*
G02*
X94554100Y-100980900I-155000J0D01*
G01*
G37*
G36*
G01*
X94554100Y-102115900D02*
X94244100Y-102115900D01*
G75*
G02*
X94089100Y-101960900I0J155000D01*
G01*
X94089100Y-101535900D01*
G75*
G02*
X94244100Y-101380900I155000J0D01*
G01*
X94554100Y-101380900D01*
G75*
G02*
X94709100Y-101535900I0J-155000D01*
G01*
X94709100Y-101960900D01*
G75*
G02*
X94554100Y-102115900I-155000J0D01*
G01*
G37*
G36*
G01*
X89392100Y-161724400D02*
X89392100Y-161414400D01*
G75*
G02*
X89547100Y-161259400I155000J0D01*
G01*
X89972100Y-161259400D01*
G75*
G02*
X90127100Y-161414400I0J-155000D01*
G01*
X90127100Y-161724400D01*
G75*
G02*
X89972100Y-161879400I-155000J0D01*
G01*
X89547100Y-161879400D01*
G75*
G02*
X89392100Y-161724400I0J155000D01*
G01*
G37*
G36*
G01*
X88257100Y-161724400D02*
X88257100Y-161414400D01*
G75*
G02*
X88412100Y-161259400I155000J0D01*
G01*
X88837100Y-161259400D01*
G75*
G02*
X88992100Y-161414400I0J-155000D01*
G01*
X88992100Y-161724400D01*
G75*
G02*
X88837100Y-161879400I-155000J0D01*
G01*
X88412100Y-161879400D01*
G75*
G02*
X88257100Y-161724400I0J155000D01*
G01*
G37*
G36*
G01*
X89557800Y-116544700D02*
X89867800Y-116544700D01*
G75*
G02*
X90022800Y-116699700I0J-155000D01*
G01*
X90022800Y-117124700D01*
G75*
G02*
X89867800Y-117279700I-155000J0D01*
G01*
X89557800Y-117279700D01*
G75*
G02*
X89402800Y-117124700I0J155000D01*
G01*
X89402800Y-116699700D01*
G75*
G02*
X89557800Y-116544700I155000J0D01*
G01*
G37*
G36*
G01*
X89557800Y-115409700D02*
X89867800Y-115409700D01*
G75*
G02*
X90022800Y-115564700I0J-155000D01*
G01*
X90022800Y-115989700D01*
G75*
G02*
X89867800Y-116144700I-155000J0D01*
G01*
X89557800Y-116144700D01*
G75*
G02*
X89402800Y-115989700I0J155000D01*
G01*
X89402800Y-115564700D01*
G75*
G02*
X89557800Y-115409700I155000J0D01*
G01*
G37*
G36*
G01*
X92478800Y-115409700D02*
X92788800Y-115409700D01*
G75*
G02*
X92943800Y-115564700I0J-155000D01*
G01*
X92943800Y-115989700D01*
G75*
G02*
X92788800Y-116144700I-155000J0D01*
G01*
X92478800Y-116144700D01*
G75*
G02*
X92323800Y-115989700I0J155000D01*
G01*
X92323800Y-115564700D01*
G75*
G02*
X92478800Y-115409700I155000J0D01*
G01*
G37*
G36*
G01*
X92478800Y-116544700D02*
X92788800Y-116544700D01*
G75*
G02*
X92943800Y-116699700I0J-155000D01*
G01*
X92943800Y-117124700D01*
G75*
G02*
X92788800Y-117279700I-155000J0D01*
G01*
X92478800Y-117279700D01*
G75*
G02*
X92323800Y-117124700I0J155000D01*
G01*
X92323800Y-116699700D01*
G75*
G02*
X92478800Y-116544700I155000J0D01*
G01*
G37*
G36*
G01*
X94693800Y-125737900D02*
X94383800Y-125737900D01*
G75*
G02*
X94228800Y-125582900I0J155000D01*
G01*
X94228800Y-125157900D01*
G75*
G02*
X94383800Y-125002900I155000J0D01*
G01*
X94693800Y-125002900D01*
G75*
G02*
X94848800Y-125157900I0J-155000D01*
G01*
X94848800Y-125582900D01*
G75*
G02*
X94693800Y-125737900I-155000J0D01*
G01*
G37*
G36*
G01*
X94693800Y-124602900D02*
X94383800Y-124602900D01*
G75*
G02*
X94228800Y-124447900I0J155000D01*
G01*
X94228800Y-124022900D01*
G75*
G02*
X94383800Y-123867900I155000J0D01*
G01*
X94693800Y-123867900D01*
G75*
G02*
X94848800Y-124022900I0J-155000D01*
G01*
X94848800Y-124447900D01*
G75*
G02*
X94693800Y-124602900I-155000J0D01*
G01*
G37*
G36*
G01*
X90756800Y-125585500D02*
X90446800Y-125585500D01*
G75*
G02*
X90291800Y-125430500I0J155000D01*
G01*
X90291800Y-125005500D01*
G75*
G02*
X90446800Y-124850500I155000J0D01*
G01*
X90756800Y-124850500D01*
G75*
G02*
X90911800Y-125005500I0J-155000D01*
G01*
X90911800Y-125430500D01*
G75*
G02*
X90756800Y-125585500I-155000J0D01*
G01*
G37*
G36*
G01*
X90756800Y-124450500D02*
X90446800Y-124450500D01*
G75*
G02*
X90291800Y-124295500I0J155000D01*
G01*
X90291800Y-123870500D01*
G75*
G02*
X90446800Y-123715500I155000J0D01*
G01*
X90756800Y-123715500D01*
G75*
G02*
X90911800Y-123870500I0J-155000D01*
G01*
X90911800Y-124295500D01*
G75*
G02*
X90756800Y-124450500I-155000J0D01*
G01*
G37*
G36*
G01*
X90192800Y-139760300D02*
X90502800Y-139760300D01*
G75*
G02*
X90657800Y-139915300I0J-155000D01*
G01*
X90657800Y-140340300D01*
G75*
G02*
X90502800Y-140495300I-155000J0D01*
G01*
X90192800Y-140495300D01*
G75*
G02*
X90037800Y-140340300I0J155000D01*
G01*
X90037800Y-139915300D01*
G75*
G02*
X90192800Y-139760300I155000J0D01*
G01*
G37*
G36*
G01*
X90192800Y-138625300D02*
X90502800Y-138625300D01*
G75*
G02*
X90657800Y-138780300I0J-155000D01*
G01*
X90657800Y-139205300D01*
G75*
G02*
X90502800Y-139360300I-155000J0D01*
G01*
X90192800Y-139360300D01*
G75*
G02*
X90037800Y-139205300I0J155000D01*
G01*
X90037800Y-138780300D01*
G75*
G02*
X90192800Y-138625300I155000J0D01*
G01*
G37*
G36*
G01*
X89354000Y-172748000D02*
X89354000Y-172438000D01*
G75*
G02*
X89509000Y-172283000I155000J0D01*
G01*
X89934000Y-172283000D01*
G75*
G02*
X90089000Y-172438000I0J-155000D01*
G01*
X90089000Y-172748000D01*
G75*
G02*
X89934000Y-172903000I-155000J0D01*
G01*
X89509000Y-172903000D01*
G75*
G02*
X89354000Y-172748000I0J155000D01*
G01*
G37*
G36*
G01*
X88219000Y-172748000D02*
X88219000Y-172438000D01*
G75*
G02*
X88374000Y-172283000I155000J0D01*
G01*
X88799000Y-172283000D01*
G75*
G02*
X88954000Y-172438000I0J-155000D01*
G01*
X88954000Y-172748000D01*
G75*
G02*
X88799000Y-172903000I-155000J0D01*
G01*
X88374000Y-172903000D01*
G75*
G02*
X88219000Y-172748000I0J155000D01*
G01*
G37*
G36*
G01*
X93088400Y-138625300D02*
X93398400Y-138625300D01*
G75*
G02*
X93553400Y-138780300I0J-155000D01*
G01*
X93553400Y-139205300D01*
G75*
G02*
X93398400Y-139360300I-155000J0D01*
G01*
X93088400Y-139360300D01*
G75*
G02*
X92933400Y-139205300I0J155000D01*
G01*
X92933400Y-138780300D01*
G75*
G02*
X93088400Y-138625300I155000J0D01*
G01*
G37*
G36*
G01*
X93088400Y-139760300D02*
X93398400Y-139760300D01*
G75*
G02*
X93553400Y-139915300I0J-155000D01*
G01*
X93553400Y-140340300D01*
G75*
G02*
X93398400Y-140495300I-155000J0D01*
G01*
X93088400Y-140495300D01*
G75*
G02*
X92933400Y-140340300I0J155000D01*
G01*
X92933400Y-139915300D01*
G75*
G02*
X93088400Y-139760300I155000J0D01*
G01*
G37*
G36*
G01*
X85798600Y-116557400D02*
X86108600Y-116557400D01*
G75*
G02*
X86263600Y-116712400I0J-155000D01*
G01*
X86263600Y-117137400D01*
G75*
G02*
X86108600Y-117292400I-155000J0D01*
G01*
X85798600Y-117292400D01*
G75*
G02*
X85643600Y-117137400I0J155000D01*
G01*
X85643600Y-116712400D01*
G75*
G02*
X85798600Y-116557400I155000J0D01*
G01*
G37*
G36*
G01*
X85798600Y-115422400D02*
X86108600Y-115422400D01*
G75*
G02*
X86263600Y-115577400I0J-155000D01*
G01*
X86263600Y-116002400D01*
G75*
G02*
X86108600Y-116157400I-155000J0D01*
G01*
X85798600Y-116157400D01*
G75*
G02*
X85643600Y-116002400I0J155000D01*
G01*
X85643600Y-115577400D01*
G75*
G02*
X85798600Y-115422400I155000J0D01*
G01*
G37*
G36*
G01*
X88422200Y-53647400D02*
X88422200Y-53337400D01*
G75*
G02*
X88577200Y-53182400I155000J0D01*
G01*
X89002200Y-53182400D01*
G75*
G02*
X89157200Y-53337400I0J-155000D01*
G01*
X89157200Y-53647400D01*
G75*
G02*
X89002200Y-53802400I-155000J0D01*
G01*
X88577200Y-53802400D01*
G75*
G02*
X88422200Y-53647400I0J155000D01*
G01*
G37*
G36*
G01*
X89557200Y-53647400D02*
X89557200Y-53337400D01*
G75*
G02*
X89712200Y-53182400I155000J0D01*
G01*
X90137200Y-53182400D01*
G75*
G02*
X90292200Y-53337400I0J-155000D01*
G01*
X90292200Y-53647400D01*
G75*
G02*
X90137200Y-53802400I-155000J0D01*
G01*
X89712200Y-53802400D01*
G75*
G02*
X89557200Y-53647400I0J155000D01*
G01*
G37*
G36*
G01*
X90642500Y-101912700D02*
X90332500Y-101912700D01*
G75*
G02*
X90177500Y-101757700I0J155000D01*
G01*
X90177500Y-101332700D01*
G75*
G02*
X90332500Y-101177700I155000J0D01*
G01*
X90642500Y-101177700D01*
G75*
G02*
X90797500Y-101332700I0J-155000D01*
G01*
X90797500Y-101757700D01*
G75*
G02*
X90642500Y-101912700I-155000J0D01*
G01*
G37*
G36*
G01*
X90642500Y-100777700D02*
X90332500Y-100777700D01*
G75*
G02*
X90177500Y-100622700I0J155000D01*
G01*
X90177500Y-100197700D01*
G75*
G02*
X90332500Y-100042700I155000J0D01*
G01*
X90642500Y-100042700D01*
G75*
G02*
X90797500Y-100197700I0J-155000D01*
G01*
X90797500Y-100622700D01*
G75*
G02*
X90642500Y-100777700I-155000J0D01*
G01*
G37*
G36*
G01*
X95506600Y-107635700D02*
X95196600Y-107635700D01*
G75*
G02*
X95041600Y-107480700I0J155000D01*
G01*
X95041600Y-107055700D01*
G75*
G02*
X95196600Y-106900700I155000J0D01*
G01*
X95506600Y-106900700D01*
G75*
G02*
X95661600Y-107055700I0J-155000D01*
G01*
X95661600Y-107480700D01*
G75*
G02*
X95506600Y-107635700I-155000J0D01*
G01*
G37*
G36*
G01*
X95506600Y-108770700D02*
X95196600Y-108770700D01*
G75*
G02*
X95041600Y-108615700I0J155000D01*
G01*
X95041600Y-108190700D01*
G75*
G02*
X95196600Y-108035700I155000J0D01*
G01*
X95506600Y-108035700D01*
G75*
G02*
X95661600Y-108190700I0J-155000D01*
G01*
X95661600Y-108615700D01*
G75*
G02*
X95506600Y-108770700I-155000J0D01*
G01*
G37*
G36*
G01*
X96135800Y-136921300D02*
X96135800Y-136611300D01*
G75*
G02*
X96290800Y-136456300I155000J0D01*
G01*
X96715800Y-136456300D01*
G75*
G02*
X96870800Y-136611300I0J-155000D01*
G01*
X96870800Y-136921300D01*
G75*
G02*
X96715800Y-137076300I-155000J0D01*
G01*
X96290800Y-137076300D01*
G75*
G02*
X96135800Y-136921300I0J155000D01*
G01*
G37*
G36*
G01*
X95000800Y-136921300D02*
X95000800Y-136611300D01*
G75*
G02*
X95155800Y-136456300I155000J0D01*
G01*
X95580800Y-136456300D01*
G75*
G02*
X95735800Y-136611300I0J-155000D01*
G01*
X95735800Y-136921300D01*
G75*
G02*
X95580800Y-137076300I-155000J0D01*
G01*
X95155800Y-137076300D01*
G75*
G02*
X95000800Y-136921300I0J155000D01*
G01*
G37*
D10*
X72720200Y-162267900D03*
D11*
X70180200Y-162267900D03*
X72720200Y-164807900D03*
X70180200Y-164807900D03*
X72720200Y-167347900D03*
X70180200Y-167347900D03*
X72720200Y-169887900D03*
X70180200Y-169887900D03*
X72720200Y-172427900D03*
X70180200Y-172427900D03*
X72720200Y-174967900D03*
X70180200Y-174967900D03*
X72720200Y-177507900D03*
X70180200Y-177507900D03*
X113804700Y-111937800D03*
X111264700Y-111937800D03*
D10*
X108724700Y-111937800D03*
X114096800Y-120116600D03*
D11*
X111556800Y-120116600D03*
X109016800Y-120116600D03*
D12*
X64366400Y-100777000D03*
X64366400Y-96327000D03*
D13*
X61366400Y-102727000D03*
X61366400Y-94377000D03*
D10*
X72593200Y-49237900D03*
D11*
X70053200Y-49237900D03*
X72593200Y-51777900D03*
X70053200Y-51777900D03*
X72593200Y-54317900D03*
X70053200Y-54317900D03*
X72593200Y-56857900D03*
X70053200Y-56857900D03*
D10*
X142036800Y-142151100D03*
D11*
X144576800Y-142151100D03*
D10*
X72567800Y-140296900D03*
D11*
X70027800Y-140296900D03*
X72567800Y-142836900D03*
X70027800Y-142836900D03*
X72567800Y-145376900D03*
X70027800Y-145376900D03*
X72567800Y-147916900D03*
X70027800Y-147916900D03*
X72567800Y-150456900D03*
X70027800Y-150456900D03*
X72567800Y-152996900D03*
X70027800Y-152996900D03*
D10*
X180543200Y-142925800D03*
D11*
X183083200Y-142925800D03*
X183172100Y-147243800D03*
D10*
X180632100Y-147243800D03*
G36*
G01*
X77612200Y-110660200D02*
X77612200Y-110980200D01*
G75*
G02*
X77452200Y-111140200I-160000J0D01*
G01*
X77057200Y-111140200D01*
G75*
G02*
X76897200Y-110980200I0J160000D01*
G01*
X76897200Y-110660200D01*
G75*
G02*
X77057200Y-110500200I160000J0D01*
G01*
X77452200Y-110500200D01*
G75*
G02*
X77612200Y-110660200I0J-160000D01*
G01*
G37*
G36*
G01*
X76417200Y-110660200D02*
X76417200Y-110980200D01*
G75*
G02*
X76257200Y-111140200I-160000J0D01*
G01*
X75862200Y-111140200D01*
G75*
G02*
X75702200Y-110980200I0J160000D01*
G01*
X75702200Y-110660200D01*
G75*
G02*
X75862200Y-110500200I160000J0D01*
G01*
X76257200Y-110500200D01*
G75*
G02*
X76417200Y-110660200I0J-160000D01*
G01*
G37*
G36*
G01*
X76417200Y-113225600D02*
X76417200Y-113545600D01*
G75*
G02*
X76257200Y-113705600I-160000J0D01*
G01*
X75862200Y-113705600D01*
G75*
G02*
X75702200Y-113545600I0J160000D01*
G01*
X75702200Y-113225600D01*
G75*
G02*
X75862200Y-113065600I160000J0D01*
G01*
X76257200Y-113065600D01*
G75*
G02*
X76417200Y-113225600I0J-160000D01*
G01*
G37*
G36*
G01*
X77612200Y-113225600D02*
X77612200Y-113545600D01*
G75*
G02*
X77452200Y-113705600I-160000J0D01*
G01*
X77057200Y-113705600D01*
G75*
G02*
X76897200Y-113545600I0J160000D01*
G01*
X76897200Y-113225600D01*
G75*
G02*
X77057200Y-113065600I160000J0D01*
G01*
X77452200Y-113065600D01*
G75*
G02*
X77612200Y-113225600I0J-160000D01*
G01*
G37*
G36*
G01*
X77596960Y-118303060D02*
X77596960Y-118623060D01*
G75*
G02*
X77436960Y-118783060I-160000J0D01*
G01*
X77041960Y-118783060D01*
G75*
G02*
X76881960Y-118623060I0J160000D01*
G01*
X76881960Y-118303060D01*
G75*
G02*
X77041960Y-118143060I160000J0D01*
G01*
X77436960Y-118143060D01*
G75*
G02*
X77596960Y-118303060I0J-160000D01*
G01*
G37*
G36*
G01*
X76401960Y-118303060D02*
X76401960Y-118623060D01*
G75*
G02*
X76241960Y-118783060I-160000J0D01*
G01*
X75846960Y-118783060D01*
G75*
G02*
X75686960Y-118623060I0J160000D01*
G01*
X75686960Y-118303060D01*
G75*
G02*
X75846960Y-118143060I160000J0D01*
G01*
X76241960Y-118143060D01*
G75*
G02*
X76401960Y-118303060I0J-160000D01*
G01*
G37*
G36*
G01*
X76401960Y-120843060D02*
X76401960Y-121163060D01*
G75*
G02*
X76241960Y-121323060I-160000J0D01*
G01*
X75846960Y-121323060D01*
G75*
G02*
X75686960Y-121163060I0J160000D01*
G01*
X75686960Y-120843060D01*
G75*
G02*
X75846960Y-120683060I160000J0D01*
G01*
X76241960Y-120683060D01*
G75*
G02*
X76401960Y-120843060I0J-160000D01*
G01*
G37*
G36*
G01*
X77596960Y-120843060D02*
X77596960Y-121163060D01*
G75*
G02*
X77436960Y-121323060I-160000J0D01*
G01*
X77041960Y-121323060D01*
G75*
G02*
X76881960Y-121163060I0J160000D01*
G01*
X76881960Y-120843060D01*
G75*
G02*
X77041960Y-120683060I160000J0D01*
G01*
X77436960Y-120683060D01*
G75*
G02*
X77596960Y-120843060I0J-160000D01*
G01*
G37*
G36*
G01*
X91892100Y-102059700D02*
X91572100Y-102059700D01*
G75*
G02*
X91412100Y-101899700I0J160000D01*
G01*
X91412100Y-101504700D01*
G75*
G02*
X91572100Y-101344700I160000J0D01*
G01*
X91892100Y-101344700D01*
G75*
G02*
X92052100Y-101504700I0J-160000D01*
G01*
X92052100Y-101899700D01*
G75*
G02*
X91892100Y-102059700I-160000J0D01*
G01*
G37*
G36*
G01*
X91892100Y-100864700D02*
X91572100Y-100864700D01*
G75*
G02*
X91412100Y-100704700I0J160000D01*
G01*
X91412100Y-100309700D01*
G75*
G02*
X91572100Y-100149700I160000J0D01*
G01*
X91892100Y-100149700D01*
G75*
G02*
X92052100Y-100309700I0J-160000D01*
G01*
X92052100Y-100704700D01*
G75*
G02*
X91892100Y-100864700I-160000J0D01*
G01*
G37*
G36*
G01*
X88056700Y-100737700D02*
X87736700Y-100737700D01*
G75*
G02*
X87576700Y-100577700I0J160000D01*
G01*
X87576700Y-100182700D01*
G75*
G02*
X87736700Y-100022700I160000J0D01*
G01*
X88056700Y-100022700D01*
G75*
G02*
X88216700Y-100182700I0J-160000D01*
G01*
X88216700Y-100577700D01*
G75*
G02*
X88056700Y-100737700I-160000J0D01*
G01*
G37*
G36*
G01*
X88056700Y-101932700D02*
X87736700Y-101932700D01*
G75*
G02*
X87576700Y-101772700I0J160000D01*
G01*
X87576700Y-101377700D01*
G75*
G02*
X87736700Y-101217700I160000J0D01*
G01*
X88056700Y-101217700D01*
G75*
G02*
X88216700Y-101377700I0J-160000D01*
G01*
X88216700Y-101772700D01*
G75*
G02*
X88056700Y-101932700I-160000J0D01*
G01*
G37*
G36*
G01*
X87012800Y-115389700D02*
X87332800Y-115389700D01*
G75*
G02*
X87492800Y-115549700I0J-160000D01*
G01*
X87492800Y-115944700D01*
G75*
G02*
X87332800Y-116104700I-160000J0D01*
G01*
X87012800Y-116104700D01*
G75*
G02*
X86852800Y-115944700I0J160000D01*
G01*
X86852800Y-115549700D01*
G75*
G02*
X87012800Y-115389700I160000J0D01*
G01*
G37*
G36*
G01*
X87012800Y-116584700D02*
X87332800Y-116584700D01*
G75*
G02*
X87492800Y-116744700I0J-160000D01*
G01*
X87492800Y-117139700D01*
G75*
G02*
X87332800Y-117299700I-160000J0D01*
G01*
X87012800Y-117299700D01*
G75*
G02*
X86852800Y-117139700I0J160000D01*
G01*
X86852800Y-116744700D01*
G75*
G02*
X87012800Y-116584700I160000J0D01*
G01*
G37*
G36*
G01*
X95013800Y-116584700D02*
X95333800Y-116584700D01*
G75*
G02*
X95493800Y-116744700I0J-160000D01*
G01*
X95493800Y-117139700D01*
G75*
G02*
X95333800Y-117299700I-160000J0D01*
G01*
X95013800Y-117299700D01*
G75*
G02*
X94853800Y-117139700I0J160000D01*
G01*
X94853800Y-116744700D01*
G75*
G02*
X95013800Y-116584700I160000J0D01*
G01*
G37*
G36*
G01*
X95013800Y-115389700D02*
X95333800Y-115389700D01*
G75*
G02*
X95493800Y-115549700I0J-160000D01*
G01*
X95493800Y-115944700D01*
G75*
G02*
X95333800Y-116104700I-160000J0D01*
G01*
X95013800Y-116104700D01*
G75*
G02*
X94853800Y-115944700I0J160000D01*
G01*
X94853800Y-115549700D01*
G75*
G02*
X95013800Y-115389700I160000J0D01*
G01*
G37*
G36*
G01*
X93162100Y-100864700D02*
X92842100Y-100864700D01*
G75*
G02*
X92682100Y-100704700I0J160000D01*
G01*
X92682100Y-100309700D01*
G75*
G02*
X92842100Y-100149700I160000J0D01*
G01*
X93162100Y-100149700D01*
G75*
G02*
X93322100Y-100309700I0J-160000D01*
G01*
X93322100Y-100704700D01*
G75*
G02*
X93162100Y-100864700I-160000J0D01*
G01*
G37*
G36*
G01*
X93162100Y-102059700D02*
X92842100Y-102059700D01*
G75*
G02*
X92682100Y-101899700I0J160000D01*
G01*
X92682100Y-101504700D01*
G75*
G02*
X92842100Y-101344700I160000J0D01*
G01*
X93162100Y-101344700D01*
G75*
G02*
X93322100Y-101504700I0J-160000D01*
G01*
X93322100Y-101899700D01*
G75*
G02*
X93162100Y-102059700I-160000J0D01*
G01*
G37*
G36*
G01*
X89352100Y-101932700D02*
X89032100Y-101932700D01*
G75*
G02*
X88872100Y-101772700I0J160000D01*
G01*
X88872100Y-101377700D01*
G75*
G02*
X89032100Y-101217700I160000J0D01*
G01*
X89352100Y-101217700D01*
G75*
G02*
X89512100Y-101377700I0J-160000D01*
G01*
X89512100Y-101772700D01*
G75*
G02*
X89352100Y-101932700I-160000J0D01*
G01*
G37*
G36*
G01*
X89352100Y-100737700D02*
X89032100Y-100737700D01*
G75*
G02*
X88872100Y-100577700I0J160000D01*
G01*
X88872100Y-100182700D01*
G75*
G02*
X89032100Y-100022700I160000J0D01*
G01*
X89352100Y-100022700D01*
G75*
G02*
X89512100Y-100182700I0J-160000D01*
G01*
X89512100Y-100577700D01*
G75*
G02*
X89352100Y-100737700I-160000J0D01*
G01*
G37*
G36*
G01*
X88282800Y-116584700D02*
X88602800Y-116584700D01*
G75*
G02*
X88762800Y-116744700I0J-160000D01*
G01*
X88762800Y-117139700D01*
G75*
G02*
X88602800Y-117299700I-160000J0D01*
G01*
X88282800Y-117299700D01*
G75*
G02*
X88122800Y-117139700I0J160000D01*
G01*
X88122800Y-116744700D01*
G75*
G02*
X88282800Y-116584700I160000J0D01*
G01*
G37*
G36*
G01*
X88282800Y-115389700D02*
X88602800Y-115389700D01*
G75*
G02*
X88762800Y-115549700I0J-160000D01*
G01*
X88762800Y-115944700D01*
G75*
G02*
X88602800Y-116104700I-160000J0D01*
G01*
X88282800Y-116104700D01*
G75*
G02*
X88122800Y-115944700I0J160000D01*
G01*
X88122800Y-115549700D01*
G75*
G02*
X88282800Y-115389700I160000J0D01*
G01*
G37*
G36*
G01*
X93743800Y-115389700D02*
X94063800Y-115389700D01*
G75*
G02*
X94223800Y-115549700I0J-160000D01*
G01*
X94223800Y-115944700D01*
G75*
G02*
X94063800Y-116104700I-160000J0D01*
G01*
X93743800Y-116104700D01*
G75*
G02*
X93583800Y-115944700I0J160000D01*
G01*
X93583800Y-115549700D01*
G75*
G02*
X93743800Y-115389700I160000J0D01*
G01*
G37*
G36*
G01*
X93743800Y-116584700D02*
X94063800Y-116584700D01*
G75*
G02*
X94223800Y-116744700I0J-160000D01*
G01*
X94223800Y-117139700D01*
G75*
G02*
X94063800Y-117299700I-160000J0D01*
G01*
X93743800Y-117299700D01*
G75*
G02*
X93583800Y-117139700I0J160000D01*
G01*
X93583800Y-116744700D01*
G75*
G02*
X93743800Y-116584700I160000J0D01*
G01*
G37*
G36*
G01*
X92809100Y-103169700D02*
X92809100Y-102849700D01*
G75*
G02*
X92969100Y-102689700I160000J0D01*
G01*
X93364100Y-102689700D01*
G75*
G02*
X93524100Y-102849700I0J-160000D01*
G01*
X93524100Y-103169700D01*
G75*
G02*
X93364100Y-103329700I-160000J0D01*
G01*
X92969100Y-103329700D01*
G75*
G02*
X92809100Y-103169700I0J160000D01*
G01*
G37*
G36*
G01*
X94004100Y-103169700D02*
X94004100Y-102849700D01*
G75*
G02*
X94164100Y-102689700I160000J0D01*
G01*
X94559100Y-102689700D01*
G75*
G02*
X94719100Y-102849700I0J-160000D01*
G01*
X94719100Y-103169700D01*
G75*
G02*
X94559100Y-103329700I-160000J0D01*
G01*
X94164100Y-103329700D01*
G75*
G02*
X94004100Y-103169700I0J160000D01*
G01*
G37*
G36*
G01*
X90067100Y-103169700D02*
X90067100Y-102849700D01*
G75*
G02*
X90227100Y-102689700I160000J0D01*
G01*
X90622100Y-102689700D01*
G75*
G02*
X90782100Y-102849700I0J-160000D01*
G01*
X90782100Y-103169700D01*
G75*
G02*
X90622100Y-103329700I-160000J0D01*
G01*
X90227100Y-103329700D01*
G75*
G02*
X90067100Y-103169700I0J160000D01*
G01*
G37*
G36*
G01*
X88872100Y-103169700D02*
X88872100Y-102849700D01*
G75*
G02*
X89032100Y-102689700I160000J0D01*
G01*
X89427100Y-102689700D01*
G75*
G02*
X89587100Y-102849700I0J-160000D01*
G01*
X89587100Y-103169700D01*
G75*
G02*
X89427100Y-103329700I-160000J0D01*
G01*
X89032100Y-103329700D01*
G75*
G02*
X88872100Y-103169700I0J160000D01*
G01*
G37*
G36*
G01*
X88122800Y-114320300D02*
X88122800Y-114000300D01*
G75*
G02*
X88282800Y-113840300I160000J0D01*
G01*
X88677800Y-113840300D01*
G75*
G02*
X88837800Y-114000300I0J-160000D01*
G01*
X88837800Y-114320300D01*
G75*
G02*
X88677800Y-114480300I-160000J0D01*
G01*
X88282800Y-114480300D01*
G75*
G02*
X88122800Y-114320300I0J160000D01*
G01*
G37*
G36*
G01*
X89317800Y-114320300D02*
X89317800Y-114000300D01*
G75*
G02*
X89477800Y-113840300I160000J0D01*
G01*
X89872800Y-113840300D01*
G75*
G02*
X90032800Y-114000300I0J-160000D01*
G01*
X90032800Y-114320300D01*
G75*
G02*
X89872800Y-114480300I-160000J0D01*
G01*
X89477800Y-114480300D01*
G75*
G02*
X89317800Y-114320300I0J160000D01*
G01*
G37*
G36*
G01*
X92264200Y-114320300D02*
X92264200Y-114000300D01*
G75*
G02*
X92424200Y-113840300I160000J0D01*
G01*
X92819200Y-113840300D01*
G75*
G02*
X92979200Y-114000300I0J-160000D01*
G01*
X92979200Y-114320300D01*
G75*
G02*
X92819200Y-114480300I-160000J0D01*
G01*
X92424200Y-114480300D01*
G75*
G02*
X92264200Y-114320300I0J160000D01*
G01*
G37*
G36*
G01*
X91069200Y-114320300D02*
X91069200Y-114000300D01*
G75*
G02*
X91229200Y-113840300I160000J0D01*
G01*
X91624200Y-113840300D01*
G75*
G02*
X91784200Y-114000300I0J-160000D01*
G01*
X91784200Y-114320300D01*
G75*
G02*
X91624200Y-114480300I-160000J0D01*
G01*
X91229200Y-114480300D01*
G75*
G02*
X91069200Y-114320300I0J160000D01*
G01*
G37*
G36*
G01*
X76401960Y-123383060D02*
X76401960Y-123703060D01*
G75*
G02*
X76241960Y-123863060I-160000J0D01*
G01*
X75846960Y-123863060D01*
G75*
G02*
X75686960Y-123703060I0J160000D01*
G01*
X75686960Y-123383060D01*
G75*
G02*
X75846960Y-123223060I160000J0D01*
G01*
X76241960Y-123223060D01*
G75*
G02*
X76401960Y-123383060I0J-160000D01*
G01*
G37*
G36*
G01*
X77596960Y-123383060D02*
X77596960Y-123703060D01*
G75*
G02*
X77436960Y-123863060I-160000J0D01*
G01*
X77041960Y-123863060D01*
G75*
G02*
X76881960Y-123703060I0J160000D01*
G01*
X76881960Y-123383060D01*
G75*
G02*
X77041960Y-123223060I160000J0D01*
G01*
X77436960Y-123223060D01*
G75*
G02*
X77596960Y-123383060I0J-160000D01*
G01*
G37*
G36*
G01*
X76401960Y-125923060D02*
X76401960Y-126243060D01*
G75*
G02*
X76241960Y-126403060I-160000J0D01*
G01*
X75846960Y-126403060D01*
G75*
G02*
X75686960Y-126243060I0J160000D01*
G01*
X75686960Y-125923060D01*
G75*
G02*
X75846960Y-125763060I160000J0D01*
G01*
X76241960Y-125763060D01*
G75*
G02*
X76401960Y-125923060I0J-160000D01*
G01*
G37*
G36*
G01*
X77596960Y-125923060D02*
X77596960Y-126243060D01*
G75*
G02*
X77436960Y-126403060I-160000J0D01*
G01*
X77041960Y-126403060D01*
G75*
G02*
X76881960Y-126243060I0J160000D01*
G01*
X76881960Y-125923060D01*
G75*
G02*
X77041960Y-125763060I160000J0D01*
G01*
X77436960Y-125763060D01*
G75*
G02*
X77596960Y-125923060I0J-160000D01*
G01*
G37*
G36*
G01*
X77596960Y-128511320D02*
X77596960Y-128831320D01*
G75*
G02*
X77436960Y-128991320I-160000J0D01*
G01*
X77041960Y-128991320D01*
G75*
G02*
X76881960Y-128831320I0J160000D01*
G01*
X76881960Y-128511320D01*
G75*
G02*
X77041960Y-128351320I160000J0D01*
G01*
X77436960Y-128351320D01*
G75*
G02*
X77596960Y-128511320I0J-160000D01*
G01*
G37*
G36*
G01*
X76401960Y-128511320D02*
X76401960Y-128831320D01*
G75*
G02*
X76241960Y-128991320I-160000J0D01*
G01*
X75846960Y-128991320D01*
G75*
G02*
X75686960Y-128831320I0J160000D01*
G01*
X75686960Y-128511320D01*
G75*
G02*
X75846960Y-128351320I160000J0D01*
G01*
X76241960Y-128351320D01*
G75*
G02*
X76401960Y-128511320I0J-160000D01*
G01*
G37*
G36*
G01*
X77596960Y-131036080D02*
X77596960Y-131356080D01*
G75*
G02*
X77436960Y-131516080I-160000J0D01*
G01*
X77041960Y-131516080D01*
G75*
G02*
X76881960Y-131356080I0J160000D01*
G01*
X76881960Y-131036080D01*
G75*
G02*
X77041960Y-130876080I160000J0D01*
G01*
X77436960Y-130876080D01*
G75*
G02*
X77596960Y-131036080I0J-160000D01*
G01*
G37*
G36*
G01*
X76401960Y-131036080D02*
X76401960Y-131356080D01*
G75*
G02*
X76241960Y-131516080I-160000J0D01*
G01*
X75846960Y-131516080D01*
G75*
G02*
X75686960Y-131356080I0J160000D01*
G01*
X75686960Y-131036080D01*
G75*
G02*
X75846960Y-130876080I160000J0D01*
G01*
X76241960Y-130876080D01*
G75*
G02*
X76401960Y-131036080I0J-160000D01*
G01*
G37*
G36*
G01*
X92031800Y-125681700D02*
X91711800Y-125681700D01*
G75*
G02*
X91551800Y-125521700I0J160000D01*
G01*
X91551800Y-125126700D01*
G75*
G02*
X91711800Y-124966700I160000J0D01*
G01*
X92031800Y-124966700D01*
G75*
G02*
X92191800Y-125126700I0J-160000D01*
G01*
X92191800Y-125521700D01*
G75*
G02*
X92031800Y-125681700I-160000J0D01*
G01*
G37*
G36*
G01*
X92031800Y-124486700D02*
X91711800Y-124486700D01*
G75*
G02*
X91551800Y-124326700I0J160000D01*
G01*
X91551800Y-123931700D01*
G75*
G02*
X91711800Y-123771700I160000J0D01*
G01*
X92031800Y-123771700D01*
G75*
G02*
X92191800Y-123931700I0J-160000D01*
G01*
X92191800Y-124326700D01*
G75*
G02*
X92031800Y-124486700I-160000J0D01*
G01*
G37*
G36*
G01*
X88221800Y-125554700D02*
X87901800Y-125554700D01*
G75*
G02*
X87741800Y-125394700I0J160000D01*
G01*
X87741800Y-124999700D01*
G75*
G02*
X87901800Y-124839700I160000J0D01*
G01*
X88221800Y-124839700D01*
G75*
G02*
X88381800Y-124999700I0J-160000D01*
G01*
X88381800Y-125394700D01*
G75*
G02*
X88221800Y-125554700I-160000J0D01*
G01*
G37*
G36*
G01*
X88221800Y-124359700D02*
X87901800Y-124359700D01*
G75*
G02*
X87741800Y-124199700I0J160000D01*
G01*
X87741800Y-123804700D01*
G75*
G02*
X87901800Y-123644700I160000J0D01*
G01*
X88221800Y-123644700D01*
G75*
G02*
X88381800Y-123804700I0J-160000D01*
G01*
X88381800Y-124199700D01*
G75*
G02*
X88221800Y-124359700I-160000J0D01*
G01*
G37*
G36*
G01*
X87647800Y-138605300D02*
X87967800Y-138605300D01*
G75*
G02*
X88127800Y-138765300I0J-160000D01*
G01*
X88127800Y-139160300D01*
G75*
G02*
X87967800Y-139320300I-160000J0D01*
G01*
X87647800Y-139320300D01*
G75*
G02*
X87487800Y-139160300I0J160000D01*
G01*
X87487800Y-138765300D01*
G75*
G02*
X87647800Y-138605300I160000J0D01*
G01*
G37*
G36*
G01*
X87647800Y-139800300D02*
X87967800Y-139800300D01*
G75*
G02*
X88127800Y-139960300I0J-160000D01*
G01*
X88127800Y-140355300D01*
G75*
G02*
X87967800Y-140515300I-160000J0D01*
G01*
X87647800Y-140515300D01*
G75*
G02*
X87487800Y-140355300I0J160000D01*
G01*
X87487800Y-139960300D01*
G75*
G02*
X87647800Y-139800300I160000J0D01*
G01*
G37*
G36*
G01*
X95623400Y-139800300D02*
X95943400Y-139800300D01*
G75*
G02*
X96103400Y-139960300I0J-160000D01*
G01*
X96103400Y-140355300D01*
G75*
G02*
X95943400Y-140515300I-160000J0D01*
G01*
X95623400Y-140515300D01*
G75*
G02*
X95463400Y-140355300I0J160000D01*
G01*
X95463400Y-139960300D01*
G75*
G02*
X95623400Y-139800300I160000J0D01*
G01*
G37*
G36*
G01*
X95623400Y-138605300D02*
X95943400Y-138605300D01*
G75*
G02*
X96103400Y-138765300I0J-160000D01*
G01*
X96103400Y-139160300D01*
G75*
G02*
X95943400Y-139320300I-160000J0D01*
G01*
X95623400Y-139320300D01*
G75*
G02*
X95463400Y-139160300I0J160000D01*
G01*
X95463400Y-138765300D01*
G75*
G02*
X95623400Y-138605300I160000J0D01*
G01*
G37*
G36*
G01*
X93301800Y-124537500D02*
X92981800Y-124537500D01*
G75*
G02*
X92821800Y-124377500I0J160000D01*
G01*
X92821800Y-123982500D01*
G75*
G02*
X92981800Y-123822500I160000J0D01*
G01*
X93301800Y-123822500D01*
G75*
G02*
X93461800Y-123982500I0J-160000D01*
G01*
X93461800Y-124377500D01*
G75*
G02*
X93301800Y-124537500I-160000J0D01*
G01*
G37*
G36*
G01*
X93301800Y-125732500D02*
X92981800Y-125732500D01*
G75*
G02*
X92821800Y-125572500I0J160000D01*
G01*
X92821800Y-125177500D01*
G75*
G02*
X92981800Y-125017500I160000J0D01*
G01*
X93301800Y-125017500D01*
G75*
G02*
X93461800Y-125177500I0J-160000D01*
G01*
X93461800Y-125572500D01*
G75*
G02*
X93301800Y-125732500I-160000J0D01*
G01*
G37*
G36*
G01*
X89491800Y-124359700D02*
X89171800Y-124359700D01*
G75*
G02*
X89011800Y-124199700I0J160000D01*
G01*
X89011800Y-123804700D01*
G75*
G02*
X89171800Y-123644700I160000J0D01*
G01*
X89491800Y-123644700D01*
G75*
G02*
X89651800Y-123804700I0J-160000D01*
G01*
X89651800Y-124199700D01*
G75*
G02*
X89491800Y-124359700I-160000J0D01*
G01*
G37*
G36*
G01*
X89491800Y-125554700D02*
X89171800Y-125554700D01*
G75*
G02*
X89011800Y-125394700I0J160000D01*
G01*
X89011800Y-124999700D01*
G75*
G02*
X89171800Y-124839700I160000J0D01*
G01*
X89491800Y-124839700D01*
G75*
G02*
X89651800Y-124999700I0J-160000D01*
G01*
X89651800Y-125394700D01*
G75*
G02*
X89491800Y-125554700I-160000J0D01*
G01*
G37*
G36*
G01*
X88917800Y-138605300D02*
X89237800Y-138605300D01*
G75*
G02*
X89397800Y-138765300I0J-160000D01*
G01*
X89397800Y-139160300D01*
G75*
G02*
X89237800Y-139320300I-160000J0D01*
G01*
X88917800Y-139320300D01*
G75*
G02*
X88757800Y-139160300I0J160000D01*
G01*
X88757800Y-138765300D01*
G75*
G02*
X88917800Y-138605300I160000J0D01*
G01*
G37*
G36*
G01*
X88917800Y-139800300D02*
X89237800Y-139800300D01*
G75*
G02*
X89397800Y-139960300I0J-160000D01*
G01*
X89397800Y-140355300D01*
G75*
G02*
X89237800Y-140515300I-160000J0D01*
G01*
X88917800Y-140515300D01*
G75*
G02*
X88757800Y-140355300I0J160000D01*
G01*
X88757800Y-139960300D01*
G75*
G02*
X88917800Y-139800300I160000J0D01*
G01*
G37*
G36*
G01*
X94353400Y-139800300D02*
X94673400Y-139800300D01*
G75*
G02*
X94833400Y-139960300I0J-160000D01*
G01*
X94833400Y-140355300D01*
G75*
G02*
X94673400Y-140515300I-160000J0D01*
G01*
X94353400Y-140515300D01*
G75*
G02*
X94193400Y-140355300I0J160000D01*
G01*
X94193400Y-139960300D01*
G75*
G02*
X94353400Y-139800300I160000J0D01*
G01*
G37*
G36*
G01*
X94353400Y-138605300D02*
X94673400Y-138605300D01*
G75*
G02*
X94833400Y-138765300I0J-160000D01*
G01*
X94833400Y-139160300D01*
G75*
G02*
X94673400Y-139320300I-160000J0D01*
G01*
X94353400Y-139320300D01*
G75*
G02*
X94193400Y-139160300I0J160000D01*
G01*
X94193400Y-138765300D01*
G75*
G02*
X94353400Y-138605300I160000J0D01*
G01*
G37*
G36*
G01*
X92948800Y-126791700D02*
X92948800Y-126471700D01*
G75*
G02*
X93108800Y-126311700I160000J0D01*
G01*
X93503800Y-126311700D01*
G75*
G02*
X93663800Y-126471700I0J-160000D01*
G01*
X93663800Y-126791700D01*
G75*
G02*
X93503800Y-126951700I-160000J0D01*
G01*
X93108800Y-126951700D01*
G75*
G02*
X92948800Y-126791700I0J160000D01*
G01*
G37*
G36*
G01*
X94143800Y-126791700D02*
X94143800Y-126471700D01*
G75*
G02*
X94303800Y-126311700I160000J0D01*
G01*
X94698800Y-126311700D01*
G75*
G02*
X94858800Y-126471700I0J-160000D01*
G01*
X94858800Y-126791700D01*
G75*
G02*
X94698800Y-126951700I-160000J0D01*
G01*
X94303800Y-126951700D01*
G75*
G02*
X94143800Y-126791700I0J160000D01*
G01*
G37*
G36*
G01*
X90206800Y-126791700D02*
X90206800Y-126471700D01*
G75*
G02*
X90366800Y-126311700I160000J0D01*
G01*
X90761800Y-126311700D01*
G75*
G02*
X90921800Y-126471700I0J-160000D01*
G01*
X90921800Y-126791700D01*
G75*
G02*
X90761800Y-126951700I-160000J0D01*
G01*
X90366800Y-126951700D01*
G75*
G02*
X90206800Y-126791700I0J160000D01*
G01*
G37*
G36*
G01*
X89011800Y-126791700D02*
X89011800Y-126471700D01*
G75*
G02*
X89171800Y-126311700I160000J0D01*
G01*
X89566800Y-126311700D01*
G75*
G02*
X89726800Y-126471700I0J-160000D01*
G01*
X89726800Y-126791700D01*
G75*
G02*
X89566800Y-126951700I-160000J0D01*
G01*
X89171800Y-126951700D01*
G75*
G02*
X89011800Y-126791700I0J160000D01*
G01*
G37*
G36*
G01*
X88757800Y-137561300D02*
X88757800Y-137241300D01*
G75*
G02*
X88917800Y-137081300I160000J0D01*
G01*
X89312800Y-137081300D01*
G75*
G02*
X89472800Y-137241300I0J-160000D01*
G01*
X89472800Y-137561300D01*
G75*
G02*
X89312800Y-137721300I-160000J0D01*
G01*
X88917800Y-137721300D01*
G75*
G02*
X88757800Y-137561300I0J160000D01*
G01*
G37*
G36*
G01*
X89952800Y-137561300D02*
X89952800Y-137241300D01*
G75*
G02*
X90112800Y-137081300I160000J0D01*
G01*
X90507800Y-137081300D01*
G75*
G02*
X90667800Y-137241300I0J-160000D01*
G01*
X90667800Y-137561300D01*
G75*
G02*
X90507800Y-137721300I-160000J0D01*
G01*
X90112800Y-137721300D01*
G75*
G02*
X89952800Y-137561300I0J160000D01*
G01*
G37*
G36*
G01*
X91678800Y-137510500D02*
X91678800Y-137190500D01*
G75*
G02*
X91838800Y-137030500I160000J0D01*
G01*
X92233800Y-137030500D01*
G75*
G02*
X92393800Y-137190500I0J-160000D01*
G01*
X92393800Y-137510500D01*
G75*
G02*
X92233800Y-137670500I-160000J0D01*
G01*
X91838800Y-137670500D01*
G75*
G02*
X91678800Y-137510500I0J160000D01*
G01*
G37*
G36*
G01*
X92873800Y-137510500D02*
X92873800Y-137190500D01*
G75*
G02*
X93033800Y-137030500I160000J0D01*
G01*
X93428800Y-137030500D01*
G75*
G02*
X93588800Y-137190500I0J-160000D01*
G01*
X93588800Y-137510500D01*
G75*
G02*
X93428800Y-137670500I-160000J0D01*
G01*
X93033800Y-137670500D01*
G75*
G02*
X92873800Y-137510500I0J160000D01*
G01*
G37*
G36*
G01*
X83253600Y-116597400D02*
X83573600Y-116597400D01*
G75*
G02*
X83733600Y-116757400I0J-160000D01*
G01*
X83733600Y-117152400D01*
G75*
G02*
X83573600Y-117312400I-160000J0D01*
G01*
X83253600Y-117312400D01*
G75*
G02*
X83093600Y-117152400I0J160000D01*
G01*
X83093600Y-116757400D01*
G75*
G02*
X83253600Y-116597400I160000J0D01*
G01*
G37*
G36*
G01*
X83253600Y-115402400D02*
X83573600Y-115402400D01*
G75*
G02*
X83733600Y-115562400I0J-160000D01*
G01*
X83733600Y-115957400D01*
G75*
G02*
X83573600Y-116117400I-160000J0D01*
G01*
X83253600Y-116117400D01*
G75*
G02*
X83093600Y-115957400I0J160000D01*
G01*
X83093600Y-115562400D01*
G75*
G02*
X83253600Y-115402400I160000J0D01*
G01*
G37*
G36*
G01*
X84536300Y-115402400D02*
X84856300Y-115402400D01*
G75*
G02*
X85016300Y-115562400I0J-160000D01*
G01*
X85016300Y-115957400D01*
G75*
G02*
X84856300Y-116117400I-160000J0D01*
G01*
X84536300Y-116117400D01*
G75*
G02*
X84376300Y-115957400I0J160000D01*
G01*
X84376300Y-115562400D01*
G75*
G02*
X84536300Y-115402400I160000J0D01*
G01*
G37*
G36*
G01*
X84536300Y-116597400D02*
X84856300Y-116597400D01*
G75*
G02*
X85016300Y-116757400I0J-160000D01*
G01*
X85016300Y-117152400D01*
G75*
G02*
X84856300Y-117312400I-160000J0D01*
G01*
X84536300Y-117312400D01*
G75*
G02*
X84376300Y-117152400I0J160000D01*
G01*
X84376300Y-116757400D01*
G75*
G02*
X84536300Y-116597400I160000J0D01*
G01*
G37*
G36*
G01*
X84947800Y-114320300D02*
X84947800Y-114000300D01*
G75*
G02*
X85107800Y-113840300I160000J0D01*
G01*
X85502800Y-113840300D01*
G75*
G02*
X85662800Y-114000300I0J-160000D01*
G01*
X85662800Y-114320300D01*
G75*
G02*
X85502800Y-114480300I-160000J0D01*
G01*
X85107800Y-114480300D01*
G75*
G02*
X84947800Y-114320300I0J160000D01*
G01*
G37*
G36*
G01*
X86142800Y-114320300D02*
X86142800Y-114000300D01*
G75*
G02*
X86302800Y-113840300I160000J0D01*
G01*
X86697800Y-113840300D01*
G75*
G02*
X86857800Y-114000300I0J-160000D01*
G01*
X86857800Y-114320300D01*
G75*
G02*
X86697800Y-114480300I-160000J0D01*
G01*
X86302800Y-114480300D01*
G75*
G02*
X86142800Y-114320300I0J160000D01*
G01*
G37*
G36*
G01*
X139247900Y-114284800D02*
X139567900Y-114284800D01*
G75*
G02*
X139727900Y-114444800I0J-160000D01*
G01*
X139727900Y-114839800D01*
G75*
G02*
X139567900Y-114999800I-160000J0D01*
G01*
X139247900Y-114999800D01*
G75*
G02*
X139087900Y-114839800I0J160000D01*
G01*
X139087900Y-114444800D01*
G75*
G02*
X139247900Y-114284800I160000J0D01*
G01*
G37*
G36*
G01*
X139247900Y-115479800D02*
X139567900Y-115479800D01*
G75*
G02*
X139727900Y-115639800I0J-160000D01*
G01*
X139727900Y-116034800D01*
G75*
G02*
X139567900Y-116194800I-160000J0D01*
G01*
X139247900Y-116194800D01*
G75*
G02*
X139087900Y-116034800I0J160000D01*
G01*
X139087900Y-115639800D01*
G75*
G02*
X139247900Y-115479800I160000J0D01*
G01*
G37*
G36*
G01*
X138310600Y-114999800D02*
X137990600Y-114999800D01*
G75*
G02*
X137830600Y-114839800I0J160000D01*
G01*
X137830600Y-114444800D01*
G75*
G02*
X137990600Y-114284800I160000J0D01*
G01*
X138310600Y-114284800D01*
G75*
G02*
X138470600Y-114444800I0J-160000D01*
G01*
X138470600Y-114839800D01*
G75*
G02*
X138310600Y-114999800I-160000J0D01*
G01*
G37*
G36*
G01*
X138310600Y-116194800D02*
X137990600Y-116194800D01*
G75*
G02*
X137830600Y-116034800I0J160000D01*
G01*
X137830600Y-115639800D01*
G75*
G02*
X137990600Y-115479800I160000J0D01*
G01*
X138310600Y-115479800D01*
G75*
G02*
X138470600Y-115639800I0J-160000D01*
G01*
X138470600Y-116034800D01*
G75*
G02*
X138310600Y-116194800I-160000J0D01*
G01*
G37*
G36*
G01*
X143244600Y-125150900D02*
X143244600Y-125470900D01*
G75*
G02*
X143084600Y-125630900I-160000J0D01*
G01*
X142689600Y-125630900D01*
G75*
G02*
X142529600Y-125470900I0J160000D01*
G01*
X142529600Y-125150900D01*
G75*
G02*
X142689600Y-124990900I160000J0D01*
G01*
X143084600Y-124990900D01*
G75*
G02*
X143244600Y-125150900I0J-160000D01*
G01*
G37*
G36*
G01*
X144439600Y-125150900D02*
X144439600Y-125470900D01*
G75*
G02*
X144279600Y-125630900I-160000J0D01*
G01*
X143884600Y-125630900D01*
G75*
G02*
X143724600Y-125470900I0J160000D01*
G01*
X143724600Y-125150900D01*
G75*
G02*
X143884600Y-124990900I160000J0D01*
G01*
X144279600Y-124990900D01*
G75*
G02*
X144439600Y-125150900I0J-160000D01*
G01*
G37*
G36*
G01*
X143800800Y-121864100D02*
X143800800Y-121544100D01*
G75*
G02*
X143960800Y-121384100I160000J0D01*
G01*
X144355800Y-121384100D01*
G75*
G02*
X144515800Y-121544100I0J-160000D01*
G01*
X144515800Y-121864100D01*
G75*
G02*
X144355800Y-122024100I-160000J0D01*
G01*
X143960800Y-122024100D01*
G75*
G02*
X143800800Y-121864100I0J160000D01*
G01*
G37*
G36*
G01*
X142605800Y-121864100D02*
X142605800Y-121544100D01*
G75*
G02*
X142765800Y-121384100I160000J0D01*
G01*
X143160800Y-121384100D01*
G75*
G02*
X143320800Y-121544100I0J-160000D01*
G01*
X143320800Y-121864100D01*
G75*
G02*
X143160800Y-122024100I-160000J0D01*
G01*
X142765800Y-122024100D01*
G75*
G02*
X142605800Y-121864100I0J160000D01*
G01*
G37*
D14*
X93726000Y-177393600D03*
X83159600Y-56603900D03*
X93675200Y-166725600D03*
G36*
G01*
X93626800Y-128490300D02*
X93926800Y-128490300D01*
G75*
G02*
X94076800Y-128640300I0J-150000D01*
G01*
X94076800Y-130290300D01*
G75*
G02*
X93926800Y-130440300I-150000J0D01*
G01*
X93626800Y-130440300D01*
G75*
G02*
X93476800Y-130290300I0J150000D01*
G01*
X93476800Y-128640300D01*
G75*
G02*
X93626800Y-128490300I150000J0D01*
G01*
G37*
G36*
G01*
X92356800Y-128490300D02*
X92656800Y-128490300D01*
G75*
G02*
X92806800Y-128640300I0J-150000D01*
G01*
X92806800Y-130290300D01*
G75*
G02*
X92656800Y-130440300I-150000J0D01*
G01*
X92356800Y-130440300D01*
G75*
G02*
X92206800Y-130290300I0J150000D01*
G01*
X92206800Y-128640300D01*
G75*
G02*
X92356800Y-128490300I150000J0D01*
G01*
G37*
G36*
G01*
X91086800Y-128490300D02*
X91386800Y-128490300D01*
G75*
G02*
X91536800Y-128640300I0J-150000D01*
G01*
X91536800Y-130290300D01*
G75*
G02*
X91386800Y-130440300I-150000J0D01*
G01*
X91086800Y-130440300D01*
G75*
G02*
X90936800Y-130290300I0J150000D01*
G01*
X90936800Y-128640300D01*
G75*
G02*
X91086800Y-128490300I150000J0D01*
G01*
G37*
G36*
G01*
X89816800Y-128490300D02*
X90116800Y-128490300D01*
G75*
G02*
X90266800Y-128640300I0J-150000D01*
G01*
X90266800Y-130290300D01*
G75*
G02*
X90116800Y-130440300I-150000J0D01*
G01*
X89816800Y-130440300D01*
G75*
G02*
X89666800Y-130290300I0J150000D01*
G01*
X89666800Y-128640300D01*
G75*
G02*
X89816800Y-128490300I150000J0D01*
G01*
G37*
G36*
G01*
X88546800Y-128490300D02*
X88846800Y-128490300D01*
G75*
G02*
X88996800Y-128640300I0J-150000D01*
G01*
X88996800Y-130290300D01*
G75*
G02*
X88846800Y-130440300I-150000J0D01*
G01*
X88546800Y-130440300D01*
G75*
G02*
X88396800Y-130290300I0J150000D01*
G01*
X88396800Y-128640300D01*
G75*
G02*
X88546800Y-128490300I150000J0D01*
G01*
G37*
G36*
G01*
X87276800Y-128490300D02*
X87576800Y-128490300D01*
G75*
G02*
X87726800Y-128640300I0J-150000D01*
G01*
X87726800Y-130290300D01*
G75*
G02*
X87576800Y-130440300I-150000J0D01*
G01*
X87276800Y-130440300D01*
G75*
G02*
X87126800Y-130290300I0J150000D01*
G01*
X87126800Y-128640300D01*
G75*
G02*
X87276800Y-128490300I150000J0D01*
G01*
G37*
G36*
G01*
X86006800Y-128490300D02*
X86306800Y-128490300D01*
G75*
G02*
X86456800Y-128640300I0J-150000D01*
G01*
X86456800Y-130290300D01*
G75*
G02*
X86306800Y-130440300I-150000J0D01*
G01*
X86006800Y-130440300D01*
G75*
G02*
X85856800Y-130290300I0J150000D01*
G01*
X85856800Y-128640300D01*
G75*
G02*
X86006800Y-128490300I150000J0D01*
G01*
G37*
G36*
G01*
X86006800Y-133440300D02*
X86306800Y-133440300D01*
G75*
G02*
X86456800Y-133590300I0J-150000D01*
G01*
X86456800Y-135240300D01*
G75*
G02*
X86306800Y-135390300I-150000J0D01*
G01*
X86006800Y-135390300D01*
G75*
G02*
X85856800Y-135240300I0J150000D01*
G01*
X85856800Y-133590300D01*
G75*
G02*
X86006800Y-133440300I150000J0D01*
G01*
G37*
G36*
G01*
X87276800Y-133440300D02*
X87576800Y-133440300D01*
G75*
G02*
X87726800Y-133590300I0J-150000D01*
G01*
X87726800Y-135240300D01*
G75*
G02*
X87576800Y-135390300I-150000J0D01*
G01*
X87276800Y-135390300D01*
G75*
G02*
X87126800Y-135240300I0J150000D01*
G01*
X87126800Y-133590300D01*
G75*
G02*
X87276800Y-133440300I150000J0D01*
G01*
G37*
G36*
G01*
X88546800Y-133440300D02*
X88846800Y-133440300D01*
G75*
G02*
X88996800Y-133590300I0J-150000D01*
G01*
X88996800Y-135240300D01*
G75*
G02*
X88846800Y-135390300I-150000J0D01*
G01*
X88546800Y-135390300D01*
G75*
G02*
X88396800Y-135240300I0J150000D01*
G01*
X88396800Y-133590300D01*
G75*
G02*
X88546800Y-133440300I150000J0D01*
G01*
G37*
G36*
G01*
X89816800Y-133440300D02*
X90116800Y-133440300D01*
G75*
G02*
X90266800Y-133590300I0J-150000D01*
G01*
X90266800Y-135240300D01*
G75*
G02*
X90116800Y-135390300I-150000J0D01*
G01*
X89816800Y-135390300D01*
G75*
G02*
X89666800Y-135240300I0J150000D01*
G01*
X89666800Y-133590300D01*
G75*
G02*
X89816800Y-133440300I150000J0D01*
G01*
G37*
G36*
G01*
X91086800Y-133440300D02*
X91386800Y-133440300D01*
G75*
G02*
X91536800Y-133590300I0J-150000D01*
G01*
X91536800Y-135240300D01*
G75*
G02*
X91386800Y-135390300I-150000J0D01*
G01*
X91086800Y-135390300D01*
G75*
G02*
X90936800Y-135240300I0J150000D01*
G01*
X90936800Y-133590300D01*
G75*
G02*
X91086800Y-133440300I150000J0D01*
G01*
G37*
G36*
G01*
X92356800Y-133440300D02*
X92656800Y-133440300D01*
G75*
G02*
X92806800Y-133590300I0J-150000D01*
G01*
X92806800Y-135240300D01*
G75*
G02*
X92656800Y-135390300I-150000J0D01*
G01*
X92356800Y-135390300D01*
G75*
G02*
X92206800Y-135240300I0J150000D01*
G01*
X92206800Y-133590300D01*
G75*
G02*
X92356800Y-133440300I150000J0D01*
G01*
G37*
G36*
G01*
X93626800Y-133440300D02*
X93926800Y-133440300D01*
G75*
G02*
X94076800Y-133590300I0J-150000D01*
G01*
X94076800Y-135240300D01*
G75*
G02*
X93926800Y-135390300I-150000J0D01*
G01*
X93626800Y-135390300D01*
G75*
G02*
X93476800Y-135240300I0J150000D01*
G01*
X93476800Y-133590300D01*
G75*
G02*
X93626800Y-133440300I150000J0D01*
G01*
G37*
D15*
X168795700Y-142671800D03*
X168795700Y-148386800D03*
X173875700Y-142671800D03*
X173875700Y-148386800D03*
D16*
X170320700Y-140766800D03*
X172350700Y-140766800D03*
X171335700Y-148386800D03*
D10*
X72618600Y-108292900D03*
D11*
X70078600Y-108292900D03*
X72618600Y-110832900D03*
X70078600Y-110832900D03*
X72618600Y-113372900D03*
X70078600Y-113372900D03*
X72618600Y-115912900D03*
X70078600Y-115912900D03*
X72618600Y-118452900D03*
X70078600Y-118452900D03*
X72618600Y-120992900D03*
X70078600Y-120992900D03*
X72618600Y-123532900D03*
X70078600Y-123532900D03*
X72618600Y-126072900D03*
X70078600Y-126072900D03*
X72618600Y-128612900D03*
X70078600Y-128612900D03*
X72618600Y-131152900D03*
X70078600Y-131152900D03*
X72618600Y-133692900D03*
X70078600Y-133692900D03*
D17*
X235795190Y-192096910D03*
X234204200Y-191437900D03*
X232613210Y-192096910D03*
X231954200Y-193687900D03*
X232613210Y-195278890D03*
X234204200Y-195937900D03*
X235795190Y-195278890D03*
X236454200Y-193687900D03*
D18*
X234204200Y-193687900D03*
X149154200Y-193687900D03*
D17*
X151404200Y-193687900D03*
X150745190Y-195278890D03*
X149154200Y-195937900D03*
X147563210Y-195278890D03*
X146904200Y-193687900D03*
X147563210Y-192096910D03*
X149154200Y-191437900D03*
X150745190Y-192096910D03*
D18*
X64104200Y-193687900D03*
D17*
X66354200Y-193687900D03*
X65695190Y-195278890D03*
X64104200Y-195937900D03*
X62513210Y-195278890D03*
X61854200Y-193687900D03*
X62513210Y-192096910D03*
X64104200Y-191437900D03*
X65695190Y-192096910D03*
X235795190Y-64016910D03*
X234204200Y-63357900D03*
X232613210Y-64016910D03*
X231954200Y-65607900D03*
X232613210Y-67198890D03*
X234204200Y-67857900D03*
X235795190Y-67198890D03*
X236454200Y-65607900D03*
D18*
X234204200Y-65607900D03*
X149154200Y-65607900D03*
D17*
X151404200Y-65607900D03*
X150745190Y-67198890D03*
X149154200Y-67857900D03*
X147563210Y-67198890D03*
X146904200Y-65607900D03*
X147563210Y-64016910D03*
X149154200Y-63357900D03*
X150745190Y-64016910D03*
D18*
X71043800Y-66116200D03*
D17*
X73293800Y-66116200D03*
X72634790Y-67707190D03*
X71043800Y-68366200D03*
X69452810Y-67707190D03*
X68793800Y-66116200D03*
X69452810Y-64525210D03*
X71043800Y-63866200D03*
X72634790Y-64525210D03*
G36*
G01*
X86146200Y-168799700D02*
X85996200Y-168799700D01*
G75*
G02*
X85921200Y-168724700I0J75000D01*
G01*
X85921200Y-167424700D01*
G75*
G02*
X85996200Y-167349700I75000J0D01*
G01*
X86146200Y-167349700D01*
G75*
G02*
X86221200Y-167424700I0J-75000D01*
G01*
X86221200Y-168724700D01*
G75*
G02*
X86146200Y-168799700I-75000J0D01*
G01*
G37*
G36*
G01*
X86646200Y-168799700D02*
X86496200Y-168799700D01*
G75*
G02*
X86421200Y-168724700I0J75000D01*
G01*
X86421200Y-167424700D01*
G75*
G02*
X86496200Y-167349700I75000J0D01*
G01*
X86646200Y-167349700D01*
G75*
G02*
X86721200Y-167424700I0J-75000D01*
G01*
X86721200Y-168724700D01*
G75*
G02*
X86646200Y-168799700I-75000J0D01*
G01*
G37*
G36*
G01*
X87146200Y-168799700D02*
X86996200Y-168799700D01*
G75*
G02*
X86921200Y-168724700I0J75000D01*
G01*
X86921200Y-167424700D01*
G75*
G02*
X86996200Y-167349700I75000J0D01*
G01*
X87146200Y-167349700D01*
G75*
G02*
X87221200Y-167424700I0J-75000D01*
G01*
X87221200Y-168724700D01*
G75*
G02*
X87146200Y-168799700I-75000J0D01*
G01*
G37*
G36*
G01*
X87646200Y-168799700D02*
X87496200Y-168799700D01*
G75*
G02*
X87421200Y-168724700I0J75000D01*
G01*
X87421200Y-167424700D01*
G75*
G02*
X87496200Y-167349700I75000J0D01*
G01*
X87646200Y-167349700D01*
G75*
G02*
X87721200Y-167424700I0J-75000D01*
G01*
X87721200Y-168724700D01*
G75*
G02*
X87646200Y-168799700I-75000J0D01*
G01*
G37*
G36*
G01*
X88146200Y-168799700D02*
X87996200Y-168799700D01*
G75*
G02*
X87921200Y-168724700I0J75000D01*
G01*
X87921200Y-167424700D01*
G75*
G02*
X87996200Y-167349700I75000J0D01*
G01*
X88146200Y-167349700D01*
G75*
G02*
X88221200Y-167424700I0J-75000D01*
G01*
X88221200Y-168724700D01*
G75*
G02*
X88146200Y-168799700I-75000J0D01*
G01*
G37*
G36*
G01*
X88146200Y-164399700D02*
X87996200Y-164399700D01*
G75*
G02*
X87921200Y-164324700I0J75000D01*
G01*
X87921200Y-163024700D01*
G75*
G02*
X87996200Y-162949700I75000J0D01*
G01*
X88146200Y-162949700D01*
G75*
G02*
X88221200Y-163024700I0J-75000D01*
G01*
X88221200Y-164324700D01*
G75*
G02*
X88146200Y-164399700I-75000J0D01*
G01*
G37*
G36*
G01*
X87646200Y-164399700D02*
X87496200Y-164399700D01*
G75*
G02*
X87421200Y-164324700I0J75000D01*
G01*
X87421200Y-163024700D01*
G75*
G02*
X87496200Y-162949700I75000J0D01*
G01*
X87646200Y-162949700D01*
G75*
G02*
X87721200Y-163024700I0J-75000D01*
G01*
X87721200Y-164324700D01*
G75*
G02*
X87646200Y-164399700I-75000J0D01*
G01*
G37*
G36*
G01*
X87146200Y-164399700D02*
X86996200Y-164399700D01*
G75*
G02*
X86921200Y-164324700I0J75000D01*
G01*
X86921200Y-163024700D01*
G75*
G02*
X86996200Y-162949700I75000J0D01*
G01*
X87146200Y-162949700D01*
G75*
G02*
X87221200Y-163024700I0J-75000D01*
G01*
X87221200Y-164324700D01*
G75*
G02*
X87146200Y-164399700I-75000J0D01*
G01*
G37*
G36*
G01*
X86646200Y-164399700D02*
X86496200Y-164399700D01*
G75*
G02*
X86421200Y-164324700I0J75000D01*
G01*
X86421200Y-163024700D01*
G75*
G02*
X86496200Y-162949700I75000J0D01*
G01*
X86646200Y-162949700D01*
G75*
G02*
X86721200Y-163024700I0J-75000D01*
G01*
X86721200Y-164324700D01*
G75*
G02*
X86646200Y-164399700I-75000J0D01*
G01*
G37*
G36*
G01*
X86146200Y-164399700D02*
X85996200Y-164399700D01*
G75*
G02*
X85921200Y-164324700I0J75000D01*
G01*
X85921200Y-163024700D01*
G75*
G02*
X85996200Y-162949700I75000J0D01*
G01*
X86146200Y-162949700D01*
G75*
G02*
X86221200Y-163024700I0J-75000D01*
G01*
X86221200Y-164324700D01*
G75*
G02*
X86146200Y-164399700I-75000J0D01*
G01*
G37*
G36*
G01*
X86321601Y-179455000D02*
X86171601Y-179455000D01*
G75*
G02*
X86096601Y-179380000I0J75000D01*
G01*
X86096601Y-178080000D01*
G75*
G02*
X86171601Y-178005000I75000J0D01*
G01*
X86321601Y-178005000D01*
G75*
G02*
X86396601Y-178080000I0J-75000D01*
G01*
X86396601Y-179380000D01*
G75*
G02*
X86321601Y-179455000I-75000J0D01*
G01*
G37*
G36*
G01*
X86821601Y-179455000D02*
X86671601Y-179455000D01*
G75*
G02*
X86596601Y-179380000I0J75000D01*
G01*
X86596601Y-178080000D01*
G75*
G02*
X86671601Y-178005000I75000J0D01*
G01*
X86821601Y-178005000D01*
G75*
G02*
X86896601Y-178080000I0J-75000D01*
G01*
X86896601Y-179380000D01*
G75*
G02*
X86821601Y-179455000I-75000J0D01*
G01*
G37*
G36*
G01*
X87321601Y-179455000D02*
X87171601Y-179455000D01*
G75*
G02*
X87096601Y-179380000I0J75000D01*
G01*
X87096601Y-178080000D01*
G75*
G02*
X87171601Y-178005000I75000J0D01*
G01*
X87321601Y-178005000D01*
G75*
G02*
X87396601Y-178080000I0J-75000D01*
G01*
X87396601Y-179380000D01*
G75*
G02*
X87321601Y-179455000I-75000J0D01*
G01*
G37*
G36*
G01*
X87821601Y-179455000D02*
X87671601Y-179455000D01*
G75*
G02*
X87596601Y-179380000I0J75000D01*
G01*
X87596601Y-178080000D01*
G75*
G02*
X87671601Y-178005000I75000J0D01*
G01*
X87821601Y-178005000D01*
G75*
G02*
X87896601Y-178080000I0J-75000D01*
G01*
X87896601Y-179380000D01*
G75*
G02*
X87821601Y-179455000I-75000J0D01*
G01*
G37*
G36*
G01*
X88321601Y-179455000D02*
X88171601Y-179455000D01*
G75*
G02*
X88096601Y-179380000I0J75000D01*
G01*
X88096601Y-178080000D01*
G75*
G02*
X88171601Y-178005000I75000J0D01*
G01*
X88321601Y-178005000D01*
G75*
G02*
X88396601Y-178080000I0J-75000D01*
G01*
X88396601Y-179380000D01*
G75*
G02*
X88321601Y-179455000I-75000J0D01*
G01*
G37*
G36*
G01*
X88321601Y-175055000D02*
X88171601Y-175055000D01*
G75*
G02*
X88096601Y-174980000I0J75000D01*
G01*
X88096601Y-173680000D01*
G75*
G02*
X88171601Y-173605000I75000J0D01*
G01*
X88321601Y-173605000D01*
G75*
G02*
X88396601Y-173680000I0J-75000D01*
G01*
X88396601Y-174980000D01*
G75*
G02*
X88321601Y-175055000I-75000J0D01*
G01*
G37*
G36*
G01*
X87821601Y-175055000D02*
X87671601Y-175055000D01*
G75*
G02*
X87596601Y-174980000I0J75000D01*
G01*
X87596601Y-173680000D01*
G75*
G02*
X87671601Y-173605000I75000J0D01*
G01*
X87821601Y-173605000D01*
G75*
G02*
X87896601Y-173680000I0J-75000D01*
G01*
X87896601Y-174980000D01*
G75*
G02*
X87821601Y-175055000I-75000J0D01*
G01*
G37*
G36*
G01*
X87321601Y-175055000D02*
X87171601Y-175055000D01*
G75*
G02*
X87096601Y-174980000I0J75000D01*
G01*
X87096601Y-173680000D01*
G75*
G02*
X87171601Y-173605000I75000J0D01*
G01*
X87321601Y-173605000D01*
G75*
G02*
X87396601Y-173680000I0J-75000D01*
G01*
X87396601Y-174980000D01*
G75*
G02*
X87321601Y-175055000I-75000J0D01*
G01*
G37*
G36*
G01*
X86821601Y-175055000D02*
X86671601Y-175055000D01*
G75*
G02*
X86596601Y-174980000I0J75000D01*
G01*
X86596601Y-173680000D01*
G75*
G02*
X86671601Y-173605000I75000J0D01*
G01*
X86821601Y-173605000D01*
G75*
G02*
X86896601Y-173680000I0J-75000D01*
G01*
X86896601Y-174980000D01*
G75*
G02*
X86821601Y-175055000I-75000J0D01*
G01*
G37*
G36*
G01*
X86321601Y-175055000D02*
X86171601Y-175055000D01*
G75*
G02*
X86096601Y-174980000I0J75000D01*
G01*
X86096601Y-173680000D01*
G75*
G02*
X86171601Y-173605000I75000J0D01*
G01*
X86321601Y-173605000D01*
G75*
G02*
X86396601Y-173680000I0J-75000D01*
G01*
X86396601Y-174980000D01*
G75*
G02*
X86321601Y-175055000I-75000J0D01*
G01*
G37*
G36*
G01*
X85458001Y-52677800D02*
X85308001Y-52677800D01*
G75*
G02*
X85233001Y-52602800I0J75000D01*
G01*
X85233001Y-51302800D01*
G75*
G02*
X85308001Y-51227800I75000J0D01*
G01*
X85458001Y-51227800D01*
G75*
G02*
X85533001Y-51302800I0J-75000D01*
G01*
X85533001Y-52602800D01*
G75*
G02*
X85458001Y-52677800I-75000J0D01*
G01*
G37*
G36*
G01*
X85958001Y-52677800D02*
X85808001Y-52677800D01*
G75*
G02*
X85733001Y-52602800I0J75000D01*
G01*
X85733001Y-51302800D01*
G75*
G02*
X85808001Y-51227800I75000J0D01*
G01*
X85958001Y-51227800D01*
G75*
G02*
X86033001Y-51302800I0J-75000D01*
G01*
X86033001Y-52602800D01*
G75*
G02*
X85958001Y-52677800I-75000J0D01*
G01*
G37*
G36*
G01*
X86458001Y-52677800D02*
X86308001Y-52677800D01*
G75*
G02*
X86233001Y-52602800I0J75000D01*
G01*
X86233001Y-51302800D01*
G75*
G02*
X86308001Y-51227800I75000J0D01*
G01*
X86458001Y-51227800D01*
G75*
G02*
X86533001Y-51302800I0J-75000D01*
G01*
X86533001Y-52602800D01*
G75*
G02*
X86458001Y-52677800I-75000J0D01*
G01*
G37*
G36*
G01*
X86958001Y-52677800D02*
X86808001Y-52677800D01*
G75*
G02*
X86733001Y-52602800I0J75000D01*
G01*
X86733001Y-51302800D01*
G75*
G02*
X86808001Y-51227800I75000J0D01*
G01*
X86958001Y-51227800D01*
G75*
G02*
X87033001Y-51302800I0J-75000D01*
G01*
X87033001Y-52602800D01*
G75*
G02*
X86958001Y-52677800I-75000J0D01*
G01*
G37*
G36*
G01*
X87458001Y-52677800D02*
X87308001Y-52677800D01*
G75*
G02*
X87233001Y-52602800I0J75000D01*
G01*
X87233001Y-51302800D01*
G75*
G02*
X87308001Y-51227800I75000J0D01*
G01*
X87458001Y-51227800D01*
G75*
G02*
X87533001Y-51302800I0J-75000D01*
G01*
X87533001Y-52602800D01*
G75*
G02*
X87458001Y-52677800I-75000J0D01*
G01*
G37*
G36*
G01*
X87458001Y-57077800D02*
X87308001Y-57077800D01*
G75*
G02*
X87233001Y-57002800I0J75000D01*
G01*
X87233001Y-55702800D01*
G75*
G02*
X87308001Y-55627800I75000J0D01*
G01*
X87458001Y-55627800D01*
G75*
G02*
X87533001Y-55702800I0J-75000D01*
G01*
X87533001Y-57002800D01*
G75*
G02*
X87458001Y-57077800I-75000J0D01*
G01*
G37*
G36*
G01*
X86958001Y-57077800D02*
X86808001Y-57077800D01*
G75*
G02*
X86733001Y-57002800I0J75000D01*
G01*
X86733001Y-55702800D01*
G75*
G02*
X86808001Y-55627800I75000J0D01*
G01*
X86958001Y-55627800D01*
G75*
G02*
X87033001Y-55702800I0J-75000D01*
G01*
X87033001Y-57002800D01*
G75*
G02*
X86958001Y-57077800I-75000J0D01*
G01*
G37*
G36*
G01*
X86458001Y-57077800D02*
X86308001Y-57077800D01*
G75*
G02*
X86233001Y-57002800I0J75000D01*
G01*
X86233001Y-55702800D01*
G75*
G02*
X86308001Y-55627800I75000J0D01*
G01*
X86458001Y-55627800D01*
G75*
G02*
X86533001Y-55702800I0J-75000D01*
G01*
X86533001Y-57002800D01*
G75*
G02*
X86458001Y-57077800I-75000J0D01*
G01*
G37*
G36*
G01*
X85958001Y-57077800D02*
X85808001Y-57077800D01*
G75*
G02*
X85733001Y-57002800I0J75000D01*
G01*
X85733001Y-55702800D01*
G75*
G02*
X85808001Y-55627800I75000J0D01*
G01*
X85958001Y-55627800D01*
G75*
G02*
X86033001Y-55702800I0J-75000D01*
G01*
X86033001Y-57002800D01*
G75*
G02*
X85958001Y-57077800I-75000J0D01*
G01*
G37*
G36*
G01*
X85458001Y-57077800D02*
X85308001Y-57077800D01*
G75*
G02*
X85233001Y-57002800I0J75000D01*
G01*
X85233001Y-55702800D01*
G75*
G02*
X85308001Y-55627800I75000J0D01*
G01*
X85458001Y-55627800D01*
G75*
G02*
X85533001Y-55702800I0J-75000D01*
G01*
X85533001Y-57002800D01*
G75*
G02*
X85458001Y-57077800I-75000J0D01*
G01*
G37*
M02*
