G04 #@! TF.GenerationSoftware,KiCad,Pcbnew,(5.1.9)-1*
G04 #@! TF.CreationDate,2021-06-08T08:09:59+01:00*
G04 #@! TF.ProjectId,Looper_Board,4c6f6f70-6572-45f4-926f-6172642e6b69,rev?*
G04 #@! TF.SameCoordinates,Original*
G04 #@! TF.FileFunction,Copper,L4,Bot*
G04 #@! TF.FilePolarity,Positive*
%FSLAX46Y46*%
G04 Gerber Fmt 4.6, Leading zero omitted, Abs format (unit mm)*
G04 Created by KiCad (PCBNEW (5.1.9)-1) date 2021-06-08 08:09:59*
%MOMM*%
%LPD*%
G01*
G04 APERTURE LIST*
G04 #@! TA.AperFunction,SMDPad,CuDef*
%ADD10C,1.500000*%
G04 #@! TD*
G04 #@! TA.AperFunction,ComponentPad*
%ADD11R,1.700000X1.700000*%
G04 #@! TD*
G04 #@! TA.AperFunction,ComponentPad*
%ADD12O,1.700000X1.700000*%
G04 #@! TD*
G04 #@! TA.AperFunction,ComponentPad*
%ADD13O,1.250000X1.050000*%
G04 #@! TD*
G04 #@! TA.AperFunction,SMDPad,CuDef*
%ADD14R,1.350000X0.400000*%
G04 #@! TD*
G04 #@! TA.AperFunction,ComponentPad*
%ADD15O,1.900000X1.000000*%
G04 #@! TD*
G04 #@! TA.AperFunction,SMDPad,CuDef*
%ADD16R,1.900000X2.900000*%
G04 #@! TD*
G04 #@! TA.AperFunction,SMDPad,CuDef*
%ADD17R,1.900000X0.875000*%
G04 #@! TD*
G04 #@! TA.AperFunction,SMDPad,CuDef*
%ADD18R,1.600000X1.400000*%
G04 #@! TD*
G04 #@! TA.AperFunction,SMDPad,CuDef*
%ADD19R,1.060000X0.650000*%
G04 #@! TD*
G04 #@! TA.AperFunction,SMDPad,CuDef*
%ADD20R,1.000000X1.600000*%
G04 #@! TD*
G04 #@! TA.AperFunction,SMDPad,CuDef*
%ADD21C,0.787400*%
G04 #@! TD*
G04 #@! TA.AperFunction,SMDPad,CuDef*
%ADD22R,2.500000X1.000000*%
G04 #@! TD*
G04 #@! TA.AperFunction,SMDPad,CuDef*
%ADD23R,2.500000X2.500000*%
G04 #@! TD*
G04 #@! TA.AperFunction,SMDPad,CuDef*
%ADD24R,2.000000X2.400000*%
G04 #@! TD*
G04 #@! TA.AperFunction,ComponentPad*
%ADD25C,0.800000*%
G04 #@! TD*
G04 #@! TA.AperFunction,ComponentPad*
%ADD26C,6.000000*%
G04 #@! TD*
G04 #@! TA.AperFunction,ViaPad*
%ADD27C,0.685800*%
G04 #@! TD*
G04 #@! TA.AperFunction,Conductor*
%ADD28C,0.254000*%
G04 #@! TD*
G04 #@! TA.AperFunction,Conductor*
%ADD29C,0.508000*%
G04 #@! TD*
G04 #@! TA.AperFunction,Conductor*
%ADD30C,0.762000*%
G04 #@! TD*
G04 #@! TA.AperFunction,Conductor*
%ADD31C,0.117348*%
G04 #@! TD*
G04 #@! TA.AperFunction,Conductor*
%ADD32C,0.152400*%
G04 #@! TD*
G04 #@! TA.AperFunction,Conductor*
%ADD33C,0.360000*%
G04 #@! TD*
G04 #@! TA.AperFunction,Conductor*
%ADD34C,0.100000*%
G04 #@! TD*
G04 APERTURE END LIST*
G04 #@! TA.AperFunction,SMDPad,CuDef*
G36*
G01*
X127458800Y-127637300D02*
X127458800Y-127487300D01*
G75*
G02*
X127533800Y-127412300I75000J0D01*
G01*
X128933800Y-127412300D01*
G75*
G02*
X129008800Y-127487300I0J-75000D01*
G01*
X129008800Y-127637300D01*
G75*
G02*
X128933800Y-127712300I-75000J0D01*
G01*
X127533800Y-127712300D01*
G75*
G02*
X127458800Y-127637300I0J75000D01*
G01*
G37*
G04 #@! TD.AperFunction*
G04 #@! TA.AperFunction,SMDPad,CuDef*
G36*
G01*
X127458800Y-127137300D02*
X127458800Y-126987300D01*
G75*
G02*
X127533800Y-126912300I75000J0D01*
G01*
X128933800Y-126912300D01*
G75*
G02*
X129008800Y-126987300I0J-75000D01*
G01*
X129008800Y-127137300D01*
G75*
G02*
X128933800Y-127212300I-75000J0D01*
G01*
X127533800Y-127212300D01*
G75*
G02*
X127458800Y-127137300I0J75000D01*
G01*
G37*
G04 #@! TD.AperFunction*
G04 #@! TA.AperFunction,SMDPad,CuDef*
G36*
G01*
X127458800Y-126637300D02*
X127458800Y-126487300D01*
G75*
G02*
X127533800Y-126412300I75000J0D01*
G01*
X128933800Y-126412300D01*
G75*
G02*
X129008800Y-126487300I0J-75000D01*
G01*
X129008800Y-126637300D01*
G75*
G02*
X128933800Y-126712300I-75000J0D01*
G01*
X127533800Y-126712300D01*
G75*
G02*
X127458800Y-126637300I0J75000D01*
G01*
G37*
G04 #@! TD.AperFunction*
G04 #@! TA.AperFunction,SMDPad,CuDef*
G36*
G01*
X127458800Y-126137300D02*
X127458800Y-125987300D01*
G75*
G02*
X127533800Y-125912300I75000J0D01*
G01*
X128933800Y-125912300D01*
G75*
G02*
X129008800Y-125987300I0J-75000D01*
G01*
X129008800Y-126137300D01*
G75*
G02*
X128933800Y-126212300I-75000J0D01*
G01*
X127533800Y-126212300D01*
G75*
G02*
X127458800Y-126137300I0J75000D01*
G01*
G37*
G04 #@! TD.AperFunction*
G04 #@! TA.AperFunction,SMDPad,CuDef*
G36*
G01*
X127458800Y-125637300D02*
X127458800Y-125487300D01*
G75*
G02*
X127533800Y-125412300I75000J0D01*
G01*
X128933800Y-125412300D01*
G75*
G02*
X129008800Y-125487300I0J-75000D01*
G01*
X129008800Y-125637300D01*
G75*
G02*
X128933800Y-125712300I-75000J0D01*
G01*
X127533800Y-125712300D01*
G75*
G02*
X127458800Y-125637300I0J75000D01*
G01*
G37*
G04 #@! TD.AperFunction*
G04 #@! TA.AperFunction,SMDPad,CuDef*
G36*
G01*
X127458800Y-125137300D02*
X127458800Y-124987300D01*
G75*
G02*
X127533800Y-124912300I75000J0D01*
G01*
X128933800Y-124912300D01*
G75*
G02*
X129008800Y-124987300I0J-75000D01*
G01*
X129008800Y-125137300D01*
G75*
G02*
X128933800Y-125212300I-75000J0D01*
G01*
X127533800Y-125212300D01*
G75*
G02*
X127458800Y-125137300I0J75000D01*
G01*
G37*
G04 #@! TD.AperFunction*
G04 #@! TA.AperFunction,SMDPad,CuDef*
G36*
G01*
X127458800Y-124637300D02*
X127458800Y-124487300D01*
G75*
G02*
X127533800Y-124412300I75000J0D01*
G01*
X128933800Y-124412300D01*
G75*
G02*
X129008800Y-124487300I0J-75000D01*
G01*
X129008800Y-124637300D01*
G75*
G02*
X128933800Y-124712300I-75000J0D01*
G01*
X127533800Y-124712300D01*
G75*
G02*
X127458800Y-124637300I0J75000D01*
G01*
G37*
G04 #@! TD.AperFunction*
G04 #@! TA.AperFunction,SMDPad,CuDef*
G36*
G01*
X127458800Y-124137300D02*
X127458800Y-123987300D01*
G75*
G02*
X127533800Y-123912300I75000J0D01*
G01*
X128933800Y-123912300D01*
G75*
G02*
X129008800Y-123987300I0J-75000D01*
G01*
X129008800Y-124137300D01*
G75*
G02*
X128933800Y-124212300I-75000J0D01*
G01*
X127533800Y-124212300D01*
G75*
G02*
X127458800Y-124137300I0J75000D01*
G01*
G37*
G04 #@! TD.AperFunction*
G04 #@! TA.AperFunction,SMDPad,CuDef*
G36*
G01*
X127458800Y-123637300D02*
X127458800Y-123487300D01*
G75*
G02*
X127533800Y-123412300I75000J0D01*
G01*
X128933800Y-123412300D01*
G75*
G02*
X129008800Y-123487300I0J-75000D01*
G01*
X129008800Y-123637300D01*
G75*
G02*
X128933800Y-123712300I-75000J0D01*
G01*
X127533800Y-123712300D01*
G75*
G02*
X127458800Y-123637300I0J75000D01*
G01*
G37*
G04 #@! TD.AperFunction*
G04 #@! TA.AperFunction,SMDPad,CuDef*
G36*
G01*
X127458800Y-123137300D02*
X127458800Y-122987300D01*
G75*
G02*
X127533800Y-122912300I75000J0D01*
G01*
X128933800Y-122912300D01*
G75*
G02*
X129008800Y-122987300I0J-75000D01*
G01*
X129008800Y-123137300D01*
G75*
G02*
X128933800Y-123212300I-75000J0D01*
G01*
X127533800Y-123212300D01*
G75*
G02*
X127458800Y-123137300I0J75000D01*
G01*
G37*
G04 #@! TD.AperFunction*
G04 #@! TA.AperFunction,SMDPad,CuDef*
G36*
G01*
X127458800Y-122637300D02*
X127458800Y-122487300D01*
G75*
G02*
X127533800Y-122412300I75000J0D01*
G01*
X128933800Y-122412300D01*
G75*
G02*
X129008800Y-122487300I0J-75000D01*
G01*
X129008800Y-122637300D01*
G75*
G02*
X128933800Y-122712300I-75000J0D01*
G01*
X127533800Y-122712300D01*
G75*
G02*
X127458800Y-122637300I0J75000D01*
G01*
G37*
G04 #@! TD.AperFunction*
G04 #@! TA.AperFunction,SMDPad,CuDef*
G36*
G01*
X127458800Y-122137300D02*
X127458800Y-121987300D01*
G75*
G02*
X127533800Y-121912300I75000J0D01*
G01*
X128933800Y-121912300D01*
G75*
G02*
X129008800Y-121987300I0J-75000D01*
G01*
X129008800Y-122137300D01*
G75*
G02*
X128933800Y-122212300I-75000J0D01*
G01*
X127533800Y-122212300D01*
G75*
G02*
X127458800Y-122137300I0J75000D01*
G01*
G37*
G04 #@! TD.AperFunction*
G04 #@! TA.AperFunction,SMDPad,CuDef*
G36*
G01*
X127458800Y-121637300D02*
X127458800Y-121487300D01*
G75*
G02*
X127533800Y-121412300I75000J0D01*
G01*
X128933800Y-121412300D01*
G75*
G02*
X129008800Y-121487300I0J-75000D01*
G01*
X129008800Y-121637300D01*
G75*
G02*
X128933800Y-121712300I-75000J0D01*
G01*
X127533800Y-121712300D01*
G75*
G02*
X127458800Y-121637300I0J75000D01*
G01*
G37*
G04 #@! TD.AperFunction*
G04 #@! TA.AperFunction,SMDPad,CuDef*
G36*
G01*
X127458800Y-121137300D02*
X127458800Y-120987300D01*
G75*
G02*
X127533800Y-120912300I75000J0D01*
G01*
X128933800Y-120912300D01*
G75*
G02*
X129008800Y-120987300I0J-75000D01*
G01*
X129008800Y-121137300D01*
G75*
G02*
X128933800Y-121212300I-75000J0D01*
G01*
X127533800Y-121212300D01*
G75*
G02*
X127458800Y-121137300I0J75000D01*
G01*
G37*
G04 #@! TD.AperFunction*
G04 #@! TA.AperFunction,SMDPad,CuDef*
G36*
G01*
X127458800Y-120637300D02*
X127458800Y-120487300D01*
G75*
G02*
X127533800Y-120412300I75000J0D01*
G01*
X128933800Y-120412300D01*
G75*
G02*
X129008800Y-120487300I0J-75000D01*
G01*
X129008800Y-120637300D01*
G75*
G02*
X128933800Y-120712300I-75000J0D01*
G01*
X127533800Y-120712300D01*
G75*
G02*
X127458800Y-120637300I0J75000D01*
G01*
G37*
G04 #@! TD.AperFunction*
G04 #@! TA.AperFunction,SMDPad,CuDef*
G36*
G01*
X127458800Y-120137300D02*
X127458800Y-119987300D01*
G75*
G02*
X127533800Y-119912300I75000J0D01*
G01*
X128933800Y-119912300D01*
G75*
G02*
X129008800Y-119987300I0J-75000D01*
G01*
X129008800Y-120137300D01*
G75*
G02*
X128933800Y-120212300I-75000J0D01*
G01*
X127533800Y-120212300D01*
G75*
G02*
X127458800Y-120137300I0J75000D01*
G01*
G37*
G04 #@! TD.AperFunction*
G04 #@! TA.AperFunction,SMDPad,CuDef*
G36*
G01*
X130008800Y-118837300D02*
X130008800Y-117437300D01*
G75*
G02*
X130083800Y-117362300I75000J0D01*
G01*
X130233800Y-117362300D01*
G75*
G02*
X130308800Y-117437300I0J-75000D01*
G01*
X130308800Y-118837300D01*
G75*
G02*
X130233800Y-118912300I-75000J0D01*
G01*
X130083800Y-118912300D01*
G75*
G02*
X130008800Y-118837300I0J75000D01*
G01*
G37*
G04 #@! TD.AperFunction*
G04 #@! TA.AperFunction,SMDPad,CuDef*
G36*
G01*
X130508800Y-118837300D02*
X130508800Y-117437300D01*
G75*
G02*
X130583800Y-117362300I75000J0D01*
G01*
X130733800Y-117362300D01*
G75*
G02*
X130808800Y-117437300I0J-75000D01*
G01*
X130808800Y-118837300D01*
G75*
G02*
X130733800Y-118912300I-75000J0D01*
G01*
X130583800Y-118912300D01*
G75*
G02*
X130508800Y-118837300I0J75000D01*
G01*
G37*
G04 #@! TD.AperFunction*
G04 #@! TA.AperFunction,SMDPad,CuDef*
G36*
G01*
X131008800Y-118837300D02*
X131008800Y-117437300D01*
G75*
G02*
X131083800Y-117362300I75000J0D01*
G01*
X131233800Y-117362300D01*
G75*
G02*
X131308800Y-117437300I0J-75000D01*
G01*
X131308800Y-118837300D01*
G75*
G02*
X131233800Y-118912300I-75000J0D01*
G01*
X131083800Y-118912300D01*
G75*
G02*
X131008800Y-118837300I0J75000D01*
G01*
G37*
G04 #@! TD.AperFunction*
G04 #@! TA.AperFunction,SMDPad,CuDef*
G36*
G01*
X131508800Y-118837300D02*
X131508800Y-117437300D01*
G75*
G02*
X131583800Y-117362300I75000J0D01*
G01*
X131733800Y-117362300D01*
G75*
G02*
X131808800Y-117437300I0J-75000D01*
G01*
X131808800Y-118837300D01*
G75*
G02*
X131733800Y-118912300I-75000J0D01*
G01*
X131583800Y-118912300D01*
G75*
G02*
X131508800Y-118837300I0J75000D01*
G01*
G37*
G04 #@! TD.AperFunction*
G04 #@! TA.AperFunction,SMDPad,CuDef*
G36*
G01*
X132008800Y-118837300D02*
X132008800Y-117437300D01*
G75*
G02*
X132083800Y-117362300I75000J0D01*
G01*
X132233800Y-117362300D01*
G75*
G02*
X132308800Y-117437300I0J-75000D01*
G01*
X132308800Y-118837300D01*
G75*
G02*
X132233800Y-118912300I-75000J0D01*
G01*
X132083800Y-118912300D01*
G75*
G02*
X132008800Y-118837300I0J75000D01*
G01*
G37*
G04 #@! TD.AperFunction*
G04 #@! TA.AperFunction,SMDPad,CuDef*
G36*
G01*
X132508800Y-118837300D02*
X132508800Y-117437300D01*
G75*
G02*
X132583800Y-117362300I75000J0D01*
G01*
X132733800Y-117362300D01*
G75*
G02*
X132808800Y-117437300I0J-75000D01*
G01*
X132808800Y-118837300D01*
G75*
G02*
X132733800Y-118912300I-75000J0D01*
G01*
X132583800Y-118912300D01*
G75*
G02*
X132508800Y-118837300I0J75000D01*
G01*
G37*
G04 #@! TD.AperFunction*
G04 #@! TA.AperFunction,SMDPad,CuDef*
G36*
G01*
X133008800Y-118837300D02*
X133008800Y-117437300D01*
G75*
G02*
X133083800Y-117362300I75000J0D01*
G01*
X133233800Y-117362300D01*
G75*
G02*
X133308800Y-117437300I0J-75000D01*
G01*
X133308800Y-118837300D01*
G75*
G02*
X133233800Y-118912300I-75000J0D01*
G01*
X133083800Y-118912300D01*
G75*
G02*
X133008800Y-118837300I0J75000D01*
G01*
G37*
G04 #@! TD.AperFunction*
G04 #@! TA.AperFunction,SMDPad,CuDef*
G36*
G01*
X133508800Y-118837300D02*
X133508800Y-117437300D01*
G75*
G02*
X133583800Y-117362300I75000J0D01*
G01*
X133733800Y-117362300D01*
G75*
G02*
X133808800Y-117437300I0J-75000D01*
G01*
X133808800Y-118837300D01*
G75*
G02*
X133733800Y-118912300I-75000J0D01*
G01*
X133583800Y-118912300D01*
G75*
G02*
X133508800Y-118837300I0J75000D01*
G01*
G37*
G04 #@! TD.AperFunction*
G04 #@! TA.AperFunction,SMDPad,CuDef*
G36*
G01*
X134008800Y-118837300D02*
X134008800Y-117437300D01*
G75*
G02*
X134083800Y-117362300I75000J0D01*
G01*
X134233800Y-117362300D01*
G75*
G02*
X134308800Y-117437300I0J-75000D01*
G01*
X134308800Y-118837300D01*
G75*
G02*
X134233800Y-118912300I-75000J0D01*
G01*
X134083800Y-118912300D01*
G75*
G02*
X134008800Y-118837300I0J75000D01*
G01*
G37*
G04 #@! TD.AperFunction*
G04 #@! TA.AperFunction,SMDPad,CuDef*
G36*
G01*
X134508800Y-118837300D02*
X134508800Y-117437300D01*
G75*
G02*
X134583800Y-117362300I75000J0D01*
G01*
X134733800Y-117362300D01*
G75*
G02*
X134808800Y-117437300I0J-75000D01*
G01*
X134808800Y-118837300D01*
G75*
G02*
X134733800Y-118912300I-75000J0D01*
G01*
X134583800Y-118912300D01*
G75*
G02*
X134508800Y-118837300I0J75000D01*
G01*
G37*
G04 #@! TD.AperFunction*
G04 #@! TA.AperFunction,SMDPad,CuDef*
G36*
G01*
X135008800Y-118837300D02*
X135008800Y-117437300D01*
G75*
G02*
X135083800Y-117362300I75000J0D01*
G01*
X135233800Y-117362300D01*
G75*
G02*
X135308800Y-117437300I0J-75000D01*
G01*
X135308800Y-118837300D01*
G75*
G02*
X135233800Y-118912300I-75000J0D01*
G01*
X135083800Y-118912300D01*
G75*
G02*
X135008800Y-118837300I0J75000D01*
G01*
G37*
G04 #@! TD.AperFunction*
G04 #@! TA.AperFunction,SMDPad,CuDef*
G36*
G01*
X135508800Y-118837300D02*
X135508800Y-117437300D01*
G75*
G02*
X135583800Y-117362300I75000J0D01*
G01*
X135733800Y-117362300D01*
G75*
G02*
X135808800Y-117437300I0J-75000D01*
G01*
X135808800Y-118837300D01*
G75*
G02*
X135733800Y-118912300I-75000J0D01*
G01*
X135583800Y-118912300D01*
G75*
G02*
X135508800Y-118837300I0J75000D01*
G01*
G37*
G04 #@! TD.AperFunction*
G04 #@! TA.AperFunction,SMDPad,CuDef*
G36*
G01*
X136008800Y-118837300D02*
X136008800Y-117437300D01*
G75*
G02*
X136083800Y-117362300I75000J0D01*
G01*
X136233800Y-117362300D01*
G75*
G02*
X136308800Y-117437300I0J-75000D01*
G01*
X136308800Y-118837300D01*
G75*
G02*
X136233800Y-118912300I-75000J0D01*
G01*
X136083800Y-118912300D01*
G75*
G02*
X136008800Y-118837300I0J75000D01*
G01*
G37*
G04 #@! TD.AperFunction*
G04 #@! TA.AperFunction,SMDPad,CuDef*
G36*
G01*
X136508800Y-118837300D02*
X136508800Y-117437300D01*
G75*
G02*
X136583800Y-117362300I75000J0D01*
G01*
X136733800Y-117362300D01*
G75*
G02*
X136808800Y-117437300I0J-75000D01*
G01*
X136808800Y-118837300D01*
G75*
G02*
X136733800Y-118912300I-75000J0D01*
G01*
X136583800Y-118912300D01*
G75*
G02*
X136508800Y-118837300I0J75000D01*
G01*
G37*
G04 #@! TD.AperFunction*
G04 #@! TA.AperFunction,SMDPad,CuDef*
G36*
G01*
X137008800Y-118837300D02*
X137008800Y-117437300D01*
G75*
G02*
X137083800Y-117362300I75000J0D01*
G01*
X137233800Y-117362300D01*
G75*
G02*
X137308800Y-117437300I0J-75000D01*
G01*
X137308800Y-118837300D01*
G75*
G02*
X137233800Y-118912300I-75000J0D01*
G01*
X137083800Y-118912300D01*
G75*
G02*
X137008800Y-118837300I0J75000D01*
G01*
G37*
G04 #@! TD.AperFunction*
G04 #@! TA.AperFunction,SMDPad,CuDef*
G36*
G01*
X137508800Y-118837300D02*
X137508800Y-117437300D01*
G75*
G02*
X137583800Y-117362300I75000J0D01*
G01*
X137733800Y-117362300D01*
G75*
G02*
X137808800Y-117437300I0J-75000D01*
G01*
X137808800Y-118837300D01*
G75*
G02*
X137733800Y-118912300I-75000J0D01*
G01*
X137583800Y-118912300D01*
G75*
G02*
X137508800Y-118837300I0J75000D01*
G01*
G37*
G04 #@! TD.AperFunction*
G04 #@! TA.AperFunction,SMDPad,CuDef*
G36*
G01*
X138808800Y-120137300D02*
X138808800Y-119987300D01*
G75*
G02*
X138883800Y-119912300I75000J0D01*
G01*
X140283800Y-119912300D01*
G75*
G02*
X140358800Y-119987300I0J-75000D01*
G01*
X140358800Y-120137300D01*
G75*
G02*
X140283800Y-120212300I-75000J0D01*
G01*
X138883800Y-120212300D01*
G75*
G02*
X138808800Y-120137300I0J75000D01*
G01*
G37*
G04 #@! TD.AperFunction*
G04 #@! TA.AperFunction,SMDPad,CuDef*
G36*
G01*
X138808800Y-120637300D02*
X138808800Y-120487300D01*
G75*
G02*
X138883800Y-120412300I75000J0D01*
G01*
X140283800Y-120412300D01*
G75*
G02*
X140358800Y-120487300I0J-75000D01*
G01*
X140358800Y-120637300D01*
G75*
G02*
X140283800Y-120712300I-75000J0D01*
G01*
X138883800Y-120712300D01*
G75*
G02*
X138808800Y-120637300I0J75000D01*
G01*
G37*
G04 #@! TD.AperFunction*
G04 #@! TA.AperFunction,SMDPad,CuDef*
G36*
G01*
X138808800Y-121137300D02*
X138808800Y-120987300D01*
G75*
G02*
X138883800Y-120912300I75000J0D01*
G01*
X140283800Y-120912300D01*
G75*
G02*
X140358800Y-120987300I0J-75000D01*
G01*
X140358800Y-121137300D01*
G75*
G02*
X140283800Y-121212300I-75000J0D01*
G01*
X138883800Y-121212300D01*
G75*
G02*
X138808800Y-121137300I0J75000D01*
G01*
G37*
G04 #@! TD.AperFunction*
G04 #@! TA.AperFunction,SMDPad,CuDef*
G36*
G01*
X138808800Y-121637300D02*
X138808800Y-121487300D01*
G75*
G02*
X138883800Y-121412300I75000J0D01*
G01*
X140283800Y-121412300D01*
G75*
G02*
X140358800Y-121487300I0J-75000D01*
G01*
X140358800Y-121637300D01*
G75*
G02*
X140283800Y-121712300I-75000J0D01*
G01*
X138883800Y-121712300D01*
G75*
G02*
X138808800Y-121637300I0J75000D01*
G01*
G37*
G04 #@! TD.AperFunction*
G04 #@! TA.AperFunction,SMDPad,CuDef*
G36*
G01*
X138808800Y-122137300D02*
X138808800Y-121987300D01*
G75*
G02*
X138883800Y-121912300I75000J0D01*
G01*
X140283800Y-121912300D01*
G75*
G02*
X140358800Y-121987300I0J-75000D01*
G01*
X140358800Y-122137300D01*
G75*
G02*
X140283800Y-122212300I-75000J0D01*
G01*
X138883800Y-122212300D01*
G75*
G02*
X138808800Y-122137300I0J75000D01*
G01*
G37*
G04 #@! TD.AperFunction*
G04 #@! TA.AperFunction,SMDPad,CuDef*
G36*
G01*
X138808800Y-122637300D02*
X138808800Y-122487300D01*
G75*
G02*
X138883800Y-122412300I75000J0D01*
G01*
X140283800Y-122412300D01*
G75*
G02*
X140358800Y-122487300I0J-75000D01*
G01*
X140358800Y-122637300D01*
G75*
G02*
X140283800Y-122712300I-75000J0D01*
G01*
X138883800Y-122712300D01*
G75*
G02*
X138808800Y-122637300I0J75000D01*
G01*
G37*
G04 #@! TD.AperFunction*
G04 #@! TA.AperFunction,SMDPad,CuDef*
G36*
G01*
X138808800Y-123137300D02*
X138808800Y-122987300D01*
G75*
G02*
X138883800Y-122912300I75000J0D01*
G01*
X140283800Y-122912300D01*
G75*
G02*
X140358800Y-122987300I0J-75000D01*
G01*
X140358800Y-123137300D01*
G75*
G02*
X140283800Y-123212300I-75000J0D01*
G01*
X138883800Y-123212300D01*
G75*
G02*
X138808800Y-123137300I0J75000D01*
G01*
G37*
G04 #@! TD.AperFunction*
G04 #@! TA.AperFunction,SMDPad,CuDef*
G36*
G01*
X138808800Y-123637300D02*
X138808800Y-123487300D01*
G75*
G02*
X138883800Y-123412300I75000J0D01*
G01*
X140283800Y-123412300D01*
G75*
G02*
X140358800Y-123487300I0J-75000D01*
G01*
X140358800Y-123637300D01*
G75*
G02*
X140283800Y-123712300I-75000J0D01*
G01*
X138883800Y-123712300D01*
G75*
G02*
X138808800Y-123637300I0J75000D01*
G01*
G37*
G04 #@! TD.AperFunction*
G04 #@! TA.AperFunction,SMDPad,CuDef*
G36*
G01*
X138808800Y-124137300D02*
X138808800Y-123987300D01*
G75*
G02*
X138883800Y-123912300I75000J0D01*
G01*
X140283800Y-123912300D01*
G75*
G02*
X140358800Y-123987300I0J-75000D01*
G01*
X140358800Y-124137300D01*
G75*
G02*
X140283800Y-124212300I-75000J0D01*
G01*
X138883800Y-124212300D01*
G75*
G02*
X138808800Y-124137300I0J75000D01*
G01*
G37*
G04 #@! TD.AperFunction*
G04 #@! TA.AperFunction,SMDPad,CuDef*
G36*
G01*
X138808800Y-124637300D02*
X138808800Y-124487300D01*
G75*
G02*
X138883800Y-124412300I75000J0D01*
G01*
X140283800Y-124412300D01*
G75*
G02*
X140358800Y-124487300I0J-75000D01*
G01*
X140358800Y-124637300D01*
G75*
G02*
X140283800Y-124712300I-75000J0D01*
G01*
X138883800Y-124712300D01*
G75*
G02*
X138808800Y-124637300I0J75000D01*
G01*
G37*
G04 #@! TD.AperFunction*
G04 #@! TA.AperFunction,SMDPad,CuDef*
G36*
G01*
X138808800Y-125137300D02*
X138808800Y-124987300D01*
G75*
G02*
X138883800Y-124912300I75000J0D01*
G01*
X140283800Y-124912300D01*
G75*
G02*
X140358800Y-124987300I0J-75000D01*
G01*
X140358800Y-125137300D01*
G75*
G02*
X140283800Y-125212300I-75000J0D01*
G01*
X138883800Y-125212300D01*
G75*
G02*
X138808800Y-125137300I0J75000D01*
G01*
G37*
G04 #@! TD.AperFunction*
G04 #@! TA.AperFunction,SMDPad,CuDef*
G36*
G01*
X138808800Y-125637300D02*
X138808800Y-125487300D01*
G75*
G02*
X138883800Y-125412300I75000J0D01*
G01*
X140283800Y-125412300D01*
G75*
G02*
X140358800Y-125487300I0J-75000D01*
G01*
X140358800Y-125637300D01*
G75*
G02*
X140283800Y-125712300I-75000J0D01*
G01*
X138883800Y-125712300D01*
G75*
G02*
X138808800Y-125637300I0J75000D01*
G01*
G37*
G04 #@! TD.AperFunction*
G04 #@! TA.AperFunction,SMDPad,CuDef*
G36*
G01*
X138808800Y-126137300D02*
X138808800Y-125987300D01*
G75*
G02*
X138883800Y-125912300I75000J0D01*
G01*
X140283800Y-125912300D01*
G75*
G02*
X140358800Y-125987300I0J-75000D01*
G01*
X140358800Y-126137300D01*
G75*
G02*
X140283800Y-126212300I-75000J0D01*
G01*
X138883800Y-126212300D01*
G75*
G02*
X138808800Y-126137300I0J75000D01*
G01*
G37*
G04 #@! TD.AperFunction*
G04 #@! TA.AperFunction,SMDPad,CuDef*
G36*
G01*
X138808800Y-126637300D02*
X138808800Y-126487300D01*
G75*
G02*
X138883800Y-126412300I75000J0D01*
G01*
X140283800Y-126412300D01*
G75*
G02*
X140358800Y-126487300I0J-75000D01*
G01*
X140358800Y-126637300D01*
G75*
G02*
X140283800Y-126712300I-75000J0D01*
G01*
X138883800Y-126712300D01*
G75*
G02*
X138808800Y-126637300I0J75000D01*
G01*
G37*
G04 #@! TD.AperFunction*
G04 #@! TA.AperFunction,SMDPad,CuDef*
G36*
G01*
X138808800Y-127137300D02*
X138808800Y-126987300D01*
G75*
G02*
X138883800Y-126912300I75000J0D01*
G01*
X140283800Y-126912300D01*
G75*
G02*
X140358800Y-126987300I0J-75000D01*
G01*
X140358800Y-127137300D01*
G75*
G02*
X140283800Y-127212300I-75000J0D01*
G01*
X138883800Y-127212300D01*
G75*
G02*
X138808800Y-127137300I0J75000D01*
G01*
G37*
G04 #@! TD.AperFunction*
G04 #@! TA.AperFunction,SMDPad,CuDef*
G36*
G01*
X138808800Y-127637300D02*
X138808800Y-127487300D01*
G75*
G02*
X138883800Y-127412300I75000J0D01*
G01*
X140283800Y-127412300D01*
G75*
G02*
X140358800Y-127487300I0J-75000D01*
G01*
X140358800Y-127637300D01*
G75*
G02*
X140283800Y-127712300I-75000J0D01*
G01*
X138883800Y-127712300D01*
G75*
G02*
X138808800Y-127637300I0J75000D01*
G01*
G37*
G04 #@! TD.AperFunction*
G04 #@! TA.AperFunction,SMDPad,CuDef*
G36*
G01*
X137508800Y-130187300D02*
X137508800Y-128787300D01*
G75*
G02*
X137583800Y-128712300I75000J0D01*
G01*
X137733800Y-128712300D01*
G75*
G02*
X137808800Y-128787300I0J-75000D01*
G01*
X137808800Y-130187300D01*
G75*
G02*
X137733800Y-130262300I-75000J0D01*
G01*
X137583800Y-130262300D01*
G75*
G02*
X137508800Y-130187300I0J75000D01*
G01*
G37*
G04 #@! TD.AperFunction*
G04 #@! TA.AperFunction,SMDPad,CuDef*
G36*
G01*
X137008800Y-130187300D02*
X137008800Y-128787300D01*
G75*
G02*
X137083800Y-128712300I75000J0D01*
G01*
X137233800Y-128712300D01*
G75*
G02*
X137308800Y-128787300I0J-75000D01*
G01*
X137308800Y-130187300D01*
G75*
G02*
X137233800Y-130262300I-75000J0D01*
G01*
X137083800Y-130262300D01*
G75*
G02*
X137008800Y-130187300I0J75000D01*
G01*
G37*
G04 #@! TD.AperFunction*
G04 #@! TA.AperFunction,SMDPad,CuDef*
G36*
G01*
X136508800Y-130187300D02*
X136508800Y-128787300D01*
G75*
G02*
X136583800Y-128712300I75000J0D01*
G01*
X136733800Y-128712300D01*
G75*
G02*
X136808800Y-128787300I0J-75000D01*
G01*
X136808800Y-130187300D01*
G75*
G02*
X136733800Y-130262300I-75000J0D01*
G01*
X136583800Y-130262300D01*
G75*
G02*
X136508800Y-130187300I0J75000D01*
G01*
G37*
G04 #@! TD.AperFunction*
G04 #@! TA.AperFunction,SMDPad,CuDef*
G36*
G01*
X136008800Y-130187300D02*
X136008800Y-128787300D01*
G75*
G02*
X136083800Y-128712300I75000J0D01*
G01*
X136233800Y-128712300D01*
G75*
G02*
X136308800Y-128787300I0J-75000D01*
G01*
X136308800Y-130187300D01*
G75*
G02*
X136233800Y-130262300I-75000J0D01*
G01*
X136083800Y-130262300D01*
G75*
G02*
X136008800Y-130187300I0J75000D01*
G01*
G37*
G04 #@! TD.AperFunction*
G04 #@! TA.AperFunction,SMDPad,CuDef*
G36*
G01*
X135508800Y-130187300D02*
X135508800Y-128787300D01*
G75*
G02*
X135583800Y-128712300I75000J0D01*
G01*
X135733800Y-128712300D01*
G75*
G02*
X135808800Y-128787300I0J-75000D01*
G01*
X135808800Y-130187300D01*
G75*
G02*
X135733800Y-130262300I-75000J0D01*
G01*
X135583800Y-130262300D01*
G75*
G02*
X135508800Y-130187300I0J75000D01*
G01*
G37*
G04 #@! TD.AperFunction*
G04 #@! TA.AperFunction,SMDPad,CuDef*
G36*
G01*
X135008800Y-130187300D02*
X135008800Y-128787300D01*
G75*
G02*
X135083800Y-128712300I75000J0D01*
G01*
X135233800Y-128712300D01*
G75*
G02*
X135308800Y-128787300I0J-75000D01*
G01*
X135308800Y-130187300D01*
G75*
G02*
X135233800Y-130262300I-75000J0D01*
G01*
X135083800Y-130262300D01*
G75*
G02*
X135008800Y-130187300I0J75000D01*
G01*
G37*
G04 #@! TD.AperFunction*
G04 #@! TA.AperFunction,SMDPad,CuDef*
G36*
G01*
X134508800Y-130187300D02*
X134508800Y-128787300D01*
G75*
G02*
X134583800Y-128712300I75000J0D01*
G01*
X134733800Y-128712300D01*
G75*
G02*
X134808800Y-128787300I0J-75000D01*
G01*
X134808800Y-130187300D01*
G75*
G02*
X134733800Y-130262300I-75000J0D01*
G01*
X134583800Y-130262300D01*
G75*
G02*
X134508800Y-130187300I0J75000D01*
G01*
G37*
G04 #@! TD.AperFunction*
G04 #@! TA.AperFunction,SMDPad,CuDef*
G36*
G01*
X134008800Y-130187300D02*
X134008800Y-128787300D01*
G75*
G02*
X134083800Y-128712300I75000J0D01*
G01*
X134233800Y-128712300D01*
G75*
G02*
X134308800Y-128787300I0J-75000D01*
G01*
X134308800Y-130187300D01*
G75*
G02*
X134233800Y-130262300I-75000J0D01*
G01*
X134083800Y-130262300D01*
G75*
G02*
X134008800Y-130187300I0J75000D01*
G01*
G37*
G04 #@! TD.AperFunction*
G04 #@! TA.AperFunction,SMDPad,CuDef*
G36*
G01*
X133508800Y-130187300D02*
X133508800Y-128787300D01*
G75*
G02*
X133583800Y-128712300I75000J0D01*
G01*
X133733800Y-128712300D01*
G75*
G02*
X133808800Y-128787300I0J-75000D01*
G01*
X133808800Y-130187300D01*
G75*
G02*
X133733800Y-130262300I-75000J0D01*
G01*
X133583800Y-130262300D01*
G75*
G02*
X133508800Y-130187300I0J75000D01*
G01*
G37*
G04 #@! TD.AperFunction*
G04 #@! TA.AperFunction,SMDPad,CuDef*
G36*
G01*
X133008800Y-130187300D02*
X133008800Y-128787300D01*
G75*
G02*
X133083800Y-128712300I75000J0D01*
G01*
X133233800Y-128712300D01*
G75*
G02*
X133308800Y-128787300I0J-75000D01*
G01*
X133308800Y-130187300D01*
G75*
G02*
X133233800Y-130262300I-75000J0D01*
G01*
X133083800Y-130262300D01*
G75*
G02*
X133008800Y-130187300I0J75000D01*
G01*
G37*
G04 #@! TD.AperFunction*
G04 #@! TA.AperFunction,SMDPad,CuDef*
G36*
G01*
X132508800Y-130187300D02*
X132508800Y-128787300D01*
G75*
G02*
X132583800Y-128712300I75000J0D01*
G01*
X132733800Y-128712300D01*
G75*
G02*
X132808800Y-128787300I0J-75000D01*
G01*
X132808800Y-130187300D01*
G75*
G02*
X132733800Y-130262300I-75000J0D01*
G01*
X132583800Y-130262300D01*
G75*
G02*
X132508800Y-130187300I0J75000D01*
G01*
G37*
G04 #@! TD.AperFunction*
G04 #@! TA.AperFunction,SMDPad,CuDef*
G36*
G01*
X132008800Y-130187300D02*
X132008800Y-128787300D01*
G75*
G02*
X132083800Y-128712300I75000J0D01*
G01*
X132233800Y-128712300D01*
G75*
G02*
X132308800Y-128787300I0J-75000D01*
G01*
X132308800Y-130187300D01*
G75*
G02*
X132233800Y-130262300I-75000J0D01*
G01*
X132083800Y-130262300D01*
G75*
G02*
X132008800Y-130187300I0J75000D01*
G01*
G37*
G04 #@! TD.AperFunction*
G04 #@! TA.AperFunction,SMDPad,CuDef*
G36*
G01*
X131508800Y-130187300D02*
X131508800Y-128787300D01*
G75*
G02*
X131583800Y-128712300I75000J0D01*
G01*
X131733800Y-128712300D01*
G75*
G02*
X131808800Y-128787300I0J-75000D01*
G01*
X131808800Y-130187300D01*
G75*
G02*
X131733800Y-130262300I-75000J0D01*
G01*
X131583800Y-130262300D01*
G75*
G02*
X131508800Y-130187300I0J75000D01*
G01*
G37*
G04 #@! TD.AperFunction*
G04 #@! TA.AperFunction,SMDPad,CuDef*
G36*
G01*
X131008800Y-130187300D02*
X131008800Y-128787300D01*
G75*
G02*
X131083800Y-128712300I75000J0D01*
G01*
X131233800Y-128712300D01*
G75*
G02*
X131308800Y-128787300I0J-75000D01*
G01*
X131308800Y-130187300D01*
G75*
G02*
X131233800Y-130262300I-75000J0D01*
G01*
X131083800Y-130262300D01*
G75*
G02*
X131008800Y-130187300I0J75000D01*
G01*
G37*
G04 #@! TD.AperFunction*
G04 #@! TA.AperFunction,SMDPad,CuDef*
G36*
G01*
X130508800Y-130187300D02*
X130508800Y-128787300D01*
G75*
G02*
X130583800Y-128712300I75000J0D01*
G01*
X130733800Y-128712300D01*
G75*
G02*
X130808800Y-128787300I0J-75000D01*
G01*
X130808800Y-130187300D01*
G75*
G02*
X130733800Y-130262300I-75000J0D01*
G01*
X130583800Y-130262300D01*
G75*
G02*
X130508800Y-130187300I0J75000D01*
G01*
G37*
G04 #@! TD.AperFunction*
G04 #@! TA.AperFunction,SMDPad,CuDef*
G36*
G01*
X130008800Y-130187300D02*
X130008800Y-128787300D01*
G75*
G02*
X130083800Y-128712300I75000J0D01*
G01*
X130233800Y-128712300D01*
G75*
G02*
X130308800Y-128787300I0J-75000D01*
G01*
X130308800Y-130187300D01*
G75*
G02*
X130233800Y-130262300I-75000J0D01*
G01*
X130083800Y-130262300D01*
G75*
G02*
X130008800Y-130187300I0J75000D01*
G01*
G37*
G04 #@! TD.AperFunction*
D10*
X65874900Y-76073000D03*
X226288600Y-187591700D03*
D11*
X90360500Y-184099200D03*
D12*
X87820500Y-184099200D03*
G04 #@! TA.AperFunction,SMDPad,CuDef*
G36*
G01*
X167693400Y-112360100D02*
X167383400Y-112360100D01*
G75*
G02*
X167228400Y-112205100I0J155000D01*
G01*
X167228400Y-111780100D01*
G75*
G02*
X167383400Y-111625100I155000J0D01*
G01*
X167693400Y-111625100D01*
G75*
G02*
X167848400Y-111780100I0J-155000D01*
G01*
X167848400Y-112205100D01*
G75*
G02*
X167693400Y-112360100I-155000J0D01*
G01*
G37*
G04 #@! TD.AperFunction*
G04 #@! TA.AperFunction,SMDPad,CuDef*
G36*
G01*
X167693400Y-113495100D02*
X167383400Y-113495100D01*
G75*
G02*
X167228400Y-113340100I0J155000D01*
G01*
X167228400Y-112915100D01*
G75*
G02*
X167383400Y-112760100I155000J0D01*
G01*
X167693400Y-112760100D01*
G75*
G02*
X167848400Y-112915100I0J-155000D01*
G01*
X167848400Y-113340100D01*
G75*
G02*
X167693400Y-113495100I-155000J0D01*
G01*
G37*
G04 #@! TD.AperFunction*
G04 #@! TA.AperFunction,SMDPad,CuDef*
G36*
G01*
X134573000Y-133359700D02*
X135048000Y-133359700D01*
G75*
G02*
X135285500Y-133597200I0J-237500D01*
G01*
X135285500Y-134197200D01*
G75*
G02*
X135048000Y-134434700I-237500J0D01*
G01*
X134573000Y-134434700D01*
G75*
G02*
X134335500Y-134197200I0J237500D01*
G01*
X134335500Y-133597200D01*
G75*
G02*
X134573000Y-133359700I237500J0D01*
G01*
G37*
G04 #@! TD.AperFunction*
G04 #@! TA.AperFunction,SMDPad,CuDef*
G36*
G01*
X134573000Y-135084700D02*
X135048000Y-135084700D01*
G75*
G02*
X135285500Y-135322200I0J-237500D01*
G01*
X135285500Y-135922200D01*
G75*
G02*
X135048000Y-136159700I-237500J0D01*
G01*
X134573000Y-136159700D01*
G75*
G02*
X134335500Y-135922200I0J237500D01*
G01*
X134335500Y-135322200D01*
G75*
G02*
X134573000Y-135084700I237500J0D01*
G01*
G37*
G04 #@! TD.AperFunction*
G04 #@! TA.AperFunction,SMDPad,CuDef*
G36*
G01*
X170893800Y-113495100D02*
X170583800Y-113495100D01*
G75*
G02*
X170428800Y-113340100I0J155000D01*
G01*
X170428800Y-112915100D01*
G75*
G02*
X170583800Y-112760100I155000J0D01*
G01*
X170893800Y-112760100D01*
G75*
G02*
X171048800Y-112915100I0J-155000D01*
G01*
X171048800Y-113340100D01*
G75*
G02*
X170893800Y-113495100I-155000J0D01*
G01*
G37*
G04 #@! TD.AperFunction*
G04 #@! TA.AperFunction,SMDPad,CuDef*
G36*
G01*
X170893800Y-112360100D02*
X170583800Y-112360100D01*
G75*
G02*
X170428800Y-112205100I0J155000D01*
G01*
X170428800Y-111780100D01*
G75*
G02*
X170583800Y-111625100I155000J0D01*
G01*
X170893800Y-111625100D01*
G75*
G02*
X171048800Y-111780100I0J-155000D01*
G01*
X171048800Y-112205100D01*
G75*
G02*
X170893800Y-112360100I-155000J0D01*
G01*
G37*
G04 #@! TD.AperFunction*
G04 #@! TA.AperFunction,SMDPad,CuDef*
G36*
G01*
X149736200Y-115834100D02*
X149736200Y-116144100D01*
G75*
G02*
X149581200Y-116299100I-155000J0D01*
G01*
X149156200Y-116299100D01*
G75*
G02*
X149001200Y-116144100I0J155000D01*
G01*
X149001200Y-115834100D01*
G75*
G02*
X149156200Y-115679100I155000J0D01*
G01*
X149581200Y-115679100D01*
G75*
G02*
X149736200Y-115834100I0J-155000D01*
G01*
G37*
G04 #@! TD.AperFunction*
G04 #@! TA.AperFunction,SMDPad,CuDef*
G36*
G01*
X150871200Y-115834100D02*
X150871200Y-116144100D01*
G75*
G02*
X150716200Y-116299100I-155000J0D01*
G01*
X150291200Y-116299100D01*
G75*
G02*
X150136200Y-116144100I0J155000D01*
G01*
X150136200Y-115834100D01*
G75*
G02*
X150291200Y-115679100I155000J0D01*
G01*
X150716200Y-115679100D01*
G75*
G02*
X150871200Y-115834100I0J-155000D01*
G01*
G37*
G04 #@! TD.AperFunction*
G04 #@! TA.AperFunction,SMDPad,CuDef*
G36*
G01*
X132489000Y-113147500D02*
X132179000Y-113147500D01*
G75*
G02*
X132024000Y-112992500I0J155000D01*
G01*
X132024000Y-112567500D01*
G75*
G02*
X132179000Y-112412500I155000J0D01*
G01*
X132489000Y-112412500D01*
G75*
G02*
X132644000Y-112567500I0J-155000D01*
G01*
X132644000Y-112992500D01*
G75*
G02*
X132489000Y-113147500I-155000J0D01*
G01*
G37*
G04 #@! TD.AperFunction*
G04 #@! TA.AperFunction,SMDPad,CuDef*
G36*
G01*
X132489000Y-114282500D02*
X132179000Y-114282500D01*
G75*
G02*
X132024000Y-114127500I0J155000D01*
G01*
X132024000Y-113702500D01*
G75*
G02*
X132179000Y-113547500I155000J0D01*
G01*
X132489000Y-113547500D01*
G75*
G02*
X132644000Y-113702500I0J-155000D01*
G01*
X132644000Y-114127500D01*
G75*
G02*
X132489000Y-114282500I-155000J0D01*
G01*
G37*
G04 #@! TD.AperFunction*
G04 #@! TA.AperFunction,SMDPad,CuDef*
G36*
G01*
X150136200Y-117287100D02*
X150136200Y-116977100D01*
G75*
G02*
X150291200Y-116822100I155000J0D01*
G01*
X150716200Y-116822100D01*
G75*
G02*
X150871200Y-116977100I0J-155000D01*
G01*
X150871200Y-117287100D01*
G75*
G02*
X150716200Y-117442100I-155000J0D01*
G01*
X150291200Y-117442100D01*
G75*
G02*
X150136200Y-117287100I0J155000D01*
G01*
G37*
G04 #@! TD.AperFunction*
G04 #@! TA.AperFunction,SMDPad,CuDef*
G36*
G01*
X149001200Y-117287100D02*
X149001200Y-116977100D01*
G75*
G02*
X149156200Y-116822100I155000J0D01*
G01*
X149581200Y-116822100D01*
G75*
G02*
X149736200Y-116977100I0J-155000D01*
G01*
X149736200Y-117287100D01*
G75*
G02*
X149581200Y-117442100I-155000J0D01*
G01*
X149156200Y-117442100D01*
G75*
G02*
X149001200Y-117287100I0J155000D01*
G01*
G37*
G04 #@! TD.AperFunction*
G04 #@! TA.AperFunction,SMDPad,CuDef*
G36*
G01*
X136306500Y-133215100D02*
X136616500Y-133215100D01*
G75*
G02*
X136771500Y-133370100I0J-155000D01*
G01*
X136771500Y-133795100D01*
G75*
G02*
X136616500Y-133950100I-155000J0D01*
G01*
X136306500Y-133950100D01*
G75*
G02*
X136151500Y-133795100I0J155000D01*
G01*
X136151500Y-133370100D01*
G75*
G02*
X136306500Y-133215100I155000J0D01*
G01*
G37*
G04 #@! TD.AperFunction*
G04 #@! TA.AperFunction,SMDPad,CuDef*
G36*
G01*
X136306500Y-134350100D02*
X136616500Y-134350100D01*
G75*
G02*
X136771500Y-134505100I0J-155000D01*
G01*
X136771500Y-134930100D01*
G75*
G02*
X136616500Y-135085100I-155000J0D01*
G01*
X136306500Y-135085100D01*
G75*
G02*
X136151500Y-134930100I0J155000D01*
G01*
X136151500Y-134505100D01*
G75*
G02*
X136306500Y-134350100I155000J0D01*
G01*
G37*
G04 #@! TD.AperFunction*
G04 #@! TA.AperFunction,SMDPad,CuDef*
G36*
G01*
X133759000Y-114282500D02*
X133449000Y-114282500D01*
G75*
G02*
X133294000Y-114127500I0J155000D01*
G01*
X133294000Y-113702500D01*
G75*
G02*
X133449000Y-113547500I155000J0D01*
G01*
X133759000Y-113547500D01*
G75*
G02*
X133914000Y-113702500I0J-155000D01*
G01*
X133914000Y-114127500D01*
G75*
G02*
X133759000Y-114282500I-155000J0D01*
G01*
G37*
G04 #@! TD.AperFunction*
G04 #@! TA.AperFunction,SMDPad,CuDef*
G36*
G01*
X133759000Y-113147500D02*
X133449000Y-113147500D01*
G75*
G02*
X133294000Y-112992500I0J155000D01*
G01*
X133294000Y-112567500D01*
G75*
G02*
X133449000Y-112412500I155000J0D01*
G01*
X133759000Y-112412500D01*
G75*
G02*
X133914000Y-112567500I0J-155000D01*
G01*
X133914000Y-112992500D01*
G75*
G02*
X133759000Y-113147500I-155000J0D01*
G01*
G37*
G04 #@! TD.AperFunction*
G04 #@! TA.AperFunction,SMDPad,CuDef*
G36*
G01*
X123413800Y-128089600D02*
X123413800Y-128399600D01*
G75*
G02*
X123258800Y-128554600I-155000J0D01*
G01*
X122833800Y-128554600D01*
G75*
G02*
X122678800Y-128399600I0J155000D01*
G01*
X122678800Y-128089600D01*
G75*
G02*
X122833800Y-127934600I155000J0D01*
G01*
X123258800Y-127934600D01*
G75*
G02*
X123413800Y-128089600I0J-155000D01*
G01*
G37*
G04 #@! TD.AperFunction*
G04 #@! TA.AperFunction,SMDPad,CuDef*
G36*
G01*
X122278800Y-128089600D02*
X122278800Y-128399600D01*
G75*
G02*
X122123800Y-128554600I-155000J0D01*
G01*
X121698800Y-128554600D01*
G75*
G02*
X121543800Y-128399600I0J155000D01*
G01*
X121543800Y-128089600D01*
G75*
G02*
X121698800Y-127934600I155000J0D01*
G01*
X122123800Y-127934600D01*
G75*
G02*
X122278800Y-128089600I0J-155000D01*
G01*
G37*
G04 #@! TD.AperFunction*
G04 #@! TA.AperFunction,SMDPad,CuDef*
G36*
G01*
X137576500Y-133215100D02*
X137886500Y-133215100D01*
G75*
G02*
X138041500Y-133370100I0J-155000D01*
G01*
X138041500Y-133795100D01*
G75*
G02*
X137886500Y-133950100I-155000J0D01*
G01*
X137576500Y-133950100D01*
G75*
G02*
X137421500Y-133795100I0J155000D01*
G01*
X137421500Y-133370100D01*
G75*
G02*
X137576500Y-133215100I155000J0D01*
G01*
G37*
G04 #@! TD.AperFunction*
G04 #@! TA.AperFunction,SMDPad,CuDef*
G36*
G01*
X137576500Y-134350100D02*
X137886500Y-134350100D01*
G75*
G02*
X138041500Y-134505100I0J-155000D01*
G01*
X138041500Y-134930100D01*
G75*
G02*
X137886500Y-135085100I-155000J0D01*
G01*
X137576500Y-135085100D01*
G75*
G02*
X137421500Y-134930100I0J155000D01*
G01*
X137421500Y-134505100D01*
G75*
G02*
X137576500Y-134350100I155000J0D01*
G01*
G37*
G04 #@! TD.AperFunction*
G04 #@! TA.AperFunction,SMDPad,CuDef*
G36*
G01*
X143659200Y-123230700D02*
X143659200Y-122920700D01*
G75*
G02*
X143814200Y-122765700I155000J0D01*
G01*
X144239200Y-122765700D01*
G75*
G02*
X144394200Y-122920700I0J-155000D01*
G01*
X144394200Y-123230700D01*
G75*
G02*
X144239200Y-123385700I-155000J0D01*
G01*
X143814200Y-123385700D01*
G75*
G02*
X143659200Y-123230700I0J155000D01*
G01*
G37*
G04 #@! TD.AperFunction*
G04 #@! TA.AperFunction,SMDPad,CuDef*
G36*
G01*
X142524200Y-123230700D02*
X142524200Y-122920700D01*
G75*
G02*
X142679200Y-122765700I155000J0D01*
G01*
X143104200Y-122765700D01*
G75*
G02*
X143259200Y-122920700I0J-155000D01*
G01*
X143259200Y-123230700D01*
G75*
G02*
X143104200Y-123385700I-155000J0D01*
G01*
X142679200Y-123385700D01*
G75*
G02*
X142524200Y-123230700I0J155000D01*
G01*
G37*
G04 #@! TD.AperFunction*
G04 #@! TA.AperFunction,SMDPad,CuDef*
G36*
G01*
X142524200Y-124386400D02*
X142524200Y-124076400D01*
G75*
G02*
X142679200Y-123921400I155000J0D01*
G01*
X143104200Y-123921400D01*
G75*
G02*
X143259200Y-124076400I0J-155000D01*
G01*
X143259200Y-124386400D01*
G75*
G02*
X143104200Y-124541400I-155000J0D01*
G01*
X142679200Y-124541400D01*
G75*
G02*
X142524200Y-124386400I0J155000D01*
G01*
G37*
G04 #@! TD.AperFunction*
G04 #@! TA.AperFunction,SMDPad,CuDef*
G36*
G01*
X143659200Y-124386400D02*
X143659200Y-124076400D01*
G75*
G02*
X143814200Y-123921400I155000J0D01*
G01*
X144239200Y-123921400D01*
G75*
G02*
X144394200Y-124076400I0J-155000D01*
G01*
X144394200Y-124386400D01*
G75*
G02*
X144239200Y-124541400I-155000J0D01*
G01*
X143814200Y-124541400D01*
G75*
G02*
X143659200Y-124386400I0J155000D01*
G01*
G37*
G04 #@! TD.AperFunction*
G04 #@! TA.AperFunction,SMDPad,CuDef*
G36*
G01*
X134965500Y-114295200D02*
X134655500Y-114295200D01*
G75*
G02*
X134500500Y-114140200I0J155000D01*
G01*
X134500500Y-113715200D01*
G75*
G02*
X134655500Y-113560200I155000J0D01*
G01*
X134965500Y-113560200D01*
G75*
G02*
X135120500Y-113715200I0J-155000D01*
G01*
X135120500Y-114140200D01*
G75*
G02*
X134965500Y-114295200I-155000J0D01*
G01*
G37*
G04 #@! TD.AperFunction*
G04 #@! TA.AperFunction,SMDPad,CuDef*
G36*
G01*
X134965500Y-113160200D02*
X134655500Y-113160200D01*
G75*
G02*
X134500500Y-113005200I0J155000D01*
G01*
X134500500Y-112580200D01*
G75*
G02*
X134655500Y-112425200I155000J0D01*
G01*
X134965500Y-112425200D01*
G75*
G02*
X135120500Y-112580200I0J-155000D01*
G01*
X135120500Y-113005200D01*
G75*
G02*
X134965500Y-113160200I-155000J0D01*
G01*
G37*
G04 #@! TD.AperFunction*
G04 #@! TA.AperFunction,SMDPad,CuDef*
G36*
G01*
X138846500Y-133215100D02*
X139156500Y-133215100D01*
G75*
G02*
X139311500Y-133370100I0J-155000D01*
G01*
X139311500Y-133795100D01*
G75*
G02*
X139156500Y-133950100I-155000J0D01*
G01*
X138846500Y-133950100D01*
G75*
G02*
X138691500Y-133795100I0J155000D01*
G01*
X138691500Y-133370100D01*
G75*
G02*
X138846500Y-133215100I155000J0D01*
G01*
G37*
G04 #@! TD.AperFunction*
G04 #@! TA.AperFunction,SMDPad,CuDef*
G36*
G01*
X138846500Y-134350100D02*
X139156500Y-134350100D01*
G75*
G02*
X139311500Y-134505100I0J-155000D01*
G01*
X139311500Y-134930100D01*
G75*
G02*
X139156500Y-135085100I-155000J0D01*
G01*
X138846500Y-135085100D01*
G75*
G02*
X138691500Y-134930100I0J155000D01*
G01*
X138691500Y-134505100D01*
G75*
G02*
X138846500Y-134350100I155000J0D01*
G01*
G37*
G04 #@! TD.AperFunction*
G04 #@! TA.AperFunction,SMDPad,CuDef*
G36*
G01*
X125826800Y-123149300D02*
X125826800Y-123459300D01*
G75*
G02*
X125671800Y-123614300I-155000J0D01*
G01*
X125246800Y-123614300D01*
G75*
G02*
X125091800Y-123459300I0J155000D01*
G01*
X125091800Y-123149300D01*
G75*
G02*
X125246800Y-122994300I155000J0D01*
G01*
X125671800Y-122994300D01*
G75*
G02*
X125826800Y-123149300I0J-155000D01*
G01*
G37*
G04 #@! TD.AperFunction*
G04 #@! TA.AperFunction,SMDPad,CuDef*
G36*
G01*
X124691800Y-123149300D02*
X124691800Y-123459300D01*
G75*
G02*
X124536800Y-123614300I-155000J0D01*
G01*
X124111800Y-123614300D01*
G75*
G02*
X123956800Y-123459300I0J155000D01*
G01*
X123956800Y-123149300D01*
G75*
G02*
X124111800Y-122994300I155000J0D01*
G01*
X124536800Y-122994300D01*
G75*
G02*
X124691800Y-123149300I0J-155000D01*
G01*
G37*
G04 #@! TD.AperFunction*
G04 #@! TA.AperFunction,SMDPad,CuDef*
G36*
G01*
X70157400Y-82667500D02*
X69847400Y-82667500D01*
G75*
G02*
X69692400Y-82512500I0J155000D01*
G01*
X69692400Y-82087500D01*
G75*
G02*
X69847400Y-81932500I155000J0D01*
G01*
X70157400Y-81932500D01*
G75*
G02*
X70312400Y-82087500I0J-155000D01*
G01*
X70312400Y-82512500D01*
G75*
G02*
X70157400Y-82667500I-155000J0D01*
G01*
G37*
G04 #@! TD.AperFunction*
G04 #@! TA.AperFunction,SMDPad,CuDef*
G36*
G01*
X70157400Y-83802500D02*
X69847400Y-83802500D01*
G75*
G02*
X69692400Y-83647500I0J155000D01*
G01*
X69692400Y-83222500D01*
G75*
G02*
X69847400Y-83067500I155000J0D01*
G01*
X70157400Y-83067500D01*
G75*
G02*
X70312400Y-83222500I0J-155000D01*
G01*
X70312400Y-83647500D01*
G75*
G02*
X70157400Y-83802500I-155000J0D01*
G01*
G37*
G04 #@! TD.AperFunction*
G04 #@! TA.AperFunction,SMDPad,CuDef*
G36*
G01*
X63833400Y-82966500D02*
X63833400Y-83276500D01*
G75*
G02*
X63678400Y-83431500I-155000J0D01*
G01*
X63253400Y-83431500D01*
G75*
G02*
X63098400Y-83276500I0J155000D01*
G01*
X63098400Y-82966500D01*
G75*
G02*
X63253400Y-82811500I155000J0D01*
G01*
X63678400Y-82811500D01*
G75*
G02*
X63833400Y-82966500I0J-155000D01*
G01*
G37*
G04 #@! TD.AperFunction*
G04 #@! TA.AperFunction,SMDPad,CuDef*
G36*
G01*
X64968400Y-82966500D02*
X64968400Y-83276500D01*
G75*
G02*
X64813400Y-83431500I-155000J0D01*
G01*
X64388400Y-83431500D01*
G75*
G02*
X64233400Y-83276500I0J155000D01*
G01*
X64233400Y-82966500D01*
G75*
G02*
X64388400Y-82811500I155000J0D01*
G01*
X64813400Y-82811500D01*
G75*
G02*
X64968400Y-82966500I0J-155000D01*
G01*
G37*
G04 #@! TD.AperFunction*
G04 #@! TA.AperFunction,SMDPad,CuDef*
G36*
G01*
X180279700Y-137373300D02*
X180279700Y-137683300D01*
G75*
G02*
X180124700Y-137838300I-155000J0D01*
G01*
X179699700Y-137838300D01*
G75*
G02*
X179544700Y-137683300I0J155000D01*
G01*
X179544700Y-137373300D01*
G75*
G02*
X179699700Y-137218300I155000J0D01*
G01*
X180124700Y-137218300D01*
G75*
G02*
X180279700Y-137373300I0J-155000D01*
G01*
G37*
G04 #@! TD.AperFunction*
G04 #@! TA.AperFunction,SMDPad,CuDef*
G36*
G01*
X181414700Y-137373300D02*
X181414700Y-137683300D01*
G75*
G02*
X181259700Y-137838300I-155000J0D01*
G01*
X180834700Y-137838300D01*
G75*
G02*
X180679700Y-137683300I0J155000D01*
G01*
X180679700Y-137373300D01*
G75*
G02*
X180834700Y-137218300I155000J0D01*
G01*
X181259700Y-137218300D01*
G75*
G02*
X181414700Y-137373300I0J-155000D01*
G01*
G37*
G04 #@! TD.AperFunction*
G04 #@! TA.AperFunction,SMDPad,CuDef*
G36*
G01*
X137284750Y-106445800D02*
X137797250Y-106445800D01*
G75*
G02*
X138016000Y-106664550I0J-218750D01*
G01*
X138016000Y-107102050D01*
G75*
G02*
X137797250Y-107320800I-218750J0D01*
G01*
X137284750Y-107320800D01*
G75*
G02*
X137066000Y-107102050I0J218750D01*
G01*
X137066000Y-106664550D01*
G75*
G02*
X137284750Y-106445800I218750J0D01*
G01*
G37*
G04 #@! TD.AperFunction*
G04 #@! TA.AperFunction,SMDPad,CuDef*
G36*
G01*
X137284750Y-104870800D02*
X137797250Y-104870800D01*
G75*
G02*
X138016000Y-105089550I0J-218750D01*
G01*
X138016000Y-105527050D01*
G75*
G02*
X137797250Y-105745800I-218750J0D01*
G01*
X137284750Y-105745800D01*
G75*
G02*
X137066000Y-105527050I0J218750D01*
G01*
X137066000Y-105089550D01*
G75*
G02*
X137284750Y-104870800I218750J0D01*
G01*
G37*
G04 #@! TD.AperFunction*
G04 #@! TA.AperFunction,SMDPad,CuDef*
G36*
G01*
X140180350Y-104921600D02*
X140692850Y-104921600D01*
G75*
G02*
X140911600Y-105140350I0J-218750D01*
G01*
X140911600Y-105577850D01*
G75*
G02*
X140692850Y-105796600I-218750J0D01*
G01*
X140180350Y-105796600D01*
G75*
G02*
X139961600Y-105577850I0J218750D01*
G01*
X139961600Y-105140350D01*
G75*
G02*
X140180350Y-104921600I218750J0D01*
G01*
G37*
G04 #@! TD.AperFunction*
G04 #@! TA.AperFunction,SMDPad,CuDef*
G36*
G01*
X140180350Y-106496600D02*
X140692850Y-106496600D01*
G75*
G02*
X140911600Y-106715350I0J-218750D01*
G01*
X140911600Y-107152850D01*
G75*
G02*
X140692850Y-107371600I-218750J0D01*
G01*
X140180350Y-107371600D01*
G75*
G02*
X139961600Y-107152850I0J218750D01*
G01*
X139961600Y-106715350D01*
G75*
G02*
X140180350Y-106496600I218750J0D01*
G01*
G37*
G04 #@! TD.AperFunction*
G04 #@! TA.AperFunction,SMDPad,CuDef*
G36*
G01*
X76434400Y-85468750D02*
X76434400Y-85981250D01*
G75*
G02*
X76215650Y-86200000I-218750J0D01*
G01*
X75778150Y-86200000D01*
G75*
G02*
X75559400Y-85981250I0J218750D01*
G01*
X75559400Y-85468750D01*
G75*
G02*
X75778150Y-85250000I218750J0D01*
G01*
X76215650Y-85250000D01*
G75*
G02*
X76434400Y-85468750I0J-218750D01*
G01*
G37*
G04 #@! TD.AperFunction*
G04 #@! TA.AperFunction,SMDPad,CuDef*
G36*
G01*
X74859400Y-85468750D02*
X74859400Y-85981250D01*
G75*
G02*
X74640650Y-86200000I-218750J0D01*
G01*
X74203150Y-86200000D01*
G75*
G02*
X73984400Y-85981250I0J218750D01*
G01*
X73984400Y-85468750D01*
G75*
G02*
X74203150Y-85250000I218750J0D01*
G01*
X74640650Y-85250000D01*
G75*
G02*
X74859400Y-85468750I0J-218750D01*
G01*
G37*
G04 #@! TD.AperFunction*
G04 #@! TA.AperFunction,SMDPad,CuDef*
G36*
G01*
X122179500Y-126789601D02*
X122179500Y-125889599D01*
G75*
G02*
X122429499Y-125639600I249999J0D01*
G01*
X123079501Y-125639600D01*
G75*
G02*
X123329500Y-125889599I0J-249999D01*
G01*
X123329500Y-126789601D01*
G75*
G02*
X123079501Y-127039600I-249999J0D01*
G01*
X122429499Y-127039600D01*
G75*
G02*
X122179500Y-126789601I0J249999D01*
G01*
G37*
G04 #@! TD.AperFunction*
G04 #@! TA.AperFunction,SMDPad,CuDef*
G36*
G01*
X120129500Y-126789601D02*
X120129500Y-125889599D01*
G75*
G02*
X120379499Y-125639600I249999J0D01*
G01*
X121029501Y-125639600D01*
G75*
G02*
X121279500Y-125889599I0J-249999D01*
G01*
X121279500Y-126789601D01*
G75*
G02*
X121029501Y-127039600I-249999J0D01*
G01*
X120379499Y-127039600D01*
G75*
G02*
X120129500Y-126789601I0J249999D01*
G01*
G37*
G04 #@! TD.AperFunction*
G04 #@! TA.AperFunction,SMDPad,CuDef*
G36*
G01*
X65488399Y-78156000D02*
X66388401Y-78156000D01*
G75*
G02*
X66638400Y-78405999I0J-249999D01*
G01*
X66638400Y-79056001D01*
G75*
G02*
X66388401Y-79306000I-249999J0D01*
G01*
X65488399Y-79306000D01*
G75*
G02*
X65238400Y-79056001I0J249999D01*
G01*
X65238400Y-78405999D01*
G75*
G02*
X65488399Y-78156000I249999J0D01*
G01*
G37*
G04 #@! TD.AperFunction*
G04 #@! TA.AperFunction,SMDPad,CuDef*
G36*
G01*
X65488399Y-80206000D02*
X66388401Y-80206000D01*
G75*
G02*
X66638400Y-80455999I0J-249999D01*
G01*
X66638400Y-81106001D01*
G75*
G02*
X66388401Y-81356000I-249999J0D01*
G01*
X65488399Y-81356000D01*
G75*
G02*
X65238400Y-81106001I0J249999D01*
G01*
X65238400Y-80455999D01*
G75*
G02*
X65488399Y-80206000I249999J0D01*
G01*
G37*
G04 #@! TD.AperFunction*
D11*
X72720200Y-162267900D03*
D12*
X70180200Y-162267900D03*
X72720200Y-164807900D03*
X70180200Y-164807900D03*
X72720200Y-167347900D03*
X70180200Y-167347900D03*
X72720200Y-169887900D03*
X70180200Y-169887900D03*
X72720200Y-172427900D03*
X70180200Y-172427900D03*
X72720200Y-174967900D03*
X70180200Y-174967900D03*
X72720200Y-177507900D03*
X70180200Y-177507900D03*
X113804700Y-111937800D03*
X111264700Y-111937800D03*
D11*
X108724700Y-111937800D03*
X114096800Y-120116600D03*
D12*
X111556800Y-120116600D03*
X109016800Y-120116600D03*
D13*
X64366400Y-100777000D03*
D14*
X64041400Y-99852000D03*
X64041400Y-99202000D03*
X64041400Y-98552000D03*
X64041400Y-97252000D03*
D13*
X64366400Y-96327000D03*
D15*
X61366400Y-102727000D03*
X61366400Y-94377000D03*
D14*
X64041400Y-97902000D03*
D16*
X61366400Y-98552000D03*
D17*
X61366400Y-94814500D03*
X61366400Y-102289500D03*
D11*
X72593200Y-49237900D03*
D12*
X70053200Y-49237900D03*
X72593200Y-51777900D03*
X70053200Y-51777900D03*
X72593200Y-54317900D03*
X70053200Y-54317900D03*
X72593200Y-56857900D03*
X70053200Y-56857900D03*
D11*
X142036800Y-142151100D03*
D12*
X144576800Y-142151100D03*
D11*
X72567800Y-140296900D03*
D12*
X70027800Y-140296900D03*
X72567800Y-142836900D03*
X70027800Y-142836900D03*
X72567800Y-145376900D03*
X70027800Y-145376900D03*
X72567800Y-147916900D03*
X70027800Y-147916900D03*
X72567800Y-150456900D03*
X70027800Y-150456900D03*
X72567800Y-152996900D03*
X70027800Y-152996900D03*
D11*
X180543200Y-142925800D03*
D12*
X183083200Y-142925800D03*
X183172100Y-147243800D03*
D11*
X180632100Y-147243800D03*
G04 #@! TA.AperFunction,SMDPad,CuDef*
G36*
G01*
X83212900Y-51490900D02*
X83212900Y-51810900D01*
G75*
G02*
X83052900Y-51970900I-160000J0D01*
G01*
X82657900Y-51970900D01*
G75*
G02*
X82497900Y-51810900I0J160000D01*
G01*
X82497900Y-51490900D01*
G75*
G02*
X82657900Y-51330900I160000J0D01*
G01*
X83052900Y-51330900D01*
G75*
G02*
X83212900Y-51490900I0J-160000D01*
G01*
G37*
G04 #@! TD.AperFunction*
G04 #@! TA.AperFunction,SMDPad,CuDef*
G36*
G01*
X82017900Y-51490900D02*
X82017900Y-51810900D01*
G75*
G02*
X81857900Y-51970900I-160000J0D01*
G01*
X81462900Y-51970900D01*
G75*
G02*
X81302900Y-51810900I0J160000D01*
G01*
X81302900Y-51490900D01*
G75*
G02*
X81462900Y-51330900I160000J0D01*
G01*
X81857900Y-51330900D01*
G75*
G02*
X82017900Y-51490900I0J-160000D01*
G01*
G37*
G04 #@! TD.AperFunction*
G04 #@! TA.AperFunction,SMDPad,CuDef*
G36*
G01*
X82523300Y-53080900D02*
X82523300Y-52760900D01*
G75*
G02*
X82683300Y-52600900I160000J0D01*
G01*
X83078300Y-52600900D01*
G75*
G02*
X83238300Y-52760900I0J-160000D01*
G01*
X83238300Y-53080900D01*
G75*
G02*
X83078300Y-53240900I-160000J0D01*
G01*
X82683300Y-53240900D01*
G75*
G02*
X82523300Y-53080900I0J160000D01*
G01*
G37*
G04 #@! TD.AperFunction*
G04 #@! TA.AperFunction,SMDPad,CuDef*
G36*
G01*
X81328300Y-53080900D02*
X81328300Y-52760900D01*
G75*
G02*
X81488300Y-52600900I160000J0D01*
G01*
X81883300Y-52600900D01*
G75*
G02*
X82043300Y-52760900I0J-160000D01*
G01*
X82043300Y-53080900D01*
G75*
G02*
X81883300Y-53240900I-160000J0D01*
G01*
X81488300Y-53240900D01*
G75*
G02*
X81328300Y-53080900I0J160000D01*
G01*
G37*
G04 #@! TD.AperFunction*
G04 #@! TA.AperFunction,SMDPad,CuDef*
G36*
G01*
X128364000Y-110970100D02*
X128684000Y-110970100D01*
G75*
G02*
X128844000Y-111130100I0J-160000D01*
G01*
X128844000Y-111525100D01*
G75*
G02*
X128684000Y-111685100I-160000J0D01*
G01*
X128364000Y-111685100D01*
G75*
G02*
X128204000Y-111525100I0J160000D01*
G01*
X128204000Y-111130100D01*
G75*
G02*
X128364000Y-110970100I160000J0D01*
G01*
G37*
G04 #@! TD.AperFunction*
G04 #@! TA.AperFunction,SMDPad,CuDef*
G36*
G01*
X128364000Y-112165100D02*
X128684000Y-112165100D01*
G75*
G02*
X128844000Y-112325100I0J-160000D01*
G01*
X128844000Y-112720100D01*
G75*
G02*
X128684000Y-112880100I-160000J0D01*
G01*
X128364000Y-112880100D01*
G75*
G02*
X128204000Y-112720100I0J160000D01*
G01*
X128204000Y-112325100D01*
G75*
G02*
X128364000Y-112165100I160000J0D01*
G01*
G37*
G04 #@! TD.AperFunction*
G04 #@! TA.AperFunction,SMDPad,CuDef*
G36*
G01*
X83030100Y-166923700D02*
X83030100Y-166603700D01*
G75*
G02*
X83190100Y-166443700I160000J0D01*
G01*
X83585100Y-166443700D01*
G75*
G02*
X83745100Y-166603700I0J-160000D01*
G01*
X83745100Y-166923700D01*
G75*
G02*
X83585100Y-167083700I-160000J0D01*
G01*
X83190100Y-167083700D01*
G75*
G02*
X83030100Y-166923700I0J160000D01*
G01*
G37*
G04 #@! TD.AperFunction*
G04 #@! TA.AperFunction,SMDPad,CuDef*
G36*
G01*
X84225100Y-166923700D02*
X84225100Y-166603700D01*
G75*
G02*
X84385100Y-166443700I160000J0D01*
G01*
X84780100Y-166443700D01*
G75*
G02*
X84940100Y-166603700I0J-160000D01*
G01*
X84940100Y-166923700D01*
G75*
G02*
X84780100Y-167083700I-160000J0D01*
G01*
X84385100Y-167083700D01*
G75*
G02*
X84225100Y-166923700I0J160000D01*
G01*
G37*
G04 #@! TD.AperFunction*
G04 #@! TA.AperFunction,SMDPad,CuDef*
G36*
G01*
X83707000Y-168013400D02*
X83707000Y-168333400D01*
G75*
G02*
X83547000Y-168493400I-160000J0D01*
G01*
X83152000Y-168493400D01*
G75*
G02*
X82992000Y-168333400I0J160000D01*
G01*
X82992000Y-168013400D01*
G75*
G02*
X83152000Y-167853400I160000J0D01*
G01*
X83547000Y-167853400D01*
G75*
G02*
X83707000Y-168013400I0J-160000D01*
G01*
G37*
G04 #@! TD.AperFunction*
G04 #@! TA.AperFunction,SMDPad,CuDef*
G36*
G01*
X84902000Y-168013400D02*
X84902000Y-168333400D01*
G75*
G02*
X84742000Y-168493400I-160000J0D01*
G01*
X84347000Y-168493400D01*
G75*
G02*
X84187000Y-168333400I0J160000D01*
G01*
X84187000Y-168013400D01*
G75*
G02*
X84347000Y-167853400I160000J0D01*
G01*
X84742000Y-167853400D01*
G75*
G02*
X84902000Y-168013400I0J-160000D01*
G01*
G37*
G04 #@! TD.AperFunction*
G04 #@! TA.AperFunction,SMDPad,CuDef*
G36*
G01*
X84390200Y-177579000D02*
X84390200Y-177259000D01*
G75*
G02*
X84550200Y-177099000I160000J0D01*
G01*
X84945200Y-177099000D01*
G75*
G02*
X85105200Y-177259000I0J-160000D01*
G01*
X85105200Y-177579000D01*
G75*
G02*
X84945200Y-177739000I-160000J0D01*
G01*
X84550200Y-177739000D01*
G75*
G02*
X84390200Y-177579000I0J160000D01*
G01*
G37*
G04 #@! TD.AperFunction*
G04 #@! TA.AperFunction,SMDPad,CuDef*
G36*
G01*
X83195200Y-177579000D02*
X83195200Y-177259000D01*
G75*
G02*
X83355200Y-177099000I160000J0D01*
G01*
X83750200Y-177099000D01*
G75*
G02*
X83910200Y-177259000I0J-160000D01*
G01*
X83910200Y-177579000D01*
G75*
G02*
X83750200Y-177739000I-160000J0D01*
G01*
X83355200Y-177739000D01*
G75*
G02*
X83195200Y-177579000I0J160000D01*
G01*
G37*
G04 #@! TD.AperFunction*
G04 #@! TA.AperFunction,SMDPad,CuDef*
G36*
G01*
X85105200Y-178656000D02*
X85105200Y-178976000D01*
G75*
G02*
X84945200Y-179136000I-160000J0D01*
G01*
X84550200Y-179136000D01*
G75*
G02*
X84390200Y-178976000I0J160000D01*
G01*
X84390200Y-178656000D01*
G75*
G02*
X84550200Y-178496000I160000J0D01*
G01*
X84945200Y-178496000D01*
G75*
G02*
X85105200Y-178656000I0J-160000D01*
G01*
G37*
G04 #@! TD.AperFunction*
G04 #@! TA.AperFunction,SMDPad,CuDef*
G36*
G01*
X83910200Y-178656000D02*
X83910200Y-178976000D01*
G75*
G02*
X83750200Y-179136000I-160000J0D01*
G01*
X83355200Y-179136000D01*
G75*
G02*
X83195200Y-178976000I0J160000D01*
G01*
X83195200Y-178656000D01*
G75*
G02*
X83355200Y-178496000I160000J0D01*
G01*
X83750200Y-178496000D01*
G75*
G02*
X83910200Y-178656000I0J-160000D01*
G01*
G37*
G04 #@! TD.AperFunction*
G04 #@! TA.AperFunction,SMDPad,CuDef*
G36*
G01*
X129761000Y-110970100D02*
X130081000Y-110970100D01*
G75*
G02*
X130241000Y-111130100I0J-160000D01*
G01*
X130241000Y-111525100D01*
G75*
G02*
X130081000Y-111685100I-160000J0D01*
G01*
X129761000Y-111685100D01*
G75*
G02*
X129601000Y-111525100I0J160000D01*
G01*
X129601000Y-111130100D01*
G75*
G02*
X129761000Y-110970100I160000J0D01*
G01*
G37*
G04 #@! TD.AperFunction*
G04 #@! TA.AperFunction,SMDPad,CuDef*
G36*
G01*
X129761000Y-112165100D02*
X130081000Y-112165100D01*
G75*
G02*
X130241000Y-112325100I0J-160000D01*
G01*
X130241000Y-112720100D01*
G75*
G02*
X130081000Y-112880100I-160000J0D01*
G01*
X129761000Y-112880100D01*
G75*
G02*
X129601000Y-112720100I0J160000D01*
G01*
X129601000Y-112325100D01*
G75*
G02*
X129761000Y-112165100I160000J0D01*
G01*
G37*
G04 #@! TD.AperFunction*
G04 #@! TA.AperFunction,SMDPad,CuDef*
G36*
G01*
X137688300Y-102249000D02*
X137368300Y-102249000D01*
G75*
G02*
X137208300Y-102089000I0J160000D01*
G01*
X137208300Y-101694000D01*
G75*
G02*
X137368300Y-101534000I160000J0D01*
G01*
X137688300Y-101534000D01*
G75*
G02*
X137848300Y-101694000I0J-160000D01*
G01*
X137848300Y-102089000D01*
G75*
G02*
X137688300Y-102249000I-160000J0D01*
G01*
G37*
G04 #@! TD.AperFunction*
G04 #@! TA.AperFunction,SMDPad,CuDef*
G36*
G01*
X137688300Y-103444000D02*
X137368300Y-103444000D01*
G75*
G02*
X137208300Y-103284000I0J160000D01*
G01*
X137208300Y-102889000D01*
G75*
G02*
X137368300Y-102729000I160000J0D01*
G01*
X137688300Y-102729000D01*
G75*
G02*
X137848300Y-102889000I0J-160000D01*
G01*
X137848300Y-103284000D01*
G75*
G02*
X137688300Y-103444000I-160000J0D01*
G01*
G37*
G04 #@! TD.AperFunction*
G04 #@! TA.AperFunction,SMDPad,CuDef*
G36*
G01*
X140622000Y-102261700D02*
X140302000Y-102261700D01*
G75*
G02*
X140142000Y-102101700I0J160000D01*
G01*
X140142000Y-101706700D01*
G75*
G02*
X140302000Y-101546700I160000J0D01*
G01*
X140622000Y-101546700D01*
G75*
G02*
X140782000Y-101706700I0J-160000D01*
G01*
X140782000Y-102101700D01*
G75*
G02*
X140622000Y-102261700I-160000J0D01*
G01*
G37*
G04 #@! TD.AperFunction*
G04 #@! TA.AperFunction,SMDPad,CuDef*
G36*
G01*
X140622000Y-103456700D02*
X140302000Y-103456700D01*
G75*
G02*
X140142000Y-103296700I0J160000D01*
G01*
X140142000Y-102901700D01*
G75*
G02*
X140302000Y-102741700I160000J0D01*
G01*
X140622000Y-102741700D01*
G75*
G02*
X140782000Y-102901700I0J-160000D01*
G01*
X140782000Y-103296700D01*
G75*
G02*
X140622000Y-103456700I-160000J0D01*
G01*
G37*
G04 #@! TD.AperFunction*
G04 #@! TA.AperFunction,SMDPad,CuDef*
G36*
G01*
X168488400Y-120086100D02*
X168488400Y-119766100D01*
G75*
G02*
X168648400Y-119606100I160000J0D01*
G01*
X169043400Y-119606100D01*
G75*
G02*
X169203400Y-119766100I0J-160000D01*
G01*
X169203400Y-120086100D01*
G75*
G02*
X169043400Y-120246100I-160000J0D01*
G01*
X168648400Y-120246100D01*
G75*
G02*
X168488400Y-120086100I0J160000D01*
G01*
G37*
G04 #@! TD.AperFunction*
G04 #@! TA.AperFunction,SMDPad,CuDef*
G36*
G01*
X169683400Y-120086100D02*
X169683400Y-119766100D01*
G75*
G02*
X169843400Y-119606100I160000J0D01*
G01*
X170238400Y-119606100D01*
G75*
G02*
X170398400Y-119766100I0J-160000D01*
G01*
X170398400Y-120086100D01*
G75*
G02*
X170238400Y-120246100I-160000J0D01*
G01*
X169843400Y-120246100D01*
G75*
G02*
X169683400Y-120086100I0J160000D01*
G01*
G37*
G04 #@! TD.AperFunction*
G04 #@! TA.AperFunction,SMDPad,CuDef*
G36*
G01*
X72274400Y-85885000D02*
X72274400Y-85565000D01*
G75*
G02*
X72434400Y-85405000I160000J0D01*
G01*
X72829400Y-85405000D01*
G75*
G02*
X72989400Y-85565000I0J-160000D01*
G01*
X72989400Y-85885000D01*
G75*
G02*
X72829400Y-86045000I-160000J0D01*
G01*
X72434400Y-86045000D01*
G75*
G02*
X72274400Y-85885000I0J160000D01*
G01*
G37*
G04 #@! TD.AperFunction*
G04 #@! TA.AperFunction,SMDPad,CuDef*
G36*
G01*
X71079400Y-85885000D02*
X71079400Y-85565000D01*
G75*
G02*
X71239400Y-85405000I160000J0D01*
G01*
X71634400Y-85405000D01*
G75*
G02*
X71794400Y-85565000I0J-160000D01*
G01*
X71794400Y-85885000D01*
G75*
G02*
X71634400Y-86045000I-160000J0D01*
G01*
X71239400Y-86045000D01*
G75*
G02*
X71079400Y-85885000I0J160000D01*
G01*
G37*
G04 #@! TD.AperFunction*
G04 #@! TA.AperFunction,SMDPad,CuDef*
G36*
G01*
X164730400Y-146819600D02*
X164730400Y-146499600D01*
G75*
G02*
X164890400Y-146339600I160000J0D01*
G01*
X165285400Y-146339600D01*
G75*
G02*
X165445400Y-146499600I0J-160000D01*
G01*
X165445400Y-146819600D01*
G75*
G02*
X165285400Y-146979600I-160000J0D01*
G01*
X164890400Y-146979600D01*
G75*
G02*
X164730400Y-146819600I0J160000D01*
G01*
G37*
G04 #@! TD.AperFunction*
G04 #@! TA.AperFunction,SMDPad,CuDef*
G36*
G01*
X163535400Y-146819600D02*
X163535400Y-146499600D01*
G75*
G02*
X163695400Y-146339600I160000J0D01*
G01*
X164090400Y-146339600D01*
G75*
G02*
X164250400Y-146499600I0J-160000D01*
G01*
X164250400Y-146819600D01*
G75*
G02*
X164090400Y-146979600I-160000J0D01*
G01*
X163695400Y-146979600D01*
G75*
G02*
X163535400Y-146819600I0J160000D01*
G01*
G37*
G04 #@! TD.AperFunction*
G04 #@! TA.AperFunction,SMDPad,CuDef*
G36*
G01*
X163573500Y-145130500D02*
X163573500Y-144810500D01*
G75*
G02*
X163733500Y-144650500I160000J0D01*
G01*
X164128500Y-144650500D01*
G75*
G02*
X164288500Y-144810500I0J-160000D01*
G01*
X164288500Y-145130500D01*
G75*
G02*
X164128500Y-145290500I-160000J0D01*
G01*
X163733500Y-145290500D01*
G75*
G02*
X163573500Y-145130500I0J160000D01*
G01*
G37*
G04 #@! TD.AperFunction*
G04 #@! TA.AperFunction,SMDPad,CuDef*
G36*
G01*
X164768500Y-145130500D02*
X164768500Y-144810500D01*
G75*
G02*
X164928500Y-144650500I160000J0D01*
G01*
X165323500Y-144650500D01*
G75*
G02*
X165483500Y-144810500I0J-160000D01*
G01*
X165483500Y-145130500D01*
G75*
G02*
X165323500Y-145290500I-160000J0D01*
G01*
X164928500Y-145290500D01*
G75*
G02*
X164768500Y-145130500I0J160000D01*
G01*
G37*
G04 #@! TD.AperFunction*
G04 #@! TA.AperFunction,SMDPad,CuDef*
G36*
G01*
X68845400Y-96807000D02*
X68845400Y-96487000D01*
G75*
G02*
X69005400Y-96327000I160000J0D01*
G01*
X69400400Y-96327000D01*
G75*
G02*
X69560400Y-96487000I0J-160000D01*
G01*
X69560400Y-96807000D01*
G75*
G02*
X69400400Y-96967000I-160000J0D01*
G01*
X69005400Y-96967000D01*
G75*
G02*
X68845400Y-96807000I0J160000D01*
G01*
G37*
G04 #@! TD.AperFunction*
G04 #@! TA.AperFunction,SMDPad,CuDef*
G36*
G01*
X67650400Y-96807000D02*
X67650400Y-96487000D01*
G75*
G02*
X67810400Y-96327000I160000J0D01*
G01*
X68205400Y-96327000D01*
G75*
G02*
X68365400Y-96487000I0J-160000D01*
G01*
X68365400Y-96807000D01*
G75*
G02*
X68205400Y-96967000I-160000J0D01*
G01*
X67810400Y-96967000D01*
G75*
G02*
X67650400Y-96807000I0J160000D01*
G01*
G37*
G04 #@! TD.AperFunction*
G04 #@! TA.AperFunction,SMDPad,CuDef*
G36*
G01*
X67612300Y-99880400D02*
X67612300Y-99560400D01*
G75*
G02*
X67772300Y-99400400I160000J0D01*
G01*
X68167300Y-99400400D01*
G75*
G02*
X68327300Y-99560400I0J-160000D01*
G01*
X68327300Y-99880400D01*
G75*
G02*
X68167300Y-100040400I-160000J0D01*
G01*
X67772300Y-100040400D01*
G75*
G02*
X67612300Y-99880400I0J160000D01*
G01*
G37*
G04 #@! TD.AperFunction*
G04 #@! TA.AperFunction,SMDPad,CuDef*
G36*
G01*
X68807300Y-99880400D02*
X68807300Y-99560400D01*
G75*
G02*
X68967300Y-99400400I160000J0D01*
G01*
X69362300Y-99400400D01*
G75*
G02*
X69522300Y-99560400I0J-160000D01*
G01*
X69522300Y-99880400D01*
G75*
G02*
X69362300Y-100040400I-160000J0D01*
G01*
X68967300Y-100040400D01*
G75*
G02*
X68807300Y-99880400I0J160000D01*
G01*
G37*
G04 #@! TD.AperFunction*
G04 #@! TA.AperFunction,SMDPad,CuDef*
G36*
G01*
X180656200Y-139085300D02*
X180656200Y-138765300D01*
G75*
G02*
X180816200Y-138605300I160000J0D01*
G01*
X181211200Y-138605300D01*
G75*
G02*
X181371200Y-138765300I0J-160000D01*
G01*
X181371200Y-139085300D01*
G75*
G02*
X181211200Y-139245300I-160000J0D01*
G01*
X180816200Y-139245300D01*
G75*
G02*
X180656200Y-139085300I0J160000D01*
G01*
G37*
G04 #@! TD.AperFunction*
G04 #@! TA.AperFunction,SMDPad,CuDef*
G36*
G01*
X179461200Y-139085300D02*
X179461200Y-138765300D01*
G75*
G02*
X179621200Y-138605300I160000J0D01*
G01*
X180016200Y-138605300D01*
G75*
G02*
X180176200Y-138765300I0J-160000D01*
G01*
X180176200Y-139085300D01*
G75*
G02*
X180016200Y-139245300I-160000J0D01*
G01*
X179621200Y-139245300D01*
G75*
G02*
X179461200Y-139085300I0J160000D01*
G01*
G37*
G04 #@! TD.AperFunction*
D18*
X184544200Y-131468300D03*
X192544200Y-131468300D03*
X184544200Y-135968300D03*
X192544200Y-135968300D03*
D10*
X138785600Y-112001300D03*
X152869900Y-113030000D03*
X73748900Y-88480900D03*
X75742800Y-70637400D03*
X229057200Y-48577500D03*
X62725300Y-80594200D03*
D19*
X67314900Y-88008500D03*
X67314900Y-87058500D03*
X67314900Y-86108500D03*
X69514900Y-86108500D03*
X69514900Y-88008500D03*
G04 #@! TA.AperFunction,SMDPad,CuDef*
G36*
G01*
X70061400Y-91572750D02*
X70061400Y-91785250D01*
G75*
G02*
X69967650Y-91879000I-93750J0D01*
G01*
X69780150Y-91879000D01*
G75*
G02*
X69686400Y-91785250I0J93750D01*
G01*
X69686400Y-91572750D01*
G75*
G02*
X69780150Y-91479000I93750J0D01*
G01*
X69967650Y-91479000D01*
G75*
G02*
X70061400Y-91572750I0J-93750D01*
G01*
G37*
G04 #@! TD.AperFunction*
G04 #@! TA.AperFunction,SMDPad,CuDef*
G36*
G01*
X70061400Y-92222750D02*
X70061400Y-92435250D01*
G75*
G02*
X69967650Y-92529000I-93750J0D01*
G01*
X69780150Y-92529000D01*
G75*
G02*
X69686400Y-92435250I0J93750D01*
G01*
X69686400Y-92222750D01*
G75*
G02*
X69780150Y-92129000I93750J0D01*
G01*
X69967650Y-92129000D01*
G75*
G02*
X70061400Y-92222750I0J-93750D01*
G01*
G37*
G04 #@! TD.AperFunction*
G04 #@! TA.AperFunction,SMDPad,CuDef*
G36*
G01*
X70061400Y-92872750D02*
X70061400Y-93085250D01*
G75*
G02*
X69967650Y-93179000I-93750J0D01*
G01*
X69780150Y-93179000D01*
G75*
G02*
X69686400Y-93085250I0J93750D01*
G01*
X69686400Y-92872750D01*
G75*
G02*
X69780150Y-92779000I93750J0D01*
G01*
X69967650Y-92779000D01*
G75*
G02*
X70061400Y-92872750I0J-93750D01*
G01*
G37*
G04 #@! TD.AperFunction*
G04 #@! TA.AperFunction,SMDPad,CuDef*
G36*
G01*
X68286400Y-92872750D02*
X68286400Y-93085250D01*
G75*
G02*
X68192650Y-93179000I-93750J0D01*
G01*
X68005150Y-93179000D01*
G75*
G02*
X67911400Y-93085250I0J93750D01*
G01*
X67911400Y-92872750D01*
G75*
G02*
X68005150Y-92779000I93750J0D01*
G01*
X68192650Y-92779000D01*
G75*
G02*
X68286400Y-92872750I0J-93750D01*
G01*
G37*
G04 #@! TD.AperFunction*
G04 #@! TA.AperFunction,SMDPad,CuDef*
G36*
G01*
X68286400Y-92222750D02*
X68286400Y-92435250D01*
G75*
G02*
X68192650Y-92529000I-93750J0D01*
G01*
X68005150Y-92529000D01*
G75*
G02*
X67911400Y-92435250I0J93750D01*
G01*
X67911400Y-92222750D01*
G75*
G02*
X68005150Y-92129000I93750J0D01*
G01*
X68192650Y-92129000D01*
G75*
G02*
X68286400Y-92222750I0J-93750D01*
G01*
G37*
G04 #@! TD.AperFunction*
G04 #@! TA.AperFunction,SMDPad,CuDef*
G36*
G01*
X68286400Y-91572750D02*
X68286400Y-91785250D01*
G75*
G02*
X68192650Y-91879000I-93750J0D01*
G01*
X68005150Y-91879000D01*
G75*
G02*
X67911400Y-91785250I0J93750D01*
G01*
X67911400Y-91572750D01*
G75*
G02*
X68005150Y-91479000I93750J0D01*
G01*
X68192650Y-91479000D01*
G75*
G02*
X68286400Y-91572750I0J-93750D01*
G01*
G37*
G04 #@! TD.AperFunction*
D20*
X68986400Y-92329000D03*
D21*
X171970700Y-147116800D03*
X171970700Y-145846800D03*
X171970700Y-144576800D03*
X171970700Y-143306800D03*
X171970700Y-142036800D03*
X170700700Y-142036800D03*
X170700700Y-143306800D03*
X170700700Y-144576800D03*
X170700700Y-145846800D03*
X170700700Y-147116800D03*
D22*
X152908000Y-117767100D03*
X152908000Y-115267100D03*
D23*
X160658000Y-116517100D03*
D24*
X171138600Y-116141500D03*
X167138600Y-116141500D03*
G04 #@! TA.AperFunction,SMDPad,CuDef*
G36*
G01*
X136235500Y-113160200D02*
X135925500Y-113160200D01*
G75*
G02*
X135770500Y-113005200I0J155000D01*
G01*
X135770500Y-112580200D01*
G75*
G02*
X135925500Y-112425200I155000J0D01*
G01*
X136235500Y-112425200D01*
G75*
G02*
X136390500Y-112580200I0J-155000D01*
G01*
X136390500Y-113005200D01*
G75*
G02*
X136235500Y-113160200I-155000J0D01*
G01*
G37*
G04 #@! TD.AperFunction*
G04 #@! TA.AperFunction,SMDPad,CuDef*
G36*
G01*
X136235500Y-114295200D02*
X135925500Y-114295200D01*
G75*
G02*
X135770500Y-114140200I0J155000D01*
G01*
X135770500Y-113715200D01*
G75*
G02*
X135925500Y-113560200I155000J0D01*
G01*
X136235500Y-113560200D01*
G75*
G02*
X136390500Y-113715200I0J-155000D01*
G01*
X136390500Y-114140200D01*
G75*
G02*
X136235500Y-114295200I-155000J0D01*
G01*
G37*
G04 #@! TD.AperFunction*
G04 #@! TA.AperFunction,SMDPad,CuDef*
G36*
G01*
X125839500Y-121879300D02*
X125839500Y-122189300D01*
G75*
G02*
X125684500Y-122344300I-155000J0D01*
G01*
X125259500Y-122344300D01*
G75*
G02*
X125104500Y-122189300I0J155000D01*
G01*
X125104500Y-121879300D01*
G75*
G02*
X125259500Y-121724300I155000J0D01*
G01*
X125684500Y-121724300D01*
G75*
G02*
X125839500Y-121879300I0J-155000D01*
G01*
G37*
G04 #@! TD.AperFunction*
G04 #@! TA.AperFunction,SMDPad,CuDef*
G36*
G01*
X124704500Y-121879300D02*
X124704500Y-122189300D01*
G75*
G02*
X124549500Y-122344300I-155000J0D01*
G01*
X124124500Y-122344300D01*
G75*
G02*
X123969500Y-122189300I0J155000D01*
G01*
X123969500Y-121879300D01*
G75*
G02*
X124124500Y-121724300I155000J0D01*
G01*
X124549500Y-121724300D01*
G75*
G02*
X124704500Y-121879300I0J-155000D01*
G01*
G37*
G04 #@! TD.AperFunction*
D11*
X72618600Y-108292900D03*
D12*
X70078600Y-108292900D03*
X72618600Y-110832900D03*
X70078600Y-110832900D03*
X72618600Y-113372900D03*
X70078600Y-113372900D03*
X72618600Y-115912900D03*
X70078600Y-115912900D03*
X72618600Y-118452900D03*
X70078600Y-118452900D03*
X72618600Y-120992900D03*
X70078600Y-120992900D03*
X72618600Y-123532900D03*
X70078600Y-123532900D03*
X72618600Y-126072900D03*
X70078600Y-126072900D03*
X72618600Y-128612900D03*
X70078600Y-128612900D03*
X72618600Y-131152900D03*
X70078600Y-131152900D03*
X72618600Y-133692900D03*
X70078600Y-133692900D03*
D25*
X235795190Y-192096910D03*
X234204200Y-191437900D03*
X232613210Y-192096910D03*
X231954200Y-193687900D03*
X232613210Y-195278890D03*
X234204200Y-195937900D03*
X235795190Y-195278890D03*
X236454200Y-193687900D03*
D26*
X234204200Y-193687900D03*
X149154200Y-193687900D03*
D25*
X151404200Y-193687900D03*
X150745190Y-195278890D03*
X149154200Y-195937900D03*
X147563210Y-195278890D03*
X146904200Y-193687900D03*
X147563210Y-192096910D03*
X149154200Y-191437900D03*
X150745190Y-192096910D03*
D26*
X64104200Y-193687900D03*
D25*
X66354200Y-193687900D03*
X65695190Y-195278890D03*
X64104200Y-195937900D03*
X62513210Y-195278890D03*
X61854200Y-193687900D03*
X62513210Y-192096910D03*
X64104200Y-191437900D03*
X65695190Y-192096910D03*
X235795190Y-64016910D03*
X234204200Y-63357900D03*
X232613210Y-64016910D03*
X231954200Y-65607900D03*
X232613210Y-67198890D03*
X234204200Y-67857900D03*
X235795190Y-67198890D03*
X236454200Y-65607900D03*
D26*
X234204200Y-65607900D03*
X149154200Y-65607900D03*
D25*
X151404200Y-65607900D03*
X150745190Y-67198890D03*
X149154200Y-67857900D03*
X147563210Y-67198890D03*
X146904200Y-65607900D03*
X147563210Y-64016910D03*
X149154200Y-63357900D03*
X150745190Y-64016910D03*
D26*
X71043800Y-66116200D03*
D25*
X73293800Y-66116200D03*
X72634790Y-67707190D03*
X71043800Y-68366200D03*
X69452810Y-67707190D03*
X68793800Y-66116200D03*
X69452810Y-64525210D03*
X71043800Y-63866200D03*
X72634790Y-64525210D03*
D27*
X97586800Y-136766300D03*
X86156800Y-131305300D03*
X91812300Y-140127800D03*
X95681800Y-124218700D03*
X90601800Y-122567700D03*
X86360000Y-55079900D03*
X90893900Y-52997100D03*
X171360042Y-142696142D03*
X82169000Y-168160700D03*
X95542100Y-100596700D03*
X91177300Y-116912200D03*
X85534500Y-107708700D03*
X95351600Y-106184700D03*
X77368400Y-85725000D03*
X70891400Y-92964000D03*
X71399400Y-92329000D03*
X70891400Y-91694000D03*
X178638200Y-137528300D03*
X145046700Y-123075700D03*
X145046700Y-124218700D03*
X167538400Y-110909100D03*
X170713400Y-110909100D03*
X136080500Y-111709200D03*
X134810500Y-111772700D03*
X133604000Y-111747300D03*
X132334000Y-111747300D03*
X138137900Y-113563400D03*
X141528800Y-101892100D03*
X136486900Y-101854000D03*
X123139200Y-123304300D03*
X129717800Y-122085100D03*
X136461500Y-135750300D03*
X137731500Y-135750300D03*
X139001500Y-135750300D03*
X134785100Y-136969500D03*
X90843100Y-162077400D03*
X172707300Y-145326100D03*
X169710100Y-144564100D03*
X126250700Y-126415800D03*
X123144359Y-122039459D03*
X182702200Y-131559300D03*
X194640200Y-131432300D03*
X109016800Y-121958100D03*
X90766900Y-174828200D03*
X70967600Y-82321400D03*
X62331600Y-83146900D03*
X68618100Y-87083900D03*
X62776100Y-98577400D03*
X62776100Y-97497900D03*
X62776100Y-99593400D03*
X138125200Y-123494800D03*
X134264400Y-128104900D03*
X86004400Y-180098700D03*
X90525600Y-99339400D03*
X85953600Y-118033800D03*
X90690700Y-172085000D03*
X120777000Y-128244600D03*
X135229600Y-119634000D03*
X85572600Y-169646600D03*
X82499200Y-178765200D03*
X94094300Y-136321800D03*
X145110200Y-125310900D03*
X91871800Y-126758700D03*
X96824800Y-138925300D03*
X86537800Y-138925300D03*
X86791800Y-125107700D03*
X82169000Y-166763700D03*
X91732100Y-103136700D03*
X86855300Y-101612700D03*
X96189800Y-115709700D03*
X71145400Y-89154000D03*
X69621400Y-89281000D03*
X71272400Y-87757000D03*
X178574700Y-138925300D03*
X129921000Y-110299500D03*
X139407900Y-113563400D03*
X135433500Y-114821400D03*
X126542800Y-122669300D03*
X134357020Y-119564227D03*
X128511290Y-110299500D03*
X163017200Y-147180300D03*
X163271200Y-144386300D03*
X228168200Y-187667900D03*
X136505950Y-132416550D03*
X141288200Y-124562300D03*
X135153400Y-128054100D03*
X145186400Y-121704100D03*
X226847400Y-48564800D03*
X87464900Y-114668300D03*
X82384900Y-115735100D03*
X87071200Y-162191700D03*
X119278400Y-126352300D03*
X135432800Y-116484400D03*
X96367600Y-108376720D03*
X86969600Y-53492400D03*
X87483149Y-172750951D03*
X82550000Y-177393600D03*
X134378700Y-132994379D03*
X134175500Y-115239800D03*
X78351380Y-110807500D03*
X78343760Y-123545600D03*
X78323440Y-113385600D03*
X78348840Y-126085600D03*
X78364080Y-118491000D03*
X78353920Y-128656080D03*
X78369160Y-121015760D03*
X78313280Y-131175760D03*
X67602100Y-75907900D03*
X67602100Y-77685900D03*
X67602100Y-74383900D03*
X122966480Y-116413280D03*
X123698000Y-116946680D03*
X167199838Y-131648200D03*
X141084300Y-122770900D03*
X81876900Y-53936900D03*
X111264700Y-100076000D03*
X84937600Y-53162200D03*
X86055200Y-165176200D03*
X85852000Y-172770800D03*
X86055200Y-175818800D03*
X85572600Y-166763700D03*
X85750400Y-177419000D03*
X85852000Y-53606704D03*
X112356900Y-100152200D03*
X86918800Y-165074600D03*
X86922116Y-175811796D03*
X86868000Y-171831000D03*
X143586200Y-115785900D03*
X137731500Y-126834900D03*
X145770600Y-110185200D03*
X135204200Y-125272800D03*
X141427200Y-127159210D03*
X141795500Y-121958100D03*
X92527120Y-107401360D03*
X89692480Y-107513120D03*
X88087200Y-108869480D03*
X129778760Y-121005600D03*
X128203960Y-115305840D03*
X90901520Y-108981240D03*
X122161300Y-121754900D03*
X111125000Y-126034800D03*
X92837000Y-131076700D03*
X134035800Y-126301500D03*
X111988600Y-125920500D03*
X89954100Y-131241800D03*
X133743700Y-127292100D03*
X112890300Y-125844300D03*
X88734900Y-132588000D03*
X132930900Y-128270000D03*
X113766600Y-125806200D03*
X91795600Y-132778500D03*
X129819400Y-123057920D03*
X126390400Y-115570000D03*
X86603840Y-108869480D03*
X138061700Y-116700300D03*
D28*
X170700700Y-144576800D02*
X170749384Y-144576800D01*
X171970700Y-145846800D02*
X171970700Y-145798116D01*
X83349500Y-168160700D02*
X82169000Y-168160700D01*
D29*
X75996900Y-85725000D02*
X77368400Y-85725000D01*
D28*
X70876400Y-92979000D02*
X70891400Y-92964000D01*
X69873900Y-92979000D02*
X70876400Y-92979000D01*
X69873900Y-92329000D02*
X71399400Y-92329000D01*
X70876400Y-91679000D02*
X70891400Y-91694000D01*
X69873900Y-91679000D02*
X70876400Y-91679000D01*
D29*
X179908200Y-137528300D02*
X178638200Y-137528300D01*
X144026700Y-123075700D02*
X144026700Y-124218700D01*
X144026700Y-123075700D02*
X145046700Y-123075700D01*
X144026700Y-124218700D02*
X145046700Y-124218700D01*
X167538400Y-111992600D02*
X167538400Y-110909100D01*
X170713400Y-111992600D02*
X170713400Y-110909100D01*
X134810500Y-112792700D02*
X136080500Y-112792700D01*
X136080500Y-112792700D02*
X136080500Y-111709200D01*
X134810500Y-112792700D02*
X134810500Y-111772700D01*
X133604000Y-112780000D02*
X133604000Y-111747300D01*
X132334000Y-112780000D02*
X132334000Y-111747300D01*
X141516700Y-101904200D02*
X141528800Y-101892100D01*
X140462000Y-101904200D02*
X141516700Y-101904200D01*
X136524400Y-101891500D02*
X136486900Y-101854000D01*
X137528300Y-101891500D02*
X136524400Y-101891500D01*
X124324300Y-123304300D02*
X123139200Y-123304300D01*
D28*
X129695000Y-122062300D02*
X129717800Y-122085100D01*
X128233800Y-122062300D02*
X129695000Y-122062300D01*
D29*
X136461500Y-134717600D02*
X136461500Y-135750300D01*
X137731500Y-134717600D02*
X137731500Y-135750300D01*
X139001500Y-134717600D02*
X139001500Y-135750300D01*
X134810500Y-136944100D02*
X134785100Y-136969500D01*
X134810500Y-135621100D02*
X134810500Y-136944100D01*
X147066000Y-64833500D02*
X147066000Y-67144900D01*
X149606000Y-64833500D02*
X149606000Y-67119500D01*
X169722800Y-144576800D02*
X169710100Y-144564100D01*
X170700700Y-144576800D02*
X169722800Y-144576800D01*
X170700700Y-142036800D02*
X171360042Y-142696142D01*
X172694600Y-145326100D02*
X172707300Y-145326100D01*
X172173900Y-145846800D02*
X172694600Y-145326100D01*
X171970700Y-145846800D02*
X172173900Y-145846800D01*
D28*
X128233800Y-126562300D02*
X126397200Y-126562300D01*
X126397200Y-126562300D02*
X126250700Y-126415800D01*
D29*
X123149518Y-122034300D02*
X123144359Y-122039459D01*
X124324300Y-122034300D02*
X123149518Y-122034300D01*
X182793200Y-131468300D02*
X182702200Y-131559300D01*
X184544200Y-131468300D02*
X182793200Y-131468300D01*
X194604200Y-131468300D02*
X194640200Y-131432300D01*
X192544200Y-131468300D02*
X194604200Y-131468300D01*
X109016800Y-120116600D02*
X109016800Y-121958100D01*
D28*
X70946200Y-82300000D02*
X70967600Y-82321400D01*
X70002400Y-82300000D02*
X70946200Y-82300000D01*
X62357000Y-83121500D02*
X62331600Y-83146900D01*
X63465900Y-83121500D02*
X62357000Y-83121500D01*
X68592700Y-87058500D02*
X68618100Y-87083900D01*
X67314900Y-87058500D02*
X68592700Y-87058500D01*
X62750700Y-98552000D02*
X62776100Y-98577400D01*
X61366400Y-98552000D02*
X62750700Y-98552000D01*
X61366400Y-98552000D02*
X61366400Y-98082100D01*
X61950600Y-97497900D02*
X62776100Y-97497900D01*
X61366400Y-98082100D02*
X61950600Y-97497900D01*
X61366400Y-98882200D02*
X61366400Y-98552000D01*
X62077600Y-99593400D02*
X62776100Y-99593400D01*
X61366400Y-98882200D02*
X62077600Y-99593400D01*
X63034700Y-99852000D02*
X62776100Y-99593400D01*
X64041400Y-99852000D02*
X63034700Y-99852000D01*
X138557700Y-123062300D02*
X138125200Y-123494800D01*
X139583800Y-123062300D02*
X138557700Y-123062300D01*
X134658800Y-128499300D02*
X134264400Y-128104900D01*
X134658800Y-129487300D02*
X134658800Y-128499300D01*
D29*
X121911300Y-128244600D02*
X120777000Y-128244600D01*
D28*
X69636400Y-91679000D02*
X68986400Y-92329000D01*
X69873900Y-91679000D02*
X69636400Y-91679000D01*
X69873900Y-92329000D02*
X68986400Y-92329000D01*
X69636400Y-92979000D02*
X68986400Y-92329000D01*
X69873900Y-92979000D02*
X69636400Y-92979000D01*
X135158800Y-119563200D02*
X135229600Y-119634000D01*
X135158800Y-118137300D02*
X135158800Y-119563200D01*
D29*
X83552700Y-178816000D02*
X82550000Y-178816000D01*
X82550000Y-178816000D02*
X82499200Y-178765200D01*
D28*
X125479300Y-122054300D02*
X125459300Y-122034300D01*
X126435800Y-122562300D02*
X126649800Y-122562300D01*
D29*
X125907800Y-122034300D02*
X126435800Y-122562300D01*
X125459300Y-122034300D02*
X125907800Y-122034300D01*
X125459300Y-123304300D02*
X125907800Y-123304300D01*
X125907800Y-123304300D02*
X126542800Y-122669300D01*
X136080500Y-114098200D02*
X135433500Y-114745200D01*
X136080500Y-113927700D02*
X136080500Y-114098200D01*
X134810500Y-114122200D02*
X135433500Y-114745200D01*
X134810500Y-113927700D02*
X134810500Y-114122200D01*
X139001500Y-133582600D02*
X137731500Y-133582600D01*
D28*
X142693200Y-123190700D02*
X142891700Y-123389200D01*
D29*
X142891700Y-123389200D02*
X142891700Y-123075700D01*
X142891700Y-124218700D02*
X142891700Y-123389200D01*
D28*
X83387000Y-166763700D02*
X82169000Y-166763700D01*
D29*
X71436900Y-85725000D02*
X71436900Y-87159500D01*
X71653400Y-88646000D02*
X71145400Y-89154000D01*
X179818700Y-138925300D02*
X178574700Y-138925300D01*
X129921000Y-111327600D02*
X129921000Y-110299500D01*
D28*
X135433500Y-114821400D02*
X135433500Y-114745200D01*
X126649800Y-122562300D02*
X126542800Y-122669300D01*
X128233800Y-122562300D02*
X126649800Y-122562300D01*
X135158800Y-131069400D02*
X135158800Y-129487300D01*
X134658800Y-118137300D02*
X134658800Y-119262447D01*
X134658800Y-119262447D02*
X134357020Y-119564227D01*
D29*
X128524000Y-111327600D02*
X128524000Y-110312210D01*
X128524000Y-110312210D02*
X128511290Y-110299500D01*
X163537900Y-146659600D02*
X163017200Y-147180300D01*
X163892900Y-146659600D02*
X163537900Y-146659600D01*
X163868100Y-144983200D02*
X163271200Y-144386300D01*
X163931000Y-144983200D02*
X163868100Y-144983200D01*
D28*
X137672000Y-133582600D02*
X136505950Y-132416550D01*
X137731500Y-133582600D02*
X137672000Y-133582600D01*
X136505950Y-132416550D02*
X135158800Y-131069400D01*
X139583800Y-124562300D02*
X141288200Y-124562300D01*
X142548100Y-124562300D02*
X142891700Y-124218700D01*
X141288200Y-124562300D02*
X142548100Y-124562300D01*
X135158800Y-128059500D02*
X135153400Y-128054100D01*
X135158800Y-128618300D02*
X135158800Y-128059500D01*
X135158800Y-129487300D02*
X135158800Y-128618300D01*
X135158800Y-128618300D02*
X135158800Y-128468568D01*
D29*
X71818500Y-88480900D02*
X71653400Y-88646000D01*
X73748900Y-88480900D02*
X71818500Y-88480900D01*
X226860100Y-48577500D02*
X226847400Y-48564800D01*
X229057200Y-48577500D02*
X226860100Y-48577500D01*
X119291100Y-126339600D02*
X119278400Y-126352300D01*
X120704500Y-126339600D02*
X119291100Y-126339600D01*
D28*
X134658800Y-117258400D02*
X134658800Y-118137300D01*
X135432800Y-116484400D02*
X134658800Y-117258400D01*
X135432800Y-114822100D02*
X135433500Y-114821400D01*
X135432800Y-116484400D02*
X135432800Y-114822100D01*
X228092000Y-187591700D02*
X228168200Y-187667900D01*
X226288600Y-187591700D02*
X228092000Y-187591700D01*
D29*
X83552700Y-177419000D02*
X82575400Y-177419000D01*
X82575400Y-177419000D02*
X82550000Y-177393600D01*
D28*
X136461500Y-133582600D02*
X136330500Y-133451600D01*
D29*
X134810500Y-133896100D02*
X134810500Y-133769100D01*
X134997000Y-133582600D02*
X136461500Y-133582600D01*
X134810500Y-133769100D02*
X134997000Y-133582600D01*
X132334000Y-113915000D02*
X133604000Y-113915000D01*
D28*
X133604000Y-114592100D02*
X133604000Y-113915000D01*
X134158800Y-118137300D02*
X134158800Y-116162900D01*
X134158800Y-131279900D02*
X134158800Y-129487300D01*
X136461500Y-133582600D02*
X134158800Y-131279900D01*
D29*
X134810500Y-133426179D02*
X134378700Y-132994379D01*
X134810500Y-133896100D02*
X134810500Y-133426179D01*
D28*
X134158800Y-116162900D02*
X134158800Y-116150200D01*
X133604000Y-114668300D02*
X134175500Y-115239800D01*
X133604000Y-113915000D02*
X133604000Y-114668300D01*
X134158800Y-115256500D02*
X134175500Y-115239800D01*
X134158800Y-116162900D02*
X134158800Y-115256500D01*
D29*
X125476000Y-127241300D02*
X126085600Y-127241300D01*
D28*
X125539500Y-127177800D02*
X125476000Y-127241300D01*
X127172216Y-127177800D02*
X125539500Y-127177800D01*
X127287716Y-127062300D02*
X127172216Y-127177800D01*
X128233800Y-127062300D02*
X127287716Y-127062300D01*
D29*
X123656200Y-127241300D02*
X122754500Y-126339600D01*
X125476000Y-127241300D02*
X123656200Y-127241300D01*
X123046300Y-127851200D02*
X123656200Y-127241300D01*
X123046300Y-128244600D02*
X123046300Y-127851200D01*
D28*
X70002400Y-85621000D02*
X69514900Y-86108500D01*
X70002400Y-83435000D02*
X70002400Y-85621000D01*
X67402900Y-97252000D02*
X68007900Y-96647000D01*
X64041400Y-97252000D02*
X67402900Y-97252000D01*
X68098900Y-92979000D02*
X68082400Y-92979000D01*
X68082400Y-92979000D02*
X68067400Y-92964000D01*
X68067400Y-92964000D02*
X67335400Y-92964000D01*
X68098900Y-92329000D02*
X67208400Y-92329000D01*
X68098900Y-91679000D02*
X67350400Y-91679000D01*
D29*
X65865900Y-80708500D02*
X65938400Y-80781000D01*
D30*
X65938400Y-84836000D02*
X65874900Y-84899500D01*
D29*
X65659000Y-83121500D02*
X65938400Y-82842100D01*
X64600900Y-83121500D02*
X65659000Y-83121500D01*
D30*
X65938400Y-82842100D02*
X65938400Y-84836000D01*
X65938400Y-80781000D02*
X65938400Y-82842100D01*
D28*
X67314900Y-88008500D02*
X67314900Y-89276100D01*
X67314900Y-86108500D02*
X67314900Y-84955200D01*
D29*
X65751600Y-80594200D02*
X65938400Y-80781000D01*
X62725300Y-80594200D02*
X65751600Y-80594200D01*
D28*
X68098900Y-91679000D02*
X68098900Y-92329000D01*
X68098900Y-92329000D02*
X68098900Y-92979000D01*
X181043200Y-138895800D02*
X181013700Y-138925300D01*
X181043200Y-137528300D02*
X181043200Y-138895800D01*
D29*
X181013700Y-142455300D02*
X180543200Y-142925800D01*
X181013700Y-138925300D02*
X181013700Y-142455300D01*
D28*
X192544200Y-135968300D02*
X184544200Y-135968300D01*
X182603200Y-135968300D02*
X181043200Y-137528300D01*
X184544200Y-135968300D02*
X182603200Y-135968300D01*
D31*
X131158800Y-117099900D02*
X131158800Y-118137300D01*
X123769120Y-115869720D02*
X124058680Y-116159280D01*
X99065080Y-115869720D02*
X123769120Y-115869720D01*
X78351380Y-110807500D02*
X86385400Y-110807500D01*
X86385400Y-110807500D02*
X89484200Y-113906300D01*
X89484200Y-113906300D02*
X97101660Y-113906300D01*
X97101660Y-113906300D02*
X99065080Y-115869720D01*
X124058680Y-116159280D02*
X127502920Y-116159280D01*
X127502920Y-116159280D02*
X127792480Y-115869720D01*
X127792480Y-115869720D02*
X129928620Y-115869720D01*
X129928620Y-115869720D02*
X131158800Y-117099900D01*
X128371600Y-118795800D02*
X127076200Y-118795800D01*
X128371600Y-118795800D02*
X126746000Y-118795800D01*
X123088400Y-118795800D02*
X123063000Y-118795800D01*
X126746000Y-118795800D02*
X123088400Y-118795800D01*
X123063000Y-118795800D02*
X121285000Y-117017800D01*
X121285000Y-117017800D02*
X121005600Y-117017800D01*
X121005600Y-117017800D02*
X99796600Y-117017800D01*
X99796600Y-117017800D02*
X99491800Y-117017800D01*
X99491800Y-117017800D02*
X95516700Y-120992900D01*
X128562100Y-118795800D02*
X128371600Y-118795800D01*
X132158800Y-122392500D02*
X128562100Y-118795800D01*
X132158800Y-129487300D02*
X132158800Y-122392500D01*
X92964000Y-123545600D02*
X95516700Y-120992900D01*
X78343760Y-123545600D02*
X92964000Y-123545600D01*
X126949200Y-117957600D02*
X126822200Y-117957600D01*
X128790700Y-117957600D02*
X126949200Y-117957600D01*
X131267200Y-120434100D02*
X128790700Y-117957600D01*
X135801100Y-119291100D02*
X135801100Y-119849900D01*
X135801100Y-119849900D02*
X135216900Y-120434100D01*
X135658800Y-119148800D02*
X135801100Y-119291100D01*
X135216900Y-120434100D02*
X131267200Y-120434100D01*
X135658800Y-118137300D02*
X135658800Y-119148800D01*
X121640600Y-116128800D02*
X123469400Y-117957600D01*
X89128600Y-114198400D02*
X96977200Y-114198400D01*
X96977200Y-114198400D02*
X98907600Y-116128800D01*
X88315800Y-113385600D02*
X89128600Y-114198400D01*
X98907600Y-116128800D02*
X121640600Y-116128800D01*
X123469400Y-117957600D02*
X126949200Y-117957600D01*
X78323440Y-113385600D02*
X88315800Y-113385600D01*
D32*
X115722400Y-124599700D02*
X114630200Y-123507500D01*
X126022100Y-124599700D02*
X115722400Y-124599700D01*
X126984700Y-125562300D02*
X126022100Y-124599700D01*
X128233800Y-125562300D02*
X126984700Y-125562300D01*
X114630200Y-123507500D02*
X105168700Y-123507500D01*
X104686100Y-123507500D02*
X104660700Y-123507500D01*
X105168700Y-123507500D02*
X104686100Y-123507500D01*
X101909880Y-126085600D02*
X104487980Y-123507500D01*
X78348840Y-126085600D02*
X101909880Y-126085600D01*
X104487980Y-123507500D02*
X104686100Y-123507500D01*
D31*
X123342400Y-118237000D02*
X121539000Y-116433600D01*
X128714500Y-118237000D02*
X123342400Y-118237000D01*
X131203700Y-120726200D02*
X128714500Y-118237000D01*
X135356600Y-120726200D02*
X131203700Y-120726200D01*
X136658800Y-119424000D02*
X135356600Y-120726200D01*
X136658800Y-118137300D02*
X136658800Y-119424000D01*
X78364080Y-118491000D02*
X85013800Y-118491000D01*
X85013800Y-118491000D02*
X85313520Y-118790720D01*
X96647000Y-118790720D02*
X99004120Y-116433600D01*
X86329520Y-118790720D02*
X96647000Y-118790720D01*
X121539000Y-116433600D02*
X99004120Y-116433600D01*
X85313520Y-118790720D02*
X86329520Y-118790720D01*
X86329520Y-118790720D02*
X86476840Y-118790720D01*
D32*
X128233800Y-126062300D02*
X127179900Y-126062300D01*
X126925900Y-126062300D02*
X128233800Y-126062300D01*
X115455700Y-125018800D02*
X125882400Y-125018800D01*
X125882400Y-125018800D02*
X126925900Y-126062300D01*
X114287300Y-123850400D02*
X115455700Y-125018800D01*
X104762300Y-123850400D02*
X114287300Y-123850400D01*
X102552500Y-126060200D02*
X104762300Y-123850400D01*
X99956620Y-128656080D02*
X102552500Y-126060200D01*
X78353920Y-128656080D02*
X99956620Y-128656080D01*
D31*
X99250500Y-116738400D02*
X97091500Y-118897400D01*
X123190000Y-118516400D02*
X121412000Y-116738400D01*
X121412000Y-116738400D02*
X99250500Y-116738400D01*
X128638300Y-118516400D02*
X123190000Y-118516400D01*
X132461000Y-122339100D02*
X128638300Y-118516400D01*
X132461000Y-126923800D02*
X132461000Y-122339100D01*
X133658800Y-128121600D02*
X132461000Y-126923800D01*
X133658800Y-129487300D02*
X133658800Y-128121600D01*
X94973140Y-121015760D02*
X97091500Y-118897400D01*
X78369160Y-121015760D02*
X94973140Y-121015760D01*
D32*
X104025700Y-125133100D02*
X104013000Y-125133100D01*
X104965500Y-124193300D02*
X104025700Y-125133100D01*
X118999000Y-129095500D02*
X114096800Y-124193300D01*
X125526800Y-129095500D02*
X118999000Y-129095500D01*
X127060000Y-127562300D02*
X125526800Y-129095500D01*
X114096800Y-124193300D02*
X104965500Y-124193300D01*
X128233800Y-127562300D02*
X127060000Y-127562300D01*
X98724720Y-130434080D02*
X104025700Y-125133100D01*
X85887560Y-130434080D02*
X98724720Y-130434080D01*
X85145880Y-131175760D02*
X85887560Y-130434080D01*
X78313280Y-131175760D02*
X85145880Y-131175760D01*
D29*
X137528300Y-105282900D02*
X137553700Y-105308300D01*
X137528300Y-103086500D02*
X137528300Y-105282900D01*
X140487400Y-105321000D02*
X140436600Y-105371800D01*
X140487400Y-103099200D02*
X140487400Y-105321000D01*
X140462000Y-105346400D02*
X140436600Y-105371800D01*
X140462000Y-103099200D02*
X140462000Y-105346400D01*
X74421900Y-85725000D02*
X72631900Y-85725000D01*
X65938400Y-76136500D02*
X65874900Y-76073000D01*
X65938400Y-78731000D02*
X65938400Y-76136500D01*
X71348600Y-70637400D02*
X67602100Y-74383900D01*
X75742800Y-70637400D02*
X71348600Y-70637400D01*
D31*
X130658800Y-118137300D02*
X130658800Y-117247600D01*
X130658800Y-117184100D02*
X130658800Y-118137300D01*
X129887980Y-116413280D02*
X130658800Y-117184100D01*
X122966480Y-116413280D02*
X129887980Y-116413280D01*
X129773680Y-116946680D02*
X130158800Y-117331800D01*
X123698000Y-116946680D02*
X129773680Y-116946680D01*
X130158800Y-117331800D02*
X130158800Y-118137300D01*
D32*
X128233800Y-125062300D02*
X129075500Y-125062300D01*
X129075500Y-125062300D02*
X129692390Y-125679190D01*
X129692390Y-125679190D02*
X129692390Y-127457210D01*
X129692390Y-127457210D02*
X128701800Y-128447800D01*
X128701800Y-128447800D02*
X126238000Y-130911600D01*
X126238000Y-130911600D02*
X125526800Y-131622800D01*
X125526800Y-131622800D02*
X111023400Y-131622800D01*
X111023400Y-131622800D02*
X109524800Y-131622800D01*
X109524800Y-131622800D02*
X96850200Y-144297400D01*
X80492600Y-144297400D02*
X77241400Y-144297400D01*
X96850200Y-144297400D02*
X80492600Y-144297400D01*
X80492600Y-144297400D02*
X80340200Y-144297400D01*
X77241400Y-144297400D02*
X74498200Y-141554200D01*
X71310500Y-141554200D02*
X70027800Y-142836900D01*
X74498200Y-141554200D02*
X71310500Y-141554200D01*
X129971800Y-125514100D02*
X129971800Y-127585644D01*
X129971800Y-127585644D02*
X128817534Y-128739910D01*
X129020000Y-124562300D02*
X129971800Y-125514100D01*
X128233800Y-124562300D02*
X129020000Y-124562300D01*
X128817534Y-128739910D02*
X128816090Y-128739910D01*
X128816090Y-128739910D02*
X125628400Y-131927600D01*
X125628400Y-131927600D02*
X111023400Y-131927600D01*
X111023400Y-131927600D02*
X109753400Y-131927600D01*
X109753400Y-131927600D02*
X97002600Y-144678400D01*
X97002600Y-144678400D02*
X80645000Y-144678400D01*
X80645000Y-144678400D02*
X76758800Y-144678400D01*
X80645000Y-144678400D02*
X80238600Y-144678400D01*
X74917300Y-142836900D02*
X72567800Y-142836900D01*
X76758800Y-144678400D02*
X74917300Y-142836900D01*
X74244200Y-144119600D02*
X71285100Y-144119600D01*
X97155000Y-145008600D02*
X75133200Y-145008600D01*
X75133200Y-145008600D02*
X74244200Y-144119600D01*
X125679200Y-132283200D02*
X109880400Y-132283200D01*
X109880400Y-132283200D02*
X97155000Y-145008600D01*
X130263900Y-127698500D02*
X125679200Y-132283200D01*
X130263900Y-125336300D02*
X130263900Y-127698500D01*
X71285100Y-144119600D02*
X70027800Y-145376900D01*
X128989900Y-124062300D02*
X130263900Y-125336300D01*
X128233800Y-124062300D02*
X128989900Y-124062300D01*
X72631300Y-145313400D02*
X72567800Y-145376900D01*
X97282000Y-145313400D02*
X72631300Y-145313400D01*
X125780800Y-132588000D02*
X110007400Y-132588000D01*
X130543309Y-127825491D02*
X125780800Y-132588000D01*
X110007400Y-132588000D02*
X97282000Y-145313400D01*
X130543309Y-125082309D02*
X130543309Y-127825491D01*
X129023300Y-123562300D02*
X130543309Y-125082309D01*
X128233800Y-123562300D02*
X129023300Y-123562300D01*
X111729200Y-147916900D02*
X72567800Y-147916900D01*
X130158800Y-129487300D02*
X130158800Y-130305500D01*
X128729900Y-131734400D02*
X127911700Y-131734400D01*
X130158800Y-130305500D02*
X128729900Y-131734400D01*
X127911700Y-131734400D02*
X111729200Y-147916900D01*
X128028900Y-132041700D02*
X128879400Y-132041700D01*
X111810800Y-148259800D02*
X128028900Y-132041700D01*
X75387200Y-148259800D02*
X111810800Y-148259800D01*
X130658800Y-130262300D02*
X130658800Y-129487300D01*
X74472800Y-149174200D02*
X75387200Y-148259800D01*
X71285100Y-149174200D02*
X74472800Y-149174200D01*
X128879400Y-132041700D02*
X130658800Y-130262300D01*
X70027800Y-147916900D02*
X71285100Y-149174200D01*
X131158800Y-130262300D02*
X131158800Y-129487300D01*
X111950500Y-148564600D02*
X128172600Y-132342500D01*
X75526900Y-148564600D02*
X111950500Y-148564600D01*
X129078600Y-132342500D02*
X131158800Y-130262300D01*
X128172600Y-132342500D02*
X129078600Y-132342500D01*
X73634600Y-150456900D02*
X75526900Y-148564600D01*
X72567800Y-150456900D02*
X73634600Y-150456900D01*
X130492500Y-131356100D02*
X130670300Y-131356100D01*
X129209800Y-132638800D02*
X130492500Y-131356100D01*
X131658800Y-130367600D02*
X131658800Y-129487300D01*
X130670300Y-131356100D02*
X131658800Y-130367600D01*
X128333500Y-132638800D02*
X129209800Y-132638800D01*
X75780900Y-148882100D02*
X112090200Y-148882100D01*
X72821800Y-151841200D02*
X75780900Y-148882100D01*
X112090200Y-148882100D02*
X128333500Y-132638800D01*
X71412100Y-151841200D02*
X72821800Y-151841200D01*
X70027800Y-150456900D02*
X71412100Y-151841200D01*
D28*
X128233800Y-120062300D02*
X126742500Y-120062300D01*
X114151100Y-120062300D02*
X114096800Y-120116600D01*
X126742500Y-120062300D02*
X114151100Y-120062300D01*
X112979200Y-121539000D02*
X111556800Y-120116600D01*
X114808000Y-121539000D02*
X112979200Y-121539000D01*
X126899600Y-120562300D02*
X115784700Y-120562300D01*
X128233800Y-120562300D02*
X126899600Y-120562300D01*
X115784700Y-120562300D02*
X114808000Y-121539000D01*
X126899600Y-120562300D02*
X126531300Y-120562300D01*
D32*
X183083200Y-147154900D02*
X183172100Y-147243800D01*
X167199838Y-131648200D02*
X171541069Y-135989431D01*
X171361100Y-135809462D02*
X171541069Y-135989431D01*
X183172100Y-147243800D02*
X183172100Y-145745200D01*
X182306331Y-144879431D02*
X180431069Y-144879431D01*
X183172100Y-145745200D02*
X182306331Y-144879431D01*
X171541069Y-135989431D02*
X180431069Y-144879431D01*
X183172100Y-143014700D02*
X183083200Y-142925800D01*
X183172100Y-147243800D02*
X183172100Y-143014700D01*
D31*
X140875700Y-122562300D02*
X141084300Y-122770900D01*
X139583800Y-122562300D02*
X140875700Y-122562300D01*
D32*
X136658800Y-129487300D02*
X136658800Y-130385000D01*
X139420600Y-131699000D02*
X150698200Y-142976600D01*
X136658800Y-130385000D02*
X137972800Y-131699000D01*
X137972800Y-131699000D02*
X139420600Y-131699000D01*
X165989600Y-145846800D02*
X165126000Y-144983200D01*
X170700700Y-145846800D02*
X165989600Y-145846800D01*
X163119400Y-142976600D02*
X160058100Y-142976600D01*
X165126000Y-144983200D02*
X163119400Y-142976600D01*
X160058100Y-142976600D02*
X160426400Y-142976600D01*
X150698200Y-142976600D02*
X160058100Y-142976600D01*
X173342300Y-145783300D02*
X172643800Y-146481800D01*
X173342300Y-144614900D02*
X173342300Y-145783300D01*
X172669200Y-143941800D02*
X173342300Y-144614900D01*
X171335700Y-143941800D02*
X172669200Y-143941800D01*
X170700700Y-143306800D02*
X171335700Y-143941800D01*
X137820400Y-132016500D02*
X136158800Y-130354900D01*
X139319000Y-132016500D02*
X137820400Y-132016500D01*
X136158800Y-130354900D02*
X136158800Y-129487300D01*
X165265700Y-146481800D02*
X165087900Y-146659600D01*
X167513000Y-146481800D02*
X165265700Y-146481800D01*
X172643800Y-146481800D02*
X167513000Y-146481800D01*
X167513000Y-146481800D02*
X167398700Y-146481800D01*
X165087900Y-146659600D02*
X164998400Y-146659600D01*
X164998400Y-146659600D02*
X164211000Y-145872200D01*
X164211000Y-145872200D02*
X163499800Y-145872200D01*
X163499800Y-145872200D02*
X160909000Y-143281400D01*
X152412700Y-143281400D02*
X150583900Y-143281400D01*
X160909000Y-143281400D02*
X152412700Y-143281400D01*
X150583900Y-143281400D02*
X139319000Y-132016500D01*
X171970700Y-141383018D02*
X171970700Y-142036800D01*
X170655981Y-140068299D02*
X171970700Y-141383018D01*
X165493701Y-140068299D02*
X170655981Y-140068299D01*
X163220400Y-142341600D02*
X165493701Y-140068299D01*
X150977600Y-142341600D02*
X163220400Y-142341600D01*
X139674600Y-131038600D02*
X150977600Y-142341600D01*
X138277600Y-131038600D02*
X139674600Y-131038600D01*
X137658800Y-130419800D02*
X138277600Y-131038600D01*
X137658800Y-129487300D02*
X137658800Y-130419800D01*
X167563799Y-145173701D02*
X171373799Y-145173701D01*
X165049198Y-142659100D02*
X167563799Y-145173701D01*
X171373799Y-145173701D02*
X171970700Y-144576800D01*
X150837900Y-142659100D02*
X165049198Y-142659100D01*
X139573000Y-131394200D02*
X150837900Y-142659100D01*
X138150600Y-131394200D02*
X139573000Y-131394200D01*
X137158800Y-130402400D02*
X138150600Y-131394200D01*
X137158800Y-129487300D02*
X137158800Y-130402400D01*
D28*
X172142151Y-146945349D02*
X180371749Y-146945349D01*
X180371749Y-146945349D02*
X180670200Y-147243800D01*
X171970700Y-147116800D02*
X172142151Y-146945349D01*
X66624200Y-99720400D02*
X66105800Y-99202000D01*
X66105800Y-99202000D02*
X64041400Y-99202000D01*
X67969800Y-99720400D02*
X66624200Y-99720400D01*
D32*
X81660400Y-52895500D02*
X81685800Y-52920900D01*
X81660400Y-51650900D02*
X81660400Y-52895500D01*
X81685800Y-53745800D02*
X81876900Y-53936900D01*
X81685800Y-52920900D02*
X81685800Y-53745800D01*
X111442500Y-100253800D02*
X111264700Y-100076000D01*
X111455200Y-100253800D02*
X111442500Y-100253800D01*
X111455200Y-100253800D02*
X111315500Y-100114100D01*
X83426300Y-51650900D02*
X84937600Y-53162200D01*
X82855400Y-51650900D02*
X83426300Y-51650900D01*
X86194899Y-172427901D02*
X85852000Y-172770800D01*
X86194899Y-165315899D02*
X86194899Y-172427901D01*
X86055200Y-165176200D02*
X86194899Y-165315899D01*
X87820500Y-177584100D02*
X86055200Y-175818800D01*
X87820500Y-184099200D02*
X87820500Y-177584100D01*
X122326400Y-110985300D02*
X111594900Y-100253800D01*
X125044200Y-110985300D02*
X122326400Y-110985300D01*
X126326900Y-112268000D02*
X125044200Y-110985300D01*
X111594900Y-100253800D02*
X111455200Y-100253800D01*
X128269400Y-112268000D02*
X126326900Y-112268000D01*
X128524000Y-112522600D02*
X128269400Y-112268000D01*
X133158800Y-116940900D02*
X133158800Y-118137300D01*
X128740500Y-112522600D02*
X133158800Y-116940900D01*
X128524000Y-112522600D02*
X128740500Y-112522600D01*
X84544500Y-166801200D02*
X84582000Y-166763700D01*
X84544500Y-168160700D02*
X84544500Y-166801200D01*
X85572600Y-166763700D02*
X84582000Y-166763700D01*
X84747700Y-178816000D02*
X84747700Y-177419000D01*
X85750400Y-177419000D02*
X84747700Y-177419000D01*
X133658800Y-118137300D02*
X133743700Y-118222200D01*
X112725200Y-100520500D02*
X112356900Y-100152200D01*
X112725200Y-100812600D02*
X112725200Y-100520500D01*
X122529600Y-110617000D02*
X112725200Y-100812600D01*
X129921000Y-112522000D02*
X129324100Y-111925100D01*
X129921000Y-112522600D02*
X129921000Y-112522000D01*
X129921000Y-112522600D02*
X129921000Y-112941100D01*
X129324100Y-111925100D02*
X128104900Y-111925100D01*
X128104900Y-111925100D02*
X127977900Y-111925100D01*
X125171200Y-110617000D02*
X122529600Y-110617000D01*
X133658800Y-116894800D02*
X133658800Y-118137300D01*
X129921000Y-113157000D02*
X133658800Y-116894800D01*
X129921000Y-112522600D02*
X129921000Y-113157000D01*
X83654900Y-52920900D02*
X82880800Y-52920900D01*
X84556600Y-53822600D02*
X83654900Y-52920900D01*
X85636104Y-53822600D02*
X84556600Y-53822600D01*
X85852000Y-53606704D02*
X85636104Y-53822600D01*
X86918800Y-171780200D02*
X86868000Y-171831000D01*
X86918800Y-165074600D02*
X86918800Y-171780200D01*
X88290400Y-177419000D02*
X86922116Y-176050716D01*
X88290400Y-182029100D02*
X88290400Y-177419000D01*
X86922116Y-176050716D02*
X86922116Y-175811796D01*
X90360500Y-184099200D02*
X88290400Y-182029100D01*
X126504700Y-111925100D02*
X128104900Y-111925100D01*
X125196600Y-110617000D02*
X126504700Y-111925100D01*
X125171200Y-110617000D02*
X125196600Y-110617000D01*
D31*
X168820500Y-119951500D02*
X168845900Y-119926100D01*
X145034000Y-119951500D02*
X168820500Y-119951500D01*
X140923200Y-124062300D02*
X145034000Y-119951500D01*
X139583800Y-124062300D02*
X140923200Y-124062300D01*
D32*
X69202300Y-96647600D02*
X69202900Y-96647000D01*
D28*
X69215600Y-96659700D02*
X69202900Y-96647000D01*
X70281800Y-96659700D02*
X70015100Y-96659700D01*
X70015100Y-96659700D02*
X69215600Y-96659700D01*
X138842300Y-126562300D02*
X139583800Y-126562300D01*
X138569700Y-126834900D02*
X138842300Y-126562300D01*
X137731500Y-126834900D02*
X138569700Y-126834900D01*
X148348700Y-110642400D02*
X143808450Y-115182650D01*
X148348700Y-102323900D02*
X148348700Y-110642400D01*
X143808450Y-115182650D02*
X143808450Y-115563650D01*
X143332200Y-97307400D02*
X148348700Y-102323900D01*
X71831200Y-97307400D02*
X143332200Y-97307400D01*
X143808450Y-115563650D02*
X143586200Y-115785900D01*
X71183500Y-96659700D02*
X71831200Y-97307400D01*
X70015100Y-96659700D02*
X71183500Y-96659700D01*
X138631100Y-126062300D02*
X139583800Y-126062300D01*
X138506200Y-126187200D02*
X138631100Y-126062300D01*
X136118600Y-126187200D02*
X138506200Y-126187200D01*
X135204200Y-125272800D02*
X136118600Y-126187200D01*
X88696800Y-99161600D02*
X71234300Y-99161600D01*
X89763600Y-100228400D02*
X88696800Y-99161600D01*
X91071700Y-100228400D02*
X89763600Y-100228400D01*
X92125800Y-99174300D02*
X91071700Y-100228400D01*
X146519900Y-103212900D02*
X142481300Y-99174300D01*
X146519900Y-109435900D02*
X146519900Y-103212900D01*
X142481300Y-99174300D02*
X92125800Y-99174300D01*
X145770600Y-110185200D02*
X146519900Y-109435900D01*
X70675500Y-99720400D02*
X70853300Y-99542600D01*
X69164800Y-99720400D02*
X70675500Y-99720400D01*
X71234300Y-99161600D02*
X70853300Y-99542600D01*
D31*
X139583800Y-127062300D02*
X141330290Y-127062300D01*
X141330290Y-127062300D02*
X141427200Y-127159210D01*
D28*
X139555800Y-122034300D02*
X139583800Y-122062300D01*
D31*
X139583800Y-122062300D02*
X140599100Y-122062300D01*
X141691300Y-122062300D02*
X141795500Y-121958100D01*
X139583800Y-122062300D02*
X141691300Y-122062300D01*
D28*
X139583800Y-120062300D02*
X140071800Y-120062300D01*
D31*
X139583800Y-120062300D02*
X141608500Y-120062300D01*
X152869900Y-113030000D02*
X151409400Y-113030000D01*
X149574250Y-114865150D02*
X146805650Y-114865150D01*
X151409400Y-113030000D02*
X149574250Y-114865150D01*
X141608500Y-120062300D02*
X146805650Y-114865150D01*
X167538400Y-115741700D02*
X167138600Y-116141500D01*
X167538400Y-113127600D02*
X167538400Y-115741700D01*
X141067600Y-123562300D02*
X139583800Y-123562300D01*
X144948158Y-119681742D02*
X141067600Y-123562300D01*
X165877758Y-119681742D02*
X144948158Y-119681742D01*
X167138600Y-118420900D02*
X165877758Y-119681742D01*
X167138600Y-116141500D02*
X167138600Y-118420900D01*
X171094400Y-118872600D02*
X170040900Y-119926100D01*
X170738800Y-115741700D02*
X171138600Y-116141500D01*
X170738800Y-113127600D02*
X170738800Y-115741700D01*
X171138600Y-118828400D02*
X170040900Y-119926100D01*
X171138600Y-116141500D02*
X171138600Y-118828400D01*
D29*
X149360000Y-115997100D02*
X149352000Y-115989100D01*
D28*
X149225000Y-116624100D02*
X149360000Y-116759100D01*
D29*
X149360000Y-117132100D02*
X149360000Y-116759100D01*
D31*
X145925026Y-116606700D02*
X149360000Y-116606700D01*
X141469426Y-121062300D02*
X145925026Y-116606700D01*
X139583800Y-121062300D02*
X141469426Y-121062300D01*
D29*
X149360000Y-116606700D02*
X149360000Y-115997100D01*
X149360000Y-116759100D02*
X149360000Y-116606700D01*
D31*
X151225700Y-115267100D02*
X150503700Y-115989100D01*
X152908000Y-115267100D02*
X151225700Y-115267100D01*
X150503700Y-115947000D02*
X149885400Y-115328700D01*
X150503700Y-115989100D02*
X150503700Y-115947000D01*
X149885400Y-115328700D02*
X148513800Y-115328700D01*
X141603800Y-120562300D02*
X139583800Y-120562300D01*
X145803758Y-116362342D02*
X141603800Y-120562300D01*
X147480158Y-116362342D02*
X145803758Y-116362342D01*
X148513800Y-115328700D02*
X147480158Y-116362342D01*
D28*
X150495000Y-117132100D02*
X150495000Y-117259100D01*
D31*
X151138700Y-117767100D02*
X150503700Y-117132100D01*
X152908000Y-117767100D02*
X151138700Y-117767100D01*
X150503700Y-117132100D02*
X150503700Y-117275800D01*
X141315000Y-121562300D02*
X139583800Y-121562300D01*
X146024600Y-116852700D02*
X141315000Y-121562300D01*
X147574000Y-116852700D02*
X146024600Y-116852700D01*
X148513800Y-117792500D02*
X147574000Y-116852700D01*
X149843300Y-117792500D02*
X148513800Y-117792500D01*
X150503700Y-117132100D02*
X149843300Y-117792500D01*
D32*
X137847900Y-107177500D02*
X137553700Y-106883300D01*
X137847900Y-107190200D02*
X137541000Y-106883300D01*
X137847900Y-107808200D02*
X137847900Y-107190200D01*
X137847900Y-107808200D02*
X137847900Y-107177500D01*
X137847900Y-109014700D02*
X137847900Y-107808200D01*
X136804400Y-110058200D02*
X137847900Y-109014700D01*
X136804400Y-116357400D02*
X136804400Y-110058200D01*
X136158800Y-117003000D02*
X136804400Y-116357400D01*
X136158800Y-118137300D02*
X136158800Y-117003000D01*
X140411100Y-106946800D02*
X140436600Y-106946800D01*
X137158800Y-114489300D02*
X137158800Y-110224600D01*
X137158800Y-118137300D02*
X137158800Y-114489300D01*
X137158800Y-110224600D02*
X140436600Y-106946800D01*
X142011400Y-142176500D02*
X142036800Y-142151100D01*
X136169400Y-142176500D02*
X142011400Y-142176500D01*
X132658800Y-138665900D02*
X136169400Y-142176500D01*
X132658800Y-129487300D02*
X132658800Y-138665900D01*
D31*
X93258640Y-107401360D02*
X92527120Y-107401360D01*
X99964240Y-114106960D02*
X93258640Y-107401360D01*
X129702560Y-114106960D02*
X99964240Y-114106960D01*
X132658800Y-117063200D02*
X129702560Y-114106960D01*
X132658800Y-118137300D02*
X132658800Y-117063200D01*
X90200480Y-108021120D02*
X89692480Y-107513120D01*
X93497400Y-108021120D02*
X90200480Y-108021120D01*
X99857560Y-114381280D02*
X93497400Y-108021120D01*
X129570480Y-114381280D02*
X99857560Y-114381280D01*
X132158800Y-116969600D02*
X129570480Y-114381280D01*
X132158800Y-118137300D02*
X132158800Y-116969600D01*
X129504440Y-114670840D02*
X131658800Y-116825200D01*
X131658800Y-116825200D02*
X131658800Y-118137300D01*
X101046280Y-114670840D02*
X101122480Y-114670840D01*
X101122480Y-114670840D02*
X129504440Y-114670840D01*
X101122480Y-114670840D02*
X99761040Y-114670840D01*
X99761040Y-114670840D02*
X93370400Y-108280200D01*
X88676480Y-108280200D02*
X88087200Y-108869480D01*
X93370400Y-108280200D02*
X88676480Y-108280200D01*
X129722060Y-121062300D02*
X129778760Y-121005600D01*
X128233800Y-121062300D02*
X129722060Y-121062300D01*
X93670120Y-108981240D02*
X90901520Y-108981240D01*
X128203960Y-115305840D02*
X127853440Y-114955320D01*
X99644200Y-114955320D02*
X99532440Y-114843560D01*
X100873560Y-114955320D02*
X99644200Y-114955320D01*
X127853440Y-114955320D02*
X100873560Y-114955320D01*
X99532440Y-114843560D02*
X93670120Y-108981240D01*
X100873560Y-114955320D02*
X99684840Y-114955320D01*
X111125000Y-126034800D02*
X105956100Y-131203700D01*
X105956100Y-131203700D02*
X105930700Y-131229100D01*
X92989400Y-131229100D02*
X92837000Y-131076700D01*
X105930700Y-131229100D02*
X92989400Y-131229100D01*
X122555000Y-121361200D02*
X122161300Y-121754900D01*
X126123700Y-121361200D02*
X122555000Y-121361200D01*
X126324800Y-121562300D02*
X126123700Y-121361200D01*
X128233800Y-121562300D02*
X126324800Y-121562300D01*
X139583800Y-127562300D02*
X136414200Y-127562300D01*
X135153400Y-126301500D02*
X134035800Y-126301500D01*
X136414200Y-127562300D02*
X135153400Y-126301500D01*
X111988600Y-125920500D02*
X106146600Y-131762500D01*
X90474800Y-131762500D02*
X89954100Y-131241800D01*
X106146600Y-131762500D02*
X90474800Y-131762500D01*
X135658800Y-129487300D02*
X135658800Y-128666300D01*
X135658800Y-128666300D02*
X136105900Y-128219200D01*
X136105900Y-128219200D02*
X136105900Y-127901700D01*
X136105900Y-127901700D02*
X135559800Y-127355600D01*
X133807200Y-127355600D02*
X133743700Y-127292100D01*
X135559800Y-127355600D02*
X133807200Y-127355600D01*
X112890300Y-125844300D02*
X106387900Y-132346700D01*
X106387900Y-132346700D02*
X92329000Y-132346700D01*
X92329000Y-132346700D02*
X92075000Y-132092700D01*
X89230200Y-132092700D02*
X88734900Y-132588000D01*
X92075000Y-132092700D02*
X89230200Y-132092700D01*
X133158800Y-128497900D02*
X132930900Y-128270000D01*
X133158800Y-129487300D02*
X133158800Y-128497900D01*
X106794300Y-132778500D02*
X91795600Y-132778500D01*
X113766600Y-125806200D02*
X106794300Y-132778500D01*
X129815020Y-123062300D02*
X129819400Y-123057920D01*
X128233800Y-123062300D02*
X129815020Y-123062300D01*
X126100840Y-115280440D02*
X126390400Y-115570000D01*
X87741760Y-109524800D02*
X93781880Y-109524800D01*
X99537520Y-115280440D02*
X126100840Y-115280440D01*
X93781880Y-109524800D02*
X99537520Y-115280440D01*
X86603840Y-108869480D02*
X87086440Y-108869480D01*
X87086440Y-108869480D02*
X87741760Y-109524800D01*
D32*
X138061700Y-116700300D02*
X138061700Y-114871500D01*
X138785600Y-114147600D02*
X138785600Y-112001300D01*
X138061700Y-114871500D02*
X138785600Y-114147600D01*
X137658800Y-117154000D02*
X137658800Y-118137300D01*
X138061700Y-116751100D02*
X137658800Y-117154000D01*
X138061700Y-116700300D02*
X138061700Y-116751100D01*
D31*
X65862400Y-98361500D02*
X66065400Y-98564500D01*
X65049400Y-98361500D02*
X65862400Y-98361500D01*
X64858900Y-98552000D02*
X65049400Y-98361500D01*
X64041400Y-98552000D02*
X64858900Y-98552000D01*
D33*
X147104300Y-110137408D02*
X135267900Y-121973808D01*
X66065400Y-98564500D02*
X142763708Y-98564500D01*
X142763708Y-98564500D02*
X147104300Y-102905092D01*
X147104300Y-102905092D02*
X147104300Y-110137408D01*
X135267900Y-121973808D02*
X135267900Y-124355392D01*
X135267900Y-124355392D02*
X136553408Y-125640900D01*
X136553408Y-125640900D02*
X137668000Y-125640900D01*
D31*
X139583800Y-125562300D02*
X138508800Y-125562300D01*
D33*
X137668000Y-125640900D02*
X138188700Y-125640900D01*
D32*
X138267300Y-125562300D02*
X138188700Y-125640900D01*
X139583800Y-125562300D02*
X138267300Y-125562300D01*
D31*
X65862400Y-98107500D02*
X66065400Y-97904500D01*
X65049400Y-98107500D02*
X65862400Y-98107500D01*
X64843900Y-97902000D02*
X65049400Y-98107500D01*
X64041400Y-97902000D02*
X64843900Y-97902000D01*
D33*
X136826792Y-124980900D02*
X137668000Y-124980900D01*
X147764300Y-110410792D02*
X135927900Y-122247192D01*
X135927900Y-122247192D02*
X135927900Y-124082008D01*
X66065400Y-97904500D02*
X143037092Y-97904500D01*
X143037092Y-97904500D02*
X147764300Y-102631708D01*
X147764300Y-102631708D02*
X147764300Y-110410792D01*
X135927900Y-124082008D02*
X136826792Y-124980900D01*
D31*
X139583800Y-125062300D02*
X138537000Y-125062300D01*
D33*
X137668000Y-124980900D02*
X138188700Y-124980900D01*
D32*
X138270100Y-125062300D02*
X138188700Y-124980900D01*
X139583800Y-125062300D02*
X138270100Y-125062300D01*
D28*
X68402200Y-85479075D02*
X68375437Y-85429006D01*
X68296085Y-85332315D01*
X68199394Y-85252963D01*
X68089080Y-85193998D01*
X67969382Y-85157688D01*
X67844900Y-85145428D01*
X67600650Y-85148500D01*
X67441900Y-85307250D01*
X67441900Y-85981500D01*
X67461900Y-85981500D01*
X67461900Y-86095428D01*
X66784900Y-86095428D01*
X66660418Y-86107688D01*
X66540720Y-86143998D01*
X66430406Y-86202963D01*
X66390759Y-86235500D01*
X66308650Y-86235500D01*
X66149900Y-86394250D01*
X66146828Y-86433500D01*
X66159088Y-86557982D01*
X66166829Y-86583500D01*
X66159088Y-86609018D01*
X66146828Y-86733500D01*
X66146828Y-87383500D01*
X66159088Y-87507982D01*
X66166829Y-87533500D01*
X66159088Y-87559018D01*
X66146828Y-87683500D01*
X66149900Y-87722750D01*
X66308650Y-87881500D01*
X66390759Y-87881500D01*
X66430406Y-87914037D01*
X66540720Y-87973002D01*
X66660418Y-88009312D01*
X66784900Y-88021572D01*
X67461900Y-88021572D01*
X67461900Y-88135500D01*
X67441900Y-88135500D01*
X67441900Y-88809750D01*
X67600650Y-88968500D01*
X67844900Y-88971572D01*
X67969382Y-88959312D01*
X68089080Y-88923002D01*
X68199394Y-88864037D01*
X68296085Y-88784685D01*
X68375437Y-88687994D01*
X68402200Y-88637925D01*
X68402200Y-90805000D01*
X68351400Y-90805000D01*
X68326624Y-90807440D01*
X68302799Y-90814667D01*
X68280843Y-90826403D01*
X68261597Y-90842197D01*
X68245803Y-90861443D01*
X68234067Y-90883399D01*
X68226840Y-90907224D01*
X68224400Y-90932000D01*
X68224400Y-90937750D01*
X68200182Y-90961968D01*
X68131906Y-90998463D01*
X68038400Y-91075201D01*
X68038400Y-91002750D01*
X67879650Y-90844000D01*
X67767788Y-90857299D01*
X67649260Y-90897263D01*
X67540806Y-90959581D01*
X67446593Y-91041861D01*
X67370243Y-91140940D01*
X67314689Y-91253010D01*
X67282066Y-91373765D01*
X67276400Y-91447250D01*
X67435150Y-91606000D01*
X67547038Y-91606000D01*
X67540806Y-91609581D01*
X67446593Y-91691861D01*
X67370243Y-91790940D01*
X67344718Y-91842432D01*
X67276400Y-91910750D01*
X67282066Y-91984235D01*
X67287406Y-92004000D01*
X67282066Y-92023765D01*
X67276400Y-92097250D01*
X67344718Y-92165568D01*
X67370243Y-92217060D01*
X67446593Y-92316139D01*
X67461319Y-92329000D01*
X67446593Y-92341861D01*
X67370243Y-92440940D01*
X67344718Y-92492432D01*
X67276400Y-92560750D01*
X67282066Y-92634235D01*
X67287406Y-92654000D01*
X67282066Y-92673765D01*
X67276400Y-92747250D01*
X67344718Y-92815568D01*
X67370243Y-92867060D01*
X67446593Y-92966139D01*
X67540806Y-93048419D01*
X67547038Y-93052000D01*
X67435150Y-93052000D01*
X67276400Y-93210750D01*
X67282066Y-93284235D01*
X67314689Y-93404990D01*
X67370243Y-93517060D01*
X67446593Y-93616139D01*
X67540806Y-93698419D01*
X67649260Y-93760737D01*
X67767788Y-93800701D01*
X67879650Y-93814000D01*
X68038400Y-93655250D01*
X68038400Y-93582799D01*
X68131906Y-93659537D01*
X68200182Y-93696032D01*
X68224400Y-93720250D01*
X68224400Y-95761250D01*
X68134900Y-95850750D01*
X68134900Y-96520000D01*
X68154900Y-96520000D01*
X68154900Y-96774000D01*
X68134900Y-96774000D01*
X68134900Y-96794000D01*
X67880900Y-96794000D01*
X67880900Y-96774000D01*
X67174150Y-96774000D01*
X67015400Y-96932750D01*
X67012328Y-96967000D01*
X67024393Y-97089500D01*
X66025367Y-97089500D01*
X65905632Y-97101293D01*
X65752004Y-97147895D01*
X65619913Y-97218500D01*
X65351400Y-97218500D01*
X65351400Y-97124998D01*
X65312125Y-97124998D01*
X65435571Y-96974579D01*
X65543285Y-96773060D01*
X65609615Y-96554400D01*
X65632012Y-96327000D01*
X67012328Y-96327000D01*
X67015400Y-96361250D01*
X67174150Y-96520000D01*
X67880900Y-96520000D01*
X67880900Y-95850750D01*
X67722150Y-95692000D01*
X67650400Y-95688928D01*
X67525918Y-95701188D01*
X67406220Y-95737498D01*
X67295906Y-95796463D01*
X67199215Y-95875815D01*
X67119863Y-95972506D01*
X67060898Y-96082820D01*
X67024588Y-96202518D01*
X67012328Y-96327000D01*
X65632012Y-96327000D01*
X65609615Y-96099600D01*
X65543285Y-95880940D01*
X65435571Y-95679421D01*
X65290612Y-95502788D01*
X65113979Y-95357829D01*
X64912460Y-95250115D01*
X64693800Y-95183785D01*
X64523379Y-95167000D01*
X64209421Y-95167000D01*
X64039000Y-95183785D01*
X63820340Y-95250115D01*
X63618821Y-95357829D01*
X63442188Y-95502788D01*
X63297229Y-95679421D01*
X63189515Y-95880940D01*
X63123185Y-96099600D01*
X63100788Y-96327000D01*
X63114620Y-96467439D01*
X63020436Y-96515861D01*
X62986623Y-96542717D01*
X62890400Y-96523577D01*
X62890400Y-95525182D01*
X62905902Y-95496180D01*
X62942212Y-95376482D01*
X62954472Y-95252000D01*
X62954472Y-94401561D01*
X62956891Y-94377000D01*
X62934977Y-94154501D01*
X62890400Y-94007552D01*
X62890400Y-88333500D01*
X66146828Y-88333500D01*
X66159088Y-88457982D01*
X66195398Y-88577680D01*
X66254363Y-88687994D01*
X66333715Y-88784685D01*
X66430406Y-88864037D01*
X66540720Y-88923002D01*
X66660418Y-88959312D01*
X66784900Y-88971572D01*
X67029150Y-88968500D01*
X67187900Y-88809750D01*
X67187900Y-88135500D01*
X66308650Y-88135500D01*
X66149900Y-88294250D01*
X66146828Y-88333500D01*
X62890400Y-88333500D01*
X62890400Y-85783500D01*
X66146828Y-85783500D01*
X66149900Y-85822750D01*
X66308650Y-85981500D01*
X67187900Y-85981500D01*
X67187900Y-85307250D01*
X67029150Y-85148500D01*
X66784900Y-85145428D01*
X66660418Y-85157688D01*
X66540720Y-85193998D01*
X66430406Y-85252963D01*
X66333715Y-85332315D01*
X66254363Y-85429006D01*
X66195398Y-85539320D01*
X66159088Y-85659018D01*
X66146828Y-85783500D01*
X62890400Y-85783500D01*
X62890400Y-84582000D01*
X68402200Y-84582000D01*
X68402200Y-85479075D01*
G04 #@! TA.AperFunction,Conductor*
D34*
G36*
X68402200Y-85479075D02*
G01*
X68375437Y-85429006D01*
X68296085Y-85332315D01*
X68199394Y-85252963D01*
X68089080Y-85193998D01*
X67969382Y-85157688D01*
X67844900Y-85145428D01*
X67600650Y-85148500D01*
X67441900Y-85307250D01*
X67441900Y-85981500D01*
X67461900Y-85981500D01*
X67461900Y-86095428D01*
X66784900Y-86095428D01*
X66660418Y-86107688D01*
X66540720Y-86143998D01*
X66430406Y-86202963D01*
X66390759Y-86235500D01*
X66308650Y-86235500D01*
X66149900Y-86394250D01*
X66146828Y-86433500D01*
X66159088Y-86557982D01*
X66166829Y-86583500D01*
X66159088Y-86609018D01*
X66146828Y-86733500D01*
X66146828Y-87383500D01*
X66159088Y-87507982D01*
X66166829Y-87533500D01*
X66159088Y-87559018D01*
X66146828Y-87683500D01*
X66149900Y-87722750D01*
X66308650Y-87881500D01*
X66390759Y-87881500D01*
X66430406Y-87914037D01*
X66540720Y-87973002D01*
X66660418Y-88009312D01*
X66784900Y-88021572D01*
X67461900Y-88021572D01*
X67461900Y-88135500D01*
X67441900Y-88135500D01*
X67441900Y-88809750D01*
X67600650Y-88968500D01*
X67844900Y-88971572D01*
X67969382Y-88959312D01*
X68089080Y-88923002D01*
X68199394Y-88864037D01*
X68296085Y-88784685D01*
X68375437Y-88687994D01*
X68402200Y-88637925D01*
X68402200Y-90805000D01*
X68351400Y-90805000D01*
X68326624Y-90807440D01*
X68302799Y-90814667D01*
X68280843Y-90826403D01*
X68261597Y-90842197D01*
X68245803Y-90861443D01*
X68234067Y-90883399D01*
X68226840Y-90907224D01*
X68224400Y-90932000D01*
X68224400Y-90937750D01*
X68200182Y-90961968D01*
X68131906Y-90998463D01*
X68038400Y-91075201D01*
X68038400Y-91002750D01*
X67879650Y-90844000D01*
X67767788Y-90857299D01*
X67649260Y-90897263D01*
X67540806Y-90959581D01*
X67446593Y-91041861D01*
X67370243Y-91140940D01*
X67314689Y-91253010D01*
X67282066Y-91373765D01*
X67276400Y-91447250D01*
X67435150Y-91606000D01*
X67547038Y-91606000D01*
X67540806Y-91609581D01*
X67446593Y-91691861D01*
X67370243Y-91790940D01*
X67344718Y-91842432D01*
X67276400Y-91910750D01*
X67282066Y-91984235D01*
X67287406Y-92004000D01*
X67282066Y-92023765D01*
X67276400Y-92097250D01*
X67344718Y-92165568D01*
X67370243Y-92217060D01*
X67446593Y-92316139D01*
X67461319Y-92329000D01*
X67446593Y-92341861D01*
X67370243Y-92440940D01*
X67344718Y-92492432D01*
X67276400Y-92560750D01*
X67282066Y-92634235D01*
X67287406Y-92654000D01*
X67282066Y-92673765D01*
X67276400Y-92747250D01*
X67344718Y-92815568D01*
X67370243Y-92867060D01*
X67446593Y-92966139D01*
X67540806Y-93048419D01*
X67547038Y-93052000D01*
X67435150Y-93052000D01*
X67276400Y-93210750D01*
X67282066Y-93284235D01*
X67314689Y-93404990D01*
X67370243Y-93517060D01*
X67446593Y-93616139D01*
X67540806Y-93698419D01*
X67649260Y-93760737D01*
X67767788Y-93800701D01*
X67879650Y-93814000D01*
X68038400Y-93655250D01*
X68038400Y-93582799D01*
X68131906Y-93659537D01*
X68200182Y-93696032D01*
X68224400Y-93720250D01*
X68224400Y-95761250D01*
X68134900Y-95850750D01*
X68134900Y-96520000D01*
X68154900Y-96520000D01*
X68154900Y-96774000D01*
X68134900Y-96774000D01*
X68134900Y-96794000D01*
X67880900Y-96794000D01*
X67880900Y-96774000D01*
X67174150Y-96774000D01*
X67015400Y-96932750D01*
X67012328Y-96967000D01*
X67024393Y-97089500D01*
X66025367Y-97089500D01*
X65905632Y-97101293D01*
X65752004Y-97147895D01*
X65619913Y-97218500D01*
X65351400Y-97218500D01*
X65351400Y-97124998D01*
X65312125Y-97124998D01*
X65435571Y-96974579D01*
X65543285Y-96773060D01*
X65609615Y-96554400D01*
X65632012Y-96327000D01*
X67012328Y-96327000D01*
X67015400Y-96361250D01*
X67174150Y-96520000D01*
X67880900Y-96520000D01*
X67880900Y-95850750D01*
X67722150Y-95692000D01*
X67650400Y-95688928D01*
X67525918Y-95701188D01*
X67406220Y-95737498D01*
X67295906Y-95796463D01*
X67199215Y-95875815D01*
X67119863Y-95972506D01*
X67060898Y-96082820D01*
X67024588Y-96202518D01*
X67012328Y-96327000D01*
X65632012Y-96327000D01*
X65609615Y-96099600D01*
X65543285Y-95880940D01*
X65435571Y-95679421D01*
X65290612Y-95502788D01*
X65113979Y-95357829D01*
X64912460Y-95250115D01*
X64693800Y-95183785D01*
X64523379Y-95167000D01*
X64209421Y-95167000D01*
X64039000Y-95183785D01*
X63820340Y-95250115D01*
X63618821Y-95357829D01*
X63442188Y-95502788D01*
X63297229Y-95679421D01*
X63189515Y-95880940D01*
X63123185Y-96099600D01*
X63100788Y-96327000D01*
X63114620Y-96467439D01*
X63020436Y-96515861D01*
X62986623Y-96542717D01*
X62890400Y-96523577D01*
X62890400Y-95525182D01*
X62905902Y-95496180D01*
X62942212Y-95376482D01*
X62954472Y-95252000D01*
X62954472Y-94401561D01*
X62956891Y-94377000D01*
X62934977Y-94154501D01*
X62890400Y-94007552D01*
X62890400Y-88333500D01*
X66146828Y-88333500D01*
X66159088Y-88457982D01*
X66195398Y-88577680D01*
X66254363Y-88687994D01*
X66333715Y-88784685D01*
X66430406Y-88864037D01*
X66540720Y-88923002D01*
X66660418Y-88959312D01*
X66784900Y-88971572D01*
X67029150Y-88968500D01*
X67187900Y-88809750D01*
X67187900Y-88135500D01*
X66308650Y-88135500D01*
X66149900Y-88294250D01*
X66146828Y-88333500D01*
X62890400Y-88333500D01*
X62890400Y-85783500D01*
X66146828Y-85783500D01*
X66149900Y-85822750D01*
X66308650Y-85981500D01*
X67187900Y-85981500D01*
X67187900Y-85307250D01*
X67029150Y-85148500D01*
X66784900Y-85145428D01*
X66660418Y-85157688D01*
X66540720Y-85193998D01*
X66430406Y-85252963D01*
X66333715Y-85332315D01*
X66254363Y-85429006D01*
X66195398Y-85539320D01*
X66159088Y-85659018D01*
X66146828Y-85783500D01*
X62890400Y-85783500D01*
X62890400Y-84582000D01*
X68402200Y-84582000D01*
X68402200Y-85479075D01*
G37*
G04 #@! TD.AperFunction*
D28*
X71780400Y-89535000D02*
X69240400Y-89535000D01*
X69240400Y-88957250D01*
X69387900Y-88809750D01*
X69387900Y-88135500D01*
X69641900Y-88135500D01*
X69641900Y-88809750D01*
X69800650Y-88968500D01*
X70044900Y-88971572D01*
X70169382Y-88959312D01*
X70289080Y-88923002D01*
X70399394Y-88864037D01*
X70496085Y-88784685D01*
X70575437Y-88687994D01*
X70634402Y-88577680D01*
X70670712Y-88457982D01*
X70682972Y-88333500D01*
X70679900Y-88294250D01*
X70521150Y-88135500D01*
X69641900Y-88135500D01*
X69387900Y-88135500D01*
X69367900Y-88135500D01*
X69367900Y-87881500D01*
X69387900Y-87881500D01*
X69387900Y-87861500D01*
X69641900Y-87861500D01*
X69641900Y-87881500D01*
X70521150Y-87881500D01*
X70679900Y-87722750D01*
X70682972Y-87683500D01*
X70670712Y-87559018D01*
X70634402Y-87439320D01*
X70575437Y-87329006D01*
X70496085Y-87232315D01*
X70399394Y-87152963D01*
X70341467Y-87122000D01*
X71780400Y-87122000D01*
X71780400Y-89535000D01*
G04 #@! TA.AperFunction,Conductor*
D34*
G36*
X71780400Y-89535000D02*
G01*
X69240400Y-89535000D01*
X69240400Y-88957250D01*
X69387900Y-88809750D01*
X69387900Y-88135500D01*
X69641900Y-88135500D01*
X69641900Y-88809750D01*
X69800650Y-88968500D01*
X70044900Y-88971572D01*
X70169382Y-88959312D01*
X70289080Y-88923002D01*
X70399394Y-88864037D01*
X70496085Y-88784685D01*
X70575437Y-88687994D01*
X70634402Y-88577680D01*
X70670712Y-88457982D01*
X70682972Y-88333500D01*
X70679900Y-88294250D01*
X70521150Y-88135500D01*
X69641900Y-88135500D01*
X69387900Y-88135500D01*
X69367900Y-88135500D01*
X69367900Y-87881500D01*
X69387900Y-87881500D01*
X69387900Y-87861500D01*
X69641900Y-87861500D01*
X69641900Y-87881500D01*
X70521150Y-87881500D01*
X70679900Y-87722750D01*
X70682972Y-87683500D01*
X70670712Y-87559018D01*
X70634402Y-87439320D01*
X70575437Y-87329006D01*
X70496085Y-87232315D01*
X70399394Y-87152963D01*
X70341467Y-87122000D01*
X71780400Y-87122000D01*
X71780400Y-89535000D01*
G37*
G04 #@! TD.AperFunction*
D28*
X68745100Y-79590900D02*
X67206136Y-79590900D01*
X67227902Y-79550180D01*
X67264212Y-79430482D01*
X67276472Y-79306000D01*
X67273400Y-79016750D01*
X67114650Y-78858000D01*
X66065400Y-78858000D01*
X66065400Y-78878000D01*
X65811400Y-78878000D01*
X65811400Y-78858000D01*
X64762150Y-78858000D01*
X64603400Y-79016750D01*
X64600328Y-79306000D01*
X64612588Y-79430482D01*
X64648898Y-79550180D01*
X64670664Y-79590900D01*
X64427100Y-79590900D01*
X64427100Y-78156000D01*
X64600328Y-78156000D01*
X64603400Y-78445250D01*
X64762150Y-78604000D01*
X65811400Y-78604000D01*
X65811400Y-77679750D01*
X66065400Y-77679750D01*
X66065400Y-78604000D01*
X67114650Y-78604000D01*
X67273400Y-78445250D01*
X67276472Y-78156000D01*
X67264212Y-78031518D01*
X67227902Y-77911820D01*
X67168937Y-77801506D01*
X67089585Y-77704815D01*
X66992894Y-77625463D01*
X66882580Y-77566498D01*
X66762882Y-77530188D01*
X66638400Y-77517928D01*
X66224150Y-77521000D01*
X66065400Y-77679750D01*
X65811400Y-77679750D01*
X65652650Y-77521000D01*
X65238400Y-77517928D01*
X65113918Y-77530188D01*
X64994220Y-77566498D01*
X64883906Y-77625463D01*
X64787215Y-77704815D01*
X64707863Y-77801506D01*
X64648898Y-77911820D01*
X64612588Y-78031518D01*
X64600328Y-78156000D01*
X64427100Y-78156000D01*
X64427100Y-77029993D01*
X65097512Y-77029993D01*
X65163037Y-77268860D01*
X65410016Y-77384760D01*
X65674860Y-77450250D01*
X65947392Y-77462812D01*
X66217138Y-77421965D01*
X66473732Y-77329277D01*
X66586763Y-77268860D01*
X66652288Y-77029993D01*
X65874900Y-76252605D01*
X65097512Y-77029993D01*
X64427100Y-77029993D01*
X64427100Y-76145492D01*
X64485088Y-76145492D01*
X64525935Y-76415238D01*
X64618623Y-76671832D01*
X64679040Y-76784863D01*
X64917907Y-76850388D01*
X65695295Y-76073000D01*
X66054505Y-76073000D01*
X66831893Y-76850388D01*
X67070760Y-76784863D01*
X67186660Y-76537884D01*
X67252150Y-76273040D01*
X67264712Y-76000508D01*
X67223865Y-75730762D01*
X67131177Y-75474168D01*
X67070760Y-75361137D01*
X66831893Y-75295612D01*
X66054505Y-76073000D01*
X65695295Y-76073000D01*
X64917907Y-75295612D01*
X64679040Y-75361137D01*
X64563140Y-75608116D01*
X64497650Y-75872960D01*
X64485088Y-76145492D01*
X64427100Y-76145492D01*
X64427100Y-75116007D01*
X65097512Y-75116007D01*
X65874900Y-75893395D01*
X66652288Y-75116007D01*
X66586763Y-74877140D01*
X66339784Y-74761240D01*
X66074940Y-74695750D01*
X65802408Y-74683188D01*
X65532662Y-74724035D01*
X65276068Y-74816723D01*
X65163037Y-74877140D01*
X65097512Y-75116007D01*
X64427100Y-75116007D01*
X64427100Y-73240900D01*
X68745100Y-73240900D01*
X68745100Y-79590900D01*
G04 #@! TA.AperFunction,Conductor*
D34*
G36*
X68745100Y-79590900D02*
G01*
X67206136Y-79590900D01*
X67227902Y-79550180D01*
X67264212Y-79430482D01*
X67276472Y-79306000D01*
X67273400Y-79016750D01*
X67114650Y-78858000D01*
X66065400Y-78858000D01*
X66065400Y-78878000D01*
X65811400Y-78878000D01*
X65811400Y-78858000D01*
X64762150Y-78858000D01*
X64603400Y-79016750D01*
X64600328Y-79306000D01*
X64612588Y-79430482D01*
X64648898Y-79550180D01*
X64670664Y-79590900D01*
X64427100Y-79590900D01*
X64427100Y-78156000D01*
X64600328Y-78156000D01*
X64603400Y-78445250D01*
X64762150Y-78604000D01*
X65811400Y-78604000D01*
X65811400Y-77679750D01*
X66065400Y-77679750D01*
X66065400Y-78604000D01*
X67114650Y-78604000D01*
X67273400Y-78445250D01*
X67276472Y-78156000D01*
X67264212Y-78031518D01*
X67227902Y-77911820D01*
X67168937Y-77801506D01*
X67089585Y-77704815D01*
X66992894Y-77625463D01*
X66882580Y-77566498D01*
X66762882Y-77530188D01*
X66638400Y-77517928D01*
X66224150Y-77521000D01*
X66065400Y-77679750D01*
X65811400Y-77679750D01*
X65652650Y-77521000D01*
X65238400Y-77517928D01*
X65113918Y-77530188D01*
X64994220Y-77566498D01*
X64883906Y-77625463D01*
X64787215Y-77704815D01*
X64707863Y-77801506D01*
X64648898Y-77911820D01*
X64612588Y-78031518D01*
X64600328Y-78156000D01*
X64427100Y-78156000D01*
X64427100Y-77029993D01*
X65097512Y-77029993D01*
X65163037Y-77268860D01*
X65410016Y-77384760D01*
X65674860Y-77450250D01*
X65947392Y-77462812D01*
X66217138Y-77421965D01*
X66473732Y-77329277D01*
X66586763Y-77268860D01*
X66652288Y-77029993D01*
X65874900Y-76252605D01*
X65097512Y-77029993D01*
X64427100Y-77029993D01*
X64427100Y-76145492D01*
X64485088Y-76145492D01*
X64525935Y-76415238D01*
X64618623Y-76671832D01*
X64679040Y-76784863D01*
X64917907Y-76850388D01*
X65695295Y-76073000D01*
X66054505Y-76073000D01*
X66831893Y-76850388D01*
X67070760Y-76784863D01*
X67186660Y-76537884D01*
X67252150Y-76273040D01*
X67264712Y-76000508D01*
X67223865Y-75730762D01*
X67131177Y-75474168D01*
X67070760Y-75361137D01*
X66831893Y-75295612D01*
X66054505Y-76073000D01*
X65695295Y-76073000D01*
X64917907Y-75295612D01*
X64679040Y-75361137D01*
X64563140Y-75608116D01*
X64497650Y-75872960D01*
X64485088Y-76145492D01*
X64427100Y-76145492D01*
X64427100Y-75116007D01*
X65097512Y-75116007D01*
X65874900Y-75893395D01*
X66652288Y-75116007D01*
X66586763Y-74877140D01*
X66339784Y-74761240D01*
X66074940Y-74695750D01*
X65802408Y-74683188D01*
X65532662Y-74724035D01*
X65276068Y-74816723D01*
X65163037Y-74877140D01*
X65097512Y-75116007D01*
X64427100Y-75116007D01*
X64427100Y-73240900D01*
X68745100Y-73240900D01*
X68745100Y-79590900D01*
G37*
G04 #@! TD.AperFunction*
M02*
