%FSLAX45Y45*%
G04 Gerber Fmt 4.5, Leading zero omitted, Abs format (unit mm)*
G04 Created by KiCad (PCBNEW (5.1.9)-1) date 2021-06-08 08:10:25*
%MOMM*%
%LPD*%
G01*
G04 APERTURE LIST*
%TA.AperFunction,Profile*%
%ADD10C,0.038100*%
%TD*%
%TA.AperFunction,Profile*%
%ADD11C,0.050000*%
%TD*%
%ADD12C,0.200000*%
%ADD13C,0.300000*%
G04 APERTURE END LIST*
D10*
X5991860Y-19474180D02*
G75*
G03*
X6245860Y-19728180I254000J0D01*
G01*
X23563580Y-19728180D02*
G75*
G03*
X23820120Y-19471640I0J256540D01*
G01*
X23820079Y-4409320D02*
G75*
G03*
X23563580Y-4160520I-253959J-5200D01*
G01*
X6248520Y-4163074D02*
G75*
G03*
X5991860Y-4417060I-2660J-253986D01*
G01*
D11*
X5991860Y-10232390D02*
X5991860Y-19474180D01*
D10*
X5991860Y-10232390D02*
X5991640Y-10230200D01*
D11*
X5991640Y-9480200D02*
X5991860Y-4417060D01*
X23563580Y-19728180D02*
X6245860Y-19728180D01*
X23820079Y-4409320D02*
X23820133Y-19471640D01*
X6248520Y-4163074D02*
X23563580Y-4160520D01*
D12*
X16982540Y-14027150D02*
X17081600Y-14126210D01*
X17081600Y-14027150D02*
X16982540Y-14126210D01*
X17084040Y-14789150D02*
X17183100Y-14888210D01*
X17183100Y-14789150D02*
X17084040Y-14888210D01*
X17185540Y-14027150D02*
X17284600Y-14126210D01*
X17284600Y-14027150D02*
X17185540Y-14126210D01*
X16998315Y-14267180D02*
G75*
G03*
X16998315Y-14267180I-118745J0D01*
G01*
X16998315Y-14838680D02*
G75*
G03*
X16998315Y-14838680I-118745J0D01*
G01*
X17506315Y-14267180D02*
G75*
G03*
X17506315Y-14267180I-118745J0D01*
G01*
X17506315Y-14838680D02*
G75*
G03*
X17506315Y-14838680I-118745J0D01*
G01*
D13*
X6273068Y-20196394D02*
X6273068Y-19896394D01*
X6344497Y-19896394D01*
X6387354Y-19910680D01*
X6415926Y-19939252D01*
X6430211Y-19967823D01*
X6444497Y-20024966D01*
X6444497Y-20067823D01*
X6430211Y-20124966D01*
X6415926Y-20153537D01*
X6387354Y-20182109D01*
X6344497Y-20196394D01*
X6273068Y-20196394D01*
X6573068Y-20196394D02*
X6573068Y-19996394D01*
X6573068Y-20053537D02*
X6587354Y-20024966D01*
X6601640Y-20010680D01*
X6630211Y-19996394D01*
X6658783Y-19996394D01*
X6758783Y-20196394D02*
X6758783Y-19996394D01*
X6758783Y-19896394D02*
X6744497Y-19910680D01*
X6758783Y-19924966D01*
X6773068Y-19910680D01*
X6758783Y-19896394D01*
X6758783Y-19924966D01*
X6944497Y-20196394D02*
X6915926Y-20182109D01*
X6901640Y-20153537D01*
X6901640Y-19896394D01*
X7101640Y-20196394D02*
X7073068Y-20182109D01*
X7058783Y-20153537D01*
X7058783Y-19896394D01*
X7444497Y-20196394D02*
X7444497Y-19896394D01*
X7544497Y-20110680D01*
X7644497Y-19896394D01*
X7644497Y-20196394D01*
X7915926Y-20196394D02*
X7915926Y-20039252D01*
X7901640Y-20010680D01*
X7873068Y-19996394D01*
X7815926Y-19996394D01*
X7787354Y-20010680D01*
X7915926Y-20182109D02*
X7887354Y-20196394D01*
X7815926Y-20196394D01*
X7787354Y-20182109D01*
X7773068Y-20153537D01*
X7773068Y-20124966D01*
X7787354Y-20096394D01*
X7815926Y-20082109D01*
X7887354Y-20082109D01*
X7915926Y-20067823D01*
X8058783Y-19996394D02*
X8058783Y-20296394D01*
X8058783Y-20010680D02*
X8087354Y-19996394D01*
X8144497Y-19996394D01*
X8173068Y-20010680D01*
X8187354Y-20024966D01*
X8201640Y-20053537D01*
X8201640Y-20139252D01*
X8187354Y-20167823D01*
X8173068Y-20182109D01*
X8144497Y-20196394D01*
X8087354Y-20196394D01*
X8058783Y-20182109D01*
X8330211Y-20167823D02*
X8344497Y-20182109D01*
X8330211Y-20196394D01*
X8315926Y-20182109D01*
X8330211Y-20167823D01*
X8330211Y-20196394D01*
X8330211Y-20010680D02*
X8344497Y-20024966D01*
X8330211Y-20039252D01*
X8315926Y-20024966D01*
X8330211Y-20010680D01*
X8330211Y-20039252D01*
X5887580Y-20641150D02*
X5986640Y-20740210D01*
X5986640Y-20641150D02*
X5887580Y-20740210D01*
X6330211Y-20526394D02*
X6358783Y-20526394D01*
X6387354Y-20540680D01*
X6401640Y-20554966D01*
X6415926Y-20583537D01*
X6430211Y-20640680D01*
X6430211Y-20712109D01*
X6415926Y-20769252D01*
X6401640Y-20797823D01*
X6387354Y-20812109D01*
X6358783Y-20826394D01*
X6330211Y-20826394D01*
X6301640Y-20812109D01*
X6287354Y-20797823D01*
X6273068Y-20769252D01*
X6258783Y-20712109D01*
X6258783Y-20640680D01*
X6273068Y-20583537D01*
X6287354Y-20554966D01*
X6301640Y-20540680D01*
X6330211Y-20526394D01*
X6558783Y-20797823D02*
X6573068Y-20812109D01*
X6558783Y-20826394D01*
X6544497Y-20812109D01*
X6558783Y-20797823D01*
X6558783Y-20826394D01*
X6715926Y-20826394D02*
X6773068Y-20826394D01*
X6801640Y-20812109D01*
X6815926Y-20797823D01*
X6844497Y-20754966D01*
X6858783Y-20697823D01*
X6858783Y-20583537D01*
X6844497Y-20554966D01*
X6830211Y-20540680D01*
X6801640Y-20526394D01*
X6744497Y-20526394D01*
X6715926Y-20540680D01*
X6701640Y-20554966D01*
X6687354Y-20583537D01*
X6687354Y-20654966D01*
X6701640Y-20683537D01*
X6715926Y-20697823D01*
X6744497Y-20712109D01*
X6801640Y-20712109D01*
X6830211Y-20697823D01*
X6844497Y-20683537D01*
X6858783Y-20654966D01*
X7001640Y-20826394D02*
X7058783Y-20826394D01*
X7087354Y-20812109D01*
X7101640Y-20797823D01*
X7130211Y-20754966D01*
X7144497Y-20697823D01*
X7144497Y-20583537D01*
X7130211Y-20554966D01*
X7115926Y-20540680D01*
X7087354Y-20526394D01*
X7030211Y-20526394D01*
X7001640Y-20540680D01*
X6987354Y-20554966D01*
X6973068Y-20583537D01*
X6973068Y-20654966D01*
X6987354Y-20683537D01*
X7001640Y-20697823D01*
X7030211Y-20712109D01*
X7087354Y-20712109D01*
X7115926Y-20697823D01*
X7130211Y-20683537D01*
X7144497Y-20654966D01*
X7273068Y-20826394D02*
X7273068Y-20626394D01*
X7273068Y-20654966D02*
X7287354Y-20640680D01*
X7315926Y-20626394D01*
X7358783Y-20626394D01*
X7387354Y-20640680D01*
X7401640Y-20669252D01*
X7401640Y-20826394D01*
X7401640Y-20669252D02*
X7415926Y-20640680D01*
X7444497Y-20626394D01*
X7487354Y-20626394D01*
X7515926Y-20640680D01*
X7530211Y-20669252D01*
X7530211Y-20826394D01*
X7673068Y-20826394D02*
X7673068Y-20626394D01*
X7673068Y-20654966D02*
X7687354Y-20640680D01*
X7715926Y-20626394D01*
X7758783Y-20626394D01*
X7787354Y-20640680D01*
X7801640Y-20669252D01*
X7801640Y-20826394D01*
X7801640Y-20669252D02*
X7815926Y-20640680D01*
X7844497Y-20626394D01*
X7887354Y-20626394D01*
X7915926Y-20640680D01*
X7930211Y-20669252D01*
X7930211Y-20826394D01*
X8515926Y-20512109D02*
X8258783Y-20897823D01*
X8901640Y-20526394D02*
X8930211Y-20526394D01*
X8958783Y-20540680D01*
X8973068Y-20554966D01*
X8987354Y-20583537D01*
X9001640Y-20640680D01*
X9001640Y-20712109D01*
X8987354Y-20769252D01*
X8973068Y-20797823D01*
X8958783Y-20812109D01*
X8930211Y-20826394D01*
X8901640Y-20826394D01*
X8873068Y-20812109D01*
X8858783Y-20797823D01*
X8844497Y-20769252D01*
X8830211Y-20712109D01*
X8830211Y-20640680D01*
X8844497Y-20583537D01*
X8858783Y-20554966D01*
X8873068Y-20540680D01*
X8901640Y-20526394D01*
X9130211Y-20797823D02*
X9144497Y-20812109D01*
X9130211Y-20826394D01*
X9115926Y-20812109D01*
X9130211Y-20797823D01*
X9130211Y-20826394D01*
X9330211Y-20526394D02*
X9358783Y-20526394D01*
X9387354Y-20540680D01*
X9401640Y-20554966D01*
X9415926Y-20583537D01*
X9430211Y-20640680D01*
X9430211Y-20712109D01*
X9415926Y-20769252D01*
X9401640Y-20797823D01*
X9387354Y-20812109D01*
X9358783Y-20826394D01*
X9330211Y-20826394D01*
X9301640Y-20812109D01*
X9287354Y-20797823D01*
X9273068Y-20769252D01*
X9258783Y-20712109D01*
X9258783Y-20640680D01*
X9273068Y-20583537D01*
X9287354Y-20554966D01*
X9301640Y-20540680D01*
X9330211Y-20526394D01*
X9530211Y-20526394D02*
X9715926Y-20526394D01*
X9615926Y-20640680D01*
X9658783Y-20640680D01*
X9687354Y-20654966D01*
X9701640Y-20669252D01*
X9715926Y-20697823D01*
X9715926Y-20769252D01*
X9701640Y-20797823D01*
X9687354Y-20812109D01*
X9658783Y-20826394D01*
X9573068Y-20826394D01*
X9544497Y-20812109D01*
X9530211Y-20797823D01*
X9858783Y-20826394D02*
X9915926Y-20826394D01*
X9944497Y-20812109D01*
X9958783Y-20797823D01*
X9987354Y-20754966D01*
X10001640Y-20697823D01*
X10001640Y-20583537D01*
X9987354Y-20554966D01*
X9973068Y-20540680D01*
X9944497Y-20526394D01*
X9887354Y-20526394D01*
X9858783Y-20540680D01*
X9844497Y-20554966D01*
X9830211Y-20583537D01*
X9830211Y-20654966D01*
X9844497Y-20683537D01*
X9858783Y-20697823D01*
X9887354Y-20712109D01*
X9944497Y-20712109D01*
X9973068Y-20697823D01*
X9987354Y-20683537D01*
X10001640Y-20654966D01*
X10115926Y-20526394D02*
X10115926Y-20583537D01*
X10230211Y-20526394D02*
X10230211Y-20583537D01*
X10673068Y-20940680D02*
X10658783Y-20926394D01*
X10630211Y-20883537D01*
X10615926Y-20854966D01*
X10601640Y-20812109D01*
X10587354Y-20740680D01*
X10587354Y-20683537D01*
X10601640Y-20612109D01*
X10615926Y-20569252D01*
X10630211Y-20540680D01*
X10658783Y-20497823D01*
X10673068Y-20483537D01*
X10758783Y-20526394D02*
X10944497Y-20526394D01*
X10844497Y-20640680D01*
X10887354Y-20640680D01*
X10915926Y-20654966D01*
X10930211Y-20669252D01*
X10944497Y-20697823D01*
X10944497Y-20769252D01*
X10930211Y-20797823D01*
X10915926Y-20812109D01*
X10887354Y-20826394D01*
X10801640Y-20826394D01*
X10773068Y-20812109D01*
X10758783Y-20797823D01*
X11301640Y-20826394D02*
X11301640Y-20526394D01*
X11430211Y-20826394D02*
X11430211Y-20669252D01*
X11415926Y-20640680D01*
X11387354Y-20626394D01*
X11344497Y-20626394D01*
X11315926Y-20640680D01*
X11301640Y-20654966D01*
X11615926Y-20826394D02*
X11587354Y-20812109D01*
X11573068Y-20797823D01*
X11558783Y-20769252D01*
X11558783Y-20683537D01*
X11573068Y-20654966D01*
X11587354Y-20640680D01*
X11615926Y-20626394D01*
X11658783Y-20626394D01*
X11687354Y-20640680D01*
X11701640Y-20654966D01*
X11715926Y-20683537D01*
X11715926Y-20769252D01*
X11701640Y-20797823D01*
X11687354Y-20812109D01*
X11658783Y-20826394D01*
X11615926Y-20826394D01*
X11887354Y-20826394D02*
X11858783Y-20812109D01*
X11844497Y-20783537D01*
X11844497Y-20526394D01*
X12115926Y-20812109D02*
X12087354Y-20826394D01*
X12030211Y-20826394D01*
X12001640Y-20812109D01*
X11987354Y-20783537D01*
X11987354Y-20669252D01*
X12001640Y-20640680D01*
X12030211Y-20626394D01*
X12087354Y-20626394D01*
X12115926Y-20640680D01*
X12130211Y-20669252D01*
X12130211Y-20697823D01*
X11987354Y-20726394D01*
X12244497Y-20812109D02*
X12273068Y-20826394D01*
X12330211Y-20826394D01*
X12358783Y-20812109D01*
X12373068Y-20783537D01*
X12373068Y-20769252D01*
X12358783Y-20740680D01*
X12330211Y-20726394D01*
X12287354Y-20726394D01*
X12258783Y-20712109D01*
X12244497Y-20683537D01*
X12244497Y-20669252D01*
X12258783Y-20640680D01*
X12287354Y-20626394D01*
X12330211Y-20626394D01*
X12358783Y-20640680D01*
X12473068Y-20940680D02*
X12487354Y-20926394D01*
X12515926Y-20883537D01*
X12530211Y-20854966D01*
X12544497Y-20812109D01*
X12558783Y-20740680D01*
X12558783Y-20683537D01*
X12544497Y-20612109D01*
X12530211Y-20569252D01*
X12515926Y-20540680D01*
X12487354Y-20497823D01*
X12473068Y-20483537D01*
X13015926Y-20940680D02*
X13001640Y-20926394D01*
X12973068Y-20883537D01*
X12958783Y-20854966D01*
X12944497Y-20812109D01*
X12930211Y-20740680D01*
X12930211Y-20683537D01*
X12944497Y-20612109D01*
X12958783Y-20569252D01*
X12973068Y-20540680D01*
X13001640Y-20497823D01*
X13015926Y-20483537D01*
X13130211Y-20626394D02*
X13130211Y-20826394D01*
X13130211Y-20654966D02*
X13144497Y-20640680D01*
X13173068Y-20626394D01*
X13215926Y-20626394D01*
X13244497Y-20640680D01*
X13258783Y-20669252D01*
X13258783Y-20826394D01*
X13444497Y-20826394D02*
X13415926Y-20812109D01*
X13401640Y-20797823D01*
X13387354Y-20769252D01*
X13387354Y-20683537D01*
X13401640Y-20654966D01*
X13415926Y-20640680D01*
X13444497Y-20626394D01*
X13487354Y-20626394D01*
X13515926Y-20640680D01*
X13530211Y-20654966D01*
X13544497Y-20683537D01*
X13544497Y-20769252D01*
X13530211Y-20797823D01*
X13515926Y-20812109D01*
X13487354Y-20826394D01*
X13444497Y-20826394D01*
X13630211Y-20626394D02*
X13744497Y-20626394D01*
X13673068Y-20526394D02*
X13673068Y-20783537D01*
X13687354Y-20812109D01*
X13715926Y-20826394D01*
X13744497Y-20826394D01*
X14073068Y-20626394D02*
X14073068Y-20926394D01*
X14073068Y-20640680D02*
X14101640Y-20626394D01*
X14158783Y-20626394D01*
X14187354Y-20640680D01*
X14201640Y-20654966D01*
X14215926Y-20683537D01*
X14215926Y-20769252D01*
X14201640Y-20797823D01*
X14187354Y-20812109D01*
X14158783Y-20826394D01*
X14101640Y-20826394D01*
X14073068Y-20812109D01*
X14387354Y-20826394D02*
X14358783Y-20812109D01*
X14344497Y-20783537D01*
X14344497Y-20526394D01*
X14630211Y-20826394D02*
X14630211Y-20669252D01*
X14615926Y-20640680D01*
X14587354Y-20626394D01*
X14530211Y-20626394D01*
X14501640Y-20640680D01*
X14630211Y-20812109D02*
X14601640Y-20826394D01*
X14530211Y-20826394D01*
X14501640Y-20812109D01*
X14487354Y-20783537D01*
X14487354Y-20754966D01*
X14501640Y-20726394D01*
X14530211Y-20712109D01*
X14601640Y-20712109D01*
X14630211Y-20697823D01*
X14730211Y-20626394D02*
X14844497Y-20626394D01*
X14773068Y-20526394D02*
X14773068Y-20783537D01*
X14787354Y-20812109D01*
X14815926Y-20826394D01*
X14844497Y-20826394D01*
X15058783Y-20812109D02*
X15030211Y-20826394D01*
X14973068Y-20826394D01*
X14944497Y-20812109D01*
X14930211Y-20783537D01*
X14930211Y-20669252D01*
X14944497Y-20640680D01*
X14973068Y-20626394D01*
X15030211Y-20626394D01*
X15058783Y-20640680D01*
X15073068Y-20669252D01*
X15073068Y-20697823D01*
X14930211Y-20726394D01*
X15330211Y-20826394D02*
X15330211Y-20526394D01*
X15330211Y-20812109D02*
X15301640Y-20826394D01*
X15244497Y-20826394D01*
X15215926Y-20812109D01*
X15201640Y-20797823D01*
X15187354Y-20769252D01*
X15187354Y-20683537D01*
X15201640Y-20654966D01*
X15215926Y-20640680D01*
X15244497Y-20626394D01*
X15301640Y-20626394D01*
X15330211Y-20640680D01*
X15444497Y-20940680D02*
X15458783Y-20926394D01*
X15487354Y-20883537D01*
X15501640Y-20854966D01*
X15515926Y-20812109D01*
X15530211Y-20740680D01*
X15530211Y-20683537D01*
X15515926Y-20612109D01*
X15501640Y-20569252D01*
X15487354Y-20540680D01*
X15458783Y-20497823D01*
X15444497Y-20483537D01*
X5986640Y-21086680D02*
G75*
G03*
X5986640Y-21086680I-118745J0D01*
G01*
X6258783Y-20950966D02*
X6273068Y-20936680D01*
X6301640Y-20922394D01*
X6373068Y-20922394D01*
X6401640Y-20936680D01*
X6415926Y-20950966D01*
X6430211Y-20979537D01*
X6430211Y-21008109D01*
X6415926Y-21050966D01*
X6244497Y-21222394D01*
X6430211Y-21222394D01*
X6558783Y-21193823D02*
X6573068Y-21208109D01*
X6558783Y-21222394D01*
X6544497Y-21208109D01*
X6558783Y-21193823D01*
X6558783Y-21222394D01*
X6673068Y-20922394D02*
X6858783Y-20922394D01*
X6758783Y-21036680D01*
X6801640Y-21036680D01*
X6830211Y-21050966D01*
X6844497Y-21065252D01*
X6858783Y-21093823D01*
X6858783Y-21165252D01*
X6844497Y-21193823D01*
X6830211Y-21208109D01*
X6801640Y-21222394D01*
X6715926Y-21222394D01*
X6687354Y-21208109D01*
X6673068Y-21193823D01*
X6958783Y-20922394D02*
X7158783Y-20922394D01*
X7030211Y-21222394D01*
X7273068Y-21222394D02*
X7273068Y-21022394D01*
X7273068Y-21050966D02*
X7287354Y-21036680D01*
X7315926Y-21022394D01*
X7358783Y-21022394D01*
X7387354Y-21036680D01*
X7401640Y-21065252D01*
X7401640Y-21222394D01*
X7401640Y-21065252D02*
X7415926Y-21036680D01*
X7444497Y-21022394D01*
X7487354Y-21022394D01*
X7515926Y-21036680D01*
X7530211Y-21065252D01*
X7530211Y-21222394D01*
X7673068Y-21222394D02*
X7673068Y-21022394D01*
X7673068Y-21050966D02*
X7687354Y-21036680D01*
X7715926Y-21022394D01*
X7758783Y-21022394D01*
X7787354Y-21036680D01*
X7801640Y-21065252D01*
X7801640Y-21222394D01*
X7801640Y-21065252D02*
X7815926Y-21036680D01*
X7844497Y-21022394D01*
X7887354Y-21022394D01*
X7915926Y-21036680D01*
X7930211Y-21065252D01*
X7930211Y-21222394D01*
X8515926Y-20908109D02*
X8258783Y-21293823D01*
X8901640Y-20922394D02*
X8930211Y-20922394D01*
X8958783Y-20936680D01*
X8973068Y-20950966D01*
X8987354Y-20979537D01*
X9001640Y-21036680D01*
X9001640Y-21108109D01*
X8987354Y-21165252D01*
X8973068Y-21193823D01*
X8958783Y-21208109D01*
X8930211Y-21222394D01*
X8901640Y-21222394D01*
X8873068Y-21208109D01*
X8858783Y-21193823D01*
X8844497Y-21165252D01*
X8830211Y-21108109D01*
X8830211Y-21036680D01*
X8844497Y-20979537D01*
X8858783Y-20950966D01*
X8873068Y-20936680D01*
X8901640Y-20922394D01*
X9130211Y-21193823D02*
X9144497Y-21208109D01*
X9130211Y-21222394D01*
X9115926Y-21208109D01*
X9130211Y-21193823D01*
X9130211Y-21222394D01*
X9330211Y-20922394D02*
X9358783Y-20922394D01*
X9387354Y-20936680D01*
X9401640Y-20950966D01*
X9415926Y-20979537D01*
X9430211Y-21036680D01*
X9430211Y-21108109D01*
X9415926Y-21165252D01*
X9401640Y-21193823D01*
X9387354Y-21208109D01*
X9358783Y-21222394D01*
X9330211Y-21222394D01*
X9301640Y-21208109D01*
X9287354Y-21193823D01*
X9273068Y-21165252D01*
X9258783Y-21108109D01*
X9258783Y-21036680D01*
X9273068Y-20979537D01*
X9287354Y-20950966D01*
X9301640Y-20936680D01*
X9330211Y-20922394D01*
X9573068Y-21222394D02*
X9630211Y-21222394D01*
X9658783Y-21208109D01*
X9673068Y-21193823D01*
X9701640Y-21150966D01*
X9715926Y-21093823D01*
X9715926Y-20979537D01*
X9701640Y-20950966D01*
X9687354Y-20936680D01*
X9658783Y-20922394D01*
X9601640Y-20922394D01*
X9573068Y-20936680D01*
X9558783Y-20950966D01*
X9544497Y-20979537D01*
X9544497Y-21050966D01*
X9558783Y-21079537D01*
X9573068Y-21093823D01*
X9601640Y-21108109D01*
X9658783Y-21108109D01*
X9687354Y-21093823D01*
X9701640Y-21079537D01*
X9715926Y-21050966D01*
X9815926Y-20922394D02*
X10001640Y-20922394D01*
X9901640Y-21036680D01*
X9944497Y-21036680D01*
X9973068Y-21050966D01*
X9987354Y-21065252D01*
X10001640Y-21093823D01*
X10001640Y-21165252D01*
X9987354Y-21193823D01*
X9973068Y-21208109D01*
X9944497Y-21222394D01*
X9858783Y-21222394D01*
X9830211Y-21208109D01*
X9815926Y-21193823D01*
X10115926Y-20922394D02*
X10115926Y-20979537D01*
X10230211Y-20922394D02*
X10230211Y-20979537D01*
X10673068Y-21336680D02*
X10658783Y-21322394D01*
X10630211Y-21279537D01*
X10615926Y-21250966D01*
X10601640Y-21208109D01*
X10587354Y-21136680D01*
X10587354Y-21079537D01*
X10601640Y-21008109D01*
X10615926Y-20965252D01*
X10630211Y-20936680D01*
X10658783Y-20893823D01*
X10673068Y-20879537D01*
X10915926Y-21022394D02*
X10915926Y-21222394D01*
X10844497Y-20908109D02*
X10773068Y-21122394D01*
X10958783Y-21122394D01*
X11301640Y-21222394D02*
X11301640Y-20922394D01*
X11430211Y-21222394D02*
X11430211Y-21065252D01*
X11415926Y-21036680D01*
X11387354Y-21022394D01*
X11344497Y-21022394D01*
X11315926Y-21036680D01*
X11301640Y-21050966D01*
X11615926Y-21222394D02*
X11587354Y-21208109D01*
X11573068Y-21193823D01*
X11558783Y-21165252D01*
X11558783Y-21079537D01*
X11573068Y-21050966D01*
X11587354Y-21036680D01*
X11615926Y-21022394D01*
X11658783Y-21022394D01*
X11687354Y-21036680D01*
X11701640Y-21050966D01*
X11715926Y-21079537D01*
X11715926Y-21165252D01*
X11701640Y-21193823D01*
X11687354Y-21208109D01*
X11658783Y-21222394D01*
X11615926Y-21222394D01*
X11887354Y-21222394D02*
X11858783Y-21208109D01*
X11844497Y-21179537D01*
X11844497Y-20922394D01*
X12115926Y-21208109D02*
X12087354Y-21222394D01*
X12030211Y-21222394D01*
X12001640Y-21208109D01*
X11987354Y-21179537D01*
X11987354Y-21065252D01*
X12001640Y-21036680D01*
X12030211Y-21022394D01*
X12087354Y-21022394D01*
X12115926Y-21036680D01*
X12130211Y-21065252D01*
X12130211Y-21093823D01*
X11987354Y-21122394D01*
X12244497Y-21208109D02*
X12273068Y-21222394D01*
X12330211Y-21222394D01*
X12358783Y-21208109D01*
X12373068Y-21179537D01*
X12373068Y-21165252D01*
X12358783Y-21136680D01*
X12330211Y-21122394D01*
X12287354Y-21122394D01*
X12258783Y-21108109D01*
X12244497Y-21079537D01*
X12244497Y-21065252D01*
X12258783Y-21036680D01*
X12287354Y-21022394D01*
X12330211Y-21022394D01*
X12358783Y-21036680D01*
X12473068Y-21336680D02*
X12487354Y-21322394D01*
X12515926Y-21279537D01*
X12530211Y-21250966D01*
X12544497Y-21208109D01*
X12558783Y-21136680D01*
X12558783Y-21079537D01*
X12544497Y-21008109D01*
X12530211Y-20965252D01*
X12515926Y-20936680D01*
X12487354Y-20893823D01*
X12473068Y-20879537D01*
X13015926Y-21336680D02*
X13001640Y-21322394D01*
X12973068Y-21279537D01*
X12958783Y-21250966D01*
X12944497Y-21208109D01*
X12930211Y-21136680D01*
X12930211Y-21079537D01*
X12944497Y-21008109D01*
X12958783Y-20965252D01*
X12973068Y-20936680D01*
X13001640Y-20893823D01*
X13015926Y-20879537D01*
X13130211Y-21022394D02*
X13130211Y-21222394D01*
X13130211Y-21050966D02*
X13144497Y-21036680D01*
X13173068Y-21022394D01*
X13215926Y-21022394D01*
X13244497Y-21036680D01*
X13258783Y-21065252D01*
X13258783Y-21222394D01*
X13444497Y-21222394D02*
X13415926Y-21208109D01*
X13401640Y-21193823D01*
X13387354Y-21165252D01*
X13387354Y-21079537D01*
X13401640Y-21050966D01*
X13415926Y-21036680D01*
X13444497Y-21022394D01*
X13487354Y-21022394D01*
X13515926Y-21036680D01*
X13530211Y-21050966D01*
X13544497Y-21079537D01*
X13544497Y-21165252D01*
X13530211Y-21193823D01*
X13515926Y-21208109D01*
X13487354Y-21222394D01*
X13444497Y-21222394D01*
X13630211Y-21022394D02*
X13744497Y-21022394D01*
X13673068Y-20922394D02*
X13673068Y-21179537D01*
X13687354Y-21208109D01*
X13715926Y-21222394D01*
X13744497Y-21222394D01*
X14073068Y-21022394D02*
X14073068Y-21322394D01*
X14073068Y-21036680D02*
X14101640Y-21022394D01*
X14158783Y-21022394D01*
X14187354Y-21036680D01*
X14201640Y-21050966D01*
X14215926Y-21079537D01*
X14215926Y-21165252D01*
X14201640Y-21193823D01*
X14187354Y-21208109D01*
X14158783Y-21222394D01*
X14101640Y-21222394D01*
X14073068Y-21208109D01*
X14387354Y-21222394D02*
X14358783Y-21208109D01*
X14344497Y-21179537D01*
X14344497Y-20922394D01*
X14630211Y-21222394D02*
X14630211Y-21065252D01*
X14615926Y-21036680D01*
X14587354Y-21022394D01*
X14530211Y-21022394D01*
X14501640Y-21036680D01*
X14630211Y-21208109D02*
X14601640Y-21222394D01*
X14530211Y-21222394D01*
X14501640Y-21208109D01*
X14487354Y-21179537D01*
X14487354Y-21150966D01*
X14501640Y-21122394D01*
X14530211Y-21108109D01*
X14601640Y-21108109D01*
X14630211Y-21093823D01*
X14730211Y-21022394D02*
X14844497Y-21022394D01*
X14773068Y-20922394D02*
X14773068Y-21179537D01*
X14787354Y-21208109D01*
X14815926Y-21222394D01*
X14844497Y-21222394D01*
X15058783Y-21208109D02*
X15030211Y-21222394D01*
X14973068Y-21222394D01*
X14944497Y-21208109D01*
X14930211Y-21179537D01*
X14930211Y-21065252D01*
X14944497Y-21036680D01*
X14973068Y-21022394D01*
X15030211Y-21022394D01*
X15058783Y-21036680D01*
X15073068Y-21065252D01*
X15073068Y-21093823D01*
X14930211Y-21122394D01*
X15330211Y-21222394D02*
X15330211Y-20922394D01*
X15330211Y-21208109D02*
X15301640Y-21222394D01*
X15244497Y-21222394D01*
X15215926Y-21208109D01*
X15201640Y-21193823D01*
X15187354Y-21165252D01*
X15187354Y-21079537D01*
X15201640Y-21050966D01*
X15215926Y-21036680D01*
X15244497Y-21022394D01*
X15301640Y-21022394D01*
X15330211Y-21036680D01*
X15444497Y-21336680D02*
X15458783Y-21322394D01*
X15487354Y-21279537D01*
X15501640Y-21250966D01*
X15515926Y-21208109D01*
X15530211Y-21136680D01*
X15530211Y-21079537D01*
X15515926Y-21008109D01*
X15501640Y-20965252D01*
X15487354Y-20936680D01*
X15458783Y-20893823D01*
X15444497Y-20879537D01*
M02*
