G04 #@! TF.GenerationSoftware,KiCad,Pcbnew,(5.1.9)-1*
G04 #@! TF.CreationDate,2021-06-08T08:09:59+01:00*
G04 #@! TF.ProjectId,Looper_Board,4c6f6f70-6572-45f4-926f-6172642e6b69,rev?*
G04 #@! TF.SameCoordinates,Original*
G04 #@! TF.FileFunction,Legend,Bot*
G04 #@! TF.FilePolarity,Positive*
%FSLAX46Y46*%
G04 Gerber Fmt 4.6, Leading zero omitted, Abs format (unit mm)*
G04 Created by KiCad (PCBNEW (5.1.9)-1) date 2021-06-08 08:09:59*
%MOMM*%
%LPD*%
G01*
G04 APERTURE LIST*
%ADD10C,0.304800*%
%ADD11C,0.152400*%
%ADD12C,0.120000*%
%ADD13C,0.127000*%
%ADD14C,0.240000*%
%ADD15C,0.150000*%
%ADD16C,1.500000*%
%ADD17R,1.700000X1.700000*%
%ADD18O,1.700000X1.700000*%
%ADD19O,1.250000X1.050000*%
%ADD20R,1.350000X0.400000*%
%ADD21O,1.900000X1.000000*%
%ADD22R,1.900000X2.900000*%
%ADD23R,1.900000X0.875000*%
%ADD24R,1.600000X1.400000*%
%ADD25R,1.060000X0.650000*%
%ADD26R,1.000000X1.600000*%
%ADD27C,0.787400*%
%ADD28C,2.374900*%
%ADD29C,0.990600*%
%ADD30R,2.500000X1.000000*%
%ADD31R,2.500000X2.500000*%
%ADD32R,2.000000X2.400000*%
%ADD33C,0.800000*%
%ADD34C,6.000000*%
G04 APERTURE END LIST*
D10*
X196708485Y-71834828D02*
X197434200Y-71834828D01*
X197434200Y-70310828D01*
X195910200Y-70310828D02*
X195619914Y-70310828D01*
X195474771Y-70383400D01*
X195329628Y-70528542D01*
X195257057Y-70818828D01*
X195257057Y-71326828D01*
X195329628Y-71617114D01*
X195474771Y-71762257D01*
X195619914Y-71834828D01*
X195910200Y-71834828D01*
X196055342Y-71762257D01*
X196200485Y-71617114D01*
X196273057Y-71326828D01*
X196273057Y-70818828D01*
X196200485Y-70528542D01*
X196055342Y-70383400D01*
X195910200Y-70310828D01*
X194313628Y-70310828D02*
X194023342Y-70310828D01*
X193878200Y-70383400D01*
X193733057Y-70528542D01*
X193660485Y-70818828D01*
X193660485Y-71326828D01*
X193733057Y-71617114D01*
X193878200Y-71762257D01*
X194023342Y-71834828D01*
X194313628Y-71834828D01*
X194458771Y-71762257D01*
X194603914Y-71617114D01*
X194676485Y-71326828D01*
X194676485Y-70818828D01*
X194603914Y-70528542D01*
X194458771Y-70383400D01*
X194313628Y-70310828D01*
X193007342Y-71834828D02*
X193007342Y-70310828D01*
X192426771Y-70310828D01*
X192281628Y-70383400D01*
X192209057Y-70455971D01*
X192136485Y-70601114D01*
X192136485Y-70818828D01*
X192209057Y-70963971D01*
X192281628Y-71036542D01*
X192426771Y-71109114D01*
X193007342Y-71109114D01*
X191483342Y-71036542D02*
X190975342Y-71036542D01*
X190757628Y-71834828D02*
X191483342Y-71834828D01*
X191483342Y-70310828D01*
X190757628Y-70310828D01*
X189233628Y-71834828D02*
X189741628Y-71109114D01*
X190104485Y-71834828D02*
X190104485Y-70310828D01*
X189523914Y-70310828D01*
X189378771Y-70383400D01*
X189306200Y-70455971D01*
X189233628Y-70601114D01*
X189233628Y-70818828D01*
X189306200Y-70963971D01*
X189378771Y-71036542D01*
X189523914Y-71109114D01*
X190104485Y-71109114D01*
X186911342Y-71036542D02*
X186693628Y-71109114D01*
X186621057Y-71181685D01*
X186548485Y-71326828D01*
X186548485Y-71544542D01*
X186621057Y-71689685D01*
X186693628Y-71762257D01*
X186838771Y-71834828D01*
X187419342Y-71834828D01*
X187419342Y-70310828D01*
X186911342Y-70310828D01*
X186766200Y-70383400D01*
X186693628Y-70455971D01*
X186621057Y-70601114D01*
X186621057Y-70746257D01*
X186693628Y-70891400D01*
X186766200Y-70963971D01*
X186911342Y-71036542D01*
X187419342Y-71036542D01*
X185605057Y-70310828D02*
X185314771Y-70310828D01*
X185169628Y-70383400D01*
X185024485Y-70528542D01*
X184951914Y-70818828D01*
X184951914Y-71326828D01*
X185024485Y-71617114D01*
X185169628Y-71762257D01*
X185314771Y-71834828D01*
X185605057Y-71834828D01*
X185750200Y-71762257D01*
X185895342Y-71617114D01*
X185967914Y-71326828D01*
X185967914Y-70818828D01*
X185895342Y-70528542D01*
X185750200Y-70383400D01*
X185605057Y-70310828D01*
X184371342Y-71399400D02*
X183645628Y-71399400D01*
X184516485Y-71834828D02*
X184008485Y-70310828D01*
X183500485Y-71834828D01*
X182121628Y-71834828D02*
X182629628Y-71109114D01*
X182992485Y-71834828D02*
X182992485Y-70310828D01*
X182411914Y-70310828D01*
X182266771Y-70383400D01*
X182194200Y-70455971D01*
X182121628Y-70601114D01*
X182121628Y-70818828D01*
X182194200Y-70963971D01*
X182266771Y-71036542D01*
X182411914Y-71109114D01*
X182992485Y-71109114D01*
X181468485Y-71834828D02*
X181468485Y-70310828D01*
X181105628Y-70310828D01*
X180887914Y-70383400D01*
X180742771Y-70528542D01*
X180670200Y-70673685D01*
X180597628Y-70963971D01*
X180597628Y-71181685D01*
X180670200Y-71471971D01*
X180742771Y-71617114D01*
X180887914Y-71762257D01*
X181105628Y-71834828D01*
X181468485Y-71834828D01*
X191991342Y-72901628D02*
X191483342Y-74425628D01*
X190975342Y-72901628D01*
X189886771Y-74353057D02*
X190031914Y-74425628D01*
X190322200Y-74425628D01*
X190467342Y-74353057D01*
X190539914Y-74207914D01*
X190539914Y-73627342D01*
X190467342Y-73482200D01*
X190322200Y-73409628D01*
X190031914Y-73409628D01*
X189886771Y-73482200D01*
X189814200Y-73627342D01*
X189814200Y-73772485D01*
X190539914Y-73917628D01*
X189161057Y-74425628D02*
X189161057Y-73409628D01*
X189161057Y-73699914D02*
X189088485Y-73554771D01*
X189015914Y-73482200D01*
X188870771Y-73409628D01*
X188725628Y-73409628D01*
X186258200Y-74425628D02*
X187129057Y-74425628D01*
X186693628Y-74425628D02*
X186693628Y-72901628D01*
X186838771Y-73119342D01*
X186983914Y-73264485D01*
X187129057Y-73337057D01*
X202608986Y-67476714D02*
X202198272Y-67619571D01*
X202073272Y-67762428D01*
X201966129Y-68048142D01*
X202019700Y-68476714D01*
X202198272Y-68762428D01*
X202358986Y-68905285D01*
X202662557Y-69048142D01*
X203805415Y-69048142D01*
X203430415Y-66048142D01*
X202430415Y-66048142D01*
X202162557Y-66191000D01*
X202037557Y-66333857D01*
X201930415Y-66619571D01*
X201966129Y-66905285D01*
X202144700Y-67191000D01*
X202305415Y-67333857D01*
X202608986Y-67476714D01*
X203608986Y-67476714D01*
X199858986Y-66048142D02*
X199287557Y-66048142D01*
X199019700Y-66191000D01*
X198769700Y-66476714D01*
X198698272Y-67048142D01*
X198823272Y-68048142D01*
X199037557Y-68619571D01*
X199358986Y-68905285D01*
X199662557Y-69048142D01*
X200233986Y-69048142D01*
X200501843Y-68905285D01*
X200751843Y-68619571D01*
X200823272Y-68048142D01*
X200698272Y-67048142D01*
X200483986Y-66476714D01*
X200162557Y-66191000D01*
X199858986Y-66048142D01*
X196716129Y-66048142D02*
X196144700Y-66048142D01*
X195876843Y-66191000D01*
X195626843Y-66476714D01*
X195555415Y-67048142D01*
X195680415Y-68048142D01*
X195894700Y-68619571D01*
X196216129Y-68905285D01*
X196519700Y-69048142D01*
X197091129Y-69048142D01*
X197358986Y-68905285D01*
X197608986Y-68619571D01*
X197680415Y-68048142D01*
X197555415Y-67048142D01*
X197341129Y-66476714D01*
X197019700Y-66191000D01*
X196716129Y-66048142D01*
X193287557Y-66048142D02*
X193555415Y-68191000D01*
X193751843Y-68619571D01*
X194073272Y-68905285D01*
X194519700Y-69048142D01*
X194805415Y-69048142D01*
X190073272Y-68905285D02*
X189662557Y-69048142D01*
X188948272Y-69048142D01*
X188644700Y-68905285D01*
X188483986Y-68762428D01*
X188305415Y-68476714D01*
X188269700Y-68191000D01*
X188376843Y-67905285D01*
X188501843Y-67762428D01*
X188769700Y-67619571D01*
X189323272Y-67476714D01*
X189591129Y-67333857D01*
X189716129Y-67191000D01*
X189823272Y-66905285D01*
X189787557Y-66619571D01*
X189608986Y-66333857D01*
X189448272Y-66191000D01*
X189144700Y-66048142D01*
X188430415Y-66048142D01*
X188019700Y-66191000D01*
X186341129Y-67619571D02*
X186519700Y-69048142D01*
X187144700Y-66048142D02*
X186341129Y-67619571D01*
X185144700Y-66048142D01*
X184519700Y-69048142D02*
X184144700Y-66048142D01*
X182805415Y-69048142D01*
X182430415Y-66048142D01*
X181430415Y-66048142D02*
X179716129Y-66048142D01*
X180948272Y-69048142D02*
X180573272Y-66048142D01*
X179091129Y-69048142D02*
X178716129Y-66048142D01*
X178894700Y-67476714D02*
X177180415Y-67476714D01*
X177376843Y-69048142D02*
X177001843Y-66048142D01*
X176073272Y-68905285D02*
X175662557Y-69048142D01*
X174948272Y-69048142D01*
X174644700Y-68905285D01*
X174483986Y-68762428D01*
X174305415Y-68476714D01*
X174269700Y-68191000D01*
X174376843Y-67905285D01*
X174501843Y-67762428D01*
X174769700Y-67619571D01*
X175323272Y-67476714D01*
X175591129Y-67333857D01*
X175716129Y-67191000D01*
X175823272Y-66905285D01*
X175787557Y-66619571D01*
X175608986Y-66333857D01*
X175448272Y-66191000D01*
X175144700Y-66048142D01*
X174430415Y-66048142D01*
X174019700Y-66191000D01*
D11*
X141440504Y-140261219D02*
X142253304Y-140261219D01*
X142253304Y-139951580D01*
X142214600Y-139874171D01*
X142175895Y-139835466D01*
X142098485Y-139796761D01*
X141982371Y-139796761D01*
X141904961Y-139835466D01*
X141866257Y-139874171D01*
X141827552Y-139951580D01*
X141827552Y-140261219D01*
X141866257Y-139448419D02*
X141866257Y-139177485D01*
X141440504Y-139061371D02*
X141440504Y-139448419D01*
X142253304Y-139448419D01*
X142253304Y-139061371D01*
X141982371Y-138364685D02*
X141440504Y-138364685D01*
X142292009Y-138558209D02*
X141711438Y-138751733D01*
X141711438Y-138248571D01*
X74517552Y-130874104D02*
X74130504Y-130874104D01*
X74130504Y-131686904D01*
X74788485Y-131299857D02*
X75059419Y-131299857D01*
X75175533Y-130874104D02*
X74788485Y-130874104D01*
X74788485Y-131686904D01*
X75175533Y-131686904D01*
X75523876Y-130874104D02*
X75523876Y-131686904D01*
X75717400Y-131686904D01*
X75833514Y-131648200D01*
X75910923Y-131570790D01*
X75949628Y-131493380D01*
X75988333Y-131338561D01*
X75988333Y-131222447D01*
X75949628Y-131067628D01*
X75910923Y-130990219D01*
X75833514Y-130912809D01*
X75717400Y-130874104D01*
X75523876Y-130874104D01*
X76917247Y-131725609D02*
X76220561Y-130680580D01*
X77575228Y-130874104D02*
X77188180Y-130874104D01*
X77188180Y-131686904D01*
X78000980Y-131686904D02*
X78155800Y-131686904D01*
X78233209Y-131648200D01*
X78310619Y-131570790D01*
X78349323Y-131415971D01*
X78349323Y-131145038D01*
X78310619Y-130990219D01*
X78233209Y-130912809D01*
X78155800Y-130874104D01*
X78000980Y-130874104D01*
X77923571Y-130912809D01*
X77846161Y-130990219D01*
X77807457Y-131145038D01*
X77807457Y-131415971D01*
X77846161Y-131570790D01*
X77923571Y-131648200D01*
X78000980Y-131686904D01*
X78852485Y-131686904D02*
X79007304Y-131686904D01*
X79084714Y-131648200D01*
X79162123Y-131570790D01*
X79200828Y-131415971D01*
X79200828Y-131145038D01*
X79162123Y-130990219D01*
X79084714Y-130912809D01*
X79007304Y-130874104D01*
X78852485Y-130874104D01*
X78775076Y-130912809D01*
X78697666Y-130990219D01*
X78658961Y-131145038D01*
X78658961Y-131415971D01*
X78697666Y-131570790D01*
X78775076Y-131648200D01*
X78852485Y-131686904D01*
X79549171Y-130874104D02*
X79549171Y-131686904D01*
X79858809Y-131686904D01*
X79936219Y-131648200D01*
X79974923Y-131609495D01*
X80013628Y-131532085D01*
X80013628Y-131415971D01*
X79974923Y-131338561D01*
X79936219Y-131299857D01*
X79858809Y-131261152D01*
X79549171Y-131261152D01*
X80903838Y-131686904D02*
X81445704Y-131686904D01*
X81097361Y-130874104D01*
X74517552Y-128283304D02*
X74130504Y-128283304D01*
X74130504Y-129096104D01*
X74788485Y-128709057D02*
X75059419Y-128709057D01*
X75175533Y-128283304D02*
X74788485Y-128283304D01*
X74788485Y-129096104D01*
X75175533Y-129096104D01*
X75523876Y-128283304D02*
X75523876Y-129096104D01*
X75717400Y-129096104D01*
X75833514Y-129057400D01*
X75910923Y-128979990D01*
X75949628Y-128902580D01*
X75988333Y-128747761D01*
X75988333Y-128631647D01*
X75949628Y-128476828D01*
X75910923Y-128399419D01*
X75833514Y-128322009D01*
X75717400Y-128283304D01*
X75523876Y-128283304D01*
X76917247Y-129134809D02*
X76220561Y-128089780D01*
X77575228Y-128283304D02*
X77188180Y-128283304D01*
X77188180Y-129096104D01*
X78000980Y-129096104D02*
X78155800Y-129096104D01*
X78233209Y-129057400D01*
X78310619Y-128979990D01*
X78349323Y-128825171D01*
X78349323Y-128554238D01*
X78310619Y-128399419D01*
X78233209Y-128322009D01*
X78155800Y-128283304D01*
X78000980Y-128283304D01*
X77923571Y-128322009D01*
X77846161Y-128399419D01*
X77807457Y-128554238D01*
X77807457Y-128825171D01*
X77846161Y-128979990D01*
X77923571Y-129057400D01*
X78000980Y-129096104D01*
X78852485Y-129096104D02*
X79007304Y-129096104D01*
X79084714Y-129057400D01*
X79162123Y-128979990D01*
X79200828Y-128825171D01*
X79200828Y-128554238D01*
X79162123Y-128399419D01*
X79084714Y-128322009D01*
X79007304Y-128283304D01*
X78852485Y-128283304D01*
X78775076Y-128322009D01*
X78697666Y-128399419D01*
X78658961Y-128554238D01*
X78658961Y-128825171D01*
X78697666Y-128979990D01*
X78775076Y-129057400D01*
X78852485Y-129096104D01*
X79549171Y-128283304D02*
X79549171Y-129096104D01*
X79858809Y-129096104D01*
X79936219Y-129057400D01*
X79974923Y-129018695D01*
X80013628Y-128941285D01*
X80013628Y-128825171D01*
X79974923Y-128747761D01*
X79936219Y-128709057D01*
X79858809Y-128670352D01*
X79549171Y-128670352D01*
X81329590Y-129096104D02*
X81174771Y-129096104D01*
X81097361Y-129057400D01*
X81058657Y-129018695D01*
X80981247Y-128902580D01*
X80942542Y-128747761D01*
X80942542Y-128438123D01*
X80981247Y-128360714D01*
X81019952Y-128322009D01*
X81097361Y-128283304D01*
X81252180Y-128283304D01*
X81329590Y-128322009D01*
X81368295Y-128360714D01*
X81407000Y-128438123D01*
X81407000Y-128631647D01*
X81368295Y-128709057D01*
X81329590Y-128747761D01*
X81252180Y-128786466D01*
X81097361Y-128786466D01*
X81019952Y-128747761D01*
X80981247Y-128709057D01*
X80942542Y-128631647D01*
X74517552Y-125768704D02*
X74130504Y-125768704D01*
X74130504Y-126581504D01*
X74788485Y-126194457D02*
X75059419Y-126194457D01*
X75175533Y-125768704D02*
X74788485Y-125768704D01*
X74788485Y-126581504D01*
X75175533Y-126581504D01*
X75523876Y-125768704D02*
X75523876Y-126581504D01*
X75717400Y-126581504D01*
X75833514Y-126542800D01*
X75910923Y-126465390D01*
X75949628Y-126387980D01*
X75988333Y-126233161D01*
X75988333Y-126117047D01*
X75949628Y-125962228D01*
X75910923Y-125884819D01*
X75833514Y-125807409D01*
X75717400Y-125768704D01*
X75523876Y-125768704D01*
X76917247Y-126620209D02*
X76220561Y-125575180D01*
X77575228Y-125768704D02*
X77188180Y-125768704D01*
X77188180Y-126581504D01*
X78000980Y-126581504D02*
X78155800Y-126581504D01*
X78233209Y-126542800D01*
X78310619Y-126465390D01*
X78349323Y-126310571D01*
X78349323Y-126039638D01*
X78310619Y-125884819D01*
X78233209Y-125807409D01*
X78155800Y-125768704D01*
X78000980Y-125768704D01*
X77923571Y-125807409D01*
X77846161Y-125884819D01*
X77807457Y-126039638D01*
X77807457Y-126310571D01*
X77846161Y-126465390D01*
X77923571Y-126542800D01*
X78000980Y-126581504D01*
X78852485Y-126581504D02*
X79007304Y-126581504D01*
X79084714Y-126542800D01*
X79162123Y-126465390D01*
X79200828Y-126310571D01*
X79200828Y-126039638D01*
X79162123Y-125884819D01*
X79084714Y-125807409D01*
X79007304Y-125768704D01*
X78852485Y-125768704D01*
X78775076Y-125807409D01*
X78697666Y-125884819D01*
X78658961Y-126039638D01*
X78658961Y-126310571D01*
X78697666Y-126465390D01*
X78775076Y-126542800D01*
X78852485Y-126581504D01*
X79549171Y-125768704D02*
X79549171Y-126581504D01*
X79858809Y-126581504D01*
X79936219Y-126542800D01*
X79974923Y-126504095D01*
X80013628Y-126426685D01*
X80013628Y-126310571D01*
X79974923Y-126233161D01*
X79936219Y-126194457D01*
X79858809Y-126155752D01*
X79549171Y-126155752D01*
X81368295Y-126581504D02*
X80981247Y-126581504D01*
X80942542Y-126194457D01*
X80981247Y-126233161D01*
X81058657Y-126271866D01*
X81252180Y-126271866D01*
X81329590Y-126233161D01*
X81368295Y-126194457D01*
X81407000Y-126117047D01*
X81407000Y-125923523D01*
X81368295Y-125846114D01*
X81329590Y-125807409D01*
X81252180Y-125768704D01*
X81058657Y-125768704D01*
X80981247Y-125807409D01*
X80942542Y-125846114D01*
X74517552Y-123254104D02*
X74130504Y-123254104D01*
X74130504Y-124066904D01*
X74788485Y-123679857D02*
X75059419Y-123679857D01*
X75175533Y-123254104D02*
X74788485Y-123254104D01*
X74788485Y-124066904D01*
X75175533Y-124066904D01*
X75523876Y-123254104D02*
X75523876Y-124066904D01*
X75717400Y-124066904D01*
X75833514Y-124028200D01*
X75910923Y-123950790D01*
X75949628Y-123873380D01*
X75988333Y-123718561D01*
X75988333Y-123602447D01*
X75949628Y-123447628D01*
X75910923Y-123370219D01*
X75833514Y-123292809D01*
X75717400Y-123254104D01*
X75523876Y-123254104D01*
X76917247Y-124105609D02*
X76220561Y-123060580D01*
X77575228Y-123254104D02*
X77188180Y-123254104D01*
X77188180Y-124066904D01*
X78000980Y-124066904D02*
X78155800Y-124066904D01*
X78233209Y-124028200D01*
X78310619Y-123950790D01*
X78349323Y-123795971D01*
X78349323Y-123525038D01*
X78310619Y-123370219D01*
X78233209Y-123292809D01*
X78155800Y-123254104D01*
X78000980Y-123254104D01*
X77923571Y-123292809D01*
X77846161Y-123370219D01*
X77807457Y-123525038D01*
X77807457Y-123795971D01*
X77846161Y-123950790D01*
X77923571Y-124028200D01*
X78000980Y-124066904D01*
X78852485Y-124066904D02*
X79007304Y-124066904D01*
X79084714Y-124028200D01*
X79162123Y-123950790D01*
X79200828Y-123795971D01*
X79200828Y-123525038D01*
X79162123Y-123370219D01*
X79084714Y-123292809D01*
X79007304Y-123254104D01*
X78852485Y-123254104D01*
X78775076Y-123292809D01*
X78697666Y-123370219D01*
X78658961Y-123525038D01*
X78658961Y-123795971D01*
X78697666Y-123950790D01*
X78775076Y-124028200D01*
X78852485Y-124066904D01*
X79549171Y-123254104D02*
X79549171Y-124066904D01*
X79858809Y-124066904D01*
X79936219Y-124028200D01*
X79974923Y-123989495D01*
X80013628Y-123912085D01*
X80013628Y-123795971D01*
X79974923Y-123718561D01*
X79936219Y-123679857D01*
X79858809Y-123641152D01*
X79549171Y-123641152D01*
X81329590Y-123795971D02*
X81329590Y-123254104D01*
X81136066Y-124105609D02*
X80942542Y-123525038D01*
X81445704Y-123525038D01*
X74517552Y-120637904D02*
X74130504Y-120637904D01*
X74130504Y-121450704D01*
X74788485Y-121063657D02*
X75059419Y-121063657D01*
X75175533Y-120637904D02*
X74788485Y-120637904D01*
X74788485Y-121450704D01*
X75175533Y-121450704D01*
X75523876Y-120637904D02*
X75523876Y-121450704D01*
X75717400Y-121450704D01*
X75833514Y-121412000D01*
X75910923Y-121334590D01*
X75949628Y-121257180D01*
X75988333Y-121102361D01*
X75988333Y-120986247D01*
X75949628Y-120831428D01*
X75910923Y-120754019D01*
X75833514Y-120676609D01*
X75717400Y-120637904D01*
X75523876Y-120637904D01*
X76917247Y-121489409D02*
X76220561Y-120444380D01*
X77575228Y-120637904D02*
X77188180Y-120637904D01*
X77188180Y-121450704D01*
X78000980Y-121450704D02*
X78155800Y-121450704D01*
X78233209Y-121412000D01*
X78310619Y-121334590D01*
X78349323Y-121179771D01*
X78349323Y-120908838D01*
X78310619Y-120754019D01*
X78233209Y-120676609D01*
X78155800Y-120637904D01*
X78000980Y-120637904D01*
X77923571Y-120676609D01*
X77846161Y-120754019D01*
X77807457Y-120908838D01*
X77807457Y-121179771D01*
X77846161Y-121334590D01*
X77923571Y-121412000D01*
X78000980Y-121450704D01*
X78852485Y-121450704D02*
X79007304Y-121450704D01*
X79084714Y-121412000D01*
X79162123Y-121334590D01*
X79200828Y-121179771D01*
X79200828Y-120908838D01*
X79162123Y-120754019D01*
X79084714Y-120676609D01*
X79007304Y-120637904D01*
X78852485Y-120637904D01*
X78775076Y-120676609D01*
X78697666Y-120754019D01*
X78658961Y-120908838D01*
X78658961Y-121179771D01*
X78697666Y-121334590D01*
X78775076Y-121412000D01*
X78852485Y-121450704D01*
X79549171Y-120637904D02*
X79549171Y-121450704D01*
X79858809Y-121450704D01*
X79936219Y-121412000D01*
X79974923Y-121373295D01*
X80013628Y-121295885D01*
X80013628Y-121179771D01*
X79974923Y-121102361D01*
X79936219Y-121063657D01*
X79858809Y-121024952D01*
X79549171Y-121024952D01*
X80903838Y-121450704D02*
X81407000Y-121450704D01*
X81136066Y-121141066D01*
X81252180Y-121141066D01*
X81329590Y-121102361D01*
X81368295Y-121063657D01*
X81407000Y-120986247D01*
X81407000Y-120792723D01*
X81368295Y-120715314D01*
X81329590Y-120676609D01*
X81252180Y-120637904D01*
X81019952Y-120637904D01*
X80942542Y-120676609D01*
X80903838Y-120715314D01*
X74492152Y-118199504D02*
X74105104Y-118199504D01*
X74105104Y-119012304D01*
X74763085Y-118625257D02*
X75034019Y-118625257D01*
X75150133Y-118199504D02*
X74763085Y-118199504D01*
X74763085Y-119012304D01*
X75150133Y-119012304D01*
X75498476Y-118199504D02*
X75498476Y-119012304D01*
X75692000Y-119012304D01*
X75808114Y-118973600D01*
X75885523Y-118896190D01*
X75924228Y-118818780D01*
X75962933Y-118663961D01*
X75962933Y-118547847D01*
X75924228Y-118393028D01*
X75885523Y-118315619D01*
X75808114Y-118238209D01*
X75692000Y-118199504D01*
X75498476Y-118199504D01*
X76891847Y-119051009D02*
X76195161Y-118005980D01*
X77549828Y-118199504D02*
X77162780Y-118199504D01*
X77162780Y-119012304D01*
X77975580Y-119012304D02*
X78130400Y-119012304D01*
X78207809Y-118973600D01*
X78285219Y-118896190D01*
X78323923Y-118741371D01*
X78323923Y-118470438D01*
X78285219Y-118315619D01*
X78207809Y-118238209D01*
X78130400Y-118199504D01*
X77975580Y-118199504D01*
X77898171Y-118238209D01*
X77820761Y-118315619D01*
X77782057Y-118470438D01*
X77782057Y-118741371D01*
X77820761Y-118896190D01*
X77898171Y-118973600D01*
X77975580Y-119012304D01*
X78827085Y-119012304D02*
X78981904Y-119012304D01*
X79059314Y-118973600D01*
X79136723Y-118896190D01*
X79175428Y-118741371D01*
X79175428Y-118470438D01*
X79136723Y-118315619D01*
X79059314Y-118238209D01*
X78981904Y-118199504D01*
X78827085Y-118199504D01*
X78749676Y-118238209D01*
X78672266Y-118315619D01*
X78633561Y-118470438D01*
X78633561Y-118741371D01*
X78672266Y-118896190D01*
X78749676Y-118973600D01*
X78827085Y-119012304D01*
X79523771Y-118199504D02*
X79523771Y-119012304D01*
X79833409Y-119012304D01*
X79910819Y-118973600D01*
X79949523Y-118934895D01*
X79988228Y-118857485D01*
X79988228Y-118741371D01*
X79949523Y-118663961D01*
X79910819Y-118625257D01*
X79833409Y-118586552D01*
X79523771Y-118586552D01*
X80917142Y-118934895D02*
X80955847Y-118973600D01*
X81033257Y-119012304D01*
X81226780Y-119012304D01*
X81304190Y-118973600D01*
X81342895Y-118934895D01*
X81381600Y-118857485D01*
X81381600Y-118780076D01*
X81342895Y-118663961D01*
X80878438Y-118199504D01*
X81381600Y-118199504D01*
X74118409Y-115805857D02*
X74389342Y-115805857D01*
X74505457Y-115380104D02*
X74118409Y-115380104D01*
X74118409Y-116192904D01*
X74505457Y-116192904D01*
X75124733Y-115805857D02*
X74853800Y-115805857D01*
X74853800Y-115380104D02*
X74853800Y-116192904D01*
X75240847Y-116192904D01*
X75821419Y-115805857D02*
X75550485Y-115805857D01*
X75550485Y-115380104D02*
X75550485Y-116192904D01*
X75937533Y-116192904D01*
X76247171Y-115805857D02*
X76518104Y-115805857D01*
X76634219Y-115380104D02*
X76247171Y-115380104D01*
X76247171Y-116192904D01*
X76634219Y-116192904D01*
X77447019Y-115457514D02*
X77408314Y-115418809D01*
X77292200Y-115380104D01*
X77214790Y-115380104D01*
X77098676Y-115418809D01*
X77021266Y-115496219D01*
X76982561Y-115573628D01*
X76943857Y-115728447D01*
X76943857Y-115844561D01*
X76982561Y-115999380D01*
X77021266Y-116076790D01*
X77098676Y-116154200D01*
X77214790Y-116192904D01*
X77292200Y-116192904D01*
X77408314Y-116154200D01*
X77447019Y-116115495D01*
X77679247Y-116192904D02*
X78143704Y-116192904D01*
X77911476Y-115380104D02*
X77911476Y-116192904D01*
X74517552Y-113094104D02*
X74130504Y-113094104D01*
X74130504Y-113906904D01*
X74788485Y-113519857D02*
X75059419Y-113519857D01*
X75175533Y-113094104D02*
X74788485Y-113094104D01*
X74788485Y-113906904D01*
X75175533Y-113906904D01*
X75523876Y-113094104D02*
X75523876Y-113906904D01*
X75717400Y-113906904D01*
X75833514Y-113868200D01*
X75910923Y-113790790D01*
X75949628Y-113713380D01*
X75988333Y-113558561D01*
X75988333Y-113442447D01*
X75949628Y-113287628D01*
X75910923Y-113210219D01*
X75833514Y-113132809D01*
X75717400Y-113094104D01*
X75523876Y-113094104D01*
X76917247Y-113945609D02*
X76220561Y-112900580D01*
X77575228Y-113094104D02*
X77188180Y-113094104D01*
X77188180Y-113906904D01*
X78000980Y-113906904D02*
X78155800Y-113906904D01*
X78233209Y-113868200D01*
X78310619Y-113790790D01*
X78349323Y-113635971D01*
X78349323Y-113365038D01*
X78310619Y-113210219D01*
X78233209Y-113132809D01*
X78155800Y-113094104D01*
X78000980Y-113094104D01*
X77923571Y-113132809D01*
X77846161Y-113210219D01*
X77807457Y-113365038D01*
X77807457Y-113635971D01*
X77846161Y-113790790D01*
X77923571Y-113868200D01*
X78000980Y-113906904D01*
X78852485Y-113906904D02*
X79007304Y-113906904D01*
X79084714Y-113868200D01*
X79162123Y-113790790D01*
X79200828Y-113635971D01*
X79200828Y-113365038D01*
X79162123Y-113210219D01*
X79084714Y-113132809D01*
X79007304Y-113094104D01*
X78852485Y-113094104D01*
X78775076Y-113132809D01*
X78697666Y-113210219D01*
X78658961Y-113365038D01*
X78658961Y-113635971D01*
X78697666Y-113790790D01*
X78775076Y-113868200D01*
X78852485Y-113906904D01*
X79549171Y-113094104D02*
X79549171Y-113906904D01*
X79858809Y-113906904D01*
X79936219Y-113868200D01*
X79974923Y-113829495D01*
X80013628Y-113752085D01*
X80013628Y-113635971D01*
X79974923Y-113558561D01*
X79936219Y-113519857D01*
X79858809Y-113481152D01*
X79549171Y-113481152D01*
X81407000Y-113094104D02*
X80942542Y-113094104D01*
X81174771Y-113094104D02*
X81174771Y-113906904D01*
X81097361Y-113790790D01*
X81019952Y-113713380D01*
X80942542Y-113674676D01*
X74517552Y-110401704D02*
X74130504Y-110401704D01*
X74130504Y-111214504D01*
X74788485Y-110827457D02*
X75059419Y-110827457D01*
X75175533Y-110401704D02*
X74788485Y-110401704D01*
X74788485Y-111214504D01*
X75175533Y-111214504D01*
X75523876Y-110401704D02*
X75523876Y-111214504D01*
X75717400Y-111214504D01*
X75833514Y-111175800D01*
X75910923Y-111098390D01*
X75949628Y-111020980D01*
X75988333Y-110866161D01*
X75988333Y-110750047D01*
X75949628Y-110595228D01*
X75910923Y-110517819D01*
X75833514Y-110440409D01*
X75717400Y-110401704D01*
X75523876Y-110401704D01*
X76917247Y-111253209D02*
X76220561Y-110208180D01*
X77575228Y-110401704D02*
X77188180Y-110401704D01*
X77188180Y-111214504D01*
X78000980Y-111214504D02*
X78155800Y-111214504D01*
X78233209Y-111175800D01*
X78310619Y-111098390D01*
X78349323Y-110943571D01*
X78349323Y-110672638D01*
X78310619Y-110517819D01*
X78233209Y-110440409D01*
X78155800Y-110401704D01*
X78000980Y-110401704D01*
X77923571Y-110440409D01*
X77846161Y-110517819D01*
X77807457Y-110672638D01*
X77807457Y-110943571D01*
X77846161Y-111098390D01*
X77923571Y-111175800D01*
X78000980Y-111214504D01*
X78852485Y-111214504D02*
X79007304Y-111214504D01*
X79084714Y-111175800D01*
X79162123Y-111098390D01*
X79200828Y-110943571D01*
X79200828Y-110672638D01*
X79162123Y-110517819D01*
X79084714Y-110440409D01*
X79007304Y-110401704D01*
X78852485Y-110401704D01*
X78775076Y-110440409D01*
X78697666Y-110517819D01*
X78658961Y-110672638D01*
X78658961Y-110943571D01*
X78697666Y-111098390D01*
X78775076Y-111175800D01*
X78852485Y-111214504D01*
X79549171Y-110401704D02*
X79549171Y-111214504D01*
X79858809Y-111214504D01*
X79936219Y-111175800D01*
X79974923Y-111137095D01*
X80013628Y-111059685D01*
X80013628Y-110943571D01*
X79974923Y-110866161D01*
X79936219Y-110827457D01*
X79858809Y-110788752D01*
X79549171Y-110788752D01*
X81136066Y-111214504D02*
X81213476Y-111214504D01*
X81290885Y-111175800D01*
X81329590Y-111137095D01*
X81368295Y-111059685D01*
X81407000Y-110904866D01*
X81407000Y-110711342D01*
X81368295Y-110556523D01*
X81329590Y-110479114D01*
X81290885Y-110440409D01*
X81213476Y-110401704D01*
X81136066Y-110401704D01*
X81058657Y-110440409D01*
X81019952Y-110479114D01*
X80981247Y-110556523D01*
X80942542Y-110711342D01*
X80942542Y-110904866D01*
X80981247Y-111059685D01*
X81019952Y-111137095D01*
X81058657Y-111175800D01*
X81136066Y-111214504D01*
X74638504Y-149008495D02*
X74638504Y-149472952D01*
X74638504Y-149240723D02*
X75451304Y-149240723D01*
X75335190Y-149318133D01*
X75257780Y-149395542D01*
X75219076Y-149472952D01*
X75451304Y-148505333D02*
X75451304Y-148427923D01*
X75412600Y-148350514D01*
X75373895Y-148311809D01*
X75296485Y-148273104D01*
X75141666Y-148234400D01*
X74948142Y-148234400D01*
X74793323Y-148273104D01*
X74715914Y-148311809D01*
X74677209Y-148350514D01*
X74638504Y-148427923D01*
X74638504Y-148505333D01*
X74677209Y-148582742D01*
X74715914Y-148621447D01*
X74793323Y-148660152D01*
X74948142Y-148698857D01*
X75141666Y-148698857D01*
X75296485Y-148660152D01*
X75373895Y-148621447D01*
X75412600Y-148582742D01*
X75451304Y-148505333D01*
X74638504Y-147886057D02*
X75451304Y-147886057D01*
X74638504Y-147421600D02*
X75102961Y-147769942D01*
X75451304Y-147421600D02*
X74986847Y-147886057D01*
X74638504Y-146453980D02*
X75451304Y-146453980D01*
X75451304Y-146144342D01*
X75412600Y-146066933D01*
X75373895Y-146028228D01*
X75296485Y-145989523D01*
X75180371Y-145989523D01*
X75102961Y-146028228D01*
X75064257Y-146066933D01*
X75025552Y-146144342D01*
X75025552Y-146453980D01*
X75451304Y-145486361D02*
X75451304Y-145331542D01*
X75412600Y-145254133D01*
X75335190Y-145176723D01*
X75180371Y-145138019D01*
X74909438Y-145138019D01*
X74754619Y-145176723D01*
X74677209Y-145254133D01*
X74638504Y-145331542D01*
X74638504Y-145486361D01*
X74677209Y-145563771D01*
X74754619Y-145641180D01*
X74909438Y-145679885D01*
X75180371Y-145679885D01*
X75335190Y-145641180D01*
X75412600Y-145563771D01*
X75451304Y-145486361D01*
X75451304Y-144905790D02*
X75451304Y-144441333D01*
X74638504Y-144673561D02*
X75451304Y-144673561D01*
X74677209Y-144209104D02*
X74638504Y-144092990D01*
X74638504Y-143899466D01*
X74677209Y-143822057D01*
X74715914Y-143783352D01*
X74793323Y-143744647D01*
X74870733Y-143744647D01*
X74948142Y-143783352D01*
X74986847Y-143822057D01*
X75025552Y-143899466D01*
X75064257Y-144054285D01*
X75102961Y-144131695D01*
X75141666Y-144170400D01*
X75219076Y-144209104D01*
X75296485Y-144209104D01*
X75373895Y-144170400D01*
X75412600Y-144131695D01*
X75451304Y-144054285D01*
X75451304Y-143860761D01*
X75412600Y-143744647D01*
X74994104Y-175477714D02*
X75806904Y-175477714D01*
X75806904Y-175168076D01*
X75768200Y-175090666D01*
X75729495Y-175051961D01*
X75652085Y-175013257D01*
X75535971Y-175013257D01*
X75458561Y-175051961D01*
X75419857Y-175090666D01*
X75381152Y-175168076D01*
X75381152Y-175477714D01*
X74994104Y-174239161D02*
X74994104Y-174703619D01*
X74994104Y-174471390D02*
X75806904Y-174471390D01*
X75690790Y-174548800D01*
X75613380Y-174626209D01*
X75574676Y-174703619D01*
X75806904Y-173542476D02*
X75806904Y-173697295D01*
X75768200Y-173774704D01*
X75729495Y-173813409D01*
X75613380Y-173890819D01*
X75458561Y-173929523D01*
X75148923Y-173929523D01*
X75071514Y-173890819D01*
X75032809Y-173852114D01*
X74994104Y-173774704D01*
X74994104Y-173619885D01*
X75032809Y-173542476D01*
X75071514Y-173503771D01*
X75148923Y-173465066D01*
X75342447Y-173465066D01*
X75419857Y-173503771D01*
X75458561Y-173542476D01*
X75497266Y-173619885D01*
X75497266Y-173774704D01*
X75458561Y-173852114D01*
X75419857Y-173890819D01*
X75342447Y-173929523D01*
X75535971Y-172768380D02*
X74994104Y-172768380D01*
X75845609Y-172961904D02*
X75265038Y-173155428D01*
X75265038Y-172652266D01*
X75419857Y-171452419D02*
X75419857Y-171723352D01*
X74994104Y-171723352D02*
X75806904Y-171723352D01*
X75806904Y-171336304D01*
X75226333Y-171065371D02*
X75226333Y-170678323D01*
X74994104Y-171142780D02*
X75806904Y-170871847D01*
X74994104Y-170600914D01*
X74994104Y-170329980D02*
X75806904Y-170329980D01*
X75806904Y-170136457D01*
X75768200Y-170020342D01*
X75690790Y-169942933D01*
X75613380Y-169904228D01*
X75458561Y-169865523D01*
X75342447Y-169865523D01*
X75187628Y-169904228D01*
X75110219Y-169942933D01*
X75032809Y-170020342D01*
X74994104Y-170136457D01*
X74994104Y-170329980D01*
X75419857Y-169517180D02*
X75419857Y-169246247D01*
X74994104Y-169130133D02*
X74994104Y-169517180D01*
X75806904Y-169517180D01*
X75806904Y-169130133D01*
X74994104Y-168317333D02*
X75381152Y-168588266D01*
X74994104Y-168781790D02*
X75806904Y-168781790D01*
X75806904Y-168472152D01*
X75768200Y-168394742D01*
X75729495Y-168356038D01*
X75652085Y-168317333D01*
X75535971Y-168317333D01*
X75458561Y-168356038D01*
X75419857Y-168394742D01*
X75381152Y-168472152D01*
X75381152Y-168781790D01*
X74994104Y-167349714D02*
X75806904Y-167349714D01*
X75806904Y-167040076D01*
X75768200Y-166962666D01*
X75729495Y-166923961D01*
X75652085Y-166885257D01*
X75535971Y-166885257D01*
X75458561Y-166923961D01*
X75419857Y-166962666D01*
X75381152Y-167040076D01*
X75381152Y-167349714D01*
X75806904Y-166382095D02*
X75806904Y-166227276D01*
X75768200Y-166149866D01*
X75690790Y-166072457D01*
X75535971Y-166033752D01*
X75265038Y-166033752D01*
X75110219Y-166072457D01*
X75032809Y-166149866D01*
X74994104Y-166227276D01*
X74994104Y-166382095D01*
X75032809Y-166459504D01*
X75110219Y-166536914D01*
X75265038Y-166575619D01*
X75535971Y-166575619D01*
X75690790Y-166536914D01*
X75768200Y-166459504D01*
X75806904Y-166382095D01*
X75806904Y-165801523D02*
X75806904Y-165337066D01*
X74994104Y-165569295D02*
X75806904Y-165569295D01*
X75032809Y-165104838D02*
X74994104Y-164988723D01*
X74994104Y-164795200D01*
X75032809Y-164717790D01*
X75071514Y-164679085D01*
X75148923Y-164640380D01*
X75226333Y-164640380D01*
X75303742Y-164679085D01*
X75342447Y-164717790D01*
X75381152Y-164795200D01*
X75419857Y-164950019D01*
X75458561Y-165027428D01*
X75497266Y-165066133D01*
X75574676Y-165104838D01*
X75652085Y-165104838D01*
X75729495Y-165066133D01*
X75768200Y-165027428D01*
X75806904Y-164950019D01*
X75806904Y-164756495D01*
X75768200Y-164640380D01*
X82851171Y-74363942D02*
X83470447Y-74363942D01*
X83160809Y-74054304D02*
X83160809Y-74673580D01*
X84244542Y-74867104D02*
X83857495Y-74867104D01*
X83818790Y-74480057D01*
X83857495Y-74518761D01*
X83934904Y-74557466D01*
X84128428Y-74557466D01*
X84205838Y-74518761D01*
X84244542Y-74480057D01*
X84283247Y-74402647D01*
X84283247Y-74209123D01*
X84244542Y-74131714D01*
X84205838Y-74093009D01*
X84128428Y-74054304D01*
X83934904Y-74054304D01*
X83857495Y-74093009D01*
X83818790Y-74131714D01*
X84515476Y-74867104D02*
X84786409Y-74054304D01*
X85057342Y-74867104D01*
X234099100Y-48724457D02*
X233479823Y-48724457D01*
X233789461Y-49034095D02*
X233789461Y-48414819D01*
X233170185Y-48221295D02*
X232667023Y-48221295D01*
X232937957Y-48530933D01*
X232821842Y-48530933D01*
X232744433Y-48569638D01*
X232705728Y-48608342D01*
X232667023Y-48685752D01*
X232667023Y-48879276D01*
X232705728Y-48956685D01*
X232744433Y-48995390D01*
X232821842Y-49034095D01*
X233054071Y-49034095D01*
X233131480Y-48995390D01*
X233170185Y-48956685D01*
X232318680Y-48956685D02*
X232279976Y-48995390D01*
X232318680Y-49034095D01*
X232357385Y-48995390D01*
X232318680Y-48956685D01*
X232318680Y-49034095D01*
X232009042Y-48221295D02*
X231505880Y-48221295D01*
X231776814Y-48530933D01*
X231660700Y-48530933D01*
X231583290Y-48569638D01*
X231544585Y-48608342D01*
X231505880Y-48685752D01*
X231505880Y-48879276D01*
X231544585Y-48956685D01*
X231583290Y-48995390D01*
X231660700Y-49034095D01*
X231892928Y-49034095D01*
X231970338Y-48995390D01*
X232009042Y-48956685D01*
X231273652Y-48221295D02*
X231002719Y-49034095D01*
X230731785Y-48221295D01*
X86185828Y-186347704D02*
X86185828Y-187160504D01*
X86534171Y-187083095D02*
X86572876Y-187121800D01*
X86650285Y-187160504D01*
X86843809Y-187160504D01*
X86921219Y-187121800D01*
X86959923Y-187083095D01*
X86998628Y-187005685D01*
X86998628Y-186928276D01*
X86959923Y-186812161D01*
X86495466Y-186347704D01*
X86998628Y-186347704D01*
X87811428Y-186425114D02*
X87772723Y-186386409D01*
X87656609Y-186347704D01*
X87579200Y-186347704D01*
X87463085Y-186386409D01*
X87385676Y-186463819D01*
X87346971Y-186541228D01*
X87308266Y-186696047D01*
X87308266Y-186812161D01*
X87346971Y-186966980D01*
X87385676Y-187044390D01*
X87463085Y-187121800D01*
X87579200Y-187160504D01*
X87656609Y-187160504D01*
X87772723Y-187121800D01*
X87811428Y-187083095D01*
X88779047Y-186347704D02*
X88779047Y-187160504D01*
X88779047Y-186773457D02*
X89243504Y-186773457D01*
X89243504Y-186347704D02*
X89243504Y-187160504D01*
X89630552Y-186773457D02*
X89901485Y-186773457D01*
X90017600Y-186347704D02*
X89630552Y-186347704D01*
X89630552Y-187160504D01*
X90017600Y-187160504D01*
X90327238Y-186579933D02*
X90714285Y-186579933D01*
X90249828Y-186347704D02*
X90520761Y-187160504D01*
X90791695Y-186347704D01*
X91062628Y-186347704D02*
X91062628Y-187160504D01*
X91256152Y-187160504D01*
X91372266Y-187121800D01*
X91449676Y-187044390D01*
X91488380Y-186966980D01*
X91527085Y-186812161D01*
X91527085Y-186696047D01*
X91488380Y-186541228D01*
X91449676Y-186463819D01*
X91372266Y-186386409D01*
X91256152Y-186347704D01*
X91062628Y-186347704D01*
X91875428Y-186773457D02*
X92146361Y-186773457D01*
X92262476Y-186347704D02*
X91875428Y-186347704D01*
X91875428Y-187160504D01*
X92262476Y-187160504D01*
X93075276Y-186347704D02*
X92804342Y-186734752D01*
X92610819Y-186347704D02*
X92610819Y-187160504D01*
X92920457Y-187160504D01*
X92997866Y-187121800D01*
X93036571Y-187083095D01*
X93075276Y-187005685D01*
X93075276Y-186889571D01*
X93036571Y-186812161D01*
X92997866Y-186773457D01*
X92920457Y-186734752D01*
X92610819Y-186734752D01*
X225069400Y-189262657D02*
X224450123Y-189262657D01*
X224759761Y-189572295D02*
X224759761Y-188953019D01*
X224140485Y-188759495D02*
X223637323Y-188759495D01*
X223908257Y-189069133D01*
X223792142Y-189069133D01*
X223714733Y-189107838D01*
X223676028Y-189146542D01*
X223637323Y-189223952D01*
X223637323Y-189417476D01*
X223676028Y-189494885D01*
X223714733Y-189533590D01*
X223792142Y-189572295D01*
X224024371Y-189572295D01*
X224101780Y-189533590D01*
X224140485Y-189494885D01*
X223288980Y-189494885D02*
X223250276Y-189533590D01*
X223288980Y-189572295D01*
X223327685Y-189533590D01*
X223288980Y-189494885D01*
X223288980Y-189572295D01*
X222979342Y-188759495D02*
X222476180Y-188759495D01*
X222747114Y-189069133D01*
X222631000Y-189069133D01*
X222553590Y-189107838D01*
X222514885Y-189146542D01*
X222476180Y-189223952D01*
X222476180Y-189417476D01*
X222514885Y-189494885D01*
X222553590Y-189533590D01*
X222631000Y-189572295D01*
X222863228Y-189572295D01*
X222940638Y-189533590D01*
X222979342Y-189494885D01*
X222243952Y-188759495D02*
X221973019Y-189572295D01*
X221702085Y-188759495D01*
X78384400Y-88729457D02*
X77765123Y-88729457D01*
X78074761Y-89039095D02*
X78074761Y-88419819D01*
X77455485Y-88226295D02*
X76952323Y-88226295D01*
X77223257Y-88535933D01*
X77107142Y-88535933D01*
X77029733Y-88574638D01*
X76991028Y-88613342D01*
X76952323Y-88690752D01*
X76952323Y-88884276D01*
X76991028Y-88961685D01*
X77029733Y-89000390D01*
X77107142Y-89039095D01*
X77339371Y-89039095D01*
X77416780Y-89000390D01*
X77455485Y-88961685D01*
X76603980Y-88961685D02*
X76565276Y-89000390D01*
X76603980Y-89039095D01*
X76642685Y-89000390D01*
X76603980Y-88961685D01*
X76603980Y-89039095D01*
X76294342Y-88226295D02*
X75791180Y-88226295D01*
X76062114Y-88535933D01*
X75946000Y-88535933D01*
X75868590Y-88574638D01*
X75829885Y-88613342D01*
X75791180Y-88690752D01*
X75791180Y-88884276D01*
X75829885Y-88961685D01*
X75868590Y-89000390D01*
X75946000Y-89039095D01*
X76178228Y-89039095D01*
X76255638Y-89000390D01*
X76294342Y-88961685D01*
X75558952Y-88226295D02*
X75288019Y-89039095D01*
X75017085Y-88226295D01*
X66199657Y-72322871D02*
X66199657Y-72942147D01*
X66509295Y-72632509D02*
X65890019Y-72632509D01*
X65696495Y-73716242D02*
X65696495Y-73329195D01*
X66083542Y-73290490D01*
X66044838Y-73329195D01*
X66006133Y-73406604D01*
X66006133Y-73600128D01*
X66044838Y-73677538D01*
X66083542Y-73716242D01*
X66160952Y-73754947D01*
X66354476Y-73754947D01*
X66431885Y-73716242D01*
X66470590Y-73677538D01*
X66509295Y-73600128D01*
X66509295Y-73406604D01*
X66470590Y-73329195D01*
X66431885Y-73290490D01*
X65696495Y-73987176D02*
X66509295Y-74258109D01*
X65696495Y-74529042D01*
X61022895Y-76868866D02*
X61835695Y-77139800D01*
X61022895Y-77410733D01*
X61409942Y-77952600D02*
X61448647Y-78068714D01*
X61487352Y-78107419D01*
X61564761Y-78146123D01*
X61680876Y-78146123D01*
X61758285Y-78107419D01*
X61796990Y-78068714D01*
X61835695Y-77991304D01*
X61835695Y-77681666D01*
X61022895Y-77681666D01*
X61022895Y-77952600D01*
X61061600Y-78030009D01*
X61100304Y-78068714D01*
X61177714Y-78107419D01*
X61255123Y-78107419D01*
X61332533Y-78068714D01*
X61371238Y-78030009D01*
X61409942Y-77952600D01*
X61409942Y-77681666D01*
X61022895Y-78494466D02*
X61680876Y-78494466D01*
X61758285Y-78533171D01*
X61796990Y-78571876D01*
X61835695Y-78649285D01*
X61835695Y-78804104D01*
X61796990Y-78881514D01*
X61758285Y-78920219D01*
X61680876Y-78958923D01*
X61022895Y-78958923D01*
X61796990Y-79307266D02*
X61835695Y-79423380D01*
X61835695Y-79616904D01*
X61796990Y-79694314D01*
X61758285Y-79733019D01*
X61680876Y-79771723D01*
X61603466Y-79771723D01*
X61526057Y-79733019D01*
X61487352Y-79694314D01*
X61448647Y-79616904D01*
X61409942Y-79462085D01*
X61371238Y-79384676D01*
X61332533Y-79345971D01*
X61255123Y-79307266D01*
X61177714Y-79307266D01*
X61100304Y-79345971D01*
X61061600Y-79384676D01*
X61022895Y-79462085D01*
X61022895Y-79655609D01*
X61061600Y-79771723D01*
X172550666Y-151421495D02*
X172550666Y-152002066D01*
X172589371Y-152118180D01*
X172666780Y-152195590D01*
X172782895Y-152234295D01*
X172860304Y-152234295D01*
X172279733Y-151421495D02*
X171815276Y-151421495D01*
X172047504Y-152234295D02*
X172047504Y-151421495D01*
X171583047Y-152002066D02*
X171196000Y-152002066D01*
X171660457Y-152234295D02*
X171389523Y-151421495D01*
X171118590Y-152234295D01*
X170421904Y-151460200D02*
X170499314Y-151421495D01*
X170615428Y-151421495D01*
X170731542Y-151460200D01*
X170808952Y-151537609D01*
X170847657Y-151615019D01*
X170886361Y-151769838D01*
X170886361Y-151885952D01*
X170847657Y-152040771D01*
X170808952Y-152118180D01*
X170731542Y-152195590D01*
X170615428Y-152234295D01*
X170538019Y-152234295D01*
X170421904Y-152195590D01*
X170383200Y-152156885D01*
X170383200Y-151885952D01*
X170538019Y-151885952D01*
X187173204Y-137605104D02*
X186902271Y-137992152D01*
X186708747Y-137605104D02*
X186708747Y-138417904D01*
X187018385Y-138417904D01*
X187095795Y-138379200D01*
X187134500Y-138340495D01*
X187173204Y-138263085D01*
X187173204Y-138146971D01*
X187134500Y-138069561D01*
X187095795Y-138030857D01*
X187018385Y-137992152D01*
X186708747Y-137992152D01*
X187521547Y-138030857D02*
X187792480Y-138030857D01*
X187908595Y-137605104D02*
X187521547Y-137605104D01*
X187521547Y-138417904D01*
X187908595Y-138417904D01*
X188218233Y-137643809D02*
X188334347Y-137605104D01*
X188527871Y-137605104D01*
X188605280Y-137643809D01*
X188643985Y-137682514D01*
X188682690Y-137759923D01*
X188682690Y-137837333D01*
X188643985Y-137914742D01*
X188605280Y-137953447D01*
X188527871Y-137992152D01*
X188373052Y-138030857D01*
X188295642Y-138069561D01*
X188256938Y-138108266D01*
X188218233Y-138185676D01*
X188218233Y-138263085D01*
X188256938Y-138340495D01*
X188295642Y-138379200D01*
X188373052Y-138417904D01*
X188566576Y-138417904D01*
X188682690Y-138379200D01*
X189031033Y-138030857D02*
X189301966Y-138030857D01*
X189418080Y-137605104D02*
X189031033Y-137605104D01*
X189031033Y-138417904D01*
X189418080Y-138417904D01*
X189650309Y-138417904D02*
X190114766Y-138417904D01*
X189882538Y-137605104D02*
X189882538Y-138417904D01*
X131948161Y-104432704D02*
X131677228Y-104819752D01*
X131483704Y-104432704D02*
X131483704Y-105245504D01*
X131793342Y-105245504D01*
X131870752Y-105206800D01*
X131909457Y-105168095D01*
X131948161Y-105090685D01*
X131948161Y-104974571D01*
X131909457Y-104897161D01*
X131870752Y-104858457D01*
X131793342Y-104819752D01*
X131483704Y-104819752D01*
X132296504Y-104858457D02*
X132567438Y-104858457D01*
X132683552Y-104432704D02*
X132296504Y-104432704D01*
X132296504Y-105245504D01*
X132683552Y-105245504D01*
X133031895Y-104432704D02*
X133031895Y-105245504D01*
X133225419Y-105245504D01*
X133341533Y-105206800D01*
X133418942Y-105129390D01*
X133457647Y-105051980D01*
X133496352Y-104897161D01*
X133496352Y-104781047D01*
X133457647Y-104626228D01*
X133418942Y-104548819D01*
X133341533Y-104471409D01*
X133225419Y-104432704D01*
X133031895Y-104432704D01*
X134851019Y-104432704D02*
X134463971Y-104432704D01*
X134463971Y-105245504D01*
X135121952Y-104858457D02*
X135392885Y-104858457D01*
X135509000Y-104432704D02*
X135121952Y-104432704D01*
X135121952Y-105245504D01*
X135509000Y-105245504D01*
X135857342Y-104432704D02*
X135857342Y-105245504D01*
X136050866Y-105245504D01*
X136166980Y-105206800D01*
X136244390Y-105129390D01*
X136283095Y-105051980D01*
X136321800Y-104897161D01*
X136321800Y-104781047D01*
X136283095Y-104626228D01*
X136244390Y-104548819D01*
X136166980Y-104471409D01*
X136050866Y-104432704D01*
X135857342Y-104432704D01*
X147445790Y-104495600D02*
X147523200Y-104456895D01*
X147639314Y-104456895D01*
X147755428Y-104495600D01*
X147832838Y-104573009D01*
X147871542Y-104650419D01*
X147910247Y-104805238D01*
X147910247Y-104921352D01*
X147871542Y-105076171D01*
X147832838Y-105153580D01*
X147755428Y-105230990D01*
X147639314Y-105269695D01*
X147561904Y-105269695D01*
X147445790Y-105230990D01*
X147407085Y-105192285D01*
X147407085Y-104921352D01*
X147561904Y-104921352D01*
X146594285Y-105269695D02*
X146865219Y-104882647D01*
X147058742Y-105269695D02*
X147058742Y-104456895D01*
X146749104Y-104456895D01*
X146671695Y-104495600D01*
X146632990Y-104534304D01*
X146594285Y-104611714D01*
X146594285Y-104727828D01*
X146632990Y-104805238D01*
X146671695Y-104843942D01*
X146749104Y-104882647D01*
X147058742Y-104882647D01*
X146245942Y-104843942D02*
X145975009Y-104843942D01*
X145858895Y-105269695D02*
X146245942Y-105269695D01*
X146245942Y-104456895D01*
X145858895Y-104456895D01*
X145510552Y-104843942D02*
X145239619Y-104843942D01*
X145123504Y-105269695D02*
X145510552Y-105269695D01*
X145510552Y-104456895D01*
X145123504Y-104456895D01*
X144775161Y-105269695D02*
X144775161Y-104456895D01*
X144310704Y-105269695D01*
X144310704Y-104456895D01*
X142917333Y-105269695D02*
X143304380Y-105269695D01*
X143304380Y-104456895D01*
X142646400Y-104843942D02*
X142375466Y-104843942D01*
X142259352Y-105269695D02*
X142646400Y-105269695D01*
X142646400Y-104456895D01*
X142259352Y-104456895D01*
X141911009Y-105269695D02*
X141911009Y-104456895D01*
X141717485Y-104456895D01*
X141601371Y-104495600D01*
X141523961Y-104573009D01*
X141485257Y-104650419D01*
X141446552Y-104805238D01*
X141446552Y-104921352D01*
X141485257Y-105076171D01*
X141523961Y-105153580D01*
X141601371Y-105230990D01*
X141717485Y-105269695D01*
X141911009Y-105269695D01*
X112300657Y-117563295D02*
X112300657Y-118221276D01*
X112261952Y-118298685D01*
X112223247Y-118337390D01*
X112145838Y-118376095D01*
X111991019Y-118376095D01*
X111913609Y-118337390D01*
X111874904Y-118298685D01*
X111836200Y-118221276D01*
X111836200Y-117563295D01*
X111487857Y-118143866D02*
X111100809Y-118143866D01*
X111565266Y-118376095D02*
X111294333Y-117563295D01*
X111023400Y-118376095D01*
X110288009Y-118376095D02*
X110558942Y-117989047D01*
X110752466Y-118376095D02*
X110752466Y-117563295D01*
X110442828Y-117563295D01*
X110365419Y-117602000D01*
X110326714Y-117640704D01*
X110288009Y-117718114D01*
X110288009Y-117834228D01*
X110326714Y-117911638D01*
X110365419Y-117950342D01*
X110442828Y-117989047D01*
X110752466Y-117989047D01*
X110055780Y-117563295D02*
X109591323Y-117563295D01*
X109823552Y-118376095D02*
X109823552Y-117563295D01*
X108894638Y-118376095D02*
X109359095Y-118376095D01*
X109126866Y-118376095D02*
X109126866Y-117563295D01*
X109204276Y-117679409D01*
X109281685Y-117756819D01*
X109359095Y-117795523D01*
X112141604Y-123326676D02*
X112141604Y-122862219D01*
X111328804Y-123094447D02*
X112141604Y-123094447D01*
X112141604Y-122668695D02*
X111328804Y-122126828D01*
X112141604Y-122126828D02*
X111328804Y-122668695D01*
X113792604Y-122906366D02*
X114179652Y-123177300D01*
X113792604Y-123370823D02*
X114605404Y-123370823D01*
X114605404Y-123061185D01*
X114566700Y-122983776D01*
X114527995Y-122945071D01*
X114450585Y-122906366D01*
X114334471Y-122906366D01*
X114257061Y-122945071D01*
X114218357Y-122983776D01*
X114179652Y-123061185D01*
X114179652Y-123370823D01*
X114605404Y-122635433D02*
X113792604Y-122093566D01*
X114605404Y-122093566D02*
X113792604Y-122635433D01*
X111473584Y-109867216D02*
X111473584Y-109402759D01*
X110660784Y-109634987D02*
X111473584Y-109634987D01*
X111473584Y-109209235D02*
X110660784Y-108667368D01*
X111473584Y-108667368D02*
X110660784Y-109209235D01*
X108438284Y-109078606D02*
X108825332Y-109349540D01*
X108438284Y-109543063D02*
X109251084Y-109543063D01*
X109251084Y-109233425D01*
X109212380Y-109156016D01*
X109173675Y-109117311D01*
X109096265Y-109078606D01*
X108980151Y-109078606D01*
X108902741Y-109117311D01*
X108864037Y-109156016D01*
X108825332Y-109233425D01*
X108825332Y-109543063D01*
X109251084Y-108807673D02*
X108438284Y-108265806D01*
X109251084Y-108265806D02*
X108438284Y-108807673D01*
X114383457Y-113626295D02*
X114383457Y-114284276D01*
X114344752Y-114361685D01*
X114306047Y-114400390D01*
X114228638Y-114439095D01*
X114073819Y-114439095D01*
X113996409Y-114400390D01*
X113957704Y-114361685D01*
X113919000Y-114284276D01*
X113919000Y-113626295D01*
X113570657Y-114206866D02*
X113183609Y-114206866D01*
X113648066Y-114439095D02*
X113377133Y-113626295D01*
X113106200Y-114439095D01*
X112370809Y-114439095D02*
X112641742Y-114052047D01*
X112835266Y-114439095D02*
X112835266Y-113626295D01*
X112525628Y-113626295D01*
X112448219Y-113665000D01*
X112409514Y-113703704D01*
X112370809Y-113781114D01*
X112370809Y-113897228D01*
X112409514Y-113974638D01*
X112448219Y-114013342D01*
X112525628Y-114052047D01*
X112835266Y-114052047D01*
X112138580Y-113626295D02*
X111674123Y-113626295D01*
X111906352Y-114439095D02*
X111906352Y-113626295D01*
X111248371Y-113626295D02*
X111170961Y-113626295D01*
X111093552Y-113665000D01*
X111054847Y-113703704D01*
X111016142Y-113781114D01*
X110977438Y-113935933D01*
X110977438Y-114129457D01*
X111016142Y-114284276D01*
X111054847Y-114361685D01*
X111093552Y-114400390D01*
X111170961Y-114439095D01*
X111248371Y-114439095D01*
X111325780Y-114400390D01*
X111364485Y-114361685D01*
X111403190Y-114284276D01*
X111441895Y-114129457D01*
X111441895Y-113935933D01*
X111403190Y-113781114D01*
X111364485Y-113703704D01*
X111325780Y-113665000D01*
X111248371Y-113626295D01*
X140387009Y-146266504D02*
X140387009Y-145608523D01*
X140425714Y-145531114D01*
X140464419Y-145492409D01*
X140541828Y-145453704D01*
X140696647Y-145453704D01*
X140774057Y-145492409D01*
X140812761Y-145531114D01*
X140851466Y-145608523D01*
X140851466Y-146266504D01*
X141238514Y-145453704D02*
X141238514Y-146266504D01*
X141702971Y-145453704D01*
X141702971Y-146266504D01*
X142090019Y-146266504D02*
X142090019Y-145608523D01*
X142128723Y-145531114D01*
X142167428Y-145492409D01*
X142244838Y-145453704D01*
X142399657Y-145453704D01*
X142477066Y-145492409D01*
X142515771Y-145531114D01*
X142554476Y-145608523D01*
X142554476Y-146266504D01*
X142902819Y-145492409D02*
X143018933Y-145453704D01*
X143212457Y-145453704D01*
X143289866Y-145492409D01*
X143328571Y-145531114D01*
X143367276Y-145608523D01*
X143367276Y-145685933D01*
X143328571Y-145763342D01*
X143289866Y-145802047D01*
X143212457Y-145840752D01*
X143057638Y-145879457D01*
X142980228Y-145918161D01*
X142941523Y-145956866D01*
X142902819Y-146034276D01*
X142902819Y-146111685D01*
X142941523Y-146189095D01*
X142980228Y-146227800D01*
X143057638Y-146266504D01*
X143251161Y-146266504D01*
X143367276Y-146227800D01*
X143715619Y-145879457D02*
X143986552Y-145879457D01*
X144102666Y-145453704D02*
X143715619Y-145453704D01*
X143715619Y-146266504D01*
X144102666Y-146266504D01*
X144451009Y-145453704D02*
X144451009Y-146266504D01*
X144644533Y-146266504D01*
X144760647Y-146227800D01*
X144838057Y-146150390D01*
X144876761Y-146072980D01*
X144915466Y-145918161D01*
X144915466Y-145802047D01*
X144876761Y-145647228D01*
X144838057Y-145569819D01*
X144760647Y-145492409D01*
X144644533Y-145453704D01*
X144451009Y-145453704D01*
X145883085Y-145453704D02*
X145883085Y-146266504D01*
X146424952Y-146266504D02*
X146579771Y-146266504D01*
X146657180Y-146227800D01*
X146734590Y-146150390D01*
X146773295Y-145995571D01*
X146773295Y-145724638D01*
X146734590Y-145569819D01*
X146657180Y-145492409D01*
X146579771Y-145453704D01*
X146424952Y-145453704D01*
X146347542Y-145492409D01*
X146270133Y-145569819D01*
X146231428Y-145724638D01*
X146231428Y-145995571D01*
X146270133Y-146150390D01*
X146347542Y-146227800D01*
X146424952Y-146266504D01*
D12*
X138068800Y-118702300D02*
X139018800Y-118702300D01*
X139018800Y-118702300D02*
X139018800Y-119652300D01*
X129748800Y-118702300D02*
X128798800Y-118702300D01*
X128798800Y-118702300D02*
X128798800Y-119652300D01*
X138068800Y-128922300D02*
X139018800Y-128922300D01*
X139018800Y-128922300D02*
X139018800Y-127972300D01*
X129748800Y-128922300D02*
X128798800Y-128922300D01*
X128798800Y-128922300D02*
X128798800Y-127972300D01*
X128798800Y-127972300D02*
X127458800Y-127972300D01*
X66824900Y-76073000D02*
G75*
G03*
X66824900Y-76073000I-950000J0D01*
G01*
X227238600Y-187591700D02*
G75*
G03*
X227238600Y-187591700I-950000J0D01*
G01*
X86490500Y-185429200D02*
X86490500Y-182769200D01*
X89090500Y-185429200D02*
X86490500Y-185429200D01*
X89090500Y-182769200D02*
X86490500Y-182769200D01*
X89090500Y-185429200D02*
X89090500Y-182769200D01*
X90360500Y-185429200D02*
X91690500Y-185429200D01*
X91690500Y-185429200D02*
X91690500Y-184099200D01*
X167178400Y-112675935D02*
X167178400Y-112444265D01*
X167898400Y-112675935D02*
X167898400Y-112444265D01*
X134300500Y-134613433D02*
X134300500Y-134905967D01*
X135320500Y-134613433D02*
X135320500Y-134905967D01*
X171098800Y-112675935D02*
X171098800Y-112444265D01*
X170378800Y-112675935D02*
X170378800Y-112444265D01*
X150052035Y-116349100D02*
X149820365Y-116349100D01*
X150052035Y-115629100D02*
X149820365Y-115629100D01*
X131974000Y-113463335D02*
X131974000Y-113231665D01*
X132694000Y-113463335D02*
X132694000Y-113231665D01*
X149820365Y-116772100D02*
X150052035Y-116772100D01*
X149820365Y-117492100D02*
X150052035Y-117492100D01*
X136101500Y-134034265D02*
X136101500Y-134265935D01*
X136821500Y-134034265D02*
X136821500Y-134265935D01*
X133964000Y-113463335D02*
X133964000Y-113231665D01*
X133244000Y-113463335D02*
X133244000Y-113231665D01*
X122594635Y-127884600D02*
X122362965Y-127884600D01*
X122594635Y-128604600D02*
X122362965Y-128604600D01*
X137371500Y-134034265D02*
X137371500Y-134265935D01*
X138091500Y-134034265D02*
X138091500Y-134265935D01*
X143343365Y-122715700D02*
X143575035Y-122715700D01*
X143343365Y-123435700D02*
X143575035Y-123435700D01*
X143343365Y-124591400D02*
X143575035Y-124591400D01*
X143343365Y-123871400D02*
X143575035Y-123871400D01*
X135170500Y-113476035D02*
X135170500Y-113244365D01*
X134450500Y-113476035D02*
X134450500Y-113244365D01*
X138641500Y-134034265D02*
X138641500Y-134265935D01*
X139361500Y-134034265D02*
X139361500Y-134265935D01*
X125007635Y-122944300D02*
X124775965Y-122944300D01*
X125007635Y-123664300D02*
X124775965Y-123664300D01*
X69642400Y-82983335D02*
X69642400Y-82751665D01*
X70362400Y-82983335D02*
X70362400Y-82751665D01*
X64149235Y-83481500D02*
X63917565Y-83481500D01*
X64149235Y-82761500D02*
X63917565Y-82761500D01*
X180595535Y-137888300D02*
X180363865Y-137888300D01*
X180595535Y-137168300D02*
X180363865Y-137168300D01*
X138276000Y-104610800D02*
X138276000Y-106895800D01*
X136806000Y-104610800D02*
X138276000Y-104610800D01*
X136806000Y-106895800D02*
X136806000Y-104610800D01*
X139701600Y-106946600D02*
X139701600Y-104661600D01*
X139701600Y-104661600D02*
X141171600Y-104661600D01*
X141171600Y-104661600D02*
X141171600Y-106946600D01*
X74409400Y-84990000D02*
X76694400Y-84990000D01*
X76694400Y-84990000D02*
X76694400Y-86460000D01*
X76694400Y-86460000D02*
X74409400Y-86460000D01*
X121468248Y-125629600D02*
X121990752Y-125629600D01*
X121468248Y-127049600D02*
X121990752Y-127049600D01*
X65228400Y-79494748D02*
X65228400Y-80017252D01*
X66648400Y-79494748D02*
X66648400Y-80017252D01*
X68740200Y-160937900D02*
X68740200Y-178837900D01*
X68740200Y-178837900D02*
X66080200Y-178837900D01*
X66080200Y-178837900D02*
X66080200Y-160937900D01*
X66080200Y-160937900D02*
X68740200Y-160937900D01*
X66080200Y-161887900D02*
X60080200Y-161887900D01*
X60080200Y-161887900D02*
X60080200Y-162647900D01*
X60080200Y-162647900D02*
X66080200Y-162647900D01*
X66080200Y-161947900D02*
X60080200Y-161947900D01*
X66080200Y-162067900D02*
X60080200Y-162067900D01*
X66080200Y-162187900D02*
X60080200Y-162187900D01*
X66080200Y-162307900D02*
X60080200Y-162307900D01*
X66080200Y-162427900D02*
X60080200Y-162427900D01*
X66080200Y-162547900D02*
X60080200Y-162547900D01*
X69137271Y-161887900D02*
X68740200Y-161887900D01*
X69137271Y-162647900D02*
X68740200Y-162647900D01*
X71610200Y-161887900D02*
X71223129Y-161887900D01*
X71610200Y-162647900D02*
X71223129Y-162647900D01*
X68740200Y-163537900D02*
X66080200Y-163537900D01*
X66080200Y-164427900D02*
X60080200Y-164427900D01*
X60080200Y-164427900D02*
X60080200Y-165187900D01*
X60080200Y-165187900D02*
X66080200Y-165187900D01*
X69137271Y-164427900D02*
X68740200Y-164427900D01*
X69137271Y-165187900D02*
X68740200Y-165187900D01*
X71677271Y-164427900D02*
X71223129Y-164427900D01*
X71677271Y-165187900D02*
X71223129Y-165187900D01*
X68740200Y-166077900D02*
X66080200Y-166077900D01*
X66080200Y-166967900D02*
X60080200Y-166967900D01*
X60080200Y-166967900D02*
X60080200Y-167727900D01*
X60080200Y-167727900D02*
X66080200Y-167727900D01*
X69137271Y-166967900D02*
X68740200Y-166967900D01*
X69137271Y-167727900D02*
X68740200Y-167727900D01*
X71677271Y-166967900D02*
X71223129Y-166967900D01*
X71677271Y-167727900D02*
X71223129Y-167727900D01*
X68740200Y-168617900D02*
X66080200Y-168617900D01*
X66080200Y-169507900D02*
X60080200Y-169507900D01*
X60080200Y-169507900D02*
X60080200Y-170267900D01*
X60080200Y-170267900D02*
X66080200Y-170267900D01*
X69137271Y-169507900D02*
X68740200Y-169507900D01*
X69137271Y-170267900D02*
X68740200Y-170267900D01*
X71677271Y-169507900D02*
X71223129Y-169507900D01*
X71677271Y-170267900D02*
X71223129Y-170267900D01*
X68740200Y-171157900D02*
X66080200Y-171157900D01*
X66080200Y-172047900D02*
X60080200Y-172047900D01*
X60080200Y-172047900D02*
X60080200Y-172807900D01*
X60080200Y-172807900D02*
X66080200Y-172807900D01*
X69137271Y-172047900D02*
X68740200Y-172047900D01*
X69137271Y-172807900D02*
X68740200Y-172807900D01*
X71677271Y-172047900D02*
X71223129Y-172047900D01*
X71677271Y-172807900D02*
X71223129Y-172807900D01*
X68740200Y-173697900D02*
X66080200Y-173697900D01*
X66080200Y-174587900D02*
X60080200Y-174587900D01*
X60080200Y-174587900D02*
X60080200Y-175347900D01*
X60080200Y-175347900D02*
X66080200Y-175347900D01*
X69137271Y-174587900D02*
X68740200Y-174587900D01*
X69137271Y-175347900D02*
X68740200Y-175347900D01*
X71677271Y-174587900D02*
X71223129Y-174587900D01*
X71677271Y-175347900D02*
X71223129Y-175347900D01*
X68740200Y-176237900D02*
X66080200Y-176237900D01*
X66080200Y-177127900D02*
X60080200Y-177127900D01*
X60080200Y-177127900D02*
X60080200Y-177887900D01*
X60080200Y-177887900D02*
X66080200Y-177887900D01*
X69137271Y-177127900D02*
X68740200Y-177127900D01*
X69137271Y-177887900D02*
X68740200Y-177887900D01*
X71677271Y-177127900D02*
X71223129Y-177127900D01*
X71677271Y-177887900D02*
X71223129Y-177887900D01*
X73990200Y-162267900D02*
X73990200Y-160997900D01*
X73990200Y-160997900D02*
X72720200Y-160997900D01*
X107394700Y-110607800D02*
X107394700Y-111937800D01*
X108724700Y-110607800D02*
X107394700Y-110607800D01*
X109994700Y-110607800D02*
X109994700Y-113267800D01*
X109994700Y-113267800D02*
X115134700Y-113267800D01*
X109994700Y-110607800D02*
X115134700Y-110607800D01*
X115134700Y-110607800D02*
X115134700Y-113267800D01*
X107686800Y-121446600D02*
X107686800Y-118786600D01*
X112826800Y-121446600D02*
X107686800Y-121446600D01*
X112826800Y-118786600D02*
X107686800Y-118786600D01*
X112826800Y-121446600D02*
X112826800Y-118786600D01*
X114096800Y-121446600D02*
X115426800Y-121446600D01*
X115426800Y-121446600D02*
X115426800Y-120116600D01*
X65166400Y-97552000D02*
X65166400Y-96952000D01*
X64866400Y-97252000D02*
X65166400Y-96952000D01*
X64866400Y-97252000D02*
X65166400Y-97552000D01*
X64636400Y-102422000D02*
X64636400Y-101552000D01*
X64636400Y-94682000D02*
X62566400Y-94682000D01*
X64636400Y-102422000D02*
X62566400Y-102422000D01*
X64636400Y-95552000D02*
X64636400Y-94682000D01*
X60166400Y-94682000D02*
X59916400Y-94682000D01*
X60166400Y-102422000D02*
X59916400Y-102422000D01*
X68613200Y-47907900D02*
X68613200Y-58187900D01*
X68613200Y-58187900D02*
X65953200Y-58187900D01*
X65953200Y-58187900D02*
X65953200Y-47907900D01*
X65953200Y-47907900D02*
X68613200Y-47907900D01*
X65953200Y-48857900D02*
X59953200Y-48857900D01*
X59953200Y-48857900D02*
X59953200Y-49617900D01*
X59953200Y-49617900D02*
X65953200Y-49617900D01*
X65953200Y-48917900D02*
X59953200Y-48917900D01*
X65953200Y-49037900D02*
X59953200Y-49037900D01*
X65953200Y-49157900D02*
X59953200Y-49157900D01*
X65953200Y-49277900D02*
X59953200Y-49277900D01*
X65953200Y-49397900D02*
X59953200Y-49397900D01*
X65953200Y-49517900D02*
X59953200Y-49517900D01*
X69010271Y-48857900D02*
X68613200Y-48857900D01*
X69010271Y-49617900D02*
X68613200Y-49617900D01*
X71483200Y-48857900D02*
X71096129Y-48857900D01*
X71483200Y-49617900D02*
X71096129Y-49617900D01*
X68613200Y-50507900D02*
X65953200Y-50507900D01*
X65953200Y-51397900D02*
X59953200Y-51397900D01*
X59953200Y-51397900D02*
X59953200Y-52157900D01*
X59953200Y-52157900D02*
X65953200Y-52157900D01*
X69010271Y-51397900D02*
X68613200Y-51397900D01*
X69010271Y-52157900D02*
X68613200Y-52157900D01*
X71550271Y-51397900D02*
X71096129Y-51397900D01*
X71550271Y-52157900D02*
X71096129Y-52157900D01*
X68613200Y-53047900D02*
X65953200Y-53047900D01*
X65953200Y-53937900D02*
X59953200Y-53937900D01*
X59953200Y-53937900D02*
X59953200Y-54697900D01*
X59953200Y-54697900D02*
X65953200Y-54697900D01*
X69010271Y-53937900D02*
X68613200Y-53937900D01*
X69010271Y-54697900D02*
X68613200Y-54697900D01*
X71550271Y-53937900D02*
X71096129Y-53937900D01*
X71550271Y-54697900D02*
X71096129Y-54697900D01*
X68613200Y-55587900D02*
X65953200Y-55587900D01*
X65953200Y-56477900D02*
X59953200Y-56477900D01*
X59953200Y-56477900D02*
X59953200Y-57237900D01*
X59953200Y-57237900D02*
X65953200Y-57237900D01*
X69010271Y-56477900D02*
X68613200Y-56477900D01*
X69010271Y-57237900D02*
X68613200Y-57237900D01*
X71550271Y-56477900D02*
X71096129Y-56477900D01*
X71550271Y-57237900D02*
X71096129Y-57237900D01*
X73863200Y-49237900D02*
X73863200Y-47967900D01*
X73863200Y-47967900D02*
X72593200Y-47967900D01*
X140706800Y-140821100D02*
X145906800Y-140821100D01*
X140706800Y-140881100D02*
X140706800Y-140821100D01*
X145906800Y-143481100D02*
X145906800Y-140821100D01*
X140706800Y-140881100D02*
X143306800Y-140881100D01*
X143306800Y-140881100D02*
X143306800Y-143481100D01*
X143306800Y-143481100D02*
X145906800Y-143481100D01*
X140706800Y-142151100D02*
X140706800Y-143481100D01*
X140706800Y-143481100D02*
X142036800Y-143481100D01*
X68587800Y-138966900D02*
X68587800Y-154326900D01*
X68587800Y-154326900D02*
X65927800Y-154326900D01*
X65927800Y-154326900D02*
X65927800Y-138966900D01*
X65927800Y-138966900D02*
X68587800Y-138966900D01*
X65927800Y-139916900D02*
X59927800Y-139916900D01*
X59927800Y-139916900D02*
X59927800Y-140676900D01*
X59927800Y-140676900D02*
X65927800Y-140676900D01*
X65927800Y-139976900D02*
X59927800Y-139976900D01*
X65927800Y-140096900D02*
X59927800Y-140096900D01*
X65927800Y-140216900D02*
X59927800Y-140216900D01*
X65927800Y-140336900D02*
X59927800Y-140336900D01*
X65927800Y-140456900D02*
X59927800Y-140456900D01*
X65927800Y-140576900D02*
X59927800Y-140576900D01*
X68984871Y-139916900D02*
X68587800Y-139916900D01*
X68984871Y-140676900D02*
X68587800Y-140676900D01*
X71457800Y-139916900D02*
X71070729Y-139916900D01*
X71457800Y-140676900D02*
X71070729Y-140676900D01*
X68587800Y-141566900D02*
X65927800Y-141566900D01*
X65927800Y-142456900D02*
X59927800Y-142456900D01*
X59927800Y-142456900D02*
X59927800Y-143216900D01*
X59927800Y-143216900D02*
X65927800Y-143216900D01*
X68984871Y-142456900D02*
X68587800Y-142456900D01*
X68984871Y-143216900D02*
X68587800Y-143216900D01*
X71524871Y-142456900D02*
X71070729Y-142456900D01*
X71524871Y-143216900D02*
X71070729Y-143216900D01*
X68587800Y-144106900D02*
X65927800Y-144106900D01*
X65927800Y-144996900D02*
X59927800Y-144996900D01*
X59927800Y-144996900D02*
X59927800Y-145756900D01*
X59927800Y-145756900D02*
X65927800Y-145756900D01*
X68984871Y-144996900D02*
X68587800Y-144996900D01*
X68984871Y-145756900D02*
X68587800Y-145756900D01*
X71524871Y-144996900D02*
X71070729Y-144996900D01*
X71524871Y-145756900D02*
X71070729Y-145756900D01*
X68587800Y-146646900D02*
X65927800Y-146646900D01*
X65927800Y-147536900D02*
X59927800Y-147536900D01*
X59927800Y-147536900D02*
X59927800Y-148296900D01*
X59927800Y-148296900D02*
X65927800Y-148296900D01*
X68984871Y-147536900D02*
X68587800Y-147536900D01*
X68984871Y-148296900D02*
X68587800Y-148296900D01*
X71524871Y-147536900D02*
X71070729Y-147536900D01*
X71524871Y-148296900D02*
X71070729Y-148296900D01*
X68587800Y-149186900D02*
X65927800Y-149186900D01*
X65927800Y-150076900D02*
X59927800Y-150076900D01*
X59927800Y-150076900D02*
X59927800Y-150836900D01*
X59927800Y-150836900D02*
X65927800Y-150836900D01*
X68984871Y-150076900D02*
X68587800Y-150076900D01*
X68984871Y-150836900D02*
X68587800Y-150836900D01*
X71524871Y-150076900D02*
X71070729Y-150076900D01*
X71524871Y-150836900D02*
X71070729Y-150836900D01*
X68587800Y-151726900D02*
X65927800Y-151726900D01*
X65927800Y-152616900D02*
X59927800Y-152616900D01*
X59927800Y-152616900D02*
X59927800Y-153376900D01*
X59927800Y-153376900D02*
X65927800Y-153376900D01*
X68984871Y-152616900D02*
X68587800Y-152616900D01*
X68984871Y-153376900D02*
X68587800Y-153376900D01*
X71524871Y-152616900D02*
X71070729Y-152616900D01*
X71524871Y-153376900D02*
X71070729Y-153376900D01*
X73837800Y-140296900D02*
X73837800Y-139026900D01*
X73837800Y-139026900D02*
X72567800Y-139026900D01*
X184413200Y-141595800D02*
X184413200Y-144255800D01*
X181813200Y-141595800D02*
X184413200Y-141595800D01*
X181813200Y-144255800D02*
X184413200Y-144255800D01*
X181813200Y-141595800D02*
X181813200Y-144255800D01*
X180543200Y-141595800D02*
X179213200Y-141595800D01*
X179213200Y-141595800D02*
X179213200Y-142925800D01*
X179302100Y-145913800D02*
X179302100Y-147243800D01*
X180632100Y-145913800D02*
X179302100Y-145913800D01*
X181902100Y-145913800D02*
X181902100Y-148573800D01*
X181902100Y-148573800D02*
X184502100Y-148573800D01*
X181902100Y-145913800D02*
X184502100Y-145913800D01*
X184502100Y-145913800D02*
X184502100Y-148573800D01*
X82425521Y-51270900D02*
X82090279Y-51270900D01*
X82425521Y-52030900D02*
X82090279Y-52030900D01*
X82115679Y-52540900D02*
X82450921Y-52540900D01*
X82115679Y-53300900D02*
X82450921Y-53300900D01*
X128144000Y-111757479D02*
X128144000Y-112092721D01*
X128904000Y-111757479D02*
X128904000Y-112092721D01*
X83817479Y-167143700D02*
X84152721Y-167143700D01*
X83817479Y-166383700D02*
X84152721Y-166383700D01*
X84114621Y-168553400D02*
X83779379Y-168553400D01*
X84114621Y-167793400D02*
X83779379Y-167793400D01*
X83982579Y-177039000D02*
X84317821Y-177039000D01*
X83982579Y-177799000D02*
X84317821Y-177799000D01*
X84317821Y-178436000D02*
X83982579Y-178436000D01*
X84317821Y-179196000D02*
X83982579Y-179196000D01*
X129541000Y-111757479D02*
X129541000Y-112092721D01*
X130301000Y-111757479D02*
X130301000Y-112092721D01*
X137148300Y-102656621D02*
X137148300Y-102321379D01*
X137908300Y-102656621D02*
X137908300Y-102321379D01*
X140082000Y-102669321D02*
X140082000Y-102334079D01*
X140842000Y-102669321D02*
X140842000Y-102334079D01*
X169275779Y-120306100D02*
X169611021Y-120306100D01*
X169275779Y-119546100D02*
X169611021Y-119546100D01*
X71866779Y-85345000D02*
X72202021Y-85345000D01*
X71866779Y-86105000D02*
X72202021Y-86105000D01*
X164322779Y-146279600D02*
X164658021Y-146279600D01*
X164322779Y-147039600D02*
X164658021Y-147039600D01*
X164360879Y-145350500D02*
X164696121Y-145350500D01*
X164360879Y-144590500D02*
X164696121Y-144590500D01*
X68437779Y-96267000D02*
X68773021Y-96267000D01*
X68437779Y-97027000D02*
X68773021Y-97027000D01*
X68399679Y-100100400D02*
X68734921Y-100100400D01*
X68399679Y-99340400D02*
X68734921Y-99340400D01*
X180248579Y-138545300D02*
X180583821Y-138545300D01*
X180248579Y-139305300D02*
X180583821Y-139305300D01*
X185644200Y-130468300D02*
X191444200Y-130468300D01*
X185544200Y-136968300D02*
X191544200Y-136968300D01*
X185444200Y-132418300D02*
X185444200Y-135018300D01*
X191644200Y-132418300D02*
X191644200Y-135018300D01*
X193644200Y-131418300D02*
X193644200Y-130418300D01*
X193644200Y-130418300D02*
X192644200Y-130418300D01*
X139735600Y-112001300D02*
G75*
G03*
X139735600Y-112001300I-950000J0D01*
G01*
X153819900Y-113030000D02*
G75*
G03*
X153819900Y-113030000I-950000J0D01*
G01*
X74698900Y-88480900D02*
G75*
G03*
X74698900Y-88480900I-950000J0D01*
G01*
X76692800Y-70637400D02*
G75*
G03*
X76692800Y-70637400I-950000J0D01*
G01*
X230007200Y-48577500D02*
G75*
G03*
X230007200Y-48577500I-950000J0D01*
G01*
X63675300Y-80594200D02*
G75*
G03*
X63675300Y-80594200I-950000J0D01*
G01*
X67514900Y-85448500D02*
X69314900Y-85448500D01*
X69314900Y-88668500D02*
X66864900Y-88668500D01*
X68986400Y-91219000D02*
X67986400Y-91219000D01*
X69986400Y-93439000D02*
X67986400Y-93439000D01*
D13*
X175063650Y-150746800D02*
X175063650Y-149526800D01*
X175063650Y-147226800D02*
X175063650Y-143876800D01*
X175063650Y-141476800D02*
X175063650Y-138406800D01*
X167607750Y-150746800D02*
X175063650Y-150746800D01*
X167607750Y-138406800D02*
X167607750Y-141226800D01*
X167607750Y-144076800D02*
X167607750Y-146926800D01*
X167607750Y-149826800D02*
X167607750Y-150746800D01*
X175063650Y-138406800D02*
X167607750Y-138406800D01*
D14*
X167074420Y-147176800D02*
G75*
G03*
X167074420Y-147176800I-120000J0D01*
G01*
D13*
X159183000Y-115247100D02*
X155158000Y-115247100D01*
X155158000Y-115247100D02*
X155158000Y-117787100D01*
X155158000Y-117787100D02*
X159183000Y-117787100D01*
X165938600Y-117741500D02*
X172338600Y-117741500D01*
X172338600Y-117741500D02*
X172338600Y-114541500D01*
X172338600Y-114541500D02*
X165938600Y-114541500D01*
X165938600Y-114541500D02*
X165938600Y-117741500D01*
X168338600Y-116141500D02*
X168538600Y-116141500D01*
X169938600Y-116141500D02*
X169738600Y-116141500D01*
X169738600Y-116941500D02*
X169738600Y-116141500D01*
X169738600Y-116141500D02*
X169738600Y-115341500D01*
X168538600Y-116941500D02*
X168538600Y-116141500D01*
X168538600Y-116141500D02*
X168538600Y-115341500D01*
X169338600Y-115341500D02*
X168938600Y-115341500D01*
X168938600Y-115341500D02*
X168938600Y-116941500D01*
X168938600Y-116941500D02*
X169338600Y-116941500D01*
X169338600Y-116941500D02*
X169338600Y-115341500D01*
D12*
X136440500Y-113476035D02*
X136440500Y-113244365D01*
X135720500Y-113476035D02*
X135720500Y-113244365D01*
X125020335Y-122394300D02*
X124788665Y-122394300D01*
X125020335Y-121674300D02*
X124788665Y-121674300D01*
X68638600Y-106962900D02*
X68638600Y-135022900D01*
X68638600Y-135022900D02*
X65978600Y-135022900D01*
X65978600Y-135022900D02*
X65978600Y-106962900D01*
X65978600Y-106962900D02*
X68638600Y-106962900D01*
X65978600Y-107912900D02*
X59978600Y-107912900D01*
X59978600Y-107912900D02*
X59978600Y-108672900D01*
X59978600Y-108672900D02*
X65978600Y-108672900D01*
X65978600Y-107972900D02*
X59978600Y-107972900D01*
X65978600Y-108092900D02*
X59978600Y-108092900D01*
X65978600Y-108212900D02*
X59978600Y-108212900D01*
X65978600Y-108332900D02*
X59978600Y-108332900D01*
X65978600Y-108452900D02*
X59978600Y-108452900D01*
X65978600Y-108572900D02*
X59978600Y-108572900D01*
X69035671Y-107912900D02*
X68638600Y-107912900D01*
X69035671Y-108672900D02*
X68638600Y-108672900D01*
X71508600Y-107912900D02*
X71121529Y-107912900D01*
X71508600Y-108672900D02*
X71121529Y-108672900D01*
X68638600Y-109562900D02*
X65978600Y-109562900D01*
X65978600Y-110452900D02*
X59978600Y-110452900D01*
X59978600Y-110452900D02*
X59978600Y-111212900D01*
X59978600Y-111212900D02*
X65978600Y-111212900D01*
X69035671Y-110452900D02*
X68638600Y-110452900D01*
X69035671Y-111212900D02*
X68638600Y-111212900D01*
X71575671Y-110452900D02*
X71121529Y-110452900D01*
X71575671Y-111212900D02*
X71121529Y-111212900D01*
X68638600Y-112102900D02*
X65978600Y-112102900D01*
X65978600Y-112992900D02*
X59978600Y-112992900D01*
X59978600Y-112992900D02*
X59978600Y-113752900D01*
X59978600Y-113752900D02*
X65978600Y-113752900D01*
X69035671Y-112992900D02*
X68638600Y-112992900D01*
X69035671Y-113752900D02*
X68638600Y-113752900D01*
X71575671Y-112992900D02*
X71121529Y-112992900D01*
X71575671Y-113752900D02*
X71121529Y-113752900D01*
X68638600Y-114642900D02*
X65978600Y-114642900D01*
X65978600Y-115532900D02*
X59978600Y-115532900D01*
X59978600Y-115532900D02*
X59978600Y-116292900D01*
X59978600Y-116292900D02*
X65978600Y-116292900D01*
X69035671Y-115532900D02*
X68638600Y-115532900D01*
X69035671Y-116292900D02*
X68638600Y-116292900D01*
X71575671Y-115532900D02*
X71121529Y-115532900D01*
X71575671Y-116292900D02*
X71121529Y-116292900D01*
X68638600Y-117182900D02*
X65978600Y-117182900D01*
X65978600Y-118072900D02*
X59978600Y-118072900D01*
X59978600Y-118072900D02*
X59978600Y-118832900D01*
X59978600Y-118832900D02*
X65978600Y-118832900D01*
X69035671Y-118072900D02*
X68638600Y-118072900D01*
X69035671Y-118832900D02*
X68638600Y-118832900D01*
X71575671Y-118072900D02*
X71121529Y-118072900D01*
X71575671Y-118832900D02*
X71121529Y-118832900D01*
X68638600Y-119722900D02*
X65978600Y-119722900D01*
X65978600Y-120612900D02*
X59978600Y-120612900D01*
X59978600Y-120612900D02*
X59978600Y-121372900D01*
X59978600Y-121372900D02*
X65978600Y-121372900D01*
X69035671Y-120612900D02*
X68638600Y-120612900D01*
X69035671Y-121372900D02*
X68638600Y-121372900D01*
X71575671Y-120612900D02*
X71121529Y-120612900D01*
X71575671Y-121372900D02*
X71121529Y-121372900D01*
X68638600Y-122262900D02*
X65978600Y-122262900D01*
X65978600Y-123152900D02*
X59978600Y-123152900D01*
X59978600Y-123152900D02*
X59978600Y-123912900D01*
X59978600Y-123912900D02*
X65978600Y-123912900D01*
X69035671Y-123152900D02*
X68638600Y-123152900D01*
X69035671Y-123912900D02*
X68638600Y-123912900D01*
X71575671Y-123152900D02*
X71121529Y-123152900D01*
X71575671Y-123912900D02*
X71121529Y-123912900D01*
X68638600Y-124802900D02*
X65978600Y-124802900D01*
X65978600Y-125692900D02*
X59978600Y-125692900D01*
X59978600Y-125692900D02*
X59978600Y-126452900D01*
X59978600Y-126452900D02*
X65978600Y-126452900D01*
X69035671Y-125692900D02*
X68638600Y-125692900D01*
X69035671Y-126452900D02*
X68638600Y-126452900D01*
X71575671Y-125692900D02*
X71121529Y-125692900D01*
X71575671Y-126452900D02*
X71121529Y-126452900D01*
X68638600Y-127342900D02*
X65978600Y-127342900D01*
X65978600Y-128232900D02*
X59978600Y-128232900D01*
X59978600Y-128232900D02*
X59978600Y-128992900D01*
X59978600Y-128992900D02*
X65978600Y-128992900D01*
X69035671Y-128232900D02*
X68638600Y-128232900D01*
X69035671Y-128992900D02*
X68638600Y-128992900D01*
X71575671Y-128232900D02*
X71121529Y-128232900D01*
X71575671Y-128992900D02*
X71121529Y-128992900D01*
X68638600Y-129882900D02*
X65978600Y-129882900D01*
X65978600Y-130772900D02*
X59978600Y-130772900D01*
X59978600Y-130772900D02*
X59978600Y-131532900D01*
X59978600Y-131532900D02*
X65978600Y-131532900D01*
X69035671Y-130772900D02*
X68638600Y-130772900D01*
X69035671Y-131532900D02*
X68638600Y-131532900D01*
X71575671Y-130772900D02*
X71121529Y-130772900D01*
X71575671Y-131532900D02*
X71121529Y-131532900D01*
X68638600Y-132422900D02*
X65978600Y-132422900D01*
X65978600Y-133312900D02*
X59978600Y-133312900D01*
X59978600Y-133312900D02*
X59978600Y-134072900D01*
X59978600Y-134072900D02*
X65978600Y-134072900D01*
X69035671Y-133312900D02*
X68638600Y-133312900D01*
X69035671Y-134072900D02*
X68638600Y-134072900D01*
X71575671Y-133312900D02*
X71121529Y-133312900D01*
X71575671Y-134072900D02*
X71121529Y-134072900D01*
X73888600Y-108292900D02*
X73888600Y-107022900D01*
X73888600Y-107022900D02*
X72618600Y-107022900D01*
D15*
X131165504Y-131557780D02*
X131165504Y-132367304D01*
X131117885Y-132462542D01*
X131070266Y-132510161D01*
X130975028Y-132557780D01*
X130784552Y-132557780D01*
X130689314Y-132510161D01*
X130641695Y-132462542D01*
X130594076Y-132367304D01*
X130594076Y-131557780D01*
X129641695Y-131557780D02*
X130117885Y-131557780D01*
X130165504Y-132033971D01*
X130117885Y-131986352D01*
X130022647Y-131938733D01*
X129784552Y-131938733D01*
X129689314Y-131986352D01*
X129641695Y-132033971D01*
X129594076Y-132129209D01*
X129594076Y-132367304D01*
X129641695Y-132462542D01*
X129689314Y-132510161D01*
X129784552Y-132557780D01*
X130022647Y-132557780D01*
X130117885Y-132510161D01*
X130165504Y-132462542D01*
X63676280Y-74334904D02*
X63676280Y-74906333D01*
X64676280Y-74620619D02*
X63676280Y-74620619D01*
X64676280Y-75239666D02*
X63676280Y-75239666D01*
X63676280Y-75620619D01*
X63723900Y-75715857D01*
X63771519Y-75763476D01*
X63866757Y-75811095D01*
X64009614Y-75811095D01*
X64104852Y-75763476D01*
X64152471Y-75715857D01*
X64200090Y-75620619D01*
X64200090Y-75239666D01*
X64676280Y-76763476D02*
X64676280Y-76192047D01*
X64676280Y-76477761D02*
X63676280Y-76477761D01*
X63819138Y-76382523D01*
X63914376Y-76287285D01*
X63961995Y-76192047D01*
X63676280Y-77096809D02*
X63676280Y-77763476D01*
X64676280Y-77334904D01*
X224750095Y-187031380D02*
X224178666Y-187031380D01*
X224464380Y-188031380D02*
X224464380Y-187031380D01*
X223845333Y-188031380D02*
X223845333Y-187031380D01*
X223464380Y-187031380D01*
X223369142Y-187079000D01*
X223321523Y-187126619D01*
X223273904Y-187221857D01*
X223273904Y-187364714D01*
X223321523Y-187459952D01*
X223369142Y-187507571D01*
X223464380Y-187555190D01*
X223845333Y-187555190D01*
X222321523Y-188031380D02*
X222892952Y-188031380D01*
X222607238Y-188031380D02*
X222607238Y-187031380D01*
X222702476Y-187174238D01*
X222797714Y-187269476D01*
X222892952Y-187317095D01*
X221750095Y-187459952D02*
X221845333Y-187412333D01*
X221892952Y-187364714D01*
X221940571Y-187269476D01*
X221940571Y-187221857D01*
X221892952Y-187126619D01*
X221845333Y-187079000D01*
X221750095Y-187031380D01*
X221559619Y-187031380D01*
X221464380Y-187079000D01*
X221416761Y-187126619D01*
X221369142Y-187221857D01*
X221369142Y-187269476D01*
X221416761Y-187364714D01*
X221464380Y-187412333D01*
X221559619Y-187459952D01*
X221750095Y-187459952D01*
X221845333Y-187507571D01*
X221892952Y-187555190D01*
X221940571Y-187650428D01*
X221940571Y-187840904D01*
X221892952Y-187936142D01*
X221845333Y-187983761D01*
X221750095Y-188031380D01*
X221559619Y-188031380D01*
X221464380Y-187983761D01*
X221416761Y-187936142D01*
X221369142Y-187840904D01*
X221369142Y-187650428D01*
X221416761Y-187555190D01*
X221464380Y-187507571D01*
X221559619Y-187459952D01*
X94256123Y-183678580D02*
X94256123Y-184392866D01*
X94303742Y-184535723D01*
X94398980Y-184630961D01*
X94541838Y-184678580D01*
X94637076Y-184678580D01*
X93256123Y-184678580D02*
X93827552Y-184678580D01*
X93541838Y-184678580D02*
X93541838Y-183678580D01*
X93637076Y-183821438D01*
X93732314Y-183916676D01*
X93827552Y-183964295D01*
X92637076Y-183678580D02*
X92541838Y-183678580D01*
X92446600Y-183726200D01*
X92398980Y-183773819D01*
X92351361Y-183869057D01*
X92303742Y-184059533D01*
X92303742Y-184297628D01*
X92351361Y-184488104D01*
X92398980Y-184583342D01*
X92446600Y-184630961D01*
X92541838Y-184678580D01*
X92637076Y-184678580D01*
X92732314Y-184630961D01*
X92779933Y-184583342D01*
X92827552Y-184488104D01*
X92875171Y-184297628D01*
X92875171Y-184059533D01*
X92827552Y-183869057D01*
X92779933Y-183773819D01*
X92732314Y-183726200D01*
X92637076Y-183678580D01*
X167768542Y-110310633D02*
X167816161Y-110263014D01*
X167863780Y-110120157D01*
X167863780Y-110024919D01*
X167816161Y-109882061D01*
X167720923Y-109786823D01*
X167625685Y-109739204D01*
X167435209Y-109691585D01*
X167292352Y-109691585D01*
X167101876Y-109739204D01*
X167006638Y-109786823D01*
X166911400Y-109882061D01*
X166863780Y-110024919D01*
X166863780Y-110120157D01*
X166911400Y-110263014D01*
X166959019Y-110310633D01*
X167197114Y-111167776D02*
X167863780Y-111167776D01*
X166816161Y-110929680D02*
X167530447Y-110691585D01*
X167530447Y-111310633D01*
X134951742Y-138098233D02*
X134999361Y-138050614D01*
X135046980Y-137907757D01*
X135046980Y-137812519D01*
X134999361Y-137669661D01*
X134904123Y-137574423D01*
X134808885Y-137526804D01*
X134618409Y-137479185D01*
X134475552Y-137479185D01*
X134285076Y-137526804D01*
X134189838Y-137574423D01*
X134094600Y-137669661D01*
X134046980Y-137812519D01*
X134046980Y-137907757D01*
X134094600Y-138050614D01*
X134142219Y-138098233D01*
X134046980Y-139002995D02*
X134046980Y-138526804D01*
X134523171Y-138479185D01*
X134475552Y-138526804D01*
X134427933Y-138622042D01*
X134427933Y-138860138D01*
X134475552Y-138955376D01*
X134523171Y-139002995D01*
X134618409Y-139050614D01*
X134856504Y-139050614D01*
X134951742Y-139002995D01*
X134999361Y-138955376D01*
X135046980Y-138860138D01*
X135046980Y-138622042D01*
X134999361Y-138526804D01*
X134951742Y-138479185D01*
X171045142Y-110285233D02*
X171092761Y-110237614D01*
X171140380Y-110094757D01*
X171140380Y-109999519D01*
X171092761Y-109856661D01*
X170997523Y-109761423D01*
X170902285Y-109713804D01*
X170711809Y-109666185D01*
X170568952Y-109666185D01*
X170378476Y-109713804D01*
X170283238Y-109761423D01*
X170188000Y-109856661D01*
X170140380Y-109999519D01*
X170140380Y-110094757D01*
X170188000Y-110237614D01*
X170235619Y-110285233D01*
X170140380Y-111142376D02*
X170140380Y-110951900D01*
X170188000Y-110856661D01*
X170235619Y-110809042D01*
X170378476Y-110713804D01*
X170568952Y-110666185D01*
X170949904Y-110666185D01*
X171045142Y-110713804D01*
X171092761Y-110761423D01*
X171140380Y-110856661D01*
X171140380Y-111047138D01*
X171092761Y-111142376D01*
X171045142Y-111189995D01*
X170949904Y-111237614D01*
X170711809Y-111237614D01*
X170616571Y-111189995D01*
X170568952Y-111142376D01*
X170521333Y-111047138D01*
X170521333Y-110856661D01*
X170568952Y-110761423D01*
X170616571Y-110713804D01*
X170711809Y-110666185D01*
X150026666Y-114860342D02*
X150074285Y-114907961D01*
X150217142Y-114955580D01*
X150312380Y-114955580D01*
X150455238Y-114907961D01*
X150550476Y-114812723D01*
X150598095Y-114717485D01*
X150645714Y-114527009D01*
X150645714Y-114384152D01*
X150598095Y-114193676D01*
X150550476Y-114098438D01*
X150455238Y-114003200D01*
X150312380Y-113955580D01*
X150217142Y-113955580D01*
X150074285Y-114003200D01*
X150026666Y-114050819D01*
X149455238Y-114384152D02*
X149550476Y-114336533D01*
X149598095Y-114288914D01*
X149645714Y-114193676D01*
X149645714Y-114146057D01*
X149598095Y-114050819D01*
X149550476Y-114003200D01*
X149455238Y-113955580D01*
X149264761Y-113955580D01*
X149169523Y-114003200D01*
X149121904Y-114050819D01*
X149074285Y-114146057D01*
X149074285Y-114193676D01*
X149121904Y-114288914D01*
X149169523Y-114336533D01*
X149264761Y-114384152D01*
X149455238Y-114384152D01*
X149550476Y-114431771D01*
X149598095Y-114479390D01*
X149645714Y-114574628D01*
X149645714Y-114765104D01*
X149598095Y-114860342D01*
X149550476Y-114907961D01*
X149455238Y-114955580D01*
X149264761Y-114955580D01*
X149169523Y-114907961D01*
X149121904Y-114860342D01*
X149074285Y-114765104D01*
X149074285Y-114574628D01*
X149121904Y-114479390D01*
X149169523Y-114431771D01*
X149264761Y-114384152D01*
X132564142Y-110386833D02*
X132611761Y-110339214D01*
X132659380Y-110196357D01*
X132659380Y-110101119D01*
X132611761Y-109958261D01*
X132516523Y-109863023D01*
X132421285Y-109815404D01*
X132230809Y-109767785D01*
X132087952Y-109767785D01*
X131897476Y-109815404D01*
X131802238Y-109863023D01*
X131707000Y-109958261D01*
X131659380Y-110101119D01*
X131659380Y-110196357D01*
X131707000Y-110339214D01*
X131754619Y-110386833D01*
X132659380Y-110863023D02*
X132659380Y-111053500D01*
X132611761Y-111148738D01*
X132564142Y-111196357D01*
X132421285Y-111291595D01*
X132230809Y-111339214D01*
X131849857Y-111339214D01*
X131754619Y-111291595D01*
X131707000Y-111243976D01*
X131659380Y-111148738D01*
X131659380Y-110958261D01*
X131707000Y-110863023D01*
X131754619Y-110815404D01*
X131849857Y-110767785D01*
X132087952Y-110767785D01*
X132183190Y-110815404D01*
X132230809Y-110863023D01*
X132278428Y-110958261D01*
X132278428Y-111148738D01*
X132230809Y-111243976D01*
X132183190Y-111291595D01*
X132087952Y-111339214D01*
X150579057Y-118649242D02*
X150626676Y-118696861D01*
X150769533Y-118744480D01*
X150864771Y-118744480D01*
X151007628Y-118696861D01*
X151102866Y-118601623D01*
X151150485Y-118506385D01*
X151198104Y-118315909D01*
X151198104Y-118173052D01*
X151150485Y-117982576D01*
X151102866Y-117887338D01*
X151007628Y-117792100D01*
X150864771Y-117744480D01*
X150769533Y-117744480D01*
X150626676Y-117792100D01*
X150579057Y-117839719D01*
X149626676Y-118744480D02*
X150198104Y-118744480D01*
X149912390Y-118744480D02*
X149912390Y-117744480D01*
X150007628Y-117887338D01*
X150102866Y-117982576D01*
X150198104Y-118030195D01*
X149007628Y-117744480D02*
X148912390Y-117744480D01*
X148817152Y-117792100D01*
X148769533Y-117839719D01*
X148721914Y-117934957D01*
X148674295Y-118125433D01*
X148674295Y-118363528D01*
X148721914Y-118554004D01*
X148769533Y-118649242D01*
X148817152Y-118696861D01*
X148912390Y-118744480D01*
X149007628Y-118744480D01*
X149102866Y-118696861D01*
X149150485Y-118649242D01*
X149198104Y-118554004D01*
X149245723Y-118363528D01*
X149245723Y-118125433D01*
X149198104Y-117934957D01*
X149150485Y-117839719D01*
X149102866Y-117792100D01*
X149007628Y-117744480D01*
X136729742Y-136847342D02*
X136777361Y-136799723D01*
X136824980Y-136656866D01*
X136824980Y-136561628D01*
X136777361Y-136418771D01*
X136682123Y-136323533D01*
X136586885Y-136275914D01*
X136396409Y-136228295D01*
X136253552Y-136228295D01*
X136063076Y-136275914D01*
X135967838Y-136323533D01*
X135872600Y-136418771D01*
X135824980Y-136561628D01*
X135824980Y-136656866D01*
X135872600Y-136799723D01*
X135920219Y-136847342D01*
X136824980Y-137799723D02*
X136824980Y-137228295D01*
X136824980Y-137514009D02*
X135824980Y-137514009D01*
X135967838Y-137418771D01*
X136063076Y-137323533D01*
X136110695Y-137228295D01*
X136824980Y-138752104D02*
X136824980Y-138180676D01*
X136824980Y-138466390D02*
X135824980Y-138466390D01*
X135967838Y-138371152D01*
X136063076Y-138275914D01*
X136110695Y-138180676D01*
X133948442Y-109351842D02*
X133996061Y-109304223D01*
X134043680Y-109161366D01*
X134043680Y-109066128D01*
X133996061Y-108923271D01*
X133900823Y-108828033D01*
X133805585Y-108780414D01*
X133615109Y-108732795D01*
X133472252Y-108732795D01*
X133281776Y-108780414D01*
X133186538Y-108828033D01*
X133091300Y-108923271D01*
X133043680Y-109066128D01*
X133043680Y-109161366D01*
X133091300Y-109304223D01*
X133138919Y-109351842D01*
X134043680Y-110304223D02*
X134043680Y-109732795D01*
X134043680Y-110018509D02*
X133043680Y-110018509D01*
X133186538Y-109923271D01*
X133281776Y-109828033D01*
X133329395Y-109732795D01*
X133138919Y-110685176D02*
X133091300Y-110732795D01*
X133043680Y-110828033D01*
X133043680Y-111066128D01*
X133091300Y-111161366D01*
X133138919Y-111208985D01*
X133234157Y-111256604D01*
X133329395Y-111256604D01*
X133472252Y-111208985D01*
X134043680Y-110637557D01*
X134043680Y-111256604D01*
X120886457Y-129820942D02*
X120934076Y-129868561D01*
X121076933Y-129916180D01*
X121172171Y-129916180D01*
X121315028Y-129868561D01*
X121410266Y-129773323D01*
X121457885Y-129678085D01*
X121505504Y-129487609D01*
X121505504Y-129344752D01*
X121457885Y-129154276D01*
X121410266Y-129059038D01*
X121315028Y-128963800D01*
X121172171Y-128916180D01*
X121076933Y-128916180D01*
X120934076Y-128963800D01*
X120886457Y-129011419D01*
X119934076Y-129916180D02*
X120505504Y-129916180D01*
X120219790Y-129916180D02*
X120219790Y-128916180D01*
X120315028Y-129059038D01*
X120410266Y-129154276D01*
X120505504Y-129201895D01*
X119076933Y-129249514D02*
X119076933Y-129916180D01*
X119315028Y-128868561D02*
X119553123Y-129582847D01*
X118934076Y-129582847D01*
X138088642Y-136948942D02*
X138136261Y-136901323D01*
X138183880Y-136758466D01*
X138183880Y-136663228D01*
X138136261Y-136520371D01*
X138041023Y-136425133D01*
X137945785Y-136377514D01*
X137755309Y-136329895D01*
X137612452Y-136329895D01*
X137421976Y-136377514D01*
X137326738Y-136425133D01*
X137231500Y-136520371D01*
X137183880Y-136663228D01*
X137183880Y-136758466D01*
X137231500Y-136901323D01*
X137279119Y-136948942D01*
X138183880Y-137901323D02*
X138183880Y-137329895D01*
X138183880Y-137615609D02*
X137183880Y-137615609D01*
X137326738Y-137520371D01*
X137421976Y-137425133D01*
X137469595Y-137329895D01*
X137183880Y-138806085D02*
X137183880Y-138329895D01*
X137660071Y-138282276D01*
X137612452Y-138329895D01*
X137564833Y-138425133D01*
X137564833Y-138663228D01*
X137612452Y-138758466D01*
X137660071Y-138806085D01*
X137755309Y-138853704D01*
X137993404Y-138853704D01*
X138088642Y-138806085D01*
X138136261Y-138758466D01*
X138183880Y-138663228D01*
X138183880Y-138425133D01*
X138136261Y-138329895D01*
X138088642Y-138282276D01*
X147531057Y-123445542D02*
X147578676Y-123493161D01*
X147721533Y-123540780D01*
X147816771Y-123540780D01*
X147959628Y-123493161D01*
X148054866Y-123397923D01*
X148102485Y-123302685D01*
X148150104Y-123112209D01*
X148150104Y-122969352D01*
X148102485Y-122778876D01*
X148054866Y-122683638D01*
X147959628Y-122588400D01*
X147816771Y-122540780D01*
X147721533Y-122540780D01*
X147578676Y-122588400D01*
X147531057Y-122636019D01*
X146578676Y-123540780D02*
X147150104Y-123540780D01*
X146864390Y-123540780D02*
X146864390Y-122540780D01*
X146959628Y-122683638D01*
X147054866Y-122778876D01*
X147150104Y-122826495D01*
X146245342Y-122540780D02*
X145578676Y-122540780D01*
X146007247Y-123540780D01*
X147543757Y-124626642D02*
X147591376Y-124674261D01*
X147734233Y-124721880D01*
X147829471Y-124721880D01*
X147972328Y-124674261D01*
X148067566Y-124579023D01*
X148115185Y-124483785D01*
X148162804Y-124293309D01*
X148162804Y-124150452D01*
X148115185Y-123959976D01*
X148067566Y-123864738D01*
X147972328Y-123769500D01*
X147829471Y-123721880D01*
X147734233Y-123721880D01*
X147591376Y-123769500D01*
X147543757Y-123817119D01*
X146591376Y-124721880D02*
X147162804Y-124721880D01*
X146877090Y-124721880D02*
X146877090Y-123721880D01*
X146972328Y-123864738D01*
X147067566Y-123959976D01*
X147162804Y-124007595D01*
X146019947Y-124150452D02*
X146115185Y-124102833D01*
X146162804Y-124055214D01*
X146210423Y-123959976D01*
X146210423Y-123912357D01*
X146162804Y-123817119D01*
X146115185Y-123769500D01*
X146019947Y-123721880D01*
X145829471Y-123721880D01*
X145734233Y-123769500D01*
X145686614Y-123817119D01*
X145638995Y-123912357D01*
X145638995Y-123959976D01*
X145686614Y-124055214D01*
X145734233Y-124102833D01*
X145829471Y-124150452D01*
X146019947Y-124150452D01*
X146115185Y-124198071D01*
X146162804Y-124245690D01*
X146210423Y-124340928D01*
X146210423Y-124531404D01*
X146162804Y-124626642D01*
X146115185Y-124674261D01*
X146019947Y-124721880D01*
X145829471Y-124721880D01*
X145734233Y-124674261D01*
X145686614Y-124626642D01*
X145638995Y-124531404D01*
X145638995Y-124340928D01*
X145686614Y-124245690D01*
X145734233Y-124198071D01*
X145829471Y-124150452D01*
X135142242Y-109567742D02*
X135189861Y-109520123D01*
X135237480Y-109377266D01*
X135237480Y-109282028D01*
X135189861Y-109139171D01*
X135094623Y-109043933D01*
X134999385Y-108996314D01*
X134808909Y-108948695D01*
X134666052Y-108948695D01*
X134475576Y-108996314D01*
X134380338Y-109043933D01*
X134285100Y-109139171D01*
X134237480Y-109282028D01*
X134237480Y-109377266D01*
X134285100Y-109520123D01*
X134332719Y-109567742D01*
X135237480Y-110520123D02*
X135237480Y-109948695D01*
X135237480Y-110234409D02*
X134237480Y-110234409D01*
X134380338Y-110139171D01*
X134475576Y-110043933D01*
X134523195Y-109948695D01*
X135237480Y-110996314D02*
X135237480Y-111186790D01*
X135189861Y-111282028D01*
X135142242Y-111329647D01*
X134999385Y-111424885D01*
X134808909Y-111472504D01*
X134427957Y-111472504D01*
X134332719Y-111424885D01*
X134285100Y-111377266D01*
X134237480Y-111282028D01*
X134237480Y-111091552D01*
X134285100Y-110996314D01*
X134332719Y-110948695D01*
X134427957Y-110901076D01*
X134666052Y-110901076D01*
X134761290Y-110948695D01*
X134808909Y-110996314D01*
X134856528Y-111091552D01*
X134856528Y-111282028D01*
X134808909Y-111377266D01*
X134761290Y-111424885D01*
X134666052Y-111472504D01*
X139485642Y-136948942D02*
X139533261Y-136901323D01*
X139580880Y-136758466D01*
X139580880Y-136663228D01*
X139533261Y-136520371D01*
X139438023Y-136425133D01*
X139342785Y-136377514D01*
X139152309Y-136329895D01*
X139009452Y-136329895D01*
X138818976Y-136377514D01*
X138723738Y-136425133D01*
X138628500Y-136520371D01*
X138580880Y-136663228D01*
X138580880Y-136758466D01*
X138628500Y-136901323D01*
X138676119Y-136948942D01*
X138676119Y-137329895D02*
X138628500Y-137377514D01*
X138580880Y-137472752D01*
X138580880Y-137710847D01*
X138628500Y-137806085D01*
X138676119Y-137853704D01*
X138771357Y-137901323D01*
X138866595Y-137901323D01*
X139009452Y-137853704D01*
X139580880Y-137282276D01*
X139580880Y-137901323D01*
X139580880Y-138853704D02*
X139580880Y-138282276D01*
X139580880Y-138567990D02*
X138580880Y-138567990D01*
X138723738Y-138472752D01*
X138818976Y-138377514D01*
X138866595Y-138282276D01*
X122054857Y-123610642D02*
X122102476Y-123658261D01*
X122245333Y-123705880D01*
X122340571Y-123705880D01*
X122483428Y-123658261D01*
X122578666Y-123563023D01*
X122626285Y-123467785D01*
X122673904Y-123277309D01*
X122673904Y-123134452D01*
X122626285Y-122943976D01*
X122578666Y-122848738D01*
X122483428Y-122753500D01*
X122340571Y-122705880D01*
X122245333Y-122705880D01*
X122102476Y-122753500D01*
X122054857Y-122801119D01*
X121673904Y-122801119D02*
X121626285Y-122753500D01*
X121531047Y-122705880D01*
X121292952Y-122705880D01*
X121197714Y-122753500D01*
X121150095Y-122801119D01*
X121102476Y-122896357D01*
X121102476Y-122991595D01*
X121150095Y-123134452D01*
X121721523Y-123705880D01*
X121102476Y-123705880D01*
X120769142Y-122705880D02*
X120150095Y-122705880D01*
X120483428Y-123086833D01*
X120340571Y-123086833D01*
X120245333Y-123134452D01*
X120197714Y-123182071D01*
X120150095Y-123277309D01*
X120150095Y-123515404D01*
X120197714Y-123610642D01*
X120245333Y-123658261D01*
X120340571Y-123705880D01*
X120626285Y-123705880D01*
X120721523Y-123658261D01*
X120769142Y-123610642D01*
X70499242Y-79532242D02*
X70546861Y-79484623D01*
X70594480Y-79341766D01*
X70594480Y-79246528D01*
X70546861Y-79103671D01*
X70451623Y-79008433D01*
X70356385Y-78960814D01*
X70165909Y-78913195D01*
X70023052Y-78913195D01*
X69832576Y-78960814D01*
X69737338Y-79008433D01*
X69642100Y-79103671D01*
X69594480Y-79246528D01*
X69594480Y-79341766D01*
X69642100Y-79484623D01*
X69689719Y-79532242D01*
X69689719Y-79913195D02*
X69642100Y-79960814D01*
X69594480Y-80056052D01*
X69594480Y-80294147D01*
X69642100Y-80389385D01*
X69689719Y-80437004D01*
X69784957Y-80484623D01*
X69880195Y-80484623D01*
X70023052Y-80437004D01*
X70594480Y-79865576D01*
X70594480Y-80484623D01*
X69594480Y-81341766D02*
X69594480Y-81151290D01*
X69642100Y-81056052D01*
X69689719Y-81008433D01*
X69832576Y-80913195D01*
X70023052Y-80865576D01*
X70404004Y-80865576D01*
X70499242Y-80913195D01*
X70546861Y-80960814D01*
X70594480Y-81056052D01*
X70594480Y-81246528D01*
X70546861Y-81341766D01*
X70499242Y-81389385D01*
X70404004Y-81437004D01*
X70165909Y-81437004D01*
X70070671Y-81389385D01*
X70023052Y-81341766D01*
X69975433Y-81246528D01*
X69975433Y-81056052D01*
X70023052Y-80960814D01*
X70070671Y-80913195D01*
X70165909Y-80865576D01*
X62187057Y-83554842D02*
X62234676Y-83602461D01*
X62377533Y-83650080D01*
X62472771Y-83650080D01*
X62615628Y-83602461D01*
X62710866Y-83507223D01*
X62758485Y-83411985D01*
X62806104Y-83221509D01*
X62806104Y-83078652D01*
X62758485Y-82888176D01*
X62710866Y-82792938D01*
X62615628Y-82697700D01*
X62472771Y-82650080D01*
X62377533Y-82650080D01*
X62234676Y-82697700D01*
X62187057Y-82745319D01*
X61806104Y-82745319D02*
X61758485Y-82697700D01*
X61663247Y-82650080D01*
X61425152Y-82650080D01*
X61329914Y-82697700D01*
X61282295Y-82745319D01*
X61234676Y-82840557D01*
X61234676Y-82935795D01*
X61282295Y-83078652D01*
X61853723Y-83650080D01*
X61234676Y-83650080D01*
X60901342Y-82650080D02*
X60234676Y-82650080D01*
X60663247Y-83650080D01*
X181122557Y-136725442D02*
X181170176Y-136773061D01*
X181313033Y-136820680D01*
X181408271Y-136820680D01*
X181551128Y-136773061D01*
X181646366Y-136677823D01*
X181693985Y-136582585D01*
X181741604Y-136392109D01*
X181741604Y-136249252D01*
X181693985Y-136058776D01*
X181646366Y-135963538D01*
X181551128Y-135868300D01*
X181408271Y-135820680D01*
X181313033Y-135820680D01*
X181170176Y-135868300D01*
X181122557Y-135915919D01*
X180741604Y-135915919D02*
X180693985Y-135868300D01*
X180598747Y-135820680D01*
X180360652Y-135820680D01*
X180265414Y-135868300D01*
X180217795Y-135915919D01*
X180170176Y-136011157D01*
X180170176Y-136106395D01*
X180217795Y-136249252D01*
X180789223Y-136820680D01*
X180170176Y-136820680D01*
X179598747Y-136249252D02*
X179693985Y-136201633D01*
X179741604Y-136154014D01*
X179789223Y-136058776D01*
X179789223Y-136011157D01*
X179741604Y-135915919D01*
X179693985Y-135868300D01*
X179598747Y-135820680D01*
X179408271Y-135820680D01*
X179313033Y-135868300D01*
X179265414Y-135915919D01*
X179217795Y-136011157D01*
X179217795Y-136058776D01*
X179265414Y-136154014D01*
X179313033Y-136201633D01*
X179408271Y-136249252D01*
X179598747Y-136249252D01*
X179693985Y-136296871D01*
X179741604Y-136344490D01*
X179789223Y-136439728D01*
X179789223Y-136630204D01*
X179741604Y-136725442D01*
X179693985Y-136773061D01*
X179598747Y-136820680D01*
X179408271Y-136820680D01*
X179313033Y-136773061D01*
X179265414Y-136725442D01*
X179217795Y-136630204D01*
X179217795Y-136439728D01*
X179265414Y-136344490D01*
X179313033Y-136296871D01*
X179408271Y-136249252D01*
X139034780Y-107700914D02*
X138034780Y-107700914D01*
X138034780Y-107939009D01*
X138082400Y-108081866D01*
X138177638Y-108177104D01*
X138272876Y-108224723D01*
X138463352Y-108272342D01*
X138606209Y-108272342D01*
X138796685Y-108224723D01*
X138891923Y-108177104D01*
X138987161Y-108081866D01*
X139034780Y-107939009D01*
X139034780Y-107700914D01*
X139034780Y-109224723D02*
X139034780Y-108653295D01*
X139034780Y-108939009D02*
X138034780Y-108939009D01*
X138177638Y-108843771D01*
X138272876Y-108748533D01*
X138320495Y-108653295D01*
X138034780Y-109558057D02*
X138034780Y-110177104D01*
X138415733Y-109843771D01*
X138415733Y-109986628D01*
X138463352Y-110081866D01*
X138510971Y-110129485D01*
X138606209Y-110177104D01*
X138844304Y-110177104D01*
X138939542Y-110129485D01*
X138987161Y-110081866D01*
X139034780Y-109986628D01*
X139034780Y-109700914D01*
X138987161Y-109605676D01*
X138939542Y-109558057D01*
X141346180Y-107726314D02*
X140346180Y-107726314D01*
X140346180Y-107964409D01*
X140393800Y-108107266D01*
X140489038Y-108202504D01*
X140584276Y-108250123D01*
X140774752Y-108297742D01*
X140917609Y-108297742D01*
X141108085Y-108250123D01*
X141203323Y-108202504D01*
X141298561Y-108107266D01*
X141346180Y-107964409D01*
X141346180Y-107726314D01*
X141346180Y-109250123D02*
X141346180Y-108678695D01*
X141346180Y-108964409D02*
X140346180Y-108964409D01*
X140489038Y-108869171D01*
X140584276Y-108773933D01*
X140631895Y-108678695D01*
X140679514Y-110107266D02*
X141346180Y-110107266D01*
X140298561Y-109869171D02*
X141012847Y-109631076D01*
X141012847Y-110250123D01*
X76677780Y-82161214D02*
X75677780Y-82161214D01*
X75677780Y-82399309D01*
X75725400Y-82542166D01*
X75820638Y-82637404D01*
X75915876Y-82685023D01*
X76106352Y-82732642D01*
X76249209Y-82732642D01*
X76439685Y-82685023D01*
X76534923Y-82637404D01*
X76630161Y-82542166D01*
X76677780Y-82399309D01*
X76677780Y-82161214D01*
X76677780Y-83685023D02*
X76677780Y-83113595D01*
X76677780Y-83399309D02*
X75677780Y-83399309D01*
X75820638Y-83304071D01*
X75915876Y-83208833D01*
X75963495Y-83113595D01*
X75677780Y-84589785D02*
X75677780Y-84113595D01*
X76153971Y-84065976D01*
X76106352Y-84113595D01*
X76058733Y-84208833D01*
X76058733Y-84446928D01*
X76106352Y-84542166D01*
X76153971Y-84589785D01*
X76249209Y-84637404D01*
X76487304Y-84637404D01*
X76582542Y-84589785D01*
X76630161Y-84542166D01*
X76677780Y-84446928D01*
X76677780Y-84208833D01*
X76630161Y-84113595D01*
X76582542Y-84065976D01*
X119425933Y-125125171D02*
X119759266Y-125125171D01*
X119759266Y-125648980D02*
X119759266Y-124648980D01*
X119283076Y-124648980D01*
X118568790Y-125125171D02*
X118425933Y-125172790D01*
X118378314Y-125220409D01*
X118330695Y-125315647D01*
X118330695Y-125458504D01*
X118378314Y-125553742D01*
X118425933Y-125601361D01*
X118521171Y-125648980D01*
X118902123Y-125648980D01*
X118902123Y-124648980D01*
X118568790Y-124648980D01*
X118473552Y-124696600D01*
X118425933Y-124744219D01*
X118378314Y-124839457D01*
X118378314Y-124934695D01*
X118425933Y-125029933D01*
X118473552Y-125077552D01*
X118568790Y-125125171D01*
X118902123Y-125125171D01*
X117378314Y-125648980D02*
X117949742Y-125648980D01*
X117664028Y-125648980D02*
X117664028Y-124648980D01*
X117759266Y-124791838D01*
X117854504Y-124887076D01*
X117949742Y-124934695D01*
X67594171Y-79011566D02*
X67594171Y-78678233D01*
X68117980Y-78678233D02*
X67117980Y-78678233D01*
X67117980Y-79154423D01*
X67594171Y-79868709D02*
X67641790Y-80011566D01*
X67689409Y-80059185D01*
X67784647Y-80106804D01*
X67927504Y-80106804D01*
X68022742Y-80059185D01*
X68070361Y-80011566D01*
X68117980Y-79916328D01*
X68117980Y-79535376D01*
X67117980Y-79535376D01*
X67117980Y-79868709D01*
X67165600Y-79963947D01*
X67213219Y-80011566D01*
X67308457Y-80059185D01*
X67403695Y-80059185D01*
X67498933Y-80011566D01*
X67546552Y-79963947D01*
X67594171Y-79868709D01*
X67594171Y-79535376D01*
X67213219Y-80487757D02*
X67165600Y-80535376D01*
X67117980Y-80630614D01*
X67117980Y-80868709D01*
X67165600Y-80963947D01*
X67213219Y-81011566D01*
X67308457Y-81059185D01*
X67403695Y-81059185D01*
X67546552Y-81011566D01*
X68117980Y-80440138D01*
X68117980Y-81059185D01*
X67744933Y-158888180D02*
X67744933Y-159602466D01*
X67792552Y-159745323D01*
X67887790Y-159840561D01*
X68030647Y-159888180D01*
X68125885Y-159888180D01*
X66744933Y-159888180D02*
X67316361Y-159888180D01*
X67030647Y-159888180D02*
X67030647Y-158888180D01*
X67125885Y-159031038D01*
X67221123Y-159126276D01*
X67316361Y-159173895D01*
X105847080Y-111604466D02*
X106561366Y-111604466D01*
X106704223Y-111556847D01*
X106799461Y-111461609D01*
X106847080Y-111318752D01*
X106847080Y-111223514D01*
X105847080Y-111985419D02*
X105847080Y-112604466D01*
X106228033Y-112271133D01*
X106228033Y-112413990D01*
X106275652Y-112509228D01*
X106323271Y-112556847D01*
X106418509Y-112604466D01*
X106656604Y-112604466D01*
X106751842Y-112556847D01*
X106799461Y-112509228D01*
X106847080Y-112413990D01*
X106847080Y-112128276D01*
X106799461Y-112033038D01*
X106751842Y-111985419D01*
X116512933Y-118629180D02*
X116512933Y-119343466D01*
X116560552Y-119486323D01*
X116655790Y-119581561D01*
X116798647Y-119629180D01*
X116893885Y-119629180D01*
X115560552Y-118629180D02*
X116036742Y-118629180D01*
X116084361Y-119105371D01*
X116036742Y-119057752D01*
X115941504Y-119010133D01*
X115703409Y-119010133D01*
X115608171Y-119057752D01*
X115560552Y-119105371D01*
X115512933Y-119200609D01*
X115512933Y-119438704D01*
X115560552Y-119533942D01*
X115608171Y-119581561D01*
X115703409Y-119629180D01*
X115941504Y-119629180D01*
X116036742Y-119581561D01*
X116084361Y-119533942D01*
X65618780Y-98218666D02*
X66333066Y-98218666D01*
X66475923Y-98171047D01*
X66571161Y-98075809D01*
X66618780Y-97932952D01*
X66618780Y-97837714D01*
X66047352Y-98837714D02*
X65999733Y-98742476D01*
X65952114Y-98694857D01*
X65856876Y-98647238D01*
X65809257Y-98647238D01*
X65714019Y-98694857D01*
X65666400Y-98742476D01*
X65618780Y-98837714D01*
X65618780Y-99028190D01*
X65666400Y-99123428D01*
X65714019Y-99171047D01*
X65809257Y-99218666D01*
X65856876Y-99218666D01*
X65952114Y-99171047D01*
X65999733Y-99123428D01*
X66047352Y-99028190D01*
X66047352Y-98837714D01*
X66094971Y-98742476D01*
X66142590Y-98694857D01*
X66237828Y-98647238D01*
X66428304Y-98647238D01*
X66523542Y-98694857D01*
X66571161Y-98742476D01*
X66618780Y-98837714D01*
X66618780Y-99028190D01*
X66571161Y-99123428D01*
X66523542Y-99171047D01*
X66428304Y-99218666D01*
X66237828Y-99218666D01*
X66142590Y-99171047D01*
X66094971Y-99123428D01*
X66047352Y-99028190D01*
X67747723Y-46420280D02*
X67747723Y-47134566D01*
X67795342Y-47277423D01*
X67890580Y-47372661D01*
X68033438Y-47420280D01*
X68128676Y-47420280D01*
X66747723Y-47420280D02*
X67319152Y-47420280D01*
X67033438Y-47420280D02*
X67033438Y-46420280D01*
X67128676Y-46563138D01*
X67223914Y-46658376D01*
X67319152Y-46705995D01*
X65890580Y-46753614D02*
X65890580Y-47420280D01*
X66128676Y-46372661D02*
X66366771Y-47086947D01*
X65747723Y-47086947D01*
X144116323Y-143933480D02*
X144116323Y-144647766D01*
X144163942Y-144790623D01*
X144259180Y-144885861D01*
X144402038Y-144933480D01*
X144497276Y-144933480D01*
X143116323Y-144933480D02*
X143687752Y-144933480D01*
X143402038Y-144933480D02*
X143402038Y-143933480D01*
X143497276Y-144076338D01*
X143592514Y-144171576D01*
X143687752Y-144219195D01*
X142211561Y-143933480D02*
X142687752Y-143933480D01*
X142735371Y-144409671D01*
X142687752Y-144362052D01*
X142592514Y-144314433D01*
X142354419Y-144314433D01*
X142259180Y-144362052D01*
X142211561Y-144409671D01*
X142163942Y-144504909D01*
X142163942Y-144743004D01*
X142211561Y-144838242D01*
X142259180Y-144885861D01*
X142354419Y-144933480D01*
X142592514Y-144933480D01*
X142687752Y-144885861D01*
X142735371Y-144838242D01*
X68094123Y-136993380D02*
X68094123Y-137707666D01*
X68141742Y-137850523D01*
X68236980Y-137945761D01*
X68379838Y-137993380D01*
X68475076Y-137993380D01*
X67094123Y-137993380D02*
X67665552Y-137993380D01*
X67379838Y-137993380D02*
X67379838Y-136993380D01*
X67475076Y-137136238D01*
X67570314Y-137231476D01*
X67665552Y-137279095D01*
X66236980Y-136993380D02*
X66427457Y-136993380D01*
X66522695Y-137041000D01*
X66570314Y-137088619D01*
X66665552Y-137231476D01*
X66713171Y-137421952D01*
X66713171Y-137802904D01*
X66665552Y-137898142D01*
X66617933Y-137945761D01*
X66522695Y-137993380D01*
X66332219Y-137993380D01*
X66236980Y-137945761D01*
X66189361Y-137898142D01*
X66141742Y-137802904D01*
X66141742Y-137564809D01*
X66189361Y-137469571D01*
X66236980Y-137421952D01*
X66332219Y-137374333D01*
X66522695Y-137374333D01*
X66617933Y-137421952D01*
X66665552Y-137469571D01*
X66713171Y-137564809D01*
X186837533Y-142352780D02*
X186837533Y-143067066D01*
X186885152Y-143209923D01*
X186980390Y-143305161D01*
X187123247Y-143352780D01*
X187218485Y-143352780D01*
X186361342Y-143352780D02*
X186361342Y-142352780D01*
X185980390Y-142352780D01*
X185885152Y-142400400D01*
X185837533Y-142448019D01*
X185789914Y-142543257D01*
X185789914Y-142686114D01*
X185837533Y-142781352D01*
X185885152Y-142828971D01*
X185980390Y-142876590D01*
X186361342Y-142876590D01*
X184837533Y-143352780D02*
X185408961Y-143352780D01*
X185123247Y-143352780D02*
X185123247Y-142352780D01*
X185218485Y-142495638D01*
X185313723Y-142590876D01*
X185408961Y-142638495D01*
X186913733Y-146645380D02*
X186913733Y-147359666D01*
X186961352Y-147502523D01*
X187056590Y-147597761D01*
X187199447Y-147645380D01*
X187294685Y-147645380D01*
X186437542Y-147645380D02*
X186437542Y-146645380D01*
X186056590Y-146645380D01*
X185961352Y-146693000D01*
X185913733Y-146740619D01*
X185866114Y-146835857D01*
X185866114Y-146978714D01*
X185913733Y-147073952D01*
X185961352Y-147121571D01*
X186056590Y-147169190D01*
X186437542Y-147169190D01*
X185485161Y-146740619D02*
X185437542Y-146693000D01*
X185342304Y-146645380D01*
X185104209Y-146645380D01*
X185008971Y-146693000D01*
X184961352Y-146740619D01*
X184913733Y-146835857D01*
X184913733Y-146931095D01*
X184961352Y-147073952D01*
X185532780Y-147645380D01*
X184913733Y-147645380D01*
X80386157Y-52154080D02*
X80719490Y-51677890D01*
X80957585Y-52154080D02*
X80957585Y-51154080D01*
X80576633Y-51154080D01*
X80481395Y-51201700D01*
X80433776Y-51249319D01*
X80386157Y-51344557D01*
X80386157Y-51487414D01*
X80433776Y-51582652D01*
X80481395Y-51630271D01*
X80576633Y-51677890D01*
X80957585Y-51677890D01*
X80052823Y-51154080D02*
X79433776Y-51154080D01*
X79767109Y-51535033D01*
X79624252Y-51535033D01*
X79529014Y-51582652D01*
X79481395Y-51630271D01*
X79433776Y-51725509D01*
X79433776Y-51963604D01*
X79481395Y-52058842D01*
X79529014Y-52106461D01*
X79624252Y-52154080D01*
X79909966Y-52154080D01*
X80005204Y-52106461D01*
X80052823Y-52058842D01*
X78576633Y-51154080D02*
X78767109Y-51154080D01*
X78862347Y-51201700D01*
X78909966Y-51249319D01*
X79005204Y-51392176D01*
X79052823Y-51582652D01*
X79052823Y-51963604D01*
X79005204Y-52058842D01*
X78957585Y-52106461D01*
X78862347Y-52154080D01*
X78671871Y-52154080D01*
X78576633Y-52106461D01*
X78529014Y-52058842D01*
X78481395Y-51963604D01*
X78481395Y-51725509D01*
X78529014Y-51630271D01*
X78576633Y-51582652D01*
X78671871Y-51535033D01*
X78862347Y-51535033D01*
X78957585Y-51582652D01*
X79005204Y-51630271D01*
X79052823Y-51725509D01*
X80360757Y-53411380D02*
X80694090Y-52935190D01*
X80932185Y-53411380D02*
X80932185Y-52411380D01*
X80551233Y-52411380D01*
X80455995Y-52459000D01*
X80408376Y-52506619D01*
X80360757Y-52601857D01*
X80360757Y-52744714D01*
X80408376Y-52839952D01*
X80455995Y-52887571D01*
X80551233Y-52935190D01*
X80932185Y-52935190D01*
X80027423Y-52411380D02*
X79408376Y-52411380D01*
X79741709Y-52792333D01*
X79598852Y-52792333D01*
X79503614Y-52839952D01*
X79455995Y-52887571D01*
X79408376Y-52982809D01*
X79408376Y-53220904D01*
X79455995Y-53316142D01*
X79503614Y-53363761D01*
X79598852Y-53411380D01*
X79884566Y-53411380D01*
X79979804Y-53363761D01*
X80027423Y-53316142D01*
X79075042Y-52411380D02*
X78408376Y-52411380D01*
X78836947Y-53411380D01*
X128900180Y-107980242D02*
X128423990Y-107646909D01*
X128900180Y-107408814D02*
X127900180Y-107408814D01*
X127900180Y-107789766D01*
X127947800Y-107885004D01*
X127995419Y-107932623D01*
X128090657Y-107980242D01*
X128233514Y-107980242D01*
X128328752Y-107932623D01*
X128376371Y-107885004D01*
X128423990Y-107789766D01*
X128423990Y-107408814D01*
X128233514Y-108837385D02*
X128900180Y-108837385D01*
X127852561Y-108599290D02*
X128566847Y-108361195D01*
X128566847Y-108980242D01*
X128900180Y-109408814D02*
X128900180Y-109599290D01*
X128852561Y-109694528D01*
X128804942Y-109742147D01*
X128662085Y-109837385D01*
X128471609Y-109885004D01*
X128090657Y-109885004D01*
X127995419Y-109837385D01*
X127947800Y-109789766D01*
X127900180Y-109694528D01*
X127900180Y-109504052D01*
X127947800Y-109408814D01*
X127995419Y-109361195D01*
X128090657Y-109313576D01*
X128328752Y-109313576D01*
X128423990Y-109361195D01*
X128471609Y-109408814D01*
X128519228Y-109504052D01*
X128519228Y-109694528D01*
X128471609Y-109789766D01*
X128423990Y-109837385D01*
X128328752Y-109885004D01*
X84539057Y-165730180D02*
X84872390Y-165253990D01*
X85110485Y-165730180D02*
X85110485Y-164730180D01*
X84729533Y-164730180D01*
X84634295Y-164777800D01*
X84586676Y-164825419D01*
X84539057Y-164920657D01*
X84539057Y-165063514D01*
X84586676Y-165158752D01*
X84634295Y-165206371D01*
X84729533Y-165253990D01*
X85110485Y-165253990D01*
X83634295Y-164730180D02*
X84110485Y-164730180D01*
X84158104Y-165206371D01*
X84110485Y-165158752D01*
X84015247Y-165111133D01*
X83777152Y-165111133D01*
X83681914Y-165158752D01*
X83634295Y-165206371D01*
X83586676Y-165301609D01*
X83586676Y-165539704D01*
X83634295Y-165634942D01*
X83681914Y-165682561D01*
X83777152Y-165730180D01*
X84015247Y-165730180D01*
X84110485Y-165682561D01*
X84158104Y-165634942D01*
X82967628Y-164730180D02*
X82872390Y-164730180D01*
X82777152Y-164777800D01*
X82729533Y-164825419D01*
X82681914Y-164920657D01*
X82634295Y-165111133D01*
X82634295Y-165349228D01*
X82681914Y-165539704D01*
X82729533Y-165634942D01*
X82777152Y-165682561D01*
X82872390Y-165730180D01*
X82967628Y-165730180D01*
X83062866Y-165682561D01*
X83110485Y-165634942D01*
X83158104Y-165539704D01*
X83205723Y-165349228D01*
X83205723Y-165111133D01*
X83158104Y-164920657D01*
X83110485Y-164825419D01*
X83062866Y-164777800D01*
X82967628Y-164730180D01*
X84488257Y-170251380D02*
X84821590Y-169775190D01*
X85059685Y-170251380D02*
X85059685Y-169251380D01*
X84678733Y-169251380D01*
X84583495Y-169299000D01*
X84535876Y-169346619D01*
X84488257Y-169441857D01*
X84488257Y-169584714D01*
X84535876Y-169679952D01*
X84583495Y-169727571D01*
X84678733Y-169775190D01*
X85059685Y-169775190D01*
X83583495Y-169251380D02*
X84059685Y-169251380D01*
X84107304Y-169727571D01*
X84059685Y-169679952D01*
X83964447Y-169632333D01*
X83726352Y-169632333D01*
X83631114Y-169679952D01*
X83583495Y-169727571D01*
X83535876Y-169822809D01*
X83535876Y-170060904D01*
X83583495Y-170156142D01*
X83631114Y-170203761D01*
X83726352Y-170251380D01*
X83964447Y-170251380D01*
X84059685Y-170203761D01*
X84107304Y-170156142D01*
X82583495Y-170251380D02*
X83154923Y-170251380D01*
X82869209Y-170251380D02*
X82869209Y-169251380D01*
X82964447Y-169394238D01*
X83059685Y-169489476D01*
X83154923Y-169537095D01*
X84653357Y-176652180D02*
X84986690Y-176175990D01*
X85224785Y-176652180D02*
X85224785Y-175652180D01*
X84843833Y-175652180D01*
X84748595Y-175699800D01*
X84700976Y-175747419D01*
X84653357Y-175842657D01*
X84653357Y-175985514D01*
X84700976Y-176080752D01*
X84748595Y-176128371D01*
X84843833Y-176175990D01*
X85224785Y-176175990D01*
X83748595Y-175652180D02*
X84224785Y-175652180D01*
X84272404Y-176128371D01*
X84224785Y-176080752D01*
X84129547Y-176033133D01*
X83891452Y-176033133D01*
X83796214Y-176080752D01*
X83748595Y-176128371D01*
X83700976Y-176223609D01*
X83700976Y-176461704D01*
X83748595Y-176556942D01*
X83796214Y-176604561D01*
X83891452Y-176652180D01*
X84129547Y-176652180D01*
X84224785Y-176604561D01*
X84272404Y-176556942D01*
X83320023Y-175747419D02*
X83272404Y-175699800D01*
X83177166Y-175652180D01*
X82939071Y-175652180D01*
X82843833Y-175699800D01*
X82796214Y-175747419D01*
X82748595Y-175842657D01*
X82748595Y-175937895D01*
X82796214Y-176080752D01*
X83367642Y-176652180D01*
X82748595Y-176652180D01*
X84793057Y-180619179D02*
X85126390Y-180142989D01*
X85364485Y-180619179D02*
X85364485Y-179619179D01*
X84983533Y-179619179D01*
X84888295Y-179666799D01*
X84840676Y-179714418D01*
X84793057Y-179809656D01*
X84793057Y-179952513D01*
X84840676Y-180047751D01*
X84888295Y-180095370D01*
X84983533Y-180142989D01*
X85364485Y-180142989D01*
X83888295Y-179619179D02*
X84364485Y-179619179D01*
X84412104Y-180095370D01*
X84364485Y-180047751D01*
X84269247Y-180000132D01*
X84031152Y-180000132D01*
X83935914Y-180047751D01*
X83888295Y-180095370D01*
X83840676Y-180190608D01*
X83840676Y-180428703D01*
X83888295Y-180523941D01*
X83935914Y-180571560D01*
X84031152Y-180619179D01*
X84269247Y-180619179D01*
X84364485Y-180571560D01*
X84412104Y-180523941D01*
X83507342Y-179619179D02*
X82888295Y-179619179D01*
X83221628Y-180000132D01*
X83078771Y-180000132D01*
X82983533Y-180047751D01*
X82935914Y-180095370D01*
X82888295Y-180190608D01*
X82888295Y-180428703D01*
X82935914Y-180523941D01*
X82983533Y-180571560D01*
X83078771Y-180619179D01*
X83364485Y-180619179D01*
X83459723Y-180571560D01*
X83507342Y-180523941D01*
X130335280Y-107929442D02*
X129859090Y-107596109D01*
X130335280Y-107358014D02*
X129335280Y-107358014D01*
X129335280Y-107738966D01*
X129382900Y-107834204D01*
X129430519Y-107881823D01*
X129525757Y-107929442D01*
X129668614Y-107929442D01*
X129763852Y-107881823D01*
X129811471Y-107834204D01*
X129859090Y-107738966D01*
X129859090Y-107358014D01*
X129335280Y-108834204D02*
X129335280Y-108358014D01*
X129811471Y-108310395D01*
X129763852Y-108358014D01*
X129716233Y-108453252D01*
X129716233Y-108691347D01*
X129763852Y-108786585D01*
X129811471Y-108834204D01*
X129906709Y-108881823D01*
X130144804Y-108881823D01*
X130240042Y-108834204D01*
X130287661Y-108786585D01*
X130335280Y-108691347D01*
X130335280Y-108453252D01*
X130287661Y-108358014D01*
X130240042Y-108310395D01*
X129668614Y-109738966D02*
X130335280Y-109738966D01*
X129287661Y-109500871D02*
X130001947Y-109262776D01*
X130001947Y-109881823D01*
X137891780Y-99191842D02*
X137415590Y-98858509D01*
X137891780Y-98620414D02*
X136891780Y-98620414D01*
X136891780Y-99001366D01*
X136939400Y-99096604D01*
X136987019Y-99144223D01*
X137082257Y-99191842D01*
X137225114Y-99191842D01*
X137320352Y-99144223D01*
X137367971Y-99096604D01*
X137415590Y-99001366D01*
X137415590Y-98620414D01*
X136891780Y-100096604D02*
X136891780Y-99620414D01*
X137367971Y-99572795D01*
X137320352Y-99620414D01*
X137272733Y-99715652D01*
X137272733Y-99953747D01*
X137320352Y-100048985D01*
X137367971Y-100096604D01*
X137463209Y-100144223D01*
X137701304Y-100144223D01*
X137796542Y-100096604D01*
X137844161Y-100048985D01*
X137891780Y-99953747D01*
X137891780Y-99715652D01*
X137844161Y-99620414D01*
X137796542Y-99572795D01*
X137320352Y-100715652D02*
X137272733Y-100620414D01*
X137225114Y-100572795D01*
X137129876Y-100525176D01*
X137082257Y-100525176D01*
X136987019Y-100572795D01*
X136939400Y-100620414D01*
X136891780Y-100715652D01*
X136891780Y-100906128D01*
X136939400Y-101001366D01*
X136987019Y-101048985D01*
X137082257Y-101096604D01*
X137129876Y-101096604D01*
X137225114Y-101048985D01*
X137272733Y-101001366D01*
X137320352Y-100906128D01*
X137320352Y-100715652D01*
X137367971Y-100620414D01*
X137415590Y-100572795D01*
X137510828Y-100525176D01*
X137701304Y-100525176D01*
X137796542Y-100572795D01*
X137844161Y-100620414D01*
X137891780Y-100715652D01*
X137891780Y-100906128D01*
X137844161Y-101001366D01*
X137796542Y-101048985D01*
X137701304Y-101096604D01*
X137510828Y-101096604D01*
X137415590Y-101048985D01*
X137367971Y-101001366D01*
X137320352Y-100906128D01*
X140965180Y-98937842D02*
X140488990Y-98604509D01*
X140965180Y-98366414D02*
X139965180Y-98366414D01*
X139965180Y-98747366D01*
X140012800Y-98842604D01*
X140060419Y-98890223D01*
X140155657Y-98937842D01*
X140298514Y-98937842D01*
X140393752Y-98890223D01*
X140441371Y-98842604D01*
X140488990Y-98747366D01*
X140488990Y-98366414D01*
X139965180Y-99794985D02*
X139965180Y-99604509D01*
X140012800Y-99509271D01*
X140060419Y-99461652D01*
X140203276Y-99366414D01*
X140393752Y-99318795D01*
X140774704Y-99318795D01*
X140869942Y-99366414D01*
X140917561Y-99414033D01*
X140965180Y-99509271D01*
X140965180Y-99699747D01*
X140917561Y-99794985D01*
X140869942Y-99842604D01*
X140774704Y-99890223D01*
X140536609Y-99890223D01*
X140441371Y-99842604D01*
X140393752Y-99794985D01*
X140346133Y-99699747D01*
X140346133Y-99509271D01*
X140393752Y-99414033D01*
X140441371Y-99366414D01*
X140536609Y-99318795D01*
X139965180Y-100509271D02*
X139965180Y-100604509D01*
X140012800Y-100699747D01*
X140060419Y-100747366D01*
X140155657Y-100794985D01*
X140346133Y-100842604D01*
X140584228Y-100842604D01*
X140774704Y-100794985D01*
X140869942Y-100747366D01*
X140917561Y-100699747D01*
X140965180Y-100604509D01*
X140965180Y-100509271D01*
X140917561Y-100414033D01*
X140869942Y-100366414D01*
X140774704Y-100318795D01*
X140584228Y-100271176D01*
X140346133Y-100271176D01*
X140155657Y-100318795D01*
X140060419Y-100366414D01*
X140012800Y-100414033D01*
X139965180Y-100509271D01*
X167495457Y-120403880D02*
X167828790Y-119927690D01*
X168066885Y-120403880D02*
X168066885Y-119403880D01*
X167685933Y-119403880D01*
X167590695Y-119451500D01*
X167543076Y-119499119D01*
X167495457Y-119594357D01*
X167495457Y-119737214D01*
X167543076Y-119832452D01*
X167590695Y-119880071D01*
X167685933Y-119927690D01*
X168066885Y-119927690D01*
X166638314Y-119403880D02*
X166828790Y-119403880D01*
X166924028Y-119451500D01*
X166971647Y-119499119D01*
X167066885Y-119641976D01*
X167114504Y-119832452D01*
X167114504Y-120213404D01*
X167066885Y-120308642D01*
X167019266Y-120356261D01*
X166924028Y-120403880D01*
X166733552Y-120403880D01*
X166638314Y-120356261D01*
X166590695Y-120308642D01*
X166543076Y-120213404D01*
X166543076Y-119975309D01*
X166590695Y-119880071D01*
X166638314Y-119832452D01*
X166733552Y-119784833D01*
X166924028Y-119784833D01*
X167019266Y-119832452D01*
X167066885Y-119880071D01*
X167114504Y-119975309D01*
X166162123Y-119499119D02*
X166114504Y-119451500D01*
X166019266Y-119403880D01*
X165781171Y-119403880D01*
X165685933Y-119451500D01*
X165638314Y-119499119D01*
X165590695Y-119594357D01*
X165590695Y-119689595D01*
X165638314Y-119832452D01*
X166209742Y-120403880D01*
X165590695Y-120403880D01*
X72664580Y-82897742D02*
X72188390Y-82564409D01*
X72664580Y-82326314D02*
X71664580Y-82326314D01*
X71664580Y-82707266D01*
X71712200Y-82802504D01*
X71759819Y-82850123D01*
X71855057Y-82897742D01*
X71997914Y-82897742D01*
X72093152Y-82850123D01*
X72140771Y-82802504D01*
X72188390Y-82707266D01*
X72188390Y-82326314D01*
X71664580Y-83231076D02*
X71664580Y-83897742D01*
X72664580Y-83469171D01*
X71664580Y-84707266D02*
X71664580Y-84516790D01*
X71712200Y-84421552D01*
X71759819Y-84373933D01*
X71902676Y-84278695D01*
X72093152Y-84231076D01*
X72474104Y-84231076D01*
X72569342Y-84278695D01*
X72616961Y-84326314D01*
X72664580Y-84421552D01*
X72664580Y-84612028D01*
X72616961Y-84707266D01*
X72569342Y-84754885D01*
X72474104Y-84802504D01*
X72236009Y-84802504D01*
X72140771Y-84754885D01*
X72093152Y-84707266D01*
X72045533Y-84612028D01*
X72045533Y-84421552D01*
X72093152Y-84326314D01*
X72140771Y-84278695D01*
X72236009Y-84231076D01*
X162466257Y-147061180D02*
X162799590Y-146584990D01*
X163037685Y-147061180D02*
X163037685Y-146061180D01*
X162656733Y-146061180D01*
X162561495Y-146108800D01*
X162513876Y-146156419D01*
X162466257Y-146251657D01*
X162466257Y-146394514D01*
X162513876Y-146489752D01*
X162561495Y-146537371D01*
X162656733Y-146584990D01*
X163037685Y-146584990D01*
X161894828Y-146489752D02*
X161990066Y-146442133D01*
X162037685Y-146394514D01*
X162085304Y-146299276D01*
X162085304Y-146251657D01*
X162037685Y-146156419D01*
X161990066Y-146108800D01*
X161894828Y-146061180D01*
X161704352Y-146061180D01*
X161609114Y-146108800D01*
X161561495Y-146156419D01*
X161513876Y-146251657D01*
X161513876Y-146299276D01*
X161561495Y-146394514D01*
X161609114Y-146442133D01*
X161704352Y-146489752D01*
X161894828Y-146489752D01*
X161990066Y-146537371D01*
X162037685Y-146584990D01*
X162085304Y-146680228D01*
X162085304Y-146870704D01*
X162037685Y-146965942D01*
X161990066Y-147013561D01*
X161894828Y-147061180D01*
X161704352Y-147061180D01*
X161609114Y-147013561D01*
X161561495Y-146965942D01*
X161513876Y-146870704D01*
X161513876Y-146680228D01*
X161561495Y-146584990D01*
X161609114Y-146537371D01*
X161704352Y-146489752D01*
X161180542Y-146061180D02*
X160513876Y-146061180D01*
X160942447Y-147061180D01*
X162466257Y-145435580D02*
X162799590Y-144959390D01*
X163037685Y-145435580D02*
X163037685Y-144435580D01*
X162656733Y-144435580D01*
X162561495Y-144483200D01*
X162513876Y-144530819D01*
X162466257Y-144626057D01*
X162466257Y-144768914D01*
X162513876Y-144864152D01*
X162561495Y-144911771D01*
X162656733Y-144959390D01*
X163037685Y-144959390D01*
X161894828Y-144864152D02*
X161990066Y-144816533D01*
X162037685Y-144768914D01*
X162085304Y-144673676D01*
X162085304Y-144626057D01*
X162037685Y-144530819D01*
X161990066Y-144483200D01*
X161894828Y-144435580D01*
X161704352Y-144435580D01*
X161609114Y-144483200D01*
X161561495Y-144530819D01*
X161513876Y-144626057D01*
X161513876Y-144673676D01*
X161561495Y-144768914D01*
X161609114Y-144816533D01*
X161704352Y-144864152D01*
X161894828Y-144864152D01*
X161990066Y-144911771D01*
X162037685Y-144959390D01*
X162085304Y-145054628D01*
X162085304Y-145245104D01*
X162037685Y-145340342D01*
X161990066Y-145387961D01*
X161894828Y-145435580D01*
X161704352Y-145435580D01*
X161609114Y-145387961D01*
X161561495Y-145340342D01*
X161513876Y-145245104D01*
X161513876Y-145054628D01*
X161561495Y-144959390D01*
X161609114Y-144911771D01*
X161704352Y-144864152D01*
X160942447Y-144864152D02*
X161037685Y-144816533D01*
X161085304Y-144768914D01*
X161132923Y-144673676D01*
X161132923Y-144626057D01*
X161085304Y-144530819D01*
X161037685Y-144483200D01*
X160942447Y-144435580D01*
X160751971Y-144435580D01*
X160656733Y-144483200D01*
X160609114Y-144530819D01*
X160561495Y-144626057D01*
X160561495Y-144673676D01*
X160609114Y-144768914D01*
X160656733Y-144816533D01*
X160751971Y-144864152D01*
X160942447Y-144864152D01*
X161037685Y-144911771D01*
X161085304Y-144959390D01*
X161132923Y-145054628D01*
X161132923Y-145245104D01*
X161085304Y-145340342D01*
X161037685Y-145387961D01*
X160942447Y-145435580D01*
X160751971Y-145435580D01*
X160656733Y-145387961D01*
X160609114Y-145340342D01*
X160561495Y-145245104D01*
X160561495Y-145054628D01*
X160609114Y-144959390D01*
X160656733Y-144911771D01*
X160751971Y-144864152D01*
X69324457Y-98382080D02*
X69657790Y-97905890D01*
X69895885Y-98382080D02*
X69895885Y-97382080D01*
X69514933Y-97382080D01*
X69419695Y-97429700D01*
X69372076Y-97477319D01*
X69324457Y-97572557D01*
X69324457Y-97715414D01*
X69372076Y-97810652D01*
X69419695Y-97858271D01*
X69514933Y-97905890D01*
X69895885Y-97905890D01*
X68753028Y-97810652D02*
X68848266Y-97763033D01*
X68895885Y-97715414D01*
X68943504Y-97620176D01*
X68943504Y-97572557D01*
X68895885Y-97477319D01*
X68848266Y-97429700D01*
X68753028Y-97382080D01*
X68562552Y-97382080D01*
X68467314Y-97429700D01*
X68419695Y-97477319D01*
X68372076Y-97572557D01*
X68372076Y-97620176D01*
X68419695Y-97715414D01*
X68467314Y-97763033D01*
X68562552Y-97810652D01*
X68753028Y-97810652D01*
X68848266Y-97858271D01*
X68895885Y-97905890D01*
X68943504Y-98001128D01*
X68943504Y-98191604D01*
X68895885Y-98286842D01*
X68848266Y-98334461D01*
X68753028Y-98382080D01*
X68562552Y-98382080D01*
X68467314Y-98334461D01*
X68419695Y-98286842D01*
X68372076Y-98191604D01*
X68372076Y-98001128D01*
X68419695Y-97905890D01*
X68467314Y-97858271D01*
X68562552Y-97810652D01*
X67895885Y-98382080D02*
X67705409Y-98382080D01*
X67610171Y-98334461D01*
X67562552Y-98286842D01*
X67467314Y-98143985D01*
X67419695Y-97953509D01*
X67419695Y-97572557D01*
X67467314Y-97477319D01*
X67514933Y-97429700D01*
X67610171Y-97382080D01*
X67800647Y-97382080D01*
X67895885Y-97429700D01*
X67943504Y-97477319D01*
X67991123Y-97572557D01*
X67991123Y-97810652D01*
X67943504Y-97905890D01*
X67895885Y-97953509D01*
X67800647Y-98001128D01*
X67610171Y-98001128D01*
X67514933Y-97953509D01*
X67467314Y-97905890D01*
X67419695Y-97810652D01*
X71724757Y-100147380D02*
X72058090Y-99671190D01*
X72296185Y-100147380D02*
X72296185Y-99147380D01*
X71915233Y-99147380D01*
X71819995Y-99195000D01*
X71772376Y-99242619D01*
X71724757Y-99337857D01*
X71724757Y-99480714D01*
X71772376Y-99575952D01*
X71819995Y-99623571D01*
X71915233Y-99671190D01*
X72296185Y-99671190D01*
X71248566Y-100147380D02*
X71058090Y-100147380D01*
X70962852Y-100099761D01*
X70915233Y-100052142D01*
X70819995Y-99909285D01*
X70772376Y-99718809D01*
X70772376Y-99337857D01*
X70819995Y-99242619D01*
X70867614Y-99195000D01*
X70962852Y-99147380D01*
X71153328Y-99147380D01*
X71248566Y-99195000D01*
X71296185Y-99242619D01*
X71343804Y-99337857D01*
X71343804Y-99575952D01*
X71296185Y-99671190D01*
X71248566Y-99718809D01*
X71153328Y-99766428D01*
X70962852Y-99766428D01*
X70867614Y-99718809D01*
X70819995Y-99671190D01*
X70772376Y-99575952D01*
X70153328Y-99147380D02*
X70058090Y-99147380D01*
X69962852Y-99195000D01*
X69915233Y-99242619D01*
X69867614Y-99337857D01*
X69819995Y-99528333D01*
X69819995Y-99766428D01*
X69867614Y-99956904D01*
X69915233Y-100052142D01*
X69962852Y-100099761D01*
X70058090Y-100147380D01*
X70153328Y-100147380D01*
X70248566Y-100099761D01*
X70296185Y-100052142D01*
X70343804Y-99956904D01*
X70391423Y-99766428D01*
X70391423Y-99528333D01*
X70343804Y-99337857D01*
X70296185Y-99242619D01*
X70248566Y-99195000D01*
X70153328Y-99147380D01*
X181059057Y-140547680D02*
X181392390Y-140071490D01*
X181630485Y-140547680D02*
X181630485Y-139547680D01*
X181249533Y-139547680D01*
X181154295Y-139595300D01*
X181106676Y-139642919D01*
X181059057Y-139738157D01*
X181059057Y-139881014D01*
X181106676Y-139976252D01*
X181154295Y-140023871D01*
X181249533Y-140071490D01*
X181630485Y-140071490D01*
X180582866Y-140547680D02*
X180392390Y-140547680D01*
X180297152Y-140500061D01*
X180249533Y-140452442D01*
X180154295Y-140309585D01*
X180106676Y-140119109D01*
X180106676Y-139738157D01*
X180154295Y-139642919D01*
X180201914Y-139595300D01*
X180297152Y-139547680D01*
X180487628Y-139547680D01*
X180582866Y-139595300D01*
X180630485Y-139642919D01*
X180678104Y-139738157D01*
X180678104Y-139976252D01*
X180630485Y-140071490D01*
X180582866Y-140119109D01*
X180487628Y-140166728D01*
X180297152Y-140166728D01*
X180201914Y-140119109D01*
X180154295Y-140071490D01*
X180106676Y-139976252D01*
X179154295Y-140547680D02*
X179725723Y-140547680D01*
X179440009Y-140547680D02*
X179440009Y-139547680D01*
X179535247Y-139690538D01*
X179630485Y-139785776D01*
X179725723Y-139833395D01*
X189928333Y-129512961D02*
X189785476Y-129560580D01*
X189547380Y-129560580D01*
X189452142Y-129512961D01*
X189404523Y-129465342D01*
X189356904Y-129370104D01*
X189356904Y-129274866D01*
X189404523Y-129179628D01*
X189452142Y-129132009D01*
X189547380Y-129084390D01*
X189737857Y-129036771D01*
X189833095Y-128989152D01*
X189880714Y-128941533D01*
X189928333Y-128846295D01*
X189928333Y-128751057D01*
X189880714Y-128655819D01*
X189833095Y-128608200D01*
X189737857Y-128560580D01*
X189499761Y-128560580D01*
X189356904Y-128608200D01*
X189023571Y-128560580D02*
X188785476Y-129560580D01*
X188595000Y-128846295D01*
X188404523Y-129560580D01*
X188166428Y-128560580D01*
X187356904Y-128560580D02*
X187547380Y-128560580D01*
X187642619Y-128608200D01*
X187690238Y-128655819D01*
X187785476Y-128798676D01*
X187833095Y-128989152D01*
X187833095Y-129370104D01*
X187785476Y-129465342D01*
X187737857Y-129512961D01*
X187642619Y-129560580D01*
X187452142Y-129560580D01*
X187356904Y-129512961D01*
X187309285Y-129465342D01*
X187261666Y-129370104D01*
X187261666Y-129132009D01*
X187309285Y-129036771D01*
X187356904Y-128989152D01*
X187452142Y-128941533D01*
X187642619Y-128941533D01*
X187737857Y-128989152D01*
X187785476Y-129036771D01*
X187833095Y-129132009D01*
X142574804Y-111631480D02*
X142003376Y-111631480D01*
X142289090Y-112631480D02*
X142289090Y-111631480D01*
X141670042Y-112631480D02*
X141670042Y-111631480D01*
X141289090Y-111631480D01*
X141193852Y-111679100D01*
X141146233Y-111726719D01*
X141098614Y-111821957D01*
X141098614Y-111964814D01*
X141146233Y-112060052D01*
X141193852Y-112107671D01*
X141289090Y-112155290D01*
X141670042Y-112155290D01*
X140146233Y-112631480D02*
X140717661Y-112631480D01*
X140431947Y-112631480D02*
X140431947Y-111631480D01*
X140527185Y-111774338D01*
X140622423Y-111869576D01*
X140717661Y-111917195D01*
X156748004Y-112329980D02*
X156176576Y-112329980D01*
X156462290Y-113329980D02*
X156462290Y-112329980D01*
X155843242Y-113329980D02*
X155843242Y-112329980D01*
X155462290Y-112329980D01*
X155367052Y-112377600D01*
X155319433Y-112425219D01*
X155271814Y-112520457D01*
X155271814Y-112663314D01*
X155319433Y-112758552D01*
X155367052Y-112806171D01*
X155462290Y-112853790D01*
X155843242Y-112853790D01*
X154890861Y-112425219D02*
X154843242Y-112377600D01*
X154748004Y-112329980D01*
X154509909Y-112329980D01*
X154414671Y-112377600D01*
X154367052Y-112425219D01*
X154319433Y-112520457D01*
X154319433Y-112615695D01*
X154367052Y-112758552D01*
X154938480Y-113329980D01*
X154319433Y-113329980D01*
X73480680Y-89924095D02*
X73480680Y-90495523D01*
X74480680Y-90209809D02*
X73480680Y-90209809D01*
X74480680Y-90828857D02*
X73480680Y-90828857D01*
X73480680Y-91209809D01*
X73528300Y-91305047D01*
X73575919Y-91352666D01*
X73671157Y-91400285D01*
X73814014Y-91400285D01*
X73909252Y-91352666D01*
X73956871Y-91305047D01*
X74004490Y-91209809D01*
X74004490Y-90828857D01*
X73480680Y-91733619D02*
X73480680Y-92400285D01*
X74480680Y-91971714D01*
X77480895Y-71737780D02*
X76909466Y-71737780D01*
X77195180Y-72737780D02*
X77195180Y-71737780D01*
X76576133Y-72737780D02*
X76576133Y-71737780D01*
X76195180Y-71737780D01*
X76099942Y-71785400D01*
X76052323Y-71833019D01*
X76004704Y-71928257D01*
X76004704Y-72071114D01*
X76052323Y-72166352D01*
X76099942Y-72213971D01*
X76195180Y-72261590D01*
X76576133Y-72261590D01*
X75052323Y-72737780D02*
X75623752Y-72737780D01*
X75338038Y-72737780D02*
X75338038Y-71737780D01*
X75433276Y-71880638D01*
X75528514Y-71975876D01*
X75623752Y-72023495D01*
X74099942Y-72737780D02*
X74671371Y-72737780D01*
X74385657Y-72737780D02*
X74385657Y-71737780D01*
X74480895Y-71880638D01*
X74576133Y-71975876D01*
X74671371Y-72023495D01*
X230795295Y-49677880D02*
X230223866Y-49677880D01*
X230509580Y-50677880D02*
X230509580Y-49677880D01*
X229890533Y-50677880D02*
X229890533Y-49677880D01*
X229509580Y-49677880D01*
X229414342Y-49725500D01*
X229366723Y-49773119D01*
X229319104Y-49868357D01*
X229319104Y-50011214D01*
X229366723Y-50106452D01*
X229414342Y-50154071D01*
X229509580Y-50201690D01*
X229890533Y-50201690D01*
X228366723Y-50677880D02*
X228938152Y-50677880D01*
X228652438Y-50677880D02*
X228652438Y-49677880D01*
X228747676Y-49820738D01*
X228842914Y-49915976D01*
X228938152Y-49963595D01*
X227985771Y-49773119D02*
X227938152Y-49725500D01*
X227842914Y-49677880D01*
X227604819Y-49677880D01*
X227509580Y-49725500D01*
X227461961Y-49773119D01*
X227414342Y-49868357D01*
X227414342Y-49963595D01*
X227461961Y-50106452D01*
X228033390Y-50677880D01*
X227414342Y-50677880D01*
X63866780Y-79135504D02*
X63866780Y-79706933D01*
X64866780Y-79421219D02*
X63866780Y-79421219D01*
X64866780Y-80040266D02*
X63866780Y-80040266D01*
X63866780Y-80421219D01*
X63914400Y-80516457D01*
X63962019Y-80564076D01*
X64057257Y-80611695D01*
X64200114Y-80611695D01*
X64295352Y-80564076D01*
X64342971Y-80516457D01*
X64390590Y-80421219D01*
X64390590Y-80040266D01*
X64866780Y-81564076D02*
X64866780Y-80992647D01*
X64866780Y-81278361D02*
X63866780Y-81278361D01*
X64009638Y-81183123D01*
X64104876Y-81087885D01*
X64152495Y-80992647D01*
X63866780Y-82421219D02*
X63866780Y-82230742D01*
X63914400Y-82135504D01*
X63962019Y-82087885D01*
X64104876Y-81992647D01*
X64295352Y-81945028D01*
X64676304Y-81945028D01*
X64771542Y-81992647D01*
X64819161Y-82040266D01*
X64866780Y-82135504D01*
X64866780Y-82325980D01*
X64819161Y-82421219D01*
X64771542Y-82468838D01*
X64676304Y-82516457D01*
X64438209Y-82516457D01*
X64342971Y-82468838D01*
X64295352Y-82421219D01*
X64247733Y-82325980D01*
X64247733Y-82135504D01*
X64295352Y-82040266D01*
X64342971Y-81992647D01*
X64438209Y-81945028D01*
X66382804Y-86587080D02*
X66382804Y-87396604D01*
X66335185Y-87491842D01*
X66287566Y-87539461D01*
X66192328Y-87587080D01*
X66001852Y-87587080D01*
X65906614Y-87539461D01*
X65858995Y-87491842D01*
X65811376Y-87396604D01*
X65811376Y-86587080D01*
X64906614Y-86587080D02*
X65097090Y-86587080D01*
X65192328Y-86634700D01*
X65239947Y-86682319D01*
X65335185Y-86825176D01*
X65382804Y-87015652D01*
X65382804Y-87396604D01*
X65335185Y-87491842D01*
X65287566Y-87539461D01*
X65192328Y-87587080D01*
X65001852Y-87587080D01*
X64906614Y-87539461D01*
X64858995Y-87491842D01*
X64811376Y-87396604D01*
X64811376Y-87158509D01*
X64858995Y-87063271D01*
X64906614Y-87015652D01*
X65001852Y-86968033D01*
X65192328Y-86968033D01*
X65287566Y-87015652D01*
X65335185Y-87063271D01*
X65382804Y-87158509D01*
X71196104Y-94067380D02*
X71196104Y-94876904D01*
X71148485Y-94972142D01*
X71100866Y-95019761D01*
X71005628Y-95067380D01*
X70815152Y-95067380D01*
X70719914Y-95019761D01*
X70672295Y-94972142D01*
X70624676Y-94876904D01*
X70624676Y-94067380D01*
X70243723Y-94067380D02*
X69577057Y-94067380D01*
X70005628Y-95067380D01*
X174559093Y-136163375D02*
X174559093Y-137165146D01*
X174625878Y-137365500D01*
X174759447Y-137499070D01*
X174959801Y-137565855D01*
X175093371Y-137565855D01*
X174024815Y-136163375D02*
X173089828Y-136163375D01*
X173690891Y-137565855D01*
X161233634Y-114276148D02*
X161233634Y-114753182D01*
X161567558Y-113751410D02*
X161233634Y-114276148D01*
X160899710Y-113751410D01*
X160041048Y-114753182D02*
X160613489Y-114753182D01*
X160327269Y-114753182D02*
X160327269Y-113751410D01*
X160422676Y-113894520D01*
X160518082Y-113989927D01*
X160613489Y-114037631D01*
X173805790Y-113666590D02*
X173805790Y-114142780D01*
X174139123Y-113142780D02*
X173805790Y-113666590D01*
X173472457Y-113142780D01*
X173186742Y-113238019D02*
X173139123Y-113190400D01*
X173043885Y-113142780D01*
X172805790Y-113142780D01*
X172710552Y-113190400D01*
X172662933Y-113238019D01*
X172615314Y-113333257D01*
X172615314Y-113428495D01*
X172662933Y-113571352D01*
X173234361Y-114142780D01*
X172615314Y-114142780D01*
X136361442Y-110437633D02*
X136409061Y-110390014D01*
X136456680Y-110247157D01*
X136456680Y-110151919D01*
X136409061Y-110009061D01*
X136313823Y-109913823D01*
X136218585Y-109866204D01*
X136028109Y-109818585D01*
X135885252Y-109818585D01*
X135694776Y-109866204D01*
X135599538Y-109913823D01*
X135504300Y-110009061D01*
X135456680Y-110151919D01*
X135456680Y-110247157D01*
X135504300Y-110390014D01*
X135551919Y-110437633D01*
X135551919Y-110818585D02*
X135504300Y-110866204D01*
X135456680Y-110961442D01*
X135456680Y-111199538D01*
X135504300Y-111294776D01*
X135551919Y-111342395D01*
X135647157Y-111390014D01*
X135742395Y-111390014D01*
X135885252Y-111342395D01*
X136456680Y-110770966D01*
X136456680Y-111390014D01*
X122131057Y-122416842D02*
X122178676Y-122464461D01*
X122321533Y-122512080D01*
X122416771Y-122512080D01*
X122559628Y-122464461D01*
X122654866Y-122369223D01*
X122702485Y-122273985D01*
X122750104Y-122083509D01*
X122750104Y-121940652D01*
X122702485Y-121750176D01*
X122654866Y-121654938D01*
X122559628Y-121559700D01*
X122416771Y-121512080D01*
X122321533Y-121512080D01*
X122178676Y-121559700D01*
X122131057Y-121607319D01*
X121750104Y-121607319D02*
X121702485Y-121559700D01*
X121607247Y-121512080D01*
X121369152Y-121512080D01*
X121273914Y-121559700D01*
X121226295Y-121607319D01*
X121178676Y-121702557D01*
X121178676Y-121797795D01*
X121226295Y-121940652D01*
X121797723Y-122512080D01*
X121178676Y-122512080D01*
X120273914Y-121512080D02*
X120750104Y-121512080D01*
X120797723Y-121988271D01*
X120750104Y-121940652D01*
X120654866Y-121893033D01*
X120416771Y-121893033D01*
X120321533Y-121940652D01*
X120273914Y-121988271D01*
X120226295Y-122083509D01*
X120226295Y-122321604D01*
X120273914Y-122416842D01*
X120321533Y-122464461D01*
X120416771Y-122512080D01*
X120654866Y-122512080D01*
X120750104Y-122464461D01*
X120797723Y-122416842D01*
X67296933Y-105475280D02*
X67296933Y-106189566D01*
X67344552Y-106332423D01*
X67439790Y-106427661D01*
X67582647Y-106475280D01*
X67677885Y-106475280D01*
X66868361Y-105570519D02*
X66820742Y-105522900D01*
X66725504Y-105475280D01*
X66487409Y-105475280D01*
X66392171Y-105522900D01*
X66344552Y-105570519D01*
X66296933Y-105665757D01*
X66296933Y-105760995D01*
X66344552Y-105903852D01*
X66915980Y-106475280D01*
X66296933Y-106475280D01*
%LPC*%
G36*
G01*
X127458800Y-127637300D02*
X127458800Y-127487300D01*
G75*
G02*
X127533800Y-127412300I75000J0D01*
G01*
X128933800Y-127412300D01*
G75*
G02*
X129008800Y-127487300I0J-75000D01*
G01*
X129008800Y-127637300D01*
G75*
G02*
X128933800Y-127712300I-75000J0D01*
G01*
X127533800Y-127712300D01*
G75*
G02*
X127458800Y-127637300I0J75000D01*
G01*
G37*
G36*
G01*
X127458800Y-127137300D02*
X127458800Y-126987300D01*
G75*
G02*
X127533800Y-126912300I75000J0D01*
G01*
X128933800Y-126912300D01*
G75*
G02*
X129008800Y-126987300I0J-75000D01*
G01*
X129008800Y-127137300D01*
G75*
G02*
X128933800Y-127212300I-75000J0D01*
G01*
X127533800Y-127212300D01*
G75*
G02*
X127458800Y-127137300I0J75000D01*
G01*
G37*
G36*
G01*
X127458800Y-126637300D02*
X127458800Y-126487300D01*
G75*
G02*
X127533800Y-126412300I75000J0D01*
G01*
X128933800Y-126412300D01*
G75*
G02*
X129008800Y-126487300I0J-75000D01*
G01*
X129008800Y-126637300D01*
G75*
G02*
X128933800Y-126712300I-75000J0D01*
G01*
X127533800Y-126712300D01*
G75*
G02*
X127458800Y-126637300I0J75000D01*
G01*
G37*
G36*
G01*
X127458800Y-126137300D02*
X127458800Y-125987300D01*
G75*
G02*
X127533800Y-125912300I75000J0D01*
G01*
X128933800Y-125912300D01*
G75*
G02*
X129008800Y-125987300I0J-75000D01*
G01*
X129008800Y-126137300D01*
G75*
G02*
X128933800Y-126212300I-75000J0D01*
G01*
X127533800Y-126212300D01*
G75*
G02*
X127458800Y-126137300I0J75000D01*
G01*
G37*
G36*
G01*
X127458800Y-125637300D02*
X127458800Y-125487300D01*
G75*
G02*
X127533800Y-125412300I75000J0D01*
G01*
X128933800Y-125412300D01*
G75*
G02*
X129008800Y-125487300I0J-75000D01*
G01*
X129008800Y-125637300D01*
G75*
G02*
X128933800Y-125712300I-75000J0D01*
G01*
X127533800Y-125712300D01*
G75*
G02*
X127458800Y-125637300I0J75000D01*
G01*
G37*
G36*
G01*
X127458800Y-125137300D02*
X127458800Y-124987300D01*
G75*
G02*
X127533800Y-124912300I75000J0D01*
G01*
X128933800Y-124912300D01*
G75*
G02*
X129008800Y-124987300I0J-75000D01*
G01*
X129008800Y-125137300D01*
G75*
G02*
X128933800Y-125212300I-75000J0D01*
G01*
X127533800Y-125212300D01*
G75*
G02*
X127458800Y-125137300I0J75000D01*
G01*
G37*
G36*
G01*
X127458800Y-124637300D02*
X127458800Y-124487300D01*
G75*
G02*
X127533800Y-124412300I75000J0D01*
G01*
X128933800Y-124412300D01*
G75*
G02*
X129008800Y-124487300I0J-75000D01*
G01*
X129008800Y-124637300D01*
G75*
G02*
X128933800Y-124712300I-75000J0D01*
G01*
X127533800Y-124712300D01*
G75*
G02*
X127458800Y-124637300I0J75000D01*
G01*
G37*
G36*
G01*
X127458800Y-124137300D02*
X127458800Y-123987300D01*
G75*
G02*
X127533800Y-123912300I75000J0D01*
G01*
X128933800Y-123912300D01*
G75*
G02*
X129008800Y-123987300I0J-75000D01*
G01*
X129008800Y-124137300D01*
G75*
G02*
X128933800Y-124212300I-75000J0D01*
G01*
X127533800Y-124212300D01*
G75*
G02*
X127458800Y-124137300I0J75000D01*
G01*
G37*
G36*
G01*
X127458800Y-123637300D02*
X127458800Y-123487300D01*
G75*
G02*
X127533800Y-123412300I75000J0D01*
G01*
X128933800Y-123412300D01*
G75*
G02*
X129008800Y-123487300I0J-75000D01*
G01*
X129008800Y-123637300D01*
G75*
G02*
X128933800Y-123712300I-75000J0D01*
G01*
X127533800Y-123712300D01*
G75*
G02*
X127458800Y-123637300I0J75000D01*
G01*
G37*
G36*
G01*
X127458800Y-123137300D02*
X127458800Y-122987300D01*
G75*
G02*
X127533800Y-122912300I75000J0D01*
G01*
X128933800Y-122912300D01*
G75*
G02*
X129008800Y-122987300I0J-75000D01*
G01*
X129008800Y-123137300D01*
G75*
G02*
X128933800Y-123212300I-75000J0D01*
G01*
X127533800Y-123212300D01*
G75*
G02*
X127458800Y-123137300I0J75000D01*
G01*
G37*
G36*
G01*
X127458800Y-122637300D02*
X127458800Y-122487300D01*
G75*
G02*
X127533800Y-122412300I75000J0D01*
G01*
X128933800Y-122412300D01*
G75*
G02*
X129008800Y-122487300I0J-75000D01*
G01*
X129008800Y-122637300D01*
G75*
G02*
X128933800Y-122712300I-75000J0D01*
G01*
X127533800Y-122712300D01*
G75*
G02*
X127458800Y-122637300I0J75000D01*
G01*
G37*
G36*
G01*
X127458800Y-122137300D02*
X127458800Y-121987300D01*
G75*
G02*
X127533800Y-121912300I75000J0D01*
G01*
X128933800Y-121912300D01*
G75*
G02*
X129008800Y-121987300I0J-75000D01*
G01*
X129008800Y-122137300D01*
G75*
G02*
X128933800Y-122212300I-75000J0D01*
G01*
X127533800Y-122212300D01*
G75*
G02*
X127458800Y-122137300I0J75000D01*
G01*
G37*
G36*
G01*
X127458800Y-121637300D02*
X127458800Y-121487300D01*
G75*
G02*
X127533800Y-121412300I75000J0D01*
G01*
X128933800Y-121412300D01*
G75*
G02*
X129008800Y-121487300I0J-75000D01*
G01*
X129008800Y-121637300D01*
G75*
G02*
X128933800Y-121712300I-75000J0D01*
G01*
X127533800Y-121712300D01*
G75*
G02*
X127458800Y-121637300I0J75000D01*
G01*
G37*
G36*
G01*
X127458800Y-121137300D02*
X127458800Y-120987300D01*
G75*
G02*
X127533800Y-120912300I75000J0D01*
G01*
X128933800Y-120912300D01*
G75*
G02*
X129008800Y-120987300I0J-75000D01*
G01*
X129008800Y-121137300D01*
G75*
G02*
X128933800Y-121212300I-75000J0D01*
G01*
X127533800Y-121212300D01*
G75*
G02*
X127458800Y-121137300I0J75000D01*
G01*
G37*
G36*
G01*
X127458800Y-120637300D02*
X127458800Y-120487300D01*
G75*
G02*
X127533800Y-120412300I75000J0D01*
G01*
X128933800Y-120412300D01*
G75*
G02*
X129008800Y-120487300I0J-75000D01*
G01*
X129008800Y-120637300D01*
G75*
G02*
X128933800Y-120712300I-75000J0D01*
G01*
X127533800Y-120712300D01*
G75*
G02*
X127458800Y-120637300I0J75000D01*
G01*
G37*
G36*
G01*
X127458800Y-120137300D02*
X127458800Y-119987300D01*
G75*
G02*
X127533800Y-119912300I75000J0D01*
G01*
X128933800Y-119912300D01*
G75*
G02*
X129008800Y-119987300I0J-75000D01*
G01*
X129008800Y-120137300D01*
G75*
G02*
X128933800Y-120212300I-75000J0D01*
G01*
X127533800Y-120212300D01*
G75*
G02*
X127458800Y-120137300I0J75000D01*
G01*
G37*
G36*
G01*
X130008800Y-118837300D02*
X130008800Y-117437300D01*
G75*
G02*
X130083800Y-117362300I75000J0D01*
G01*
X130233800Y-117362300D01*
G75*
G02*
X130308800Y-117437300I0J-75000D01*
G01*
X130308800Y-118837300D01*
G75*
G02*
X130233800Y-118912300I-75000J0D01*
G01*
X130083800Y-118912300D01*
G75*
G02*
X130008800Y-118837300I0J75000D01*
G01*
G37*
G36*
G01*
X130508800Y-118837300D02*
X130508800Y-117437300D01*
G75*
G02*
X130583800Y-117362300I75000J0D01*
G01*
X130733800Y-117362300D01*
G75*
G02*
X130808800Y-117437300I0J-75000D01*
G01*
X130808800Y-118837300D01*
G75*
G02*
X130733800Y-118912300I-75000J0D01*
G01*
X130583800Y-118912300D01*
G75*
G02*
X130508800Y-118837300I0J75000D01*
G01*
G37*
G36*
G01*
X131008800Y-118837300D02*
X131008800Y-117437300D01*
G75*
G02*
X131083800Y-117362300I75000J0D01*
G01*
X131233800Y-117362300D01*
G75*
G02*
X131308800Y-117437300I0J-75000D01*
G01*
X131308800Y-118837300D01*
G75*
G02*
X131233800Y-118912300I-75000J0D01*
G01*
X131083800Y-118912300D01*
G75*
G02*
X131008800Y-118837300I0J75000D01*
G01*
G37*
G36*
G01*
X131508800Y-118837300D02*
X131508800Y-117437300D01*
G75*
G02*
X131583800Y-117362300I75000J0D01*
G01*
X131733800Y-117362300D01*
G75*
G02*
X131808800Y-117437300I0J-75000D01*
G01*
X131808800Y-118837300D01*
G75*
G02*
X131733800Y-118912300I-75000J0D01*
G01*
X131583800Y-118912300D01*
G75*
G02*
X131508800Y-118837300I0J75000D01*
G01*
G37*
G36*
G01*
X132008800Y-118837300D02*
X132008800Y-117437300D01*
G75*
G02*
X132083800Y-117362300I75000J0D01*
G01*
X132233800Y-117362300D01*
G75*
G02*
X132308800Y-117437300I0J-75000D01*
G01*
X132308800Y-118837300D01*
G75*
G02*
X132233800Y-118912300I-75000J0D01*
G01*
X132083800Y-118912300D01*
G75*
G02*
X132008800Y-118837300I0J75000D01*
G01*
G37*
G36*
G01*
X132508800Y-118837300D02*
X132508800Y-117437300D01*
G75*
G02*
X132583800Y-117362300I75000J0D01*
G01*
X132733800Y-117362300D01*
G75*
G02*
X132808800Y-117437300I0J-75000D01*
G01*
X132808800Y-118837300D01*
G75*
G02*
X132733800Y-118912300I-75000J0D01*
G01*
X132583800Y-118912300D01*
G75*
G02*
X132508800Y-118837300I0J75000D01*
G01*
G37*
G36*
G01*
X133008800Y-118837300D02*
X133008800Y-117437300D01*
G75*
G02*
X133083800Y-117362300I75000J0D01*
G01*
X133233800Y-117362300D01*
G75*
G02*
X133308800Y-117437300I0J-75000D01*
G01*
X133308800Y-118837300D01*
G75*
G02*
X133233800Y-118912300I-75000J0D01*
G01*
X133083800Y-118912300D01*
G75*
G02*
X133008800Y-118837300I0J75000D01*
G01*
G37*
G36*
G01*
X133508800Y-118837300D02*
X133508800Y-117437300D01*
G75*
G02*
X133583800Y-117362300I75000J0D01*
G01*
X133733800Y-117362300D01*
G75*
G02*
X133808800Y-117437300I0J-75000D01*
G01*
X133808800Y-118837300D01*
G75*
G02*
X133733800Y-118912300I-75000J0D01*
G01*
X133583800Y-118912300D01*
G75*
G02*
X133508800Y-118837300I0J75000D01*
G01*
G37*
G36*
G01*
X134008800Y-118837300D02*
X134008800Y-117437300D01*
G75*
G02*
X134083800Y-117362300I75000J0D01*
G01*
X134233800Y-117362300D01*
G75*
G02*
X134308800Y-117437300I0J-75000D01*
G01*
X134308800Y-118837300D01*
G75*
G02*
X134233800Y-118912300I-75000J0D01*
G01*
X134083800Y-118912300D01*
G75*
G02*
X134008800Y-118837300I0J75000D01*
G01*
G37*
G36*
G01*
X134508800Y-118837300D02*
X134508800Y-117437300D01*
G75*
G02*
X134583800Y-117362300I75000J0D01*
G01*
X134733800Y-117362300D01*
G75*
G02*
X134808800Y-117437300I0J-75000D01*
G01*
X134808800Y-118837300D01*
G75*
G02*
X134733800Y-118912300I-75000J0D01*
G01*
X134583800Y-118912300D01*
G75*
G02*
X134508800Y-118837300I0J75000D01*
G01*
G37*
G36*
G01*
X135008800Y-118837300D02*
X135008800Y-117437300D01*
G75*
G02*
X135083800Y-117362300I75000J0D01*
G01*
X135233800Y-117362300D01*
G75*
G02*
X135308800Y-117437300I0J-75000D01*
G01*
X135308800Y-118837300D01*
G75*
G02*
X135233800Y-118912300I-75000J0D01*
G01*
X135083800Y-118912300D01*
G75*
G02*
X135008800Y-118837300I0J75000D01*
G01*
G37*
G36*
G01*
X135508800Y-118837300D02*
X135508800Y-117437300D01*
G75*
G02*
X135583800Y-117362300I75000J0D01*
G01*
X135733800Y-117362300D01*
G75*
G02*
X135808800Y-117437300I0J-75000D01*
G01*
X135808800Y-118837300D01*
G75*
G02*
X135733800Y-118912300I-75000J0D01*
G01*
X135583800Y-118912300D01*
G75*
G02*
X135508800Y-118837300I0J75000D01*
G01*
G37*
G36*
G01*
X136008800Y-118837300D02*
X136008800Y-117437300D01*
G75*
G02*
X136083800Y-117362300I75000J0D01*
G01*
X136233800Y-117362300D01*
G75*
G02*
X136308800Y-117437300I0J-75000D01*
G01*
X136308800Y-118837300D01*
G75*
G02*
X136233800Y-118912300I-75000J0D01*
G01*
X136083800Y-118912300D01*
G75*
G02*
X136008800Y-118837300I0J75000D01*
G01*
G37*
G36*
G01*
X136508800Y-118837300D02*
X136508800Y-117437300D01*
G75*
G02*
X136583800Y-117362300I75000J0D01*
G01*
X136733800Y-117362300D01*
G75*
G02*
X136808800Y-117437300I0J-75000D01*
G01*
X136808800Y-118837300D01*
G75*
G02*
X136733800Y-118912300I-75000J0D01*
G01*
X136583800Y-118912300D01*
G75*
G02*
X136508800Y-118837300I0J75000D01*
G01*
G37*
G36*
G01*
X137008800Y-118837300D02*
X137008800Y-117437300D01*
G75*
G02*
X137083800Y-117362300I75000J0D01*
G01*
X137233800Y-117362300D01*
G75*
G02*
X137308800Y-117437300I0J-75000D01*
G01*
X137308800Y-118837300D01*
G75*
G02*
X137233800Y-118912300I-75000J0D01*
G01*
X137083800Y-118912300D01*
G75*
G02*
X137008800Y-118837300I0J75000D01*
G01*
G37*
G36*
G01*
X137508800Y-118837300D02*
X137508800Y-117437300D01*
G75*
G02*
X137583800Y-117362300I75000J0D01*
G01*
X137733800Y-117362300D01*
G75*
G02*
X137808800Y-117437300I0J-75000D01*
G01*
X137808800Y-118837300D01*
G75*
G02*
X137733800Y-118912300I-75000J0D01*
G01*
X137583800Y-118912300D01*
G75*
G02*
X137508800Y-118837300I0J75000D01*
G01*
G37*
G36*
G01*
X138808800Y-120137300D02*
X138808800Y-119987300D01*
G75*
G02*
X138883800Y-119912300I75000J0D01*
G01*
X140283800Y-119912300D01*
G75*
G02*
X140358800Y-119987300I0J-75000D01*
G01*
X140358800Y-120137300D01*
G75*
G02*
X140283800Y-120212300I-75000J0D01*
G01*
X138883800Y-120212300D01*
G75*
G02*
X138808800Y-120137300I0J75000D01*
G01*
G37*
G36*
G01*
X138808800Y-120637300D02*
X138808800Y-120487300D01*
G75*
G02*
X138883800Y-120412300I75000J0D01*
G01*
X140283800Y-120412300D01*
G75*
G02*
X140358800Y-120487300I0J-75000D01*
G01*
X140358800Y-120637300D01*
G75*
G02*
X140283800Y-120712300I-75000J0D01*
G01*
X138883800Y-120712300D01*
G75*
G02*
X138808800Y-120637300I0J75000D01*
G01*
G37*
G36*
G01*
X138808800Y-121137300D02*
X138808800Y-120987300D01*
G75*
G02*
X138883800Y-120912300I75000J0D01*
G01*
X140283800Y-120912300D01*
G75*
G02*
X140358800Y-120987300I0J-75000D01*
G01*
X140358800Y-121137300D01*
G75*
G02*
X140283800Y-121212300I-75000J0D01*
G01*
X138883800Y-121212300D01*
G75*
G02*
X138808800Y-121137300I0J75000D01*
G01*
G37*
G36*
G01*
X138808800Y-121637300D02*
X138808800Y-121487300D01*
G75*
G02*
X138883800Y-121412300I75000J0D01*
G01*
X140283800Y-121412300D01*
G75*
G02*
X140358800Y-121487300I0J-75000D01*
G01*
X140358800Y-121637300D01*
G75*
G02*
X140283800Y-121712300I-75000J0D01*
G01*
X138883800Y-121712300D01*
G75*
G02*
X138808800Y-121637300I0J75000D01*
G01*
G37*
G36*
G01*
X138808800Y-122137300D02*
X138808800Y-121987300D01*
G75*
G02*
X138883800Y-121912300I75000J0D01*
G01*
X140283800Y-121912300D01*
G75*
G02*
X140358800Y-121987300I0J-75000D01*
G01*
X140358800Y-122137300D01*
G75*
G02*
X140283800Y-122212300I-75000J0D01*
G01*
X138883800Y-122212300D01*
G75*
G02*
X138808800Y-122137300I0J75000D01*
G01*
G37*
G36*
G01*
X138808800Y-122637300D02*
X138808800Y-122487300D01*
G75*
G02*
X138883800Y-122412300I75000J0D01*
G01*
X140283800Y-122412300D01*
G75*
G02*
X140358800Y-122487300I0J-75000D01*
G01*
X140358800Y-122637300D01*
G75*
G02*
X140283800Y-122712300I-75000J0D01*
G01*
X138883800Y-122712300D01*
G75*
G02*
X138808800Y-122637300I0J75000D01*
G01*
G37*
G36*
G01*
X138808800Y-123137300D02*
X138808800Y-122987300D01*
G75*
G02*
X138883800Y-122912300I75000J0D01*
G01*
X140283800Y-122912300D01*
G75*
G02*
X140358800Y-122987300I0J-75000D01*
G01*
X140358800Y-123137300D01*
G75*
G02*
X140283800Y-123212300I-75000J0D01*
G01*
X138883800Y-123212300D01*
G75*
G02*
X138808800Y-123137300I0J75000D01*
G01*
G37*
G36*
G01*
X138808800Y-123637300D02*
X138808800Y-123487300D01*
G75*
G02*
X138883800Y-123412300I75000J0D01*
G01*
X140283800Y-123412300D01*
G75*
G02*
X140358800Y-123487300I0J-75000D01*
G01*
X140358800Y-123637300D01*
G75*
G02*
X140283800Y-123712300I-75000J0D01*
G01*
X138883800Y-123712300D01*
G75*
G02*
X138808800Y-123637300I0J75000D01*
G01*
G37*
G36*
G01*
X138808800Y-124137300D02*
X138808800Y-123987300D01*
G75*
G02*
X138883800Y-123912300I75000J0D01*
G01*
X140283800Y-123912300D01*
G75*
G02*
X140358800Y-123987300I0J-75000D01*
G01*
X140358800Y-124137300D01*
G75*
G02*
X140283800Y-124212300I-75000J0D01*
G01*
X138883800Y-124212300D01*
G75*
G02*
X138808800Y-124137300I0J75000D01*
G01*
G37*
G36*
G01*
X138808800Y-124637300D02*
X138808800Y-124487300D01*
G75*
G02*
X138883800Y-124412300I75000J0D01*
G01*
X140283800Y-124412300D01*
G75*
G02*
X140358800Y-124487300I0J-75000D01*
G01*
X140358800Y-124637300D01*
G75*
G02*
X140283800Y-124712300I-75000J0D01*
G01*
X138883800Y-124712300D01*
G75*
G02*
X138808800Y-124637300I0J75000D01*
G01*
G37*
G36*
G01*
X138808800Y-125137300D02*
X138808800Y-124987300D01*
G75*
G02*
X138883800Y-124912300I75000J0D01*
G01*
X140283800Y-124912300D01*
G75*
G02*
X140358800Y-124987300I0J-75000D01*
G01*
X140358800Y-125137300D01*
G75*
G02*
X140283800Y-125212300I-75000J0D01*
G01*
X138883800Y-125212300D01*
G75*
G02*
X138808800Y-125137300I0J75000D01*
G01*
G37*
G36*
G01*
X138808800Y-125637300D02*
X138808800Y-125487300D01*
G75*
G02*
X138883800Y-125412300I75000J0D01*
G01*
X140283800Y-125412300D01*
G75*
G02*
X140358800Y-125487300I0J-75000D01*
G01*
X140358800Y-125637300D01*
G75*
G02*
X140283800Y-125712300I-75000J0D01*
G01*
X138883800Y-125712300D01*
G75*
G02*
X138808800Y-125637300I0J75000D01*
G01*
G37*
G36*
G01*
X138808800Y-126137300D02*
X138808800Y-125987300D01*
G75*
G02*
X138883800Y-125912300I75000J0D01*
G01*
X140283800Y-125912300D01*
G75*
G02*
X140358800Y-125987300I0J-75000D01*
G01*
X140358800Y-126137300D01*
G75*
G02*
X140283800Y-126212300I-75000J0D01*
G01*
X138883800Y-126212300D01*
G75*
G02*
X138808800Y-126137300I0J75000D01*
G01*
G37*
G36*
G01*
X138808800Y-126637300D02*
X138808800Y-126487300D01*
G75*
G02*
X138883800Y-126412300I75000J0D01*
G01*
X140283800Y-126412300D01*
G75*
G02*
X140358800Y-126487300I0J-75000D01*
G01*
X140358800Y-126637300D01*
G75*
G02*
X140283800Y-126712300I-75000J0D01*
G01*
X138883800Y-126712300D01*
G75*
G02*
X138808800Y-126637300I0J75000D01*
G01*
G37*
G36*
G01*
X138808800Y-127137300D02*
X138808800Y-126987300D01*
G75*
G02*
X138883800Y-126912300I75000J0D01*
G01*
X140283800Y-126912300D01*
G75*
G02*
X140358800Y-126987300I0J-75000D01*
G01*
X140358800Y-127137300D01*
G75*
G02*
X140283800Y-127212300I-75000J0D01*
G01*
X138883800Y-127212300D01*
G75*
G02*
X138808800Y-127137300I0J75000D01*
G01*
G37*
G36*
G01*
X138808800Y-127637300D02*
X138808800Y-127487300D01*
G75*
G02*
X138883800Y-127412300I75000J0D01*
G01*
X140283800Y-127412300D01*
G75*
G02*
X140358800Y-127487300I0J-75000D01*
G01*
X140358800Y-127637300D01*
G75*
G02*
X140283800Y-127712300I-75000J0D01*
G01*
X138883800Y-127712300D01*
G75*
G02*
X138808800Y-127637300I0J75000D01*
G01*
G37*
G36*
G01*
X137508800Y-130187300D02*
X137508800Y-128787300D01*
G75*
G02*
X137583800Y-128712300I75000J0D01*
G01*
X137733800Y-128712300D01*
G75*
G02*
X137808800Y-128787300I0J-75000D01*
G01*
X137808800Y-130187300D01*
G75*
G02*
X137733800Y-130262300I-75000J0D01*
G01*
X137583800Y-130262300D01*
G75*
G02*
X137508800Y-130187300I0J75000D01*
G01*
G37*
G36*
G01*
X137008800Y-130187300D02*
X137008800Y-128787300D01*
G75*
G02*
X137083800Y-128712300I75000J0D01*
G01*
X137233800Y-128712300D01*
G75*
G02*
X137308800Y-128787300I0J-75000D01*
G01*
X137308800Y-130187300D01*
G75*
G02*
X137233800Y-130262300I-75000J0D01*
G01*
X137083800Y-130262300D01*
G75*
G02*
X137008800Y-130187300I0J75000D01*
G01*
G37*
G36*
G01*
X136508800Y-130187300D02*
X136508800Y-128787300D01*
G75*
G02*
X136583800Y-128712300I75000J0D01*
G01*
X136733800Y-128712300D01*
G75*
G02*
X136808800Y-128787300I0J-75000D01*
G01*
X136808800Y-130187300D01*
G75*
G02*
X136733800Y-130262300I-75000J0D01*
G01*
X136583800Y-130262300D01*
G75*
G02*
X136508800Y-130187300I0J75000D01*
G01*
G37*
G36*
G01*
X136008800Y-130187300D02*
X136008800Y-128787300D01*
G75*
G02*
X136083800Y-128712300I75000J0D01*
G01*
X136233800Y-128712300D01*
G75*
G02*
X136308800Y-128787300I0J-75000D01*
G01*
X136308800Y-130187300D01*
G75*
G02*
X136233800Y-130262300I-75000J0D01*
G01*
X136083800Y-130262300D01*
G75*
G02*
X136008800Y-130187300I0J75000D01*
G01*
G37*
G36*
G01*
X135508800Y-130187300D02*
X135508800Y-128787300D01*
G75*
G02*
X135583800Y-128712300I75000J0D01*
G01*
X135733800Y-128712300D01*
G75*
G02*
X135808800Y-128787300I0J-75000D01*
G01*
X135808800Y-130187300D01*
G75*
G02*
X135733800Y-130262300I-75000J0D01*
G01*
X135583800Y-130262300D01*
G75*
G02*
X135508800Y-130187300I0J75000D01*
G01*
G37*
G36*
G01*
X135008800Y-130187300D02*
X135008800Y-128787300D01*
G75*
G02*
X135083800Y-128712300I75000J0D01*
G01*
X135233800Y-128712300D01*
G75*
G02*
X135308800Y-128787300I0J-75000D01*
G01*
X135308800Y-130187300D01*
G75*
G02*
X135233800Y-130262300I-75000J0D01*
G01*
X135083800Y-130262300D01*
G75*
G02*
X135008800Y-130187300I0J75000D01*
G01*
G37*
G36*
G01*
X134508800Y-130187300D02*
X134508800Y-128787300D01*
G75*
G02*
X134583800Y-128712300I75000J0D01*
G01*
X134733800Y-128712300D01*
G75*
G02*
X134808800Y-128787300I0J-75000D01*
G01*
X134808800Y-130187300D01*
G75*
G02*
X134733800Y-130262300I-75000J0D01*
G01*
X134583800Y-130262300D01*
G75*
G02*
X134508800Y-130187300I0J75000D01*
G01*
G37*
G36*
G01*
X134008800Y-130187300D02*
X134008800Y-128787300D01*
G75*
G02*
X134083800Y-128712300I75000J0D01*
G01*
X134233800Y-128712300D01*
G75*
G02*
X134308800Y-128787300I0J-75000D01*
G01*
X134308800Y-130187300D01*
G75*
G02*
X134233800Y-130262300I-75000J0D01*
G01*
X134083800Y-130262300D01*
G75*
G02*
X134008800Y-130187300I0J75000D01*
G01*
G37*
G36*
G01*
X133508800Y-130187300D02*
X133508800Y-128787300D01*
G75*
G02*
X133583800Y-128712300I75000J0D01*
G01*
X133733800Y-128712300D01*
G75*
G02*
X133808800Y-128787300I0J-75000D01*
G01*
X133808800Y-130187300D01*
G75*
G02*
X133733800Y-130262300I-75000J0D01*
G01*
X133583800Y-130262300D01*
G75*
G02*
X133508800Y-130187300I0J75000D01*
G01*
G37*
G36*
G01*
X133008800Y-130187300D02*
X133008800Y-128787300D01*
G75*
G02*
X133083800Y-128712300I75000J0D01*
G01*
X133233800Y-128712300D01*
G75*
G02*
X133308800Y-128787300I0J-75000D01*
G01*
X133308800Y-130187300D01*
G75*
G02*
X133233800Y-130262300I-75000J0D01*
G01*
X133083800Y-130262300D01*
G75*
G02*
X133008800Y-130187300I0J75000D01*
G01*
G37*
G36*
G01*
X132508800Y-130187300D02*
X132508800Y-128787300D01*
G75*
G02*
X132583800Y-128712300I75000J0D01*
G01*
X132733800Y-128712300D01*
G75*
G02*
X132808800Y-128787300I0J-75000D01*
G01*
X132808800Y-130187300D01*
G75*
G02*
X132733800Y-130262300I-75000J0D01*
G01*
X132583800Y-130262300D01*
G75*
G02*
X132508800Y-130187300I0J75000D01*
G01*
G37*
G36*
G01*
X132008800Y-130187300D02*
X132008800Y-128787300D01*
G75*
G02*
X132083800Y-128712300I75000J0D01*
G01*
X132233800Y-128712300D01*
G75*
G02*
X132308800Y-128787300I0J-75000D01*
G01*
X132308800Y-130187300D01*
G75*
G02*
X132233800Y-130262300I-75000J0D01*
G01*
X132083800Y-130262300D01*
G75*
G02*
X132008800Y-130187300I0J75000D01*
G01*
G37*
G36*
G01*
X131508800Y-130187300D02*
X131508800Y-128787300D01*
G75*
G02*
X131583800Y-128712300I75000J0D01*
G01*
X131733800Y-128712300D01*
G75*
G02*
X131808800Y-128787300I0J-75000D01*
G01*
X131808800Y-130187300D01*
G75*
G02*
X131733800Y-130262300I-75000J0D01*
G01*
X131583800Y-130262300D01*
G75*
G02*
X131508800Y-130187300I0J75000D01*
G01*
G37*
G36*
G01*
X131008800Y-130187300D02*
X131008800Y-128787300D01*
G75*
G02*
X131083800Y-128712300I75000J0D01*
G01*
X131233800Y-128712300D01*
G75*
G02*
X131308800Y-128787300I0J-75000D01*
G01*
X131308800Y-130187300D01*
G75*
G02*
X131233800Y-130262300I-75000J0D01*
G01*
X131083800Y-130262300D01*
G75*
G02*
X131008800Y-130187300I0J75000D01*
G01*
G37*
G36*
G01*
X130508800Y-130187300D02*
X130508800Y-128787300D01*
G75*
G02*
X130583800Y-128712300I75000J0D01*
G01*
X130733800Y-128712300D01*
G75*
G02*
X130808800Y-128787300I0J-75000D01*
G01*
X130808800Y-130187300D01*
G75*
G02*
X130733800Y-130262300I-75000J0D01*
G01*
X130583800Y-130262300D01*
G75*
G02*
X130508800Y-130187300I0J75000D01*
G01*
G37*
G36*
G01*
X130008800Y-130187300D02*
X130008800Y-128787300D01*
G75*
G02*
X130083800Y-128712300I75000J0D01*
G01*
X130233800Y-128712300D01*
G75*
G02*
X130308800Y-128787300I0J-75000D01*
G01*
X130308800Y-130187300D01*
G75*
G02*
X130233800Y-130262300I-75000J0D01*
G01*
X130083800Y-130262300D01*
G75*
G02*
X130008800Y-130187300I0J75000D01*
G01*
G37*
D16*
X65874900Y-76073000D03*
X226288600Y-187591700D03*
D17*
X90360500Y-184099200D03*
D18*
X87820500Y-184099200D03*
G36*
G01*
X167693400Y-112360100D02*
X167383400Y-112360100D01*
G75*
G02*
X167228400Y-112205100I0J155000D01*
G01*
X167228400Y-111780100D01*
G75*
G02*
X167383400Y-111625100I155000J0D01*
G01*
X167693400Y-111625100D01*
G75*
G02*
X167848400Y-111780100I0J-155000D01*
G01*
X167848400Y-112205100D01*
G75*
G02*
X167693400Y-112360100I-155000J0D01*
G01*
G37*
G36*
G01*
X167693400Y-113495100D02*
X167383400Y-113495100D01*
G75*
G02*
X167228400Y-113340100I0J155000D01*
G01*
X167228400Y-112915100D01*
G75*
G02*
X167383400Y-112760100I155000J0D01*
G01*
X167693400Y-112760100D01*
G75*
G02*
X167848400Y-112915100I0J-155000D01*
G01*
X167848400Y-113340100D01*
G75*
G02*
X167693400Y-113495100I-155000J0D01*
G01*
G37*
G36*
G01*
X134573000Y-133359700D02*
X135048000Y-133359700D01*
G75*
G02*
X135285500Y-133597200I0J-237500D01*
G01*
X135285500Y-134197200D01*
G75*
G02*
X135048000Y-134434700I-237500J0D01*
G01*
X134573000Y-134434700D01*
G75*
G02*
X134335500Y-134197200I0J237500D01*
G01*
X134335500Y-133597200D01*
G75*
G02*
X134573000Y-133359700I237500J0D01*
G01*
G37*
G36*
G01*
X134573000Y-135084700D02*
X135048000Y-135084700D01*
G75*
G02*
X135285500Y-135322200I0J-237500D01*
G01*
X135285500Y-135922200D01*
G75*
G02*
X135048000Y-136159700I-237500J0D01*
G01*
X134573000Y-136159700D01*
G75*
G02*
X134335500Y-135922200I0J237500D01*
G01*
X134335500Y-135322200D01*
G75*
G02*
X134573000Y-135084700I237500J0D01*
G01*
G37*
G36*
G01*
X170893800Y-113495100D02*
X170583800Y-113495100D01*
G75*
G02*
X170428800Y-113340100I0J155000D01*
G01*
X170428800Y-112915100D01*
G75*
G02*
X170583800Y-112760100I155000J0D01*
G01*
X170893800Y-112760100D01*
G75*
G02*
X171048800Y-112915100I0J-155000D01*
G01*
X171048800Y-113340100D01*
G75*
G02*
X170893800Y-113495100I-155000J0D01*
G01*
G37*
G36*
G01*
X170893800Y-112360100D02*
X170583800Y-112360100D01*
G75*
G02*
X170428800Y-112205100I0J155000D01*
G01*
X170428800Y-111780100D01*
G75*
G02*
X170583800Y-111625100I155000J0D01*
G01*
X170893800Y-111625100D01*
G75*
G02*
X171048800Y-111780100I0J-155000D01*
G01*
X171048800Y-112205100D01*
G75*
G02*
X170893800Y-112360100I-155000J0D01*
G01*
G37*
G36*
G01*
X149736200Y-115834100D02*
X149736200Y-116144100D01*
G75*
G02*
X149581200Y-116299100I-155000J0D01*
G01*
X149156200Y-116299100D01*
G75*
G02*
X149001200Y-116144100I0J155000D01*
G01*
X149001200Y-115834100D01*
G75*
G02*
X149156200Y-115679100I155000J0D01*
G01*
X149581200Y-115679100D01*
G75*
G02*
X149736200Y-115834100I0J-155000D01*
G01*
G37*
G36*
G01*
X150871200Y-115834100D02*
X150871200Y-116144100D01*
G75*
G02*
X150716200Y-116299100I-155000J0D01*
G01*
X150291200Y-116299100D01*
G75*
G02*
X150136200Y-116144100I0J155000D01*
G01*
X150136200Y-115834100D01*
G75*
G02*
X150291200Y-115679100I155000J0D01*
G01*
X150716200Y-115679100D01*
G75*
G02*
X150871200Y-115834100I0J-155000D01*
G01*
G37*
G36*
G01*
X132489000Y-113147500D02*
X132179000Y-113147500D01*
G75*
G02*
X132024000Y-112992500I0J155000D01*
G01*
X132024000Y-112567500D01*
G75*
G02*
X132179000Y-112412500I155000J0D01*
G01*
X132489000Y-112412500D01*
G75*
G02*
X132644000Y-112567500I0J-155000D01*
G01*
X132644000Y-112992500D01*
G75*
G02*
X132489000Y-113147500I-155000J0D01*
G01*
G37*
G36*
G01*
X132489000Y-114282500D02*
X132179000Y-114282500D01*
G75*
G02*
X132024000Y-114127500I0J155000D01*
G01*
X132024000Y-113702500D01*
G75*
G02*
X132179000Y-113547500I155000J0D01*
G01*
X132489000Y-113547500D01*
G75*
G02*
X132644000Y-113702500I0J-155000D01*
G01*
X132644000Y-114127500D01*
G75*
G02*
X132489000Y-114282500I-155000J0D01*
G01*
G37*
G36*
G01*
X150136200Y-117287100D02*
X150136200Y-116977100D01*
G75*
G02*
X150291200Y-116822100I155000J0D01*
G01*
X150716200Y-116822100D01*
G75*
G02*
X150871200Y-116977100I0J-155000D01*
G01*
X150871200Y-117287100D01*
G75*
G02*
X150716200Y-117442100I-155000J0D01*
G01*
X150291200Y-117442100D01*
G75*
G02*
X150136200Y-117287100I0J155000D01*
G01*
G37*
G36*
G01*
X149001200Y-117287100D02*
X149001200Y-116977100D01*
G75*
G02*
X149156200Y-116822100I155000J0D01*
G01*
X149581200Y-116822100D01*
G75*
G02*
X149736200Y-116977100I0J-155000D01*
G01*
X149736200Y-117287100D01*
G75*
G02*
X149581200Y-117442100I-155000J0D01*
G01*
X149156200Y-117442100D01*
G75*
G02*
X149001200Y-117287100I0J155000D01*
G01*
G37*
G36*
G01*
X136306500Y-133215100D02*
X136616500Y-133215100D01*
G75*
G02*
X136771500Y-133370100I0J-155000D01*
G01*
X136771500Y-133795100D01*
G75*
G02*
X136616500Y-133950100I-155000J0D01*
G01*
X136306500Y-133950100D01*
G75*
G02*
X136151500Y-133795100I0J155000D01*
G01*
X136151500Y-133370100D01*
G75*
G02*
X136306500Y-133215100I155000J0D01*
G01*
G37*
G36*
G01*
X136306500Y-134350100D02*
X136616500Y-134350100D01*
G75*
G02*
X136771500Y-134505100I0J-155000D01*
G01*
X136771500Y-134930100D01*
G75*
G02*
X136616500Y-135085100I-155000J0D01*
G01*
X136306500Y-135085100D01*
G75*
G02*
X136151500Y-134930100I0J155000D01*
G01*
X136151500Y-134505100D01*
G75*
G02*
X136306500Y-134350100I155000J0D01*
G01*
G37*
G36*
G01*
X133759000Y-114282500D02*
X133449000Y-114282500D01*
G75*
G02*
X133294000Y-114127500I0J155000D01*
G01*
X133294000Y-113702500D01*
G75*
G02*
X133449000Y-113547500I155000J0D01*
G01*
X133759000Y-113547500D01*
G75*
G02*
X133914000Y-113702500I0J-155000D01*
G01*
X133914000Y-114127500D01*
G75*
G02*
X133759000Y-114282500I-155000J0D01*
G01*
G37*
G36*
G01*
X133759000Y-113147500D02*
X133449000Y-113147500D01*
G75*
G02*
X133294000Y-112992500I0J155000D01*
G01*
X133294000Y-112567500D01*
G75*
G02*
X133449000Y-112412500I155000J0D01*
G01*
X133759000Y-112412500D01*
G75*
G02*
X133914000Y-112567500I0J-155000D01*
G01*
X133914000Y-112992500D01*
G75*
G02*
X133759000Y-113147500I-155000J0D01*
G01*
G37*
G36*
G01*
X123413800Y-128089600D02*
X123413800Y-128399600D01*
G75*
G02*
X123258800Y-128554600I-155000J0D01*
G01*
X122833800Y-128554600D01*
G75*
G02*
X122678800Y-128399600I0J155000D01*
G01*
X122678800Y-128089600D01*
G75*
G02*
X122833800Y-127934600I155000J0D01*
G01*
X123258800Y-127934600D01*
G75*
G02*
X123413800Y-128089600I0J-155000D01*
G01*
G37*
G36*
G01*
X122278800Y-128089600D02*
X122278800Y-128399600D01*
G75*
G02*
X122123800Y-128554600I-155000J0D01*
G01*
X121698800Y-128554600D01*
G75*
G02*
X121543800Y-128399600I0J155000D01*
G01*
X121543800Y-128089600D01*
G75*
G02*
X121698800Y-127934600I155000J0D01*
G01*
X122123800Y-127934600D01*
G75*
G02*
X122278800Y-128089600I0J-155000D01*
G01*
G37*
G36*
G01*
X137576500Y-133215100D02*
X137886500Y-133215100D01*
G75*
G02*
X138041500Y-133370100I0J-155000D01*
G01*
X138041500Y-133795100D01*
G75*
G02*
X137886500Y-133950100I-155000J0D01*
G01*
X137576500Y-133950100D01*
G75*
G02*
X137421500Y-133795100I0J155000D01*
G01*
X137421500Y-133370100D01*
G75*
G02*
X137576500Y-133215100I155000J0D01*
G01*
G37*
G36*
G01*
X137576500Y-134350100D02*
X137886500Y-134350100D01*
G75*
G02*
X138041500Y-134505100I0J-155000D01*
G01*
X138041500Y-134930100D01*
G75*
G02*
X137886500Y-135085100I-155000J0D01*
G01*
X137576500Y-135085100D01*
G75*
G02*
X137421500Y-134930100I0J155000D01*
G01*
X137421500Y-134505100D01*
G75*
G02*
X137576500Y-134350100I155000J0D01*
G01*
G37*
G36*
G01*
X143659200Y-123230700D02*
X143659200Y-122920700D01*
G75*
G02*
X143814200Y-122765700I155000J0D01*
G01*
X144239200Y-122765700D01*
G75*
G02*
X144394200Y-122920700I0J-155000D01*
G01*
X144394200Y-123230700D01*
G75*
G02*
X144239200Y-123385700I-155000J0D01*
G01*
X143814200Y-123385700D01*
G75*
G02*
X143659200Y-123230700I0J155000D01*
G01*
G37*
G36*
G01*
X142524200Y-123230700D02*
X142524200Y-122920700D01*
G75*
G02*
X142679200Y-122765700I155000J0D01*
G01*
X143104200Y-122765700D01*
G75*
G02*
X143259200Y-122920700I0J-155000D01*
G01*
X143259200Y-123230700D01*
G75*
G02*
X143104200Y-123385700I-155000J0D01*
G01*
X142679200Y-123385700D01*
G75*
G02*
X142524200Y-123230700I0J155000D01*
G01*
G37*
G36*
G01*
X142524200Y-124386400D02*
X142524200Y-124076400D01*
G75*
G02*
X142679200Y-123921400I155000J0D01*
G01*
X143104200Y-123921400D01*
G75*
G02*
X143259200Y-124076400I0J-155000D01*
G01*
X143259200Y-124386400D01*
G75*
G02*
X143104200Y-124541400I-155000J0D01*
G01*
X142679200Y-124541400D01*
G75*
G02*
X142524200Y-124386400I0J155000D01*
G01*
G37*
G36*
G01*
X143659200Y-124386400D02*
X143659200Y-124076400D01*
G75*
G02*
X143814200Y-123921400I155000J0D01*
G01*
X144239200Y-123921400D01*
G75*
G02*
X144394200Y-124076400I0J-155000D01*
G01*
X144394200Y-124386400D01*
G75*
G02*
X144239200Y-124541400I-155000J0D01*
G01*
X143814200Y-124541400D01*
G75*
G02*
X143659200Y-124386400I0J155000D01*
G01*
G37*
G36*
G01*
X134965500Y-114295200D02*
X134655500Y-114295200D01*
G75*
G02*
X134500500Y-114140200I0J155000D01*
G01*
X134500500Y-113715200D01*
G75*
G02*
X134655500Y-113560200I155000J0D01*
G01*
X134965500Y-113560200D01*
G75*
G02*
X135120500Y-113715200I0J-155000D01*
G01*
X135120500Y-114140200D01*
G75*
G02*
X134965500Y-114295200I-155000J0D01*
G01*
G37*
G36*
G01*
X134965500Y-113160200D02*
X134655500Y-113160200D01*
G75*
G02*
X134500500Y-113005200I0J155000D01*
G01*
X134500500Y-112580200D01*
G75*
G02*
X134655500Y-112425200I155000J0D01*
G01*
X134965500Y-112425200D01*
G75*
G02*
X135120500Y-112580200I0J-155000D01*
G01*
X135120500Y-113005200D01*
G75*
G02*
X134965500Y-113160200I-155000J0D01*
G01*
G37*
G36*
G01*
X138846500Y-133215100D02*
X139156500Y-133215100D01*
G75*
G02*
X139311500Y-133370100I0J-155000D01*
G01*
X139311500Y-133795100D01*
G75*
G02*
X139156500Y-133950100I-155000J0D01*
G01*
X138846500Y-133950100D01*
G75*
G02*
X138691500Y-133795100I0J155000D01*
G01*
X138691500Y-133370100D01*
G75*
G02*
X138846500Y-133215100I155000J0D01*
G01*
G37*
G36*
G01*
X138846500Y-134350100D02*
X139156500Y-134350100D01*
G75*
G02*
X139311500Y-134505100I0J-155000D01*
G01*
X139311500Y-134930100D01*
G75*
G02*
X139156500Y-135085100I-155000J0D01*
G01*
X138846500Y-135085100D01*
G75*
G02*
X138691500Y-134930100I0J155000D01*
G01*
X138691500Y-134505100D01*
G75*
G02*
X138846500Y-134350100I155000J0D01*
G01*
G37*
G36*
G01*
X125826800Y-123149300D02*
X125826800Y-123459300D01*
G75*
G02*
X125671800Y-123614300I-155000J0D01*
G01*
X125246800Y-123614300D01*
G75*
G02*
X125091800Y-123459300I0J155000D01*
G01*
X125091800Y-123149300D01*
G75*
G02*
X125246800Y-122994300I155000J0D01*
G01*
X125671800Y-122994300D01*
G75*
G02*
X125826800Y-123149300I0J-155000D01*
G01*
G37*
G36*
G01*
X124691800Y-123149300D02*
X124691800Y-123459300D01*
G75*
G02*
X124536800Y-123614300I-155000J0D01*
G01*
X124111800Y-123614300D01*
G75*
G02*
X123956800Y-123459300I0J155000D01*
G01*
X123956800Y-123149300D01*
G75*
G02*
X124111800Y-122994300I155000J0D01*
G01*
X124536800Y-122994300D01*
G75*
G02*
X124691800Y-123149300I0J-155000D01*
G01*
G37*
G36*
G01*
X70157400Y-82667500D02*
X69847400Y-82667500D01*
G75*
G02*
X69692400Y-82512500I0J155000D01*
G01*
X69692400Y-82087500D01*
G75*
G02*
X69847400Y-81932500I155000J0D01*
G01*
X70157400Y-81932500D01*
G75*
G02*
X70312400Y-82087500I0J-155000D01*
G01*
X70312400Y-82512500D01*
G75*
G02*
X70157400Y-82667500I-155000J0D01*
G01*
G37*
G36*
G01*
X70157400Y-83802500D02*
X69847400Y-83802500D01*
G75*
G02*
X69692400Y-83647500I0J155000D01*
G01*
X69692400Y-83222500D01*
G75*
G02*
X69847400Y-83067500I155000J0D01*
G01*
X70157400Y-83067500D01*
G75*
G02*
X70312400Y-83222500I0J-155000D01*
G01*
X70312400Y-83647500D01*
G75*
G02*
X70157400Y-83802500I-155000J0D01*
G01*
G37*
G36*
G01*
X63833400Y-82966500D02*
X63833400Y-83276500D01*
G75*
G02*
X63678400Y-83431500I-155000J0D01*
G01*
X63253400Y-83431500D01*
G75*
G02*
X63098400Y-83276500I0J155000D01*
G01*
X63098400Y-82966500D01*
G75*
G02*
X63253400Y-82811500I155000J0D01*
G01*
X63678400Y-82811500D01*
G75*
G02*
X63833400Y-82966500I0J-155000D01*
G01*
G37*
G36*
G01*
X64968400Y-82966500D02*
X64968400Y-83276500D01*
G75*
G02*
X64813400Y-83431500I-155000J0D01*
G01*
X64388400Y-83431500D01*
G75*
G02*
X64233400Y-83276500I0J155000D01*
G01*
X64233400Y-82966500D01*
G75*
G02*
X64388400Y-82811500I155000J0D01*
G01*
X64813400Y-82811500D01*
G75*
G02*
X64968400Y-82966500I0J-155000D01*
G01*
G37*
G36*
G01*
X180279700Y-137373300D02*
X180279700Y-137683300D01*
G75*
G02*
X180124700Y-137838300I-155000J0D01*
G01*
X179699700Y-137838300D01*
G75*
G02*
X179544700Y-137683300I0J155000D01*
G01*
X179544700Y-137373300D01*
G75*
G02*
X179699700Y-137218300I155000J0D01*
G01*
X180124700Y-137218300D01*
G75*
G02*
X180279700Y-137373300I0J-155000D01*
G01*
G37*
G36*
G01*
X181414700Y-137373300D02*
X181414700Y-137683300D01*
G75*
G02*
X181259700Y-137838300I-155000J0D01*
G01*
X180834700Y-137838300D01*
G75*
G02*
X180679700Y-137683300I0J155000D01*
G01*
X180679700Y-137373300D01*
G75*
G02*
X180834700Y-137218300I155000J0D01*
G01*
X181259700Y-137218300D01*
G75*
G02*
X181414700Y-137373300I0J-155000D01*
G01*
G37*
G36*
G01*
X137284750Y-106445800D02*
X137797250Y-106445800D01*
G75*
G02*
X138016000Y-106664550I0J-218750D01*
G01*
X138016000Y-107102050D01*
G75*
G02*
X137797250Y-107320800I-218750J0D01*
G01*
X137284750Y-107320800D01*
G75*
G02*
X137066000Y-107102050I0J218750D01*
G01*
X137066000Y-106664550D01*
G75*
G02*
X137284750Y-106445800I218750J0D01*
G01*
G37*
G36*
G01*
X137284750Y-104870800D02*
X137797250Y-104870800D01*
G75*
G02*
X138016000Y-105089550I0J-218750D01*
G01*
X138016000Y-105527050D01*
G75*
G02*
X137797250Y-105745800I-218750J0D01*
G01*
X137284750Y-105745800D01*
G75*
G02*
X137066000Y-105527050I0J218750D01*
G01*
X137066000Y-105089550D01*
G75*
G02*
X137284750Y-104870800I218750J0D01*
G01*
G37*
G36*
G01*
X140180350Y-104921600D02*
X140692850Y-104921600D01*
G75*
G02*
X140911600Y-105140350I0J-218750D01*
G01*
X140911600Y-105577850D01*
G75*
G02*
X140692850Y-105796600I-218750J0D01*
G01*
X140180350Y-105796600D01*
G75*
G02*
X139961600Y-105577850I0J218750D01*
G01*
X139961600Y-105140350D01*
G75*
G02*
X140180350Y-104921600I218750J0D01*
G01*
G37*
G36*
G01*
X140180350Y-106496600D02*
X140692850Y-106496600D01*
G75*
G02*
X140911600Y-106715350I0J-218750D01*
G01*
X140911600Y-107152850D01*
G75*
G02*
X140692850Y-107371600I-218750J0D01*
G01*
X140180350Y-107371600D01*
G75*
G02*
X139961600Y-107152850I0J218750D01*
G01*
X139961600Y-106715350D01*
G75*
G02*
X140180350Y-106496600I218750J0D01*
G01*
G37*
G36*
G01*
X76434400Y-85468750D02*
X76434400Y-85981250D01*
G75*
G02*
X76215650Y-86200000I-218750J0D01*
G01*
X75778150Y-86200000D01*
G75*
G02*
X75559400Y-85981250I0J218750D01*
G01*
X75559400Y-85468750D01*
G75*
G02*
X75778150Y-85250000I218750J0D01*
G01*
X76215650Y-85250000D01*
G75*
G02*
X76434400Y-85468750I0J-218750D01*
G01*
G37*
G36*
G01*
X74859400Y-85468750D02*
X74859400Y-85981250D01*
G75*
G02*
X74640650Y-86200000I-218750J0D01*
G01*
X74203150Y-86200000D01*
G75*
G02*
X73984400Y-85981250I0J218750D01*
G01*
X73984400Y-85468750D01*
G75*
G02*
X74203150Y-85250000I218750J0D01*
G01*
X74640650Y-85250000D01*
G75*
G02*
X74859400Y-85468750I0J-218750D01*
G01*
G37*
G36*
G01*
X122179500Y-126789601D02*
X122179500Y-125889599D01*
G75*
G02*
X122429499Y-125639600I249999J0D01*
G01*
X123079501Y-125639600D01*
G75*
G02*
X123329500Y-125889599I0J-249999D01*
G01*
X123329500Y-126789601D01*
G75*
G02*
X123079501Y-127039600I-249999J0D01*
G01*
X122429499Y-127039600D01*
G75*
G02*
X122179500Y-126789601I0J249999D01*
G01*
G37*
G36*
G01*
X120129500Y-126789601D02*
X120129500Y-125889599D01*
G75*
G02*
X120379499Y-125639600I249999J0D01*
G01*
X121029501Y-125639600D01*
G75*
G02*
X121279500Y-125889599I0J-249999D01*
G01*
X121279500Y-126789601D01*
G75*
G02*
X121029501Y-127039600I-249999J0D01*
G01*
X120379499Y-127039600D01*
G75*
G02*
X120129500Y-126789601I0J249999D01*
G01*
G37*
G36*
G01*
X65488399Y-78156000D02*
X66388401Y-78156000D01*
G75*
G02*
X66638400Y-78405999I0J-249999D01*
G01*
X66638400Y-79056001D01*
G75*
G02*
X66388401Y-79306000I-249999J0D01*
G01*
X65488399Y-79306000D01*
G75*
G02*
X65238400Y-79056001I0J249999D01*
G01*
X65238400Y-78405999D01*
G75*
G02*
X65488399Y-78156000I249999J0D01*
G01*
G37*
G36*
G01*
X65488399Y-80206000D02*
X66388401Y-80206000D01*
G75*
G02*
X66638400Y-80455999I0J-249999D01*
G01*
X66638400Y-81106001D01*
G75*
G02*
X66388401Y-81356000I-249999J0D01*
G01*
X65488399Y-81356000D01*
G75*
G02*
X65238400Y-81106001I0J249999D01*
G01*
X65238400Y-80455999D01*
G75*
G02*
X65488399Y-80206000I249999J0D01*
G01*
G37*
D17*
X72720200Y-162267900D03*
D18*
X70180200Y-162267900D03*
X72720200Y-164807900D03*
X70180200Y-164807900D03*
X72720200Y-167347900D03*
X70180200Y-167347900D03*
X72720200Y-169887900D03*
X70180200Y-169887900D03*
X72720200Y-172427900D03*
X70180200Y-172427900D03*
X72720200Y-174967900D03*
X70180200Y-174967900D03*
X72720200Y-177507900D03*
X70180200Y-177507900D03*
X113804700Y-111937800D03*
X111264700Y-111937800D03*
D17*
X108724700Y-111937800D03*
X114096800Y-120116600D03*
D18*
X111556800Y-120116600D03*
X109016800Y-120116600D03*
D19*
X64366400Y-100777000D03*
D20*
X64041400Y-99852000D03*
X64041400Y-99202000D03*
X64041400Y-98552000D03*
X64041400Y-97252000D03*
D19*
X64366400Y-96327000D03*
D21*
X61366400Y-102727000D03*
X61366400Y-94377000D03*
D20*
X64041400Y-97902000D03*
D22*
X61366400Y-98552000D03*
D23*
X61366400Y-94814500D03*
X61366400Y-102289500D03*
D17*
X72593200Y-49237900D03*
D18*
X70053200Y-49237900D03*
X72593200Y-51777900D03*
X70053200Y-51777900D03*
X72593200Y-54317900D03*
X70053200Y-54317900D03*
X72593200Y-56857900D03*
X70053200Y-56857900D03*
D17*
X142036800Y-142151100D03*
D18*
X144576800Y-142151100D03*
D17*
X72567800Y-140296900D03*
D18*
X70027800Y-140296900D03*
X72567800Y-142836900D03*
X70027800Y-142836900D03*
X72567800Y-145376900D03*
X70027800Y-145376900D03*
X72567800Y-147916900D03*
X70027800Y-147916900D03*
X72567800Y-150456900D03*
X70027800Y-150456900D03*
X72567800Y-152996900D03*
X70027800Y-152996900D03*
D17*
X180543200Y-142925800D03*
D18*
X183083200Y-142925800D03*
X183172100Y-147243800D03*
D17*
X180632100Y-147243800D03*
G36*
G01*
X83212900Y-51490900D02*
X83212900Y-51810900D01*
G75*
G02*
X83052900Y-51970900I-160000J0D01*
G01*
X82657900Y-51970900D01*
G75*
G02*
X82497900Y-51810900I0J160000D01*
G01*
X82497900Y-51490900D01*
G75*
G02*
X82657900Y-51330900I160000J0D01*
G01*
X83052900Y-51330900D01*
G75*
G02*
X83212900Y-51490900I0J-160000D01*
G01*
G37*
G36*
G01*
X82017900Y-51490900D02*
X82017900Y-51810900D01*
G75*
G02*
X81857900Y-51970900I-160000J0D01*
G01*
X81462900Y-51970900D01*
G75*
G02*
X81302900Y-51810900I0J160000D01*
G01*
X81302900Y-51490900D01*
G75*
G02*
X81462900Y-51330900I160000J0D01*
G01*
X81857900Y-51330900D01*
G75*
G02*
X82017900Y-51490900I0J-160000D01*
G01*
G37*
G36*
G01*
X82523300Y-53080900D02*
X82523300Y-52760900D01*
G75*
G02*
X82683300Y-52600900I160000J0D01*
G01*
X83078300Y-52600900D01*
G75*
G02*
X83238300Y-52760900I0J-160000D01*
G01*
X83238300Y-53080900D01*
G75*
G02*
X83078300Y-53240900I-160000J0D01*
G01*
X82683300Y-53240900D01*
G75*
G02*
X82523300Y-53080900I0J160000D01*
G01*
G37*
G36*
G01*
X81328300Y-53080900D02*
X81328300Y-52760900D01*
G75*
G02*
X81488300Y-52600900I160000J0D01*
G01*
X81883300Y-52600900D01*
G75*
G02*
X82043300Y-52760900I0J-160000D01*
G01*
X82043300Y-53080900D01*
G75*
G02*
X81883300Y-53240900I-160000J0D01*
G01*
X81488300Y-53240900D01*
G75*
G02*
X81328300Y-53080900I0J160000D01*
G01*
G37*
G36*
G01*
X128364000Y-110970100D02*
X128684000Y-110970100D01*
G75*
G02*
X128844000Y-111130100I0J-160000D01*
G01*
X128844000Y-111525100D01*
G75*
G02*
X128684000Y-111685100I-160000J0D01*
G01*
X128364000Y-111685100D01*
G75*
G02*
X128204000Y-111525100I0J160000D01*
G01*
X128204000Y-111130100D01*
G75*
G02*
X128364000Y-110970100I160000J0D01*
G01*
G37*
G36*
G01*
X128364000Y-112165100D02*
X128684000Y-112165100D01*
G75*
G02*
X128844000Y-112325100I0J-160000D01*
G01*
X128844000Y-112720100D01*
G75*
G02*
X128684000Y-112880100I-160000J0D01*
G01*
X128364000Y-112880100D01*
G75*
G02*
X128204000Y-112720100I0J160000D01*
G01*
X128204000Y-112325100D01*
G75*
G02*
X128364000Y-112165100I160000J0D01*
G01*
G37*
G36*
G01*
X83030100Y-166923700D02*
X83030100Y-166603700D01*
G75*
G02*
X83190100Y-166443700I160000J0D01*
G01*
X83585100Y-166443700D01*
G75*
G02*
X83745100Y-166603700I0J-160000D01*
G01*
X83745100Y-166923700D01*
G75*
G02*
X83585100Y-167083700I-160000J0D01*
G01*
X83190100Y-167083700D01*
G75*
G02*
X83030100Y-166923700I0J160000D01*
G01*
G37*
G36*
G01*
X84225100Y-166923700D02*
X84225100Y-166603700D01*
G75*
G02*
X84385100Y-166443700I160000J0D01*
G01*
X84780100Y-166443700D01*
G75*
G02*
X84940100Y-166603700I0J-160000D01*
G01*
X84940100Y-166923700D01*
G75*
G02*
X84780100Y-167083700I-160000J0D01*
G01*
X84385100Y-167083700D01*
G75*
G02*
X84225100Y-166923700I0J160000D01*
G01*
G37*
G36*
G01*
X83707000Y-168013400D02*
X83707000Y-168333400D01*
G75*
G02*
X83547000Y-168493400I-160000J0D01*
G01*
X83152000Y-168493400D01*
G75*
G02*
X82992000Y-168333400I0J160000D01*
G01*
X82992000Y-168013400D01*
G75*
G02*
X83152000Y-167853400I160000J0D01*
G01*
X83547000Y-167853400D01*
G75*
G02*
X83707000Y-168013400I0J-160000D01*
G01*
G37*
G36*
G01*
X84902000Y-168013400D02*
X84902000Y-168333400D01*
G75*
G02*
X84742000Y-168493400I-160000J0D01*
G01*
X84347000Y-168493400D01*
G75*
G02*
X84187000Y-168333400I0J160000D01*
G01*
X84187000Y-168013400D01*
G75*
G02*
X84347000Y-167853400I160000J0D01*
G01*
X84742000Y-167853400D01*
G75*
G02*
X84902000Y-168013400I0J-160000D01*
G01*
G37*
G36*
G01*
X84390200Y-177579000D02*
X84390200Y-177259000D01*
G75*
G02*
X84550200Y-177099000I160000J0D01*
G01*
X84945200Y-177099000D01*
G75*
G02*
X85105200Y-177259000I0J-160000D01*
G01*
X85105200Y-177579000D01*
G75*
G02*
X84945200Y-177739000I-160000J0D01*
G01*
X84550200Y-177739000D01*
G75*
G02*
X84390200Y-177579000I0J160000D01*
G01*
G37*
G36*
G01*
X83195200Y-177579000D02*
X83195200Y-177259000D01*
G75*
G02*
X83355200Y-177099000I160000J0D01*
G01*
X83750200Y-177099000D01*
G75*
G02*
X83910200Y-177259000I0J-160000D01*
G01*
X83910200Y-177579000D01*
G75*
G02*
X83750200Y-177739000I-160000J0D01*
G01*
X83355200Y-177739000D01*
G75*
G02*
X83195200Y-177579000I0J160000D01*
G01*
G37*
G36*
G01*
X85105200Y-178656000D02*
X85105200Y-178976000D01*
G75*
G02*
X84945200Y-179136000I-160000J0D01*
G01*
X84550200Y-179136000D01*
G75*
G02*
X84390200Y-178976000I0J160000D01*
G01*
X84390200Y-178656000D01*
G75*
G02*
X84550200Y-178496000I160000J0D01*
G01*
X84945200Y-178496000D01*
G75*
G02*
X85105200Y-178656000I0J-160000D01*
G01*
G37*
G36*
G01*
X83910200Y-178656000D02*
X83910200Y-178976000D01*
G75*
G02*
X83750200Y-179136000I-160000J0D01*
G01*
X83355200Y-179136000D01*
G75*
G02*
X83195200Y-178976000I0J160000D01*
G01*
X83195200Y-178656000D01*
G75*
G02*
X83355200Y-178496000I160000J0D01*
G01*
X83750200Y-178496000D01*
G75*
G02*
X83910200Y-178656000I0J-160000D01*
G01*
G37*
G36*
G01*
X129761000Y-110970100D02*
X130081000Y-110970100D01*
G75*
G02*
X130241000Y-111130100I0J-160000D01*
G01*
X130241000Y-111525100D01*
G75*
G02*
X130081000Y-111685100I-160000J0D01*
G01*
X129761000Y-111685100D01*
G75*
G02*
X129601000Y-111525100I0J160000D01*
G01*
X129601000Y-111130100D01*
G75*
G02*
X129761000Y-110970100I160000J0D01*
G01*
G37*
G36*
G01*
X129761000Y-112165100D02*
X130081000Y-112165100D01*
G75*
G02*
X130241000Y-112325100I0J-160000D01*
G01*
X130241000Y-112720100D01*
G75*
G02*
X130081000Y-112880100I-160000J0D01*
G01*
X129761000Y-112880100D01*
G75*
G02*
X129601000Y-112720100I0J160000D01*
G01*
X129601000Y-112325100D01*
G75*
G02*
X129761000Y-112165100I160000J0D01*
G01*
G37*
G36*
G01*
X137688300Y-102249000D02*
X137368300Y-102249000D01*
G75*
G02*
X137208300Y-102089000I0J160000D01*
G01*
X137208300Y-101694000D01*
G75*
G02*
X137368300Y-101534000I160000J0D01*
G01*
X137688300Y-101534000D01*
G75*
G02*
X137848300Y-101694000I0J-160000D01*
G01*
X137848300Y-102089000D01*
G75*
G02*
X137688300Y-102249000I-160000J0D01*
G01*
G37*
G36*
G01*
X137688300Y-103444000D02*
X137368300Y-103444000D01*
G75*
G02*
X137208300Y-103284000I0J160000D01*
G01*
X137208300Y-102889000D01*
G75*
G02*
X137368300Y-102729000I160000J0D01*
G01*
X137688300Y-102729000D01*
G75*
G02*
X137848300Y-102889000I0J-160000D01*
G01*
X137848300Y-103284000D01*
G75*
G02*
X137688300Y-103444000I-160000J0D01*
G01*
G37*
G36*
G01*
X140622000Y-102261700D02*
X140302000Y-102261700D01*
G75*
G02*
X140142000Y-102101700I0J160000D01*
G01*
X140142000Y-101706700D01*
G75*
G02*
X140302000Y-101546700I160000J0D01*
G01*
X140622000Y-101546700D01*
G75*
G02*
X140782000Y-101706700I0J-160000D01*
G01*
X140782000Y-102101700D01*
G75*
G02*
X140622000Y-102261700I-160000J0D01*
G01*
G37*
G36*
G01*
X140622000Y-103456700D02*
X140302000Y-103456700D01*
G75*
G02*
X140142000Y-103296700I0J160000D01*
G01*
X140142000Y-102901700D01*
G75*
G02*
X140302000Y-102741700I160000J0D01*
G01*
X140622000Y-102741700D01*
G75*
G02*
X140782000Y-102901700I0J-160000D01*
G01*
X140782000Y-103296700D01*
G75*
G02*
X140622000Y-103456700I-160000J0D01*
G01*
G37*
G36*
G01*
X168488400Y-120086100D02*
X168488400Y-119766100D01*
G75*
G02*
X168648400Y-119606100I160000J0D01*
G01*
X169043400Y-119606100D01*
G75*
G02*
X169203400Y-119766100I0J-160000D01*
G01*
X169203400Y-120086100D01*
G75*
G02*
X169043400Y-120246100I-160000J0D01*
G01*
X168648400Y-120246100D01*
G75*
G02*
X168488400Y-120086100I0J160000D01*
G01*
G37*
G36*
G01*
X169683400Y-120086100D02*
X169683400Y-119766100D01*
G75*
G02*
X169843400Y-119606100I160000J0D01*
G01*
X170238400Y-119606100D01*
G75*
G02*
X170398400Y-119766100I0J-160000D01*
G01*
X170398400Y-120086100D01*
G75*
G02*
X170238400Y-120246100I-160000J0D01*
G01*
X169843400Y-120246100D01*
G75*
G02*
X169683400Y-120086100I0J160000D01*
G01*
G37*
G36*
G01*
X72274400Y-85885000D02*
X72274400Y-85565000D01*
G75*
G02*
X72434400Y-85405000I160000J0D01*
G01*
X72829400Y-85405000D01*
G75*
G02*
X72989400Y-85565000I0J-160000D01*
G01*
X72989400Y-85885000D01*
G75*
G02*
X72829400Y-86045000I-160000J0D01*
G01*
X72434400Y-86045000D01*
G75*
G02*
X72274400Y-85885000I0J160000D01*
G01*
G37*
G36*
G01*
X71079400Y-85885000D02*
X71079400Y-85565000D01*
G75*
G02*
X71239400Y-85405000I160000J0D01*
G01*
X71634400Y-85405000D01*
G75*
G02*
X71794400Y-85565000I0J-160000D01*
G01*
X71794400Y-85885000D01*
G75*
G02*
X71634400Y-86045000I-160000J0D01*
G01*
X71239400Y-86045000D01*
G75*
G02*
X71079400Y-85885000I0J160000D01*
G01*
G37*
G36*
G01*
X164730400Y-146819600D02*
X164730400Y-146499600D01*
G75*
G02*
X164890400Y-146339600I160000J0D01*
G01*
X165285400Y-146339600D01*
G75*
G02*
X165445400Y-146499600I0J-160000D01*
G01*
X165445400Y-146819600D01*
G75*
G02*
X165285400Y-146979600I-160000J0D01*
G01*
X164890400Y-146979600D01*
G75*
G02*
X164730400Y-146819600I0J160000D01*
G01*
G37*
G36*
G01*
X163535400Y-146819600D02*
X163535400Y-146499600D01*
G75*
G02*
X163695400Y-146339600I160000J0D01*
G01*
X164090400Y-146339600D01*
G75*
G02*
X164250400Y-146499600I0J-160000D01*
G01*
X164250400Y-146819600D01*
G75*
G02*
X164090400Y-146979600I-160000J0D01*
G01*
X163695400Y-146979600D01*
G75*
G02*
X163535400Y-146819600I0J160000D01*
G01*
G37*
G36*
G01*
X163573500Y-145130500D02*
X163573500Y-144810500D01*
G75*
G02*
X163733500Y-144650500I160000J0D01*
G01*
X164128500Y-144650500D01*
G75*
G02*
X164288500Y-144810500I0J-160000D01*
G01*
X164288500Y-145130500D01*
G75*
G02*
X164128500Y-145290500I-160000J0D01*
G01*
X163733500Y-145290500D01*
G75*
G02*
X163573500Y-145130500I0J160000D01*
G01*
G37*
G36*
G01*
X164768500Y-145130500D02*
X164768500Y-144810500D01*
G75*
G02*
X164928500Y-144650500I160000J0D01*
G01*
X165323500Y-144650500D01*
G75*
G02*
X165483500Y-144810500I0J-160000D01*
G01*
X165483500Y-145130500D01*
G75*
G02*
X165323500Y-145290500I-160000J0D01*
G01*
X164928500Y-145290500D01*
G75*
G02*
X164768500Y-145130500I0J160000D01*
G01*
G37*
G36*
G01*
X68845400Y-96807000D02*
X68845400Y-96487000D01*
G75*
G02*
X69005400Y-96327000I160000J0D01*
G01*
X69400400Y-96327000D01*
G75*
G02*
X69560400Y-96487000I0J-160000D01*
G01*
X69560400Y-96807000D01*
G75*
G02*
X69400400Y-96967000I-160000J0D01*
G01*
X69005400Y-96967000D01*
G75*
G02*
X68845400Y-96807000I0J160000D01*
G01*
G37*
G36*
G01*
X67650400Y-96807000D02*
X67650400Y-96487000D01*
G75*
G02*
X67810400Y-96327000I160000J0D01*
G01*
X68205400Y-96327000D01*
G75*
G02*
X68365400Y-96487000I0J-160000D01*
G01*
X68365400Y-96807000D01*
G75*
G02*
X68205400Y-96967000I-160000J0D01*
G01*
X67810400Y-96967000D01*
G75*
G02*
X67650400Y-96807000I0J160000D01*
G01*
G37*
G36*
G01*
X67612300Y-99880400D02*
X67612300Y-99560400D01*
G75*
G02*
X67772300Y-99400400I160000J0D01*
G01*
X68167300Y-99400400D01*
G75*
G02*
X68327300Y-99560400I0J-160000D01*
G01*
X68327300Y-99880400D01*
G75*
G02*
X68167300Y-100040400I-160000J0D01*
G01*
X67772300Y-100040400D01*
G75*
G02*
X67612300Y-99880400I0J160000D01*
G01*
G37*
G36*
G01*
X68807300Y-99880400D02*
X68807300Y-99560400D01*
G75*
G02*
X68967300Y-99400400I160000J0D01*
G01*
X69362300Y-99400400D01*
G75*
G02*
X69522300Y-99560400I0J-160000D01*
G01*
X69522300Y-99880400D01*
G75*
G02*
X69362300Y-100040400I-160000J0D01*
G01*
X68967300Y-100040400D01*
G75*
G02*
X68807300Y-99880400I0J160000D01*
G01*
G37*
G36*
G01*
X180656200Y-139085300D02*
X180656200Y-138765300D01*
G75*
G02*
X180816200Y-138605300I160000J0D01*
G01*
X181211200Y-138605300D01*
G75*
G02*
X181371200Y-138765300I0J-160000D01*
G01*
X181371200Y-139085300D01*
G75*
G02*
X181211200Y-139245300I-160000J0D01*
G01*
X180816200Y-139245300D01*
G75*
G02*
X180656200Y-139085300I0J160000D01*
G01*
G37*
G36*
G01*
X179461200Y-139085300D02*
X179461200Y-138765300D01*
G75*
G02*
X179621200Y-138605300I160000J0D01*
G01*
X180016200Y-138605300D01*
G75*
G02*
X180176200Y-138765300I0J-160000D01*
G01*
X180176200Y-139085300D01*
G75*
G02*
X180016200Y-139245300I-160000J0D01*
G01*
X179621200Y-139245300D01*
G75*
G02*
X179461200Y-139085300I0J160000D01*
G01*
G37*
D24*
X184544200Y-131468300D03*
X192544200Y-131468300D03*
X184544200Y-135968300D03*
X192544200Y-135968300D03*
D16*
X138785600Y-112001300D03*
X152869900Y-113030000D03*
X73748900Y-88480900D03*
X75742800Y-70637400D03*
X229057200Y-48577500D03*
X62725300Y-80594200D03*
D25*
X67314900Y-88008500D03*
X67314900Y-87058500D03*
X67314900Y-86108500D03*
X69514900Y-86108500D03*
X69514900Y-88008500D03*
G36*
G01*
X70061400Y-91572750D02*
X70061400Y-91785250D01*
G75*
G02*
X69967650Y-91879000I-93750J0D01*
G01*
X69780150Y-91879000D01*
G75*
G02*
X69686400Y-91785250I0J93750D01*
G01*
X69686400Y-91572750D01*
G75*
G02*
X69780150Y-91479000I93750J0D01*
G01*
X69967650Y-91479000D01*
G75*
G02*
X70061400Y-91572750I0J-93750D01*
G01*
G37*
G36*
G01*
X70061400Y-92222750D02*
X70061400Y-92435250D01*
G75*
G02*
X69967650Y-92529000I-93750J0D01*
G01*
X69780150Y-92529000D01*
G75*
G02*
X69686400Y-92435250I0J93750D01*
G01*
X69686400Y-92222750D01*
G75*
G02*
X69780150Y-92129000I93750J0D01*
G01*
X69967650Y-92129000D01*
G75*
G02*
X70061400Y-92222750I0J-93750D01*
G01*
G37*
G36*
G01*
X70061400Y-92872750D02*
X70061400Y-93085250D01*
G75*
G02*
X69967650Y-93179000I-93750J0D01*
G01*
X69780150Y-93179000D01*
G75*
G02*
X69686400Y-93085250I0J93750D01*
G01*
X69686400Y-92872750D01*
G75*
G02*
X69780150Y-92779000I93750J0D01*
G01*
X69967650Y-92779000D01*
G75*
G02*
X70061400Y-92872750I0J-93750D01*
G01*
G37*
G36*
G01*
X68286400Y-92872750D02*
X68286400Y-93085250D01*
G75*
G02*
X68192650Y-93179000I-93750J0D01*
G01*
X68005150Y-93179000D01*
G75*
G02*
X67911400Y-93085250I0J93750D01*
G01*
X67911400Y-92872750D01*
G75*
G02*
X68005150Y-92779000I93750J0D01*
G01*
X68192650Y-92779000D01*
G75*
G02*
X68286400Y-92872750I0J-93750D01*
G01*
G37*
G36*
G01*
X68286400Y-92222750D02*
X68286400Y-92435250D01*
G75*
G02*
X68192650Y-92529000I-93750J0D01*
G01*
X68005150Y-92529000D01*
G75*
G02*
X67911400Y-92435250I0J93750D01*
G01*
X67911400Y-92222750D01*
G75*
G02*
X68005150Y-92129000I93750J0D01*
G01*
X68192650Y-92129000D01*
G75*
G02*
X68286400Y-92222750I0J-93750D01*
G01*
G37*
G36*
G01*
X68286400Y-91572750D02*
X68286400Y-91785250D01*
G75*
G02*
X68192650Y-91879000I-93750J0D01*
G01*
X68005150Y-91879000D01*
G75*
G02*
X67911400Y-91785250I0J93750D01*
G01*
X67911400Y-91572750D01*
G75*
G02*
X68005150Y-91479000I93750J0D01*
G01*
X68192650Y-91479000D01*
G75*
G02*
X68286400Y-91572750I0J-93750D01*
G01*
G37*
D26*
X68986400Y-92329000D03*
D27*
X171970700Y-147116800D03*
X171970700Y-145846800D03*
X171970700Y-144576800D03*
X171970700Y-143306800D03*
X171970700Y-142036800D03*
X170700700Y-142036800D03*
X170700700Y-143306800D03*
X170700700Y-144576800D03*
X170700700Y-145846800D03*
X170700700Y-147116800D03*
D28*
X168795700Y-142671800D03*
X168795700Y-148386800D03*
X173875700Y-142671800D03*
X173875700Y-148386800D03*
D29*
X170320700Y-140766800D03*
X172350700Y-140766800D03*
X171335700Y-148386800D03*
D30*
X152908000Y-117767100D03*
X152908000Y-115267100D03*
D31*
X160658000Y-116517100D03*
D32*
X171138600Y-116141500D03*
X167138600Y-116141500D03*
G36*
G01*
X136235500Y-113160200D02*
X135925500Y-113160200D01*
G75*
G02*
X135770500Y-113005200I0J155000D01*
G01*
X135770500Y-112580200D01*
G75*
G02*
X135925500Y-112425200I155000J0D01*
G01*
X136235500Y-112425200D01*
G75*
G02*
X136390500Y-112580200I0J-155000D01*
G01*
X136390500Y-113005200D01*
G75*
G02*
X136235500Y-113160200I-155000J0D01*
G01*
G37*
G36*
G01*
X136235500Y-114295200D02*
X135925500Y-114295200D01*
G75*
G02*
X135770500Y-114140200I0J155000D01*
G01*
X135770500Y-113715200D01*
G75*
G02*
X135925500Y-113560200I155000J0D01*
G01*
X136235500Y-113560200D01*
G75*
G02*
X136390500Y-113715200I0J-155000D01*
G01*
X136390500Y-114140200D01*
G75*
G02*
X136235500Y-114295200I-155000J0D01*
G01*
G37*
G36*
G01*
X125839500Y-121879300D02*
X125839500Y-122189300D01*
G75*
G02*
X125684500Y-122344300I-155000J0D01*
G01*
X125259500Y-122344300D01*
G75*
G02*
X125104500Y-122189300I0J155000D01*
G01*
X125104500Y-121879300D01*
G75*
G02*
X125259500Y-121724300I155000J0D01*
G01*
X125684500Y-121724300D01*
G75*
G02*
X125839500Y-121879300I0J-155000D01*
G01*
G37*
G36*
G01*
X124704500Y-121879300D02*
X124704500Y-122189300D01*
G75*
G02*
X124549500Y-122344300I-155000J0D01*
G01*
X124124500Y-122344300D01*
G75*
G02*
X123969500Y-122189300I0J155000D01*
G01*
X123969500Y-121879300D01*
G75*
G02*
X124124500Y-121724300I155000J0D01*
G01*
X124549500Y-121724300D01*
G75*
G02*
X124704500Y-121879300I0J-155000D01*
G01*
G37*
D17*
X72618600Y-108292900D03*
D18*
X70078600Y-108292900D03*
X72618600Y-110832900D03*
X70078600Y-110832900D03*
X72618600Y-113372900D03*
X70078600Y-113372900D03*
X72618600Y-115912900D03*
X70078600Y-115912900D03*
X72618600Y-118452900D03*
X70078600Y-118452900D03*
X72618600Y-120992900D03*
X70078600Y-120992900D03*
X72618600Y-123532900D03*
X70078600Y-123532900D03*
X72618600Y-126072900D03*
X70078600Y-126072900D03*
X72618600Y-128612900D03*
X70078600Y-128612900D03*
X72618600Y-131152900D03*
X70078600Y-131152900D03*
X72618600Y-133692900D03*
X70078600Y-133692900D03*
D33*
X235795190Y-192096910D03*
X234204200Y-191437900D03*
X232613210Y-192096910D03*
X231954200Y-193687900D03*
X232613210Y-195278890D03*
X234204200Y-195937900D03*
X235795190Y-195278890D03*
X236454200Y-193687900D03*
D34*
X234204200Y-193687900D03*
X149154200Y-193687900D03*
D33*
X151404200Y-193687900D03*
X150745190Y-195278890D03*
X149154200Y-195937900D03*
X147563210Y-195278890D03*
X146904200Y-193687900D03*
X147563210Y-192096910D03*
X149154200Y-191437900D03*
X150745190Y-192096910D03*
D34*
X64104200Y-193687900D03*
D33*
X66354200Y-193687900D03*
X65695190Y-195278890D03*
X64104200Y-195937900D03*
X62513210Y-195278890D03*
X61854200Y-193687900D03*
X62513210Y-192096910D03*
X64104200Y-191437900D03*
X65695190Y-192096910D03*
X235795190Y-64016910D03*
X234204200Y-63357900D03*
X232613210Y-64016910D03*
X231954200Y-65607900D03*
X232613210Y-67198890D03*
X234204200Y-67857900D03*
X235795190Y-67198890D03*
X236454200Y-65607900D03*
D34*
X234204200Y-65607900D03*
X149154200Y-65607900D03*
D33*
X151404200Y-65607900D03*
X150745190Y-67198890D03*
X149154200Y-67857900D03*
X147563210Y-67198890D03*
X146904200Y-65607900D03*
X147563210Y-64016910D03*
X149154200Y-63357900D03*
X150745190Y-64016910D03*
D34*
X71043800Y-66116200D03*
D33*
X73293800Y-66116200D03*
X72634790Y-67707190D03*
X71043800Y-68366200D03*
X69452810Y-67707190D03*
X68793800Y-66116200D03*
X69452810Y-64525210D03*
X71043800Y-63866200D03*
X72634790Y-64525210D03*
M02*
