M48
; DRILL file {KiCad (5.1.9)-1} date 06/08/21 08:10:20
; FORMAT={-:-/ absolute / metric / decimal}
; #@! TF.CreationDate,2021-06-08T08:10:20+01:00
; #@! TF.GenerationSoftware,Kicad,Pcbnew,(5.1.9)-1
; #@! TF.FileFunction,Plated,1,4,PTH
FMAT,2
METRIC
T1C0.330
T2C0.500
T3C0.600
T4C0.650
T5C1.000
T6C3.000
%
G90
G05
T1
X62.332Y-83.147
X62.776Y-97.498
X62.776Y-98.577
X62.776Y-99.593
X67.602Y-74.384
X67.602Y-75.908
X67.602Y-77.686
X68.618Y-87.084
X69.621Y-89.281
X70.891Y-91.694
X70.891Y-92.964
X70.968Y-82.321
X71.145Y-89.154
X71.272Y-87.757
X71.399Y-92.329
X77.368Y-85.725
X78.313Y-131.176
X78.323Y-113.386
X78.344Y-123.546
X78.349Y-126.086
X78.351Y-110.807
X78.354Y-128.656
X78.364Y-118.491
X78.369Y-121.016
X81.877Y-53.937
X82.169Y-166.764
X82.169Y-168.161
X82.385Y-115.735
X82.499Y-178.765
X82.55Y-177.394
X84.938Y-53.162
X85.534Y-107.709
X85.573Y-166.764
X85.573Y-169.647
X85.75Y-177.419
X85.852Y-53.607
X85.852Y-172.771
X85.954Y-118.034
X86.004Y-180.099
X86.055Y-165.176
X86.055Y-175.819
X86.157Y-131.305
X86.36Y-55.08
X86.538Y-138.925
X86.604Y-108.869
X86.792Y-125.108
X86.855Y-101.613
X86.868Y-171.831
X86.919Y-165.075
X86.922Y-175.812
X86.97Y-53.492
X87.071Y-162.192
X87.465Y-114.668
X87.483Y-172.751
X88.087Y-108.869
X88.735Y-132.588
X89.692Y-107.513
X89.954Y-131.242
X90.526Y-99.339
X90.602Y-122.568
X90.691Y-172.085
X90.767Y-174.828
X90.843Y-162.077
X90.894Y-52.997
X90.902Y-108.981
X91.177Y-116.912
X91.732Y-103.137
X91.796Y-132.779
X91.812Y-140.128
X91.872Y-126.759
X92.527Y-107.401
X92.837Y-131.077
X94.094Y-136.322
X95.352Y-106.185
X95.542Y-100.597
X95.682Y-124.219
X96.19Y-115.71
X96.368Y-108.377
X96.825Y-138.925
X97.587Y-136.766
X109.017Y-121.958
X111.125Y-126.035
X111.265Y-100.076
X111.989Y-125.92
X112.357Y-100.152
X112.89Y-125.844
X113.767Y-125.806
X119.278Y-126.352
X120.777Y-128.245
X122.161Y-121.755
X122.966Y-116.413
X123.139Y-123.304
X123.144Y-122.039
X123.698Y-116.947
X126.251Y-126.416
X126.39Y-115.57
X126.543Y-122.669
X128.204Y-115.306
X128.511Y-110.299
X129.718Y-122.085
X129.779Y-121.006
X129.819Y-123.058
X129.921Y-110.299
X132.334Y-111.747
X132.931Y-128.27
X133.604Y-111.747
X133.744Y-127.292
X134.036Y-126.301
X134.175Y-115.24
X134.264Y-128.105
X134.357Y-119.564
X134.379Y-132.994
X134.785Y-136.969
X134.81Y-111.773
X135.153Y-128.054
X135.204Y-125.273
X135.23Y-119.634
X135.433Y-116.484
X135.433Y-114.821
X136.081Y-111.709
X136.462Y-135.75
X136.487Y-101.854
X136.506Y-132.417
X137.731Y-126.835
X137.731Y-135.75
X138.062Y-116.7
X138.125Y-123.495
X138.138Y-113.563
X139.001Y-135.75
X139.408Y-113.563
X141.084Y-122.771
X141.288Y-124.562
X141.427Y-127.159
X141.529Y-101.892
X141.796Y-121.958
X143.586Y-115.786
X145.047Y-123.076
X145.047Y-124.219
X145.11Y-125.311
X145.186Y-121.704
X145.771Y-110.185
X163.017Y-147.18
X163.271Y-144.386
X167.2Y-131.648
X167.538Y-110.909
X169.71Y-144.564
X170.713Y-110.909
X171.36Y-142.696
X172.707Y-145.326
X178.575Y-138.925
X178.638Y-137.528
X182.702Y-131.559
X194.64Y-131.432
X226.847Y-48.565
X228.168Y-187.668
T2
X61.854Y-193.688
X62.513Y-192.097
X62.513Y-195.279
X64.104Y-191.438
X64.104Y-195.938
X65.695Y-192.097
X65.695Y-195.279
X66.354Y-193.688
X68.794Y-66.116
X69.453Y-64.525
X69.453Y-67.707
X71.044Y-63.866
X71.044Y-68.366
X72.635Y-64.525
X72.635Y-67.707
X73.294Y-66.116
X146.904Y-65.608
X146.904Y-193.688
X147.563Y-64.017
X147.563Y-67.199
X147.563Y-192.097
X147.563Y-195.279
X149.154Y-63.358
X149.154Y-67.858
X149.154Y-191.438
X149.154Y-195.938
X150.745Y-64.017
X150.745Y-67.199
X150.745Y-192.097
X150.745Y-195.279
X151.404Y-65.608
X151.404Y-193.688
X231.954Y-65.608
X231.954Y-193.688
X232.613Y-64.017
X232.613Y-67.199
X232.613Y-192.097
X232.613Y-195.279
X234.204Y-63.358
X234.204Y-67.858
X234.204Y-191.438
X234.204Y-195.938
X235.795Y-64.017
X235.795Y-67.199
X235.795Y-192.097
X235.795Y-195.279
X236.454Y-65.608
X236.454Y-193.688
T5
X70.028Y-140.297
X70.028Y-142.837
X70.028Y-145.377
X70.028Y-147.917
X70.028Y-150.457
X70.028Y-152.997
X70.053Y-49.238
X70.053Y-51.778
X70.053Y-54.318
X70.053Y-56.858
X70.079Y-108.293
X70.079Y-110.833
X70.079Y-113.373
X70.079Y-115.913
X70.079Y-118.453
X70.079Y-120.993
X70.079Y-123.533
X70.079Y-126.073
X70.079Y-128.613
X70.079Y-131.153
X70.079Y-133.693
X70.18Y-162.268
X70.18Y-164.808
X70.18Y-167.348
X70.18Y-169.888
X70.18Y-172.428
X70.18Y-174.968
X70.18Y-177.508
X72.568Y-140.297
X72.568Y-142.837
X72.568Y-145.377
X72.568Y-147.917
X72.568Y-150.457
X72.568Y-152.997
X72.593Y-49.238
X72.593Y-51.778
X72.593Y-54.318
X72.593Y-56.858
X72.619Y-108.293
X72.619Y-110.833
X72.619Y-113.373
X72.619Y-115.913
X72.619Y-118.453
X72.619Y-120.993
X72.619Y-123.533
X72.619Y-126.073
X72.619Y-128.613
X72.619Y-131.153
X72.619Y-133.693
X72.72Y-162.268
X72.72Y-164.808
X72.72Y-167.348
X72.72Y-169.888
X72.72Y-172.428
X72.72Y-174.968
X72.72Y-177.508
X87.82Y-184.099
X90.361Y-184.099
X108.725Y-111.938
X109.017Y-120.117
X111.265Y-111.938
X111.557Y-120.117
X113.805Y-111.938
X114.097Y-120.117
X142.037Y-142.151
X144.577Y-142.151
X180.543Y-142.926
X180.632Y-147.244
X183.083Y-142.926
X183.172Y-147.244
T6
X64.104Y-193.688
X71.044Y-66.116
X149.154Y-65.608
X149.154Y-193.688
X234.204Y-65.608
X234.204Y-193.688
T3
X61.016Y-94.377G85X61.716Y-94.377
G05
X61.016Y-102.727G85X61.716Y-102.727
G05
T4
X64.266Y-96.327G85X64.466Y-96.327
G05
X64.266Y-100.777G85X64.466Y-100.777
G05
T0
M30
