G04 #@! TF.GenerationSoftware,KiCad,Pcbnew,(5.1.9)-1*
G04 #@! TF.CreationDate,2021-06-08T08:09:59+01:00*
G04 #@! TF.ProjectId,Looper_Board,4c6f6f70-6572-45f4-926f-6172642e6b69,rev?*
G04 #@! TF.SameCoordinates,Original*
G04 #@! TF.FileFunction,Copper,L1,Top*
G04 #@! TF.FilePolarity,Positive*
%FSLAX46Y46*%
G04 Gerber Fmt 4.6, Leading zero omitted, Abs format (unit mm)*
G04 Created by KiCad (PCBNEW (5.1.9)-1) date 2021-06-08 08:09:59*
%MOMM*%
%LPD*%
G01*
G04 APERTURE LIST*
G04 #@! TA.AperFunction,ComponentPad*
%ADD10R,1.700000X1.700000*%
G04 #@! TD*
G04 #@! TA.AperFunction,ComponentPad*
%ADD11O,1.700000X1.700000*%
G04 #@! TD*
G04 #@! TA.AperFunction,ComponentPad*
%ADD12O,1.250000X1.050000*%
G04 #@! TD*
G04 #@! TA.AperFunction,ComponentPad*
%ADD13O,1.900000X1.000000*%
G04 #@! TD*
G04 #@! TA.AperFunction,SMDPad,CuDef*
%ADD14C,1.500000*%
G04 #@! TD*
G04 #@! TA.AperFunction,ComponentPad*
%ADD15C,0.800000*%
G04 #@! TD*
G04 #@! TA.AperFunction,ComponentPad*
%ADD16C,6.000000*%
G04 #@! TD*
G04 #@! TA.AperFunction,ViaPad*
%ADD17C,0.685800*%
G04 #@! TD*
G04 #@! TA.AperFunction,Conductor*
%ADD18C,0.508000*%
G04 #@! TD*
G04 #@! TA.AperFunction,Conductor*
%ADD19C,0.254000*%
G04 #@! TD*
G04 #@! TA.AperFunction,Conductor*
%ADD20C,0.152400*%
G04 #@! TD*
G04 #@! TA.AperFunction,Conductor*
%ADD21C,0.117348*%
G04 #@! TD*
G04 #@! TA.AperFunction,Conductor*
%ADD22C,0.100000*%
G04 #@! TD*
G04 APERTURE END LIST*
G04 #@! TA.AperFunction,SMDPad,CuDef*
G36*
G01*
X93004500Y-109792900D02*
X93304500Y-109792900D01*
G75*
G02*
X93454500Y-109942900I0J-150000D01*
G01*
X93454500Y-111592900D01*
G75*
G02*
X93304500Y-111742900I-150000J0D01*
G01*
X93004500Y-111742900D01*
G75*
G02*
X92854500Y-111592900I0J150000D01*
G01*
X92854500Y-109942900D01*
G75*
G02*
X93004500Y-109792900I150000J0D01*
G01*
G37*
G04 #@! TD.AperFunction*
G04 #@! TA.AperFunction,SMDPad,CuDef*
G36*
G01*
X91734500Y-109792900D02*
X92034500Y-109792900D01*
G75*
G02*
X92184500Y-109942900I0J-150000D01*
G01*
X92184500Y-111592900D01*
G75*
G02*
X92034500Y-111742900I-150000J0D01*
G01*
X91734500Y-111742900D01*
G75*
G02*
X91584500Y-111592900I0J150000D01*
G01*
X91584500Y-109942900D01*
G75*
G02*
X91734500Y-109792900I150000J0D01*
G01*
G37*
G04 #@! TD.AperFunction*
G04 #@! TA.AperFunction,SMDPad,CuDef*
G36*
G01*
X90464500Y-109792900D02*
X90764500Y-109792900D01*
G75*
G02*
X90914500Y-109942900I0J-150000D01*
G01*
X90914500Y-111592900D01*
G75*
G02*
X90764500Y-111742900I-150000J0D01*
G01*
X90464500Y-111742900D01*
G75*
G02*
X90314500Y-111592900I0J150000D01*
G01*
X90314500Y-109942900D01*
G75*
G02*
X90464500Y-109792900I150000J0D01*
G01*
G37*
G04 #@! TD.AperFunction*
G04 #@! TA.AperFunction,SMDPad,CuDef*
G36*
G01*
X89194500Y-109792900D02*
X89494500Y-109792900D01*
G75*
G02*
X89644500Y-109942900I0J-150000D01*
G01*
X89644500Y-111592900D01*
G75*
G02*
X89494500Y-111742900I-150000J0D01*
G01*
X89194500Y-111742900D01*
G75*
G02*
X89044500Y-111592900I0J150000D01*
G01*
X89044500Y-109942900D01*
G75*
G02*
X89194500Y-109792900I150000J0D01*
G01*
G37*
G04 #@! TD.AperFunction*
G04 #@! TA.AperFunction,SMDPad,CuDef*
G36*
G01*
X87924500Y-109792900D02*
X88224500Y-109792900D01*
G75*
G02*
X88374500Y-109942900I0J-150000D01*
G01*
X88374500Y-111592900D01*
G75*
G02*
X88224500Y-111742900I-150000J0D01*
G01*
X87924500Y-111742900D01*
G75*
G02*
X87774500Y-111592900I0J150000D01*
G01*
X87774500Y-109942900D01*
G75*
G02*
X87924500Y-109792900I150000J0D01*
G01*
G37*
G04 #@! TD.AperFunction*
G04 #@! TA.AperFunction,SMDPad,CuDef*
G36*
G01*
X86654500Y-109792900D02*
X86954500Y-109792900D01*
G75*
G02*
X87104500Y-109942900I0J-150000D01*
G01*
X87104500Y-111592900D01*
G75*
G02*
X86954500Y-111742900I-150000J0D01*
G01*
X86654500Y-111742900D01*
G75*
G02*
X86504500Y-111592900I0J150000D01*
G01*
X86504500Y-109942900D01*
G75*
G02*
X86654500Y-109792900I150000J0D01*
G01*
G37*
G04 #@! TD.AperFunction*
G04 #@! TA.AperFunction,SMDPad,CuDef*
G36*
G01*
X85384500Y-109792900D02*
X85684500Y-109792900D01*
G75*
G02*
X85834500Y-109942900I0J-150000D01*
G01*
X85834500Y-111592900D01*
G75*
G02*
X85684500Y-111742900I-150000J0D01*
G01*
X85384500Y-111742900D01*
G75*
G02*
X85234500Y-111592900I0J150000D01*
G01*
X85234500Y-109942900D01*
G75*
G02*
X85384500Y-109792900I150000J0D01*
G01*
G37*
G04 #@! TD.AperFunction*
G04 #@! TA.AperFunction,SMDPad,CuDef*
G36*
G01*
X85384500Y-104842900D02*
X85684500Y-104842900D01*
G75*
G02*
X85834500Y-104992900I0J-150000D01*
G01*
X85834500Y-106642900D01*
G75*
G02*
X85684500Y-106792900I-150000J0D01*
G01*
X85384500Y-106792900D01*
G75*
G02*
X85234500Y-106642900I0J150000D01*
G01*
X85234500Y-104992900D01*
G75*
G02*
X85384500Y-104842900I150000J0D01*
G01*
G37*
G04 #@! TD.AperFunction*
G04 #@! TA.AperFunction,SMDPad,CuDef*
G36*
G01*
X86654500Y-104842900D02*
X86954500Y-104842900D01*
G75*
G02*
X87104500Y-104992900I0J-150000D01*
G01*
X87104500Y-106642900D01*
G75*
G02*
X86954500Y-106792900I-150000J0D01*
G01*
X86654500Y-106792900D01*
G75*
G02*
X86504500Y-106642900I0J150000D01*
G01*
X86504500Y-104992900D01*
G75*
G02*
X86654500Y-104842900I150000J0D01*
G01*
G37*
G04 #@! TD.AperFunction*
G04 #@! TA.AperFunction,SMDPad,CuDef*
G36*
G01*
X87924500Y-104842900D02*
X88224500Y-104842900D01*
G75*
G02*
X88374500Y-104992900I0J-150000D01*
G01*
X88374500Y-106642900D01*
G75*
G02*
X88224500Y-106792900I-150000J0D01*
G01*
X87924500Y-106792900D01*
G75*
G02*
X87774500Y-106642900I0J150000D01*
G01*
X87774500Y-104992900D01*
G75*
G02*
X87924500Y-104842900I150000J0D01*
G01*
G37*
G04 #@! TD.AperFunction*
G04 #@! TA.AperFunction,SMDPad,CuDef*
G36*
G01*
X89194500Y-104842900D02*
X89494500Y-104842900D01*
G75*
G02*
X89644500Y-104992900I0J-150000D01*
G01*
X89644500Y-106642900D01*
G75*
G02*
X89494500Y-106792900I-150000J0D01*
G01*
X89194500Y-106792900D01*
G75*
G02*
X89044500Y-106642900I0J150000D01*
G01*
X89044500Y-104992900D01*
G75*
G02*
X89194500Y-104842900I150000J0D01*
G01*
G37*
G04 #@! TD.AperFunction*
G04 #@! TA.AperFunction,SMDPad,CuDef*
G36*
G01*
X90464500Y-104842900D02*
X90764500Y-104842900D01*
G75*
G02*
X90914500Y-104992900I0J-150000D01*
G01*
X90914500Y-106642900D01*
G75*
G02*
X90764500Y-106792900I-150000J0D01*
G01*
X90464500Y-106792900D01*
G75*
G02*
X90314500Y-106642900I0J150000D01*
G01*
X90314500Y-104992900D01*
G75*
G02*
X90464500Y-104842900I150000J0D01*
G01*
G37*
G04 #@! TD.AperFunction*
G04 #@! TA.AperFunction,SMDPad,CuDef*
G36*
G01*
X91734500Y-104842900D02*
X92034500Y-104842900D01*
G75*
G02*
X92184500Y-104992900I0J-150000D01*
G01*
X92184500Y-106642900D01*
G75*
G02*
X92034500Y-106792900I-150000J0D01*
G01*
X91734500Y-106792900D01*
G75*
G02*
X91584500Y-106642900I0J150000D01*
G01*
X91584500Y-104992900D01*
G75*
G02*
X91734500Y-104842900I150000J0D01*
G01*
G37*
G04 #@! TD.AperFunction*
G04 #@! TA.AperFunction,SMDPad,CuDef*
G36*
G01*
X93004500Y-104842900D02*
X93304500Y-104842900D01*
G75*
G02*
X93454500Y-104992900I0J-150000D01*
G01*
X93454500Y-106642900D01*
G75*
G02*
X93304500Y-106792900I-150000J0D01*
G01*
X93004500Y-106792900D01*
G75*
G02*
X92854500Y-106642900I0J150000D01*
G01*
X92854500Y-104992900D01*
G75*
G02*
X93004500Y-104842900I150000J0D01*
G01*
G37*
G04 #@! TD.AperFunction*
D10*
X90360500Y-184099200D03*
D11*
X87820500Y-184099200D03*
G04 #@! TA.AperFunction,SMDPad,CuDef*
G36*
G01*
X94554100Y-100980900D02*
X94244100Y-100980900D01*
G75*
G02*
X94089100Y-100825900I0J155000D01*
G01*
X94089100Y-100400900D01*
G75*
G02*
X94244100Y-100245900I155000J0D01*
G01*
X94554100Y-100245900D01*
G75*
G02*
X94709100Y-100400900I0J-155000D01*
G01*
X94709100Y-100825900D01*
G75*
G02*
X94554100Y-100980900I-155000J0D01*
G01*
G37*
G04 #@! TD.AperFunction*
G04 #@! TA.AperFunction,SMDPad,CuDef*
G36*
G01*
X94554100Y-102115900D02*
X94244100Y-102115900D01*
G75*
G02*
X94089100Y-101960900I0J155000D01*
G01*
X94089100Y-101535900D01*
G75*
G02*
X94244100Y-101380900I155000J0D01*
G01*
X94554100Y-101380900D01*
G75*
G02*
X94709100Y-101535900I0J-155000D01*
G01*
X94709100Y-101960900D01*
G75*
G02*
X94554100Y-102115900I-155000J0D01*
G01*
G37*
G04 #@! TD.AperFunction*
G04 #@! TA.AperFunction,SMDPad,CuDef*
G36*
G01*
X89392100Y-161724400D02*
X89392100Y-161414400D01*
G75*
G02*
X89547100Y-161259400I155000J0D01*
G01*
X89972100Y-161259400D01*
G75*
G02*
X90127100Y-161414400I0J-155000D01*
G01*
X90127100Y-161724400D01*
G75*
G02*
X89972100Y-161879400I-155000J0D01*
G01*
X89547100Y-161879400D01*
G75*
G02*
X89392100Y-161724400I0J155000D01*
G01*
G37*
G04 #@! TD.AperFunction*
G04 #@! TA.AperFunction,SMDPad,CuDef*
G36*
G01*
X88257100Y-161724400D02*
X88257100Y-161414400D01*
G75*
G02*
X88412100Y-161259400I155000J0D01*
G01*
X88837100Y-161259400D01*
G75*
G02*
X88992100Y-161414400I0J-155000D01*
G01*
X88992100Y-161724400D01*
G75*
G02*
X88837100Y-161879400I-155000J0D01*
G01*
X88412100Y-161879400D01*
G75*
G02*
X88257100Y-161724400I0J155000D01*
G01*
G37*
G04 #@! TD.AperFunction*
G04 #@! TA.AperFunction,SMDPad,CuDef*
G36*
G01*
X89557800Y-116544700D02*
X89867800Y-116544700D01*
G75*
G02*
X90022800Y-116699700I0J-155000D01*
G01*
X90022800Y-117124700D01*
G75*
G02*
X89867800Y-117279700I-155000J0D01*
G01*
X89557800Y-117279700D01*
G75*
G02*
X89402800Y-117124700I0J155000D01*
G01*
X89402800Y-116699700D01*
G75*
G02*
X89557800Y-116544700I155000J0D01*
G01*
G37*
G04 #@! TD.AperFunction*
G04 #@! TA.AperFunction,SMDPad,CuDef*
G36*
G01*
X89557800Y-115409700D02*
X89867800Y-115409700D01*
G75*
G02*
X90022800Y-115564700I0J-155000D01*
G01*
X90022800Y-115989700D01*
G75*
G02*
X89867800Y-116144700I-155000J0D01*
G01*
X89557800Y-116144700D01*
G75*
G02*
X89402800Y-115989700I0J155000D01*
G01*
X89402800Y-115564700D01*
G75*
G02*
X89557800Y-115409700I155000J0D01*
G01*
G37*
G04 #@! TD.AperFunction*
G04 #@! TA.AperFunction,SMDPad,CuDef*
G36*
G01*
X92478800Y-115409700D02*
X92788800Y-115409700D01*
G75*
G02*
X92943800Y-115564700I0J-155000D01*
G01*
X92943800Y-115989700D01*
G75*
G02*
X92788800Y-116144700I-155000J0D01*
G01*
X92478800Y-116144700D01*
G75*
G02*
X92323800Y-115989700I0J155000D01*
G01*
X92323800Y-115564700D01*
G75*
G02*
X92478800Y-115409700I155000J0D01*
G01*
G37*
G04 #@! TD.AperFunction*
G04 #@! TA.AperFunction,SMDPad,CuDef*
G36*
G01*
X92478800Y-116544700D02*
X92788800Y-116544700D01*
G75*
G02*
X92943800Y-116699700I0J-155000D01*
G01*
X92943800Y-117124700D01*
G75*
G02*
X92788800Y-117279700I-155000J0D01*
G01*
X92478800Y-117279700D01*
G75*
G02*
X92323800Y-117124700I0J155000D01*
G01*
X92323800Y-116699700D01*
G75*
G02*
X92478800Y-116544700I155000J0D01*
G01*
G37*
G04 #@! TD.AperFunction*
G04 #@! TA.AperFunction,SMDPad,CuDef*
G36*
G01*
X94693800Y-125737900D02*
X94383800Y-125737900D01*
G75*
G02*
X94228800Y-125582900I0J155000D01*
G01*
X94228800Y-125157900D01*
G75*
G02*
X94383800Y-125002900I155000J0D01*
G01*
X94693800Y-125002900D01*
G75*
G02*
X94848800Y-125157900I0J-155000D01*
G01*
X94848800Y-125582900D01*
G75*
G02*
X94693800Y-125737900I-155000J0D01*
G01*
G37*
G04 #@! TD.AperFunction*
G04 #@! TA.AperFunction,SMDPad,CuDef*
G36*
G01*
X94693800Y-124602900D02*
X94383800Y-124602900D01*
G75*
G02*
X94228800Y-124447900I0J155000D01*
G01*
X94228800Y-124022900D01*
G75*
G02*
X94383800Y-123867900I155000J0D01*
G01*
X94693800Y-123867900D01*
G75*
G02*
X94848800Y-124022900I0J-155000D01*
G01*
X94848800Y-124447900D01*
G75*
G02*
X94693800Y-124602900I-155000J0D01*
G01*
G37*
G04 #@! TD.AperFunction*
G04 #@! TA.AperFunction,SMDPad,CuDef*
G36*
G01*
X90756800Y-125585500D02*
X90446800Y-125585500D01*
G75*
G02*
X90291800Y-125430500I0J155000D01*
G01*
X90291800Y-125005500D01*
G75*
G02*
X90446800Y-124850500I155000J0D01*
G01*
X90756800Y-124850500D01*
G75*
G02*
X90911800Y-125005500I0J-155000D01*
G01*
X90911800Y-125430500D01*
G75*
G02*
X90756800Y-125585500I-155000J0D01*
G01*
G37*
G04 #@! TD.AperFunction*
G04 #@! TA.AperFunction,SMDPad,CuDef*
G36*
G01*
X90756800Y-124450500D02*
X90446800Y-124450500D01*
G75*
G02*
X90291800Y-124295500I0J155000D01*
G01*
X90291800Y-123870500D01*
G75*
G02*
X90446800Y-123715500I155000J0D01*
G01*
X90756800Y-123715500D01*
G75*
G02*
X90911800Y-123870500I0J-155000D01*
G01*
X90911800Y-124295500D01*
G75*
G02*
X90756800Y-124450500I-155000J0D01*
G01*
G37*
G04 #@! TD.AperFunction*
G04 #@! TA.AperFunction,SMDPad,CuDef*
G36*
G01*
X90192800Y-139760300D02*
X90502800Y-139760300D01*
G75*
G02*
X90657800Y-139915300I0J-155000D01*
G01*
X90657800Y-140340300D01*
G75*
G02*
X90502800Y-140495300I-155000J0D01*
G01*
X90192800Y-140495300D01*
G75*
G02*
X90037800Y-140340300I0J155000D01*
G01*
X90037800Y-139915300D01*
G75*
G02*
X90192800Y-139760300I155000J0D01*
G01*
G37*
G04 #@! TD.AperFunction*
G04 #@! TA.AperFunction,SMDPad,CuDef*
G36*
G01*
X90192800Y-138625300D02*
X90502800Y-138625300D01*
G75*
G02*
X90657800Y-138780300I0J-155000D01*
G01*
X90657800Y-139205300D01*
G75*
G02*
X90502800Y-139360300I-155000J0D01*
G01*
X90192800Y-139360300D01*
G75*
G02*
X90037800Y-139205300I0J155000D01*
G01*
X90037800Y-138780300D01*
G75*
G02*
X90192800Y-138625300I155000J0D01*
G01*
G37*
G04 #@! TD.AperFunction*
G04 #@! TA.AperFunction,SMDPad,CuDef*
G36*
G01*
X89354000Y-172748000D02*
X89354000Y-172438000D01*
G75*
G02*
X89509000Y-172283000I155000J0D01*
G01*
X89934000Y-172283000D01*
G75*
G02*
X90089000Y-172438000I0J-155000D01*
G01*
X90089000Y-172748000D01*
G75*
G02*
X89934000Y-172903000I-155000J0D01*
G01*
X89509000Y-172903000D01*
G75*
G02*
X89354000Y-172748000I0J155000D01*
G01*
G37*
G04 #@! TD.AperFunction*
G04 #@! TA.AperFunction,SMDPad,CuDef*
G36*
G01*
X88219000Y-172748000D02*
X88219000Y-172438000D01*
G75*
G02*
X88374000Y-172283000I155000J0D01*
G01*
X88799000Y-172283000D01*
G75*
G02*
X88954000Y-172438000I0J-155000D01*
G01*
X88954000Y-172748000D01*
G75*
G02*
X88799000Y-172903000I-155000J0D01*
G01*
X88374000Y-172903000D01*
G75*
G02*
X88219000Y-172748000I0J155000D01*
G01*
G37*
G04 #@! TD.AperFunction*
G04 #@! TA.AperFunction,SMDPad,CuDef*
G36*
G01*
X93088400Y-138625300D02*
X93398400Y-138625300D01*
G75*
G02*
X93553400Y-138780300I0J-155000D01*
G01*
X93553400Y-139205300D01*
G75*
G02*
X93398400Y-139360300I-155000J0D01*
G01*
X93088400Y-139360300D01*
G75*
G02*
X92933400Y-139205300I0J155000D01*
G01*
X92933400Y-138780300D01*
G75*
G02*
X93088400Y-138625300I155000J0D01*
G01*
G37*
G04 #@! TD.AperFunction*
G04 #@! TA.AperFunction,SMDPad,CuDef*
G36*
G01*
X93088400Y-139760300D02*
X93398400Y-139760300D01*
G75*
G02*
X93553400Y-139915300I0J-155000D01*
G01*
X93553400Y-140340300D01*
G75*
G02*
X93398400Y-140495300I-155000J0D01*
G01*
X93088400Y-140495300D01*
G75*
G02*
X92933400Y-140340300I0J155000D01*
G01*
X92933400Y-139915300D01*
G75*
G02*
X93088400Y-139760300I155000J0D01*
G01*
G37*
G04 #@! TD.AperFunction*
G04 #@! TA.AperFunction,SMDPad,CuDef*
G36*
G01*
X85798600Y-116557400D02*
X86108600Y-116557400D01*
G75*
G02*
X86263600Y-116712400I0J-155000D01*
G01*
X86263600Y-117137400D01*
G75*
G02*
X86108600Y-117292400I-155000J0D01*
G01*
X85798600Y-117292400D01*
G75*
G02*
X85643600Y-117137400I0J155000D01*
G01*
X85643600Y-116712400D01*
G75*
G02*
X85798600Y-116557400I155000J0D01*
G01*
G37*
G04 #@! TD.AperFunction*
G04 #@! TA.AperFunction,SMDPad,CuDef*
G36*
G01*
X85798600Y-115422400D02*
X86108600Y-115422400D01*
G75*
G02*
X86263600Y-115577400I0J-155000D01*
G01*
X86263600Y-116002400D01*
G75*
G02*
X86108600Y-116157400I-155000J0D01*
G01*
X85798600Y-116157400D01*
G75*
G02*
X85643600Y-116002400I0J155000D01*
G01*
X85643600Y-115577400D01*
G75*
G02*
X85798600Y-115422400I155000J0D01*
G01*
G37*
G04 #@! TD.AperFunction*
G04 #@! TA.AperFunction,SMDPad,CuDef*
G36*
G01*
X88422200Y-53647400D02*
X88422200Y-53337400D01*
G75*
G02*
X88577200Y-53182400I155000J0D01*
G01*
X89002200Y-53182400D01*
G75*
G02*
X89157200Y-53337400I0J-155000D01*
G01*
X89157200Y-53647400D01*
G75*
G02*
X89002200Y-53802400I-155000J0D01*
G01*
X88577200Y-53802400D01*
G75*
G02*
X88422200Y-53647400I0J155000D01*
G01*
G37*
G04 #@! TD.AperFunction*
G04 #@! TA.AperFunction,SMDPad,CuDef*
G36*
G01*
X89557200Y-53647400D02*
X89557200Y-53337400D01*
G75*
G02*
X89712200Y-53182400I155000J0D01*
G01*
X90137200Y-53182400D01*
G75*
G02*
X90292200Y-53337400I0J-155000D01*
G01*
X90292200Y-53647400D01*
G75*
G02*
X90137200Y-53802400I-155000J0D01*
G01*
X89712200Y-53802400D01*
G75*
G02*
X89557200Y-53647400I0J155000D01*
G01*
G37*
G04 #@! TD.AperFunction*
G04 #@! TA.AperFunction,SMDPad,CuDef*
G36*
G01*
X90642500Y-101912700D02*
X90332500Y-101912700D01*
G75*
G02*
X90177500Y-101757700I0J155000D01*
G01*
X90177500Y-101332700D01*
G75*
G02*
X90332500Y-101177700I155000J0D01*
G01*
X90642500Y-101177700D01*
G75*
G02*
X90797500Y-101332700I0J-155000D01*
G01*
X90797500Y-101757700D01*
G75*
G02*
X90642500Y-101912700I-155000J0D01*
G01*
G37*
G04 #@! TD.AperFunction*
G04 #@! TA.AperFunction,SMDPad,CuDef*
G36*
G01*
X90642500Y-100777700D02*
X90332500Y-100777700D01*
G75*
G02*
X90177500Y-100622700I0J155000D01*
G01*
X90177500Y-100197700D01*
G75*
G02*
X90332500Y-100042700I155000J0D01*
G01*
X90642500Y-100042700D01*
G75*
G02*
X90797500Y-100197700I0J-155000D01*
G01*
X90797500Y-100622700D01*
G75*
G02*
X90642500Y-100777700I-155000J0D01*
G01*
G37*
G04 #@! TD.AperFunction*
G04 #@! TA.AperFunction,SMDPad,CuDef*
G36*
G01*
X95506600Y-107635700D02*
X95196600Y-107635700D01*
G75*
G02*
X95041600Y-107480700I0J155000D01*
G01*
X95041600Y-107055700D01*
G75*
G02*
X95196600Y-106900700I155000J0D01*
G01*
X95506600Y-106900700D01*
G75*
G02*
X95661600Y-107055700I0J-155000D01*
G01*
X95661600Y-107480700D01*
G75*
G02*
X95506600Y-107635700I-155000J0D01*
G01*
G37*
G04 #@! TD.AperFunction*
G04 #@! TA.AperFunction,SMDPad,CuDef*
G36*
G01*
X95506600Y-108770700D02*
X95196600Y-108770700D01*
G75*
G02*
X95041600Y-108615700I0J155000D01*
G01*
X95041600Y-108190700D01*
G75*
G02*
X95196600Y-108035700I155000J0D01*
G01*
X95506600Y-108035700D01*
G75*
G02*
X95661600Y-108190700I0J-155000D01*
G01*
X95661600Y-108615700D01*
G75*
G02*
X95506600Y-108770700I-155000J0D01*
G01*
G37*
G04 #@! TD.AperFunction*
G04 #@! TA.AperFunction,SMDPad,CuDef*
G36*
G01*
X96135800Y-136921300D02*
X96135800Y-136611300D01*
G75*
G02*
X96290800Y-136456300I155000J0D01*
G01*
X96715800Y-136456300D01*
G75*
G02*
X96870800Y-136611300I0J-155000D01*
G01*
X96870800Y-136921300D01*
G75*
G02*
X96715800Y-137076300I-155000J0D01*
G01*
X96290800Y-137076300D01*
G75*
G02*
X96135800Y-136921300I0J155000D01*
G01*
G37*
G04 #@! TD.AperFunction*
G04 #@! TA.AperFunction,SMDPad,CuDef*
G36*
G01*
X95000800Y-136921300D02*
X95000800Y-136611300D01*
G75*
G02*
X95155800Y-136456300I155000J0D01*
G01*
X95580800Y-136456300D01*
G75*
G02*
X95735800Y-136611300I0J-155000D01*
G01*
X95735800Y-136921300D01*
G75*
G02*
X95580800Y-137076300I-155000J0D01*
G01*
X95155800Y-137076300D01*
G75*
G02*
X95000800Y-136921300I0J155000D01*
G01*
G37*
G04 #@! TD.AperFunction*
D10*
X72720200Y-162267900D03*
D11*
X70180200Y-162267900D03*
X72720200Y-164807900D03*
X70180200Y-164807900D03*
X72720200Y-167347900D03*
X70180200Y-167347900D03*
X72720200Y-169887900D03*
X70180200Y-169887900D03*
X72720200Y-172427900D03*
X70180200Y-172427900D03*
X72720200Y-174967900D03*
X70180200Y-174967900D03*
X72720200Y-177507900D03*
X70180200Y-177507900D03*
X113804700Y-111937800D03*
X111264700Y-111937800D03*
D10*
X108724700Y-111937800D03*
X114096800Y-120116600D03*
D11*
X111556800Y-120116600D03*
X109016800Y-120116600D03*
D12*
X64366400Y-100777000D03*
X64366400Y-96327000D03*
D13*
X61366400Y-102727000D03*
X61366400Y-94377000D03*
D10*
X72593200Y-49237900D03*
D11*
X70053200Y-49237900D03*
X72593200Y-51777900D03*
X70053200Y-51777900D03*
X72593200Y-54317900D03*
X70053200Y-54317900D03*
X72593200Y-56857900D03*
X70053200Y-56857900D03*
D10*
X142036800Y-142151100D03*
D11*
X144576800Y-142151100D03*
D10*
X72567800Y-140296900D03*
D11*
X70027800Y-140296900D03*
X72567800Y-142836900D03*
X70027800Y-142836900D03*
X72567800Y-145376900D03*
X70027800Y-145376900D03*
X72567800Y-147916900D03*
X70027800Y-147916900D03*
X72567800Y-150456900D03*
X70027800Y-150456900D03*
X72567800Y-152996900D03*
X70027800Y-152996900D03*
D10*
X180543200Y-142925800D03*
D11*
X183083200Y-142925800D03*
X183172100Y-147243800D03*
D10*
X180632100Y-147243800D03*
G04 #@! TA.AperFunction,SMDPad,CuDef*
G36*
G01*
X77612200Y-110660200D02*
X77612200Y-110980200D01*
G75*
G02*
X77452200Y-111140200I-160000J0D01*
G01*
X77057200Y-111140200D01*
G75*
G02*
X76897200Y-110980200I0J160000D01*
G01*
X76897200Y-110660200D01*
G75*
G02*
X77057200Y-110500200I160000J0D01*
G01*
X77452200Y-110500200D01*
G75*
G02*
X77612200Y-110660200I0J-160000D01*
G01*
G37*
G04 #@! TD.AperFunction*
G04 #@! TA.AperFunction,SMDPad,CuDef*
G36*
G01*
X76417200Y-110660200D02*
X76417200Y-110980200D01*
G75*
G02*
X76257200Y-111140200I-160000J0D01*
G01*
X75862200Y-111140200D01*
G75*
G02*
X75702200Y-110980200I0J160000D01*
G01*
X75702200Y-110660200D01*
G75*
G02*
X75862200Y-110500200I160000J0D01*
G01*
X76257200Y-110500200D01*
G75*
G02*
X76417200Y-110660200I0J-160000D01*
G01*
G37*
G04 #@! TD.AperFunction*
G04 #@! TA.AperFunction,SMDPad,CuDef*
G36*
G01*
X76417200Y-113225600D02*
X76417200Y-113545600D01*
G75*
G02*
X76257200Y-113705600I-160000J0D01*
G01*
X75862200Y-113705600D01*
G75*
G02*
X75702200Y-113545600I0J160000D01*
G01*
X75702200Y-113225600D01*
G75*
G02*
X75862200Y-113065600I160000J0D01*
G01*
X76257200Y-113065600D01*
G75*
G02*
X76417200Y-113225600I0J-160000D01*
G01*
G37*
G04 #@! TD.AperFunction*
G04 #@! TA.AperFunction,SMDPad,CuDef*
G36*
G01*
X77612200Y-113225600D02*
X77612200Y-113545600D01*
G75*
G02*
X77452200Y-113705600I-160000J0D01*
G01*
X77057200Y-113705600D01*
G75*
G02*
X76897200Y-113545600I0J160000D01*
G01*
X76897200Y-113225600D01*
G75*
G02*
X77057200Y-113065600I160000J0D01*
G01*
X77452200Y-113065600D01*
G75*
G02*
X77612200Y-113225600I0J-160000D01*
G01*
G37*
G04 #@! TD.AperFunction*
G04 #@! TA.AperFunction,SMDPad,CuDef*
G36*
G01*
X77596960Y-118303060D02*
X77596960Y-118623060D01*
G75*
G02*
X77436960Y-118783060I-160000J0D01*
G01*
X77041960Y-118783060D01*
G75*
G02*
X76881960Y-118623060I0J160000D01*
G01*
X76881960Y-118303060D01*
G75*
G02*
X77041960Y-118143060I160000J0D01*
G01*
X77436960Y-118143060D01*
G75*
G02*
X77596960Y-118303060I0J-160000D01*
G01*
G37*
G04 #@! TD.AperFunction*
G04 #@! TA.AperFunction,SMDPad,CuDef*
G36*
G01*
X76401960Y-118303060D02*
X76401960Y-118623060D01*
G75*
G02*
X76241960Y-118783060I-160000J0D01*
G01*
X75846960Y-118783060D01*
G75*
G02*
X75686960Y-118623060I0J160000D01*
G01*
X75686960Y-118303060D01*
G75*
G02*
X75846960Y-118143060I160000J0D01*
G01*
X76241960Y-118143060D01*
G75*
G02*
X76401960Y-118303060I0J-160000D01*
G01*
G37*
G04 #@! TD.AperFunction*
G04 #@! TA.AperFunction,SMDPad,CuDef*
G36*
G01*
X76401960Y-120843060D02*
X76401960Y-121163060D01*
G75*
G02*
X76241960Y-121323060I-160000J0D01*
G01*
X75846960Y-121323060D01*
G75*
G02*
X75686960Y-121163060I0J160000D01*
G01*
X75686960Y-120843060D01*
G75*
G02*
X75846960Y-120683060I160000J0D01*
G01*
X76241960Y-120683060D01*
G75*
G02*
X76401960Y-120843060I0J-160000D01*
G01*
G37*
G04 #@! TD.AperFunction*
G04 #@! TA.AperFunction,SMDPad,CuDef*
G36*
G01*
X77596960Y-120843060D02*
X77596960Y-121163060D01*
G75*
G02*
X77436960Y-121323060I-160000J0D01*
G01*
X77041960Y-121323060D01*
G75*
G02*
X76881960Y-121163060I0J160000D01*
G01*
X76881960Y-120843060D01*
G75*
G02*
X77041960Y-120683060I160000J0D01*
G01*
X77436960Y-120683060D01*
G75*
G02*
X77596960Y-120843060I0J-160000D01*
G01*
G37*
G04 #@! TD.AperFunction*
G04 #@! TA.AperFunction,SMDPad,CuDef*
G36*
G01*
X91892100Y-102059700D02*
X91572100Y-102059700D01*
G75*
G02*
X91412100Y-101899700I0J160000D01*
G01*
X91412100Y-101504700D01*
G75*
G02*
X91572100Y-101344700I160000J0D01*
G01*
X91892100Y-101344700D01*
G75*
G02*
X92052100Y-101504700I0J-160000D01*
G01*
X92052100Y-101899700D01*
G75*
G02*
X91892100Y-102059700I-160000J0D01*
G01*
G37*
G04 #@! TD.AperFunction*
G04 #@! TA.AperFunction,SMDPad,CuDef*
G36*
G01*
X91892100Y-100864700D02*
X91572100Y-100864700D01*
G75*
G02*
X91412100Y-100704700I0J160000D01*
G01*
X91412100Y-100309700D01*
G75*
G02*
X91572100Y-100149700I160000J0D01*
G01*
X91892100Y-100149700D01*
G75*
G02*
X92052100Y-100309700I0J-160000D01*
G01*
X92052100Y-100704700D01*
G75*
G02*
X91892100Y-100864700I-160000J0D01*
G01*
G37*
G04 #@! TD.AperFunction*
G04 #@! TA.AperFunction,SMDPad,CuDef*
G36*
G01*
X88056700Y-100737700D02*
X87736700Y-100737700D01*
G75*
G02*
X87576700Y-100577700I0J160000D01*
G01*
X87576700Y-100182700D01*
G75*
G02*
X87736700Y-100022700I160000J0D01*
G01*
X88056700Y-100022700D01*
G75*
G02*
X88216700Y-100182700I0J-160000D01*
G01*
X88216700Y-100577700D01*
G75*
G02*
X88056700Y-100737700I-160000J0D01*
G01*
G37*
G04 #@! TD.AperFunction*
G04 #@! TA.AperFunction,SMDPad,CuDef*
G36*
G01*
X88056700Y-101932700D02*
X87736700Y-101932700D01*
G75*
G02*
X87576700Y-101772700I0J160000D01*
G01*
X87576700Y-101377700D01*
G75*
G02*
X87736700Y-101217700I160000J0D01*
G01*
X88056700Y-101217700D01*
G75*
G02*
X88216700Y-101377700I0J-160000D01*
G01*
X88216700Y-101772700D01*
G75*
G02*
X88056700Y-101932700I-160000J0D01*
G01*
G37*
G04 #@! TD.AperFunction*
G04 #@! TA.AperFunction,SMDPad,CuDef*
G36*
G01*
X87012800Y-115389700D02*
X87332800Y-115389700D01*
G75*
G02*
X87492800Y-115549700I0J-160000D01*
G01*
X87492800Y-115944700D01*
G75*
G02*
X87332800Y-116104700I-160000J0D01*
G01*
X87012800Y-116104700D01*
G75*
G02*
X86852800Y-115944700I0J160000D01*
G01*
X86852800Y-115549700D01*
G75*
G02*
X87012800Y-115389700I160000J0D01*
G01*
G37*
G04 #@! TD.AperFunction*
G04 #@! TA.AperFunction,SMDPad,CuDef*
G36*
G01*
X87012800Y-116584700D02*
X87332800Y-116584700D01*
G75*
G02*
X87492800Y-116744700I0J-160000D01*
G01*
X87492800Y-117139700D01*
G75*
G02*
X87332800Y-117299700I-160000J0D01*
G01*
X87012800Y-117299700D01*
G75*
G02*
X86852800Y-117139700I0J160000D01*
G01*
X86852800Y-116744700D01*
G75*
G02*
X87012800Y-116584700I160000J0D01*
G01*
G37*
G04 #@! TD.AperFunction*
G04 #@! TA.AperFunction,SMDPad,CuDef*
G36*
G01*
X95013800Y-116584700D02*
X95333800Y-116584700D01*
G75*
G02*
X95493800Y-116744700I0J-160000D01*
G01*
X95493800Y-117139700D01*
G75*
G02*
X95333800Y-117299700I-160000J0D01*
G01*
X95013800Y-117299700D01*
G75*
G02*
X94853800Y-117139700I0J160000D01*
G01*
X94853800Y-116744700D01*
G75*
G02*
X95013800Y-116584700I160000J0D01*
G01*
G37*
G04 #@! TD.AperFunction*
G04 #@! TA.AperFunction,SMDPad,CuDef*
G36*
G01*
X95013800Y-115389700D02*
X95333800Y-115389700D01*
G75*
G02*
X95493800Y-115549700I0J-160000D01*
G01*
X95493800Y-115944700D01*
G75*
G02*
X95333800Y-116104700I-160000J0D01*
G01*
X95013800Y-116104700D01*
G75*
G02*
X94853800Y-115944700I0J160000D01*
G01*
X94853800Y-115549700D01*
G75*
G02*
X95013800Y-115389700I160000J0D01*
G01*
G37*
G04 #@! TD.AperFunction*
G04 #@! TA.AperFunction,SMDPad,CuDef*
G36*
G01*
X93162100Y-100864700D02*
X92842100Y-100864700D01*
G75*
G02*
X92682100Y-100704700I0J160000D01*
G01*
X92682100Y-100309700D01*
G75*
G02*
X92842100Y-100149700I160000J0D01*
G01*
X93162100Y-100149700D01*
G75*
G02*
X93322100Y-100309700I0J-160000D01*
G01*
X93322100Y-100704700D01*
G75*
G02*
X93162100Y-100864700I-160000J0D01*
G01*
G37*
G04 #@! TD.AperFunction*
G04 #@! TA.AperFunction,SMDPad,CuDef*
G36*
G01*
X93162100Y-102059700D02*
X92842100Y-102059700D01*
G75*
G02*
X92682100Y-101899700I0J160000D01*
G01*
X92682100Y-101504700D01*
G75*
G02*
X92842100Y-101344700I160000J0D01*
G01*
X93162100Y-101344700D01*
G75*
G02*
X93322100Y-101504700I0J-160000D01*
G01*
X93322100Y-101899700D01*
G75*
G02*
X93162100Y-102059700I-160000J0D01*
G01*
G37*
G04 #@! TD.AperFunction*
G04 #@! TA.AperFunction,SMDPad,CuDef*
G36*
G01*
X89352100Y-101932700D02*
X89032100Y-101932700D01*
G75*
G02*
X88872100Y-101772700I0J160000D01*
G01*
X88872100Y-101377700D01*
G75*
G02*
X89032100Y-101217700I160000J0D01*
G01*
X89352100Y-101217700D01*
G75*
G02*
X89512100Y-101377700I0J-160000D01*
G01*
X89512100Y-101772700D01*
G75*
G02*
X89352100Y-101932700I-160000J0D01*
G01*
G37*
G04 #@! TD.AperFunction*
G04 #@! TA.AperFunction,SMDPad,CuDef*
G36*
G01*
X89352100Y-100737700D02*
X89032100Y-100737700D01*
G75*
G02*
X88872100Y-100577700I0J160000D01*
G01*
X88872100Y-100182700D01*
G75*
G02*
X89032100Y-100022700I160000J0D01*
G01*
X89352100Y-100022700D01*
G75*
G02*
X89512100Y-100182700I0J-160000D01*
G01*
X89512100Y-100577700D01*
G75*
G02*
X89352100Y-100737700I-160000J0D01*
G01*
G37*
G04 #@! TD.AperFunction*
G04 #@! TA.AperFunction,SMDPad,CuDef*
G36*
G01*
X88282800Y-116584700D02*
X88602800Y-116584700D01*
G75*
G02*
X88762800Y-116744700I0J-160000D01*
G01*
X88762800Y-117139700D01*
G75*
G02*
X88602800Y-117299700I-160000J0D01*
G01*
X88282800Y-117299700D01*
G75*
G02*
X88122800Y-117139700I0J160000D01*
G01*
X88122800Y-116744700D01*
G75*
G02*
X88282800Y-116584700I160000J0D01*
G01*
G37*
G04 #@! TD.AperFunction*
G04 #@! TA.AperFunction,SMDPad,CuDef*
G36*
G01*
X88282800Y-115389700D02*
X88602800Y-115389700D01*
G75*
G02*
X88762800Y-115549700I0J-160000D01*
G01*
X88762800Y-115944700D01*
G75*
G02*
X88602800Y-116104700I-160000J0D01*
G01*
X88282800Y-116104700D01*
G75*
G02*
X88122800Y-115944700I0J160000D01*
G01*
X88122800Y-115549700D01*
G75*
G02*
X88282800Y-115389700I160000J0D01*
G01*
G37*
G04 #@! TD.AperFunction*
G04 #@! TA.AperFunction,SMDPad,CuDef*
G36*
G01*
X93743800Y-115389700D02*
X94063800Y-115389700D01*
G75*
G02*
X94223800Y-115549700I0J-160000D01*
G01*
X94223800Y-115944700D01*
G75*
G02*
X94063800Y-116104700I-160000J0D01*
G01*
X93743800Y-116104700D01*
G75*
G02*
X93583800Y-115944700I0J160000D01*
G01*
X93583800Y-115549700D01*
G75*
G02*
X93743800Y-115389700I160000J0D01*
G01*
G37*
G04 #@! TD.AperFunction*
G04 #@! TA.AperFunction,SMDPad,CuDef*
G36*
G01*
X93743800Y-116584700D02*
X94063800Y-116584700D01*
G75*
G02*
X94223800Y-116744700I0J-160000D01*
G01*
X94223800Y-117139700D01*
G75*
G02*
X94063800Y-117299700I-160000J0D01*
G01*
X93743800Y-117299700D01*
G75*
G02*
X93583800Y-117139700I0J160000D01*
G01*
X93583800Y-116744700D01*
G75*
G02*
X93743800Y-116584700I160000J0D01*
G01*
G37*
G04 #@! TD.AperFunction*
G04 #@! TA.AperFunction,SMDPad,CuDef*
G36*
G01*
X92809100Y-103169700D02*
X92809100Y-102849700D01*
G75*
G02*
X92969100Y-102689700I160000J0D01*
G01*
X93364100Y-102689700D01*
G75*
G02*
X93524100Y-102849700I0J-160000D01*
G01*
X93524100Y-103169700D01*
G75*
G02*
X93364100Y-103329700I-160000J0D01*
G01*
X92969100Y-103329700D01*
G75*
G02*
X92809100Y-103169700I0J160000D01*
G01*
G37*
G04 #@! TD.AperFunction*
G04 #@! TA.AperFunction,SMDPad,CuDef*
G36*
G01*
X94004100Y-103169700D02*
X94004100Y-102849700D01*
G75*
G02*
X94164100Y-102689700I160000J0D01*
G01*
X94559100Y-102689700D01*
G75*
G02*
X94719100Y-102849700I0J-160000D01*
G01*
X94719100Y-103169700D01*
G75*
G02*
X94559100Y-103329700I-160000J0D01*
G01*
X94164100Y-103329700D01*
G75*
G02*
X94004100Y-103169700I0J160000D01*
G01*
G37*
G04 #@! TD.AperFunction*
G04 #@! TA.AperFunction,SMDPad,CuDef*
G36*
G01*
X90067100Y-103169700D02*
X90067100Y-102849700D01*
G75*
G02*
X90227100Y-102689700I160000J0D01*
G01*
X90622100Y-102689700D01*
G75*
G02*
X90782100Y-102849700I0J-160000D01*
G01*
X90782100Y-103169700D01*
G75*
G02*
X90622100Y-103329700I-160000J0D01*
G01*
X90227100Y-103329700D01*
G75*
G02*
X90067100Y-103169700I0J160000D01*
G01*
G37*
G04 #@! TD.AperFunction*
G04 #@! TA.AperFunction,SMDPad,CuDef*
G36*
G01*
X88872100Y-103169700D02*
X88872100Y-102849700D01*
G75*
G02*
X89032100Y-102689700I160000J0D01*
G01*
X89427100Y-102689700D01*
G75*
G02*
X89587100Y-102849700I0J-160000D01*
G01*
X89587100Y-103169700D01*
G75*
G02*
X89427100Y-103329700I-160000J0D01*
G01*
X89032100Y-103329700D01*
G75*
G02*
X88872100Y-103169700I0J160000D01*
G01*
G37*
G04 #@! TD.AperFunction*
G04 #@! TA.AperFunction,SMDPad,CuDef*
G36*
G01*
X88122800Y-114320300D02*
X88122800Y-114000300D01*
G75*
G02*
X88282800Y-113840300I160000J0D01*
G01*
X88677800Y-113840300D01*
G75*
G02*
X88837800Y-114000300I0J-160000D01*
G01*
X88837800Y-114320300D01*
G75*
G02*
X88677800Y-114480300I-160000J0D01*
G01*
X88282800Y-114480300D01*
G75*
G02*
X88122800Y-114320300I0J160000D01*
G01*
G37*
G04 #@! TD.AperFunction*
G04 #@! TA.AperFunction,SMDPad,CuDef*
G36*
G01*
X89317800Y-114320300D02*
X89317800Y-114000300D01*
G75*
G02*
X89477800Y-113840300I160000J0D01*
G01*
X89872800Y-113840300D01*
G75*
G02*
X90032800Y-114000300I0J-160000D01*
G01*
X90032800Y-114320300D01*
G75*
G02*
X89872800Y-114480300I-160000J0D01*
G01*
X89477800Y-114480300D01*
G75*
G02*
X89317800Y-114320300I0J160000D01*
G01*
G37*
G04 #@! TD.AperFunction*
G04 #@! TA.AperFunction,SMDPad,CuDef*
G36*
G01*
X92264200Y-114320300D02*
X92264200Y-114000300D01*
G75*
G02*
X92424200Y-113840300I160000J0D01*
G01*
X92819200Y-113840300D01*
G75*
G02*
X92979200Y-114000300I0J-160000D01*
G01*
X92979200Y-114320300D01*
G75*
G02*
X92819200Y-114480300I-160000J0D01*
G01*
X92424200Y-114480300D01*
G75*
G02*
X92264200Y-114320300I0J160000D01*
G01*
G37*
G04 #@! TD.AperFunction*
G04 #@! TA.AperFunction,SMDPad,CuDef*
G36*
G01*
X91069200Y-114320300D02*
X91069200Y-114000300D01*
G75*
G02*
X91229200Y-113840300I160000J0D01*
G01*
X91624200Y-113840300D01*
G75*
G02*
X91784200Y-114000300I0J-160000D01*
G01*
X91784200Y-114320300D01*
G75*
G02*
X91624200Y-114480300I-160000J0D01*
G01*
X91229200Y-114480300D01*
G75*
G02*
X91069200Y-114320300I0J160000D01*
G01*
G37*
G04 #@! TD.AperFunction*
G04 #@! TA.AperFunction,SMDPad,CuDef*
G36*
G01*
X76401960Y-123383060D02*
X76401960Y-123703060D01*
G75*
G02*
X76241960Y-123863060I-160000J0D01*
G01*
X75846960Y-123863060D01*
G75*
G02*
X75686960Y-123703060I0J160000D01*
G01*
X75686960Y-123383060D01*
G75*
G02*
X75846960Y-123223060I160000J0D01*
G01*
X76241960Y-123223060D01*
G75*
G02*
X76401960Y-123383060I0J-160000D01*
G01*
G37*
G04 #@! TD.AperFunction*
G04 #@! TA.AperFunction,SMDPad,CuDef*
G36*
G01*
X77596960Y-123383060D02*
X77596960Y-123703060D01*
G75*
G02*
X77436960Y-123863060I-160000J0D01*
G01*
X77041960Y-123863060D01*
G75*
G02*
X76881960Y-123703060I0J160000D01*
G01*
X76881960Y-123383060D01*
G75*
G02*
X77041960Y-123223060I160000J0D01*
G01*
X77436960Y-123223060D01*
G75*
G02*
X77596960Y-123383060I0J-160000D01*
G01*
G37*
G04 #@! TD.AperFunction*
G04 #@! TA.AperFunction,SMDPad,CuDef*
G36*
G01*
X76401960Y-125923060D02*
X76401960Y-126243060D01*
G75*
G02*
X76241960Y-126403060I-160000J0D01*
G01*
X75846960Y-126403060D01*
G75*
G02*
X75686960Y-126243060I0J160000D01*
G01*
X75686960Y-125923060D01*
G75*
G02*
X75846960Y-125763060I160000J0D01*
G01*
X76241960Y-125763060D01*
G75*
G02*
X76401960Y-125923060I0J-160000D01*
G01*
G37*
G04 #@! TD.AperFunction*
G04 #@! TA.AperFunction,SMDPad,CuDef*
G36*
G01*
X77596960Y-125923060D02*
X77596960Y-126243060D01*
G75*
G02*
X77436960Y-126403060I-160000J0D01*
G01*
X77041960Y-126403060D01*
G75*
G02*
X76881960Y-126243060I0J160000D01*
G01*
X76881960Y-125923060D01*
G75*
G02*
X77041960Y-125763060I160000J0D01*
G01*
X77436960Y-125763060D01*
G75*
G02*
X77596960Y-125923060I0J-160000D01*
G01*
G37*
G04 #@! TD.AperFunction*
G04 #@! TA.AperFunction,SMDPad,CuDef*
G36*
G01*
X77596960Y-128511320D02*
X77596960Y-128831320D01*
G75*
G02*
X77436960Y-128991320I-160000J0D01*
G01*
X77041960Y-128991320D01*
G75*
G02*
X76881960Y-128831320I0J160000D01*
G01*
X76881960Y-128511320D01*
G75*
G02*
X77041960Y-128351320I160000J0D01*
G01*
X77436960Y-128351320D01*
G75*
G02*
X77596960Y-128511320I0J-160000D01*
G01*
G37*
G04 #@! TD.AperFunction*
G04 #@! TA.AperFunction,SMDPad,CuDef*
G36*
G01*
X76401960Y-128511320D02*
X76401960Y-128831320D01*
G75*
G02*
X76241960Y-128991320I-160000J0D01*
G01*
X75846960Y-128991320D01*
G75*
G02*
X75686960Y-128831320I0J160000D01*
G01*
X75686960Y-128511320D01*
G75*
G02*
X75846960Y-128351320I160000J0D01*
G01*
X76241960Y-128351320D01*
G75*
G02*
X76401960Y-128511320I0J-160000D01*
G01*
G37*
G04 #@! TD.AperFunction*
G04 #@! TA.AperFunction,SMDPad,CuDef*
G36*
G01*
X77596960Y-131036080D02*
X77596960Y-131356080D01*
G75*
G02*
X77436960Y-131516080I-160000J0D01*
G01*
X77041960Y-131516080D01*
G75*
G02*
X76881960Y-131356080I0J160000D01*
G01*
X76881960Y-131036080D01*
G75*
G02*
X77041960Y-130876080I160000J0D01*
G01*
X77436960Y-130876080D01*
G75*
G02*
X77596960Y-131036080I0J-160000D01*
G01*
G37*
G04 #@! TD.AperFunction*
G04 #@! TA.AperFunction,SMDPad,CuDef*
G36*
G01*
X76401960Y-131036080D02*
X76401960Y-131356080D01*
G75*
G02*
X76241960Y-131516080I-160000J0D01*
G01*
X75846960Y-131516080D01*
G75*
G02*
X75686960Y-131356080I0J160000D01*
G01*
X75686960Y-131036080D01*
G75*
G02*
X75846960Y-130876080I160000J0D01*
G01*
X76241960Y-130876080D01*
G75*
G02*
X76401960Y-131036080I0J-160000D01*
G01*
G37*
G04 #@! TD.AperFunction*
G04 #@! TA.AperFunction,SMDPad,CuDef*
G36*
G01*
X92031800Y-125681700D02*
X91711800Y-125681700D01*
G75*
G02*
X91551800Y-125521700I0J160000D01*
G01*
X91551800Y-125126700D01*
G75*
G02*
X91711800Y-124966700I160000J0D01*
G01*
X92031800Y-124966700D01*
G75*
G02*
X92191800Y-125126700I0J-160000D01*
G01*
X92191800Y-125521700D01*
G75*
G02*
X92031800Y-125681700I-160000J0D01*
G01*
G37*
G04 #@! TD.AperFunction*
G04 #@! TA.AperFunction,SMDPad,CuDef*
G36*
G01*
X92031800Y-124486700D02*
X91711800Y-124486700D01*
G75*
G02*
X91551800Y-124326700I0J160000D01*
G01*
X91551800Y-123931700D01*
G75*
G02*
X91711800Y-123771700I160000J0D01*
G01*
X92031800Y-123771700D01*
G75*
G02*
X92191800Y-123931700I0J-160000D01*
G01*
X92191800Y-124326700D01*
G75*
G02*
X92031800Y-124486700I-160000J0D01*
G01*
G37*
G04 #@! TD.AperFunction*
G04 #@! TA.AperFunction,SMDPad,CuDef*
G36*
G01*
X88221800Y-125554700D02*
X87901800Y-125554700D01*
G75*
G02*
X87741800Y-125394700I0J160000D01*
G01*
X87741800Y-124999700D01*
G75*
G02*
X87901800Y-124839700I160000J0D01*
G01*
X88221800Y-124839700D01*
G75*
G02*
X88381800Y-124999700I0J-160000D01*
G01*
X88381800Y-125394700D01*
G75*
G02*
X88221800Y-125554700I-160000J0D01*
G01*
G37*
G04 #@! TD.AperFunction*
G04 #@! TA.AperFunction,SMDPad,CuDef*
G36*
G01*
X88221800Y-124359700D02*
X87901800Y-124359700D01*
G75*
G02*
X87741800Y-124199700I0J160000D01*
G01*
X87741800Y-123804700D01*
G75*
G02*
X87901800Y-123644700I160000J0D01*
G01*
X88221800Y-123644700D01*
G75*
G02*
X88381800Y-123804700I0J-160000D01*
G01*
X88381800Y-124199700D01*
G75*
G02*
X88221800Y-124359700I-160000J0D01*
G01*
G37*
G04 #@! TD.AperFunction*
G04 #@! TA.AperFunction,SMDPad,CuDef*
G36*
G01*
X87647800Y-138605300D02*
X87967800Y-138605300D01*
G75*
G02*
X88127800Y-138765300I0J-160000D01*
G01*
X88127800Y-139160300D01*
G75*
G02*
X87967800Y-139320300I-160000J0D01*
G01*
X87647800Y-139320300D01*
G75*
G02*
X87487800Y-139160300I0J160000D01*
G01*
X87487800Y-138765300D01*
G75*
G02*
X87647800Y-138605300I160000J0D01*
G01*
G37*
G04 #@! TD.AperFunction*
G04 #@! TA.AperFunction,SMDPad,CuDef*
G36*
G01*
X87647800Y-139800300D02*
X87967800Y-139800300D01*
G75*
G02*
X88127800Y-139960300I0J-160000D01*
G01*
X88127800Y-140355300D01*
G75*
G02*
X87967800Y-140515300I-160000J0D01*
G01*
X87647800Y-140515300D01*
G75*
G02*
X87487800Y-140355300I0J160000D01*
G01*
X87487800Y-139960300D01*
G75*
G02*
X87647800Y-139800300I160000J0D01*
G01*
G37*
G04 #@! TD.AperFunction*
G04 #@! TA.AperFunction,SMDPad,CuDef*
G36*
G01*
X95623400Y-139800300D02*
X95943400Y-139800300D01*
G75*
G02*
X96103400Y-139960300I0J-160000D01*
G01*
X96103400Y-140355300D01*
G75*
G02*
X95943400Y-140515300I-160000J0D01*
G01*
X95623400Y-140515300D01*
G75*
G02*
X95463400Y-140355300I0J160000D01*
G01*
X95463400Y-139960300D01*
G75*
G02*
X95623400Y-139800300I160000J0D01*
G01*
G37*
G04 #@! TD.AperFunction*
G04 #@! TA.AperFunction,SMDPad,CuDef*
G36*
G01*
X95623400Y-138605300D02*
X95943400Y-138605300D01*
G75*
G02*
X96103400Y-138765300I0J-160000D01*
G01*
X96103400Y-139160300D01*
G75*
G02*
X95943400Y-139320300I-160000J0D01*
G01*
X95623400Y-139320300D01*
G75*
G02*
X95463400Y-139160300I0J160000D01*
G01*
X95463400Y-138765300D01*
G75*
G02*
X95623400Y-138605300I160000J0D01*
G01*
G37*
G04 #@! TD.AperFunction*
G04 #@! TA.AperFunction,SMDPad,CuDef*
G36*
G01*
X93301800Y-124537500D02*
X92981800Y-124537500D01*
G75*
G02*
X92821800Y-124377500I0J160000D01*
G01*
X92821800Y-123982500D01*
G75*
G02*
X92981800Y-123822500I160000J0D01*
G01*
X93301800Y-123822500D01*
G75*
G02*
X93461800Y-123982500I0J-160000D01*
G01*
X93461800Y-124377500D01*
G75*
G02*
X93301800Y-124537500I-160000J0D01*
G01*
G37*
G04 #@! TD.AperFunction*
G04 #@! TA.AperFunction,SMDPad,CuDef*
G36*
G01*
X93301800Y-125732500D02*
X92981800Y-125732500D01*
G75*
G02*
X92821800Y-125572500I0J160000D01*
G01*
X92821800Y-125177500D01*
G75*
G02*
X92981800Y-125017500I160000J0D01*
G01*
X93301800Y-125017500D01*
G75*
G02*
X93461800Y-125177500I0J-160000D01*
G01*
X93461800Y-125572500D01*
G75*
G02*
X93301800Y-125732500I-160000J0D01*
G01*
G37*
G04 #@! TD.AperFunction*
G04 #@! TA.AperFunction,SMDPad,CuDef*
G36*
G01*
X89491800Y-124359700D02*
X89171800Y-124359700D01*
G75*
G02*
X89011800Y-124199700I0J160000D01*
G01*
X89011800Y-123804700D01*
G75*
G02*
X89171800Y-123644700I160000J0D01*
G01*
X89491800Y-123644700D01*
G75*
G02*
X89651800Y-123804700I0J-160000D01*
G01*
X89651800Y-124199700D01*
G75*
G02*
X89491800Y-124359700I-160000J0D01*
G01*
G37*
G04 #@! TD.AperFunction*
G04 #@! TA.AperFunction,SMDPad,CuDef*
G36*
G01*
X89491800Y-125554700D02*
X89171800Y-125554700D01*
G75*
G02*
X89011800Y-125394700I0J160000D01*
G01*
X89011800Y-124999700D01*
G75*
G02*
X89171800Y-124839700I160000J0D01*
G01*
X89491800Y-124839700D01*
G75*
G02*
X89651800Y-124999700I0J-160000D01*
G01*
X89651800Y-125394700D01*
G75*
G02*
X89491800Y-125554700I-160000J0D01*
G01*
G37*
G04 #@! TD.AperFunction*
G04 #@! TA.AperFunction,SMDPad,CuDef*
G36*
G01*
X88917800Y-138605300D02*
X89237800Y-138605300D01*
G75*
G02*
X89397800Y-138765300I0J-160000D01*
G01*
X89397800Y-139160300D01*
G75*
G02*
X89237800Y-139320300I-160000J0D01*
G01*
X88917800Y-139320300D01*
G75*
G02*
X88757800Y-139160300I0J160000D01*
G01*
X88757800Y-138765300D01*
G75*
G02*
X88917800Y-138605300I160000J0D01*
G01*
G37*
G04 #@! TD.AperFunction*
G04 #@! TA.AperFunction,SMDPad,CuDef*
G36*
G01*
X88917800Y-139800300D02*
X89237800Y-139800300D01*
G75*
G02*
X89397800Y-139960300I0J-160000D01*
G01*
X89397800Y-140355300D01*
G75*
G02*
X89237800Y-140515300I-160000J0D01*
G01*
X88917800Y-140515300D01*
G75*
G02*
X88757800Y-140355300I0J160000D01*
G01*
X88757800Y-139960300D01*
G75*
G02*
X88917800Y-139800300I160000J0D01*
G01*
G37*
G04 #@! TD.AperFunction*
G04 #@! TA.AperFunction,SMDPad,CuDef*
G36*
G01*
X94353400Y-139800300D02*
X94673400Y-139800300D01*
G75*
G02*
X94833400Y-139960300I0J-160000D01*
G01*
X94833400Y-140355300D01*
G75*
G02*
X94673400Y-140515300I-160000J0D01*
G01*
X94353400Y-140515300D01*
G75*
G02*
X94193400Y-140355300I0J160000D01*
G01*
X94193400Y-139960300D01*
G75*
G02*
X94353400Y-139800300I160000J0D01*
G01*
G37*
G04 #@! TD.AperFunction*
G04 #@! TA.AperFunction,SMDPad,CuDef*
G36*
G01*
X94353400Y-138605300D02*
X94673400Y-138605300D01*
G75*
G02*
X94833400Y-138765300I0J-160000D01*
G01*
X94833400Y-139160300D01*
G75*
G02*
X94673400Y-139320300I-160000J0D01*
G01*
X94353400Y-139320300D01*
G75*
G02*
X94193400Y-139160300I0J160000D01*
G01*
X94193400Y-138765300D01*
G75*
G02*
X94353400Y-138605300I160000J0D01*
G01*
G37*
G04 #@! TD.AperFunction*
G04 #@! TA.AperFunction,SMDPad,CuDef*
G36*
G01*
X92948800Y-126791700D02*
X92948800Y-126471700D01*
G75*
G02*
X93108800Y-126311700I160000J0D01*
G01*
X93503800Y-126311700D01*
G75*
G02*
X93663800Y-126471700I0J-160000D01*
G01*
X93663800Y-126791700D01*
G75*
G02*
X93503800Y-126951700I-160000J0D01*
G01*
X93108800Y-126951700D01*
G75*
G02*
X92948800Y-126791700I0J160000D01*
G01*
G37*
G04 #@! TD.AperFunction*
G04 #@! TA.AperFunction,SMDPad,CuDef*
G36*
G01*
X94143800Y-126791700D02*
X94143800Y-126471700D01*
G75*
G02*
X94303800Y-126311700I160000J0D01*
G01*
X94698800Y-126311700D01*
G75*
G02*
X94858800Y-126471700I0J-160000D01*
G01*
X94858800Y-126791700D01*
G75*
G02*
X94698800Y-126951700I-160000J0D01*
G01*
X94303800Y-126951700D01*
G75*
G02*
X94143800Y-126791700I0J160000D01*
G01*
G37*
G04 #@! TD.AperFunction*
G04 #@! TA.AperFunction,SMDPad,CuDef*
G36*
G01*
X90206800Y-126791700D02*
X90206800Y-126471700D01*
G75*
G02*
X90366800Y-126311700I160000J0D01*
G01*
X90761800Y-126311700D01*
G75*
G02*
X90921800Y-126471700I0J-160000D01*
G01*
X90921800Y-126791700D01*
G75*
G02*
X90761800Y-126951700I-160000J0D01*
G01*
X90366800Y-126951700D01*
G75*
G02*
X90206800Y-126791700I0J160000D01*
G01*
G37*
G04 #@! TD.AperFunction*
G04 #@! TA.AperFunction,SMDPad,CuDef*
G36*
G01*
X89011800Y-126791700D02*
X89011800Y-126471700D01*
G75*
G02*
X89171800Y-126311700I160000J0D01*
G01*
X89566800Y-126311700D01*
G75*
G02*
X89726800Y-126471700I0J-160000D01*
G01*
X89726800Y-126791700D01*
G75*
G02*
X89566800Y-126951700I-160000J0D01*
G01*
X89171800Y-126951700D01*
G75*
G02*
X89011800Y-126791700I0J160000D01*
G01*
G37*
G04 #@! TD.AperFunction*
G04 #@! TA.AperFunction,SMDPad,CuDef*
G36*
G01*
X88757800Y-137561300D02*
X88757800Y-137241300D01*
G75*
G02*
X88917800Y-137081300I160000J0D01*
G01*
X89312800Y-137081300D01*
G75*
G02*
X89472800Y-137241300I0J-160000D01*
G01*
X89472800Y-137561300D01*
G75*
G02*
X89312800Y-137721300I-160000J0D01*
G01*
X88917800Y-137721300D01*
G75*
G02*
X88757800Y-137561300I0J160000D01*
G01*
G37*
G04 #@! TD.AperFunction*
G04 #@! TA.AperFunction,SMDPad,CuDef*
G36*
G01*
X89952800Y-137561300D02*
X89952800Y-137241300D01*
G75*
G02*
X90112800Y-137081300I160000J0D01*
G01*
X90507800Y-137081300D01*
G75*
G02*
X90667800Y-137241300I0J-160000D01*
G01*
X90667800Y-137561300D01*
G75*
G02*
X90507800Y-137721300I-160000J0D01*
G01*
X90112800Y-137721300D01*
G75*
G02*
X89952800Y-137561300I0J160000D01*
G01*
G37*
G04 #@! TD.AperFunction*
G04 #@! TA.AperFunction,SMDPad,CuDef*
G36*
G01*
X91678800Y-137510500D02*
X91678800Y-137190500D01*
G75*
G02*
X91838800Y-137030500I160000J0D01*
G01*
X92233800Y-137030500D01*
G75*
G02*
X92393800Y-137190500I0J-160000D01*
G01*
X92393800Y-137510500D01*
G75*
G02*
X92233800Y-137670500I-160000J0D01*
G01*
X91838800Y-137670500D01*
G75*
G02*
X91678800Y-137510500I0J160000D01*
G01*
G37*
G04 #@! TD.AperFunction*
G04 #@! TA.AperFunction,SMDPad,CuDef*
G36*
G01*
X92873800Y-137510500D02*
X92873800Y-137190500D01*
G75*
G02*
X93033800Y-137030500I160000J0D01*
G01*
X93428800Y-137030500D01*
G75*
G02*
X93588800Y-137190500I0J-160000D01*
G01*
X93588800Y-137510500D01*
G75*
G02*
X93428800Y-137670500I-160000J0D01*
G01*
X93033800Y-137670500D01*
G75*
G02*
X92873800Y-137510500I0J160000D01*
G01*
G37*
G04 #@! TD.AperFunction*
G04 #@! TA.AperFunction,SMDPad,CuDef*
G36*
G01*
X83253600Y-116597400D02*
X83573600Y-116597400D01*
G75*
G02*
X83733600Y-116757400I0J-160000D01*
G01*
X83733600Y-117152400D01*
G75*
G02*
X83573600Y-117312400I-160000J0D01*
G01*
X83253600Y-117312400D01*
G75*
G02*
X83093600Y-117152400I0J160000D01*
G01*
X83093600Y-116757400D01*
G75*
G02*
X83253600Y-116597400I160000J0D01*
G01*
G37*
G04 #@! TD.AperFunction*
G04 #@! TA.AperFunction,SMDPad,CuDef*
G36*
G01*
X83253600Y-115402400D02*
X83573600Y-115402400D01*
G75*
G02*
X83733600Y-115562400I0J-160000D01*
G01*
X83733600Y-115957400D01*
G75*
G02*
X83573600Y-116117400I-160000J0D01*
G01*
X83253600Y-116117400D01*
G75*
G02*
X83093600Y-115957400I0J160000D01*
G01*
X83093600Y-115562400D01*
G75*
G02*
X83253600Y-115402400I160000J0D01*
G01*
G37*
G04 #@! TD.AperFunction*
G04 #@! TA.AperFunction,SMDPad,CuDef*
G36*
G01*
X84536300Y-115402400D02*
X84856300Y-115402400D01*
G75*
G02*
X85016300Y-115562400I0J-160000D01*
G01*
X85016300Y-115957400D01*
G75*
G02*
X84856300Y-116117400I-160000J0D01*
G01*
X84536300Y-116117400D01*
G75*
G02*
X84376300Y-115957400I0J160000D01*
G01*
X84376300Y-115562400D01*
G75*
G02*
X84536300Y-115402400I160000J0D01*
G01*
G37*
G04 #@! TD.AperFunction*
G04 #@! TA.AperFunction,SMDPad,CuDef*
G36*
G01*
X84536300Y-116597400D02*
X84856300Y-116597400D01*
G75*
G02*
X85016300Y-116757400I0J-160000D01*
G01*
X85016300Y-117152400D01*
G75*
G02*
X84856300Y-117312400I-160000J0D01*
G01*
X84536300Y-117312400D01*
G75*
G02*
X84376300Y-117152400I0J160000D01*
G01*
X84376300Y-116757400D01*
G75*
G02*
X84536300Y-116597400I160000J0D01*
G01*
G37*
G04 #@! TD.AperFunction*
G04 #@! TA.AperFunction,SMDPad,CuDef*
G36*
G01*
X84947800Y-114320300D02*
X84947800Y-114000300D01*
G75*
G02*
X85107800Y-113840300I160000J0D01*
G01*
X85502800Y-113840300D01*
G75*
G02*
X85662800Y-114000300I0J-160000D01*
G01*
X85662800Y-114320300D01*
G75*
G02*
X85502800Y-114480300I-160000J0D01*
G01*
X85107800Y-114480300D01*
G75*
G02*
X84947800Y-114320300I0J160000D01*
G01*
G37*
G04 #@! TD.AperFunction*
G04 #@! TA.AperFunction,SMDPad,CuDef*
G36*
G01*
X86142800Y-114320300D02*
X86142800Y-114000300D01*
G75*
G02*
X86302800Y-113840300I160000J0D01*
G01*
X86697800Y-113840300D01*
G75*
G02*
X86857800Y-114000300I0J-160000D01*
G01*
X86857800Y-114320300D01*
G75*
G02*
X86697800Y-114480300I-160000J0D01*
G01*
X86302800Y-114480300D01*
G75*
G02*
X86142800Y-114320300I0J160000D01*
G01*
G37*
G04 #@! TD.AperFunction*
G04 #@! TA.AperFunction,SMDPad,CuDef*
G36*
G01*
X139247900Y-114284800D02*
X139567900Y-114284800D01*
G75*
G02*
X139727900Y-114444800I0J-160000D01*
G01*
X139727900Y-114839800D01*
G75*
G02*
X139567900Y-114999800I-160000J0D01*
G01*
X139247900Y-114999800D01*
G75*
G02*
X139087900Y-114839800I0J160000D01*
G01*
X139087900Y-114444800D01*
G75*
G02*
X139247900Y-114284800I160000J0D01*
G01*
G37*
G04 #@! TD.AperFunction*
G04 #@! TA.AperFunction,SMDPad,CuDef*
G36*
G01*
X139247900Y-115479800D02*
X139567900Y-115479800D01*
G75*
G02*
X139727900Y-115639800I0J-160000D01*
G01*
X139727900Y-116034800D01*
G75*
G02*
X139567900Y-116194800I-160000J0D01*
G01*
X139247900Y-116194800D01*
G75*
G02*
X139087900Y-116034800I0J160000D01*
G01*
X139087900Y-115639800D01*
G75*
G02*
X139247900Y-115479800I160000J0D01*
G01*
G37*
G04 #@! TD.AperFunction*
G04 #@! TA.AperFunction,SMDPad,CuDef*
G36*
G01*
X138310600Y-114999800D02*
X137990600Y-114999800D01*
G75*
G02*
X137830600Y-114839800I0J160000D01*
G01*
X137830600Y-114444800D01*
G75*
G02*
X137990600Y-114284800I160000J0D01*
G01*
X138310600Y-114284800D01*
G75*
G02*
X138470600Y-114444800I0J-160000D01*
G01*
X138470600Y-114839800D01*
G75*
G02*
X138310600Y-114999800I-160000J0D01*
G01*
G37*
G04 #@! TD.AperFunction*
G04 #@! TA.AperFunction,SMDPad,CuDef*
G36*
G01*
X138310600Y-116194800D02*
X137990600Y-116194800D01*
G75*
G02*
X137830600Y-116034800I0J160000D01*
G01*
X137830600Y-115639800D01*
G75*
G02*
X137990600Y-115479800I160000J0D01*
G01*
X138310600Y-115479800D01*
G75*
G02*
X138470600Y-115639800I0J-160000D01*
G01*
X138470600Y-116034800D01*
G75*
G02*
X138310600Y-116194800I-160000J0D01*
G01*
G37*
G04 #@! TD.AperFunction*
G04 #@! TA.AperFunction,SMDPad,CuDef*
G36*
G01*
X143244600Y-125150900D02*
X143244600Y-125470900D01*
G75*
G02*
X143084600Y-125630900I-160000J0D01*
G01*
X142689600Y-125630900D01*
G75*
G02*
X142529600Y-125470900I0J160000D01*
G01*
X142529600Y-125150900D01*
G75*
G02*
X142689600Y-124990900I160000J0D01*
G01*
X143084600Y-124990900D01*
G75*
G02*
X143244600Y-125150900I0J-160000D01*
G01*
G37*
G04 #@! TD.AperFunction*
G04 #@! TA.AperFunction,SMDPad,CuDef*
G36*
G01*
X144439600Y-125150900D02*
X144439600Y-125470900D01*
G75*
G02*
X144279600Y-125630900I-160000J0D01*
G01*
X143884600Y-125630900D01*
G75*
G02*
X143724600Y-125470900I0J160000D01*
G01*
X143724600Y-125150900D01*
G75*
G02*
X143884600Y-124990900I160000J0D01*
G01*
X144279600Y-124990900D01*
G75*
G02*
X144439600Y-125150900I0J-160000D01*
G01*
G37*
G04 #@! TD.AperFunction*
G04 #@! TA.AperFunction,SMDPad,CuDef*
G36*
G01*
X143800800Y-121864100D02*
X143800800Y-121544100D01*
G75*
G02*
X143960800Y-121384100I160000J0D01*
G01*
X144355800Y-121384100D01*
G75*
G02*
X144515800Y-121544100I0J-160000D01*
G01*
X144515800Y-121864100D01*
G75*
G02*
X144355800Y-122024100I-160000J0D01*
G01*
X143960800Y-122024100D01*
G75*
G02*
X143800800Y-121864100I0J160000D01*
G01*
G37*
G04 #@! TD.AperFunction*
G04 #@! TA.AperFunction,SMDPad,CuDef*
G36*
G01*
X142605800Y-121864100D02*
X142605800Y-121544100D01*
G75*
G02*
X142765800Y-121384100I160000J0D01*
G01*
X143160800Y-121384100D01*
G75*
G02*
X143320800Y-121544100I0J-160000D01*
G01*
X143320800Y-121864100D01*
G75*
G02*
X143160800Y-122024100I-160000J0D01*
G01*
X142765800Y-122024100D01*
G75*
G02*
X142605800Y-121864100I0J160000D01*
G01*
G37*
G04 #@! TD.AperFunction*
D14*
X93726000Y-177393600D03*
X83159600Y-56603900D03*
X93675200Y-166725600D03*
G04 #@! TA.AperFunction,SMDPad,CuDef*
G36*
G01*
X93626800Y-128490300D02*
X93926800Y-128490300D01*
G75*
G02*
X94076800Y-128640300I0J-150000D01*
G01*
X94076800Y-130290300D01*
G75*
G02*
X93926800Y-130440300I-150000J0D01*
G01*
X93626800Y-130440300D01*
G75*
G02*
X93476800Y-130290300I0J150000D01*
G01*
X93476800Y-128640300D01*
G75*
G02*
X93626800Y-128490300I150000J0D01*
G01*
G37*
G04 #@! TD.AperFunction*
G04 #@! TA.AperFunction,SMDPad,CuDef*
G36*
G01*
X92356800Y-128490300D02*
X92656800Y-128490300D01*
G75*
G02*
X92806800Y-128640300I0J-150000D01*
G01*
X92806800Y-130290300D01*
G75*
G02*
X92656800Y-130440300I-150000J0D01*
G01*
X92356800Y-130440300D01*
G75*
G02*
X92206800Y-130290300I0J150000D01*
G01*
X92206800Y-128640300D01*
G75*
G02*
X92356800Y-128490300I150000J0D01*
G01*
G37*
G04 #@! TD.AperFunction*
G04 #@! TA.AperFunction,SMDPad,CuDef*
G36*
G01*
X91086800Y-128490300D02*
X91386800Y-128490300D01*
G75*
G02*
X91536800Y-128640300I0J-150000D01*
G01*
X91536800Y-130290300D01*
G75*
G02*
X91386800Y-130440300I-150000J0D01*
G01*
X91086800Y-130440300D01*
G75*
G02*
X90936800Y-130290300I0J150000D01*
G01*
X90936800Y-128640300D01*
G75*
G02*
X91086800Y-128490300I150000J0D01*
G01*
G37*
G04 #@! TD.AperFunction*
G04 #@! TA.AperFunction,SMDPad,CuDef*
G36*
G01*
X89816800Y-128490300D02*
X90116800Y-128490300D01*
G75*
G02*
X90266800Y-128640300I0J-150000D01*
G01*
X90266800Y-130290300D01*
G75*
G02*
X90116800Y-130440300I-150000J0D01*
G01*
X89816800Y-130440300D01*
G75*
G02*
X89666800Y-130290300I0J150000D01*
G01*
X89666800Y-128640300D01*
G75*
G02*
X89816800Y-128490300I150000J0D01*
G01*
G37*
G04 #@! TD.AperFunction*
G04 #@! TA.AperFunction,SMDPad,CuDef*
G36*
G01*
X88546800Y-128490300D02*
X88846800Y-128490300D01*
G75*
G02*
X88996800Y-128640300I0J-150000D01*
G01*
X88996800Y-130290300D01*
G75*
G02*
X88846800Y-130440300I-150000J0D01*
G01*
X88546800Y-130440300D01*
G75*
G02*
X88396800Y-130290300I0J150000D01*
G01*
X88396800Y-128640300D01*
G75*
G02*
X88546800Y-128490300I150000J0D01*
G01*
G37*
G04 #@! TD.AperFunction*
G04 #@! TA.AperFunction,SMDPad,CuDef*
G36*
G01*
X87276800Y-128490300D02*
X87576800Y-128490300D01*
G75*
G02*
X87726800Y-128640300I0J-150000D01*
G01*
X87726800Y-130290300D01*
G75*
G02*
X87576800Y-130440300I-150000J0D01*
G01*
X87276800Y-130440300D01*
G75*
G02*
X87126800Y-130290300I0J150000D01*
G01*
X87126800Y-128640300D01*
G75*
G02*
X87276800Y-128490300I150000J0D01*
G01*
G37*
G04 #@! TD.AperFunction*
G04 #@! TA.AperFunction,SMDPad,CuDef*
G36*
G01*
X86006800Y-128490300D02*
X86306800Y-128490300D01*
G75*
G02*
X86456800Y-128640300I0J-150000D01*
G01*
X86456800Y-130290300D01*
G75*
G02*
X86306800Y-130440300I-150000J0D01*
G01*
X86006800Y-130440300D01*
G75*
G02*
X85856800Y-130290300I0J150000D01*
G01*
X85856800Y-128640300D01*
G75*
G02*
X86006800Y-128490300I150000J0D01*
G01*
G37*
G04 #@! TD.AperFunction*
G04 #@! TA.AperFunction,SMDPad,CuDef*
G36*
G01*
X86006800Y-133440300D02*
X86306800Y-133440300D01*
G75*
G02*
X86456800Y-133590300I0J-150000D01*
G01*
X86456800Y-135240300D01*
G75*
G02*
X86306800Y-135390300I-150000J0D01*
G01*
X86006800Y-135390300D01*
G75*
G02*
X85856800Y-135240300I0J150000D01*
G01*
X85856800Y-133590300D01*
G75*
G02*
X86006800Y-133440300I150000J0D01*
G01*
G37*
G04 #@! TD.AperFunction*
G04 #@! TA.AperFunction,SMDPad,CuDef*
G36*
G01*
X87276800Y-133440300D02*
X87576800Y-133440300D01*
G75*
G02*
X87726800Y-133590300I0J-150000D01*
G01*
X87726800Y-135240300D01*
G75*
G02*
X87576800Y-135390300I-150000J0D01*
G01*
X87276800Y-135390300D01*
G75*
G02*
X87126800Y-135240300I0J150000D01*
G01*
X87126800Y-133590300D01*
G75*
G02*
X87276800Y-133440300I150000J0D01*
G01*
G37*
G04 #@! TD.AperFunction*
G04 #@! TA.AperFunction,SMDPad,CuDef*
G36*
G01*
X88546800Y-133440300D02*
X88846800Y-133440300D01*
G75*
G02*
X88996800Y-133590300I0J-150000D01*
G01*
X88996800Y-135240300D01*
G75*
G02*
X88846800Y-135390300I-150000J0D01*
G01*
X88546800Y-135390300D01*
G75*
G02*
X88396800Y-135240300I0J150000D01*
G01*
X88396800Y-133590300D01*
G75*
G02*
X88546800Y-133440300I150000J0D01*
G01*
G37*
G04 #@! TD.AperFunction*
G04 #@! TA.AperFunction,SMDPad,CuDef*
G36*
G01*
X89816800Y-133440300D02*
X90116800Y-133440300D01*
G75*
G02*
X90266800Y-133590300I0J-150000D01*
G01*
X90266800Y-135240300D01*
G75*
G02*
X90116800Y-135390300I-150000J0D01*
G01*
X89816800Y-135390300D01*
G75*
G02*
X89666800Y-135240300I0J150000D01*
G01*
X89666800Y-133590300D01*
G75*
G02*
X89816800Y-133440300I150000J0D01*
G01*
G37*
G04 #@! TD.AperFunction*
G04 #@! TA.AperFunction,SMDPad,CuDef*
G36*
G01*
X91086800Y-133440300D02*
X91386800Y-133440300D01*
G75*
G02*
X91536800Y-133590300I0J-150000D01*
G01*
X91536800Y-135240300D01*
G75*
G02*
X91386800Y-135390300I-150000J0D01*
G01*
X91086800Y-135390300D01*
G75*
G02*
X90936800Y-135240300I0J150000D01*
G01*
X90936800Y-133590300D01*
G75*
G02*
X91086800Y-133440300I150000J0D01*
G01*
G37*
G04 #@! TD.AperFunction*
G04 #@! TA.AperFunction,SMDPad,CuDef*
G36*
G01*
X92356800Y-133440300D02*
X92656800Y-133440300D01*
G75*
G02*
X92806800Y-133590300I0J-150000D01*
G01*
X92806800Y-135240300D01*
G75*
G02*
X92656800Y-135390300I-150000J0D01*
G01*
X92356800Y-135390300D01*
G75*
G02*
X92206800Y-135240300I0J150000D01*
G01*
X92206800Y-133590300D01*
G75*
G02*
X92356800Y-133440300I150000J0D01*
G01*
G37*
G04 #@! TD.AperFunction*
G04 #@! TA.AperFunction,SMDPad,CuDef*
G36*
G01*
X93626800Y-133440300D02*
X93926800Y-133440300D01*
G75*
G02*
X94076800Y-133590300I0J-150000D01*
G01*
X94076800Y-135240300D01*
G75*
G02*
X93926800Y-135390300I-150000J0D01*
G01*
X93626800Y-135390300D01*
G75*
G02*
X93476800Y-135240300I0J150000D01*
G01*
X93476800Y-133590300D01*
G75*
G02*
X93626800Y-133440300I150000J0D01*
G01*
G37*
G04 #@! TD.AperFunction*
D10*
X72618600Y-108292900D03*
D11*
X70078600Y-108292900D03*
X72618600Y-110832900D03*
X70078600Y-110832900D03*
X72618600Y-113372900D03*
X70078600Y-113372900D03*
X72618600Y-115912900D03*
X70078600Y-115912900D03*
X72618600Y-118452900D03*
X70078600Y-118452900D03*
X72618600Y-120992900D03*
X70078600Y-120992900D03*
X72618600Y-123532900D03*
X70078600Y-123532900D03*
X72618600Y-126072900D03*
X70078600Y-126072900D03*
X72618600Y-128612900D03*
X70078600Y-128612900D03*
X72618600Y-131152900D03*
X70078600Y-131152900D03*
X72618600Y-133692900D03*
X70078600Y-133692900D03*
D15*
X235795190Y-192096910D03*
X234204200Y-191437900D03*
X232613210Y-192096910D03*
X231954200Y-193687900D03*
X232613210Y-195278890D03*
X234204200Y-195937900D03*
X235795190Y-195278890D03*
X236454200Y-193687900D03*
D16*
X234204200Y-193687900D03*
X149154200Y-193687900D03*
D15*
X151404200Y-193687900D03*
X150745190Y-195278890D03*
X149154200Y-195937900D03*
X147563210Y-195278890D03*
X146904200Y-193687900D03*
X147563210Y-192096910D03*
X149154200Y-191437900D03*
X150745190Y-192096910D03*
D16*
X64104200Y-193687900D03*
D15*
X66354200Y-193687900D03*
X65695190Y-195278890D03*
X64104200Y-195937900D03*
X62513210Y-195278890D03*
X61854200Y-193687900D03*
X62513210Y-192096910D03*
X64104200Y-191437900D03*
X65695190Y-192096910D03*
X235795190Y-64016910D03*
X234204200Y-63357900D03*
X232613210Y-64016910D03*
X231954200Y-65607900D03*
X232613210Y-67198890D03*
X234204200Y-67857900D03*
X235795190Y-67198890D03*
X236454200Y-65607900D03*
D16*
X234204200Y-65607900D03*
X149154200Y-65607900D03*
D15*
X151404200Y-65607900D03*
X150745190Y-67198890D03*
X149154200Y-67857900D03*
X147563210Y-67198890D03*
X146904200Y-65607900D03*
X147563210Y-64016910D03*
X149154200Y-63357900D03*
X150745190Y-64016910D03*
D16*
X71043800Y-66116200D03*
D15*
X73293800Y-66116200D03*
X72634790Y-67707190D03*
X71043800Y-68366200D03*
X69452810Y-67707190D03*
X68793800Y-66116200D03*
X69452810Y-64525210D03*
X71043800Y-63866200D03*
X72634790Y-64525210D03*
G04 #@! TA.AperFunction,SMDPad,CuDef*
G36*
G01*
X86146200Y-168799700D02*
X85996200Y-168799700D01*
G75*
G02*
X85921200Y-168724700I0J75000D01*
G01*
X85921200Y-167424700D01*
G75*
G02*
X85996200Y-167349700I75000J0D01*
G01*
X86146200Y-167349700D01*
G75*
G02*
X86221200Y-167424700I0J-75000D01*
G01*
X86221200Y-168724700D01*
G75*
G02*
X86146200Y-168799700I-75000J0D01*
G01*
G37*
G04 #@! TD.AperFunction*
G04 #@! TA.AperFunction,SMDPad,CuDef*
G36*
G01*
X86646200Y-168799700D02*
X86496200Y-168799700D01*
G75*
G02*
X86421200Y-168724700I0J75000D01*
G01*
X86421200Y-167424700D01*
G75*
G02*
X86496200Y-167349700I75000J0D01*
G01*
X86646200Y-167349700D01*
G75*
G02*
X86721200Y-167424700I0J-75000D01*
G01*
X86721200Y-168724700D01*
G75*
G02*
X86646200Y-168799700I-75000J0D01*
G01*
G37*
G04 #@! TD.AperFunction*
G04 #@! TA.AperFunction,SMDPad,CuDef*
G36*
G01*
X87146200Y-168799700D02*
X86996200Y-168799700D01*
G75*
G02*
X86921200Y-168724700I0J75000D01*
G01*
X86921200Y-167424700D01*
G75*
G02*
X86996200Y-167349700I75000J0D01*
G01*
X87146200Y-167349700D01*
G75*
G02*
X87221200Y-167424700I0J-75000D01*
G01*
X87221200Y-168724700D01*
G75*
G02*
X87146200Y-168799700I-75000J0D01*
G01*
G37*
G04 #@! TD.AperFunction*
G04 #@! TA.AperFunction,SMDPad,CuDef*
G36*
G01*
X87646200Y-168799700D02*
X87496200Y-168799700D01*
G75*
G02*
X87421200Y-168724700I0J75000D01*
G01*
X87421200Y-167424700D01*
G75*
G02*
X87496200Y-167349700I75000J0D01*
G01*
X87646200Y-167349700D01*
G75*
G02*
X87721200Y-167424700I0J-75000D01*
G01*
X87721200Y-168724700D01*
G75*
G02*
X87646200Y-168799700I-75000J0D01*
G01*
G37*
G04 #@! TD.AperFunction*
G04 #@! TA.AperFunction,SMDPad,CuDef*
G36*
G01*
X88146200Y-168799700D02*
X87996200Y-168799700D01*
G75*
G02*
X87921200Y-168724700I0J75000D01*
G01*
X87921200Y-167424700D01*
G75*
G02*
X87996200Y-167349700I75000J0D01*
G01*
X88146200Y-167349700D01*
G75*
G02*
X88221200Y-167424700I0J-75000D01*
G01*
X88221200Y-168724700D01*
G75*
G02*
X88146200Y-168799700I-75000J0D01*
G01*
G37*
G04 #@! TD.AperFunction*
G04 #@! TA.AperFunction,SMDPad,CuDef*
G36*
G01*
X88146200Y-164399700D02*
X87996200Y-164399700D01*
G75*
G02*
X87921200Y-164324700I0J75000D01*
G01*
X87921200Y-163024700D01*
G75*
G02*
X87996200Y-162949700I75000J0D01*
G01*
X88146200Y-162949700D01*
G75*
G02*
X88221200Y-163024700I0J-75000D01*
G01*
X88221200Y-164324700D01*
G75*
G02*
X88146200Y-164399700I-75000J0D01*
G01*
G37*
G04 #@! TD.AperFunction*
G04 #@! TA.AperFunction,SMDPad,CuDef*
G36*
G01*
X87646200Y-164399700D02*
X87496200Y-164399700D01*
G75*
G02*
X87421200Y-164324700I0J75000D01*
G01*
X87421200Y-163024700D01*
G75*
G02*
X87496200Y-162949700I75000J0D01*
G01*
X87646200Y-162949700D01*
G75*
G02*
X87721200Y-163024700I0J-75000D01*
G01*
X87721200Y-164324700D01*
G75*
G02*
X87646200Y-164399700I-75000J0D01*
G01*
G37*
G04 #@! TD.AperFunction*
G04 #@! TA.AperFunction,SMDPad,CuDef*
G36*
G01*
X87146200Y-164399700D02*
X86996200Y-164399700D01*
G75*
G02*
X86921200Y-164324700I0J75000D01*
G01*
X86921200Y-163024700D01*
G75*
G02*
X86996200Y-162949700I75000J0D01*
G01*
X87146200Y-162949700D01*
G75*
G02*
X87221200Y-163024700I0J-75000D01*
G01*
X87221200Y-164324700D01*
G75*
G02*
X87146200Y-164399700I-75000J0D01*
G01*
G37*
G04 #@! TD.AperFunction*
G04 #@! TA.AperFunction,SMDPad,CuDef*
G36*
G01*
X86646200Y-164399700D02*
X86496200Y-164399700D01*
G75*
G02*
X86421200Y-164324700I0J75000D01*
G01*
X86421200Y-163024700D01*
G75*
G02*
X86496200Y-162949700I75000J0D01*
G01*
X86646200Y-162949700D01*
G75*
G02*
X86721200Y-163024700I0J-75000D01*
G01*
X86721200Y-164324700D01*
G75*
G02*
X86646200Y-164399700I-75000J0D01*
G01*
G37*
G04 #@! TD.AperFunction*
G04 #@! TA.AperFunction,SMDPad,CuDef*
G36*
G01*
X86146200Y-164399700D02*
X85996200Y-164399700D01*
G75*
G02*
X85921200Y-164324700I0J75000D01*
G01*
X85921200Y-163024700D01*
G75*
G02*
X85996200Y-162949700I75000J0D01*
G01*
X86146200Y-162949700D01*
G75*
G02*
X86221200Y-163024700I0J-75000D01*
G01*
X86221200Y-164324700D01*
G75*
G02*
X86146200Y-164399700I-75000J0D01*
G01*
G37*
G04 #@! TD.AperFunction*
G04 #@! TA.AperFunction,SMDPad,CuDef*
G36*
G01*
X86321601Y-179455000D02*
X86171601Y-179455000D01*
G75*
G02*
X86096601Y-179380000I0J75000D01*
G01*
X86096601Y-178080000D01*
G75*
G02*
X86171601Y-178005000I75000J0D01*
G01*
X86321601Y-178005000D01*
G75*
G02*
X86396601Y-178080000I0J-75000D01*
G01*
X86396601Y-179380000D01*
G75*
G02*
X86321601Y-179455000I-75000J0D01*
G01*
G37*
G04 #@! TD.AperFunction*
G04 #@! TA.AperFunction,SMDPad,CuDef*
G36*
G01*
X86821601Y-179455000D02*
X86671601Y-179455000D01*
G75*
G02*
X86596601Y-179380000I0J75000D01*
G01*
X86596601Y-178080000D01*
G75*
G02*
X86671601Y-178005000I75000J0D01*
G01*
X86821601Y-178005000D01*
G75*
G02*
X86896601Y-178080000I0J-75000D01*
G01*
X86896601Y-179380000D01*
G75*
G02*
X86821601Y-179455000I-75000J0D01*
G01*
G37*
G04 #@! TD.AperFunction*
G04 #@! TA.AperFunction,SMDPad,CuDef*
G36*
G01*
X87321601Y-179455000D02*
X87171601Y-179455000D01*
G75*
G02*
X87096601Y-179380000I0J75000D01*
G01*
X87096601Y-178080000D01*
G75*
G02*
X87171601Y-178005000I75000J0D01*
G01*
X87321601Y-178005000D01*
G75*
G02*
X87396601Y-178080000I0J-75000D01*
G01*
X87396601Y-179380000D01*
G75*
G02*
X87321601Y-179455000I-75000J0D01*
G01*
G37*
G04 #@! TD.AperFunction*
G04 #@! TA.AperFunction,SMDPad,CuDef*
G36*
G01*
X87821601Y-179455000D02*
X87671601Y-179455000D01*
G75*
G02*
X87596601Y-179380000I0J75000D01*
G01*
X87596601Y-178080000D01*
G75*
G02*
X87671601Y-178005000I75000J0D01*
G01*
X87821601Y-178005000D01*
G75*
G02*
X87896601Y-178080000I0J-75000D01*
G01*
X87896601Y-179380000D01*
G75*
G02*
X87821601Y-179455000I-75000J0D01*
G01*
G37*
G04 #@! TD.AperFunction*
G04 #@! TA.AperFunction,SMDPad,CuDef*
G36*
G01*
X88321601Y-179455000D02*
X88171601Y-179455000D01*
G75*
G02*
X88096601Y-179380000I0J75000D01*
G01*
X88096601Y-178080000D01*
G75*
G02*
X88171601Y-178005000I75000J0D01*
G01*
X88321601Y-178005000D01*
G75*
G02*
X88396601Y-178080000I0J-75000D01*
G01*
X88396601Y-179380000D01*
G75*
G02*
X88321601Y-179455000I-75000J0D01*
G01*
G37*
G04 #@! TD.AperFunction*
G04 #@! TA.AperFunction,SMDPad,CuDef*
G36*
G01*
X88321601Y-175055000D02*
X88171601Y-175055000D01*
G75*
G02*
X88096601Y-174980000I0J75000D01*
G01*
X88096601Y-173680000D01*
G75*
G02*
X88171601Y-173605000I75000J0D01*
G01*
X88321601Y-173605000D01*
G75*
G02*
X88396601Y-173680000I0J-75000D01*
G01*
X88396601Y-174980000D01*
G75*
G02*
X88321601Y-175055000I-75000J0D01*
G01*
G37*
G04 #@! TD.AperFunction*
G04 #@! TA.AperFunction,SMDPad,CuDef*
G36*
G01*
X87821601Y-175055000D02*
X87671601Y-175055000D01*
G75*
G02*
X87596601Y-174980000I0J75000D01*
G01*
X87596601Y-173680000D01*
G75*
G02*
X87671601Y-173605000I75000J0D01*
G01*
X87821601Y-173605000D01*
G75*
G02*
X87896601Y-173680000I0J-75000D01*
G01*
X87896601Y-174980000D01*
G75*
G02*
X87821601Y-175055000I-75000J0D01*
G01*
G37*
G04 #@! TD.AperFunction*
G04 #@! TA.AperFunction,SMDPad,CuDef*
G36*
G01*
X87321601Y-175055000D02*
X87171601Y-175055000D01*
G75*
G02*
X87096601Y-174980000I0J75000D01*
G01*
X87096601Y-173680000D01*
G75*
G02*
X87171601Y-173605000I75000J0D01*
G01*
X87321601Y-173605000D01*
G75*
G02*
X87396601Y-173680000I0J-75000D01*
G01*
X87396601Y-174980000D01*
G75*
G02*
X87321601Y-175055000I-75000J0D01*
G01*
G37*
G04 #@! TD.AperFunction*
G04 #@! TA.AperFunction,SMDPad,CuDef*
G36*
G01*
X86821601Y-175055000D02*
X86671601Y-175055000D01*
G75*
G02*
X86596601Y-174980000I0J75000D01*
G01*
X86596601Y-173680000D01*
G75*
G02*
X86671601Y-173605000I75000J0D01*
G01*
X86821601Y-173605000D01*
G75*
G02*
X86896601Y-173680000I0J-75000D01*
G01*
X86896601Y-174980000D01*
G75*
G02*
X86821601Y-175055000I-75000J0D01*
G01*
G37*
G04 #@! TD.AperFunction*
G04 #@! TA.AperFunction,SMDPad,CuDef*
G36*
G01*
X86321601Y-175055000D02*
X86171601Y-175055000D01*
G75*
G02*
X86096601Y-174980000I0J75000D01*
G01*
X86096601Y-173680000D01*
G75*
G02*
X86171601Y-173605000I75000J0D01*
G01*
X86321601Y-173605000D01*
G75*
G02*
X86396601Y-173680000I0J-75000D01*
G01*
X86396601Y-174980000D01*
G75*
G02*
X86321601Y-175055000I-75000J0D01*
G01*
G37*
G04 #@! TD.AperFunction*
G04 #@! TA.AperFunction,SMDPad,CuDef*
G36*
G01*
X85458001Y-52677800D02*
X85308001Y-52677800D01*
G75*
G02*
X85233001Y-52602800I0J75000D01*
G01*
X85233001Y-51302800D01*
G75*
G02*
X85308001Y-51227800I75000J0D01*
G01*
X85458001Y-51227800D01*
G75*
G02*
X85533001Y-51302800I0J-75000D01*
G01*
X85533001Y-52602800D01*
G75*
G02*
X85458001Y-52677800I-75000J0D01*
G01*
G37*
G04 #@! TD.AperFunction*
G04 #@! TA.AperFunction,SMDPad,CuDef*
G36*
G01*
X85958001Y-52677800D02*
X85808001Y-52677800D01*
G75*
G02*
X85733001Y-52602800I0J75000D01*
G01*
X85733001Y-51302800D01*
G75*
G02*
X85808001Y-51227800I75000J0D01*
G01*
X85958001Y-51227800D01*
G75*
G02*
X86033001Y-51302800I0J-75000D01*
G01*
X86033001Y-52602800D01*
G75*
G02*
X85958001Y-52677800I-75000J0D01*
G01*
G37*
G04 #@! TD.AperFunction*
G04 #@! TA.AperFunction,SMDPad,CuDef*
G36*
G01*
X86458001Y-52677800D02*
X86308001Y-52677800D01*
G75*
G02*
X86233001Y-52602800I0J75000D01*
G01*
X86233001Y-51302800D01*
G75*
G02*
X86308001Y-51227800I75000J0D01*
G01*
X86458001Y-51227800D01*
G75*
G02*
X86533001Y-51302800I0J-75000D01*
G01*
X86533001Y-52602800D01*
G75*
G02*
X86458001Y-52677800I-75000J0D01*
G01*
G37*
G04 #@! TD.AperFunction*
G04 #@! TA.AperFunction,SMDPad,CuDef*
G36*
G01*
X86958001Y-52677800D02*
X86808001Y-52677800D01*
G75*
G02*
X86733001Y-52602800I0J75000D01*
G01*
X86733001Y-51302800D01*
G75*
G02*
X86808001Y-51227800I75000J0D01*
G01*
X86958001Y-51227800D01*
G75*
G02*
X87033001Y-51302800I0J-75000D01*
G01*
X87033001Y-52602800D01*
G75*
G02*
X86958001Y-52677800I-75000J0D01*
G01*
G37*
G04 #@! TD.AperFunction*
G04 #@! TA.AperFunction,SMDPad,CuDef*
G36*
G01*
X87458001Y-52677800D02*
X87308001Y-52677800D01*
G75*
G02*
X87233001Y-52602800I0J75000D01*
G01*
X87233001Y-51302800D01*
G75*
G02*
X87308001Y-51227800I75000J0D01*
G01*
X87458001Y-51227800D01*
G75*
G02*
X87533001Y-51302800I0J-75000D01*
G01*
X87533001Y-52602800D01*
G75*
G02*
X87458001Y-52677800I-75000J0D01*
G01*
G37*
G04 #@! TD.AperFunction*
G04 #@! TA.AperFunction,SMDPad,CuDef*
G36*
G01*
X87458001Y-57077800D02*
X87308001Y-57077800D01*
G75*
G02*
X87233001Y-57002800I0J75000D01*
G01*
X87233001Y-55702800D01*
G75*
G02*
X87308001Y-55627800I75000J0D01*
G01*
X87458001Y-55627800D01*
G75*
G02*
X87533001Y-55702800I0J-75000D01*
G01*
X87533001Y-57002800D01*
G75*
G02*
X87458001Y-57077800I-75000J0D01*
G01*
G37*
G04 #@! TD.AperFunction*
G04 #@! TA.AperFunction,SMDPad,CuDef*
G36*
G01*
X86958001Y-57077800D02*
X86808001Y-57077800D01*
G75*
G02*
X86733001Y-57002800I0J75000D01*
G01*
X86733001Y-55702800D01*
G75*
G02*
X86808001Y-55627800I75000J0D01*
G01*
X86958001Y-55627800D01*
G75*
G02*
X87033001Y-55702800I0J-75000D01*
G01*
X87033001Y-57002800D01*
G75*
G02*
X86958001Y-57077800I-75000J0D01*
G01*
G37*
G04 #@! TD.AperFunction*
G04 #@! TA.AperFunction,SMDPad,CuDef*
G36*
G01*
X86458001Y-57077800D02*
X86308001Y-57077800D01*
G75*
G02*
X86233001Y-57002800I0J75000D01*
G01*
X86233001Y-55702800D01*
G75*
G02*
X86308001Y-55627800I75000J0D01*
G01*
X86458001Y-55627800D01*
G75*
G02*
X86533001Y-55702800I0J-75000D01*
G01*
X86533001Y-57002800D01*
G75*
G02*
X86458001Y-57077800I-75000J0D01*
G01*
G37*
G04 #@! TD.AperFunction*
G04 #@! TA.AperFunction,SMDPad,CuDef*
G36*
G01*
X85958001Y-57077800D02*
X85808001Y-57077800D01*
G75*
G02*
X85733001Y-57002800I0J75000D01*
G01*
X85733001Y-55702800D01*
G75*
G02*
X85808001Y-55627800I75000J0D01*
G01*
X85958001Y-55627800D01*
G75*
G02*
X86033001Y-55702800I0J-75000D01*
G01*
X86033001Y-57002800D01*
G75*
G02*
X85958001Y-57077800I-75000J0D01*
G01*
G37*
G04 #@! TD.AperFunction*
G04 #@! TA.AperFunction,SMDPad,CuDef*
G36*
G01*
X85458001Y-57077800D02*
X85308001Y-57077800D01*
G75*
G02*
X85233001Y-57002800I0J75000D01*
G01*
X85233001Y-55702800D01*
G75*
G02*
X85308001Y-55627800I75000J0D01*
G01*
X85458001Y-55627800D01*
G75*
G02*
X85533001Y-55702800I0J-75000D01*
G01*
X85533001Y-57002800D01*
G75*
G02*
X85458001Y-57077800I-75000J0D01*
G01*
G37*
G04 #@! TD.AperFunction*
D17*
X97586800Y-136766300D03*
X86156800Y-131305300D03*
X91812300Y-140127800D03*
X95681800Y-124218700D03*
X90601800Y-122567700D03*
X86360000Y-55079900D03*
X90893900Y-52997100D03*
X171360042Y-142696142D03*
X82169000Y-168160700D03*
X95542100Y-100596700D03*
X91177300Y-116912200D03*
X85534500Y-107708700D03*
X95351600Y-106184700D03*
X77368400Y-85725000D03*
X70891400Y-92964000D03*
X71399400Y-92329000D03*
X70891400Y-91694000D03*
X178638200Y-137528300D03*
X145046700Y-123075700D03*
X145046700Y-124218700D03*
X167538400Y-110909100D03*
X170713400Y-110909100D03*
X136080500Y-111709200D03*
X134810500Y-111772700D03*
X133604000Y-111747300D03*
X132334000Y-111747300D03*
X138137900Y-113563400D03*
X141528800Y-101892100D03*
X136486900Y-101854000D03*
X123139200Y-123304300D03*
X129717800Y-122085100D03*
X136461500Y-135750300D03*
X137731500Y-135750300D03*
X139001500Y-135750300D03*
X134785100Y-136969500D03*
X90843100Y-162077400D03*
X172707300Y-145326100D03*
X169710100Y-144564100D03*
X126250700Y-126415800D03*
X123144359Y-122039459D03*
X182702200Y-131559300D03*
X194640200Y-131432300D03*
X109016800Y-121958100D03*
X90766900Y-174828200D03*
X70967600Y-82321400D03*
X62331600Y-83146900D03*
X68618100Y-87083900D03*
X62776100Y-98577400D03*
X62776100Y-97497900D03*
X62776100Y-99593400D03*
X138125200Y-123494800D03*
X134264400Y-128104900D03*
X86004400Y-180098700D03*
X90525600Y-99339400D03*
X85953600Y-118033800D03*
X90690700Y-172085000D03*
X120777000Y-128244600D03*
X135229600Y-119634000D03*
X85572600Y-169646600D03*
X82499200Y-178765200D03*
X94094300Y-136321800D03*
X145110200Y-125310900D03*
X91871800Y-126758700D03*
X96824800Y-138925300D03*
X86537800Y-138925300D03*
X86791800Y-125107700D03*
X82169000Y-166763700D03*
X91732100Y-103136700D03*
X86855300Y-101612700D03*
X96189800Y-115709700D03*
X71145400Y-89154000D03*
X69621400Y-89281000D03*
X71272400Y-87757000D03*
X178574700Y-138925300D03*
X129921000Y-110299500D03*
X139407900Y-113563400D03*
X135433500Y-114821400D03*
X126542800Y-122669300D03*
X134357020Y-119564227D03*
X128511290Y-110299500D03*
X163017200Y-147180300D03*
X163271200Y-144386300D03*
X228168200Y-187667900D03*
X136505950Y-132416550D03*
X141288200Y-124562300D03*
X135153400Y-128054100D03*
X145186400Y-121704100D03*
X226847400Y-48564800D03*
X87464900Y-114668300D03*
X82384900Y-115735100D03*
X87071200Y-162191700D03*
X119278400Y-126352300D03*
X135432800Y-116484400D03*
X96367600Y-108376720D03*
X86969600Y-53492400D03*
X87483149Y-172750951D03*
X82550000Y-177393600D03*
X134378700Y-132994379D03*
X134175500Y-115239800D03*
X78351380Y-110807500D03*
X78343760Y-123545600D03*
X78323440Y-113385600D03*
X78348840Y-126085600D03*
X78364080Y-118491000D03*
X78353920Y-128656080D03*
X78369160Y-121015760D03*
X78313280Y-131175760D03*
X67602100Y-75907900D03*
X67602100Y-77685900D03*
X67602100Y-74383900D03*
X122966480Y-116413280D03*
X123698000Y-116946680D03*
X167199838Y-131648200D03*
X141084300Y-122770900D03*
X81876900Y-53936900D03*
X111264700Y-100076000D03*
X84937600Y-53162200D03*
X86055200Y-165176200D03*
X85852000Y-172770800D03*
X86055200Y-175818800D03*
X85572600Y-166763700D03*
X85750400Y-177419000D03*
X85852000Y-53606704D03*
X112356900Y-100152200D03*
X86918800Y-165074600D03*
X86922116Y-175811796D03*
X86868000Y-171831000D03*
X143586200Y-115785900D03*
X137731500Y-126834900D03*
X145770600Y-110185200D03*
X135204200Y-125272800D03*
X141427200Y-127159210D03*
X141795500Y-121958100D03*
X92527120Y-107401360D03*
X89692480Y-107513120D03*
X88087200Y-108869480D03*
X129778760Y-121005600D03*
X128203960Y-115305840D03*
X90901520Y-108981240D03*
X122161300Y-121754900D03*
X111125000Y-126034800D03*
X92837000Y-131076700D03*
X134035800Y-126301500D03*
X111988600Y-125920500D03*
X89954100Y-131241800D03*
X133743700Y-127292100D03*
X112890300Y-125844300D03*
X88734900Y-132588000D03*
X132930900Y-128270000D03*
X113766600Y-125806200D03*
X91795600Y-132778500D03*
X129819400Y-123057920D03*
X126390400Y-115570000D03*
X86603840Y-108869480D03*
X138061700Y-116700300D03*
D18*
X96503300Y-136766300D02*
X97586800Y-136766300D01*
D19*
X94538800Y-124226700D02*
X95673800Y-124226700D01*
X90601800Y-124091700D02*
X90601800Y-122567700D01*
X90347800Y-140127800D02*
X91812300Y-140127800D01*
X95673800Y-124226700D02*
X95681800Y-124218700D01*
X93268800Y-140127800D02*
X91812300Y-140127800D01*
D18*
X86156800Y-129465300D02*
X86156800Y-131305300D01*
D19*
X90398600Y-53492400D02*
X90893900Y-52997100D01*
X89924700Y-53492400D02*
X90398600Y-53492400D01*
X95534100Y-100604700D02*
X95542100Y-100596700D01*
X94399100Y-100604700D02*
X95534100Y-100604700D01*
X89712800Y-116912200D02*
X91177300Y-116912200D01*
X92633800Y-116912200D02*
X91177300Y-116912200D01*
D18*
X85534500Y-105868700D02*
X85534500Y-107708700D01*
X95351600Y-107268200D02*
X95351600Y-106184700D01*
X138137900Y-114642300D02*
X138137900Y-113563400D01*
D19*
X90335100Y-161569400D02*
X90843100Y-162077400D01*
X89759600Y-161569400D02*
X90335100Y-161569400D01*
X89721500Y-172593000D02*
X90195400Y-172593000D01*
X86360000Y-56279799D02*
X86383001Y-56302800D01*
X86360000Y-55079900D02*
X86360000Y-56279799D01*
X87246601Y-179728001D02*
X87246601Y-178680000D01*
X87249000Y-179730400D02*
X87246601Y-179728001D01*
X86880700Y-180098700D02*
X87249000Y-179730400D01*
X86004400Y-180098700D02*
X86880700Y-180098700D01*
X90487500Y-99377500D02*
X90525600Y-99339400D01*
X90487500Y-100410200D02*
X90487500Y-99377500D01*
X85953600Y-116924900D02*
X85953600Y-118033800D01*
D20*
X90360500Y-172427900D02*
X90360500Y-172415200D01*
X90360500Y-172415200D02*
X90690700Y-172085000D01*
D19*
X90195400Y-172593000D02*
X90360500Y-172427900D01*
X90360500Y-172427900D02*
X90690700Y-172097700D01*
X87071200Y-168024700D02*
X87071200Y-169087800D01*
X87071200Y-169087800D02*
X86512400Y-169646600D01*
X86512400Y-169646600D02*
X85572600Y-169646600D01*
D18*
X94538800Y-136766300D02*
X94094300Y-136321800D01*
X95368300Y-136766300D02*
X94538800Y-136766300D01*
X93776800Y-136004300D02*
X94094300Y-136321800D01*
X93776800Y-134415300D02*
X93776800Y-136004300D01*
D19*
X144082100Y-125310900D02*
X145110200Y-125310900D01*
X91871800Y-125324200D02*
X91871800Y-126758700D01*
X86881300Y-125197200D02*
X86791800Y-125107700D01*
X95808800Y-138962800D02*
X96787300Y-138962800D01*
X96787300Y-138962800D02*
X96824800Y-138925300D01*
X88061800Y-125197200D02*
X86881300Y-125197200D01*
X86575300Y-138962800D02*
X86537800Y-138925300D01*
X87807800Y-138962800D02*
X86575300Y-138962800D01*
X91732100Y-101702200D02*
X91732100Y-103136700D01*
X96152300Y-115747200D02*
X96189800Y-115709700D01*
X95173800Y-115747200D02*
X96152300Y-115747200D01*
D18*
X139407900Y-114642300D02*
X139407900Y-113563400D01*
X88586500Y-172593000D02*
X88468200Y-172593000D01*
D19*
X87859200Y-101612700D02*
X87896700Y-101575200D01*
X86855300Y-101612700D02*
X87859200Y-101612700D01*
X144158300Y-121704100D02*
X145186400Y-121704100D01*
X87172800Y-114960400D02*
X87464900Y-114668300D01*
X87172800Y-115747200D02*
X87172800Y-114960400D01*
X82409700Y-115759900D02*
X82384900Y-115735100D01*
X83413600Y-115759900D02*
X82409700Y-115759900D01*
D18*
X93154500Y-110767900D02*
X93154500Y-109359700D01*
X93154500Y-109359700D02*
X94111000Y-108403200D01*
D19*
X87071200Y-163724700D02*
X87071200Y-162191700D01*
X87693500Y-161569400D02*
X87071200Y-162191700D01*
X88176100Y-161569400D02*
X87693500Y-161569400D01*
X88624600Y-161569400D02*
X88176100Y-161569400D01*
X88176100Y-161569400D02*
X87972900Y-161569400D01*
D18*
X96341120Y-108403200D02*
X96367600Y-108376720D01*
X94880240Y-108403200D02*
X96341120Y-108403200D01*
X94111000Y-108403200D02*
X94880240Y-108403200D01*
X94880240Y-108403200D02*
X95351600Y-108403200D01*
D19*
X86383001Y-52905801D02*
X86969600Y-53492400D01*
X86383001Y-52002800D02*
X86383001Y-52905801D01*
X88789700Y-53492400D02*
X86969600Y-53492400D01*
D18*
X88586500Y-172593000D02*
X87641100Y-172593000D01*
X87641100Y-172593000D02*
X87483149Y-172750951D01*
D19*
X87246601Y-174380000D02*
X87246601Y-172987499D01*
X87246601Y-172987499D02*
X87483149Y-172750951D01*
X134378700Y-132994379D02*
X134378700Y-130441700D01*
X134378700Y-130441700D02*
X136144000Y-128676400D01*
X133760119Y-125142405D02*
X133760119Y-115655181D01*
X133760119Y-115655181D02*
X134175500Y-115239800D01*
X136144000Y-127526286D02*
X133760119Y-125142405D01*
X136144000Y-128676400D02*
X136144000Y-127526286D01*
X89682800Y-115747200D02*
X89712800Y-115777200D01*
X88442800Y-115747200D02*
X89682800Y-115747200D01*
X89712800Y-114223200D02*
X89675300Y-114185700D01*
X89675300Y-114160300D02*
X89675300Y-113144900D01*
X89344500Y-112814100D02*
X89344500Y-110767900D01*
X89675300Y-113144900D02*
X89344500Y-112814100D01*
X89712800Y-114197800D02*
X89675300Y-114160300D01*
X89712800Y-115777200D02*
X89712800Y-114197800D01*
X92663800Y-115747200D02*
X92633800Y-115777200D01*
X92596300Y-115739700D02*
X92633800Y-115777200D01*
X92633800Y-114172400D02*
X92621700Y-114160300D01*
X92633800Y-115777200D02*
X92633800Y-114172400D01*
X93873800Y-115777200D02*
X93903800Y-115747200D01*
X92633800Y-115777200D02*
X93873800Y-115777200D01*
X92621700Y-114160300D02*
X92621700Y-113576700D01*
X91884500Y-112839500D02*
X91884500Y-110767900D01*
X92621700Y-113576700D02*
X91884500Y-112839500D01*
X94501300Y-125324200D02*
X94538800Y-125361700D01*
X94501300Y-126631700D02*
X94501300Y-127177200D01*
X94538800Y-126594200D02*
X94501300Y-126631700D01*
X94538800Y-125361700D02*
X94538800Y-126594200D01*
X93141800Y-125324200D02*
X94501300Y-125324200D01*
X94501300Y-127177200D02*
X93776800Y-127901700D01*
X93776800Y-127901700D02*
X93776800Y-129465300D01*
X89077800Y-138962800D02*
X90317800Y-138962800D01*
X90347800Y-137438800D02*
X90310300Y-137401300D01*
X90317800Y-138962800D02*
X90347800Y-138992800D01*
X90347800Y-138992800D02*
X90347800Y-137438800D01*
X90310300Y-137401300D02*
X90310300Y-137249500D01*
X89966800Y-136906000D02*
X89966800Y-134415300D01*
X90310300Y-137249500D02*
X89966800Y-136906000D01*
D21*
X78351380Y-110807500D02*
X77267400Y-110807500D01*
X77267400Y-110807500D02*
X77254700Y-110820200D01*
D20*
X78341220Y-123543060D02*
X78343760Y-123545600D01*
X77239460Y-123543060D02*
X78341220Y-123543060D01*
D21*
X78323440Y-113385600D02*
X77254700Y-113385600D01*
D20*
X78346300Y-126083060D02*
X78348840Y-126085600D01*
X77239460Y-126083060D02*
X78346300Y-126083060D01*
X78336140Y-118463060D02*
X78364080Y-118491000D01*
X77239460Y-118463060D02*
X78336140Y-118463060D01*
X78338680Y-128671320D02*
X78353920Y-128656080D01*
X77239460Y-128671320D02*
X78338680Y-128671320D01*
X78356460Y-121003060D02*
X78369160Y-121015760D01*
X77239460Y-121003060D02*
X78356460Y-121003060D01*
X78292960Y-131196080D02*
X78313280Y-131175760D01*
X77239460Y-131196080D02*
X78292960Y-131196080D01*
D21*
X73748900Y-165836600D02*
X72720200Y-164807900D01*
X86995000Y-165836600D02*
X73748900Y-165836600D01*
X87571200Y-165260400D02*
X86995000Y-165836600D01*
X87571200Y-163724700D02*
X87571200Y-165260400D01*
X70764400Y-164807900D02*
X70180200Y-164807900D01*
X72097900Y-166141400D02*
X70764400Y-164807900D01*
X87147400Y-166141400D02*
X72097900Y-166141400D01*
X88071200Y-165217600D02*
X87147400Y-166141400D01*
X88071200Y-163724700D02*
X88071200Y-165217600D01*
X75806300Y-170434000D02*
X72720200Y-167347900D01*
X86385400Y-170434000D02*
X75806300Y-170434000D01*
X87571200Y-169248200D02*
X86385400Y-170434000D01*
X87571200Y-168024700D02*
X87571200Y-169248200D01*
X71437500Y-168605200D02*
X70180200Y-167347900D01*
X73596500Y-168605200D02*
X71437500Y-168605200D01*
X75679300Y-170688000D02*
X73596500Y-168605200D01*
X86512400Y-170688000D02*
X75679300Y-170688000D01*
X88071200Y-169129200D02*
X86512400Y-170688000D01*
X88071200Y-168024700D02*
X88071200Y-169129200D01*
X76847700Y-176555400D02*
X72720200Y-172427900D01*
X87147400Y-176555400D02*
X76847700Y-176555400D01*
X87746601Y-175956199D02*
X87147400Y-176555400D01*
X87746601Y-174380000D02*
X87746601Y-175956199D01*
X73619226Y-173672500D02*
X71424800Y-173672500D01*
X71424800Y-173672500D02*
X70180200Y-172427900D01*
X76756126Y-176809400D02*
X73619226Y-173672500D01*
X87325200Y-176809400D02*
X76756126Y-176809400D01*
X88246601Y-175887999D02*
X87325200Y-176809400D01*
X88246601Y-174380000D02*
X88246601Y-175887999D01*
X87746601Y-178680000D02*
X87746601Y-179842399D01*
X87746601Y-179842399D02*
X86842600Y-180746400D01*
X78498700Y-180746400D02*
X77266800Y-179514500D01*
X81483200Y-180746400D02*
X78498700Y-180746400D01*
X77266800Y-179514500D02*
X72720200Y-174967900D01*
X86842600Y-180746400D02*
X81483200Y-180746400D01*
X81483200Y-180746400D02*
X81153000Y-180746400D01*
X88246601Y-178680000D02*
X88246601Y-179774199D01*
X88246601Y-179774199D02*
X86982300Y-181038500D01*
X86982300Y-181038500D02*
X80848200Y-181038500D01*
X80848200Y-181038500D02*
X80759300Y-181038500D01*
X71437500Y-176225200D02*
X70180200Y-174967900D01*
X73558400Y-176225200D02*
X71437500Y-176225200D01*
X78371700Y-181038500D02*
X73558400Y-176225200D01*
X80848200Y-181038500D02*
X78371700Y-181038500D01*
X111480600Y-112153700D02*
X111264700Y-111937800D01*
X111480600Y-112897920D02*
X111480600Y-112153700D01*
X115595400Y-117012720D02*
X111480600Y-112897920D01*
X122367040Y-117012720D02*
X122966480Y-116413280D01*
X121970800Y-117012720D02*
X122367040Y-117012720D01*
X121970800Y-117012720D02*
X115595400Y-117012720D01*
X108940600Y-112153700D02*
X108724700Y-111937800D01*
X109720380Y-112153700D02*
X108940600Y-112153700D01*
X114853720Y-117287040D02*
X109720380Y-112153700D01*
X123357640Y-117287040D02*
X114853720Y-117287040D01*
X123698000Y-116946680D02*
X123357640Y-117287040D01*
X144261433Y-122524141D02*
X144268674Y-122516900D01*
X167195500Y-131648200D02*
X167199838Y-131648200D01*
X158071441Y-122524141D02*
X167195500Y-131648200D01*
X144261433Y-122524141D02*
X158071441Y-122524141D01*
X141331059Y-122524141D02*
X141536041Y-122524141D01*
X141084300Y-122770900D02*
X141331059Y-122524141D01*
X141536041Y-122524141D02*
X144261433Y-122524141D01*
D20*
X85383001Y-55182401D02*
X85383001Y-56302800D01*
X84721700Y-54521100D02*
X85383001Y-55182401D01*
X82461100Y-54521100D02*
X84721700Y-54521100D01*
X81876900Y-53936900D02*
X82461100Y-54521100D01*
X87458550Y-158172150D02*
X87388700Y-158242000D01*
X85383001Y-52002800D02*
X85383001Y-52716799D01*
D21*
X85032561Y-52895500D02*
X84937600Y-52990461D01*
D20*
X85383001Y-52716799D02*
X84937600Y-53162200D01*
D21*
X84937600Y-52990461D02*
X84937600Y-53162200D01*
D20*
X84937600Y-53647133D02*
X84937600Y-53162200D01*
X85748067Y-54457600D02*
X84937600Y-53647133D01*
X87356950Y-54457600D02*
X85748067Y-54457600D01*
X88385650Y-55486300D02*
X87356950Y-54457600D01*
X88385650Y-77196950D02*
X88385650Y-55486300D01*
X111264700Y-100076000D02*
X88385650Y-77196950D01*
X86071200Y-162931600D02*
X86071200Y-163674700D01*
X85902800Y-162763200D02*
X86071200Y-162931600D01*
X85902800Y-159727900D02*
X85902800Y-162763200D01*
X87458550Y-158172150D02*
X85902800Y-159727900D01*
X86055200Y-163690700D02*
X86071200Y-163674700D01*
X86055200Y-165176200D02*
X86055200Y-163690700D01*
X86055200Y-172974000D02*
X85852000Y-172770800D01*
X86055200Y-175818800D02*
X86055200Y-175615600D01*
X86246601Y-175424199D02*
X86246601Y-174330000D01*
X86055200Y-175615600D02*
X86246601Y-175424199D01*
X86246601Y-173165401D02*
X85852000Y-172770800D01*
X86246601Y-174330000D02*
X86246601Y-173165401D01*
X100076000Y-145554700D02*
X87458550Y-158172150D01*
X100076000Y-111887000D02*
X100076000Y-145554700D01*
X111264700Y-100698300D02*
X100076000Y-111887000D01*
X111264700Y-100076000D02*
X111264700Y-100698300D01*
X86071200Y-167262300D02*
X85572600Y-166763700D01*
X86071200Y-168024700D02*
X86071200Y-167262300D01*
X86246601Y-177915201D02*
X85750400Y-177419000D01*
X86246601Y-178680000D02*
X86246601Y-177915201D01*
X85883001Y-53575703D02*
X85852000Y-53606704D01*
X85883001Y-52002800D02*
X85883001Y-53575703D01*
X86868000Y-175757680D02*
X86922116Y-175811796D01*
X86575901Y-162801301D02*
X86575901Y-164731701D01*
X112356900Y-100152200D02*
X100444300Y-112064800D01*
X86575901Y-164731701D02*
X86918800Y-165074600D01*
X86296500Y-159867600D02*
X86296500Y-162521900D01*
X86296500Y-162521900D02*
X86575901Y-162801301D01*
X100444300Y-145719800D02*
X86296500Y-159867600D01*
X100444300Y-112064800D02*
X100444300Y-145719800D01*
X86746601Y-175636281D02*
X86746601Y-174330000D01*
X86922116Y-175811796D02*
X86746601Y-175636281D01*
X86746601Y-171952399D02*
X86868000Y-171831000D01*
X86746601Y-174330000D02*
X86746601Y-171952399D01*
X85852000Y-53606704D02*
X85852004Y-53606704D01*
X86347300Y-54102000D02*
X87591900Y-54102000D01*
X85852004Y-53606704D02*
X86347300Y-54102000D01*
X87591900Y-54102000D02*
X88823800Y-55333900D01*
X88823800Y-55333900D02*
X88823800Y-76619100D01*
X88823800Y-76619100D02*
X112356900Y-100152200D01*
D19*
X136575800Y-125679200D02*
X136575800Y-122453400D01*
X137731500Y-126834900D02*
X136575800Y-125679200D01*
X143440150Y-115931950D02*
X143586200Y-115785900D01*
X143097250Y-115931950D02*
X143440150Y-115931950D01*
X136575800Y-122453400D02*
X143097250Y-115931950D01*
X145770600Y-110604300D02*
X145770600Y-110185200D01*
X134632700Y-124701300D02*
X134632700Y-121742200D01*
X134632700Y-121742200D02*
X145770600Y-110604300D01*
X135204200Y-125272800D02*
X134632700Y-124701300D01*
D21*
X142887100Y-125310900D02*
X142887100Y-125699310D01*
X142887100Y-125699310D02*
X141427200Y-127159210D01*
X142709300Y-121958100D02*
X142963300Y-121704100D01*
X141795500Y-121958100D02*
X142709300Y-121958100D01*
D19*
X94361600Y-101702200D02*
X94399100Y-101739700D01*
X93002100Y-101702200D02*
X94361600Y-101702200D01*
X94399100Y-102972200D02*
X94361600Y-103009700D01*
X94399100Y-101739700D02*
X94399100Y-102972200D01*
X94361600Y-103009700D02*
X94322900Y-103009700D01*
X93154500Y-104178100D02*
X93154500Y-105817900D01*
X94322900Y-103009700D02*
X93154500Y-104178100D01*
X90601800Y-126594200D02*
X90564300Y-126631700D01*
X90572300Y-125197200D02*
X90601800Y-125226700D01*
X90601800Y-125226700D02*
X90601800Y-126594200D01*
X91199300Y-129427800D02*
X91236800Y-129465300D01*
X89331800Y-125197200D02*
X90572300Y-125197200D01*
X90564300Y-126631700D02*
X90564300Y-126911700D01*
X91236800Y-127584200D02*
X91236800Y-129465300D01*
X90564300Y-126911700D02*
X91236800Y-127584200D01*
X94538800Y-138962800D02*
X93298800Y-138962800D01*
X93231300Y-138955300D02*
X93268800Y-138992800D01*
X93298800Y-138962800D02*
X93268800Y-138992800D01*
X93273400Y-138962800D02*
X93243400Y-138992800D01*
X94513400Y-138962800D02*
X93273400Y-138962800D01*
X92506800Y-136093200D02*
X92506800Y-134415300D01*
X93231300Y-136817700D02*
X92506800Y-136093200D01*
X93231300Y-137363800D02*
X93231300Y-136817700D01*
X93243400Y-137362600D02*
X93231300Y-137350500D01*
X93243400Y-138992800D02*
X93243400Y-137362600D01*
X86500300Y-114160300D02*
X86500300Y-114324800D01*
X85953600Y-114871500D02*
X85953600Y-115789900D01*
X86500300Y-114324800D02*
X85953600Y-114871500D01*
X84726300Y-115789900D02*
X84696300Y-115759900D01*
X85953600Y-115789900D02*
X84726300Y-115789900D01*
X86500300Y-114160300D02*
X86500300Y-112788100D01*
X86804500Y-112483900D02*
X86804500Y-110767900D01*
X86500300Y-112788100D02*
X86804500Y-112483900D01*
X90432600Y-101575200D02*
X90462100Y-101604700D01*
X89192100Y-101575200D02*
X90432600Y-101575200D01*
X90462100Y-102972200D02*
X90424600Y-103009700D01*
X90577000Y-105831200D02*
X90614500Y-105868700D01*
X90462100Y-101570600D02*
X90487500Y-101545200D01*
X90462100Y-102374700D02*
X90462100Y-101570600D01*
X90462100Y-101604700D02*
X90462100Y-102374700D01*
X90462100Y-102374700D02*
X90462100Y-102972200D01*
X90457500Y-101575200D02*
X90487500Y-101545200D01*
X89192100Y-101575200D02*
X90457500Y-101575200D01*
X90424600Y-103009700D02*
X90424600Y-103861200D01*
X90614500Y-104051100D02*
X90614500Y-105817900D01*
X90424600Y-103861200D02*
X90614500Y-104051100D01*
X91732100Y-100507200D02*
X93002100Y-100507200D01*
X90601800Y-97917000D02*
X91732100Y-99047300D01*
X83388200Y-97917000D02*
X90601800Y-97917000D01*
X91732100Y-99047300D02*
X91732100Y-100507200D01*
X80733900Y-100571300D02*
X83388200Y-97917000D01*
X80733900Y-104635300D02*
X80733900Y-100571300D01*
X74536300Y-110832900D02*
X80733900Y-104635300D01*
X72618600Y-110832900D02*
X74536300Y-110832900D01*
X70078600Y-110832900D02*
X71310500Y-112064800D01*
X74815100Y-112064800D02*
X76059700Y-110820200D01*
X71310500Y-112064800D02*
X74815100Y-112064800D01*
X89192100Y-100380200D02*
X87896700Y-100380200D01*
X72618600Y-113372900D02*
X74422000Y-113372900D01*
X74422000Y-113372900D02*
X75653900Y-112141000D01*
X75653900Y-112141000D02*
X78244700Y-112141000D01*
X78244700Y-112141000D02*
X82664300Y-107721400D01*
X82664300Y-107721400D02*
X82664300Y-103543100D01*
X85827200Y-100380200D02*
X87896700Y-100380200D01*
X82664300Y-103543100D02*
X85827200Y-100380200D01*
X70078600Y-113372900D02*
X71183500Y-114477800D01*
X71183500Y-114477800D02*
X74790300Y-114477800D01*
X75882500Y-113385600D02*
X76059700Y-113385600D01*
X74790300Y-114477800D02*
X75882500Y-113385600D01*
X87172800Y-116942200D02*
X88442800Y-116942200D01*
X86436200Y-119075200D02*
X87172800Y-118338600D01*
X87172800Y-118338600D02*
X87172800Y-116942200D01*
X72618600Y-118452900D02*
X74368660Y-118452900D01*
X74368660Y-118452900D02*
X75692000Y-119776240D01*
X84343240Y-119776240D02*
X85044280Y-119075200D01*
X75692000Y-119776240D02*
X84343240Y-119776240D01*
X85044280Y-119075200D02*
X86436200Y-119075200D01*
D20*
X70078600Y-118452900D02*
X70078600Y-118673880D01*
X74766840Y-117185440D02*
X76044460Y-118463060D01*
X71348600Y-117185440D02*
X74766840Y-117185440D01*
X70078600Y-118455440D02*
X71348600Y-117185440D01*
X70078600Y-118452900D02*
X70078600Y-118455440D01*
D19*
X95173800Y-116942200D02*
X93903800Y-116942200D01*
X93903800Y-118287800D02*
X93903800Y-116942200D01*
X92240100Y-119951500D02*
X93903800Y-118287800D01*
X72618600Y-120992900D02*
X74515980Y-120992900D01*
X74515980Y-120992900D02*
X75824080Y-122301000D01*
X84292440Y-122301000D02*
X86641940Y-119951500D01*
X75824080Y-122301000D02*
X84292440Y-122301000D01*
X86641940Y-119951500D02*
X92240100Y-119951500D01*
D20*
X74756680Y-119715280D02*
X76044460Y-121003060D01*
X71358760Y-119715280D02*
X74756680Y-119715280D01*
X70078600Y-120995440D02*
X71358760Y-119715280D01*
X70078600Y-120992900D02*
X70078600Y-120995440D01*
D19*
X91871800Y-124129200D02*
X93141800Y-124129200D01*
X91871800Y-122491500D02*
X91871800Y-124129200D01*
X90589100Y-121208800D02*
X91871800Y-122491500D01*
X72618600Y-123532900D02*
X74414380Y-123532900D01*
X74414380Y-123532900D02*
X75722480Y-124841000D01*
X75722480Y-124841000D02*
X84388960Y-124841000D01*
X84388960Y-124841000D02*
X88021160Y-121208800D01*
X88315800Y-121208800D02*
X90589100Y-121208800D01*
X88021160Y-121208800D02*
X88315800Y-121208800D01*
D20*
X74741440Y-122240040D02*
X76044460Y-123543060D01*
X71399400Y-122240040D02*
X74741440Y-122240040D01*
X70106540Y-123532900D02*
X71399400Y-122240040D01*
X70078600Y-123532900D02*
X70106540Y-123532900D01*
D19*
X88061800Y-124002200D02*
X89331800Y-124002200D01*
X72618600Y-126072900D02*
X74419460Y-126072900D01*
X74419460Y-126072900D02*
X75671680Y-127325120D01*
X75671680Y-127325120D02*
X84429600Y-127325120D01*
X84429600Y-127325120D02*
X85750400Y-126004320D01*
X85750400Y-126004320D02*
X85750400Y-124962920D01*
X86711120Y-124002200D02*
X88061800Y-124002200D01*
X85750400Y-124962920D02*
X86711120Y-124002200D01*
D20*
X74746520Y-124785120D02*
X76044460Y-126083060D01*
X71379080Y-124785120D02*
X74746520Y-124785120D01*
X70091300Y-126072900D02*
X71379080Y-124785120D01*
X70078600Y-126072900D02*
X70091300Y-126072900D01*
D19*
X87807800Y-140157800D02*
X89077800Y-140157800D01*
X75702160Y-129966720D02*
X74348340Y-128612900D01*
X79796640Y-129966720D02*
X75702160Y-129966720D01*
X74348340Y-128612900D02*
X72618600Y-128612900D01*
X82867500Y-133037580D02*
X79796640Y-129966720D01*
X82867500Y-137617200D02*
X82867500Y-133037580D01*
X85408100Y-140157800D02*
X82867500Y-137617200D01*
X87807800Y-140157800D02*
X85408100Y-140157800D01*
D20*
X70078600Y-128612900D02*
X70081140Y-128612900D01*
X70078600Y-128612900D02*
X70086220Y-128612900D01*
X70086220Y-128612900D02*
X71358760Y-127340360D01*
X74713500Y-127340360D02*
X76044460Y-128671320D01*
X71358760Y-127340360D02*
X74713500Y-127340360D01*
D19*
X95808800Y-140157800D02*
X94538800Y-140157800D01*
X93167800Y-141503400D02*
X94513400Y-140157800D01*
X84734400Y-141503400D02*
X93167800Y-141503400D01*
X81686400Y-133812280D02*
X81686400Y-138455400D01*
X81686400Y-138455400D02*
X84734400Y-141503400D01*
X80192880Y-132318760D02*
X81686400Y-133812280D01*
X75133200Y-132318760D02*
X80192880Y-132318760D01*
X74289920Y-131475480D02*
X75133200Y-132318760D01*
X72941180Y-131475480D02*
X74289920Y-131475480D01*
X72618600Y-131152900D02*
X72941180Y-131475480D01*
D20*
X74718580Y-129870200D02*
X76044460Y-131196080D01*
X71368920Y-129870200D02*
X74718580Y-129870200D01*
X70086220Y-131152900D02*
X71368920Y-129870200D01*
X70078600Y-131152900D02*
X70086220Y-131152900D01*
X86207600Y-58864500D02*
X86883001Y-58189099D01*
X83413600Y-58864500D02*
X86207600Y-58864500D01*
X86883001Y-58189099D02*
X86883001Y-56302800D01*
X79730600Y-55181500D02*
X83413600Y-58864500D01*
X73456800Y-55181500D02*
X79730600Y-55181500D01*
X72593200Y-54317900D02*
X73456800Y-55181500D01*
X71323200Y-55587900D02*
X70053200Y-54317900D01*
X79552800Y-55587900D02*
X71323200Y-55587900D01*
X86385400Y-59309000D02*
X83273900Y-59309000D01*
X87383001Y-58311399D02*
X86385400Y-59309000D01*
X83273900Y-59309000D02*
X79552800Y-55587900D01*
X87383001Y-56302800D02*
X87383001Y-58311399D01*
X71323200Y-50507900D02*
X70053200Y-51777900D01*
X82829400Y-50507900D02*
X71323200Y-50507900D01*
X84251800Y-49085500D02*
X82829400Y-50507900D01*
X86588600Y-49085500D02*
X84251800Y-49085500D01*
X87383001Y-49879901D02*
X86588600Y-49085500D01*
X87383001Y-52002800D02*
X87383001Y-49879901D01*
X73469500Y-50901600D02*
X72593200Y-51777900D01*
X82969100Y-50901600D02*
X73469500Y-50901600D01*
X86385400Y-49441100D02*
X84429600Y-49441100D01*
X84429600Y-49441100D02*
X82969100Y-50901600D01*
X86883001Y-49938701D02*
X86385400Y-49441100D01*
X86883001Y-52002800D02*
X86883001Y-49938701D01*
D19*
X93166600Y-103009700D02*
X93002100Y-103009700D01*
X91884500Y-104127300D02*
X91884500Y-105817900D01*
X93002100Y-103009700D02*
X91884500Y-104127300D01*
D21*
X91884500Y-106758740D02*
X92527120Y-107401360D01*
X91884500Y-105817900D02*
X91884500Y-106758740D01*
D19*
X89382000Y-105831200D02*
X89344500Y-105868700D01*
X89229600Y-103009700D02*
X89229600Y-103999700D01*
X89344500Y-104114600D02*
X89344500Y-105817900D01*
X89229600Y-103999700D02*
X89344500Y-104114600D01*
D21*
X89344500Y-107165140D02*
X89692480Y-107513120D01*
X89344500Y-105817900D02*
X89344500Y-107165140D01*
D19*
X88480300Y-114160300D02*
X88480300Y-113931100D01*
X88074500Y-113525300D02*
X88074500Y-110767900D01*
X88480300Y-113931100D02*
X88074500Y-113525300D01*
D21*
X88074500Y-108882180D02*
X88087200Y-108869480D01*
X88074500Y-110767900D02*
X88074500Y-108882180D01*
D19*
X91426700Y-114160300D02*
X91426700Y-113689800D01*
X90614500Y-112877600D02*
X90614500Y-110767900D01*
X91426700Y-113689800D02*
X90614500Y-112877600D01*
D21*
X129778760Y-121005600D02*
X130347720Y-120436640D01*
X130347720Y-120436640D02*
X130352800Y-120436640D01*
X130352800Y-120436640D02*
X130815080Y-119974360D01*
X130815080Y-117916960D02*
X128203960Y-115305840D01*
X130815080Y-119974360D02*
X130815080Y-117916960D01*
X90614500Y-109268260D02*
X90901520Y-108981240D01*
X90614500Y-110767900D02*
X90614500Y-109268260D01*
D19*
X93306300Y-126631700D02*
X93306300Y-127356200D01*
X93306300Y-127356200D02*
X93166600Y-127356200D01*
X92506800Y-128016000D02*
X92506800Y-129465300D01*
X93166600Y-127356200D02*
X92506800Y-128016000D01*
D21*
X122161300Y-121754900D02*
X119837200Y-124079000D01*
X119837200Y-124079000D02*
X113322100Y-124079000D01*
X113322100Y-124079000D02*
X112128300Y-125272800D01*
X111887000Y-125272800D02*
X111125000Y-126034800D01*
X112128300Y-125272800D02*
X111887000Y-125272800D01*
X92506800Y-130746500D02*
X92837000Y-131076700D01*
X92506800Y-129465300D02*
X92506800Y-130746500D01*
X134035800Y-126301500D02*
X133438900Y-126301500D01*
X133438900Y-126301500D02*
X131495800Y-124358400D01*
X131495800Y-124358400D02*
X114427000Y-124358400D01*
X113550700Y-124358400D02*
X111988600Y-125920500D01*
X114427000Y-124358400D02*
X113550700Y-124358400D01*
D19*
X90004300Y-129427800D02*
X89966800Y-129465300D01*
X89369300Y-126631700D02*
X89369300Y-126796200D01*
X89966800Y-127393700D02*
X89966800Y-129465300D01*
X89369300Y-126796200D02*
X89966800Y-127393700D01*
D21*
X89966800Y-131229100D02*
X89954100Y-131241800D01*
X89966800Y-129465300D02*
X89966800Y-131229100D01*
D19*
X89115300Y-137401300D02*
X88874600Y-137401300D01*
X88696800Y-137223500D02*
X88696800Y-134415300D01*
X88874600Y-137401300D02*
X88696800Y-137223500D01*
D21*
X133743700Y-127292100D02*
X131241800Y-124790200D01*
X131241800Y-124790200D02*
X114325400Y-124790200D01*
X113944400Y-124790200D02*
X112890300Y-125844300D01*
X114325400Y-124790200D02*
X113944400Y-124790200D01*
X88696800Y-132626100D02*
X88734900Y-132588000D01*
X88696800Y-134415300D02*
X88696800Y-132626100D01*
X132930900Y-128270000D02*
X129857500Y-125196600D01*
X129857500Y-125196600D02*
X114477800Y-125196600D01*
X114376200Y-125196600D02*
X113766600Y-125806200D01*
X114477800Y-125196600D02*
X114376200Y-125196600D01*
D19*
X91236800Y-135978900D02*
X91236800Y-134415300D01*
X92036300Y-136778400D02*
X91236800Y-135978900D01*
X92036300Y-137350500D02*
X92036300Y-136778400D01*
D21*
X91236800Y-133337300D02*
X91795600Y-132778500D01*
X91236800Y-134415300D02*
X91236800Y-133337300D01*
D19*
X85305300Y-114160300D02*
X85305300Y-113818000D01*
X85534500Y-113588800D02*
X85534500Y-110767900D01*
X85305300Y-113818000D02*
X85534500Y-113588800D01*
D21*
X129819400Y-123057920D02*
X129509520Y-123057920D01*
X85534500Y-109258100D02*
X85534500Y-110767900D01*
X85923120Y-108869480D02*
X85534500Y-109258100D01*
X86603840Y-108869480D02*
X85923120Y-108869480D01*
X126598680Y-115778280D02*
X126390400Y-115570000D01*
X126598680Y-120685560D02*
X126598680Y-115778280D01*
X128971040Y-123057920D02*
X126598680Y-120685560D01*
X129819400Y-123057920D02*
X128971040Y-123057920D01*
D20*
X139407900Y-115837300D02*
X138150600Y-115837300D01*
X138924700Y-115837300D02*
X139407900Y-115837300D01*
X138150600Y-116611400D02*
X138061700Y-116700300D01*
X138150600Y-115837300D02*
X138150600Y-116611400D01*
X86746601Y-177977600D02*
X86746601Y-178680000D01*
X87343301Y-177380900D02*
X86746601Y-177977600D01*
X93713300Y-177380900D02*
X93726000Y-177393600D01*
X87343301Y-177380900D02*
X93713300Y-177380900D01*
D21*
X85356700Y-57696100D02*
X84251800Y-57696100D01*
X84251800Y-57696100D02*
X83159600Y-56603900D01*
X85883001Y-57169799D02*
X85356700Y-57696100D01*
X85883001Y-56302800D02*
X85883001Y-57169799D01*
D20*
X86571200Y-166844600D02*
X86571200Y-168024700D01*
X86893400Y-166522400D02*
X86571200Y-166844600D01*
X93472000Y-166522400D02*
X93675200Y-166725600D01*
X88595200Y-166522400D02*
X93472000Y-166522400D01*
X88671400Y-166522400D02*
X88595200Y-166522400D01*
X88595200Y-166522400D02*
X86893400Y-166522400D01*
D19*
X84696300Y-116954900D02*
X83413600Y-116954900D01*
X81515020Y-115912900D02*
X72618600Y-115912900D01*
X82557020Y-116954900D02*
X81515020Y-115912900D01*
X83413600Y-116954900D02*
X82557020Y-116954900D01*
X68745100Y-79590900D02*
X64427100Y-79590900D01*
X64427100Y-73240900D01*
X68745100Y-73240900D01*
X68745100Y-79590900D01*
G04 #@! TA.AperFunction,Conductor*
D22*
G36*
X68745100Y-79590900D02*
G01*
X64427100Y-79590900D01*
X64427100Y-73240900D01*
X68745100Y-73240900D01*
X68745100Y-79590900D01*
G37*
G04 #@! TD.AperFunction*
D19*
X85115400Y-94945200D02*
X79233028Y-94945200D01*
X79208252Y-94947640D01*
X79184427Y-94954867D01*
X79162471Y-94966603D01*
X79143225Y-94982397D01*
X79127431Y-95001643D01*
X79115695Y-95023599D01*
X79108468Y-95047424D01*
X79106028Y-95072491D01*
X79120301Y-101295491D01*
X79121000Y-101302425D01*
X79121000Y-105170569D01*
X74715970Y-109575600D01*
X73934955Y-109575600D01*
X73999137Y-109497394D01*
X74058102Y-109387080D01*
X74094412Y-109267382D01*
X74106672Y-109142900D01*
X74103600Y-108578650D01*
X73944850Y-108419900D01*
X72745600Y-108419900D01*
X72745600Y-108439900D01*
X72491600Y-108439900D01*
X72491600Y-108419900D01*
X70205600Y-108419900D01*
X70205600Y-108439900D01*
X69951600Y-108439900D01*
X69951600Y-108419900D01*
X68758445Y-108419900D01*
X68637124Y-108649790D01*
X68681775Y-108796999D01*
X68806959Y-109059820D01*
X68981012Y-109293169D01*
X69197245Y-109488078D01*
X69314134Y-109557705D01*
X69287352Y-109575600D01*
X68402200Y-109575600D01*
X68402200Y-107936010D01*
X68637124Y-107936010D01*
X68758445Y-108165900D01*
X69951600Y-108165900D01*
X69951600Y-106972086D01*
X70205600Y-106972086D01*
X70205600Y-108165900D01*
X72491600Y-108165900D01*
X72491600Y-106966650D01*
X72745600Y-106966650D01*
X72745600Y-108165900D01*
X73944850Y-108165900D01*
X74103600Y-108007150D01*
X74106672Y-107442900D01*
X74094412Y-107318418D01*
X74058102Y-107198720D01*
X73999137Y-107088406D01*
X73919785Y-106991715D01*
X73823094Y-106912363D01*
X73712780Y-106853398D01*
X73593082Y-106817088D01*
X73468600Y-106804828D01*
X72904350Y-106807900D01*
X72745600Y-106966650D01*
X72491600Y-106966650D01*
X72332850Y-106807900D01*
X71768600Y-106804828D01*
X71644118Y-106817088D01*
X71524420Y-106853398D01*
X71414106Y-106912363D01*
X71317415Y-106991715D01*
X71238063Y-107088406D01*
X71179098Y-107198720D01*
X71156102Y-107274526D01*
X70959955Y-107097722D01*
X70709852Y-106948743D01*
X70435491Y-106851419D01*
X70205600Y-106972086D01*
X69951600Y-106972086D01*
X69721709Y-106851419D01*
X69447348Y-106948743D01*
X69197245Y-107097722D01*
X68981012Y-107292631D01*
X68806959Y-107525980D01*
X68681775Y-107788801D01*
X68637124Y-107936010D01*
X68402200Y-107936010D01*
X68402200Y-101422200D01*
X73660000Y-101422200D01*
X73684776Y-101419760D01*
X73708601Y-101412533D01*
X73730557Y-101400797D01*
X73749803Y-101385003D01*
X73765597Y-101365757D01*
X73777333Y-101343801D01*
X73784560Y-101319976D01*
X73787000Y-101295200D01*
X73787000Y-90652600D01*
X78379138Y-90652600D01*
X78403914Y-90650160D01*
X78427739Y-90642933D01*
X78449695Y-90631197D01*
X78468941Y-90615403D01*
X78484735Y-90596157D01*
X78496471Y-90574201D01*
X78503698Y-90550376D01*
X78506138Y-90525453D01*
X78493629Y-79717753D01*
X78491160Y-79692979D01*
X78483905Y-79669163D01*
X78472144Y-79647220D01*
X78456328Y-79627994D01*
X78437064Y-79612222D01*
X78415094Y-79600511D01*
X78391261Y-79593312D01*
X78366629Y-79590900D01*
X64427100Y-79590900D01*
X64427100Y-73240900D01*
X80079850Y-73240900D01*
X80080787Y-73240897D01*
X85115400Y-73203741D01*
X85115400Y-94945200D01*
G04 #@! TA.AperFunction,Conductor*
D22*
G36*
X85115400Y-94945200D02*
G01*
X79233028Y-94945200D01*
X79208252Y-94947640D01*
X79184427Y-94954867D01*
X79162471Y-94966603D01*
X79143225Y-94982397D01*
X79127431Y-95001643D01*
X79115695Y-95023599D01*
X79108468Y-95047424D01*
X79106028Y-95072491D01*
X79120301Y-101295491D01*
X79121000Y-101302425D01*
X79121000Y-105170569D01*
X74715970Y-109575600D01*
X73934955Y-109575600D01*
X73999137Y-109497394D01*
X74058102Y-109387080D01*
X74094412Y-109267382D01*
X74106672Y-109142900D01*
X74103600Y-108578650D01*
X73944850Y-108419900D01*
X72745600Y-108419900D01*
X72745600Y-108439900D01*
X72491600Y-108439900D01*
X72491600Y-108419900D01*
X70205600Y-108419900D01*
X70205600Y-108439900D01*
X69951600Y-108439900D01*
X69951600Y-108419900D01*
X68758445Y-108419900D01*
X68637124Y-108649790D01*
X68681775Y-108796999D01*
X68806959Y-109059820D01*
X68981012Y-109293169D01*
X69197245Y-109488078D01*
X69314134Y-109557705D01*
X69287352Y-109575600D01*
X68402200Y-109575600D01*
X68402200Y-107936010D01*
X68637124Y-107936010D01*
X68758445Y-108165900D01*
X69951600Y-108165900D01*
X69951600Y-106972086D01*
X70205600Y-106972086D01*
X70205600Y-108165900D01*
X72491600Y-108165900D01*
X72491600Y-106966650D01*
X72745600Y-106966650D01*
X72745600Y-108165900D01*
X73944850Y-108165900D01*
X74103600Y-108007150D01*
X74106672Y-107442900D01*
X74094412Y-107318418D01*
X74058102Y-107198720D01*
X73999137Y-107088406D01*
X73919785Y-106991715D01*
X73823094Y-106912363D01*
X73712780Y-106853398D01*
X73593082Y-106817088D01*
X73468600Y-106804828D01*
X72904350Y-106807900D01*
X72745600Y-106966650D01*
X72491600Y-106966650D01*
X72332850Y-106807900D01*
X71768600Y-106804828D01*
X71644118Y-106817088D01*
X71524420Y-106853398D01*
X71414106Y-106912363D01*
X71317415Y-106991715D01*
X71238063Y-107088406D01*
X71179098Y-107198720D01*
X71156102Y-107274526D01*
X70959955Y-107097722D01*
X70709852Y-106948743D01*
X70435491Y-106851419D01*
X70205600Y-106972086D01*
X69951600Y-106972086D01*
X69721709Y-106851419D01*
X69447348Y-106948743D01*
X69197245Y-107097722D01*
X68981012Y-107292631D01*
X68806959Y-107525980D01*
X68681775Y-107788801D01*
X68637124Y-107936010D01*
X68402200Y-107936010D01*
X68402200Y-101422200D01*
X73660000Y-101422200D01*
X73684776Y-101419760D01*
X73708601Y-101412533D01*
X73730557Y-101400797D01*
X73749803Y-101385003D01*
X73765597Y-101365757D01*
X73777333Y-101343801D01*
X73784560Y-101319976D01*
X73787000Y-101295200D01*
X73787000Y-90652600D01*
X78379138Y-90652600D01*
X78403914Y-90650160D01*
X78427739Y-90642933D01*
X78449695Y-90631197D01*
X78468941Y-90615403D01*
X78484735Y-90596157D01*
X78496471Y-90574201D01*
X78503698Y-90550376D01*
X78506138Y-90525453D01*
X78493629Y-79717753D01*
X78491160Y-79692979D01*
X78483905Y-79669163D01*
X78472144Y-79647220D01*
X78456328Y-79627994D01*
X78437064Y-79612222D01*
X78415094Y-79600511D01*
X78391261Y-79593312D01*
X78366629Y-79590900D01*
X64427100Y-79590900D01*
X64427100Y-73240900D01*
X80079850Y-73240900D01*
X80080787Y-73240897D01*
X85115400Y-73203741D01*
X85115400Y-94945200D01*
G37*
G04 #@! TD.AperFunction*
M02*
