G04 #@! TF.GenerationSoftware,KiCad,Pcbnew,(5.1.9)-1*
G04 #@! TF.CreationDate,2021-06-08T08:09:59+01:00*
G04 #@! TF.ProjectId,Looper_Board,4c6f6f70-6572-45f4-926f-6172642e6b69,rev?*
G04 #@! TF.SameCoordinates,Original*
G04 #@! TF.FileFunction,Soldermask,Bot*
G04 #@! TF.FilePolarity,Negative*
%FSLAX46Y46*%
G04 Gerber Fmt 4.6, Leading zero omitted, Abs format (unit mm)*
G04 Created by KiCad (PCBNEW (5.1.9)-1) date 2021-06-08 08:09:59*
%MOMM*%
%LPD*%
G01*
G04 APERTURE LIST*
%ADD10C,1.500000*%
%ADD11R,1.700000X1.700000*%
%ADD12O,1.700000X1.700000*%
%ADD13O,1.250000X1.050000*%
%ADD14R,1.350000X0.400000*%
%ADD15O,1.900000X1.000000*%
%ADD16R,1.900000X2.900000*%
%ADD17R,1.900000X0.875000*%
%ADD18R,1.600000X1.400000*%
%ADD19R,1.060000X0.650000*%
%ADD20R,1.000000X1.600000*%
%ADD21C,0.787400*%
%ADD22C,2.374900*%
%ADD23C,0.990600*%
%ADD24R,2.500000X1.000000*%
%ADD25R,2.500000X2.500000*%
%ADD26R,2.000000X2.400000*%
%ADD27C,0.800000*%
%ADD28C,6.000000*%
G04 APERTURE END LIST*
G36*
G01*
X127458800Y-127637300D02*
X127458800Y-127487300D01*
G75*
G02*
X127533800Y-127412300I75000J0D01*
G01*
X128933800Y-127412300D01*
G75*
G02*
X129008800Y-127487300I0J-75000D01*
G01*
X129008800Y-127637300D01*
G75*
G02*
X128933800Y-127712300I-75000J0D01*
G01*
X127533800Y-127712300D01*
G75*
G02*
X127458800Y-127637300I0J75000D01*
G01*
G37*
G36*
G01*
X127458800Y-127137300D02*
X127458800Y-126987300D01*
G75*
G02*
X127533800Y-126912300I75000J0D01*
G01*
X128933800Y-126912300D01*
G75*
G02*
X129008800Y-126987300I0J-75000D01*
G01*
X129008800Y-127137300D01*
G75*
G02*
X128933800Y-127212300I-75000J0D01*
G01*
X127533800Y-127212300D01*
G75*
G02*
X127458800Y-127137300I0J75000D01*
G01*
G37*
G36*
G01*
X127458800Y-126637300D02*
X127458800Y-126487300D01*
G75*
G02*
X127533800Y-126412300I75000J0D01*
G01*
X128933800Y-126412300D01*
G75*
G02*
X129008800Y-126487300I0J-75000D01*
G01*
X129008800Y-126637300D01*
G75*
G02*
X128933800Y-126712300I-75000J0D01*
G01*
X127533800Y-126712300D01*
G75*
G02*
X127458800Y-126637300I0J75000D01*
G01*
G37*
G36*
G01*
X127458800Y-126137300D02*
X127458800Y-125987300D01*
G75*
G02*
X127533800Y-125912300I75000J0D01*
G01*
X128933800Y-125912300D01*
G75*
G02*
X129008800Y-125987300I0J-75000D01*
G01*
X129008800Y-126137300D01*
G75*
G02*
X128933800Y-126212300I-75000J0D01*
G01*
X127533800Y-126212300D01*
G75*
G02*
X127458800Y-126137300I0J75000D01*
G01*
G37*
G36*
G01*
X127458800Y-125637300D02*
X127458800Y-125487300D01*
G75*
G02*
X127533800Y-125412300I75000J0D01*
G01*
X128933800Y-125412300D01*
G75*
G02*
X129008800Y-125487300I0J-75000D01*
G01*
X129008800Y-125637300D01*
G75*
G02*
X128933800Y-125712300I-75000J0D01*
G01*
X127533800Y-125712300D01*
G75*
G02*
X127458800Y-125637300I0J75000D01*
G01*
G37*
G36*
G01*
X127458800Y-125137300D02*
X127458800Y-124987300D01*
G75*
G02*
X127533800Y-124912300I75000J0D01*
G01*
X128933800Y-124912300D01*
G75*
G02*
X129008800Y-124987300I0J-75000D01*
G01*
X129008800Y-125137300D01*
G75*
G02*
X128933800Y-125212300I-75000J0D01*
G01*
X127533800Y-125212300D01*
G75*
G02*
X127458800Y-125137300I0J75000D01*
G01*
G37*
G36*
G01*
X127458800Y-124637300D02*
X127458800Y-124487300D01*
G75*
G02*
X127533800Y-124412300I75000J0D01*
G01*
X128933800Y-124412300D01*
G75*
G02*
X129008800Y-124487300I0J-75000D01*
G01*
X129008800Y-124637300D01*
G75*
G02*
X128933800Y-124712300I-75000J0D01*
G01*
X127533800Y-124712300D01*
G75*
G02*
X127458800Y-124637300I0J75000D01*
G01*
G37*
G36*
G01*
X127458800Y-124137300D02*
X127458800Y-123987300D01*
G75*
G02*
X127533800Y-123912300I75000J0D01*
G01*
X128933800Y-123912300D01*
G75*
G02*
X129008800Y-123987300I0J-75000D01*
G01*
X129008800Y-124137300D01*
G75*
G02*
X128933800Y-124212300I-75000J0D01*
G01*
X127533800Y-124212300D01*
G75*
G02*
X127458800Y-124137300I0J75000D01*
G01*
G37*
G36*
G01*
X127458800Y-123637300D02*
X127458800Y-123487300D01*
G75*
G02*
X127533800Y-123412300I75000J0D01*
G01*
X128933800Y-123412300D01*
G75*
G02*
X129008800Y-123487300I0J-75000D01*
G01*
X129008800Y-123637300D01*
G75*
G02*
X128933800Y-123712300I-75000J0D01*
G01*
X127533800Y-123712300D01*
G75*
G02*
X127458800Y-123637300I0J75000D01*
G01*
G37*
G36*
G01*
X127458800Y-123137300D02*
X127458800Y-122987300D01*
G75*
G02*
X127533800Y-122912300I75000J0D01*
G01*
X128933800Y-122912300D01*
G75*
G02*
X129008800Y-122987300I0J-75000D01*
G01*
X129008800Y-123137300D01*
G75*
G02*
X128933800Y-123212300I-75000J0D01*
G01*
X127533800Y-123212300D01*
G75*
G02*
X127458800Y-123137300I0J75000D01*
G01*
G37*
G36*
G01*
X127458800Y-122637300D02*
X127458800Y-122487300D01*
G75*
G02*
X127533800Y-122412300I75000J0D01*
G01*
X128933800Y-122412300D01*
G75*
G02*
X129008800Y-122487300I0J-75000D01*
G01*
X129008800Y-122637300D01*
G75*
G02*
X128933800Y-122712300I-75000J0D01*
G01*
X127533800Y-122712300D01*
G75*
G02*
X127458800Y-122637300I0J75000D01*
G01*
G37*
G36*
G01*
X127458800Y-122137300D02*
X127458800Y-121987300D01*
G75*
G02*
X127533800Y-121912300I75000J0D01*
G01*
X128933800Y-121912300D01*
G75*
G02*
X129008800Y-121987300I0J-75000D01*
G01*
X129008800Y-122137300D01*
G75*
G02*
X128933800Y-122212300I-75000J0D01*
G01*
X127533800Y-122212300D01*
G75*
G02*
X127458800Y-122137300I0J75000D01*
G01*
G37*
G36*
G01*
X127458800Y-121637300D02*
X127458800Y-121487300D01*
G75*
G02*
X127533800Y-121412300I75000J0D01*
G01*
X128933800Y-121412300D01*
G75*
G02*
X129008800Y-121487300I0J-75000D01*
G01*
X129008800Y-121637300D01*
G75*
G02*
X128933800Y-121712300I-75000J0D01*
G01*
X127533800Y-121712300D01*
G75*
G02*
X127458800Y-121637300I0J75000D01*
G01*
G37*
G36*
G01*
X127458800Y-121137300D02*
X127458800Y-120987300D01*
G75*
G02*
X127533800Y-120912300I75000J0D01*
G01*
X128933800Y-120912300D01*
G75*
G02*
X129008800Y-120987300I0J-75000D01*
G01*
X129008800Y-121137300D01*
G75*
G02*
X128933800Y-121212300I-75000J0D01*
G01*
X127533800Y-121212300D01*
G75*
G02*
X127458800Y-121137300I0J75000D01*
G01*
G37*
G36*
G01*
X127458800Y-120637300D02*
X127458800Y-120487300D01*
G75*
G02*
X127533800Y-120412300I75000J0D01*
G01*
X128933800Y-120412300D01*
G75*
G02*
X129008800Y-120487300I0J-75000D01*
G01*
X129008800Y-120637300D01*
G75*
G02*
X128933800Y-120712300I-75000J0D01*
G01*
X127533800Y-120712300D01*
G75*
G02*
X127458800Y-120637300I0J75000D01*
G01*
G37*
G36*
G01*
X127458800Y-120137300D02*
X127458800Y-119987300D01*
G75*
G02*
X127533800Y-119912300I75000J0D01*
G01*
X128933800Y-119912300D01*
G75*
G02*
X129008800Y-119987300I0J-75000D01*
G01*
X129008800Y-120137300D01*
G75*
G02*
X128933800Y-120212300I-75000J0D01*
G01*
X127533800Y-120212300D01*
G75*
G02*
X127458800Y-120137300I0J75000D01*
G01*
G37*
G36*
G01*
X130008800Y-118837300D02*
X130008800Y-117437300D01*
G75*
G02*
X130083800Y-117362300I75000J0D01*
G01*
X130233800Y-117362300D01*
G75*
G02*
X130308800Y-117437300I0J-75000D01*
G01*
X130308800Y-118837300D01*
G75*
G02*
X130233800Y-118912300I-75000J0D01*
G01*
X130083800Y-118912300D01*
G75*
G02*
X130008800Y-118837300I0J75000D01*
G01*
G37*
G36*
G01*
X130508800Y-118837300D02*
X130508800Y-117437300D01*
G75*
G02*
X130583800Y-117362300I75000J0D01*
G01*
X130733800Y-117362300D01*
G75*
G02*
X130808800Y-117437300I0J-75000D01*
G01*
X130808800Y-118837300D01*
G75*
G02*
X130733800Y-118912300I-75000J0D01*
G01*
X130583800Y-118912300D01*
G75*
G02*
X130508800Y-118837300I0J75000D01*
G01*
G37*
G36*
G01*
X131008800Y-118837300D02*
X131008800Y-117437300D01*
G75*
G02*
X131083800Y-117362300I75000J0D01*
G01*
X131233800Y-117362300D01*
G75*
G02*
X131308800Y-117437300I0J-75000D01*
G01*
X131308800Y-118837300D01*
G75*
G02*
X131233800Y-118912300I-75000J0D01*
G01*
X131083800Y-118912300D01*
G75*
G02*
X131008800Y-118837300I0J75000D01*
G01*
G37*
G36*
G01*
X131508800Y-118837300D02*
X131508800Y-117437300D01*
G75*
G02*
X131583800Y-117362300I75000J0D01*
G01*
X131733800Y-117362300D01*
G75*
G02*
X131808800Y-117437300I0J-75000D01*
G01*
X131808800Y-118837300D01*
G75*
G02*
X131733800Y-118912300I-75000J0D01*
G01*
X131583800Y-118912300D01*
G75*
G02*
X131508800Y-118837300I0J75000D01*
G01*
G37*
G36*
G01*
X132008800Y-118837300D02*
X132008800Y-117437300D01*
G75*
G02*
X132083800Y-117362300I75000J0D01*
G01*
X132233800Y-117362300D01*
G75*
G02*
X132308800Y-117437300I0J-75000D01*
G01*
X132308800Y-118837300D01*
G75*
G02*
X132233800Y-118912300I-75000J0D01*
G01*
X132083800Y-118912300D01*
G75*
G02*
X132008800Y-118837300I0J75000D01*
G01*
G37*
G36*
G01*
X132508800Y-118837300D02*
X132508800Y-117437300D01*
G75*
G02*
X132583800Y-117362300I75000J0D01*
G01*
X132733800Y-117362300D01*
G75*
G02*
X132808800Y-117437300I0J-75000D01*
G01*
X132808800Y-118837300D01*
G75*
G02*
X132733800Y-118912300I-75000J0D01*
G01*
X132583800Y-118912300D01*
G75*
G02*
X132508800Y-118837300I0J75000D01*
G01*
G37*
G36*
G01*
X133008800Y-118837300D02*
X133008800Y-117437300D01*
G75*
G02*
X133083800Y-117362300I75000J0D01*
G01*
X133233800Y-117362300D01*
G75*
G02*
X133308800Y-117437300I0J-75000D01*
G01*
X133308800Y-118837300D01*
G75*
G02*
X133233800Y-118912300I-75000J0D01*
G01*
X133083800Y-118912300D01*
G75*
G02*
X133008800Y-118837300I0J75000D01*
G01*
G37*
G36*
G01*
X133508800Y-118837300D02*
X133508800Y-117437300D01*
G75*
G02*
X133583800Y-117362300I75000J0D01*
G01*
X133733800Y-117362300D01*
G75*
G02*
X133808800Y-117437300I0J-75000D01*
G01*
X133808800Y-118837300D01*
G75*
G02*
X133733800Y-118912300I-75000J0D01*
G01*
X133583800Y-118912300D01*
G75*
G02*
X133508800Y-118837300I0J75000D01*
G01*
G37*
G36*
G01*
X134008800Y-118837300D02*
X134008800Y-117437300D01*
G75*
G02*
X134083800Y-117362300I75000J0D01*
G01*
X134233800Y-117362300D01*
G75*
G02*
X134308800Y-117437300I0J-75000D01*
G01*
X134308800Y-118837300D01*
G75*
G02*
X134233800Y-118912300I-75000J0D01*
G01*
X134083800Y-118912300D01*
G75*
G02*
X134008800Y-118837300I0J75000D01*
G01*
G37*
G36*
G01*
X134508800Y-118837300D02*
X134508800Y-117437300D01*
G75*
G02*
X134583800Y-117362300I75000J0D01*
G01*
X134733800Y-117362300D01*
G75*
G02*
X134808800Y-117437300I0J-75000D01*
G01*
X134808800Y-118837300D01*
G75*
G02*
X134733800Y-118912300I-75000J0D01*
G01*
X134583800Y-118912300D01*
G75*
G02*
X134508800Y-118837300I0J75000D01*
G01*
G37*
G36*
G01*
X135008800Y-118837300D02*
X135008800Y-117437300D01*
G75*
G02*
X135083800Y-117362300I75000J0D01*
G01*
X135233800Y-117362300D01*
G75*
G02*
X135308800Y-117437300I0J-75000D01*
G01*
X135308800Y-118837300D01*
G75*
G02*
X135233800Y-118912300I-75000J0D01*
G01*
X135083800Y-118912300D01*
G75*
G02*
X135008800Y-118837300I0J75000D01*
G01*
G37*
G36*
G01*
X135508800Y-118837300D02*
X135508800Y-117437300D01*
G75*
G02*
X135583800Y-117362300I75000J0D01*
G01*
X135733800Y-117362300D01*
G75*
G02*
X135808800Y-117437300I0J-75000D01*
G01*
X135808800Y-118837300D01*
G75*
G02*
X135733800Y-118912300I-75000J0D01*
G01*
X135583800Y-118912300D01*
G75*
G02*
X135508800Y-118837300I0J75000D01*
G01*
G37*
G36*
G01*
X136008800Y-118837300D02*
X136008800Y-117437300D01*
G75*
G02*
X136083800Y-117362300I75000J0D01*
G01*
X136233800Y-117362300D01*
G75*
G02*
X136308800Y-117437300I0J-75000D01*
G01*
X136308800Y-118837300D01*
G75*
G02*
X136233800Y-118912300I-75000J0D01*
G01*
X136083800Y-118912300D01*
G75*
G02*
X136008800Y-118837300I0J75000D01*
G01*
G37*
G36*
G01*
X136508800Y-118837300D02*
X136508800Y-117437300D01*
G75*
G02*
X136583800Y-117362300I75000J0D01*
G01*
X136733800Y-117362300D01*
G75*
G02*
X136808800Y-117437300I0J-75000D01*
G01*
X136808800Y-118837300D01*
G75*
G02*
X136733800Y-118912300I-75000J0D01*
G01*
X136583800Y-118912300D01*
G75*
G02*
X136508800Y-118837300I0J75000D01*
G01*
G37*
G36*
G01*
X137008800Y-118837300D02*
X137008800Y-117437300D01*
G75*
G02*
X137083800Y-117362300I75000J0D01*
G01*
X137233800Y-117362300D01*
G75*
G02*
X137308800Y-117437300I0J-75000D01*
G01*
X137308800Y-118837300D01*
G75*
G02*
X137233800Y-118912300I-75000J0D01*
G01*
X137083800Y-118912300D01*
G75*
G02*
X137008800Y-118837300I0J75000D01*
G01*
G37*
G36*
G01*
X137508800Y-118837300D02*
X137508800Y-117437300D01*
G75*
G02*
X137583800Y-117362300I75000J0D01*
G01*
X137733800Y-117362300D01*
G75*
G02*
X137808800Y-117437300I0J-75000D01*
G01*
X137808800Y-118837300D01*
G75*
G02*
X137733800Y-118912300I-75000J0D01*
G01*
X137583800Y-118912300D01*
G75*
G02*
X137508800Y-118837300I0J75000D01*
G01*
G37*
G36*
G01*
X138808800Y-120137300D02*
X138808800Y-119987300D01*
G75*
G02*
X138883800Y-119912300I75000J0D01*
G01*
X140283800Y-119912300D01*
G75*
G02*
X140358800Y-119987300I0J-75000D01*
G01*
X140358800Y-120137300D01*
G75*
G02*
X140283800Y-120212300I-75000J0D01*
G01*
X138883800Y-120212300D01*
G75*
G02*
X138808800Y-120137300I0J75000D01*
G01*
G37*
G36*
G01*
X138808800Y-120637300D02*
X138808800Y-120487300D01*
G75*
G02*
X138883800Y-120412300I75000J0D01*
G01*
X140283800Y-120412300D01*
G75*
G02*
X140358800Y-120487300I0J-75000D01*
G01*
X140358800Y-120637300D01*
G75*
G02*
X140283800Y-120712300I-75000J0D01*
G01*
X138883800Y-120712300D01*
G75*
G02*
X138808800Y-120637300I0J75000D01*
G01*
G37*
G36*
G01*
X138808800Y-121137300D02*
X138808800Y-120987300D01*
G75*
G02*
X138883800Y-120912300I75000J0D01*
G01*
X140283800Y-120912300D01*
G75*
G02*
X140358800Y-120987300I0J-75000D01*
G01*
X140358800Y-121137300D01*
G75*
G02*
X140283800Y-121212300I-75000J0D01*
G01*
X138883800Y-121212300D01*
G75*
G02*
X138808800Y-121137300I0J75000D01*
G01*
G37*
G36*
G01*
X138808800Y-121637300D02*
X138808800Y-121487300D01*
G75*
G02*
X138883800Y-121412300I75000J0D01*
G01*
X140283800Y-121412300D01*
G75*
G02*
X140358800Y-121487300I0J-75000D01*
G01*
X140358800Y-121637300D01*
G75*
G02*
X140283800Y-121712300I-75000J0D01*
G01*
X138883800Y-121712300D01*
G75*
G02*
X138808800Y-121637300I0J75000D01*
G01*
G37*
G36*
G01*
X138808800Y-122137300D02*
X138808800Y-121987300D01*
G75*
G02*
X138883800Y-121912300I75000J0D01*
G01*
X140283800Y-121912300D01*
G75*
G02*
X140358800Y-121987300I0J-75000D01*
G01*
X140358800Y-122137300D01*
G75*
G02*
X140283800Y-122212300I-75000J0D01*
G01*
X138883800Y-122212300D01*
G75*
G02*
X138808800Y-122137300I0J75000D01*
G01*
G37*
G36*
G01*
X138808800Y-122637300D02*
X138808800Y-122487300D01*
G75*
G02*
X138883800Y-122412300I75000J0D01*
G01*
X140283800Y-122412300D01*
G75*
G02*
X140358800Y-122487300I0J-75000D01*
G01*
X140358800Y-122637300D01*
G75*
G02*
X140283800Y-122712300I-75000J0D01*
G01*
X138883800Y-122712300D01*
G75*
G02*
X138808800Y-122637300I0J75000D01*
G01*
G37*
G36*
G01*
X138808800Y-123137300D02*
X138808800Y-122987300D01*
G75*
G02*
X138883800Y-122912300I75000J0D01*
G01*
X140283800Y-122912300D01*
G75*
G02*
X140358800Y-122987300I0J-75000D01*
G01*
X140358800Y-123137300D01*
G75*
G02*
X140283800Y-123212300I-75000J0D01*
G01*
X138883800Y-123212300D01*
G75*
G02*
X138808800Y-123137300I0J75000D01*
G01*
G37*
G36*
G01*
X138808800Y-123637300D02*
X138808800Y-123487300D01*
G75*
G02*
X138883800Y-123412300I75000J0D01*
G01*
X140283800Y-123412300D01*
G75*
G02*
X140358800Y-123487300I0J-75000D01*
G01*
X140358800Y-123637300D01*
G75*
G02*
X140283800Y-123712300I-75000J0D01*
G01*
X138883800Y-123712300D01*
G75*
G02*
X138808800Y-123637300I0J75000D01*
G01*
G37*
G36*
G01*
X138808800Y-124137300D02*
X138808800Y-123987300D01*
G75*
G02*
X138883800Y-123912300I75000J0D01*
G01*
X140283800Y-123912300D01*
G75*
G02*
X140358800Y-123987300I0J-75000D01*
G01*
X140358800Y-124137300D01*
G75*
G02*
X140283800Y-124212300I-75000J0D01*
G01*
X138883800Y-124212300D01*
G75*
G02*
X138808800Y-124137300I0J75000D01*
G01*
G37*
G36*
G01*
X138808800Y-124637300D02*
X138808800Y-124487300D01*
G75*
G02*
X138883800Y-124412300I75000J0D01*
G01*
X140283800Y-124412300D01*
G75*
G02*
X140358800Y-124487300I0J-75000D01*
G01*
X140358800Y-124637300D01*
G75*
G02*
X140283800Y-124712300I-75000J0D01*
G01*
X138883800Y-124712300D01*
G75*
G02*
X138808800Y-124637300I0J75000D01*
G01*
G37*
G36*
G01*
X138808800Y-125137300D02*
X138808800Y-124987300D01*
G75*
G02*
X138883800Y-124912300I75000J0D01*
G01*
X140283800Y-124912300D01*
G75*
G02*
X140358800Y-124987300I0J-75000D01*
G01*
X140358800Y-125137300D01*
G75*
G02*
X140283800Y-125212300I-75000J0D01*
G01*
X138883800Y-125212300D01*
G75*
G02*
X138808800Y-125137300I0J75000D01*
G01*
G37*
G36*
G01*
X138808800Y-125637300D02*
X138808800Y-125487300D01*
G75*
G02*
X138883800Y-125412300I75000J0D01*
G01*
X140283800Y-125412300D01*
G75*
G02*
X140358800Y-125487300I0J-75000D01*
G01*
X140358800Y-125637300D01*
G75*
G02*
X140283800Y-125712300I-75000J0D01*
G01*
X138883800Y-125712300D01*
G75*
G02*
X138808800Y-125637300I0J75000D01*
G01*
G37*
G36*
G01*
X138808800Y-126137300D02*
X138808800Y-125987300D01*
G75*
G02*
X138883800Y-125912300I75000J0D01*
G01*
X140283800Y-125912300D01*
G75*
G02*
X140358800Y-125987300I0J-75000D01*
G01*
X140358800Y-126137300D01*
G75*
G02*
X140283800Y-126212300I-75000J0D01*
G01*
X138883800Y-126212300D01*
G75*
G02*
X138808800Y-126137300I0J75000D01*
G01*
G37*
G36*
G01*
X138808800Y-126637300D02*
X138808800Y-126487300D01*
G75*
G02*
X138883800Y-126412300I75000J0D01*
G01*
X140283800Y-126412300D01*
G75*
G02*
X140358800Y-126487300I0J-75000D01*
G01*
X140358800Y-126637300D01*
G75*
G02*
X140283800Y-126712300I-75000J0D01*
G01*
X138883800Y-126712300D01*
G75*
G02*
X138808800Y-126637300I0J75000D01*
G01*
G37*
G36*
G01*
X138808800Y-127137300D02*
X138808800Y-126987300D01*
G75*
G02*
X138883800Y-126912300I75000J0D01*
G01*
X140283800Y-126912300D01*
G75*
G02*
X140358800Y-126987300I0J-75000D01*
G01*
X140358800Y-127137300D01*
G75*
G02*
X140283800Y-127212300I-75000J0D01*
G01*
X138883800Y-127212300D01*
G75*
G02*
X138808800Y-127137300I0J75000D01*
G01*
G37*
G36*
G01*
X138808800Y-127637300D02*
X138808800Y-127487300D01*
G75*
G02*
X138883800Y-127412300I75000J0D01*
G01*
X140283800Y-127412300D01*
G75*
G02*
X140358800Y-127487300I0J-75000D01*
G01*
X140358800Y-127637300D01*
G75*
G02*
X140283800Y-127712300I-75000J0D01*
G01*
X138883800Y-127712300D01*
G75*
G02*
X138808800Y-127637300I0J75000D01*
G01*
G37*
G36*
G01*
X137508800Y-130187300D02*
X137508800Y-128787300D01*
G75*
G02*
X137583800Y-128712300I75000J0D01*
G01*
X137733800Y-128712300D01*
G75*
G02*
X137808800Y-128787300I0J-75000D01*
G01*
X137808800Y-130187300D01*
G75*
G02*
X137733800Y-130262300I-75000J0D01*
G01*
X137583800Y-130262300D01*
G75*
G02*
X137508800Y-130187300I0J75000D01*
G01*
G37*
G36*
G01*
X137008800Y-130187300D02*
X137008800Y-128787300D01*
G75*
G02*
X137083800Y-128712300I75000J0D01*
G01*
X137233800Y-128712300D01*
G75*
G02*
X137308800Y-128787300I0J-75000D01*
G01*
X137308800Y-130187300D01*
G75*
G02*
X137233800Y-130262300I-75000J0D01*
G01*
X137083800Y-130262300D01*
G75*
G02*
X137008800Y-130187300I0J75000D01*
G01*
G37*
G36*
G01*
X136508800Y-130187300D02*
X136508800Y-128787300D01*
G75*
G02*
X136583800Y-128712300I75000J0D01*
G01*
X136733800Y-128712300D01*
G75*
G02*
X136808800Y-128787300I0J-75000D01*
G01*
X136808800Y-130187300D01*
G75*
G02*
X136733800Y-130262300I-75000J0D01*
G01*
X136583800Y-130262300D01*
G75*
G02*
X136508800Y-130187300I0J75000D01*
G01*
G37*
G36*
G01*
X136008800Y-130187300D02*
X136008800Y-128787300D01*
G75*
G02*
X136083800Y-128712300I75000J0D01*
G01*
X136233800Y-128712300D01*
G75*
G02*
X136308800Y-128787300I0J-75000D01*
G01*
X136308800Y-130187300D01*
G75*
G02*
X136233800Y-130262300I-75000J0D01*
G01*
X136083800Y-130262300D01*
G75*
G02*
X136008800Y-130187300I0J75000D01*
G01*
G37*
G36*
G01*
X135508800Y-130187300D02*
X135508800Y-128787300D01*
G75*
G02*
X135583800Y-128712300I75000J0D01*
G01*
X135733800Y-128712300D01*
G75*
G02*
X135808800Y-128787300I0J-75000D01*
G01*
X135808800Y-130187300D01*
G75*
G02*
X135733800Y-130262300I-75000J0D01*
G01*
X135583800Y-130262300D01*
G75*
G02*
X135508800Y-130187300I0J75000D01*
G01*
G37*
G36*
G01*
X135008800Y-130187300D02*
X135008800Y-128787300D01*
G75*
G02*
X135083800Y-128712300I75000J0D01*
G01*
X135233800Y-128712300D01*
G75*
G02*
X135308800Y-128787300I0J-75000D01*
G01*
X135308800Y-130187300D01*
G75*
G02*
X135233800Y-130262300I-75000J0D01*
G01*
X135083800Y-130262300D01*
G75*
G02*
X135008800Y-130187300I0J75000D01*
G01*
G37*
G36*
G01*
X134508800Y-130187300D02*
X134508800Y-128787300D01*
G75*
G02*
X134583800Y-128712300I75000J0D01*
G01*
X134733800Y-128712300D01*
G75*
G02*
X134808800Y-128787300I0J-75000D01*
G01*
X134808800Y-130187300D01*
G75*
G02*
X134733800Y-130262300I-75000J0D01*
G01*
X134583800Y-130262300D01*
G75*
G02*
X134508800Y-130187300I0J75000D01*
G01*
G37*
G36*
G01*
X134008800Y-130187300D02*
X134008800Y-128787300D01*
G75*
G02*
X134083800Y-128712300I75000J0D01*
G01*
X134233800Y-128712300D01*
G75*
G02*
X134308800Y-128787300I0J-75000D01*
G01*
X134308800Y-130187300D01*
G75*
G02*
X134233800Y-130262300I-75000J0D01*
G01*
X134083800Y-130262300D01*
G75*
G02*
X134008800Y-130187300I0J75000D01*
G01*
G37*
G36*
G01*
X133508800Y-130187300D02*
X133508800Y-128787300D01*
G75*
G02*
X133583800Y-128712300I75000J0D01*
G01*
X133733800Y-128712300D01*
G75*
G02*
X133808800Y-128787300I0J-75000D01*
G01*
X133808800Y-130187300D01*
G75*
G02*
X133733800Y-130262300I-75000J0D01*
G01*
X133583800Y-130262300D01*
G75*
G02*
X133508800Y-130187300I0J75000D01*
G01*
G37*
G36*
G01*
X133008800Y-130187300D02*
X133008800Y-128787300D01*
G75*
G02*
X133083800Y-128712300I75000J0D01*
G01*
X133233800Y-128712300D01*
G75*
G02*
X133308800Y-128787300I0J-75000D01*
G01*
X133308800Y-130187300D01*
G75*
G02*
X133233800Y-130262300I-75000J0D01*
G01*
X133083800Y-130262300D01*
G75*
G02*
X133008800Y-130187300I0J75000D01*
G01*
G37*
G36*
G01*
X132508800Y-130187300D02*
X132508800Y-128787300D01*
G75*
G02*
X132583800Y-128712300I75000J0D01*
G01*
X132733800Y-128712300D01*
G75*
G02*
X132808800Y-128787300I0J-75000D01*
G01*
X132808800Y-130187300D01*
G75*
G02*
X132733800Y-130262300I-75000J0D01*
G01*
X132583800Y-130262300D01*
G75*
G02*
X132508800Y-130187300I0J75000D01*
G01*
G37*
G36*
G01*
X132008800Y-130187300D02*
X132008800Y-128787300D01*
G75*
G02*
X132083800Y-128712300I75000J0D01*
G01*
X132233800Y-128712300D01*
G75*
G02*
X132308800Y-128787300I0J-75000D01*
G01*
X132308800Y-130187300D01*
G75*
G02*
X132233800Y-130262300I-75000J0D01*
G01*
X132083800Y-130262300D01*
G75*
G02*
X132008800Y-130187300I0J75000D01*
G01*
G37*
G36*
G01*
X131508800Y-130187300D02*
X131508800Y-128787300D01*
G75*
G02*
X131583800Y-128712300I75000J0D01*
G01*
X131733800Y-128712300D01*
G75*
G02*
X131808800Y-128787300I0J-75000D01*
G01*
X131808800Y-130187300D01*
G75*
G02*
X131733800Y-130262300I-75000J0D01*
G01*
X131583800Y-130262300D01*
G75*
G02*
X131508800Y-130187300I0J75000D01*
G01*
G37*
G36*
G01*
X131008800Y-130187300D02*
X131008800Y-128787300D01*
G75*
G02*
X131083800Y-128712300I75000J0D01*
G01*
X131233800Y-128712300D01*
G75*
G02*
X131308800Y-128787300I0J-75000D01*
G01*
X131308800Y-130187300D01*
G75*
G02*
X131233800Y-130262300I-75000J0D01*
G01*
X131083800Y-130262300D01*
G75*
G02*
X131008800Y-130187300I0J75000D01*
G01*
G37*
G36*
G01*
X130508800Y-130187300D02*
X130508800Y-128787300D01*
G75*
G02*
X130583800Y-128712300I75000J0D01*
G01*
X130733800Y-128712300D01*
G75*
G02*
X130808800Y-128787300I0J-75000D01*
G01*
X130808800Y-130187300D01*
G75*
G02*
X130733800Y-130262300I-75000J0D01*
G01*
X130583800Y-130262300D01*
G75*
G02*
X130508800Y-130187300I0J75000D01*
G01*
G37*
G36*
G01*
X130008800Y-130187300D02*
X130008800Y-128787300D01*
G75*
G02*
X130083800Y-128712300I75000J0D01*
G01*
X130233800Y-128712300D01*
G75*
G02*
X130308800Y-128787300I0J-75000D01*
G01*
X130308800Y-130187300D01*
G75*
G02*
X130233800Y-130262300I-75000J0D01*
G01*
X130083800Y-130262300D01*
G75*
G02*
X130008800Y-130187300I0J75000D01*
G01*
G37*
D10*
X65874900Y-76073000D03*
X226288600Y-187591700D03*
D11*
X90360500Y-184099200D03*
D12*
X87820500Y-184099200D03*
G36*
G01*
X167693400Y-112360100D02*
X167383400Y-112360100D01*
G75*
G02*
X167228400Y-112205100I0J155000D01*
G01*
X167228400Y-111780100D01*
G75*
G02*
X167383400Y-111625100I155000J0D01*
G01*
X167693400Y-111625100D01*
G75*
G02*
X167848400Y-111780100I0J-155000D01*
G01*
X167848400Y-112205100D01*
G75*
G02*
X167693400Y-112360100I-155000J0D01*
G01*
G37*
G36*
G01*
X167693400Y-113495100D02*
X167383400Y-113495100D01*
G75*
G02*
X167228400Y-113340100I0J155000D01*
G01*
X167228400Y-112915100D01*
G75*
G02*
X167383400Y-112760100I155000J0D01*
G01*
X167693400Y-112760100D01*
G75*
G02*
X167848400Y-112915100I0J-155000D01*
G01*
X167848400Y-113340100D01*
G75*
G02*
X167693400Y-113495100I-155000J0D01*
G01*
G37*
G36*
G01*
X134573000Y-133359700D02*
X135048000Y-133359700D01*
G75*
G02*
X135285500Y-133597200I0J-237500D01*
G01*
X135285500Y-134197200D01*
G75*
G02*
X135048000Y-134434700I-237500J0D01*
G01*
X134573000Y-134434700D01*
G75*
G02*
X134335500Y-134197200I0J237500D01*
G01*
X134335500Y-133597200D01*
G75*
G02*
X134573000Y-133359700I237500J0D01*
G01*
G37*
G36*
G01*
X134573000Y-135084700D02*
X135048000Y-135084700D01*
G75*
G02*
X135285500Y-135322200I0J-237500D01*
G01*
X135285500Y-135922200D01*
G75*
G02*
X135048000Y-136159700I-237500J0D01*
G01*
X134573000Y-136159700D01*
G75*
G02*
X134335500Y-135922200I0J237500D01*
G01*
X134335500Y-135322200D01*
G75*
G02*
X134573000Y-135084700I237500J0D01*
G01*
G37*
G36*
G01*
X170893800Y-113495100D02*
X170583800Y-113495100D01*
G75*
G02*
X170428800Y-113340100I0J155000D01*
G01*
X170428800Y-112915100D01*
G75*
G02*
X170583800Y-112760100I155000J0D01*
G01*
X170893800Y-112760100D01*
G75*
G02*
X171048800Y-112915100I0J-155000D01*
G01*
X171048800Y-113340100D01*
G75*
G02*
X170893800Y-113495100I-155000J0D01*
G01*
G37*
G36*
G01*
X170893800Y-112360100D02*
X170583800Y-112360100D01*
G75*
G02*
X170428800Y-112205100I0J155000D01*
G01*
X170428800Y-111780100D01*
G75*
G02*
X170583800Y-111625100I155000J0D01*
G01*
X170893800Y-111625100D01*
G75*
G02*
X171048800Y-111780100I0J-155000D01*
G01*
X171048800Y-112205100D01*
G75*
G02*
X170893800Y-112360100I-155000J0D01*
G01*
G37*
G36*
G01*
X149736200Y-115834100D02*
X149736200Y-116144100D01*
G75*
G02*
X149581200Y-116299100I-155000J0D01*
G01*
X149156200Y-116299100D01*
G75*
G02*
X149001200Y-116144100I0J155000D01*
G01*
X149001200Y-115834100D01*
G75*
G02*
X149156200Y-115679100I155000J0D01*
G01*
X149581200Y-115679100D01*
G75*
G02*
X149736200Y-115834100I0J-155000D01*
G01*
G37*
G36*
G01*
X150871200Y-115834100D02*
X150871200Y-116144100D01*
G75*
G02*
X150716200Y-116299100I-155000J0D01*
G01*
X150291200Y-116299100D01*
G75*
G02*
X150136200Y-116144100I0J155000D01*
G01*
X150136200Y-115834100D01*
G75*
G02*
X150291200Y-115679100I155000J0D01*
G01*
X150716200Y-115679100D01*
G75*
G02*
X150871200Y-115834100I0J-155000D01*
G01*
G37*
G36*
G01*
X132489000Y-113147500D02*
X132179000Y-113147500D01*
G75*
G02*
X132024000Y-112992500I0J155000D01*
G01*
X132024000Y-112567500D01*
G75*
G02*
X132179000Y-112412500I155000J0D01*
G01*
X132489000Y-112412500D01*
G75*
G02*
X132644000Y-112567500I0J-155000D01*
G01*
X132644000Y-112992500D01*
G75*
G02*
X132489000Y-113147500I-155000J0D01*
G01*
G37*
G36*
G01*
X132489000Y-114282500D02*
X132179000Y-114282500D01*
G75*
G02*
X132024000Y-114127500I0J155000D01*
G01*
X132024000Y-113702500D01*
G75*
G02*
X132179000Y-113547500I155000J0D01*
G01*
X132489000Y-113547500D01*
G75*
G02*
X132644000Y-113702500I0J-155000D01*
G01*
X132644000Y-114127500D01*
G75*
G02*
X132489000Y-114282500I-155000J0D01*
G01*
G37*
G36*
G01*
X150136200Y-117287100D02*
X150136200Y-116977100D01*
G75*
G02*
X150291200Y-116822100I155000J0D01*
G01*
X150716200Y-116822100D01*
G75*
G02*
X150871200Y-116977100I0J-155000D01*
G01*
X150871200Y-117287100D01*
G75*
G02*
X150716200Y-117442100I-155000J0D01*
G01*
X150291200Y-117442100D01*
G75*
G02*
X150136200Y-117287100I0J155000D01*
G01*
G37*
G36*
G01*
X149001200Y-117287100D02*
X149001200Y-116977100D01*
G75*
G02*
X149156200Y-116822100I155000J0D01*
G01*
X149581200Y-116822100D01*
G75*
G02*
X149736200Y-116977100I0J-155000D01*
G01*
X149736200Y-117287100D01*
G75*
G02*
X149581200Y-117442100I-155000J0D01*
G01*
X149156200Y-117442100D01*
G75*
G02*
X149001200Y-117287100I0J155000D01*
G01*
G37*
G36*
G01*
X136306500Y-133215100D02*
X136616500Y-133215100D01*
G75*
G02*
X136771500Y-133370100I0J-155000D01*
G01*
X136771500Y-133795100D01*
G75*
G02*
X136616500Y-133950100I-155000J0D01*
G01*
X136306500Y-133950100D01*
G75*
G02*
X136151500Y-133795100I0J155000D01*
G01*
X136151500Y-133370100D01*
G75*
G02*
X136306500Y-133215100I155000J0D01*
G01*
G37*
G36*
G01*
X136306500Y-134350100D02*
X136616500Y-134350100D01*
G75*
G02*
X136771500Y-134505100I0J-155000D01*
G01*
X136771500Y-134930100D01*
G75*
G02*
X136616500Y-135085100I-155000J0D01*
G01*
X136306500Y-135085100D01*
G75*
G02*
X136151500Y-134930100I0J155000D01*
G01*
X136151500Y-134505100D01*
G75*
G02*
X136306500Y-134350100I155000J0D01*
G01*
G37*
G36*
G01*
X133759000Y-114282500D02*
X133449000Y-114282500D01*
G75*
G02*
X133294000Y-114127500I0J155000D01*
G01*
X133294000Y-113702500D01*
G75*
G02*
X133449000Y-113547500I155000J0D01*
G01*
X133759000Y-113547500D01*
G75*
G02*
X133914000Y-113702500I0J-155000D01*
G01*
X133914000Y-114127500D01*
G75*
G02*
X133759000Y-114282500I-155000J0D01*
G01*
G37*
G36*
G01*
X133759000Y-113147500D02*
X133449000Y-113147500D01*
G75*
G02*
X133294000Y-112992500I0J155000D01*
G01*
X133294000Y-112567500D01*
G75*
G02*
X133449000Y-112412500I155000J0D01*
G01*
X133759000Y-112412500D01*
G75*
G02*
X133914000Y-112567500I0J-155000D01*
G01*
X133914000Y-112992500D01*
G75*
G02*
X133759000Y-113147500I-155000J0D01*
G01*
G37*
G36*
G01*
X123413800Y-128089600D02*
X123413800Y-128399600D01*
G75*
G02*
X123258800Y-128554600I-155000J0D01*
G01*
X122833800Y-128554600D01*
G75*
G02*
X122678800Y-128399600I0J155000D01*
G01*
X122678800Y-128089600D01*
G75*
G02*
X122833800Y-127934600I155000J0D01*
G01*
X123258800Y-127934600D01*
G75*
G02*
X123413800Y-128089600I0J-155000D01*
G01*
G37*
G36*
G01*
X122278800Y-128089600D02*
X122278800Y-128399600D01*
G75*
G02*
X122123800Y-128554600I-155000J0D01*
G01*
X121698800Y-128554600D01*
G75*
G02*
X121543800Y-128399600I0J155000D01*
G01*
X121543800Y-128089600D01*
G75*
G02*
X121698800Y-127934600I155000J0D01*
G01*
X122123800Y-127934600D01*
G75*
G02*
X122278800Y-128089600I0J-155000D01*
G01*
G37*
G36*
G01*
X137576500Y-133215100D02*
X137886500Y-133215100D01*
G75*
G02*
X138041500Y-133370100I0J-155000D01*
G01*
X138041500Y-133795100D01*
G75*
G02*
X137886500Y-133950100I-155000J0D01*
G01*
X137576500Y-133950100D01*
G75*
G02*
X137421500Y-133795100I0J155000D01*
G01*
X137421500Y-133370100D01*
G75*
G02*
X137576500Y-133215100I155000J0D01*
G01*
G37*
G36*
G01*
X137576500Y-134350100D02*
X137886500Y-134350100D01*
G75*
G02*
X138041500Y-134505100I0J-155000D01*
G01*
X138041500Y-134930100D01*
G75*
G02*
X137886500Y-135085100I-155000J0D01*
G01*
X137576500Y-135085100D01*
G75*
G02*
X137421500Y-134930100I0J155000D01*
G01*
X137421500Y-134505100D01*
G75*
G02*
X137576500Y-134350100I155000J0D01*
G01*
G37*
G36*
G01*
X143659200Y-123230700D02*
X143659200Y-122920700D01*
G75*
G02*
X143814200Y-122765700I155000J0D01*
G01*
X144239200Y-122765700D01*
G75*
G02*
X144394200Y-122920700I0J-155000D01*
G01*
X144394200Y-123230700D01*
G75*
G02*
X144239200Y-123385700I-155000J0D01*
G01*
X143814200Y-123385700D01*
G75*
G02*
X143659200Y-123230700I0J155000D01*
G01*
G37*
G36*
G01*
X142524200Y-123230700D02*
X142524200Y-122920700D01*
G75*
G02*
X142679200Y-122765700I155000J0D01*
G01*
X143104200Y-122765700D01*
G75*
G02*
X143259200Y-122920700I0J-155000D01*
G01*
X143259200Y-123230700D01*
G75*
G02*
X143104200Y-123385700I-155000J0D01*
G01*
X142679200Y-123385700D01*
G75*
G02*
X142524200Y-123230700I0J155000D01*
G01*
G37*
G36*
G01*
X142524200Y-124386400D02*
X142524200Y-124076400D01*
G75*
G02*
X142679200Y-123921400I155000J0D01*
G01*
X143104200Y-123921400D01*
G75*
G02*
X143259200Y-124076400I0J-155000D01*
G01*
X143259200Y-124386400D01*
G75*
G02*
X143104200Y-124541400I-155000J0D01*
G01*
X142679200Y-124541400D01*
G75*
G02*
X142524200Y-124386400I0J155000D01*
G01*
G37*
G36*
G01*
X143659200Y-124386400D02*
X143659200Y-124076400D01*
G75*
G02*
X143814200Y-123921400I155000J0D01*
G01*
X144239200Y-123921400D01*
G75*
G02*
X144394200Y-124076400I0J-155000D01*
G01*
X144394200Y-124386400D01*
G75*
G02*
X144239200Y-124541400I-155000J0D01*
G01*
X143814200Y-124541400D01*
G75*
G02*
X143659200Y-124386400I0J155000D01*
G01*
G37*
G36*
G01*
X134965500Y-114295200D02*
X134655500Y-114295200D01*
G75*
G02*
X134500500Y-114140200I0J155000D01*
G01*
X134500500Y-113715200D01*
G75*
G02*
X134655500Y-113560200I155000J0D01*
G01*
X134965500Y-113560200D01*
G75*
G02*
X135120500Y-113715200I0J-155000D01*
G01*
X135120500Y-114140200D01*
G75*
G02*
X134965500Y-114295200I-155000J0D01*
G01*
G37*
G36*
G01*
X134965500Y-113160200D02*
X134655500Y-113160200D01*
G75*
G02*
X134500500Y-113005200I0J155000D01*
G01*
X134500500Y-112580200D01*
G75*
G02*
X134655500Y-112425200I155000J0D01*
G01*
X134965500Y-112425200D01*
G75*
G02*
X135120500Y-112580200I0J-155000D01*
G01*
X135120500Y-113005200D01*
G75*
G02*
X134965500Y-113160200I-155000J0D01*
G01*
G37*
G36*
G01*
X138846500Y-133215100D02*
X139156500Y-133215100D01*
G75*
G02*
X139311500Y-133370100I0J-155000D01*
G01*
X139311500Y-133795100D01*
G75*
G02*
X139156500Y-133950100I-155000J0D01*
G01*
X138846500Y-133950100D01*
G75*
G02*
X138691500Y-133795100I0J155000D01*
G01*
X138691500Y-133370100D01*
G75*
G02*
X138846500Y-133215100I155000J0D01*
G01*
G37*
G36*
G01*
X138846500Y-134350100D02*
X139156500Y-134350100D01*
G75*
G02*
X139311500Y-134505100I0J-155000D01*
G01*
X139311500Y-134930100D01*
G75*
G02*
X139156500Y-135085100I-155000J0D01*
G01*
X138846500Y-135085100D01*
G75*
G02*
X138691500Y-134930100I0J155000D01*
G01*
X138691500Y-134505100D01*
G75*
G02*
X138846500Y-134350100I155000J0D01*
G01*
G37*
G36*
G01*
X125826800Y-123149300D02*
X125826800Y-123459300D01*
G75*
G02*
X125671800Y-123614300I-155000J0D01*
G01*
X125246800Y-123614300D01*
G75*
G02*
X125091800Y-123459300I0J155000D01*
G01*
X125091800Y-123149300D01*
G75*
G02*
X125246800Y-122994300I155000J0D01*
G01*
X125671800Y-122994300D01*
G75*
G02*
X125826800Y-123149300I0J-155000D01*
G01*
G37*
G36*
G01*
X124691800Y-123149300D02*
X124691800Y-123459300D01*
G75*
G02*
X124536800Y-123614300I-155000J0D01*
G01*
X124111800Y-123614300D01*
G75*
G02*
X123956800Y-123459300I0J155000D01*
G01*
X123956800Y-123149300D01*
G75*
G02*
X124111800Y-122994300I155000J0D01*
G01*
X124536800Y-122994300D01*
G75*
G02*
X124691800Y-123149300I0J-155000D01*
G01*
G37*
G36*
G01*
X70157400Y-82667500D02*
X69847400Y-82667500D01*
G75*
G02*
X69692400Y-82512500I0J155000D01*
G01*
X69692400Y-82087500D01*
G75*
G02*
X69847400Y-81932500I155000J0D01*
G01*
X70157400Y-81932500D01*
G75*
G02*
X70312400Y-82087500I0J-155000D01*
G01*
X70312400Y-82512500D01*
G75*
G02*
X70157400Y-82667500I-155000J0D01*
G01*
G37*
G36*
G01*
X70157400Y-83802500D02*
X69847400Y-83802500D01*
G75*
G02*
X69692400Y-83647500I0J155000D01*
G01*
X69692400Y-83222500D01*
G75*
G02*
X69847400Y-83067500I155000J0D01*
G01*
X70157400Y-83067500D01*
G75*
G02*
X70312400Y-83222500I0J-155000D01*
G01*
X70312400Y-83647500D01*
G75*
G02*
X70157400Y-83802500I-155000J0D01*
G01*
G37*
G36*
G01*
X63833400Y-82966500D02*
X63833400Y-83276500D01*
G75*
G02*
X63678400Y-83431500I-155000J0D01*
G01*
X63253400Y-83431500D01*
G75*
G02*
X63098400Y-83276500I0J155000D01*
G01*
X63098400Y-82966500D01*
G75*
G02*
X63253400Y-82811500I155000J0D01*
G01*
X63678400Y-82811500D01*
G75*
G02*
X63833400Y-82966500I0J-155000D01*
G01*
G37*
G36*
G01*
X64968400Y-82966500D02*
X64968400Y-83276500D01*
G75*
G02*
X64813400Y-83431500I-155000J0D01*
G01*
X64388400Y-83431500D01*
G75*
G02*
X64233400Y-83276500I0J155000D01*
G01*
X64233400Y-82966500D01*
G75*
G02*
X64388400Y-82811500I155000J0D01*
G01*
X64813400Y-82811500D01*
G75*
G02*
X64968400Y-82966500I0J-155000D01*
G01*
G37*
G36*
G01*
X180279700Y-137373300D02*
X180279700Y-137683300D01*
G75*
G02*
X180124700Y-137838300I-155000J0D01*
G01*
X179699700Y-137838300D01*
G75*
G02*
X179544700Y-137683300I0J155000D01*
G01*
X179544700Y-137373300D01*
G75*
G02*
X179699700Y-137218300I155000J0D01*
G01*
X180124700Y-137218300D01*
G75*
G02*
X180279700Y-137373300I0J-155000D01*
G01*
G37*
G36*
G01*
X181414700Y-137373300D02*
X181414700Y-137683300D01*
G75*
G02*
X181259700Y-137838300I-155000J0D01*
G01*
X180834700Y-137838300D01*
G75*
G02*
X180679700Y-137683300I0J155000D01*
G01*
X180679700Y-137373300D01*
G75*
G02*
X180834700Y-137218300I155000J0D01*
G01*
X181259700Y-137218300D01*
G75*
G02*
X181414700Y-137373300I0J-155000D01*
G01*
G37*
G36*
G01*
X137284750Y-106445800D02*
X137797250Y-106445800D01*
G75*
G02*
X138016000Y-106664550I0J-218750D01*
G01*
X138016000Y-107102050D01*
G75*
G02*
X137797250Y-107320800I-218750J0D01*
G01*
X137284750Y-107320800D01*
G75*
G02*
X137066000Y-107102050I0J218750D01*
G01*
X137066000Y-106664550D01*
G75*
G02*
X137284750Y-106445800I218750J0D01*
G01*
G37*
G36*
G01*
X137284750Y-104870800D02*
X137797250Y-104870800D01*
G75*
G02*
X138016000Y-105089550I0J-218750D01*
G01*
X138016000Y-105527050D01*
G75*
G02*
X137797250Y-105745800I-218750J0D01*
G01*
X137284750Y-105745800D01*
G75*
G02*
X137066000Y-105527050I0J218750D01*
G01*
X137066000Y-105089550D01*
G75*
G02*
X137284750Y-104870800I218750J0D01*
G01*
G37*
G36*
G01*
X140180350Y-104921600D02*
X140692850Y-104921600D01*
G75*
G02*
X140911600Y-105140350I0J-218750D01*
G01*
X140911600Y-105577850D01*
G75*
G02*
X140692850Y-105796600I-218750J0D01*
G01*
X140180350Y-105796600D01*
G75*
G02*
X139961600Y-105577850I0J218750D01*
G01*
X139961600Y-105140350D01*
G75*
G02*
X140180350Y-104921600I218750J0D01*
G01*
G37*
G36*
G01*
X140180350Y-106496600D02*
X140692850Y-106496600D01*
G75*
G02*
X140911600Y-106715350I0J-218750D01*
G01*
X140911600Y-107152850D01*
G75*
G02*
X140692850Y-107371600I-218750J0D01*
G01*
X140180350Y-107371600D01*
G75*
G02*
X139961600Y-107152850I0J218750D01*
G01*
X139961600Y-106715350D01*
G75*
G02*
X140180350Y-106496600I218750J0D01*
G01*
G37*
G36*
G01*
X76434400Y-85468750D02*
X76434400Y-85981250D01*
G75*
G02*
X76215650Y-86200000I-218750J0D01*
G01*
X75778150Y-86200000D01*
G75*
G02*
X75559400Y-85981250I0J218750D01*
G01*
X75559400Y-85468750D01*
G75*
G02*
X75778150Y-85250000I218750J0D01*
G01*
X76215650Y-85250000D01*
G75*
G02*
X76434400Y-85468750I0J-218750D01*
G01*
G37*
G36*
G01*
X74859400Y-85468750D02*
X74859400Y-85981250D01*
G75*
G02*
X74640650Y-86200000I-218750J0D01*
G01*
X74203150Y-86200000D01*
G75*
G02*
X73984400Y-85981250I0J218750D01*
G01*
X73984400Y-85468750D01*
G75*
G02*
X74203150Y-85250000I218750J0D01*
G01*
X74640650Y-85250000D01*
G75*
G02*
X74859400Y-85468750I0J-218750D01*
G01*
G37*
G36*
G01*
X122179500Y-126789601D02*
X122179500Y-125889599D01*
G75*
G02*
X122429499Y-125639600I249999J0D01*
G01*
X123079501Y-125639600D01*
G75*
G02*
X123329500Y-125889599I0J-249999D01*
G01*
X123329500Y-126789601D01*
G75*
G02*
X123079501Y-127039600I-249999J0D01*
G01*
X122429499Y-127039600D01*
G75*
G02*
X122179500Y-126789601I0J249999D01*
G01*
G37*
G36*
G01*
X120129500Y-126789601D02*
X120129500Y-125889599D01*
G75*
G02*
X120379499Y-125639600I249999J0D01*
G01*
X121029501Y-125639600D01*
G75*
G02*
X121279500Y-125889599I0J-249999D01*
G01*
X121279500Y-126789601D01*
G75*
G02*
X121029501Y-127039600I-249999J0D01*
G01*
X120379499Y-127039600D01*
G75*
G02*
X120129500Y-126789601I0J249999D01*
G01*
G37*
G36*
G01*
X65488399Y-78156000D02*
X66388401Y-78156000D01*
G75*
G02*
X66638400Y-78405999I0J-249999D01*
G01*
X66638400Y-79056001D01*
G75*
G02*
X66388401Y-79306000I-249999J0D01*
G01*
X65488399Y-79306000D01*
G75*
G02*
X65238400Y-79056001I0J249999D01*
G01*
X65238400Y-78405999D01*
G75*
G02*
X65488399Y-78156000I249999J0D01*
G01*
G37*
G36*
G01*
X65488399Y-80206000D02*
X66388401Y-80206000D01*
G75*
G02*
X66638400Y-80455999I0J-249999D01*
G01*
X66638400Y-81106001D01*
G75*
G02*
X66388401Y-81356000I-249999J0D01*
G01*
X65488399Y-81356000D01*
G75*
G02*
X65238400Y-81106001I0J249999D01*
G01*
X65238400Y-80455999D01*
G75*
G02*
X65488399Y-80206000I249999J0D01*
G01*
G37*
D11*
X72720200Y-162267900D03*
D12*
X70180200Y-162267900D03*
X72720200Y-164807900D03*
X70180200Y-164807900D03*
X72720200Y-167347900D03*
X70180200Y-167347900D03*
X72720200Y-169887900D03*
X70180200Y-169887900D03*
X72720200Y-172427900D03*
X70180200Y-172427900D03*
X72720200Y-174967900D03*
X70180200Y-174967900D03*
X72720200Y-177507900D03*
X70180200Y-177507900D03*
X113804700Y-111937800D03*
X111264700Y-111937800D03*
D11*
X108724700Y-111937800D03*
X114096800Y-120116600D03*
D12*
X111556800Y-120116600D03*
X109016800Y-120116600D03*
D13*
X64366400Y-100777000D03*
D14*
X64041400Y-99852000D03*
X64041400Y-99202000D03*
X64041400Y-98552000D03*
X64041400Y-97252000D03*
D13*
X64366400Y-96327000D03*
D15*
X61366400Y-102727000D03*
X61366400Y-94377000D03*
D14*
X64041400Y-97902000D03*
D16*
X61366400Y-98552000D03*
D17*
X61366400Y-94814500D03*
X61366400Y-102289500D03*
D11*
X72593200Y-49237900D03*
D12*
X70053200Y-49237900D03*
X72593200Y-51777900D03*
X70053200Y-51777900D03*
X72593200Y-54317900D03*
X70053200Y-54317900D03*
X72593200Y-56857900D03*
X70053200Y-56857900D03*
D11*
X142036800Y-142151100D03*
D12*
X144576800Y-142151100D03*
D11*
X72567800Y-140296900D03*
D12*
X70027800Y-140296900D03*
X72567800Y-142836900D03*
X70027800Y-142836900D03*
X72567800Y-145376900D03*
X70027800Y-145376900D03*
X72567800Y-147916900D03*
X70027800Y-147916900D03*
X72567800Y-150456900D03*
X70027800Y-150456900D03*
X72567800Y-152996900D03*
X70027800Y-152996900D03*
D11*
X180543200Y-142925800D03*
D12*
X183083200Y-142925800D03*
X183172100Y-147243800D03*
D11*
X180632100Y-147243800D03*
G36*
G01*
X83212900Y-51490900D02*
X83212900Y-51810900D01*
G75*
G02*
X83052900Y-51970900I-160000J0D01*
G01*
X82657900Y-51970900D01*
G75*
G02*
X82497900Y-51810900I0J160000D01*
G01*
X82497900Y-51490900D01*
G75*
G02*
X82657900Y-51330900I160000J0D01*
G01*
X83052900Y-51330900D01*
G75*
G02*
X83212900Y-51490900I0J-160000D01*
G01*
G37*
G36*
G01*
X82017900Y-51490900D02*
X82017900Y-51810900D01*
G75*
G02*
X81857900Y-51970900I-160000J0D01*
G01*
X81462900Y-51970900D01*
G75*
G02*
X81302900Y-51810900I0J160000D01*
G01*
X81302900Y-51490900D01*
G75*
G02*
X81462900Y-51330900I160000J0D01*
G01*
X81857900Y-51330900D01*
G75*
G02*
X82017900Y-51490900I0J-160000D01*
G01*
G37*
G36*
G01*
X82523300Y-53080900D02*
X82523300Y-52760900D01*
G75*
G02*
X82683300Y-52600900I160000J0D01*
G01*
X83078300Y-52600900D01*
G75*
G02*
X83238300Y-52760900I0J-160000D01*
G01*
X83238300Y-53080900D01*
G75*
G02*
X83078300Y-53240900I-160000J0D01*
G01*
X82683300Y-53240900D01*
G75*
G02*
X82523300Y-53080900I0J160000D01*
G01*
G37*
G36*
G01*
X81328300Y-53080900D02*
X81328300Y-52760900D01*
G75*
G02*
X81488300Y-52600900I160000J0D01*
G01*
X81883300Y-52600900D01*
G75*
G02*
X82043300Y-52760900I0J-160000D01*
G01*
X82043300Y-53080900D01*
G75*
G02*
X81883300Y-53240900I-160000J0D01*
G01*
X81488300Y-53240900D01*
G75*
G02*
X81328300Y-53080900I0J160000D01*
G01*
G37*
G36*
G01*
X128364000Y-110970100D02*
X128684000Y-110970100D01*
G75*
G02*
X128844000Y-111130100I0J-160000D01*
G01*
X128844000Y-111525100D01*
G75*
G02*
X128684000Y-111685100I-160000J0D01*
G01*
X128364000Y-111685100D01*
G75*
G02*
X128204000Y-111525100I0J160000D01*
G01*
X128204000Y-111130100D01*
G75*
G02*
X128364000Y-110970100I160000J0D01*
G01*
G37*
G36*
G01*
X128364000Y-112165100D02*
X128684000Y-112165100D01*
G75*
G02*
X128844000Y-112325100I0J-160000D01*
G01*
X128844000Y-112720100D01*
G75*
G02*
X128684000Y-112880100I-160000J0D01*
G01*
X128364000Y-112880100D01*
G75*
G02*
X128204000Y-112720100I0J160000D01*
G01*
X128204000Y-112325100D01*
G75*
G02*
X128364000Y-112165100I160000J0D01*
G01*
G37*
G36*
G01*
X83030100Y-166923700D02*
X83030100Y-166603700D01*
G75*
G02*
X83190100Y-166443700I160000J0D01*
G01*
X83585100Y-166443700D01*
G75*
G02*
X83745100Y-166603700I0J-160000D01*
G01*
X83745100Y-166923700D01*
G75*
G02*
X83585100Y-167083700I-160000J0D01*
G01*
X83190100Y-167083700D01*
G75*
G02*
X83030100Y-166923700I0J160000D01*
G01*
G37*
G36*
G01*
X84225100Y-166923700D02*
X84225100Y-166603700D01*
G75*
G02*
X84385100Y-166443700I160000J0D01*
G01*
X84780100Y-166443700D01*
G75*
G02*
X84940100Y-166603700I0J-160000D01*
G01*
X84940100Y-166923700D01*
G75*
G02*
X84780100Y-167083700I-160000J0D01*
G01*
X84385100Y-167083700D01*
G75*
G02*
X84225100Y-166923700I0J160000D01*
G01*
G37*
G36*
G01*
X83707000Y-168013400D02*
X83707000Y-168333400D01*
G75*
G02*
X83547000Y-168493400I-160000J0D01*
G01*
X83152000Y-168493400D01*
G75*
G02*
X82992000Y-168333400I0J160000D01*
G01*
X82992000Y-168013400D01*
G75*
G02*
X83152000Y-167853400I160000J0D01*
G01*
X83547000Y-167853400D01*
G75*
G02*
X83707000Y-168013400I0J-160000D01*
G01*
G37*
G36*
G01*
X84902000Y-168013400D02*
X84902000Y-168333400D01*
G75*
G02*
X84742000Y-168493400I-160000J0D01*
G01*
X84347000Y-168493400D01*
G75*
G02*
X84187000Y-168333400I0J160000D01*
G01*
X84187000Y-168013400D01*
G75*
G02*
X84347000Y-167853400I160000J0D01*
G01*
X84742000Y-167853400D01*
G75*
G02*
X84902000Y-168013400I0J-160000D01*
G01*
G37*
G36*
G01*
X84390200Y-177579000D02*
X84390200Y-177259000D01*
G75*
G02*
X84550200Y-177099000I160000J0D01*
G01*
X84945200Y-177099000D01*
G75*
G02*
X85105200Y-177259000I0J-160000D01*
G01*
X85105200Y-177579000D01*
G75*
G02*
X84945200Y-177739000I-160000J0D01*
G01*
X84550200Y-177739000D01*
G75*
G02*
X84390200Y-177579000I0J160000D01*
G01*
G37*
G36*
G01*
X83195200Y-177579000D02*
X83195200Y-177259000D01*
G75*
G02*
X83355200Y-177099000I160000J0D01*
G01*
X83750200Y-177099000D01*
G75*
G02*
X83910200Y-177259000I0J-160000D01*
G01*
X83910200Y-177579000D01*
G75*
G02*
X83750200Y-177739000I-160000J0D01*
G01*
X83355200Y-177739000D01*
G75*
G02*
X83195200Y-177579000I0J160000D01*
G01*
G37*
G36*
G01*
X85105200Y-178656000D02*
X85105200Y-178976000D01*
G75*
G02*
X84945200Y-179136000I-160000J0D01*
G01*
X84550200Y-179136000D01*
G75*
G02*
X84390200Y-178976000I0J160000D01*
G01*
X84390200Y-178656000D01*
G75*
G02*
X84550200Y-178496000I160000J0D01*
G01*
X84945200Y-178496000D01*
G75*
G02*
X85105200Y-178656000I0J-160000D01*
G01*
G37*
G36*
G01*
X83910200Y-178656000D02*
X83910200Y-178976000D01*
G75*
G02*
X83750200Y-179136000I-160000J0D01*
G01*
X83355200Y-179136000D01*
G75*
G02*
X83195200Y-178976000I0J160000D01*
G01*
X83195200Y-178656000D01*
G75*
G02*
X83355200Y-178496000I160000J0D01*
G01*
X83750200Y-178496000D01*
G75*
G02*
X83910200Y-178656000I0J-160000D01*
G01*
G37*
G36*
G01*
X129761000Y-110970100D02*
X130081000Y-110970100D01*
G75*
G02*
X130241000Y-111130100I0J-160000D01*
G01*
X130241000Y-111525100D01*
G75*
G02*
X130081000Y-111685100I-160000J0D01*
G01*
X129761000Y-111685100D01*
G75*
G02*
X129601000Y-111525100I0J160000D01*
G01*
X129601000Y-111130100D01*
G75*
G02*
X129761000Y-110970100I160000J0D01*
G01*
G37*
G36*
G01*
X129761000Y-112165100D02*
X130081000Y-112165100D01*
G75*
G02*
X130241000Y-112325100I0J-160000D01*
G01*
X130241000Y-112720100D01*
G75*
G02*
X130081000Y-112880100I-160000J0D01*
G01*
X129761000Y-112880100D01*
G75*
G02*
X129601000Y-112720100I0J160000D01*
G01*
X129601000Y-112325100D01*
G75*
G02*
X129761000Y-112165100I160000J0D01*
G01*
G37*
G36*
G01*
X137688300Y-102249000D02*
X137368300Y-102249000D01*
G75*
G02*
X137208300Y-102089000I0J160000D01*
G01*
X137208300Y-101694000D01*
G75*
G02*
X137368300Y-101534000I160000J0D01*
G01*
X137688300Y-101534000D01*
G75*
G02*
X137848300Y-101694000I0J-160000D01*
G01*
X137848300Y-102089000D01*
G75*
G02*
X137688300Y-102249000I-160000J0D01*
G01*
G37*
G36*
G01*
X137688300Y-103444000D02*
X137368300Y-103444000D01*
G75*
G02*
X137208300Y-103284000I0J160000D01*
G01*
X137208300Y-102889000D01*
G75*
G02*
X137368300Y-102729000I160000J0D01*
G01*
X137688300Y-102729000D01*
G75*
G02*
X137848300Y-102889000I0J-160000D01*
G01*
X137848300Y-103284000D01*
G75*
G02*
X137688300Y-103444000I-160000J0D01*
G01*
G37*
G36*
G01*
X140622000Y-102261700D02*
X140302000Y-102261700D01*
G75*
G02*
X140142000Y-102101700I0J160000D01*
G01*
X140142000Y-101706700D01*
G75*
G02*
X140302000Y-101546700I160000J0D01*
G01*
X140622000Y-101546700D01*
G75*
G02*
X140782000Y-101706700I0J-160000D01*
G01*
X140782000Y-102101700D01*
G75*
G02*
X140622000Y-102261700I-160000J0D01*
G01*
G37*
G36*
G01*
X140622000Y-103456700D02*
X140302000Y-103456700D01*
G75*
G02*
X140142000Y-103296700I0J160000D01*
G01*
X140142000Y-102901700D01*
G75*
G02*
X140302000Y-102741700I160000J0D01*
G01*
X140622000Y-102741700D01*
G75*
G02*
X140782000Y-102901700I0J-160000D01*
G01*
X140782000Y-103296700D01*
G75*
G02*
X140622000Y-103456700I-160000J0D01*
G01*
G37*
G36*
G01*
X168488400Y-120086100D02*
X168488400Y-119766100D01*
G75*
G02*
X168648400Y-119606100I160000J0D01*
G01*
X169043400Y-119606100D01*
G75*
G02*
X169203400Y-119766100I0J-160000D01*
G01*
X169203400Y-120086100D01*
G75*
G02*
X169043400Y-120246100I-160000J0D01*
G01*
X168648400Y-120246100D01*
G75*
G02*
X168488400Y-120086100I0J160000D01*
G01*
G37*
G36*
G01*
X169683400Y-120086100D02*
X169683400Y-119766100D01*
G75*
G02*
X169843400Y-119606100I160000J0D01*
G01*
X170238400Y-119606100D01*
G75*
G02*
X170398400Y-119766100I0J-160000D01*
G01*
X170398400Y-120086100D01*
G75*
G02*
X170238400Y-120246100I-160000J0D01*
G01*
X169843400Y-120246100D01*
G75*
G02*
X169683400Y-120086100I0J160000D01*
G01*
G37*
G36*
G01*
X72274400Y-85885000D02*
X72274400Y-85565000D01*
G75*
G02*
X72434400Y-85405000I160000J0D01*
G01*
X72829400Y-85405000D01*
G75*
G02*
X72989400Y-85565000I0J-160000D01*
G01*
X72989400Y-85885000D01*
G75*
G02*
X72829400Y-86045000I-160000J0D01*
G01*
X72434400Y-86045000D01*
G75*
G02*
X72274400Y-85885000I0J160000D01*
G01*
G37*
G36*
G01*
X71079400Y-85885000D02*
X71079400Y-85565000D01*
G75*
G02*
X71239400Y-85405000I160000J0D01*
G01*
X71634400Y-85405000D01*
G75*
G02*
X71794400Y-85565000I0J-160000D01*
G01*
X71794400Y-85885000D01*
G75*
G02*
X71634400Y-86045000I-160000J0D01*
G01*
X71239400Y-86045000D01*
G75*
G02*
X71079400Y-85885000I0J160000D01*
G01*
G37*
G36*
G01*
X164730400Y-146819600D02*
X164730400Y-146499600D01*
G75*
G02*
X164890400Y-146339600I160000J0D01*
G01*
X165285400Y-146339600D01*
G75*
G02*
X165445400Y-146499600I0J-160000D01*
G01*
X165445400Y-146819600D01*
G75*
G02*
X165285400Y-146979600I-160000J0D01*
G01*
X164890400Y-146979600D01*
G75*
G02*
X164730400Y-146819600I0J160000D01*
G01*
G37*
G36*
G01*
X163535400Y-146819600D02*
X163535400Y-146499600D01*
G75*
G02*
X163695400Y-146339600I160000J0D01*
G01*
X164090400Y-146339600D01*
G75*
G02*
X164250400Y-146499600I0J-160000D01*
G01*
X164250400Y-146819600D01*
G75*
G02*
X164090400Y-146979600I-160000J0D01*
G01*
X163695400Y-146979600D01*
G75*
G02*
X163535400Y-146819600I0J160000D01*
G01*
G37*
G36*
G01*
X163573500Y-145130500D02*
X163573500Y-144810500D01*
G75*
G02*
X163733500Y-144650500I160000J0D01*
G01*
X164128500Y-144650500D01*
G75*
G02*
X164288500Y-144810500I0J-160000D01*
G01*
X164288500Y-145130500D01*
G75*
G02*
X164128500Y-145290500I-160000J0D01*
G01*
X163733500Y-145290500D01*
G75*
G02*
X163573500Y-145130500I0J160000D01*
G01*
G37*
G36*
G01*
X164768500Y-145130500D02*
X164768500Y-144810500D01*
G75*
G02*
X164928500Y-144650500I160000J0D01*
G01*
X165323500Y-144650500D01*
G75*
G02*
X165483500Y-144810500I0J-160000D01*
G01*
X165483500Y-145130500D01*
G75*
G02*
X165323500Y-145290500I-160000J0D01*
G01*
X164928500Y-145290500D01*
G75*
G02*
X164768500Y-145130500I0J160000D01*
G01*
G37*
G36*
G01*
X68845400Y-96807000D02*
X68845400Y-96487000D01*
G75*
G02*
X69005400Y-96327000I160000J0D01*
G01*
X69400400Y-96327000D01*
G75*
G02*
X69560400Y-96487000I0J-160000D01*
G01*
X69560400Y-96807000D01*
G75*
G02*
X69400400Y-96967000I-160000J0D01*
G01*
X69005400Y-96967000D01*
G75*
G02*
X68845400Y-96807000I0J160000D01*
G01*
G37*
G36*
G01*
X67650400Y-96807000D02*
X67650400Y-96487000D01*
G75*
G02*
X67810400Y-96327000I160000J0D01*
G01*
X68205400Y-96327000D01*
G75*
G02*
X68365400Y-96487000I0J-160000D01*
G01*
X68365400Y-96807000D01*
G75*
G02*
X68205400Y-96967000I-160000J0D01*
G01*
X67810400Y-96967000D01*
G75*
G02*
X67650400Y-96807000I0J160000D01*
G01*
G37*
G36*
G01*
X67612300Y-99880400D02*
X67612300Y-99560400D01*
G75*
G02*
X67772300Y-99400400I160000J0D01*
G01*
X68167300Y-99400400D01*
G75*
G02*
X68327300Y-99560400I0J-160000D01*
G01*
X68327300Y-99880400D01*
G75*
G02*
X68167300Y-100040400I-160000J0D01*
G01*
X67772300Y-100040400D01*
G75*
G02*
X67612300Y-99880400I0J160000D01*
G01*
G37*
G36*
G01*
X68807300Y-99880400D02*
X68807300Y-99560400D01*
G75*
G02*
X68967300Y-99400400I160000J0D01*
G01*
X69362300Y-99400400D01*
G75*
G02*
X69522300Y-99560400I0J-160000D01*
G01*
X69522300Y-99880400D01*
G75*
G02*
X69362300Y-100040400I-160000J0D01*
G01*
X68967300Y-100040400D01*
G75*
G02*
X68807300Y-99880400I0J160000D01*
G01*
G37*
G36*
G01*
X180656200Y-139085300D02*
X180656200Y-138765300D01*
G75*
G02*
X180816200Y-138605300I160000J0D01*
G01*
X181211200Y-138605300D01*
G75*
G02*
X181371200Y-138765300I0J-160000D01*
G01*
X181371200Y-139085300D01*
G75*
G02*
X181211200Y-139245300I-160000J0D01*
G01*
X180816200Y-139245300D01*
G75*
G02*
X180656200Y-139085300I0J160000D01*
G01*
G37*
G36*
G01*
X179461200Y-139085300D02*
X179461200Y-138765300D01*
G75*
G02*
X179621200Y-138605300I160000J0D01*
G01*
X180016200Y-138605300D01*
G75*
G02*
X180176200Y-138765300I0J-160000D01*
G01*
X180176200Y-139085300D01*
G75*
G02*
X180016200Y-139245300I-160000J0D01*
G01*
X179621200Y-139245300D01*
G75*
G02*
X179461200Y-139085300I0J160000D01*
G01*
G37*
D18*
X184544200Y-131468300D03*
X192544200Y-131468300D03*
X184544200Y-135968300D03*
X192544200Y-135968300D03*
D10*
X138785600Y-112001300D03*
X152869900Y-113030000D03*
X73748900Y-88480900D03*
X75742800Y-70637400D03*
X229057200Y-48577500D03*
X62725300Y-80594200D03*
D19*
X67314900Y-88008500D03*
X67314900Y-87058500D03*
X67314900Y-86108500D03*
X69514900Y-86108500D03*
X69514900Y-88008500D03*
G36*
G01*
X70061400Y-91572750D02*
X70061400Y-91785250D01*
G75*
G02*
X69967650Y-91879000I-93750J0D01*
G01*
X69780150Y-91879000D01*
G75*
G02*
X69686400Y-91785250I0J93750D01*
G01*
X69686400Y-91572750D01*
G75*
G02*
X69780150Y-91479000I93750J0D01*
G01*
X69967650Y-91479000D01*
G75*
G02*
X70061400Y-91572750I0J-93750D01*
G01*
G37*
G36*
G01*
X70061400Y-92222750D02*
X70061400Y-92435250D01*
G75*
G02*
X69967650Y-92529000I-93750J0D01*
G01*
X69780150Y-92529000D01*
G75*
G02*
X69686400Y-92435250I0J93750D01*
G01*
X69686400Y-92222750D01*
G75*
G02*
X69780150Y-92129000I93750J0D01*
G01*
X69967650Y-92129000D01*
G75*
G02*
X70061400Y-92222750I0J-93750D01*
G01*
G37*
G36*
G01*
X70061400Y-92872750D02*
X70061400Y-93085250D01*
G75*
G02*
X69967650Y-93179000I-93750J0D01*
G01*
X69780150Y-93179000D01*
G75*
G02*
X69686400Y-93085250I0J93750D01*
G01*
X69686400Y-92872750D01*
G75*
G02*
X69780150Y-92779000I93750J0D01*
G01*
X69967650Y-92779000D01*
G75*
G02*
X70061400Y-92872750I0J-93750D01*
G01*
G37*
G36*
G01*
X68286400Y-92872750D02*
X68286400Y-93085250D01*
G75*
G02*
X68192650Y-93179000I-93750J0D01*
G01*
X68005150Y-93179000D01*
G75*
G02*
X67911400Y-93085250I0J93750D01*
G01*
X67911400Y-92872750D01*
G75*
G02*
X68005150Y-92779000I93750J0D01*
G01*
X68192650Y-92779000D01*
G75*
G02*
X68286400Y-92872750I0J-93750D01*
G01*
G37*
G36*
G01*
X68286400Y-92222750D02*
X68286400Y-92435250D01*
G75*
G02*
X68192650Y-92529000I-93750J0D01*
G01*
X68005150Y-92529000D01*
G75*
G02*
X67911400Y-92435250I0J93750D01*
G01*
X67911400Y-92222750D01*
G75*
G02*
X68005150Y-92129000I93750J0D01*
G01*
X68192650Y-92129000D01*
G75*
G02*
X68286400Y-92222750I0J-93750D01*
G01*
G37*
G36*
G01*
X68286400Y-91572750D02*
X68286400Y-91785250D01*
G75*
G02*
X68192650Y-91879000I-93750J0D01*
G01*
X68005150Y-91879000D01*
G75*
G02*
X67911400Y-91785250I0J93750D01*
G01*
X67911400Y-91572750D01*
G75*
G02*
X68005150Y-91479000I93750J0D01*
G01*
X68192650Y-91479000D01*
G75*
G02*
X68286400Y-91572750I0J-93750D01*
G01*
G37*
D20*
X68986400Y-92329000D03*
D21*
X171970700Y-147116800D03*
X171970700Y-145846800D03*
X171970700Y-144576800D03*
X171970700Y-143306800D03*
X171970700Y-142036800D03*
X170700700Y-142036800D03*
X170700700Y-143306800D03*
X170700700Y-144576800D03*
X170700700Y-145846800D03*
X170700700Y-147116800D03*
D22*
X168795700Y-142671800D03*
X168795700Y-148386800D03*
X173875700Y-142671800D03*
X173875700Y-148386800D03*
D23*
X170320700Y-140766800D03*
X172350700Y-140766800D03*
X171335700Y-148386800D03*
D24*
X152908000Y-117767100D03*
X152908000Y-115267100D03*
D25*
X160658000Y-116517100D03*
D26*
X171138600Y-116141500D03*
X167138600Y-116141500D03*
G36*
G01*
X136235500Y-113160200D02*
X135925500Y-113160200D01*
G75*
G02*
X135770500Y-113005200I0J155000D01*
G01*
X135770500Y-112580200D01*
G75*
G02*
X135925500Y-112425200I155000J0D01*
G01*
X136235500Y-112425200D01*
G75*
G02*
X136390500Y-112580200I0J-155000D01*
G01*
X136390500Y-113005200D01*
G75*
G02*
X136235500Y-113160200I-155000J0D01*
G01*
G37*
G36*
G01*
X136235500Y-114295200D02*
X135925500Y-114295200D01*
G75*
G02*
X135770500Y-114140200I0J155000D01*
G01*
X135770500Y-113715200D01*
G75*
G02*
X135925500Y-113560200I155000J0D01*
G01*
X136235500Y-113560200D01*
G75*
G02*
X136390500Y-113715200I0J-155000D01*
G01*
X136390500Y-114140200D01*
G75*
G02*
X136235500Y-114295200I-155000J0D01*
G01*
G37*
G36*
G01*
X125839500Y-121879300D02*
X125839500Y-122189300D01*
G75*
G02*
X125684500Y-122344300I-155000J0D01*
G01*
X125259500Y-122344300D01*
G75*
G02*
X125104500Y-122189300I0J155000D01*
G01*
X125104500Y-121879300D01*
G75*
G02*
X125259500Y-121724300I155000J0D01*
G01*
X125684500Y-121724300D01*
G75*
G02*
X125839500Y-121879300I0J-155000D01*
G01*
G37*
G36*
G01*
X124704500Y-121879300D02*
X124704500Y-122189300D01*
G75*
G02*
X124549500Y-122344300I-155000J0D01*
G01*
X124124500Y-122344300D01*
G75*
G02*
X123969500Y-122189300I0J155000D01*
G01*
X123969500Y-121879300D01*
G75*
G02*
X124124500Y-121724300I155000J0D01*
G01*
X124549500Y-121724300D01*
G75*
G02*
X124704500Y-121879300I0J-155000D01*
G01*
G37*
D11*
X72618600Y-108292900D03*
D12*
X70078600Y-108292900D03*
X72618600Y-110832900D03*
X70078600Y-110832900D03*
X72618600Y-113372900D03*
X70078600Y-113372900D03*
X72618600Y-115912900D03*
X70078600Y-115912900D03*
X72618600Y-118452900D03*
X70078600Y-118452900D03*
X72618600Y-120992900D03*
X70078600Y-120992900D03*
X72618600Y-123532900D03*
X70078600Y-123532900D03*
X72618600Y-126072900D03*
X70078600Y-126072900D03*
X72618600Y-128612900D03*
X70078600Y-128612900D03*
X72618600Y-131152900D03*
X70078600Y-131152900D03*
X72618600Y-133692900D03*
X70078600Y-133692900D03*
D27*
X235795190Y-192096910D03*
X234204200Y-191437900D03*
X232613210Y-192096910D03*
X231954200Y-193687900D03*
X232613210Y-195278890D03*
X234204200Y-195937900D03*
X235795190Y-195278890D03*
X236454200Y-193687900D03*
D28*
X234204200Y-193687900D03*
X149154200Y-193687900D03*
D27*
X151404200Y-193687900D03*
X150745190Y-195278890D03*
X149154200Y-195937900D03*
X147563210Y-195278890D03*
X146904200Y-193687900D03*
X147563210Y-192096910D03*
X149154200Y-191437900D03*
X150745190Y-192096910D03*
D28*
X64104200Y-193687900D03*
D27*
X66354200Y-193687900D03*
X65695190Y-195278890D03*
X64104200Y-195937900D03*
X62513210Y-195278890D03*
X61854200Y-193687900D03*
X62513210Y-192096910D03*
X64104200Y-191437900D03*
X65695190Y-192096910D03*
X235795190Y-64016910D03*
X234204200Y-63357900D03*
X232613210Y-64016910D03*
X231954200Y-65607900D03*
X232613210Y-67198890D03*
X234204200Y-67857900D03*
X235795190Y-67198890D03*
X236454200Y-65607900D03*
D28*
X234204200Y-65607900D03*
X149154200Y-65607900D03*
D27*
X151404200Y-65607900D03*
X150745190Y-67198890D03*
X149154200Y-67857900D03*
X147563210Y-67198890D03*
X146904200Y-65607900D03*
X147563210Y-64016910D03*
X149154200Y-63357900D03*
X150745190Y-64016910D03*
D28*
X71043800Y-66116200D03*
D27*
X73293800Y-66116200D03*
X72634790Y-67707190D03*
X71043800Y-68366200D03*
X69452810Y-67707190D03*
X68793800Y-66116200D03*
X69452810Y-64525210D03*
X71043800Y-63866200D03*
X72634790Y-64525210D03*
M02*
