G04 #@! TF.GenerationSoftware,KiCad,Pcbnew,(5.1.9)-1*
G04 #@! TF.CreationDate,2021-06-08T08:09:59+01:00*
G04 #@! TF.ProjectId,Looper_Board,4c6f6f70-6572-45f4-926f-6172642e6b69,rev?*
G04 #@! TF.SameCoordinates,Original*
G04 #@! TF.FileFunction,Legend,Top*
G04 #@! TF.FilePolarity,Positive*
%FSLAX46Y46*%
G04 Gerber Fmt 4.6, Leading zero omitted, Abs format (unit mm)*
G04 Created by KiCad (PCBNEW (5.1.9)-1) date 2021-06-08 08:09:59*
%MOMM*%
%LPD*%
G01*
G04 APERTURE LIST*
%ADD10C,0.304800*%
%ADD11C,0.152400*%
%ADD12C,0.120000*%
%ADD13C,0.150000*%
%ADD14R,1.700000X1.700000*%
%ADD15O,1.700000X1.700000*%
%ADD16O,1.250000X1.050000*%
%ADD17O,1.900000X1.000000*%
%ADD18C,1.500000*%
%ADD19C,2.374900*%
%ADD20C,0.990600*%
%ADD21C,0.800000*%
%ADD22C,6.000000*%
G04 APERTURE END LIST*
D10*
X181370514Y-71784028D02*
X180644800Y-71784028D01*
X180644800Y-70260028D01*
X182168800Y-70260028D02*
X182459085Y-70260028D01*
X182604228Y-70332600D01*
X182749371Y-70477742D01*
X182821942Y-70768028D01*
X182821942Y-71276028D01*
X182749371Y-71566314D01*
X182604228Y-71711457D01*
X182459085Y-71784028D01*
X182168800Y-71784028D01*
X182023657Y-71711457D01*
X181878514Y-71566314D01*
X181805942Y-71276028D01*
X181805942Y-70768028D01*
X181878514Y-70477742D01*
X182023657Y-70332600D01*
X182168800Y-70260028D01*
X183765371Y-70260028D02*
X184055657Y-70260028D01*
X184200800Y-70332600D01*
X184345942Y-70477742D01*
X184418514Y-70768028D01*
X184418514Y-71276028D01*
X184345942Y-71566314D01*
X184200800Y-71711457D01*
X184055657Y-71784028D01*
X183765371Y-71784028D01*
X183620228Y-71711457D01*
X183475085Y-71566314D01*
X183402514Y-71276028D01*
X183402514Y-70768028D01*
X183475085Y-70477742D01*
X183620228Y-70332600D01*
X183765371Y-70260028D01*
X185071657Y-71784028D02*
X185071657Y-70260028D01*
X185652228Y-70260028D01*
X185797371Y-70332600D01*
X185869942Y-70405171D01*
X185942514Y-70550314D01*
X185942514Y-70768028D01*
X185869942Y-70913171D01*
X185797371Y-70985742D01*
X185652228Y-71058314D01*
X185071657Y-71058314D01*
X186595657Y-70985742D02*
X187103657Y-70985742D01*
X187321371Y-71784028D02*
X186595657Y-71784028D01*
X186595657Y-70260028D01*
X187321371Y-70260028D01*
X188845371Y-71784028D02*
X188337371Y-71058314D01*
X187974514Y-71784028D02*
X187974514Y-70260028D01*
X188555085Y-70260028D01*
X188700228Y-70332600D01*
X188772800Y-70405171D01*
X188845371Y-70550314D01*
X188845371Y-70768028D01*
X188772800Y-70913171D01*
X188700228Y-70985742D01*
X188555085Y-71058314D01*
X187974514Y-71058314D01*
X191167657Y-70985742D02*
X191385371Y-71058314D01*
X191457942Y-71130885D01*
X191530514Y-71276028D01*
X191530514Y-71493742D01*
X191457942Y-71638885D01*
X191385371Y-71711457D01*
X191240228Y-71784028D01*
X190659657Y-71784028D01*
X190659657Y-70260028D01*
X191167657Y-70260028D01*
X191312800Y-70332600D01*
X191385371Y-70405171D01*
X191457942Y-70550314D01*
X191457942Y-70695457D01*
X191385371Y-70840600D01*
X191312800Y-70913171D01*
X191167657Y-70985742D01*
X190659657Y-70985742D01*
X192473942Y-70260028D02*
X192764228Y-70260028D01*
X192909371Y-70332600D01*
X193054514Y-70477742D01*
X193127085Y-70768028D01*
X193127085Y-71276028D01*
X193054514Y-71566314D01*
X192909371Y-71711457D01*
X192764228Y-71784028D01*
X192473942Y-71784028D01*
X192328800Y-71711457D01*
X192183657Y-71566314D01*
X192111085Y-71276028D01*
X192111085Y-70768028D01*
X192183657Y-70477742D01*
X192328800Y-70332600D01*
X192473942Y-70260028D01*
X193707657Y-71348600D02*
X194433371Y-71348600D01*
X193562514Y-71784028D02*
X194070514Y-70260028D01*
X194578514Y-71784028D01*
X195957371Y-71784028D02*
X195449371Y-71058314D01*
X195086514Y-71784028D02*
X195086514Y-70260028D01*
X195667085Y-70260028D01*
X195812228Y-70332600D01*
X195884800Y-70405171D01*
X195957371Y-70550314D01*
X195957371Y-70768028D01*
X195884800Y-70913171D01*
X195812228Y-70985742D01*
X195667085Y-71058314D01*
X195086514Y-71058314D01*
X196610514Y-71784028D02*
X196610514Y-70260028D01*
X196973371Y-70260028D01*
X197191085Y-70332600D01*
X197336228Y-70477742D01*
X197408800Y-70622885D01*
X197481371Y-70913171D01*
X197481371Y-71130885D01*
X197408800Y-71421171D01*
X197336228Y-71566314D01*
X197191085Y-71711457D01*
X196973371Y-71784028D01*
X196610514Y-71784028D01*
X186087657Y-72850828D02*
X186595657Y-74374828D01*
X187103657Y-72850828D01*
X188192228Y-74302257D02*
X188047085Y-74374828D01*
X187756800Y-74374828D01*
X187611657Y-74302257D01*
X187539085Y-74157114D01*
X187539085Y-73576542D01*
X187611657Y-73431400D01*
X187756800Y-73358828D01*
X188047085Y-73358828D01*
X188192228Y-73431400D01*
X188264800Y-73576542D01*
X188264800Y-73721685D01*
X187539085Y-73866828D01*
X188917942Y-74374828D02*
X188917942Y-73358828D01*
X188917942Y-73649114D02*
X188990514Y-73503971D01*
X189063085Y-73431400D01*
X189208228Y-73358828D01*
X189353371Y-73358828D01*
X191820800Y-74374828D02*
X190949942Y-74374828D01*
X191385371Y-74374828D02*
X191385371Y-72850828D01*
X191240228Y-73068542D01*
X191095085Y-73213685D01*
X190949942Y-73286257D01*
X175495413Y-67349714D02*
X175906127Y-67492571D01*
X176031127Y-67635428D01*
X176138270Y-67921142D01*
X176084699Y-68349714D01*
X175906127Y-68635428D01*
X175745413Y-68778285D01*
X175441842Y-68921142D01*
X174298985Y-68921142D01*
X174673985Y-65921142D01*
X175673985Y-65921142D01*
X175941842Y-66064000D01*
X176066842Y-66206857D01*
X176173985Y-66492571D01*
X176138270Y-66778285D01*
X175959699Y-67064000D01*
X175798985Y-67206857D01*
X175495413Y-67349714D01*
X174495413Y-67349714D01*
X178245413Y-65921142D02*
X178816842Y-65921142D01*
X179084699Y-66064000D01*
X179334699Y-66349714D01*
X179406127Y-66921142D01*
X179281127Y-67921142D01*
X179066842Y-68492571D01*
X178745413Y-68778285D01*
X178441842Y-68921142D01*
X177870413Y-68921142D01*
X177602556Y-68778285D01*
X177352556Y-68492571D01*
X177281127Y-67921142D01*
X177406127Y-66921142D01*
X177620413Y-66349714D01*
X177941842Y-66064000D01*
X178245413Y-65921142D01*
X181388270Y-65921142D02*
X181959699Y-65921142D01*
X182227556Y-66064000D01*
X182477556Y-66349714D01*
X182548985Y-66921142D01*
X182423985Y-67921142D01*
X182209699Y-68492571D01*
X181888270Y-68778285D01*
X181584699Y-68921142D01*
X181013270Y-68921142D01*
X180745413Y-68778285D01*
X180495413Y-68492571D01*
X180423985Y-67921142D01*
X180548985Y-66921142D01*
X180763270Y-66349714D01*
X181084699Y-66064000D01*
X181388270Y-65921142D01*
X184816842Y-65921142D02*
X184548985Y-68064000D01*
X184352556Y-68492571D01*
X184031127Y-68778285D01*
X183584699Y-68921142D01*
X183298985Y-68921142D01*
X188031127Y-68778285D02*
X188441842Y-68921142D01*
X189156127Y-68921142D01*
X189459699Y-68778285D01*
X189620413Y-68635428D01*
X189798985Y-68349714D01*
X189834699Y-68064000D01*
X189727556Y-67778285D01*
X189602556Y-67635428D01*
X189334699Y-67492571D01*
X188781127Y-67349714D01*
X188513270Y-67206857D01*
X188388270Y-67064000D01*
X188281127Y-66778285D01*
X188316842Y-66492571D01*
X188495413Y-66206857D01*
X188656127Y-66064000D01*
X188959699Y-65921142D01*
X189673985Y-65921142D01*
X190084699Y-66064000D01*
X191763270Y-67492571D02*
X191584699Y-68921142D01*
X190959699Y-65921142D02*
X191763270Y-67492571D01*
X192959699Y-65921142D01*
X193584699Y-68921142D02*
X193959699Y-65921142D01*
X195298985Y-68921142D01*
X195673985Y-65921142D01*
X196673985Y-65921142D02*
X198388270Y-65921142D01*
X197156127Y-68921142D02*
X197531127Y-65921142D01*
X199013270Y-68921142D02*
X199388270Y-65921142D01*
X199209699Y-67349714D02*
X200923985Y-67349714D01*
X200727556Y-68921142D02*
X201102556Y-65921142D01*
X202031127Y-68778285D02*
X202441842Y-68921142D01*
X203156127Y-68921142D01*
X203459699Y-68778285D01*
X203620413Y-68635428D01*
X203798984Y-68349714D01*
X203834699Y-68064000D01*
X203727556Y-67778285D01*
X203602556Y-67635428D01*
X203334699Y-67492571D01*
X202781127Y-67349714D01*
X202513270Y-67206857D01*
X202388270Y-67064000D01*
X202281127Y-66778285D01*
X202316842Y-66492571D01*
X202495413Y-66206857D01*
X202656127Y-66064000D01*
X202959699Y-65921142D01*
X203673985Y-65921142D01*
X204084699Y-66064000D01*
D11*
X80034795Y-165565666D02*
X80615366Y-165565666D01*
X80731480Y-165526961D01*
X80808890Y-165449552D01*
X80847595Y-165333438D01*
X80847595Y-165256028D01*
X80034795Y-166107533D02*
X80034795Y-166262352D01*
X80073500Y-166339761D01*
X80150909Y-166417171D01*
X80305728Y-166455876D01*
X80576661Y-166455876D01*
X80731480Y-166417171D01*
X80808890Y-166339761D01*
X80847595Y-166262352D01*
X80847595Y-166107533D01*
X80808890Y-166030123D01*
X80731480Y-165952714D01*
X80576661Y-165914009D01*
X80305728Y-165914009D01*
X80150909Y-165952714D01*
X80073500Y-166030123D01*
X80034795Y-166107533D01*
X80460547Y-166959038D02*
X80847595Y-166959038D01*
X80034795Y-166688104D02*
X80460547Y-166959038D01*
X80034795Y-167229971D01*
X80808890Y-167462200D02*
X80847595Y-167578314D01*
X80847595Y-167771838D01*
X80808890Y-167849247D01*
X80770185Y-167887952D01*
X80692776Y-167926657D01*
X80615366Y-167926657D01*
X80537957Y-167887952D01*
X80499252Y-167849247D01*
X80460547Y-167771838D01*
X80421842Y-167617019D01*
X80383138Y-167539609D01*
X80344433Y-167500904D01*
X80267023Y-167462200D01*
X80189614Y-167462200D01*
X80112204Y-167500904D01*
X80073500Y-167539609D01*
X80034795Y-167617019D01*
X80034795Y-167810542D01*
X80073500Y-167926657D01*
X80034795Y-168158885D02*
X80034795Y-168623342D01*
X80847595Y-168391114D02*
X80034795Y-168391114D01*
X80847595Y-168894276D02*
X80034795Y-168894276D01*
X80770185Y-169745780D02*
X80808890Y-169707076D01*
X80847595Y-169590961D01*
X80847595Y-169513552D01*
X80808890Y-169397438D01*
X80731480Y-169320028D01*
X80654071Y-169281323D01*
X80499252Y-169242619D01*
X80383138Y-169242619D01*
X80228319Y-169281323D01*
X80150909Y-169320028D01*
X80073500Y-169397438D01*
X80034795Y-169513552D01*
X80034795Y-169590961D01*
X80073500Y-169707076D01*
X80112204Y-169745780D01*
X80847595Y-170094123D02*
X80034795Y-170094123D01*
X80847595Y-170558580D02*
X80383138Y-170210238D01*
X80034795Y-170558580D02*
X80499252Y-170094123D01*
X80537957Y-171526200D02*
X80537957Y-172145476D01*
X80847595Y-171835838D02*
X80228319Y-171835838D01*
X80847595Y-173616257D02*
X80460547Y-173345323D01*
X80847595Y-173151800D02*
X80034795Y-173151800D01*
X80034795Y-173461438D01*
X80073500Y-173538847D01*
X80112204Y-173577552D01*
X80189614Y-173616257D01*
X80305728Y-173616257D01*
X80383138Y-173577552D01*
X80421842Y-173538847D01*
X80460547Y-173461438D01*
X80460547Y-173151800D01*
X80034795Y-174119419D02*
X80034795Y-174274238D01*
X80073500Y-174351647D01*
X80150909Y-174429057D01*
X80305728Y-174467761D01*
X80576661Y-174467761D01*
X80731480Y-174429057D01*
X80808890Y-174351647D01*
X80847595Y-174274238D01*
X80847595Y-174119419D01*
X80808890Y-174042009D01*
X80731480Y-173964600D01*
X80576661Y-173925895D01*
X80305728Y-173925895D01*
X80150909Y-173964600D01*
X80073500Y-174042009D01*
X80034795Y-174119419D01*
X80034795Y-174699990D02*
X80034795Y-175164447D01*
X80847595Y-174932219D02*
X80034795Y-174932219D01*
X80615366Y-175396676D02*
X80615366Y-175783723D01*
X80847595Y-175319266D02*
X80034795Y-175590200D01*
X80847595Y-175861133D01*
X80847595Y-176596523D02*
X80460547Y-176325590D01*
X80847595Y-176132066D02*
X80034795Y-176132066D01*
X80034795Y-176441704D01*
X80073500Y-176519114D01*
X80112204Y-176557819D01*
X80189614Y-176596523D01*
X80305728Y-176596523D01*
X80383138Y-176557819D01*
X80421842Y-176519114D01*
X80460547Y-176441704D01*
X80460547Y-176132066D01*
X80460547Y-177099685D02*
X80847595Y-177099685D01*
X80034795Y-176828752D02*
X80460547Y-177099685D01*
X80034795Y-177370619D01*
X80847595Y-178260828D02*
X80034795Y-178260828D01*
X80034795Y-178570466D01*
X80073500Y-178647876D01*
X80112204Y-178686580D01*
X80189614Y-178725285D01*
X80305728Y-178725285D01*
X80383138Y-178686580D01*
X80421842Y-178647876D01*
X80460547Y-178570466D01*
X80460547Y-178260828D01*
X80034795Y-179228447D02*
X80034795Y-179383266D01*
X80073500Y-179460676D01*
X80150909Y-179538085D01*
X80305728Y-179576790D01*
X80576661Y-179576790D01*
X80731480Y-179538085D01*
X80808890Y-179460676D01*
X80847595Y-179383266D01*
X80847595Y-179228447D01*
X80808890Y-179151038D01*
X80731480Y-179073628D01*
X80576661Y-179034923D01*
X80305728Y-179034923D01*
X80150909Y-179073628D01*
X80073500Y-179151038D01*
X80034795Y-179228447D01*
X80034795Y-179809019D02*
X80034795Y-180273476D01*
X80847595Y-180041247D02*
X80034795Y-180041247D01*
D12*
X93779500Y-108292900D02*
X93779500Y-104842900D01*
X93779500Y-108292900D02*
X93779500Y-110242900D01*
X84909500Y-108292900D02*
X84909500Y-106342900D01*
X84909500Y-108292900D02*
X84909500Y-110242900D01*
X94759100Y-101296735D02*
X94759100Y-101065065D01*
X94039100Y-101296735D02*
X94039100Y-101065065D01*
X89076265Y-161929400D02*
X89307935Y-161929400D01*
X89076265Y-161209400D02*
X89307935Y-161209400D01*
X89352800Y-116228865D02*
X89352800Y-116460535D01*
X90072800Y-116228865D02*
X90072800Y-116460535D01*
X92993800Y-116228865D02*
X92993800Y-116460535D01*
X92273800Y-116228865D02*
X92273800Y-116460535D01*
X94178800Y-124918735D02*
X94178800Y-124687065D01*
X94898800Y-124918735D02*
X94898800Y-124687065D01*
X90241800Y-124766335D02*
X90241800Y-124534665D01*
X90961800Y-124766335D02*
X90961800Y-124534665D01*
X89987800Y-139444465D02*
X89987800Y-139676135D01*
X90707800Y-139444465D02*
X90707800Y-139676135D01*
X89038165Y-172953000D02*
X89269835Y-172953000D01*
X89038165Y-172233000D02*
X89269835Y-172233000D01*
X93603400Y-139444465D02*
X93603400Y-139676135D01*
X92883400Y-139444465D02*
X92883400Y-139676135D01*
X85593600Y-116241565D02*
X85593600Y-116473235D01*
X86313600Y-116241565D02*
X86313600Y-116473235D01*
X89241365Y-53132400D02*
X89473035Y-53132400D01*
X89241365Y-53852400D02*
X89473035Y-53852400D01*
X90127500Y-101093535D02*
X90127500Y-100861865D01*
X90847500Y-101093535D02*
X90847500Y-100861865D01*
X95711600Y-107951535D02*
X95711600Y-107719865D01*
X94991600Y-107951535D02*
X94991600Y-107719865D01*
X95819965Y-137126300D02*
X96051635Y-137126300D01*
X95819965Y-136406300D02*
X96051635Y-136406300D01*
X76824821Y-111200200D02*
X76489579Y-111200200D01*
X76824821Y-110440200D02*
X76489579Y-110440200D01*
X76824821Y-113005600D02*
X76489579Y-113005600D01*
X76824821Y-113765600D02*
X76489579Y-113765600D01*
X76809581Y-118843060D02*
X76474339Y-118843060D01*
X76809581Y-118083060D02*
X76474339Y-118083060D01*
X76809581Y-120623060D02*
X76474339Y-120623060D01*
X76809581Y-121383060D02*
X76474339Y-121383060D01*
X91352100Y-101272321D02*
X91352100Y-100937079D01*
X92112100Y-101272321D02*
X92112100Y-100937079D01*
X88276700Y-101145321D02*
X88276700Y-100810079D01*
X87516700Y-101145321D02*
X87516700Y-100810079D01*
X87552800Y-116177079D02*
X87552800Y-116512321D01*
X86792800Y-116177079D02*
X86792800Y-116512321D01*
X94793800Y-116177079D02*
X94793800Y-116512321D01*
X95553800Y-116177079D02*
X95553800Y-116512321D01*
X93382100Y-101272321D02*
X93382100Y-100937079D01*
X92622100Y-101272321D02*
X92622100Y-100937079D01*
X88812100Y-101145321D02*
X88812100Y-100810079D01*
X89572100Y-101145321D02*
X89572100Y-100810079D01*
X88062800Y-116177079D02*
X88062800Y-116512321D01*
X88822800Y-116177079D02*
X88822800Y-116512321D01*
X94283800Y-116177079D02*
X94283800Y-116512321D01*
X93523800Y-116177079D02*
X93523800Y-116512321D01*
X93596479Y-102629700D02*
X93931721Y-102629700D01*
X93596479Y-103389700D02*
X93931721Y-103389700D01*
X89659479Y-103389700D02*
X89994721Y-103389700D01*
X89659479Y-102629700D02*
X89994721Y-102629700D01*
X88910179Y-113780300D02*
X89245421Y-113780300D01*
X88910179Y-114540300D02*
X89245421Y-114540300D01*
X91856579Y-114540300D02*
X92191821Y-114540300D01*
X91856579Y-113780300D02*
X92191821Y-113780300D01*
X76809581Y-123163060D02*
X76474339Y-123163060D01*
X76809581Y-123923060D02*
X76474339Y-123923060D01*
X76809581Y-125703060D02*
X76474339Y-125703060D01*
X76809581Y-126463060D02*
X76474339Y-126463060D01*
X76809581Y-129051320D02*
X76474339Y-129051320D01*
X76809581Y-128291320D02*
X76474339Y-128291320D01*
X76809581Y-131576080D02*
X76474339Y-131576080D01*
X76809581Y-130816080D02*
X76474339Y-130816080D01*
X91491800Y-124894321D02*
X91491800Y-124559079D01*
X92251800Y-124894321D02*
X92251800Y-124559079D01*
X87681800Y-124767321D02*
X87681800Y-124432079D01*
X88441800Y-124767321D02*
X88441800Y-124432079D01*
X88187800Y-139392679D02*
X88187800Y-139727921D01*
X87427800Y-139392679D02*
X87427800Y-139727921D01*
X95403400Y-139392679D02*
X95403400Y-139727921D01*
X96163400Y-139392679D02*
X96163400Y-139727921D01*
X93521800Y-124945121D02*
X93521800Y-124609879D01*
X92761800Y-124945121D02*
X92761800Y-124609879D01*
X89711800Y-124767321D02*
X89711800Y-124432079D01*
X88951800Y-124767321D02*
X88951800Y-124432079D01*
X89457800Y-139392679D02*
X89457800Y-139727921D01*
X88697800Y-139392679D02*
X88697800Y-139727921D01*
X94133400Y-139392679D02*
X94133400Y-139727921D01*
X94893400Y-139392679D02*
X94893400Y-139727921D01*
X93736179Y-126251700D02*
X94071421Y-126251700D01*
X93736179Y-127011700D02*
X94071421Y-127011700D01*
X89799179Y-127011700D02*
X90134421Y-127011700D01*
X89799179Y-126251700D02*
X90134421Y-126251700D01*
X89545179Y-137021300D02*
X89880421Y-137021300D01*
X89545179Y-137781300D02*
X89880421Y-137781300D01*
X92466179Y-136970500D02*
X92801421Y-136970500D01*
X92466179Y-137730500D02*
X92801421Y-137730500D01*
X83033600Y-116189779D02*
X83033600Y-116525021D01*
X83793600Y-116189779D02*
X83793600Y-116525021D01*
X85076300Y-116189779D02*
X85076300Y-116525021D01*
X84316300Y-116189779D02*
X84316300Y-116525021D01*
X85735179Y-113780300D02*
X86070421Y-113780300D01*
X85735179Y-114540300D02*
X86070421Y-114540300D01*
X139787900Y-115072179D02*
X139787900Y-115407421D01*
X139027900Y-115072179D02*
X139027900Y-115407421D01*
X138530600Y-115407421D02*
X138530600Y-115072179D01*
X137770600Y-115407421D02*
X137770600Y-115072179D01*
X143652221Y-124930900D02*
X143316979Y-124930900D01*
X143652221Y-125690900D02*
X143316979Y-125690900D01*
X143393179Y-122084100D02*
X143728421Y-122084100D01*
X143393179Y-121324100D02*
X143728421Y-121324100D01*
X94676000Y-177393600D02*
G75*
G03*
X94676000Y-177393600I-950000J0D01*
G01*
X84109600Y-56603900D02*
G75*
G03*
X84109600Y-56603900I-950000J0D01*
G01*
X94625200Y-166725600D02*
G75*
G03*
X94625200Y-166725600I-950000J0D01*
G01*
X85531800Y-131940300D02*
X85531800Y-133890300D01*
X85531800Y-131940300D02*
X85531800Y-129990300D01*
X94401800Y-131940300D02*
X94401800Y-133890300D01*
X94401800Y-131940300D02*
X94401800Y-128490300D01*
X85461200Y-165874700D02*
X85461200Y-168799700D01*
X85461200Y-165874700D02*
X85461200Y-164374700D01*
X88681200Y-165874700D02*
X88681200Y-167374700D01*
X88681200Y-165874700D02*
X88681200Y-164374700D01*
X85636601Y-176530000D02*
X85636601Y-179455000D01*
X85636601Y-176530000D02*
X85636601Y-175030000D01*
X88856601Y-176530000D02*
X88856601Y-178030000D01*
X88856601Y-176530000D02*
X88856601Y-175030000D01*
X87993001Y-54152800D02*
X87993001Y-52652800D01*
X87993001Y-54152800D02*
X87993001Y-55652800D01*
X84773001Y-54152800D02*
X84773001Y-52652800D01*
X84773001Y-54152800D02*
X84773001Y-57077800D01*
D13*
X95205990Y-166917666D02*
X95682180Y-166917666D01*
X95110752Y-167203380D02*
X95444085Y-166203380D01*
X95777419Y-167203380D01*
X96110752Y-167203380D02*
X96110752Y-166203380D01*
X96348847Y-166203380D01*
X96491704Y-166251000D01*
X96586942Y-166346238D01*
X96634561Y-166441476D01*
X96682180Y-166631952D01*
X96682180Y-166774809D01*
X96634561Y-166965285D01*
X96586942Y-167060523D01*
X96491704Y-167155761D01*
X96348847Y-167203380D01*
X96110752Y-167203380D01*
X97682180Y-167108142D02*
X97634561Y-167155761D01*
X97491704Y-167203380D01*
X97396466Y-167203380D01*
X97253609Y-167155761D01*
X97158371Y-167060523D01*
X97110752Y-166965285D01*
X97063133Y-166774809D01*
X97063133Y-166631952D01*
X97110752Y-166441476D01*
X97158371Y-166346238D01*
X97253609Y-166251000D01*
X97396466Y-166203380D01*
X97491704Y-166203380D01*
X97634561Y-166251000D01*
X97682180Y-166298619D01*
X98634561Y-167203380D02*
X98063133Y-167203380D01*
X98348847Y-167203380D02*
X98348847Y-166203380D01*
X98253609Y-166346238D01*
X98158371Y-166441476D01*
X98063133Y-166489095D01*
X98825038Y-167298619D02*
X99586942Y-167298619D01*
X100396466Y-167203380D02*
X100063133Y-166727190D01*
X99825038Y-167203380D02*
X99825038Y-166203380D01*
X100205990Y-166203380D01*
X100301228Y-166251000D01*
X100348847Y-166298619D01*
X100396466Y-166393857D01*
X100396466Y-166536714D01*
X100348847Y-166631952D01*
X100301228Y-166679571D01*
X100205990Y-166727190D01*
X99825038Y-166727190D01*
X100825038Y-167203380D02*
X100825038Y-166203380D01*
X101063133Y-166203380D01*
X101205990Y-166251000D01*
X101301228Y-166346238D01*
X101348847Y-166441476D01*
X101396466Y-166631952D01*
X101396466Y-166774809D01*
X101348847Y-166965285D01*
X101301228Y-167060523D01*
X101205990Y-167155761D01*
X101063133Y-167203380D01*
X100825038Y-167203380D01*
X102015514Y-166727190D02*
X102015514Y-167203380D01*
X101682180Y-166203380D02*
X102015514Y-166727190D01*
X102348847Y-166203380D01*
X95459990Y-177560266D02*
X95936180Y-177560266D01*
X95364752Y-177845980D02*
X95698085Y-176845980D01*
X96031419Y-177845980D01*
X96364752Y-177845980D02*
X96364752Y-176845980D01*
X96602847Y-176845980D01*
X96745704Y-176893600D01*
X96840942Y-176988838D01*
X96888561Y-177084076D01*
X96936180Y-177274552D01*
X96936180Y-177417409D01*
X96888561Y-177607885D01*
X96840942Y-177703123D01*
X96745704Y-177798361D01*
X96602847Y-177845980D01*
X96364752Y-177845980D01*
X97936180Y-177750742D02*
X97888561Y-177798361D01*
X97745704Y-177845980D01*
X97650466Y-177845980D01*
X97507609Y-177798361D01*
X97412371Y-177703123D01*
X97364752Y-177607885D01*
X97317133Y-177417409D01*
X97317133Y-177274552D01*
X97364752Y-177084076D01*
X97412371Y-176988838D01*
X97507609Y-176893600D01*
X97650466Y-176845980D01*
X97745704Y-176845980D01*
X97888561Y-176893600D01*
X97936180Y-176941219D01*
X98555228Y-176845980D02*
X98650466Y-176845980D01*
X98745704Y-176893600D01*
X98793323Y-176941219D01*
X98840942Y-177036457D01*
X98888561Y-177226933D01*
X98888561Y-177465028D01*
X98840942Y-177655504D01*
X98793323Y-177750742D01*
X98745704Y-177798361D01*
X98650466Y-177845980D01*
X98555228Y-177845980D01*
X98459990Y-177798361D01*
X98412371Y-177750742D01*
X98364752Y-177655504D01*
X98317133Y-177465028D01*
X98317133Y-177226933D01*
X98364752Y-177036457D01*
X98412371Y-176941219D01*
X98459990Y-176893600D01*
X98555228Y-176845980D01*
X99079038Y-177941219D02*
X99840942Y-177941219D01*
X100650466Y-177845980D02*
X100317133Y-177369790D01*
X100079038Y-177845980D02*
X100079038Y-176845980D01*
X100459990Y-176845980D01*
X100555228Y-176893600D01*
X100602847Y-176941219D01*
X100650466Y-177036457D01*
X100650466Y-177179314D01*
X100602847Y-177274552D01*
X100555228Y-177322171D01*
X100459990Y-177369790D01*
X100079038Y-177369790D01*
X101079038Y-177845980D02*
X101079038Y-176845980D01*
X101317133Y-176845980D01*
X101459990Y-176893600D01*
X101555228Y-176988838D01*
X101602847Y-177084076D01*
X101650466Y-177274552D01*
X101650466Y-177417409D01*
X101602847Y-177607885D01*
X101555228Y-177703123D01*
X101459990Y-177798361D01*
X101317133Y-177845980D01*
X101079038Y-177845980D01*
X102269514Y-177369790D02*
X102269514Y-177845980D01*
X101936180Y-176845980D02*
X102269514Y-177369790D01*
X102602847Y-176845980D01*
X83108895Y-108011980D02*
X83108895Y-108821504D01*
X83156514Y-108916742D01*
X83204133Y-108964361D01*
X83299371Y-109011980D01*
X83489847Y-109011980D01*
X83585085Y-108964361D01*
X83632704Y-108916742D01*
X83680323Y-108821504D01*
X83680323Y-108011980D01*
X84680323Y-109011980D02*
X84108895Y-109011980D01*
X84394609Y-109011980D02*
X84394609Y-108011980D01*
X84299371Y-108154838D01*
X84204133Y-108250076D01*
X84108895Y-108297695D01*
X94680042Y-99340966D02*
X94727661Y-99388585D01*
X94775280Y-99531442D01*
X94775280Y-99626680D01*
X94727661Y-99769538D01*
X94632423Y-99864776D01*
X94537185Y-99912395D01*
X94346709Y-99960014D01*
X94203852Y-99960014D01*
X94013376Y-99912395D01*
X93918138Y-99864776D01*
X93822900Y-99769538D01*
X93775280Y-99626680D01*
X93775280Y-99531442D01*
X93822900Y-99388585D01*
X93870519Y-99340966D01*
X94775280Y-98388585D02*
X94775280Y-98960014D01*
X94775280Y-98674300D02*
X93775280Y-98674300D01*
X93918138Y-98769538D01*
X94013376Y-98864776D01*
X94060995Y-98960014D01*
X91882933Y-161913842D02*
X91835314Y-161961461D01*
X91692457Y-162009080D01*
X91597219Y-162009080D01*
X91454361Y-161961461D01*
X91359123Y-161866223D01*
X91311504Y-161770985D01*
X91263885Y-161580509D01*
X91263885Y-161437652D01*
X91311504Y-161247176D01*
X91359123Y-161151938D01*
X91454361Y-161056700D01*
X91597219Y-161009080D01*
X91692457Y-161009080D01*
X91835314Y-161056700D01*
X91882933Y-161104319D01*
X92216266Y-161009080D02*
X92835314Y-161009080D01*
X92501980Y-161390033D01*
X92644838Y-161390033D01*
X92740076Y-161437652D01*
X92787695Y-161485271D01*
X92835314Y-161580509D01*
X92835314Y-161818604D01*
X92787695Y-161913842D01*
X92740076Y-161961461D01*
X92644838Y-162009080D01*
X92359123Y-162009080D01*
X92263885Y-161961461D01*
X92216266Y-161913842D01*
X89993742Y-118721166D02*
X90041361Y-118768785D01*
X90088980Y-118911642D01*
X90088980Y-119006880D01*
X90041361Y-119149738D01*
X89946123Y-119244976D01*
X89850885Y-119292595D01*
X89660409Y-119340214D01*
X89517552Y-119340214D01*
X89327076Y-119292595D01*
X89231838Y-119244976D01*
X89136600Y-119149738D01*
X89088980Y-119006880D01*
X89088980Y-118911642D01*
X89136600Y-118768785D01*
X89184219Y-118721166D01*
X89088980Y-118387833D02*
X89088980Y-117721166D01*
X90088980Y-118149738D01*
X92990942Y-119679957D02*
X93038561Y-119727576D01*
X93086180Y-119870433D01*
X93086180Y-119965671D01*
X93038561Y-120108528D01*
X92943323Y-120203766D01*
X92848085Y-120251385D01*
X92657609Y-120299004D01*
X92514752Y-120299004D01*
X92324276Y-120251385D01*
X92229038Y-120203766D01*
X92133800Y-120108528D01*
X92086180Y-119965671D01*
X92086180Y-119870433D01*
X92133800Y-119727576D01*
X92181419Y-119679957D01*
X93086180Y-118727576D02*
X93086180Y-119299004D01*
X93086180Y-119013290D02*
X92086180Y-119013290D01*
X92229038Y-119108528D01*
X92324276Y-119203766D01*
X92371895Y-119299004D01*
X92086180Y-118394242D02*
X92086180Y-117775195D01*
X92467133Y-118108528D01*
X92467133Y-117965671D01*
X92514752Y-117870433D01*
X92562371Y-117822814D01*
X92657609Y-117775195D01*
X92895704Y-117775195D01*
X92990942Y-117822814D01*
X93038561Y-117870433D01*
X93086180Y-117965671D01*
X93086180Y-118251385D01*
X93038561Y-118346623D01*
X92990942Y-118394242D01*
X94752242Y-122791457D02*
X94799861Y-122839076D01*
X94847480Y-122981933D01*
X94847480Y-123077171D01*
X94799861Y-123220028D01*
X94704623Y-123315266D01*
X94609385Y-123362885D01*
X94418909Y-123410504D01*
X94276052Y-123410504D01*
X94085576Y-123362885D01*
X93990338Y-123315266D01*
X93895100Y-123220028D01*
X93847480Y-123077171D01*
X93847480Y-122981933D01*
X93895100Y-122839076D01*
X93942719Y-122791457D01*
X94847480Y-121839076D02*
X94847480Y-122410504D01*
X94847480Y-122124790D02*
X93847480Y-122124790D01*
X93990338Y-122220028D01*
X94085576Y-122315266D01*
X94133195Y-122410504D01*
X93847480Y-120981933D02*
X93847480Y-121172409D01*
X93895100Y-121267647D01*
X93942719Y-121315266D01*
X94085576Y-121410504D01*
X94276052Y-121458123D01*
X94657004Y-121458123D01*
X94752242Y-121410504D01*
X94799861Y-121362885D01*
X94847480Y-121267647D01*
X94847480Y-121077171D01*
X94799861Y-120981933D01*
X94752242Y-120934314D01*
X94657004Y-120886695D01*
X94418909Y-120886695D01*
X94323671Y-120934314D01*
X94276052Y-120981933D01*
X94228433Y-121077171D01*
X94228433Y-121267647D01*
X94276052Y-121362885D01*
X94323671Y-121410504D01*
X94418909Y-121458123D01*
X90933542Y-122702557D02*
X90981161Y-122750176D01*
X91028780Y-122893033D01*
X91028780Y-122988271D01*
X90981161Y-123131128D01*
X90885923Y-123226366D01*
X90790685Y-123273985D01*
X90600209Y-123321604D01*
X90457352Y-123321604D01*
X90266876Y-123273985D01*
X90171638Y-123226366D01*
X90076400Y-123131128D01*
X90028780Y-122988271D01*
X90028780Y-122893033D01*
X90076400Y-122750176D01*
X90124019Y-122702557D01*
X90124019Y-122321604D02*
X90076400Y-122273985D01*
X90028780Y-122178747D01*
X90028780Y-121940652D01*
X90076400Y-121845414D01*
X90124019Y-121797795D01*
X90219257Y-121750176D01*
X90314495Y-121750176D01*
X90457352Y-121797795D01*
X91028780Y-122369223D01*
X91028780Y-121750176D01*
X90028780Y-121131128D02*
X90028780Y-121035890D01*
X90076400Y-120940652D01*
X90124019Y-120893033D01*
X90219257Y-120845414D01*
X90409733Y-120797795D01*
X90647828Y-120797795D01*
X90838304Y-120845414D01*
X90933542Y-120893033D01*
X90981161Y-120940652D01*
X91028780Y-121035890D01*
X91028780Y-121131128D01*
X90981161Y-121226366D01*
X90933542Y-121273985D01*
X90838304Y-121321604D01*
X90647828Y-121369223D01*
X90409733Y-121369223D01*
X90219257Y-121321604D01*
X90124019Y-121273985D01*
X90076400Y-121226366D01*
X90028780Y-121131128D01*
X90654142Y-142844757D02*
X90701761Y-142892376D01*
X90749380Y-143035233D01*
X90749380Y-143130471D01*
X90701761Y-143273328D01*
X90606523Y-143368566D01*
X90511285Y-143416185D01*
X90320809Y-143463804D01*
X90177952Y-143463804D01*
X89987476Y-143416185D01*
X89892238Y-143368566D01*
X89797000Y-143273328D01*
X89749380Y-143130471D01*
X89749380Y-143035233D01*
X89797000Y-142892376D01*
X89844619Y-142844757D01*
X89844619Y-142463804D02*
X89797000Y-142416185D01*
X89749380Y-142320947D01*
X89749380Y-142082852D01*
X89797000Y-141987614D01*
X89844619Y-141939995D01*
X89939857Y-141892376D01*
X90035095Y-141892376D01*
X90177952Y-141939995D01*
X90749380Y-142511423D01*
X90749380Y-141892376D01*
X89844619Y-141511423D02*
X89797000Y-141463804D01*
X89749380Y-141368566D01*
X89749380Y-141130471D01*
X89797000Y-141035233D01*
X89844619Y-140987614D01*
X89939857Y-140939995D01*
X90035095Y-140939995D01*
X90177952Y-140987614D01*
X90749380Y-141559042D01*
X90749380Y-140939995D01*
X91406742Y-172988242D02*
X91359123Y-173035861D01*
X91216266Y-173083480D01*
X91121028Y-173083480D01*
X90978171Y-173035861D01*
X90882933Y-172940623D01*
X90835314Y-172845385D01*
X90787695Y-172654909D01*
X90787695Y-172512052D01*
X90835314Y-172321576D01*
X90882933Y-172226338D01*
X90978171Y-172131100D01*
X91121028Y-172083480D01*
X91216266Y-172083480D01*
X91359123Y-172131100D01*
X91406742Y-172178719D01*
X91787695Y-172178719D02*
X91835314Y-172131100D01*
X91930552Y-172083480D01*
X92168647Y-172083480D01*
X92263885Y-172131100D01*
X92311504Y-172178719D01*
X92359123Y-172273957D01*
X92359123Y-172369195D01*
X92311504Y-172512052D01*
X91740076Y-173083480D01*
X92359123Y-173083480D01*
X93216266Y-172416814D02*
X93216266Y-173083480D01*
X92978171Y-172035861D02*
X92740076Y-172750147D01*
X93359123Y-172750147D01*
X93549742Y-142971757D02*
X93597361Y-143019376D01*
X93644980Y-143162233D01*
X93644980Y-143257471D01*
X93597361Y-143400328D01*
X93502123Y-143495566D01*
X93406885Y-143543185D01*
X93216409Y-143590804D01*
X93073552Y-143590804D01*
X92883076Y-143543185D01*
X92787838Y-143495566D01*
X92692600Y-143400328D01*
X92644980Y-143257471D01*
X92644980Y-143162233D01*
X92692600Y-143019376D01*
X92740219Y-142971757D01*
X92740219Y-142590804D02*
X92692600Y-142543185D01*
X92644980Y-142447947D01*
X92644980Y-142209852D01*
X92692600Y-142114614D01*
X92740219Y-142066995D01*
X92835457Y-142019376D01*
X92930695Y-142019376D01*
X93073552Y-142066995D01*
X93644980Y-142638423D01*
X93644980Y-142019376D01*
X93644980Y-141543185D02*
X93644980Y-141352709D01*
X93597361Y-141257471D01*
X93549742Y-141209852D01*
X93406885Y-141114614D01*
X93216409Y-141066995D01*
X92835457Y-141066995D01*
X92740219Y-141114614D01*
X92692600Y-141162233D01*
X92644980Y-141257471D01*
X92644980Y-141447947D01*
X92692600Y-141543185D01*
X92740219Y-141590804D01*
X92835457Y-141638423D01*
X93073552Y-141638423D01*
X93168790Y-141590804D01*
X93216409Y-141543185D01*
X93264028Y-141447947D01*
X93264028Y-141257471D01*
X93216409Y-141162233D01*
X93168790Y-141114614D01*
X93073552Y-141066995D01*
X86336142Y-119730757D02*
X86383761Y-119778376D01*
X86431380Y-119921233D01*
X86431380Y-120016471D01*
X86383761Y-120159328D01*
X86288523Y-120254566D01*
X86193285Y-120302185D01*
X86002809Y-120349804D01*
X85859952Y-120349804D01*
X85669476Y-120302185D01*
X85574238Y-120254566D01*
X85479000Y-120159328D01*
X85431380Y-120016471D01*
X85431380Y-119921233D01*
X85479000Y-119778376D01*
X85526619Y-119730757D01*
X85431380Y-119397423D02*
X85431380Y-118778376D01*
X85812333Y-119111709D01*
X85812333Y-118968852D01*
X85859952Y-118873614D01*
X85907571Y-118825995D01*
X86002809Y-118778376D01*
X86240904Y-118778376D01*
X86336142Y-118825995D01*
X86383761Y-118873614D01*
X86431380Y-118968852D01*
X86431380Y-119254566D01*
X86383761Y-119349804D01*
X86336142Y-119397423D01*
X85431380Y-118159328D02*
X85431380Y-118064090D01*
X85479000Y-117968852D01*
X85526619Y-117921233D01*
X85621857Y-117873614D01*
X85812333Y-117825995D01*
X86050428Y-117825995D01*
X86240904Y-117873614D01*
X86336142Y-117921233D01*
X86383761Y-117968852D01*
X86431380Y-118064090D01*
X86431380Y-118159328D01*
X86383761Y-118254566D01*
X86336142Y-118302185D01*
X86240904Y-118349804D01*
X86050428Y-118397423D01*
X85812333Y-118397423D01*
X85621857Y-118349804D01*
X85526619Y-118302185D01*
X85479000Y-118254566D01*
X85431380Y-118159328D01*
X89019142Y-52096942D02*
X88971523Y-52144561D01*
X88828666Y-52192180D01*
X88733428Y-52192180D01*
X88590571Y-52144561D01*
X88495333Y-52049323D01*
X88447714Y-51954085D01*
X88400095Y-51763609D01*
X88400095Y-51620752D01*
X88447714Y-51430276D01*
X88495333Y-51335038D01*
X88590571Y-51239800D01*
X88733428Y-51192180D01*
X88828666Y-51192180D01*
X88971523Y-51239800D01*
X89019142Y-51287419D01*
X89352476Y-51192180D02*
X89971523Y-51192180D01*
X89638190Y-51573133D01*
X89781047Y-51573133D01*
X89876285Y-51620752D01*
X89923904Y-51668371D01*
X89971523Y-51763609D01*
X89971523Y-52001704D01*
X89923904Y-52096942D01*
X89876285Y-52144561D01*
X89781047Y-52192180D01*
X89495333Y-52192180D01*
X89400095Y-52144561D01*
X89352476Y-52096942D01*
X90923904Y-52192180D02*
X90352476Y-52192180D01*
X90638190Y-52192180D02*
X90638190Y-51192180D01*
X90542952Y-51335038D01*
X90447714Y-51430276D01*
X90352476Y-51477895D01*
X90793842Y-98953557D02*
X90841461Y-99001176D01*
X90889080Y-99144033D01*
X90889080Y-99239271D01*
X90841461Y-99382128D01*
X90746223Y-99477366D01*
X90650985Y-99524985D01*
X90460509Y-99572604D01*
X90317652Y-99572604D01*
X90127176Y-99524985D01*
X90031938Y-99477366D01*
X89936700Y-99382128D01*
X89889080Y-99239271D01*
X89889080Y-99144033D01*
X89936700Y-99001176D01*
X89984319Y-98953557D01*
X89889080Y-98620223D02*
X89889080Y-98001176D01*
X90270033Y-98334509D01*
X90270033Y-98191652D01*
X90317652Y-98096414D01*
X90365271Y-98048795D01*
X90460509Y-98001176D01*
X90698604Y-98001176D01*
X90793842Y-98048795D01*
X90841461Y-98096414D01*
X90889080Y-98191652D01*
X90889080Y-98477366D01*
X90841461Y-98572604D01*
X90793842Y-98620223D01*
X89984319Y-97620223D02*
X89936700Y-97572604D01*
X89889080Y-97477366D01*
X89889080Y-97239271D01*
X89936700Y-97144033D01*
X89984319Y-97096414D01*
X90079557Y-97048795D01*
X90174795Y-97048795D01*
X90317652Y-97096414D01*
X90889080Y-97667842D01*
X90889080Y-97048795D01*
X97029542Y-106814857D02*
X97077161Y-106862476D01*
X97124780Y-107005333D01*
X97124780Y-107100571D01*
X97077161Y-107243428D01*
X96981923Y-107338666D01*
X96886685Y-107386285D01*
X96696209Y-107433904D01*
X96553352Y-107433904D01*
X96362876Y-107386285D01*
X96267638Y-107338666D01*
X96172400Y-107243428D01*
X96124780Y-107100571D01*
X96124780Y-107005333D01*
X96172400Y-106862476D01*
X96220019Y-106814857D01*
X96124780Y-106481523D02*
X96124780Y-105862476D01*
X96505733Y-106195809D01*
X96505733Y-106052952D01*
X96553352Y-105957714D01*
X96600971Y-105910095D01*
X96696209Y-105862476D01*
X96934304Y-105862476D01*
X97029542Y-105910095D01*
X97077161Y-105957714D01*
X97124780Y-106052952D01*
X97124780Y-106338666D01*
X97077161Y-106433904D01*
X97029542Y-106481523D01*
X96124780Y-105529142D02*
X96124780Y-104910095D01*
X96505733Y-105243428D01*
X96505733Y-105100571D01*
X96553352Y-105005333D01*
X96600971Y-104957714D01*
X96696209Y-104910095D01*
X96934304Y-104910095D01*
X97029542Y-104957714D01*
X97077161Y-105005333D01*
X97124780Y-105100571D01*
X97124780Y-105386285D01*
X97077161Y-105481523D01*
X97029542Y-105529142D01*
X96572342Y-135326357D02*
X96619961Y-135373976D01*
X96667580Y-135516833D01*
X96667580Y-135612071D01*
X96619961Y-135754928D01*
X96524723Y-135850166D01*
X96429485Y-135897785D01*
X96239009Y-135945404D01*
X96096152Y-135945404D01*
X95905676Y-135897785D01*
X95810438Y-135850166D01*
X95715200Y-135754928D01*
X95667580Y-135612071D01*
X95667580Y-135516833D01*
X95715200Y-135373976D01*
X95762819Y-135326357D01*
X95667580Y-134993023D02*
X95667580Y-134373976D01*
X96048533Y-134707309D01*
X96048533Y-134564452D01*
X96096152Y-134469214D01*
X96143771Y-134421595D01*
X96239009Y-134373976D01*
X96477104Y-134373976D01*
X96572342Y-134421595D01*
X96619961Y-134469214D01*
X96667580Y-134564452D01*
X96667580Y-134850166D01*
X96619961Y-134945404D01*
X96572342Y-134993023D01*
X96000914Y-133516833D02*
X96667580Y-133516833D01*
X95619961Y-133754928D02*
X96334247Y-133993023D01*
X96334247Y-133373976D01*
X79538533Y-111374180D02*
X79205200Y-110897990D01*
X78967104Y-111374180D02*
X78967104Y-110374180D01*
X79348057Y-110374180D01*
X79443295Y-110421800D01*
X79490914Y-110469419D01*
X79538533Y-110564657D01*
X79538533Y-110707514D01*
X79490914Y-110802752D01*
X79443295Y-110850371D01*
X79348057Y-110897990D01*
X78967104Y-110897990D01*
X80490914Y-111374180D02*
X79919485Y-111374180D01*
X80205200Y-111374180D02*
X80205200Y-110374180D01*
X80109961Y-110517038D01*
X80014723Y-110612276D01*
X79919485Y-110659895D01*
X79462333Y-113863380D02*
X79129000Y-113387190D01*
X78890904Y-113863380D02*
X78890904Y-112863380D01*
X79271857Y-112863380D01*
X79367095Y-112911000D01*
X79414714Y-112958619D01*
X79462333Y-113053857D01*
X79462333Y-113196714D01*
X79414714Y-113291952D01*
X79367095Y-113339571D01*
X79271857Y-113387190D01*
X78890904Y-113387190D01*
X79843285Y-112958619D02*
X79890904Y-112911000D01*
X79986142Y-112863380D01*
X80224238Y-112863380D01*
X80319476Y-112911000D01*
X80367095Y-112958619D01*
X80414714Y-113053857D01*
X80414714Y-113149095D01*
X80367095Y-113291952D01*
X79795666Y-113863380D01*
X80414714Y-113863380D01*
X79513133Y-119095780D02*
X79179800Y-118619590D01*
X78941704Y-119095780D02*
X78941704Y-118095780D01*
X79322657Y-118095780D01*
X79417895Y-118143400D01*
X79465514Y-118191019D01*
X79513133Y-118286257D01*
X79513133Y-118429114D01*
X79465514Y-118524352D01*
X79417895Y-118571971D01*
X79322657Y-118619590D01*
X78941704Y-118619590D01*
X79846466Y-118095780D02*
X80465514Y-118095780D01*
X80132180Y-118476733D01*
X80275038Y-118476733D01*
X80370276Y-118524352D01*
X80417895Y-118571971D01*
X80465514Y-118667209D01*
X80465514Y-118905304D01*
X80417895Y-119000542D01*
X80370276Y-119048161D01*
X80275038Y-119095780D01*
X79989323Y-119095780D01*
X79894085Y-119048161D01*
X79846466Y-119000542D01*
X79716333Y-121534180D02*
X79383000Y-121057990D01*
X79144904Y-121534180D02*
X79144904Y-120534180D01*
X79525857Y-120534180D01*
X79621095Y-120581800D01*
X79668714Y-120629419D01*
X79716333Y-120724657D01*
X79716333Y-120867514D01*
X79668714Y-120962752D01*
X79621095Y-121010371D01*
X79525857Y-121057990D01*
X79144904Y-121057990D01*
X80573476Y-120867514D02*
X80573476Y-121534180D01*
X80335380Y-120486561D02*
X80097285Y-121200847D01*
X80716333Y-121200847D01*
X92133680Y-99188566D02*
X91657490Y-99521900D01*
X92133680Y-99759995D02*
X91133680Y-99759995D01*
X91133680Y-99379042D01*
X91181300Y-99283804D01*
X91228919Y-99236185D01*
X91324157Y-99188566D01*
X91467014Y-99188566D01*
X91562252Y-99236185D01*
X91609871Y-99283804D01*
X91657490Y-99379042D01*
X91657490Y-99759995D01*
X91133680Y-98283804D02*
X91133680Y-98759995D01*
X91609871Y-98807614D01*
X91562252Y-98759995D01*
X91514633Y-98664757D01*
X91514633Y-98426661D01*
X91562252Y-98331423D01*
X91609871Y-98283804D01*
X91705109Y-98236185D01*
X91943204Y-98236185D01*
X92038442Y-98283804D01*
X92086061Y-98331423D01*
X92133680Y-98426661D01*
X92133680Y-98664757D01*
X92086061Y-98759995D01*
X92038442Y-98807614D01*
X88298280Y-98909166D02*
X87822090Y-99242500D01*
X88298280Y-99480595D02*
X87298280Y-99480595D01*
X87298280Y-99099642D01*
X87345900Y-99004404D01*
X87393519Y-98956785D01*
X87488757Y-98909166D01*
X87631614Y-98909166D01*
X87726852Y-98956785D01*
X87774471Y-99004404D01*
X87822090Y-99099642D01*
X87822090Y-99480595D01*
X87298280Y-98052023D02*
X87298280Y-98242500D01*
X87345900Y-98337738D01*
X87393519Y-98385357D01*
X87536376Y-98480595D01*
X87726852Y-98528214D01*
X88107804Y-98528214D01*
X88203042Y-98480595D01*
X88250661Y-98432976D01*
X88298280Y-98337738D01*
X88298280Y-98147261D01*
X88250661Y-98052023D01*
X88203042Y-98004404D01*
X88107804Y-97956785D01*
X87869709Y-97956785D01*
X87774471Y-98004404D01*
X87726852Y-98052023D01*
X87679233Y-98147261D01*
X87679233Y-98337738D01*
X87726852Y-98432976D01*
X87774471Y-98480595D01*
X87869709Y-98528214D01*
X87625180Y-118695766D02*
X87148990Y-119029100D01*
X87625180Y-119267195D02*
X86625180Y-119267195D01*
X86625180Y-118886242D01*
X86672800Y-118791004D01*
X86720419Y-118743385D01*
X86815657Y-118695766D01*
X86958514Y-118695766D01*
X87053752Y-118743385D01*
X87101371Y-118791004D01*
X87148990Y-118886242D01*
X87148990Y-119267195D01*
X86625180Y-118362433D02*
X86625180Y-117695766D01*
X87625180Y-118124338D01*
X95575380Y-118746566D02*
X95099190Y-119079900D01*
X95575380Y-119317995D02*
X94575380Y-119317995D01*
X94575380Y-118937042D01*
X94623000Y-118841804D01*
X94670619Y-118794185D01*
X94765857Y-118746566D01*
X94908714Y-118746566D01*
X95003952Y-118794185D01*
X95051571Y-118841804D01*
X95099190Y-118937042D01*
X95099190Y-119317995D01*
X95003952Y-118175138D02*
X94956333Y-118270376D01*
X94908714Y-118317995D01*
X94813476Y-118365614D01*
X94765857Y-118365614D01*
X94670619Y-118317995D01*
X94623000Y-118270376D01*
X94575380Y-118175138D01*
X94575380Y-117984661D01*
X94623000Y-117889423D01*
X94670619Y-117841804D01*
X94765857Y-117794185D01*
X94813476Y-117794185D01*
X94908714Y-117841804D01*
X94956333Y-117889423D01*
X95003952Y-117984661D01*
X95003952Y-118175138D01*
X95051571Y-118270376D01*
X95099190Y-118317995D01*
X95194428Y-118365614D01*
X95384904Y-118365614D01*
X95480142Y-118317995D01*
X95527761Y-118270376D01*
X95575380Y-118175138D01*
X95575380Y-117984661D01*
X95527761Y-117889423D01*
X95480142Y-117841804D01*
X95384904Y-117794185D01*
X95194428Y-117794185D01*
X95099190Y-117841804D01*
X95051571Y-117889423D01*
X95003952Y-117984661D01*
X93352880Y-99163166D02*
X92876690Y-99496500D01*
X93352880Y-99734595D02*
X92352880Y-99734595D01*
X92352880Y-99353642D01*
X92400500Y-99258404D01*
X92448119Y-99210785D01*
X92543357Y-99163166D01*
X92686214Y-99163166D01*
X92781452Y-99210785D01*
X92829071Y-99258404D01*
X92876690Y-99353642D01*
X92876690Y-99734595D01*
X93352880Y-98686976D02*
X93352880Y-98496500D01*
X93305261Y-98401261D01*
X93257642Y-98353642D01*
X93114785Y-98258404D01*
X92924309Y-98210785D01*
X92543357Y-98210785D01*
X92448119Y-98258404D01*
X92400500Y-98306023D01*
X92352880Y-98401261D01*
X92352880Y-98591738D01*
X92400500Y-98686976D01*
X92448119Y-98734595D01*
X92543357Y-98782214D01*
X92781452Y-98782214D01*
X92876690Y-98734595D01*
X92924309Y-98686976D01*
X92971928Y-98591738D01*
X92971928Y-98401261D01*
X92924309Y-98306023D01*
X92876690Y-98258404D01*
X92781452Y-98210785D01*
X89542880Y-98902757D02*
X89066690Y-99236090D01*
X89542880Y-99474185D02*
X88542880Y-99474185D01*
X88542880Y-99093233D01*
X88590500Y-98997995D01*
X88638119Y-98950376D01*
X88733357Y-98902757D01*
X88876214Y-98902757D01*
X88971452Y-98950376D01*
X89019071Y-98997995D01*
X89066690Y-99093233D01*
X89066690Y-99474185D01*
X89542880Y-97950376D02*
X89542880Y-98521804D01*
X89542880Y-98236090D02*
X88542880Y-98236090D01*
X88685738Y-98331328D01*
X88780976Y-98426566D01*
X88828595Y-98521804D01*
X88542880Y-97331328D02*
X88542880Y-97236090D01*
X88590500Y-97140852D01*
X88638119Y-97093233D01*
X88733357Y-97045614D01*
X88923833Y-96997995D01*
X89161928Y-96997995D01*
X89352404Y-97045614D01*
X89447642Y-97093233D01*
X89495261Y-97140852D01*
X89542880Y-97236090D01*
X89542880Y-97331328D01*
X89495261Y-97426566D01*
X89447642Y-97474185D01*
X89352404Y-97521804D01*
X89161928Y-97569423D01*
X88923833Y-97569423D01*
X88733357Y-97521804D01*
X88638119Y-97474185D01*
X88590500Y-97426566D01*
X88542880Y-97331328D01*
X88793580Y-119629157D02*
X88317390Y-119962490D01*
X88793580Y-120200585D02*
X87793580Y-120200585D01*
X87793580Y-119819633D01*
X87841200Y-119724395D01*
X87888819Y-119676776D01*
X87984057Y-119629157D01*
X88126914Y-119629157D01*
X88222152Y-119676776D01*
X88269771Y-119724395D01*
X88317390Y-119819633D01*
X88317390Y-120200585D01*
X88793580Y-118676776D02*
X88793580Y-119248204D01*
X88793580Y-118962490D02*
X87793580Y-118962490D01*
X87936438Y-119057728D01*
X88031676Y-119152966D01*
X88079295Y-119248204D01*
X88793580Y-117724395D02*
X88793580Y-118295823D01*
X88793580Y-118010109D02*
X87793580Y-118010109D01*
X87936438Y-118105347D01*
X88031676Y-118200585D01*
X88079295Y-118295823D01*
X94279980Y-119654557D02*
X93803790Y-119987890D01*
X94279980Y-120225985D02*
X93279980Y-120225985D01*
X93279980Y-119845033D01*
X93327600Y-119749795D01*
X93375219Y-119702176D01*
X93470457Y-119654557D01*
X93613314Y-119654557D01*
X93708552Y-119702176D01*
X93756171Y-119749795D01*
X93803790Y-119845033D01*
X93803790Y-120225985D01*
X94279980Y-118702176D02*
X94279980Y-119273604D01*
X94279980Y-118987890D02*
X93279980Y-118987890D01*
X93422838Y-119083128D01*
X93518076Y-119178366D01*
X93565695Y-119273604D01*
X93375219Y-118321223D02*
X93327600Y-118273604D01*
X93279980Y-118178366D01*
X93279980Y-117940271D01*
X93327600Y-117845033D01*
X93375219Y-117797414D01*
X93470457Y-117749795D01*
X93565695Y-117749795D01*
X93708552Y-117797414D01*
X94279980Y-118368842D01*
X94279980Y-117749795D01*
X95813642Y-103436680D02*
X95480309Y-102960490D01*
X95242214Y-103436680D02*
X95242214Y-102436680D01*
X95623166Y-102436680D01*
X95718404Y-102484300D01*
X95766023Y-102531919D01*
X95813642Y-102627157D01*
X95813642Y-102770014D01*
X95766023Y-102865252D01*
X95718404Y-102912871D01*
X95623166Y-102960490D01*
X95242214Y-102960490D01*
X96766023Y-103436680D02*
X96194595Y-103436680D01*
X96480309Y-103436680D02*
X96480309Y-102436680D01*
X96385071Y-102579538D01*
X96289833Y-102674776D01*
X96194595Y-102722395D01*
X97099357Y-102436680D02*
X97718404Y-102436680D01*
X97385071Y-102817633D01*
X97527928Y-102817633D01*
X97623166Y-102865252D01*
X97670785Y-102912871D01*
X97718404Y-103008109D01*
X97718404Y-103246204D01*
X97670785Y-103341442D01*
X97623166Y-103389061D01*
X97527928Y-103436680D01*
X97242214Y-103436680D01*
X97146976Y-103389061D01*
X97099357Y-103341442D01*
X86504542Y-103652580D02*
X86171209Y-103176390D01*
X85933114Y-103652580D02*
X85933114Y-102652580D01*
X86314066Y-102652580D01*
X86409304Y-102700200D01*
X86456923Y-102747819D01*
X86504542Y-102843057D01*
X86504542Y-102985914D01*
X86456923Y-103081152D01*
X86409304Y-103128771D01*
X86314066Y-103176390D01*
X85933114Y-103176390D01*
X87456923Y-103652580D02*
X86885495Y-103652580D01*
X87171209Y-103652580D02*
X87171209Y-102652580D01*
X87075971Y-102795438D01*
X86980733Y-102890676D01*
X86885495Y-102938295D01*
X88314066Y-102985914D02*
X88314066Y-103652580D01*
X88075971Y-102604961D02*
X87837876Y-103319247D01*
X88456923Y-103319247D01*
X88206342Y-113406180D02*
X87873009Y-112929990D01*
X87634914Y-113406180D02*
X87634914Y-112406180D01*
X88015866Y-112406180D01*
X88111104Y-112453800D01*
X88158723Y-112501419D01*
X88206342Y-112596657D01*
X88206342Y-112739514D01*
X88158723Y-112834752D01*
X88111104Y-112882371D01*
X88015866Y-112929990D01*
X87634914Y-112929990D01*
X89158723Y-113406180D02*
X88587295Y-113406180D01*
X88873009Y-113406180D02*
X88873009Y-112406180D01*
X88777771Y-112549038D01*
X88682533Y-112644276D01*
X88587295Y-112691895D01*
X90063485Y-112406180D02*
X89587295Y-112406180D01*
X89539676Y-112882371D01*
X89587295Y-112834752D01*
X89682533Y-112787133D01*
X89920628Y-112787133D01*
X90015866Y-112834752D01*
X90063485Y-112882371D01*
X90111104Y-112977609D01*
X90111104Y-113215704D01*
X90063485Y-113310942D01*
X90015866Y-113358561D01*
X89920628Y-113406180D01*
X89682533Y-113406180D01*
X89587295Y-113358561D01*
X89539676Y-113310942D01*
X93946742Y-114536480D02*
X93613409Y-114060290D01*
X93375314Y-114536480D02*
X93375314Y-113536480D01*
X93756266Y-113536480D01*
X93851504Y-113584100D01*
X93899123Y-113631719D01*
X93946742Y-113726957D01*
X93946742Y-113869814D01*
X93899123Y-113965052D01*
X93851504Y-114012671D01*
X93756266Y-114060290D01*
X93375314Y-114060290D01*
X94899123Y-114536480D02*
X94327695Y-114536480D01*
X94613409Y-114536480D02*
X94613409Y-113536480D01*
X94518171Y-113679338D01*
X94422933Y-113774576D01*
X94327695Y-113822195D01*
X95756266Y-113536480D02*
X95565790Y-113536480D01*
X95470552Y-113584100D01*
X95422933Y-113631719D01*
X95327695Y-113774576D01*
X95280076Y-113965052D01*
X95280076Y-114346004D01*
X95327695Y-114441242D01*
X95375314Y-114488861D01*
X95470552Y-114536480D01*
X95661028Y-114536480D01*
X95756266Y-114488861D01*
X95803885Y-114441242D01*
X95851504Y-114346004D01*
X95851504Y-114107909D01*
X95803885Y-114012671D01*
X95756266Y-113965052D01*
X95661028Y-113917433D01*
X95470552Y-113917433D01*
X95375314Y-113965052D01*
X95327695Y-114012671D01*
X95280076Y-114107909D01*
X79468742Y-124023380D02*
X79135409Y-123547190D01*
X78897314Y-124023380D02*
X78897314Y-123023380D01*
X79278266Y-123023380D01*
X79373504Y-123071000D01*
X79421123Y-123118619D01*
X79468742Y-123213857D01*
X79468742Y-123356714D01*
X79421123Y-123451952D01*
X79373504Y-123499571D01*
X79278266Y-123547190D01*
X78897314Y-123547190D01*
X80421123Y-124023380D02*
X79849695Y-124023380D01*
X80135409Y-124023380D02*
X80135409Y-123023380D01*
X80040171Y-123166238D01*
X79944933Y-123261476D01*
X79849695Y-123309095D01*
X80754457Y-123023380D02*
X81421123Y-123023380D01*
X80992552Y-124023380D01*
X79519542Y-126611640D02*
X79186209Y-126135450D01*
X78948114Y-126611640D02*
X78948114Y-125611640D01*
X79329066Y-125611640D01*
X79424304Y-125659260D01*
X79471923Y-125706879D01*
X79519542Y-125802117D01*
X79519542Y-125944974D01*
X79471923Y-126040212D01*
X79424304Y-126087831D01*
X79329066Y-126135450D01*
X78948114Y-126135450D01*
X80471923Y-126611640D02*
X79900495Y-126611640D01*
X80186209Y-126611640D02*
X80186209Y-125611640D01*
X80090971Y-125754498D01*
X79995733Y-125849736D01*
X79900495Y-125897355D01*
X81043352Y-126040212D02*
X80948114Y-125992593D01*
X80900495Y-125944974D01*
X80852876Y-125849736D01*
X80852876Y-125802117D01*
X80900495Y-125706879D01*
X80948114Y-125659260D01*
X81043352Y-125611640D01*
X81233828Y-125611640D01*
X81329066Y-125659260D01*
X81376685Y-125706879D01*
X81424304Y-125802117D01*
X81424304Y-125849736D01*
X81376685Y-125944974D01*
X81329066Y-125992593D01*
X81233828Y-126040212D01*
X81043352Y-126040212D01*
X80948114Y-126087831D01*
X80900495Y-126135450D01*
X80852876Y-126230688D01*
X80852876Y-126421164D01*
X80900495Y-126516402D01*
X80948114Y-126564021D01*
X81043352Y-126611640D01*
X81233828Y-126611640D01*
X81329066Y-126564021D01*
X81376685Y-126516402D01*
X81424304Y-126421164D01*
X81424304Y-126230688D01*
X81376685Y-126135450D01*
X81329066Y-126087831D01*
X81233828Y-126040212D01*
X79443342Y-129077980D02*
X79110009Y-128601790D01*
X78871914Y-129077980D02*
X78871914Y-128077980D01*
X79252866Y-128077980D01*
X79348104Y-128125600D01*
X79395723Y-128173219D01*
X79443342Y-128268457D01*
X79443342Y-128411314D01*
X79395723Y-128506552D01*
X79348104Y-128554171D01*
X79252866Y-128601790D01*
X78871914Y-128601790D01*
X80395723Y-129077980D02*
X79824295Y-129077980D01*
X80110009Y-129077980D02*
X80110009Y-128077980D01*
X80014771Y-128220838D01*
X79919533Y-128316076D01*
X79824295Y-128363695D01*
X80871914Y-129077980D02*
X81062390Y-129077980D01*
X81157628Y-129030361D01*
X81205247Y-128982742D01*
X81300485Y-128839885D01*
X81348104Y-128649409D01*
X81348104Y-128268457D01*
X81300485Y-128173219D01*
X81252866Y-128125600D01*
X81157628Y-128077980D01*
X80967152Y-128077980D01*
X80871914Y-128125600D01*
X80824295Y-128173219D01*
X80776676Y-128268457D01*
X80776676Y-128506552D01*
X80824295Y-128601790D01*
X80871914Y-128649409D01*
X80967152Y-128697028D01*
X81157628Y-128697028D01*
X81252866Y-128649409D01*
X81300485Y-128601790D01*
X81348104Y-128506552D01*
X79468742Y-131694180D02*
X79135409Y-131217990D01*
X78897314Y-131694180D02*
X78897314Y-130694180D01*
X79278266Y-130694180D01*
X79373504Y-130741800D01*
X79421123Y-130789419D01*
X79468742Y-130884657D01*
X79468742Y-131027514D01*
X79421123Y-131122752D01*
X79373504Y-131170371D01*
X79278266Y-131217990D01*
X78897314Y-131217990D01*
X79849695Y-130789419D02*
X79897314Y-130741800D01*
X79992552Y-130694180D01*
X80230647Y-130694180D01*
X80325885Y-130741800D01*
X80373504Y-130789419D01*
X80421123Y-130884657D01*
X80421123Y-130979895D01*
X80373504Y-131122752D01*
X79802076Y-131694180D01*
X80421123Y-131694180D01*
X81040171Y-130694180D02*
X81135409Y-130694180D01*
X81230647Y-130741800D01*
X81278266Y-130789419D01*
X81325885Y-130884657D01*
X81373504Y-131075133D01*
X81373504Y-131313228D01*
X81325885Y-131503704D01*
X81278266Y-131598942D01*
X81230647Y-131646561D01*
X81135409Y-131694180D01*
X81040171Y-131694180D01*
X80944933Y-131646561D01*
X80897314Y-131598942D01*
X80849695Y-131503704D01*
X80802076Y-131313228D01*
X80802076Y-131075133D01*
X80849695Y-130884657D01*
X80897314Y-130789419D01*
X80944933Y-130741800D01*
X81040171Y-130694180D01*
X92247980Y-122626357D02*
X91771790Y-122959690D01*
X92247980Y-123197785D02*
X91247980Y-123197785D01*
X91247980Y-122816833D01*
X91295600Y-122721595D01*
X91343219Y-122673976D01*
X91438457Y-122626357D01*
X91581314Y-122626357D01*
X91676552Y-122673976D01*
X91724171Y-122721595D01*
X91771790Y-122816833D01*
X91771790Y-123197785D01*
X91343219Y-122245404D02*
X91295600Y-122197785D01*
X91247980Y-122102547D01*
X91247980Y-121864452D01*
X91295600Y-121769214D01*
X91343219Y-121721595D01*
X91438457Y-121673976D01*
X91533695Y-121673976D01*
X91676552Y-121721595D01*
X92247980Y-122293023D01*
X92247980Y-121673976D01*
X92247980Y-120721595D02*
X92247980Y-121293023D01*
X92247980Y-121007309D02*
X91247980Y-121007309D01*
X91390838Y-121102547D01*
X91486076Y-121197785D01*
X91533695Y-121293023D01*
X88437980Y-122499357D02*
X87961790Y-122832690D01*
X88437980Y-123070785D02*
X87437980Y-123070785D01*
X87437980Y-122689833D01*
X87485600Y-122594595D01*
X87533219Y-122546976D01*
X87628457Y-122499357D01*
X87771314Y-122499357D01*
X87866552Y-122546976D01*
X87914171Y-122594595D01*
X87961790Y-122689833D01*
X87961790Y-123070785D01*
X87533219Y-122118404D02*
X87485600Y-122070785D01*
X87437980Y-121975547D01*
X87437980Y-121737452D01*
X87485600Y-121642214D01*
X87533219Y-121594595D01*
X87628457Y-121546976D01*
X87723695Y-121546976D01*
X87866552Y-121594595D01*
X88437980Y-122166023D01*
X88437980Y-121546976D01*
X87533219Y-121166023D02*
X87485600Y-121118404D01*
X87437980Y-121023166D01*
X87437980Y-120785071D01*
X87485600Y-120689833D01*
X87533219Y-120642214D01*
X87628457Y-120594595D01*
X87723695Y-120594595D01*
X87866552Y-120642214D01*
X88437980Y-121213642D01*
X88437980Y-120594595D01*
X88234780Y-142946357D02*
X87758590Y-143279690D01*
X88234780Y-143517785D02*
X87234780Y-143517785D01*
X87234780Y-143136833D01*
X87282400Y-143041595D01*
X87330019Y-142993976D01*
X87425257Y-142946357D01*
X87568114Y-142946357D01*
X87663352Y-142993976D01*
X87710971Y-143041595D01*
X87758590Y-143136833D01*
X87758590Y-143517785D01*
X87330019Y-142565404D02*
X87282400Y-142517785D01*
X87234780Y-142422547D01*
X87234780Y-142184452D01*
X87282400Y-142089214D01*
X87330019Y-142041595D01*
X87425257Y-141993976D01*
X87520495Y-141993976D01*
X87663352Y-142041595D01*
X88234780Y-142613023D01*
X88234780Y-141993976D01*
X87234780Y-141660642D02*
X87234780Y-141041595D01*
X87615733Y-141374928D01*
X87615733Y-141232071D01*
X87663352Y-141136833D01*
X87710971Y-141089214D01*
X87806209Y-141041595D01*
X88044304Y-141041595D01*
X88139542Y-141089214D01*
X88187161Y-141136833D01*
X88234780Y-141232071D01*
X88234780Y-141517785D01*
X88187161Y-141613023D01*
X88139542Y-141660642D01*
X96235780Y-142844757D02*
X95759590Y-143178090D01*
X96235780Y-143416185D02*
X95235780Y-143416185D01*
X95235780Y-143035233D01*
X95283400Y-142939995D01*
X95331019Y-142892376D01*
X95426257Y-142844757D01*
X95569114Y-142844757D01*
X95664352Y-142892376D01*
X95711971Y-142939995D01*
X95759590Y-143035233D01*
X95759590Y-143416185D01*
X95331019Y-142463804D02*
X95283400Y-142416185D01*
X95235780Y-142320947D01*
X95235780Y-142082852D01*
X95283400Y-141987614D01*
X95331019Y-141939995D01*
X95426257Y-141892376D01*
X95521495Y-141892376D01*
X95664352Y-141939995D01*
X96235780Y-142511423D01*
X96235780Y-141892376D01*
X95569114Y-141035233D02*
X96235780Y-141035233D01*
X95188161Y-141273328D02*
X95902447Y-141511423D01*
X95902447Y-140892376D01*
X93441780Y-122727957D02*
X92965590Y-123061290D01*
X93441780Y-123299385D02*
X92441780Y-123299385D01*
X92441780Y-122918433D01*
X92489400Y-122823195D01*
X92537019Y-122775576D01*
X92632257Y-122727957D01*
X92775114Y-122727957D01*
X92870352Y-122775576D01*
X92917971Y-122823195D01*
X92965590Y-122918433D01*
X92965590Y-123299385D01*
X92537019Y-122347004D02*
X92489400Y-122299385D01*
X92441780Y-122204147D01*
X92441780Y-121966052D01*
X92489400Y-121870814D01*
X92537019Y-121823195D01*
X92632257Y-121775576D01*
X92727495Y-121775576D01*
X92870352Y-121823195D01*
X93441780Y-122394623D01*
X93441780Y-121775576D01*
X92441780Y-120870814D02*
X92441780Y-121347004D01*
X92917971Y-121394623D01*
X92870352Y-121347004D01*
X92822733Y-121251766D01*
X92822733Y-121013671D01*
X92870352Y-120918433D01*
X92917971Y-120870814D01*
X93013209Y-120823195D01*
X93251304Y-120823195D01*
X93346542Y-120870814D01*
X93394161Y-120918433D01*
X93441780Y-121013671D01*
X93441780Y-121251766D01*
X93394161Y-121347004D01*
X93346542Y-121394623D01*
X89682580Y-122600957D02*
X89206390Y-122934290D01*
X89682580Y-123172385D02*
X88682580Y-123172385D01*
X88682580Y-122791433D01*
X88730200Y-122696195D01*
X88777819Y-122648576D01*
X88873057Y-122600957D01*
X89015914Y-122600957D01*
X89111152Y-122648576D01*
X89158771Y-122696195D01*
X89206390Y-122791433D01*
X89206390Y-123172385D01*
X88777819Y-122220004D02*
X88730200Y-122172385D01*
X88682580Y-122077147D01*
X88682580Y-121839052D01*
X88730200Y-121743814D01*
X88777819Y-121696195D01*
X88873057Y-121648576D01*
X88968295Y-121648576D01*
X89111152Y-121696195D01*
X89682580Y-122267623D01*
X89682580Y-121648576D01*
X88682580Y-120791433D02*
X88682580Y-120981909D01*
X88730200Y-121077147D01*
X88777819Y-121124766D01*
X88920676Y-121220004D01*
X89111152Y-121267623D01*
X89492104Y-121267623D01*
X89587342Y-121220004D01*
X89634961Y-121172385D01*
X89682580Y-121077147D01*
X89682580Y-120886671D01*
X89634961Y-120791433D01*
X89587342Y-120743814D01*
X89492104Y-120696195D01*
X89254009Y-120696195D01*
X89158771Y-120743814D01*
X89111152Y-120791433D01*
X89063533Y-120886671D01*
X89063533Y-121077147D01*
X89111152Y-121172385D01*
X89158771Y-121220004D01*
X89254009Y-121267623D01*
X89453980Y-142895557D02*
X88977790Y-143228890D01*
X89453980Y-143466985D02*
X88453980Y-143466985D01*
X88453980Y-143086033D01*
X88501600Y-142990795D01*
X88549219Y-142943176D01*
X88644457Y-142895557D01*
X88787314Y-142895557D01*
X88882552Y-142943176D01*
X88930171Y-142990795D01*
X88977790Y-143086033D01*
X88977790Y-143466985D01*
X88549219Y-142514604D02*
X88501600Y-142466985D01*
X88453980Y-142371747D01*
X88453980Y-142133652D01*
X88501600Y-142038414D01*
X88549219Y-141990795D01*
X88644457Y-141943176D01*
X88739695Y-141943176D01*
X88882552Y-141990795D01*
X89453980Y-142562223D01*
X89453980Y-141943176D01*
X88453980Y-141609842D02*
X88453980Y-140943176D01*
X89453980Y-141371747D01*
X94864180Y-142895557D02*
X94387990Y-143228890D01*
X94864180Y-143466985D02*
X93864180Y-143466985D01*
X93864180Y-143086033D01*
X93911800Y-142990795D01*
X93959419Y-142943176D01*
X94054657Y-142895557D01*
X94197514Y-142895557D01*
X94292752Y-142943176D01*
X94340371Y-142990795D01*
X94387990Y-143086033D01*
X94387990Y-143466985D01*
X93959419Y-142514604D02*
X93911800Y-142466985D01*
X93864180Y-142371747D01*
X93864180Y-142133652D01*
X93911800Y-142038414D01*
X93959419Y-141990795D01*
X94054657Y-141943176D01*
X94149895Y-141943176D01*
X94292752Y-141990795D01*
X94864180Y-142562223D01*
X94864180Y-141943176D01*
X94292752Y-141371747D02*
X94245133Y-141466985D01*
X94197514Y-141514604D01*
X94102276Y-141562223D01*
X94054657Y-141562223D01*
X93959419Y-141514604D01*
X93911800Y-141466985D01*
X93864180Y-141371747D01*
X93864180Y-141181271D01*
X93911800Y-141086033D01*
X93959419Y-141038414D01*
X94054657Y-140990795D01*
X94102276Y-140990795D01*
X94197514Y-141038414D01*
X94245133Y-141086033D01*
X94292752Y-141181271D01*
X94292752Y-141371747D01*
X94340371Y-141466985D01*
X94387990Y-141514604D01*
X94483228Y-141562223D01*
X94673704Y-141562223D01*
X94768942Y-141514604D01*
X94816561Y-141466985D01*
X94864180Y-141371747D01*
X94864180Y-141181271D01*
X94816561Y-141086033D01*
X94768942Y-141038414D01*
X94673704Y-140990795D01*
X94483228Y-140990795D01*
X94387990Y-141038414D01*
X94340371Y-141086033D01*
X94292752Y-141181271D01*
X95902542Y-127071380D02*
X95569209Y-126595190D01*
X95331114Y-127071380D02*
X95331114Y-126071380D01*
X95712066Y-126071380D01*
X95807304Y-126119000D01*
X95854923Y-126166619D01*
X95902542Y-126261857D01*
X95902542Y-126404714D01*
X95854923Y-126499952D01*
X95807304Y-126547571D01*
X95712066Y-126595190D01*
X95331114Y-126595190D01*
X96283495Y-126166619D02*
X96331114Y-126119000D01*
X96426352Y-126071380D01*
X96664447Y-126071380D01*
X96759685Y-126119000D01*
X96807304Y-126166619D01*
X96854923Y-126261857D01*
X96854923Y-126357095D01*
X96807304Y-126499952D01*
X96235876Y-127071380D01*
X96854923Y-127071380D01*
X97331114Y-127071380D02*
X97521590Y-127071380D01*
X97616828Y-127023761D01*
X97664447Y-126976142D01*
X97759685Y-126833285D01*
X97807304Y-126642809D01*
X97807304Y-126261857D01*
X97759685Y-126166619D01*
X97712066Y-126119000D01*
X97616828Y-126071380D01*
X97426352Y-126071380D01*
X97331114Y-126119000D01*
X97283495Y-126166619D01*
X97235876Y-126261857D01*
X97235876Y-126499952D01*
X97283495Y-126595190D01*
X97331114Y-126642809D01*
X97426352Y-126690428D01*
X97616828Y-126690428D01*
X97712066Y-126642809D01*
X97759685Y-126595190D01*
X97807304Y-126499952D01*
X86631542Y-127058680D02*
X86298209Y-126582490D01*
X86060114Y-127058680D02*
X86060114Y-126058680D01*
X86441066Y-126058680D01*
X86536304Y-126106300D01*
X86583923Y-126153919D01*
X86631542Y-126249157D01*
X86631542Y-126392014D01*
X86583923Y-126487252D01*
X86536304Y-126534871D01*
X86441066Y-126582490D01*
X86060114Y-126582490D01*
X86964876Y-126058680D02*
X87583923Y-126058680D01*
X87250590Y-126439633D01*
X87393447Y-126439633D01*
X87488685Y-126487252D01*
X87536304Y-126534871D01*
X87583923Y-126630109D01*
X87583923Y-126868204D01*
X87536304Y-126963442D01*
X87488685Y-127011061D01*
X87393447Y-127058680D01*
X87107733Y-127058680D01*
X87012495Y-127011061D01*
X86964876Y-126963442D01*
X88202971Y-126058680D02*
X88298209Y-126058680D01*
X88393447Y-126106300D01*
X88441066Y-126153919D01*
X88488685Y-126249157D01*
X88536304Y-126439633D01*
X88536304Y-126677728D01*
X88488685Y-126868204D01*
X88441066Y-126963442D01*
X88393447Y-127011061D01*
X88298209Y-127058680D01*
X88202971Y-127058680D01*
X88107733Y-127011061D01*
X88060114Y-126963442D01*
X88012495Y-126868204D01*
X87964876Y-126677728D01*
X87964876Y-126439633D01*
X88012495Y-126249157D01*
X88060114Y-126153919D01*
X88107733Y-126106300D01*
X88202971Y-126058680D01*
X86275942Y-137752080D02*
X85942609Y-137275890D01*
X85704514Y-137752080D02*
X85704514Y-136752080D01*
X86085466Y-136752080D01*
X86180704Y-136799700D01*
X86228323Y-136847319D01*
X86275942Y-136942557D01*
X86275942Y-137085414D01*
X86228323Y-137180652D01*
X86180704Y-137228271D01*
X86085466Y-137275890D01*
X85704514Y-137275890D01*
X86609276Y-136752080D02*
X87228323Y-136752080D01*
X86894990Y-137133033D01*
X87037847Y-137133033D01*
X87133085Y-137180652D01*
X87180704Y-137228271D01*
X87228323Y-137323509D01*
X87228323Y-137561604D01*
X87180704Y-137656842D01*
X87133085Y-137704461D01*
X87037847Y-137752080D01*
X86752133Y-137752080D01*
X86656895Y-137704461D01*
X86609276Y-137656842D01*
X88180704Y-137752080D02*
X87609276Y-137752080D01*
X87894990Y-137752080D02*
X87894990Y-136752080D01*
X87799752Y-136894938D01*
X87704514Y-136990176D01*
X87609276Y-137037795D01*
X94784942Y-137777480D02*
X94451609Y-137301290D01*
X94213514Y-137777480D02*
X94213514Y-136777480D01*
X94594466Y-136777480D01*
X94689704Y-136825100D01*
X94737323Y-136872719D01*
X94784942Y-136967957D01*
X94784942Y-137110814D01*
X94737323Y-137206052D01*
X94689704Y-137253671D01*
X94594466Y-137301290D01*
X94213514Y-137301290D01*
X95118276Y-136777480D02*
X95737323Y-136777480D01*
X95403990Y-137158433D01*
X95546847Y-137158433D01*
X95642085Y-137206052D01*
X95689704Y-137253671D01*
X95737323Y-137348909D01*
X95737323Y-137587004D01*
X95689704Y-137682242D01*
X95642085Y-137729861D01*
X95546847Y-137777480D01*
X95261133Y-137777480D01*
X95165895Y-137729861D01*
X95118276Y-137682242D01*
X96118276Y-136872719D02*
X96165895Y-136825100D01*
X96261133Y-136777480D01*
X96499228Y-136777480D01*
X96594466Y-136825100D01*
X96642085Y-136872719D01*
X96689704Y-136967957D01*
X96689704Y-137063195D01*
X96642085Y-137206052D01*
X96070657Y-137777480D01*
X96689704Y-137777480D01*
X83815180Y-119794257D02*
X83338990Y-120127590D01*
X83815180Y-120365685D02*
X82815180Y-120365685D01*
X82815180Y-119984733D01*
X82862800Y-119889495D01*
X82910419Y-119841876D01*
X83005657Y-119794257D01*
X83148514Y-119794257D01*
X83243752Y-119841876D01*
X83291371Y-119889495D01*
X83338990Y-119984733D01*
X83338990Y-120365685D01*
X82815180Y-119460923D02*
X82815180Y-118841876D01*
X83196133Y-119175209D01*
X83196133Y-119032352D01*
X83243752Y-118937114D01*
X83291371Y-118889495D01*
X83386609Y-118841876D01*
X83624704Y-118841876D01*
X83719942Y-118889495D01*
X83767561Y-118937114D01*
X83815180Y-119032352D01*
X83815180Y-119318066D01*
X83767561Y-119413304D01*
X83719942Y-119460923D01*
X82815180Y-118508542D02*
X82815180Y-117889495D01*
X83196133Y-118222828D01*
X83196133Y-118079971D01*
X83243752Y-117984733D01*
X83291371Y-117937114D01*
X83386609Y-117889495D01*
X83624704Y-117889495D01*
X83719942Y-117937114D01*
X83767561Y-117984733D01*
X83815180Y-118079971D01*
X83815180Y-118365685D01*
X83767561Y-118460923D01*
X83719942Y-118508542D01*
X85123280Y-119768857D02*
X84647090Y-120102190D01*
X85123280Y-120340285D02*
X84123280Y-120340285D01*
X84123280Y-119959333D01*
X84170900Y-119864095D01*
X84218519Y-119816476D01*
X84313757Y-119768857D01*
X84456614Y-119768857D01*
X84551852Y-119816476D01*
X84599471Y-119864095D01*
X84647090Y-119959333D01*
X84647090Y-120340285D01*
X84123280Y-119435523D02*
X84123280Y-118816476D01*
X84504233Y-119149809D01*
X84504233Y-119006952D01*
X84551852Y-118911714D01*
X84599471Y-118864095D01*
X84694709Y-118816476D01*
X84932804Y-118816476D01*
X85028042Y-118864095D01*
X85075661Y-118911714D01*
X85123280Y-119006952D01*
X85123280Y-119292666D01*
X85075661Y-119387904D01*
X85028042Y-119435523D01*
X84456614Y-117959333D02*
X85123280Y-117959333D01*
X84075661Y-118197428D02*
X84789947Y-118435523D01*
X84789947Y-117816476D01*
X82656442Y-114485680D02*
X82323109Y-114009490D01*
X82085014Y-114485680D02*
X82085014Y-113485680D01*
X82465966Y-113485680D01*
X82561204Y-113533300D01*
X82608823Y-113580919D01*
X82656442Y-113676157D01*
X82656442Y-113819014D01*
X82608823Y-113914252D01*
X82561204Y-113961871D01*
X82465966Y-114009490D01*
X82085014Y-114009490D01*
X82989776Y-113485680D02*
X83608823Y-113485680D01*
X83275490Y-113866633D01*
X83418347Y-113866633D01*
X83513585Y-113914252D01*
X83561204Y-113961871D01*
X83608823Y-114057109D01*
X83608823Y-114295204D01*
X83561204Y-114390442D01*
X83513585Y-114438061D01*
X83418347Y-114485680D01*
X83132633Y-114485680D01*
X83037395Y-114438061D01*
X82989776Y-114390442D01*
X84513585Y-113485680D02*
X84037395Y-113485680D01*
X83989776Y-113961871D01*
X84037395Y-113914252D01*
X84132633Y-113866633D01*
X84370728Y-113866633D01*
X84465966Y-113914252D01*
X84513585Y-113961871D01*
X84561204Y-114057109D01*
X84561204Y-114295204D01*
X84513585Y-114390442D01*
X84465966Y-114438061D01*
X84370728Y-114485680D01*
X84132633Y-114485680D01*
X84037395Y-114438061D01*
X83989776Y-114390442D01*
X141168380Y-115908057D02*
X140692190Y-116241390D01*
X141168380Y-116479485D02*
X140168380Y-116479485D01*
X140168380Y-116098533D01*
X140216000Y-116003295D01*
X140263619Y-115955676D01*
X140358857Y-115908057D01*
X140501714Y-115908057D01*
X140596952Y-115955676D01*
X140644571Y-116003295D01*
X140692190Y-116098533D01*
X140692190Y-116479485D01*
X140168380Y-115003295D02*
X140168380Y-115479485D01*
X140644571Y-115527104D01*
X140596952Y-115479485D01*
X140549333Y-115384247D01*
X140549333Y-115146152D01*
X140596952Y-115050914D01*
X140644571Y-115003295D01*
X140739809Y-114955676D01*
X140977904Y-114955676D01*
X141073142Y-115003295D01*
X141120761Y-115050914D01*
X141168380Y-115146152D01*
X141168380Y-115384247D01*
X141120761Y-115479485D01*
X141073142Y-115527104D01*
X140168380Y-114050914D02*
X140168380Y-114527104D01*
X140644571Y-114574723D01*
X140596952Y-114527104D01*
X140549333Y-114431866D01*
X140549333Y-114193771D01*
X140596952Y-114098533D01*
X140644571Y-114050914D01*
X140739809Y-114003295D01*
X140977904Y-114003295D01*
X141073142Y-114050914D01*
X141120761Y-114098533D01*
X141168380Y-114193771D01*
X141168380Y-114431866D01*
X141120761Y-114527104D01*
X141073142Y-114574723D01*
X137432980Y-115882657D02*
X136956790Y-116215990D01*
X137432980Y-116454085D02*
X136432980Y-116454085D01*
X136432980Y-116073133D01*
X136480600Y-115977895D01*
X136528219Y-115930276D01*
X136623457Y-115882657D01*
X136766314Y-115882657D01*
X136861552Y-115930276D01*
X136909171Y-115977895D01*
X136956790Y-116073133D01*
X136956790Y-116454085D01*
X136432980Y-114977895D02*
X136432980Y-115454085D01*
X136909171Y-115501704D01*
X136861552Y-115454085D01*
X136813933Y-115358847D01*
X136813933Y-115120752D01*
X136861552Y-115025514D01*
X136909171Y-114977895D01*
X137004409Y-114930276D01*
X137242504Y-114930276D01*
X137337742Y-114977895D01*
X137385361Y-115025514D01*
X137432980Y-115120752D01*
X137432980Y-115358847D01*
X137385361Y-115454085D01*
X137337742Y-115501704D01*
X136432980Y-114073133D02*
X136432980Y-114263609D01*
X136480600Y-114358847D01*
X136528219Y-114406466D01*
X136671076Y-114501704D01*
X136861552Y-114549323D01*
X137242504Y-114549323D01*
X137337742Y-114501704D01*
X137385361Y-114454085D01*
X137432980Y-114358847D01*
X137432980Y-114168371D01*
X137385361Y-114073133D01*
X137337742Y-114025514D01*
X137242504Y-113977895D01*
X137004409Y-113977895D01*
X136909171Y-114025514D01*
X136861552Y-114073133D01*
X136813933Y-114168371D01*
X136813933Y-114358847D01*
X136861552Y-114454085D01*
X136909171Y-114501704D01*
X137004409Y-114549323D01*
X142994142Y-127122180D02*
X142660809Y-126645990D01*
X142422714Y-127122180D02*
X142422714Y-126122180D01*
X142803666Y-126122180D01*
X142898904Y-126169800D01*
X142946523Y-126217419D01*
X142994142Y-126312657D01*
X142994142Y-126455514D01*
X142946523Y-126550752D01*
X142898904Y-126598371D01*
X142803666Y-126645990D01*
X142422714Y-126645990D01*
X143470333Y-127122180D02*
X143660809Y-127122180D01*
X143756047Y-127074561D01*
X143803666Y-127026942D01*
X143898904Y-126884085D01*
X143946523Y-126693609D01*
X143946523Y-126312657D01*
X143898904Y-126217419D01*
X143851285Y-126169800D01*
X143756047Y-126122180D01*
X143565571Y-126122180D01*
X143470333Y-126169800D01*
X143422714Y-126217419D01*
X143375095Y-126312657D01*
X143375095Y-126550752D01*
X143422714Y-126645990D01*
X143470333Y-126693609D01*
X143565571Y-126741228D01*
X143756047Y-126741228D01*
X143851285Y-126693609D01*
X143898904Y-126645990D01*
X143946523Y-126550752D01*
X144327476Y-126217419D02*
X144375095Y-126169800D01*
X144470333Y-126122180D01*
X144708428Y-126122180D01*
X144803666Y-126169800D01*
X144851285Y-126217419D01*
X144898904Y-126312657D01*
X144898904Y-126407895D01*
X144851285Y-126550752D01*
X144279857Y-127122180D01*
X144898904Y-127122180D01*
X142917942Y-120986480D02*
X142584609Y-120510290D01*
X142346514Y-120986480D02*
X142346514Y-119986480D01*
X142727466Y-119986480D01*
X142822704Y-120034100D01*
X142870323Y-120081719D01*
X142917942Y-120176957D01*
X142917942Y-120319814D01*
X142870323Y-120415052D01*
X142822704Y-120462671D01*
X142727466Y-120510290D01*
X142346514Y-120510290D01*
X143394133Y-120986480D02*
X143584609Y-120986480D01*
X143679847Y-120938861D01*
X143727466Y-120891242D01*
X143822704Y-120748385D01*
X143870323Y-120557909D01*
X143870323Y-120176957D01*
X143822704Y-120081719D01*
X143775085Y-120034100D01*
X143679847Y-119986480D01*
X143489371Y-119986480D01*
X143394133Y-120034100D01*
X143346514Y-120081719D01*
X143298895Y-120176957D01*
X143298895Y-120415052D01*
X143346514Y-120510290D01*
X143394133Y-120557909D01*
X143489371Y-120605528D01*
X143679847Y-120605528D01*
X143775085Y-120557909D01*
X143822704Y-120510290D01*
X143870323Y-120415052D01*
X144203657Y-119986480D02*
X144822704Y-119986480D01*
X144489371Y-120367433D01*
X144632228Y-120367433D01*
X144727466Y-120415052D01*
X144775085Y-120462671D01*
X144822704Y-120557909D01*
X144822704Y-120796004D01*
X144775085Y-120891242D01*
X144727466Y-120938861D01*
X144632228Y-120986480D01*
X144346514Y-120986480D01*
X144251276Y-120938861D01*
X144203657Y-120891242D01*
X92489495Y-175144180D02*
X93060923Y-175144180D01*
X92775209Y-176144180D02*
X92775209Y-175144180D01*
X93394257Y-176144180D02*
X93394257Y-175144180D01*
X93775209Y-175144180D01*
X93870447Y-175191800D01*
X93918066Y-175239419D01*
X93965685Y-175334657D01*
X93965685Y-175477514D01*
X93918066Y-175572752D01*
X93870447Y-175620371D01*
X93775209Y-175667990D01*
X93394257Y-175667990D01*
X94870447Y-175144180D02*
X94394257Y-175144180D01*
X94346638Y-175620371D01*
X94394257Y-175572752D01*
X94489495Y-175525133D01*
X94727590Y-175525133D01*
X94822828Y-175572752D01*
X94870447Y-175620371D01*
X94918066Y-175715609D01*
X94918066Y-175953704D01*
X94870447Y-176048942D01*
X94822828Y-176096561D01*
X94727590Y-176144180D01*
X94489495Y-176144180D01*
X94394257Y-176096561D01*
X94346638Y-176048942D01*
X79154495Y-56094380D02*
X79725923Y-56094380D01*
X79440209Y-57094380D02*
X79440209Y-56094380D01*
X80059257Y-57094380D02*
X80059257Y-56094380D01*
X80440209Y-56094380D01*
X80535447Y-56142000D01*
X80583066Y-56189619D01*
X80630685Y-56284857D01*
X80630685Y-56427714D01*
X80583066Y-56522952D01*
X80535447Y-56570571D01*
X80440209Y-56618190D01*
X80059257Y-56618190D01*
X81106876Y-57094380D02*
X81297352Y-57094380D01*
X81392590Y-57046761D01*
X81440209Y-56999142D01*
X81535447Y-56856285D01*
X81583066Y-56665809D01*
X81583066Y-56284857D01*
X81535447Y-56189619D01*
X81487828Y-56142000D01*
X81392590Y-56094380D01*
X81202114Y-56094380D01*
X81106876Y-56142000D01*
X81059257Y-56189619D01*
X81011638Y-56284857D01*
X81011638Y-56522952D01*
X81059257Y-56618190D01*
X81106876Y-56665809D01*
X81202114Y-56713428D01*
X81392590Y-56713428D01*
X81487828Y-56665809D01*
X81535447Y-56618190D01*
X81583066Y-56522952D01*
X91937104Y-164529980D02*
X92508533Y-164529980D01*
X92222819Y-165529980D02*
X92222819Y-164529980D01*
X92841866Y-165529980D02*
X92841866Y-164529980D01*
X93222819Y-164529980D01*
X93318057Y-164577600D01*
X93365676Y-164625219D01*
X93413295Y-164720457D01*
X93413295Y-164863314D01*
X93365676Y-164958552D01*
X93318057Y-165006171D01*
X93222819Y-165053790D01*
X92841866Y-165053790D01*
X94365676Y-165529980D02*
X93794247Y-165529980D01*
X94079961Y-165529980D02*
X94079961Y-164529980D01*
X93984723Y-164672838D01*
X93889485Y-164768076D01*
X93794247Y-164815695D01*
X94984723Y-164529980D02*
X95079961Y-164529980D01*
X95175200Y-164577600D01*
X95222819Y-164625219D01*
X95270438Y-164720457D01*
X95318057Y-164910933D01*
X95318057Y-165149028D01*
X95270438Y-165339504D01*
X95222819Y-165434742D01*
X95175200Y-165482361D01*
X95079961Y-165529980D01*
X94984723Y-165529980D01*
X94889485Y-165482361D01*
X94841866Y-165434742D01*
X94794247Y-165339504D01*
X94746628Y-165149028D01*
X94746628Y-164910933D01*
X94794247Y-164720457D01*
X94841866Y-164625219D01*
X94889485Y-164577600D01*
X94984723Y-164529980D01*
X83566095Y-130871980D02*
X83566095Y-131681504D01*
X83613714Y-131776742D01*
X83661333Y-131824361D01*
X83756571Y-131871980D01*
X83947047Y-131871980D01*
X84042285Y-131824361D01*
X84089904Y-131776742D01*
X84137523Y-131681504D01*
X84137523Y-130871980D01*
X85042285Y-131205314D02*
X85042285Y-131871980D01*
X84804190Y-130824361D02*
X84566095Y-131538647D01*
X85185142Y-131538647D01*
X233442295Y-190140280D02*
X233442295Y-189140280D01*
X233442295Y-189616471D02*
X234013723Y-189616471D01*
X234013723Y-190140280D02*
X234013723Y-189140280D01*
X235013723Y-190140280D02*
X234442295Y-190140280D01*
X234728009Y-190140280D02*
X234728009Y-189140280D01*
X234632771Y-189283138D01*
X234537533Y-189378376D01*
X234442295Y-189425995D01*
X148392295Y-190140280D02*
X148392295Y-189140280D01*
X148392295Y-189616471D02*
X148963723Y-189616471D01*
X148963723Y-190140280D02*
X148963723Y-189140280D01*
X149392295Y-189235519D02*
X149439914Y-189187900D01*
X149535152Y-189140280D01*
X149773247Y-189140280D01*
X149868485Y-189187900D01*
X149916104Y-189235519D01*
X149963723Y-189330757D01*
X149963723Y-189425995D01*
X149916104Y-189568852D01*
X149344676Y-190140280D01*
X149963723Y-190140280D01*
X63342295Y-190140280D02*
X63342295Y-189140280D01*
X63342295Y-189616471D02*
X63913723Y-189616471D01*
X63913723Y-190140280D02*
X63913723Y-189140280D01*
X64294676Y-189140280D02*
X64913723Y-189140280D01*
X64580390Y-189521233D01*
X64723247Y-189521233D01*
X64818485Y-189568852D01*
X64866104Y-189616471D01*
X64913723Y-189711709D01*
X64913723Y-189949804D01*
X64866104Y-190045042D01*
X64818485Y-190092661D01*
X64723247Y-190140280D01*
X64437533Y-190140280D01*
X64342295Y-190092661D01*
X64294676Y-190045042D01*
X233442295Y-62060280D02*
X233442295Y-61060280D01*
X233442295Y-61536471D02*
X234013723Y-61536471D01*
X234013723Y-62060280D02*
X234013723Y-61060280D01*
X234918485Y-61393614D02*
X234918485Y-62060280D01*
X234680390Y-61012661D02*
X234442295Y-61726947D01*
X235061342Y-61726947D01*
X148392295Y-62060280D02*
X148392295Y-61060280D01*
X148392295Y-61536471D02*
X148963723Y-61536471D01*
X148963723Y-62060280D02*
X148963723Y-61060280D01*
X149916104Y-61060280D02*
X149439914Y-61060280D01*
X149392295Y-61536471D01*
X149439914Y-61488852D01*
X149535152Y-61441233D01*
X149773247Y-61441233D01*
X149868485Y-61488852D01*
X149916104Y-61536471D01*
X149963723Y-61631709D01*
X149963723Y-61869804D01*
X149916104Y-61965042D01*
X149868485Y-62012661D01*
X149773247Y-62060280D01*
X149535152Y-62060280D01*
X149439914Y-62012661D01*
X149392295Y-61965042D01*
X70281895Y-62568580D02*
X70281895Y-61568580D01*
X70281895Y-62044771D02*
X70853323Y-62044771D01*
X70853323Y-62568580D02*
X70853323Y-61568580D01*
X71758085Y-61568580D02*
X71567609Y-61568580D01*
X71472371Y-61616200D01*
X71424752Y-61663819D01*
X71329514Y-61806676D01*
X71281895Y-61997152D01*
X71281895Y-62378104D01*
X71329514Y-62473342D01*
X71377133Y-62520961D01*
X71472371Y-62568580D01*
X71662847Y-62568580D01*
X71758085Y-62520961D01*
X71805704Y-62473342D01*
X71853323Y-62378104D01*
X71853323Y-62140009D01*
X71805704Y-62044771D01*
X71758085Y-61997152D01*
X71662847Y-61949533D01*
X71472371Y-61949533D01*
X71377133Y-61997152D01*
X71329514Y-62044771D01*
X71281895Y-62140009D01*
X84073580Y-166636604D02*
X84883104Y-166636604D01*
X84978342Y-166588985D01*
X85025961Y-166541366D01*
X85073580Y-166446128D01*
X85073580Y-166255652D01*
X85025961Y-166160414D01*
X84978342Y-166112795D01*
X84883104Y-166065176D01*
X84073580Y-166065176D01*
X84168819Y-165636604D02*
X84121200Y-165588985D01*
X84073580Y-165493747D01*
X84073580Y-165255652D01*
X84121200Y-165160414D01*
X84168819Y-165112795D01*
X84264057Y-165065176D01*
X84359295Y-165065176D01*
X84502152Y-165112795D01*
X85073580Y-165684223D01*
X85073580Y-165065176D01*
X84248981Y-177291904D02*
X85058505Y-177291904D01*
X85153743Y-177244285D01*
X85201362Y-177196666D01*
X85248981Y-177101428D01*
X85248981Y-176910952D01*
X85201362Y-176815714D01*
X85153743Y-176768095D01*
X85058505Y-176720476D01*
X84248981Y-176720476D01*
X84248981Y-176339523D02*
X84248981Y-175720476D01*
X84629934Y-176053809D01*
X84629934Y-175910952D01*
X84677553Y-175815714D01*
X84725172Y-175768095D01*
X84820410Y-175720476D01*
X85058505Y-175720476D01*
X85153743Y-175768095D01*
X85201362Y-175815714D01*
X85248981Y-175910952D01*
X85248981Y-176196666D01*
X85201362Y-176291904D01*
X85153743Y-176339523D01*
X83385381Y-54914704D02*
X84194905Y-54914704D01*
X84290143Y-54867085D01*
X84337762Y-54819466D01*
X84385381Y-54724228D01*
X84385381Y-54533752D01*
X84337762Y-54438514D01*
X84290143Y-54390895D01*
X84194905Y-54343276D01*
X83385381Y-54343276D01*
X83813953Y-53724228D02*
X83766334Y-53819466D01*
X83718715Y-53867085D01*
X83623477Y-53914704D01*
X83575858Y-53914704D01*
X83480620Y-53867085D01*
X83433001Y-53819466D01*
X83385381Y-53724228D01*
X83385381Y-53533752D01*
X83433001Y-53438514D01*
X83480620Y-53390895D01*
X83575858Y-53343276D01*
X83623477Y-53343276D01*
X83718715Y-53390895D01*
X83766334Y-53438514D01*
X83813953Y-53533752D01*
X83813953Y-53724228D01*
X83861572Y-53819466D01*
X83909191Y-53867085D01*
X84004429Y-53914704D01*
X84194905Y-53914704D01*
X84290143Y-53867085D01*
X84337762Y-53819466D01*
X84385381Y-53724228D01*
X84385381Y-53533752D01*
X84337762Y-53438514D01*
X84290143Y-53390895D01*
X84194905Y-53343276D01*
X84004429Y-53343276D01*
X83909191Y-53390895D01*
X83861572Y-53438514D01*
X83813953Y-53533752D01*
%LPC*%
G36*
G01*
X93004500Y-109792900D02*
X93304500Y-109792900D01*
G75*
G02*
X93454500Y-109942900I0J-150000D01*
G01*
X93454500Y-111592900D01*
G75*
G02*
X93304500Y-111742900I-150000J0D01*
G01*
X93004500Y-111742900D01*
G75*
G02*
X92854500Y-111592900I0J150000D01*
G01*
X92854500Y-109942900D01*
G75*
G02*
X93004500Y-109792900I150000J0D01*
G01*
G37*
G36*
G01*
X91734500Y-109792900D02*
X92034500Y-109792900D01*
G75*
G02*
X92184500Y-109942900I0J-150000D01*
G01*
X92184500Y-111592900D01*
G75*
G02*
X92034500Y-111742900I-150000J0D01*
G01*
X91734500Y-111742900D01*
G75*
G02*
X91584500Y-111592900I0J150000D01*
G01*
X91584500Y-109942900D01*
G75*
G02*
X91734500Y-109792900I150000J0D01*
G01*
G37*
G36*
G01*
X90464500Y-109792900D02*
X90764500Y-109792900D01*
G75*
G02*
X90914500Y-109942900I0J-150000D01*
G01*
X90914500Y-111592900D01*
G75*
G02*
X90764500Y-111742900I-150000J0D01*
G01*
X90464500Y-111742900D01*
G75*
G02*
X90314500Y-111592900I0J150000D01*
G01*
X90314500Y-109942900D01*
G75*
G02*
X90464500Y-109792900I150000J0D01*
G01*
G37*
G36*
G01*
X89194500Y-109792900D02*
X89494500Y-109792900D01*
G75*
G02*
X89644500Y-109942900I0J-150000D01*
G01*
X89644500Y-111592900D01*
G75*
G02*
X89494500Y-111742900I-150000J0D01*
G01*
X89194500Y-111742900D01*
G75*
G02*
X89044500Y-111592900I0J150000D01*
G01*
X89044500Y-109942900D01*
G75*
G02*
X89194500Y-109792900I150000J0D01*
G01*
G37*
G36*
G01*
X87924500Y-109792900D02*
X88224500Y-109792900D01*
G75*
G02*
X88374500Y-109942900I0J-150000D01*
G01*
X88374500Y-111592900D01*
G75*
G02*
X88224500Y-111742900I-150000J0D01*
G01*
X87924500Y-111742900D01*
G75*
G02*
X87774500Y-111592900I0J150000D01*
G01*
X87774500Y-109942900D01*
G75*
G02*
X87924500Y-109792900I150000J0D01*
G01*
G37*
G36*
G01*
X86654500Y-109792900D02*
X86954500Y-109792900D01*
G75*
G02*
X87104500Y-109942900I0J-150000D01*
G01*
X87104500Y-111592900D01*
G75*
G02*
X86954500Y-111742900I-150000J0D01*
G01*
X86654500Y-111742900D01*
G75*
G02*
X86504500Y-111592900I0J150000D01*
G01*
X86504500Y-109942900D01*
G75*
G02*
X86654500Y-109792900I150000J0D01*
G01*
G37*
G36*
G01*
X85384500Y-109792900D02*
X85684500Y-109792900D01*
G75*
G02*
X85834500Y-109942900I0J-150000D01*
G01*
X85834500Y-111592900D01*
G75*
G02*
X85684500Y-111742900I-150000J0D01*
G01*
X85384500Y-111742900D01*
G75*
G02*
X85234500Y-111592900I0J150000D01*
G01*
X85234500Y-109942900D01*
G75*
G02*
X85384500Y-109792900I150000J0D01*
G01*
G37*
G36*
G01*
X85384500Y-104842900D02*
X85684500Y-104842900D01*
G75*
G02*
X85834500Y-104992900I0J-150000D01*
G01*
X85834500Y-106642900D01*
G75*
G02*
X85684500Y-106792900I-150000J0D01*
G01*
X85384500Y-106792900D01*
G75*
G02*
X85234500Y-106642900I0J150000D01*
G01*
X85234500Y-104992900D01*
G75*
G02*
X85384500Y-104842900I150000J0D01*
G01*
G37*
G36*
G01*
X86654500Y-104842900D02*
X86954500Y-104842900D01*
G75*
G02*
X87104500Y-104992900I0J-150000D01*
G01*
X87104500Y-106642900D01*
G75*
G02*
X86954500Y-106792900I-150000J0D01*
G01*
X86654500Y-106792900D01*
G75*
G02*
X86504500Y-106642900I0J150000D01*
G01*
X86504500Y-104992900D01*
G75*
G02*
X86654500Y-104842900I150000J0D01*
G01*
G37*
G36*
G01*
X87924500Y-104842900D02*
X88224500Y-104842900D01*
G75*
G02*
X88374500Y-104992900I0J-150000D01*
G01*
X88374500Y-106642900D01*
G75*
G02*
X88224500Y-106792900I-150000J0D01*
G01*
X87924500Y-106792900D01*
G75*
G02*
X87774500Y-106642900I0J150000D01*
G01*
X87774500Y-104992900D01*
G75*
G02*
X87924500Y-104842900I150000J0D01*
G01*
G37*
G36*
G01*
X89194500Y-104842900D02*
X89494500Y-104842900D01*
G75*
G02*
X89644500Y-104992900I0J-150000D01*
G01*
X89644500Y-106642900D01*
G75*
G02*
X89494500Y-106792900I-150000J0D01*
G01*
X89194500Y-106792900D01*
G75*
G02*
X89044500Y-106642900I0J150000D01*
G01*
X89044500Y-104992900D01*
G75*
G02*
X89194500Y-104842900I150000J0D01*
G01*
G37*
G36*
G01*
X90464500Y-104842900D02*
X90764500Y-104842900D01*
G75*
G02*
X90914500Y-104992900I0J-150000D01*
G01*
X90914500Y-106642900D01*
G75*
G02*
X90764500Y-106792900I-150000J0D01*
G01*
X90464500Y-106792900D01*
G75*
G02*
X90314500Y-106642900I0J150000D01*
G01*
X90314500Y-104992900D01*
G75*
G02*
X90464500Y-104842900I150000J0D01*
G01*
G37*
G36*
G01*
X91734500Y-104842900D02*
X92034500Y-104842900D01*
G75*
G02*
X92184500Y-104992900I0J-150000D01*
G01*
X92184500Y-106642900D01*
G75*
G02*
X92034500Y-106792900I-150000J0D01*
G01*
X91734500Y-106792900D01*
G75*
G02*
X91584500Y-106642900I0J150000D01*
G01*
X91584500Y-104992900D01*
G75*
G02*
X91734500Y-104842900I150000J0D01*
G01*
G37*
G36*
G01*
X93004500Y-104842900D02*
X93304500Y-104842900D01*
G75*
G02*
X93454500Y-104992900I0J-150000D01*
G01*
X93454500Y-106642900D01*
G75*
G02*
X93304500Y-106792900I-150000J0D01*
G01*
X93004500Y-106792900D01*
G75*
G02*
X92854500Y-106642900I0J150000D01*
G01*
X92854500Y-104992900D01*
G75*
G02*
X93004500Y-104842900I150000J0D01*
G01*
G37*
D14*
X90360500Y-184099200D03*
D15*
X87820500Y-184099200D03*
G36*
G01*
X94554100Y-100980900D02*
X94244100Y-100980900D01*
G75*
G02*
X94089100Y-100825900I0J155000D01*
G01*
X94089100Y-100400900D01*
G75*
G02*
X94244100Y-100245900I155000J0D01*
G01*
X94554100Y-100245900D01*
G75*
G02*
X94709100Y-100400900I0J-155000D01*
G01*
X94709100Y-100825900D01*
G75*
G02*
X94554100Y-100980900I-155000J0D01*
G01*
G37*
G36*
G01*
X94554100Y-102115900D02*
X94244100Y-102115900D01*
G75*
G02*
X94089100Y-101960900I0J155000D01*
G01*
X94089100Y-101535900D01*
G75*
G02*
X94244100Y-101380900I155000J0D01*
G01*
X94554100Y-101380900D01*
G75*
G02*
X94709100Y-101535900I0J-155000D01*
G01*
X94709100Y-101960900D01*
G75*
G02*
X94554100Y-102115900I-155000J0D01*
G01*
G37*
G36*
G01*
X89392100Y-161724400D02*
X89392100Y-161414400D01*
G75*
G02*
X89547100Y-161259400I155000J0D01*
G01*
X89972100Y-161259400D01*
G75*
G02*
X90127100Y-161414400I0J-155000D01*
G01*
X90127100Y-161724400D01*
G75*
G02*
X89972100Y-161879400I-155000J0D01*
G01*
X89547100Y-161879400D01*
G75*
G02*
X89392100Y-161724400I0J155000D01*
G01*
G37*
G36*
G01*
X88257100Y-161724400D02*
X88257100Y-161414400D01*
G75*
G02*
X88412100Y-161259400I155000J0D01*
G01*
X88837100Y-161259400D01*
G75*
G02*
X88992100Y-161414400I0J-155000D01*
G01*
X88992100Y-161724400D01*
G75*
G02*
X88837100Y-161879400I-155000J0D01*
G01*
X88412100Y-161879400D01*
G75*
G02*
X88257100Y-161724400I0J155000D01*
G01*
G37*
G36*
G01*
X89557800Y-116544700D02*
X89867800Y-116544700D01*
G75*
G02*
X90022800Y-116699700I0J-155000D01*
G01*
X90022800Y-117124700D01*
G75*
G02*
X89867800Y-117279700I-155000J0D01*
G01*
X89557800Y-117279700D01*
G75*
G02*
X89402800Y-117124700I0J155000D01*
G01*
X89402800Y-116699700D01*
G75*
G02*
X89557800Y-116544700I155000J0D01*
G01*
G37*
G36*
G01*
X89557800Y-115409700D02*
X89867800Y-115409700D01*
G75*
G02*
X90022800Y-115564700I0J-155000D01*
G01*
X90022800Y-115989700D01*
G75*
G02*
X89867800Y-116144700I-155000J0D01*
G01*
X89557800Y-116144700D01*
G75*
G02*
X89402800Y-115989700I0J155000D01*
G01*
X89402800Y-115564700D01*
G75*
G02*
X89557800Y-115409700I155000J0D01*
G01*
G37*
G36*
G01*
X92478800Y-115409700D02*
X92788800Y-115409700D01*
G75*
G02*
X92943800Y-115564700I0J-155000D01*
G01*
X92943800Y-115989700D01*
G75*
G02*
X92788800Y-116144700I-155000J0D01*
G01*
X92478800Y-116144700D01*
G75*
G02*
X92323800Y-115989700I0J155000D01*
G01*
X92323800Y-115564700D01*
G75*
G02*
X92478800Y-115409700I155000J0D01*
G01*
G37*
G36*
G01*
X92478800Y-116544700D02*
X92788800Y-116544700D01*
G75*
G02*
X92943800Y-116699700I0J-155000D01*
G01*
X92943800Y-117124700D01*
G75*
G02*
X92788800Y-117279700I-155000J0D01*
G01*
X92478800Y-117279700D01*
G75*
G02*
X92323800Y-117124700I0J155000D01*
G01*
X92323800Y-116699700D01*
G75*
G02*
X92478800Y-116544700I155000J0D01*
G01*
G37*
G36*
G01*
X94693800Y-125737900D02*
X94383800Y-125737900D01*
G75*
G02*
X94228800Y-125582900I0J155000D01*
G01*
X94228800Y-125157900D01*
G75*
G02*
X94383800Y-125002900I155000J0D01*
G01*
X94693800Y-125002900D01*
G75*
G02*
X94848800Y-125157900I0J-155000D01*
G01*
X94848800Y-125582900D01*
G75*
G02*
X94693800Y-125737900I-155000J0D01*
G01*
G37*
G36*
G01*
X94693800Y-124602900D02*
X94383800Y-124602900D01*
G75*
G02*
X94228800Y-124447900I0J155000D01*
G01*
X94228800Y-124022900D01*
G75*
G02*
X94383800Y-123867900I155000J0D01*
G01*
X94693800Y-123867900D01*
G75*
G02*
X94848800Y-124022900I0J-155000D01*
G01*
X94848800Y-124447900D01*
G75*
G02*
X94693800Y-124602900I-155000J0D01*
G01*
G37*
G36*
G01*
X90756800Y-125585500D02*
X90446800Y-125585500D01*
G75*
G02*
X90291800Y-125430500I0J155000D01*
G01*
X90291800Y-125005500D01*
G75*
G02*
X90446800Y-124850500I155000J0D01*
G01*
X90756800Y-124850500D01*
G75*
G02*
X90911800Y-125005500I0J-155000D01*
G01*
X90911800Y-125430500D01*
G75*
G02*
X90756800Y-125585500I-155000J0D01*
G01*
G37*
G36*
G01*
X90756800Y-124450500D02*
X90446800Y-124450500D01*
G75*
G02*
X90291800Y-124295500I0J155000D01*
G01*
X90291800Y-123870500D01*
G75*
G02*
X90446800Y-123715500I155000J0D01*
G01*
X90756800Y-123715500D01*
G75*
G02*
X90911800Y-123870500I0J-155000D01*
G01*
X90911800Y-124295500D01*
G75*
G02*
X90756800Y-124450500I-155000J0D01*
G01*
G37*
G36*
G01*
X90192800Y-139760300D02*
X90502800Y-139760300D01*
G75*
G02*
X90657800Y-139915300I0J-155000D01*
G01*
X90657800Y-140340300D01*
G75*
G02*
X90502800Y-140495300I-155000J0D01*
G01*
X90192800Y-140495300D01*
G75*
G02*
X90037800Y-140340300I0J155000D01*
G01*
X90037800Y-139915300D01*
G75*
G02*
X90192800Y-139760300I155000J0D01*
G01*
G37*
G36*
G01*
X90192800Y-138625300D02*
X90502800Y-138625300D01*
G75*
G02*
X90657800Y-138780300I0J-155000D01*
G01*
X90657800Y-139205300D01*
G75*
G02*
X90502800Y-139360300I-155000J0D01*
G01*
X90192800Y-139360300D01*
G75*
G02*
X90037800Y-139205300I0J155000D01*
G01*
X90037800Y-138780300D01*
G75*
G02*
X90192800Y-138625300I155000J0D01*
G01*
G37*
G36*
G01*
X89354000Y-172748000D02*
X89354000Y-172438000D01*
G75*
G02*
X89509000Y-172283000I155000J0D01*
G01*
X89934000Y-172283000D01*
G75*
G02*
X90089000Y-172438000I0J-155000D01*
G01*
X90089000Y-172748000D01*
G75*
G02*
X89934000Y-172903000I-155000J0D01*
G01*
X89509000Y-172903000D01*
G75*
G02*
X89354000Y-172748000I0J155000D01*
G01*
G37*
G36*
G01*
X88219000Y-172748000D02*
X88219000Y-172438000D01*
G75*
G02*
X88374000Y-172283000I155000J0D01*
G01*
X88799000Y-172283000D01*
G75*
G02*
X88954000Y-172438000I0J-155000D01*
G01*
X88954000Y-172748000D01*
G75*
G02*
X88799000Y-172903000I-155000J0D01*
G01*
X88374000Y-172903000D01*
G75*
G02*
X88219000Y-172748000I0J155000D01*
G01*
G37*
G36*
G01*
X93088400Y-138625300D02*
X93398400Y-138625300D01*
G75*
G02*
X93553400Y-138780300I0J-155000D01*
G01*
X93553400Y-139205300D01*
G75*
G02*
X93398400Y-139360300I-155000J0D01*
G01*
X93088400Y-139360300D01*
G75*
G02*
X92933400Y-139205300I0J155000D01*
G01*
X92933400Y-138780300D01*
G75*
G02*
X93088400Y-138625300I155000J0D01*
G01*
G37*
G36*
G01*
X93088400Y-139760300D02*
X93398400Y-139760300D01*
G75*
G02*
X93553400Y-139915300I0J-155000D01*
G01*
X93553400Y-140340300D01*
G75*
G02*
X93398400Y-140495300I-155000J0D01*
G01*
X93088400Y-140495300D01*
G75*
G02*
X92933400Y-140340300I0J155000D01*
G01*
X92933400Y-139915300D01*
G75*
G02*
X93088400Y-139760300I155000J0D01*
G01*
G37*
G36*
G01*
X85798600Y-116557400D02*
X86108600Y-116557400D01*
G75*
G02*
X86263600Y-116712400I0J-155000D01*
G01*
X86263600Y-117137400D01*
G75*
G02*
X86108600Y-117292400I-155000J0D01*
G01*
X85798600Y-117292400D01*
G75*
G02*
X85643600Y-117137400I0J155000D01*
G01*
X85643600Y-116712400D01*
G75*
G02*
X85798600Y-116557400I155000J0D01*
G01*
G37*
G36*
G01*
X85798600Y-115422400D02*
X86108600Y-115422400D01*
G75*
G02*
X86263600Y-115577400I0J-155000D01*
G01*
X86263600Y-116002400D01*
G75*
G02*
X86108600Y-116157400I-155000J0D01*
G01*
X85798600Y-116157400D01*
G75*
G02*
X85643600Y-116002400I0J155000D01*
G01*
X85643600Y-115577400D01*
G75*
G02*
X85798600Y-115422400I155000J0D01*
G01*
G37*
G36*
G01*
X88422200Y-53647400D02*
X88422200Y-53337400D01*
G75*
G02*
X88577200Y-53182400I155000J0D01*
G01*
X89002200Y-53182400D01*
G75*
G02*
X89157200Y-53337400I0J-155000D01*
G01*
X89157200Y-53647400D01*
G75*
G02*
X89002200Y-53802400I-155000J0D01*
G01*
X88577200Y-53802400D01*
G75*
G02*
X88422200Y-53647400I0J155000D01*
G01*
G37*
G36*
G01*
X89557200Y-53647400D02*
X89557200Y-53337400D01*
G75*
G02*
X89712200Y-53182400I155000J0D01*
G01*
X90137200Y-53182400D01*
G75*
G02*
X90292200Y-53337400I0J-155000D01*
G01*
X90292200Y-53647400D01*
G75*
G02*
X90137200Y-53802400I-155000J0D01*
G01*
X89712200Y-53802400D01*
G75*
G02*
X89557200Y-53647400I0J155000D01*
G01*
G37*
G36*
G01*
X90642500Y-101912700D02*
X90332500Y-101912700D01*
G75*
G02*
X90177500Y-101757700I0J155000D01*
G01*
X90177500Y-101332700D01*
G75*
G02*
X90332500Y-101177700I155000J0D01*
G01*
X90642500Y-101177700D01*
G75*
G02*
X90797500Y-101332700I0J-155000D01*
G01*
X90797500Y-101757700D01*
G75*
G02*
X90642500Y-101912700I-155000J0D01*
G01*
G37*
G36*
G01*
X90642500Y-100777700D02*
X90332500Y-100777700D01*
G75*
G02*
X90177500Y-100622700I0J155000D01*
G01*
X90177500Y-100197700D01*
G75*
G02*
X90332500Y-100042700I155000J0D01*
G01*
X90642500Y-100042700D01*
G75*
G02*
X90797500Y-100197700I0J-155000D01*
G01*
X90797500Y-100622700D01*
G75*
G02*
X90642500Y-100777700I-155000J0D01*
G01*
G37*
G36*
G01*
X95506600Y-107635700D02*
X95196600Y-107635700D01*
G75*
G02*
X95041600Y-107480700I0J155000D01*
G01*
X95041600Y-107055700D01*
G75*
G02*
X95196600Y-106900700I155000J0D01*
G01*
X95506600Y-106900700D01*
G75*
G02*
X95661600Y-107055700I0J-155000D01*
G01*
X95661600Y-107480700D01*
G75*
G02*
X95506600Y-107635700I-155000J0D01*
G01*
G37*
G36*
G01*
X95506600Y-108770700D02*
X95196600Y-108770700D01*
G75*
G02*
X95041600Y-108615700I0J155000D01*
G01*
X95041600Y-108190700D01*
G75*
G02*
X95196600Y-108035700I155000J0D01*
G01*
X95506600Y-108035700D01*
G75*
G02*
X95661600Y-108190700I0J-155000D01*
G01*
X95661600Y-108615700D01*
G75*
G02*
X95506600Y-108770700I-155000J0D01*
G01*
G37*
G36*
G01*
X96135800Y-136921300D02*
X96135800Y-136611300D01*
G75*
G02*
X96290800Y-136456300I155000J0D01*
G01*
X96715800Y-136456300D01*
G75*
G02*
X96870800Y-136611300I0J-155000D01*
G01*
X96870800Y-136921300D01*
G75*
G02*
X96715800Y-137076300I-155000J0D01*
G01*
X96290800Y-137076300D01*
G75*
G02*
X96135800Y-136921300I0J155000D01*
G01*
G37*
G36*
G01*
X95000800Y-136921300D02*
X95000800Y-136611300D01*
G75*
G02*
X95155800Y-136456300I155000J0D01*
G01*
X95580800Y-136456300D01*
G75*
G02*
X95735800Y-136611300I0J-155000D01*
G01*
X95735800Y-136921300D01*
G75*
G02*
X95580800Y-137076300I-155000J0D01*
G01*
X95155800Y-137076300D01*
G75*
G02*
X95000800Y-136921300I0J155000D01*
G01*
G37*
D14*
X72720200Y-162267900D03*
D15*
X70180200Y-162267900D03*
X72720200Y-164807900D03*
X70180200Y-164807900D03*
X72720200Y-167347900D03*
X70180200Y-167347900D03*
X72720200Y-169887900D03*
X70180200Y-169887900D03*
X72720200Y-172427900D03*
X70180200Y-172427900D03*
X72720200Y-174967900D03*
X70180200Y-174967900D03*
X72720200Y-177507900D03*
X70180200Y-177507900D03*
X113804700Y-111937800D03*
X111264700Y-111937800D03*
D14*
X108724700Y-111937800D03*
X114096800Y-120116600D03*
D15*
X111556800Y-120116600D03*
X109016800Y-120116600D03*
D16*
X64366400Y-100777000D03*
X64366400Y-96327000D03*
D17*
X61366400Y-102727000D03*
X61366400Y-94377000D03*
D14*
X72593200Y-49237900D03*
D15*
X70053200Y-49237900D03*
X72593200Y-51777900D03*
X70053200Y-51777900D03*
X72593200Y-54317900D03*
X70053200Y-54317900D03*
X72593200Y-56857900D03*
X70053200Y-56857900D03*
D14*
X142036800Y-142151100D03*
D15*
X144576800Y-142151100D03*
D14*
X72567800Y-140296900D03*
D15*
X70027800Y-140296900D03*
X72567800Y-142836900D03*
X70027800Y-142836900D03*
X72567800Y-145376900D03*
X70027800Y-145376900D03*
X72567800Y-147916900D03*
X70027800Y-147916900D03*
X72567800Y-150456900D03*
X70027800Y-150456900D03*
X72567800Y-152996900D03*
X70027800Y-152996900D03*
D14*
X180543200Y-142925800D03*
D15*
X183083200Y-142925800D03*
X183172100Y-147243800D03*
D14*
X180632100Y-147243800D03*
G36*
G01*
X77612200Y-110660200D02*
X77612200Y-110980200D01*
G75*
G02*
X77452200Y-111140200I-160000J0D01*
G01*
X77057200Y-111140200D01*
G75*
G02*
X76897200Y-110980200I0J160000D01*
G01*
X76897200Y-110660200D01*
G75*
G02*
X77057200Y-110500200I160000J0D01*
G01*
X77452200Y-110500200D01*
G75*
G02*
X77612200Y-110660200I0J-160000D01*
G01*
G37*
G36*
G01*
X76417200Y-110660200D02*
X76417200Y-110980200D01*
G75*
G02*
X76257200Y-111140200I-160000J0D01*
G01*
X75862200Y-111140200D01*
G75*
G02*
X75702200Y-110980200I0J160000D01*
G01*
X75702200Y-110660200D01*
G75*
G02*
X75862200Y-110500200I160000J0D01*
G01*
X76257200Y-110500200D01*
G75*
G02*
X76417200Y-110660200I0J-160000D01*
G01*
G37*
G36*
G01*
X76417200Y-113225600D02*
X76417200Y-113545600D01*
G75*
G02*
X76257200Y-113705600I-160000J0D01*
G01*
X75862200Y-113705600D01*
G75*
G02*
X75702200Y-113545600I0J160000D01*
G01*
X75702200Y-113225600D01*
G75*
G02*
X75862200Y-113065600I160000J0D01*
G01*
X76257200Y-113065600D01*
G75*
G02*
X76417200Y-113225600I0J-160000D01*
G01*
G37*
G36*
G01*
X77612200Y-113225600D02*
X77612200Y-113545600D01*
G75*
G02*
X77452200Y-113705600I-160000J0D01*
G01*
X77057200Y-113705600D01*
G75*
G02*
X76897200Y-113545600I0J160000D01*
G01*
X76897200Y-113225600D01*
G75*
G02*
X77057200Y-113065600I160000J0D01*
G01*
X77452200Y-113065600D01*
G75*
G02*
X77612200Y-113225600I0J-160000D01*
G01*
G37*
G36*
G01*
X77596960Y-118303060D02*
X77596960Y-118623060D01*
G75*
G02*
X77436960Y-118783060I-160000J0D01*
G01*
X77041960Y-118783060D01*
G75*
G02*
X76881960Y-118623060I0J160000D01*
G01*
X76881960Y-118303060D01*
G75*
G02*
X77041960Y-118143060I160000J0D01*
G01*
X77436960Y-118143060D01*
G75*
G02*
X77596960Y-118303060I0J-160000D01*
G01*
G37*
G36*
G01*
X76401960Y-118303060D02*
X76401960Y-118623060D01*
G75*
G02*
X76241960Y-118783060I-160000J0D01*
G01*
X75846960Y-118783060D01*
G75*
G02*
X75686960Y-118623060I0J160000D01*
G01*
X75686960Y-118303060D01*
G75*
G02*
X75846960Y-118143060I160000J0D01*
G01*
X76241960Y-118143060D01*
G75*
G02*
X76401960Y-118303060I0J-160000D01*
G01*
G37*
G36*
G01*
X76401960Y-120843060D02*
X76401960Y-121163060D01*
G75*
G02*
X76241960Y-121323060I-160000J0D01*
G01*
X75846960Y-121323060D01*
G75*
G02*
X75686960Y-121163060I0J160000D01*
G01*
X75686960Y-120843060D01*
G75*
G02*
X75846960Y-120683060I160000J0D01*
G01*
X76241960Y-120683060D01*
G75*
G02*
X76401960Y-120843060I0J-160000D01*
G01*
G37*
G36*
G01*
X77596960Y-120843060D02*
X77596960Y-121163060D01*
G75*
G02*
X77436960Y-121323060I-160000J0D01*
G01*
X77041960Y-121323060D01*
G75*
G02*
X76881960Y-121163060I0J160000D01*
G01*
X76881960Y-120843060D01*
G75*
G02*
X77041960Y-120683060I160000J0D01*
G01*
X77436960Y-120683060D01*
G75*
G02*
X77596960Y-120843060I0J-160000D01*
G01*
G37*
G36*
G01*
X91892100Y-102059700D02*
X91572100Y-102059700D01*
G75*
G02*
X91412100Y-101899700I0J160000D01*
G01*
X91412100Y-101504700D01*
G75*
G02*
X91572100Y-101344700I160000J0D01*
G01*
X91892100Y-101344700D01*
G75*
G02*
X92052100Y-101504700I0J-160000D01*
G01*
X92052100Y-101899700D01*
G75*
G02*
X91892100Y-102059700I-160000J0D01*
G01*
G37*
G36*
G01*
X91892100Y-100864700D02*
X91572100Y-100864700D01*
G75*
G02*
X91412100Y-100704700I0J160000D01*
G01*
X91412100Y-100309700D01*
G75*
G02*
X91572100Y-100149700I160000J0D01*
G01*
X91892100Y-100149700D01*
G75*
G02*
X92052100Y-100309700I0J-160000D01*
G01*
X92052100Y-100704700D01*
G75*
G02*
X91892100Y-100864700I-160000J0D01*
G01*
G37*
G36*
G01*
X88056700Y-100737700D02*
X87736700Y-100737700D01*
G75*
G02*
X87576700Y-100577700I0J160000D01*
G01*
X87576700Y-100182700D01*
G75*
G02*
X87736700Y-100022700I160000J0D01*
G01*
X88056700Y-100022700D01*
G75*
G02*
X88216700Y-100182700I0J-160000D01*
G01*
X88216700Y-100577700D01*
G75*
G02*
X88056700Y-100737700I-160000J0D01*
G01*
G37*
G36*
G01*
X88056700Y-101932700D02*
X87736700Y-101932700D01*
G75*
G02*
X87576700Y-101772700I0J160000D01*
G01*
X87576700Y-101377700D01*
G75*
G02*
X87736700Y-101217700I160000J0D01*
G01*
X88056700Y-101217700D01*
G75*
G02*
X88216700Y-101377700I0J-160000D01*
G01*
X88216700Y-101772700D01*
G75*
G02*
X88056700Y-101932700I-160000J0D01*
G01*
G37*
G36*
G01*
X87012800Y-115389700D02*
X87332800Y-115389700D01*
G75*
G02*
X87492800Y-115549700I0J-160000D01*
G01*
X87492800Y-115944700D01*
G75*
G02*
X87332800Y-116104700I-160000J0D01*
G01*
X87012800Y-116104700D01*
G75*
G02*
X86852800Y-115944700I0J160000D01*
G01*
X86852800Y-115549700D01*
G75*
G02*
X87012800Y-115389700I160000J0D01*
G01*
G37*
G36*
G01*
X87012800Y-116584700D02*
X87332800Y-116584700D01*
G75*
G02*
X87492800Y-116744700I0J-160000D01*
G01*
X87492800Y-117139700D01*
G75*
G02*
X87332800Y-117299700I-160000J0D01*
G01*
X87012800Y-117299700D01*
G75*
G02*
X86852800Y-117139700I0J160000D01*
G01*
X86852800Y-116744700D01*
G75*
G02*
X87012800Y-116584700I160000J0D01*
G01*
G37*
G36*
G01*
X95013800Y-116584700D02*
X95333800Y-116584700D01*
G75*
G02*
X95493800Y-116744700I0J-160000D01*
G01*
X95493800Y-117139700D01*
G75*
G02*
X95333800Y-117299700I-160000J0D01*
G01*
X95013800Y-117299700D01*
G75*
G02*
X94853800Y-117139700I0J160000D01*
G01*
X94853800Y-116744700D01*
G75*
G02*
X95013800Y-116584700I160000J0D01*
G01*
G37*
G36*
G01*
X95013800Y-115389700D02*
X95333800Y-115389700D01*
G75*
G02*
X95493800Y-115549700I0J-160000D01*
G01*
X95493800Y-115944700D01*
G75*
G02*
X95333800Y-116104700I-160000J0D01*
G01*
X95013800Y-116104700D01*
G75*
G02*
X94853800Y-115944700I0J160000D01*
G01*
X94853800Y-115549700D01*
G75*
G02*
X95013800Y-115389700I160000J0D01*
G01*
G37*
G36*
G01*
X93162100Y-100864700D02*
X92842100Y-100864700D01*
G75*
G02*
X92682100Y-100704700I0J160000D01*
G01*
X92682100Y-100309700D01*
G75*
G02*
X92842100Y-100149700I160000J0D01*
G01*
X93162100Y-100149700D01*
G75*
G02*
X93322100Y-100309700I0J-160000D01*
G01*
X93322100Y-100704700D01*
G75*
G02*
X93162100Y-100864700I-160000J0D01*
G01*
G37*
G36*
G01*
X93162100Y-102059700D02*
X92842100Y-102059700D01*
G75*
G02*
X92682100Y-101899700I0J160000D01*
G01*
X92682100Y-101504700D01*
G75*
G02*
X92842100Y-101344700I160000J0D01*
G01*
X93162100Y-101344700D01*
G75*
G02*
X93322100Y-101504700I0J-160000D01*
G01*
X93322100Y-101899700D01*
G75*
G02*
X93162100Y-102059700I-160000J0D01*
G01*
G37*
G36*
G01*
X89352100Y-101932700D02*
X89032100Y-101932700D01*
G75*
G02*
X88872100Y-101772700I0J160000D01*
G01*
X88872100Y-101377700D01*
G75*
G02*
X89032100Y-101217700I160000J0D01*
G01*
X89352100Y-101217700D01*
G75*
G02*
X89512100Y-101377700I0J-160000D01*
G01*
X89512100Y-101772700D01*
G75*
G02*
X89352100Y-101932700I-160000J0D01*
G01*
G37*
G36*
G01*
X89352100Y-100737700D02*
X89032100Y-100737700D01*
G75*
G02*
X88872100Y-100577700I0J160000D01*
G01*
X88872100Y-100182700D01*
G75*
G02*
X89032100Y-100022700I160000J0D01*
G01*
X89352100Y-100022700D01*
G75*
G02*
X89512100Y-100182700I0J-160000D01*
G01*
X89512100Y-100577700D01*
G75*
G02*
X89352100Y-100737700I-160000J0D01*
G01*
G37*
G36*
G01*
X88282800Y-116584700D02*
X88602800Y-116584700D01*
G75*
G02*
X88762800Y-116744700I0J-160000D01*
G01*
X88762800Y-117139700D01*
G75*
G02*
X88602800Y-117299700I-160000J0D01*
G01*
X88282800Y-117299700D01*
G75*
G02*
X88122800Y-117139700I0J160000D01*
G01*
X88122800Y-116744700D01*
G75*
G02*
X88282800Y-116584700I160000J0D01*
G01*
G37*
G36*
G01*
X88282800Y-115389700D02*
X88602800Y-115389700D01*
G75*
G02*
X88762800Y-115549700I0J-160000D01*
G01*
X88762800Y-115944700D01*
G75*
G02*
X88602800Y-116104700I-160000J0D01*
G01*
X88282800Y-116104700D01*
G75*
G02*
X88122800Y-115944700I0J160000D01*
G01*
X88122800Y-115549700D01*
G75*
G02*
X88282800Y-115389700I160000J0D01*
G01*
G37*
G36*
G01*
X93743800Y-115389700D02*
X94063800Y-115389700D01*
G75*
G02*
X94223800Y-115549700I0J-160000D01*
G01*
X94223800Y-115944700D01*
G75*
G02*
X94063800Y-116104700I-160000J0D01*
G01*
X93743800Y-116104700D01*
G75*
G02*
X93583800Y-115944700I0J160000D01*
G01*
X93583800Y-115549700D01*
G75*
G02*
X93743800Y-115389700I160000J0D01*
G01*
G37*
G36*
G01*
X93743800Y-116584700D02*
X94063800Y-116584700D01*
G75*
G02*
X94223800Y-116744700I0J-160000D01*
G01*
X94223800Y-117139700D01*
G75*
G02*
X94063800Y-117299700I-160000J0D01*
G01*
X93743800Y-117299700D01*
G75*
G02*
X93583800Y-117139700I0J160000D01*
G01*
X93583800Y-116744700D01*
G75*
G02*
X93743800Y-116584700I160000J0D01*
G01*
G37*
G36*
G01*
X92809100Y-103169700D02*
X92809100Y-102849700D01*
G75*
G02*
X92969100Y-102689700I160000J0D01*
G01*
X93364100Y-102689700D01*
G75*
G02*
X93524100Y-102849700I0J-160000D01*
G01*
X93524100Y-103169700D01*
G75*
G02*
X93364100Y-103329700I-160000J0D01*
G01*
X92969100Y-103329700D01*
G75*
G02*
X92809100Y-103169700I0J160000D01*
G01*
G37*
G36*
G01*
X94004100Y-103169700D02*
X94004100Y-102849700D01*
G75*
G02*
X94164100Y-102689700I160000J0D01*
G01*
X94559100Y-102689700D01*
G75*
G02*
X94719100Y-102849700I0J-160000D01*
G01*
X94719100Y-103169700D01*
G75*
G02*
X94559100Y-103329700I-160000J0D01*
G01*
X94164100Y-103329700D01*
G75*
G02*
X94004100Y-103169700I0J160000D01*
G01*
G37*
G36*
G01*
X90067100Y-103169700D02*
X90067100Y-102849700D01*
G75*
G02*
X90227100Y-102689700I160000J0D01*
G01*
X90622100Y-102689700D01*
G75*
G02*
X90782100Y-102849700I0J-160000D01*
G01*
X90782100Y-103169700D01*
G75*
G02*
X90622100Y-103329700I-160000J0D01*
G01*
X90227100Y-103329700D01*
G75*
G02*
X90067100Y-103169700I0J160000D01*
G01*
G37*
G36*
G01*
X88872100Y-103169700D02*
X88872100Y-102849700D01*
G75*
G02*
X89032100Y-102689700I160000J0D01*
G01*
X89427100Y-102689700D01*
G75*
G02*
X89587100Y-102849700I0J-160000D01*
G01*
X89587100Y-103169700D01*
G75*
G02*
X89427100Y-103329700I-160000J0D01*
G01*
X89032100Y-103329700D01*
G75*
G02*
X88872100Y-103169700I0J160000D01*
G01*
G37*
G36*
G01*
X88122800Y-114320300D02*
X88122800Y-114000300D01*
G75*
G02*
X88282800Y-113840300I160000J0D01*
G01*
X88677800Y-113840300D01*
G75*
G02*
X88837800Y-114000300I0J-160000D01*
G01*
X88837800Y-114320300D01*
G75*
G02*
X88677800Y-114480300I-160000J0D01*
G01*
X88282800Y-114480300D01*
G75*
G02*
X88122800Y-114320300I0J160000D01*
G01*
G37*
G36*
G01*
X89317800Y-114320300D02*
X89317800Y-114000300D01*
G75*
G02*
X89477800Y-113840300I160000J0D01*
G01*
X89872800Y-113840300D01*
G75*
G02*
X90032800Y-114000300I0J-160000D01*
G01*
X90032800Y-114320300D01*
G75*
G02*
X89872800Y-114480300I-160000J0D01*
G01*
X89477800Y-114480300D01*
G75*
G02*
X89317800Y-114320300I0J160000D01*
G01*
G37*
G36*
G01*
X92264200Y-114320300D02*
X92264200Y-114000300D01*
G75*
G02*
X92424200Y-113840300I160000J0D01*
G01*
X92819200Y-113840300D01*
G75*
G02*
X92979200Y-114000300I0J-160000D01*
G01*
X92979200Y-114320300D01*
G75*
G02*
X92819200Y-114480300I-160000J0D01*
G01*
X92424200Y-114480300D01*
G75*
G02*
X92264200Y-114320300I0J160000D01*
G01*
G37*
G36*
G01*
X91069200Y-114320300D02*
X91069200Y-114000300D01*
G75*
G02*
X91229200Y-113840300I160000J0D01*
G01*
X91624200Y-113840300D01*
G75*
G02*
X91784200Y-114000300I0J-160000D01*
G01*
X91784200Y-114320300D01*
G75*
G02*
X91624200Y-114480300I-160000J0D01*
G01*
X91229200Y-114480300D01*
G75*
G02*
X91069200Y-114320300I0J160000D01*
G01*
G37*
G36*
G01*
X76401960Y-123383060D02*
X76401960Y-123703060D01*
G75*
G02*
X76241960Y-123863060I-160000J0D01*
G01*
X75846960Y-123863060D01*
G75*
G02*
X75686960Y-123703060I0J160000D01*
G01*
X75686960Y-123383060D01*
G75*
G02*
X75846960Y-123223060I160000J0D01*
G01*
X76241960Y-123223060D01*
G75*
G02*
X76401960Y-123383060I0J-160000D01*
G01*
G37*
G36*
G01*
X77596960Y-123383060D02*
X77596960Y-123703060D01*
G75*
G02*
X77436960Y-123863060I-160000J0D01*
G01*
X77041960Y-123863060D01*
G75*
G02*
X76881960Y-123703060I0J160000D01*
G01*
X76881960Y-123383060D01*
G75*
G02*
X77041960Y-123223060I160000J0D01*
G01*
X77436960Y-123223060D01*
G75*
G02*
X77596960Y-123383060I0J-160000D01*
G01*
G37*
G36*
G01*
X76401960Y-125923060D02*
X76401960Y-126243060D01*
G75*
G02*
X76241960Y-126403060I-160000J0D01*
G01*
X75846960Y-126403060D01*
G75*
G02*
X75686960Y-126243060I0J160000D01*
G01*
X75686960Y-125923060D01*
G75*
G02*
X75846960Y-125763060I160000J0D01*
G01*
X76241960Y-125763060D01*
G75*
G02*
X76401960Y-125923060I0J-160000D01*
G01*
G37*
G36*
G01*
X77596960Y-125923060D02*
X77596960Y-126243060D01*
G75*
G02*
X77436960Y-126403060I-160000J0D01*
G01*
X77041960Y-126403060D01*
G75*
G02*
X76881960Y-126243060I0J160000D01*
G01*
X76881960Y-125923060D01*
G75*
G02*
X77041960Y-125763060I160000J0D01*
G01*
X77436960Y-125763060D01*
G75*
G02*
X77596960Y-125923060I0J-160000D01*
G01*
G37*
G36*
G01*
X77596960Y-128511320D02*
X77596960Y-128831320D01*
G75*
G02*
X77436960Y-128991320I-160000J0D01*
G01*
X77041960Y-128991320D01*
G75*
G02*
X76881960Y-128831320I0J160000D01*
G01*
X76881960Y-128511320D01*
G75*
G02*
X77041960Y-128351320I160000J0D01*
G01*
X77436960Y-128351320D01*
G75*
G02*
X77596960Y-128511320I0J-160000D01*
G01*
G37*
G36*
G01*
X76401960Y-128511320D02*
X76401960Y-128831320D01*
G75*
G02*
X76241960Y-128991320I-160000J0D01*
G01*
X75846960Y-128991320D01*
G75*
G02*
X75686960Y-128831320I0J160000D01*
G01*
X75686960Y-128511320D01*
G75*
G02*
X75846960Y-128351320I160000J0D01*
G01*
X76241960Y-128351320D01*
G75*
G02*
X76401960Y-128511320I0J-160000D01*
G01*
G37*
G36*
G01*
X77596960Y-131036080D02*
X77596960Y-131356080D01*
G75*
G02*
X77436960Y-131516080I-160000J0D01*
G01*
X77041960Y-131516080D01*
G75*
G02*
X76881960Y-131356080I0J160000D01*
G01*
X76881960Y-131036080D01*
G75*
G02*
X77041960Y-130876080I160000J0D01*
G01*
X77436960Y-130876080D01*
G75*
G02*
X77596960Y-131036080I0J-160000D01*
G01*
G37*
G36*
G01*
X76401960Y-131036080D02*
X76401960Y-131356080D01*
G75*
G02*
X76241960Y-131516080I-160000J0D01*
G01*
X75846960Y-131516080D01*
G75*
G02*
X75686960Y-131356080I0J160000D01*
G01*
X75686960Y-131036080D01*
G75*
G02*
X75846960Y-130876080I160000J0D01*
G01*
X76241960Y-130876080D01*
G75*
G02*
X76401960Y-131036080I0J-160000D01*
G01*
G37*
G36*
G01*
X92031800Y-125681700D02*
X91711800Y-125681700D01*
G75*
G02*
X91551800Y-125521700I0J160000D01*
G01*
X91551800Y-125126700D01*
G75*
G02*
X91711800Y-124966700I160000J0D01*
G01*
X92031800Y-124966700D01*
G75*
G02*
X92191800Y-125126700I0J-160000D01*
G01*
X92191800Y-125521700D01*
G75*
G02*
X92031800Y-125681700I-160000J0D01*
G01*
G37*
G36*
G01*
X92031800Y-124486700D02*
X91711800Y-124486700D01*
G75*
G02*
X91551800Y-124326700I0J160000D01*
G01*
X91551800Y-123931700D01*
G75*
G02*
X91711800Y-123771700I160000J0D01*
G01*
X92031800Y-123771700D01*
G75*
G02*
X92191800Y-123931700I0J-160000D01*
G01*
X92191800Y-124326700D01*
G75*
G02*
X92031800Y-124486700I-160000J0D01*
G01*
G37*
G36*
G01*
X88221800Y-125554700D02*
X87901800Y-125554700D01*
G75*
G02*
X87741800Y-125394700I0J160000D01*
G01*
X87741800Y-124999700D01*
G75*
G02*
X87901800Y-124839700I160000J0D01*
G01*
X88221800Y-124839700D01*
G75*
G02*
X88381800Y-124999700I0J-160000D01*
G01*
X88381800Y-125394700D01*
G75*
G02*
X88221800Y-125554700I-160000J0D01*
G01*
G37*
G36*
G01*
X88221800Y-124359700D02*
X87901800Y-124359700D01*
G75*
G02*
X87741800Y-124199700I0J160000D01*
G01*
X87741800Y-123804700D01*
G75*
G02*
X87901800Y-123644700I160000J0D01*
G01*
X88221800Y-123644700D01*
G75*
G02*
X88381800Y-123804700I0J-160000D01*
G01*
X88381800Y-124199700D01*
G75*
G02*
X88221800Y-124359700I-160000J0D01*
G01*
G37*
G36*
G01*
X87647800Y-138605300D02*
X87967800Y-138605300D01*
G75*
G02*
X88127800Y-138765300I0J-160000D01*
G01*
X88127800Y-139160300D01*
G75*
G02*
X87967800Y-139320300I-160000J0D01*
G01*
X87647800Y-139320300D01*
G75*
G02*
X87487800Y-139160300I0J160000D01*
G01*
X87487800Y-138765300D01*
G75*
G02*
X87647800Y-138605300I160000J0D01*
G01*
G37*
G36*
G01*
X87647800Y-139800300D02*
X87967800Y-139800300D01*
G75*
G02*
X88127800Y-139960300I0J-160000D01*
G01*
X88127800Y-140355300D01*
G75*
G02*
X87967800Y-140515300I-160000J0D01*
G01*
X87647800Y-140515300D01*
G75*
G02*
X87487800Y-140355300I0J160000D01*
G01*
X87487800Y-139960300D01*
G75*
G02*
X87647800Y-139800300I160000J0D01*
G01*
G37*
G36*
G01*
X95623400Y-139800300D02*
X95943400Y-139800300D01*
G75*
G02*
X96103400Y-139960300I0J-160000D01*
G01*
X96103400Y-140355300D01*
G75*
G02*
X95943400Y-140515300I-160000J0D01*
G01*
X95623400Y-140515300D01*
G75*
G02*
X95463400Y-140355300I0J160000D01*
G01*
X95463400Y-139960300D01*
G75*
G02*
X95623400Y-139800300I160000J0D01*
G01*
G37*
G36*
G01*
X95623400Y-138605300D02*
X95943400Y-138605300D01*
G75*
G02*
X96103400Y-138765300I0J-160000D01*
G01*
X96103400Y-139160300D01*
G75*
G02*
X95943400Y-139320300I-160000J0D01*
G01*
X95623400Y-139320300D01*
G75*
G02*
X95463400Y-139160300I0J160000D01*
G01*
X95463400Y-138765300D01*
G75*
G02*
X95623400Y-138605300I160000J0D01*
G01*
G37*
G36*
G01*
X93301800Y-124537500D02*
X92981800Y-124537500D01*
G75*
G02*
X92821800Y-124377500I0J160000D01*
G01*
X92821800Y-123982500D01*
G75*
G02*
X92981800Y-123822500I160000J0D01*
G01*
X93301800Y-123822500D01*
G75*
G02*
X93461800Y-123982500I0J-160000D01*
G01*
X93461800Y-124377500D01*
G75*
G02*
X93301800Y-124537500I-160000J0D01*
G01*
G37*
G36*
G01*
X93301800Y-125732500D02*
X92981800Y-125732500D01*
G75*
G02*
X92821800Y-125572500I0J160000D01*
G01*
X92821800Y-125177500D01*
G75*
G02*
X92981800Y-125017500I160000J0D01*
G01*
X93301800Y-125017500D01*
G75*
G02*
X93461800Y-125177500I0J-160000D01*
G01*
X93461800Y-125572500D01*
G75*
G02*
X93301800Y-125732500I-160000J0D01*
G01*
G37*
G36*
G01*
X89491800Y-124359700D02*
X89171800Y-124359700D01*
G75*
G02*
X89011800Y-124199700I0J160000D01*
G01*
X89011800Y-123804700D01*
G75*
G02*
X89171800Y-123644700I160000J0D01*
G01*
X89491800Y-123644700D01*
G75*
G02*
X89651800Y-123804700I0J-160000D01*
G01*
X89651800Y-124199700D01*
G75*
G02*
X89491800Y-124359700I-160000J0D01*
G01*
G37*
G36*
G01*
X89491800Y-125554700D02*
X89171800Y-125554700D01*
G75*
G02*
X89011800Y-125394700I0J160000D01*
G01*
X89011800Y-124999700D01*
G75*
G02*
X89171800Y-124839700I160000J0D01*
G01*
X89491800Y-124839700D01*
G75*
G02*
X89651800Y-124999700I0J-160000D01*
G01*
X89651800Y-125394700D01*
G75*
G02*
X89491800Y-125554700I-160000J0D01*
G01*
G37*
G36*
G01*
X88917800Y-138605300D02*
X89237800Y-138605300D01*
G75*
G02*
X89397800Y-138765300I0J-160000D01*
G01*
X89397800Y-139160300D01*
G75*
G02*
X89237800Y-139320300I-160000J0D01*
G01*
X88917800Y-139320300D01*
G75*
G02*
X88757800Y-139160300I0J160000D01*
G01*
X88757800Y-138765300D01*
G75*
G02*
X88917800Y-138605300I160000J0D01*
G01*
G37*
G36*
G01*
X88917800Y-139800300D02*
X89237800Y-139800300D01*
G75*
G02*
X89397800Y-139960300I0J-160000D01*
G01*
X89397800Y-140355300D01*
G75*
G02*
X89237800Y-140515300I-160000J0D01*
G01*
X88917800Y-140515300D01*
G75*
G02*
X88757800Y-140355300I0J160000D01*
G01*
X88757800Y-139960300D01*
G75*
G02*
X88917800Y-139800300I160000J0D01*
G01*
G37*
G36*
G01*
X94353400Y-139800300D02*
X94673400Y-139800300D01*
G75*
G02*
X94833400Y-139960300I0J-160000D01*
G01*
X94833400Y-140355300D01*
G75*
G02*
X94673400Y-140515300I-160000J0D01*
G01*
X94353400Y-140515300D01*
G75*
G02*
X94193400Y-140355300I0J160000D01*
G01*
X94193400Y-139960300D01*
G75*
G02*
X94353400Y-139800300I160000J0D01*
G01*
G37*
G36*
G01*
X94353400Y-138605300D02*
X94673400Y-138605300D01*
G75*
G02*
X94833400Y-138765300I0J-160000D01*
G01*
X94833400Y-139160300D01*
G75*
G02*
X94673400Y-139320300I-160000J0D01*
G01*
X94353400Y-139320300D01*
G75*
G02*
X94193400Y-139160300I0J160000D01*
G01*
X94193400Y-138765300D01*
G75*
G02*
X94353400Y-138605300I160000J0D01*
G01*
G37*
G36*
G01*
X92948800Y-126791700D02*
X92948800Y-126471700D01*
G75*
G02*
X93108800Y-126311700I160000J0D01*
G01*
X93503800Y-126311700D01*
G75*
G02*
X93663800Y-126471700I0J-160000D01*
G01*
X93663800Y-126791700D01*
G75*
G02*
X93503800Y-126951700I-160000J0D01*
G01*
X93108800Y-126951700D01*
G75*
G02*
X92948800Y-126791700I0J160000D01*
G01*
G37*
G36*
G01*
X94143800Y-126791700D02*
X94143800Y-126471700D01*
G75*
G02*
X94303800Y-126311700I160000J0D01*
G01*
X94698800Y-126311700D01*
G75*
G02*
X94858800Y-126471700I0J-160000D01*
G01*
X94858800Y-126791700D01*
G75*
G02*
X94698800Y-126951700I-160000J0D01*
G01*
X94303800Y-126951700D01*
G75*
G02*
X94143800Y-126791700I0J160000D01*
G01*
G37*
G36*
G01*
X90206800Y-126791700D02*
X90206800Y-126471700D01*
G75*
G02*
X90366800Y-126311700I160000J0D01*
G01*
X90761800Y-126311700D01*
G75*
G02*
X90921800Y-126471700I0J-160000D01*
G01*
X90921800Y-126791700D01*
G75*
G02*
X90761800Y-126951700I-160000J0D01*
G01*
X90366800Y-126951700D01*
G75*
G02*
X90206800Y-126791700I0J160000D01*
G01*
G37*
G36*
G01*
X89011800Y-126791700D02*
X89011800Y-126471700D01*
G75*
G02*
X89171800Y-126311700I160000J0D01*
G01*
X89566800Y-126311700D01*
G75*
G02*
X89726800Y-126471700I0J-160000D01*
G01*
X89726800Y-126791700D01*
G75*
G02*
X89566800Y-126951700I-160000J0D01*
G01*
X89171800Y-126951700D01*
G75*
G02*
X89011800Y-126791700I0J160000D01*
G01*
G37*
G36*
G01*
X88757800Y-137561300D02*
X88757800Y-137241300D01*
G75*
G02*
X88917800Y-137081300I160000J0D01*
G01*
X89312800Y-137081300D01*
G75*
G02*
X89472800Y-137241300I0J-160000D01*
G01*
X89472800Y-137561300D01*
G75*
G02*
X89312800Y-137721300I-160000J0D01*
G01*
X88917800Y-137721300D01*
G75*
G02*
X88757800Y-137561300I0J160000D01*
G01*
G37*
G36*
G01*
X89952800Y-137561300D02*
X89952800Y-137241300D01*
G75*
G02*
X90112800Y-137081300I160000J0D01*
G01*
X90507800Y-137081300D01*
G75*
G02*
X90667800Y-137241300I0J-160000D01*
G01*
X90667800Y-137561300D01*
G75*
G02*
X90507800Y-137721300I-160000J0D01*
G01*
X90112800Y-137721300D01*
G75*
G02*
X89952800Y-137561300I0J160000D01*
G01*
G37*
G36*
G01*
X91678800Y-137510500D02*
X91678800Y-137190500D01*
G75*
G02*
X91838800Y-137030500I160000J0D01*
G01*
X92233800Y-137030500D01*
G75*
G02*
X92393800Y-137190500I0J-160000D01*
G01*
X92393800Y-137510500D01*
G75*
G02*
X92233800Y-137670500I-160000J0D01*
G01*
X91838800Y-137670500D01*
G75*
G02*
X91678800Y-137510500I0J160000D01*
G01*
G37*
G36*
G01*
X92873800Y-137510500D02*
X92873800Y-137190500D01*
G75*
G02*
X93033800Y-137030500I160000J0D01*
G01*
X93428800Y-137030500D01*
G75*
G02*
X93588800Y-137190500I0J-160000D01*
G01*
X93588800Y-137510500D01*
G75*
G02*
X93428800Y-137670500I-160000J0D01*
G01*
X93033800Y-137670500D01*
G75*
G02*
X92873800Y-137510500I0J160000D01*
G01*
G37*
G36*
G01*
X83253600Y-116597400D02*
X83573600Y-116597400D01*
G75*
G02*
X83733600Y-116757400I0J-160000D01*
G01*
X83733600Y-117152400D01*
G75*
G02*
X83573600Y-117312400I-160000J0D01*
G01*
X83253600Y-117312400D01*
G75*
G02*
X83093600Y-117152400I0J160000D01*
G01*
X83093600Y-116757400D01*
G75*
G02*
X83253600Y-116597400I160000J0D01*
G01*
G37*
G36*
G01*
X83253600Y-115402400D02*
X83573600Y-115402400D01*
G75*
G02*
X83733600Y-115562400I0J-160000D01*
G01*
X83733600Y-115957400D01*
G75*
G02*
X83573600Y-116117400I-160000J0D01*
G01*
X83253600Y-116117400D01*
G75*
G02*
X83093600Y-115957400I0J160000D01*
G01*
X83093600Y-115562400D01*
G75*
G02*
X83253600Y-115402400I160000J0D01*
G01*
G37*
G36*
G01*
X84536300Y-115402400D02*
X84856300Y-115402400D01*
G75*
G02*
X85016300Y-115562400I0J-160000D01*
G01*
X85016300Y-115957400D01*
G75*
G02*
X84856300Y-116117400I-160000J0D01*
G01*
X84536300Y-116117400D01*
G75*
G02*
X84376300Y-115957400I0J160000D01*
G01*
X84376300Y-115562400D01*
G75*
G02*
X84536300Y-115402400I160000J0D01*
G01*
G37*
G36*
G01*
X84536300Y-116597400D02*
X84856300Y-116597400D01*
G75*
G02*
X85016300Y-116757400I0J-160000D01*
G01*
X85016300Y-117152400D01*
G75*
G02*
X84856300Y-117312400I-160000J0D01*
G01*
X84536300Y-117312400D01*
G75*
G02*
X84376300Y-117152400I0J160000D01*
G01*
X84376300Y-116757400D01*
G75*
G02*
X84536300Y-116597400I160000J0D01*
G01*
G37*
G36*
G01*
X84947800Y-114320300D02*
X84947800Y-114000300D01*
G75*
G02*
X85107800Y-113840300I160000J0D01*
G01*
X85502800Y-113840300D01*
G75*
G02*
X85662800Y-114000300I0J-160000D01*
G01*
X85662800Y-114320300D01*
G75*
G02*
X85502800Y-114480300I-160000J0D01*
G01*
X85107800Y-114480300D01*
G75*
G02*
X84947800Y-114320300I0J160000D01*
G01*
G37*
G36*
G01*
X86142800Y-114320300D02*
X86142800Y-114000300D01*
G75*
G02*
X86302800Y-113840300I160000J0D01*
G01*
X86697800Y-113840300D01*
G75*
G02*
X86857800Y-114000300I0J-160000D01*
G01*
X86857800Y-114320300D01*
G75*
G02*
X86697800Y-114480300I-160000J0D01*
G01*
X86302800Y-114480300D01*
G75*
G02*
X86142800Y-114320300I0J160000D01*
G01*
G37*
G36*
G01*
X139247900Y-114284800D02*
X139567900Y-114284800D01*
G75*
G02*
X139727900Y-114444800I0J-160000D01*
G01*
X139727900Y-114839800D01*
G75*
G02*
X139567900Y-114999800I-160000J0D01*
G01*
X139247900Y-114999800D01*
G75*
G02*
X139087900Y-114839800I0J160000D01*
G01*
X139087900Y-114444800D01*
G75*
G02*
X139247900Y-114284800I160000J0D01*
G01*
G37*
G36*
G01*
X139247900Y-115479800D02*
X139567900Y-115479800D01*
G75*
G02*
X139727900Y-115639800I0J-160000D01*
G01*
X139727900Y-116034800D01*
G75*
G02*
X139567900Y-116194800I-160000J0D01*
G01*
X139247900Y-116194800D01*
G75*
G02*
X139087900Y-116034800I0J160000D01*
G01*
X139087900Y-115639800D01*
G75*
G02*
X139247900Y-115479800I160000J0D01*
G01*
G37*
G36*
G01*
X138310600Y-114999800D02*
X137990600Y-114999800D01*
G75*
G02*
X137830600Y-114839800I0J160000D01*
G01*
X137830600Y-114444800D01*
G75*
G02*
X137990600Y-114284800I160000J0D01*
G01*
X138310600Y-114284800D01*
G75*
G02*
X138470600Y-114444800I0J-160000D01*
G01*
X138470600Y-114839800D01*
G75*
G02*
X138310600Y-114999800I-160000J0D01*
G01*
G37*
G36*
G01*
X138310600Y-116194800D02*
X137990600Y-116194800D01*
G75*
G02*
X137830600Y-116034800I0J160000D01*
G01*
X137830600Y-115639800D01*
G75*
G02*
X137990600Y-115479800I160000J0D01*
G01*
X138310600Y-115479800D01*
G75*
G02*
X138470600Y-115639800I0J-160000D01*
G01*
X138470600Y-116034800D01*
G75*
G02*
X138310600Y-116194800I-160000J0D01*
G01*
G37*
G36*
G01*
X143244600Y-125150900D02*
X143244600Y-125470900D01*
G75*
G02*
X143084600Y-125630900I-160000J0D01*
G01*
X142689600Y-125630900D01*
G75*
G02*
X142529600Y-125470900I0J160000D01*
G01*
X142529600Y-125150900D01*
G75*
G02*
X142689600Y-124990900I160000J0D01*
G01*
X143084600Y-124990900D01*
G75*
G02*
X143244600Y-125150900I0J-160000D01*
G01*
G37*
G36*
G01*
X144439600Y-125150900D02*
X144439600Y-125470900D01*
G75*
G02*
X144279600Y-125630900I-160000J0D01*
G01*
X143884600Y-125630900D01*
G75*
G02*
X143724600Y-125470900I0J160000D01*
G01*
X143724600Y-125150900D01*
G75*
G02*
X143884600Y-124990900I160000J0D01*
G01*
X144279600Y-124990900D01*
G75*
G02*
X144439600Y-125150900I0J-160000D01*
G01*
G37*
G36*
G01*
X143800800Y-121864100D02*
X143800800Y-121544100D01*
G75*
G02*
X143960800Y-121384100I160000J0D01*
G01*
X144355800Y-121384100D01*
G75*
G02*
X144515800Y-121544100I0J-160000D01*
G01*
X144515800Y-121864100D01*
G75*
G02*
X144355800Y-122024100I-160000J0D01*
G01*
X143960800Y-122024100D01*
G75*
G02*
X143800800Y-121864100I0J160000D01*
G01*
G37*
G36*
G01*
X142605800Y-121864100D02*
X142605800Y-121544100D01*
G75*
G02*
X142765800Y-121384100I160000J0D01*
G01*
X143160800Y-121384100D01*
G75*
G02*
X143320800Y-121544100I0J-160000D01*
G01*
X143320800Y-121864100D01*
G75*
G02*
X143160800Y-122024100I-160000J0D01*
G01*
X142765800Y-122024100D01*
G75*
G02*
X142605800Y-121864100I0J160000D01*
G01*
G37*
D18*
X93726000Y-177393600D03*
X83159600Y-56603900D03*
X93675200Y-166725600D03*
G36*
G01*
X93626800Y-128490300D02*
X93926800Y-128490300D01*
G75*
G02*
X94076800Y-128640300I0J-150000D01*
G01*
X94076800Y-130290300D01*
G75*
G02*
X93926800Y-130440300I-150000J0D01*
G01*
X93626800Y-130440300D01*
G75*
G02*
X93476800Y-130290300I0J150000D01*
G01*
X93476800Y-128640300D01*
G75*
G02*
X93626800Y-128490300I150000J0D01*
G01*
G37*
G36*
G01*
X92356800Y-128490300D02*
X92656800Y-128490300D01*
G75*
G02*
X92806800Y-128640300I0J-150000D01*
G01*
X92806800Y-130290300D01*
G75*
G02*
X92656800Y-130440300I-150000J0D01*
G01*
X92356800Y-130440300D01*
G75*
G02*
X92206800Y-130290300I0J150000D01*
G01*
X92206800Y-128640300D01*
G75*
G02*
X92356800Y-128490300I150000J0D01*
G01*
G37*
G36*
G01*
X91086800Y-128490300D02*
X91386800Y-128490300D01*
G75*
G02*
X91536800Y-128640300I0J-150000D01*
G01*
X91536800Y-130290300D01*
G75*
G02*
X91386800Y-130440300I-150000J0D01*
G01*
X91086800Y-130440300D01*
G75*
G02*
X90936800Y-130290300I0J150000D01*
G01*
X90936800Y-128640300D01*
G75*
G02*
X91086800Y-128490300I150000J0D01*
G01*
G37*
G36*
G01*
X89816800Y-128490300D02*
X90116800Y-128490300D01*
G75*
G02*
X90266800Y-128640300I0J-150000D01*
G01*
X90266800Y-130290300D01*
G75*
G02*
X90116800Y-130440300I-150000J0D01*
G01*
X89816800Y-130440300D01*
G75*
G02*
X89666800Y-130290300I0J150000D01*
G01*
X89666800Y-128640300D01*
G75*
G02*
X89816800Y-128490300I150000J0D01*
G01*
G37*
G36*
G01*
X88546800Y-128490300D02*
X88846800Y-128490300D01*
G75*
G02*
X88996800Y-128640300I0J-150000D01*
G01*
X88996800Y-130290300D01*
G75*
G02*
X88846800Y-130440300I-150000J0D01*
G01*
X88546800Y-130440300D01*
G75*
G02*
X88396800Y-130290300I0J150000D01*
G01*
X88396800Y-128640300D01*
G75*
G02*
X88546800Y-128490300I150000J0D01*
G01*
G37*
G36*
G01*
X87276800Y-128490300D02*
X87576800Y-128490300D01*
G75*
G02*
X87726800Y-128640300I0J-150000D01*
G01*
X87726800Y-130290300D01*
G75*
G02*
X87576800Y-130440300I-150000J0D01*
G01*
X87276800Y-130440300D01*
G75*
G02*
X87126800Y-130290300I0J150000D01*
G01*
X87126800Y-128640300D01*
G75*
G02*
X87276800Y-128490300I150000J0D01*
G01*
G37*
G36*
G01*
X86006800Y-128490300D02*
X86306800Y-128490300D01*
G75*
G02*
X86456800Y-128640300I0J-150000D01*
G01*
X86456800Y-130290300D01*
G75*
G02*
X86306800Y-130440300I-150000J0D01*
G01*
X86006800Y-130440300D01*
G75*
G02*
X85856800Y-130290300I0J150000D01*
G01*
X85856800Y-128640300D01*
G75*
G02*
X86006800Y-128490300I150000J0D01*
G01*
G37*
G36*
G01*
X86006800Y-133440300D02*
X86306800Y-133440300D01*
G75*
G02*
X86456800Y-133590300I0J-150000D01*
G01*
X86456800Y-135240300D01*
G75*
G02*
X86306800Y-135390300I-150000J0D01*
G01*
X86006800Y-135390300D01*
G75*
G02*
X85856800Y-135240300I0J150000D01*
G01*
X85856800Y-133590300D01*
G75*
G02*
X86006800Y-133440300I150000J0D01*
G01*
G37*
G36*
G01*
X87276800Y-133440300D02*
X87576800Y-133440300D01*
G75*
G02*
X87726800Y-133590300I0J-150000D01*
G01*
X87726800Y-135240300D01*
G75*
G02*
X87576800Y-135390300I-150000J0D01*
G01*
X87276800Y-135390300D01*
G75*
G02*
X87126800Y-135240300I0J150000D01*
G01*
X87126800Y-133590300D01*
G75*
G02*
X87276800Y-133440300I150000J0D01*
G01*
G37*
G36*
G01*
X88546800Y-133440300D02*
X88846800Y-133440300D01*
G75*
G02*
X88996800Y-133590300I0J-150000D01*
G01*
X88996800Y-135240300D01*
G75*
G02*
X88846800Y-135390300I-150000J0D01*
G01*
X88546800Y-135390300D01*
G75*
G02*
X88396800Y-135240300I0J150000D01*
G01*
X88396800Y-133590300D01*
G75*
G02*
X88546800Y-133440300I150000J0D01*
G01*
G37*
G36*
G01*
X89816800Y-133440300D02*
X90116800Y-133440300D01*
G75*
G02*
X90266800Y-133590300I0J-150000D01*
G01*
X90266800Y-135240300D01*
G75*
G02*
X90116800Y-135390300I-150000J0D01*
G01*
X89816800Y-135390300D01*
G75*
G02*
X89666800Y-135240300I0J150000D01*
G01*
X89666800Y-133590300D01*
G75*
G02*
X89816800Y-133440300I150000J0D01*
G01*
G37*
G36*
G01*
X91086800Y-133440300D02*
X91386800Y-133440300D01*
G75*
G02*
X91536800Y-133590300I0J-150000D01*
G01*
X91536800Y-135240300D01*
G75*
G02*
X91386800Y-135390300I-150000J0D01*
G01*
X91086800Y-135390300D01*
G75*
G02*
X90936800Y-135240300I0J150000D01*
G01*
X90936800Y-133590300D01*
G75*
G02*
X91086800Y-133440300I150000J0D01*
G01*
G37*
G36*
G01*
X92356800Y-133440300D02*
X92656800Y-133440300D01*
G75*
G02*
X92806800Y-133590300I0J-150000D01*
G01*
X92806800Y-135240300D01*
G75*
G02*
X92656800Y-135390300I-150000J0D01*
G01*
X92356800Y-135390300D01*
G75*
G02*
X92206800Y-135240300I0J150000D01*
G01*
X92206800Y-133590300D01*
G75*
G02*
X92356800Y-133440300I150000J0D01*
G01*
G37*
G36*
G01*
X93626800Y-133440300D02*
X93926800Y-133440300D01*
G75*
G02*
X94076800Y-133590300I0J-150000D01*
G01*
X94076800Y-135240300D01*
G75*
G02*
X93926800Y-135390300I-150000J0D01*
G01*
X93626800Y-135390300D01*
G75*
G02*
X93476800Y-135240300I0J150000D01*
G01*
X93476800Y-133590300D01*
G75*
G02*
X93626800Y-133440300I150000J0D01*
G01*
G37*
D19*
X168795700Y-142671800D03*
X168795700Y-148386800D03*
X173875700Y-142671800D03*
X173875700Y-148386800D03*
D20*
X170320700Y-140766800D03*
X172350700Y-140766800D03*
X171335700Y-148386800D03*
D14*
X72618600Y-108292900D03*
D15*
X70078600Y-108292900D03*
X72618600Y-110832900D03*
X70078600Y-110832900D03*
X72618600Y-113372900D03*
X70078600Y-113372900D03*
X72618600Y-115912900D03*
X70078600Y-115912900D03*
X72618600Y-118452900D03*
X70078600Y-118452900D03*
X72618600Y-120992900D03*
X70078600Y-120992900D03*
X72618600Y-123532900D03*
X70078600Y-123532900D03*
X72618600Y-126072900D03*
X70078600Y-126072900D03*
X72618600Y-128612900D03*
X70078600Y-128612900D03*
X72618600Y-131152900D03*
X70078600Y-131152900D03*
X72618600Y-133692900D03*
X70078600Y-133692900D03*
D21*
X235795190Y-192096910D03*
X234204200Y-191437900D03*
X232613210Y-192096910D03*
X231954200Y-193687900D03*
X232613210Y-195278890D03*
X234204200Y-195937900D03*
X235795190Y-195278890D03*
X236454200Y-193687900D03*
D22*
X234204200Y-193687900D03*
X149154200Y-193687900D03*
D21*
X151404200Y-193687900D03*
X150745190Y-195278890D03*
X149154200Y-195937900D03*
X147563210Y-195278890D03*
X146904200Y-193687900D03*
X147563210Y-192096910D03*
X149154200Y-191437900D03*
X150745190Y-192096910D03*
D22*
X64104200Y-193687900D03*
D21*
X66354200Y-193687900D03*
X65695190Y-195278890D03*
X64104200Y-195937900D03*
X62513210Y-195278890D03*
X61854200Y-193687900D03*
X62513210Y-192096910D03*
X64104200Y-191437900D03*
X65695190Y-192096910D03*
X235795190Y-64016910D03*
X234204200Y-63357900D03*
X232613210Y-64016910D03*
X231954200Y-65607900D03*
X232613210Y-67198890D03*
X234204200Y-67857900D03*
X235795190Y-67198890D03*
X236454200Y-65607900D03*
D22*
X234204200Y-65607900D03*
X149154200Y-65607900D03*
D21*
X151404200Y-65607900D03*
X150745190Y-67198890D03*
X149154200Y-67857900D03*
X147563210Y-67198890D03*
X146904200Y-65607900D03*
X147563210Y-64016910D03*
X149154200Y-63357900D03*
X150745190Y-64016910D03*
D22*
X71043800Y-66116200D03*
D21*
X73293800Y-66116200D03*
X72634790Y-67707190D03*
X71043800Y-68366200D03*
X69452810Y-67707190D03*
X68793800Y-66116200D03*
X69452810Y-64525210D03*
X71043800Y-63866200D03*
X72634790Y-64525210D03*
G36*
G01*
X86146200Y-168799700D02*
X85996200Y-168799700D01*
G75*
G02*
X85921200Y-168724700I0J75000D01*
G01*
X85921200Y-167424700D01*
G75*
G02*
X85996200Y-167349700I75000J0D01*
G01*
X86146200Y-167349700D01*
G75*
G02*
X86221200Y-167424700I0J-75000D01*
G01*
X86221200Y-168724700D01*
G75*
G02*
X86146200Y-168799700I-75000J0D01*
G01*
G37*
G36*
G01*
X86646200Y-168799700D02*
X86496200Y-168799700D01*
G75*
G02*
X86421200Y-168724700I0J75000D01*
G01*
X86421200Y-167424700D01*
G75*
G02*
X86496200Y-167349700I75000J0D01*
G01*
X86646200Y-167349700D01*
G75*
G02*
X86721200Y-167424700I0J-75000D01*
G01*
X86721200Y-168724700D01*
G75*
G02*
X86646200Y-168799700I-75000J0D01*
G01*
G37*
G36*
G01*
X87146200Y-168799700D02*
X86996200Y-168799700D01*
G75*
G02*
X86921200Y-168724700I0J75000D01*
G01*
X86921200Y-167424700D01*
G75*
G02*
X86996200Y-167349700I75000J0D01*
G01*
X87146200Y-167349700D01*
G75*
G02*
X87221200Y-167424700I0J-75000D01*
G01*
X87221200Y-168724700D01*
G75*
G02*
X87146200Y-168799700I-75000J0D01*
G01*
G37*
G36*
G01*
X87646200Y-168799700D02*
X87496200Y-168799700D01*
G75*
G02*
X87421200Y-168724700I0J75000D01*
G01*
X87421200Y-167424700D01*
G75*
G02*
X87496200Y-167349700I75000J0D01*
G01*
X87646200Y-167349700D01*
G75*
G02*
X87721200Y-167424700I0J-75000D01*
G01*
X87721200Y-168724700D01*
G75*
G02*
X87646200Y-168799700I-75000J0D01*
G01*
G37*
G36*
G01*
X88146200Y-168799700D02*
X87996200Y-168799700D01*
G75*
G02*
X87921200Y-168724700I0J75000D01*
G01*
X87921200Y-167424700D01*
G75*
G02*
X87996200Y-167349700I75000J0D01*
G01*
X88146200Y-167349700D01*
G75*
G02*
X88221200Y-167424700I0J-75000D01*
G01*
X88221200Y-168724700D01*
G75*
G02*
X88146200Y-168799700I-75000J0D01*
G01*
G37*
G36*
G01*
X88146200Y-164399700D02*
X87996200Y-164399700D01*
G75*
G02*
X87921200Y-164324700I0J75000D01*
G01*
X87921200Y-163024700D01*
G75*
G02*
X87996200Y-162949700I75000J0D01*
G01*
X88146200Y-162949700D01*
G75*
G02*
X88221200Y-163024700I0J-75000D01*
G01*
X88221200Y-164324700D01*
G75*
G02*
X88146200Y-164399700I-75000J0D01*
G01*
G37*
G36*
G01*
X87646200Y-164399700D02*
X87496200Y-164399700D01*
G75*
G02*
X87421200Y-164324700I0J75000D01*
G01*
X87421200Y-163024700D01*
G75*
G02*
X87496200Y-162949700I75000J0D01*
G01*
X87646200Y-162949700D01*
G75*
G02*
X87721200Y-163024700I0J-75000D01*
G01*
X87721200Y-164324700D01*
G75*
G02*
X87646200Y-164399700I-75000J0D01*
G01*
G37*
G36*
G01*
X87146200Y-164399700D02*
X86996200Y-164399700D01*
G75*
G02*
X86921200Y-164324700I0J75000D01*
G01*
X86921200Y-163024700D01*
G75*
G02*
X86996200Y-162949700I75000J0D01*
G01*
X87146200Y-162949700D01*
G75*
G02*
X87221200Y-163024700I0J-75000D01*
G01*
X87221200Y-164324700D01*
G75*
G02*
X87146200Y-164399700I-75000J0D01*
G01*
G37*
G36*
G01*
X86646200Y-164399700D02*
X86496200Y-164399700D01*
G75*
G02*
X86421200Y-164324700I0J75000D01*
G01*
X86421200Y-163024700D01*
G75*
G02*
X86496200Y-162949700I75000J0D01*
G01*
X86646200Y-162949700D01*
G75*
G02*
X86721200Y-163024700I0J-75000D01*
G01*
X86721200Y-164324700D01*
G75*
G02*
X86646200Y-164399700I-75000J0D01*
G01*
G37*
G36*
G01*
X86146200Y-164399700D02*
X85996200Y-164399700D01*
G75*
G02*
X85921200Y-164324700I0J75000D01*
G01*
X85921200Y-163024700D01*
G75*
G02*
X85996200Y-162949700I75000J0D01*
G01*
X86146200Y-162949700D01*
G75*
G02*
X86221200Y-163024700I0J-75000D01*
G01*
X86221200Y-164324700D01*
G75*
G02*
X86146200Y-164399700I-75000J0D01*
G01*
G37*
G36*
G01*
X86321601Y-179455000D02*
X86171601Y-179455000D01*
G75*
G02*
X86096601Y-179380000I0J75000D01*
G01*
X86096601Y-178080000D01*
G75*
G02*
X86171601Y-178005000I75000J0D01*
G01*
X86321601Y-178005000D01*
G75*
G02*
X86396601Y-178080000I0J-75000D01*
G01*
X86396601Y-179380000D01*
G75*
G02*
X86321601Y-179455000I-75000J0D01*
G01*
G37*
G36*
G01*
X86821601Y-179455000D02*
X86671601Y-179455000D01*
G75*
G02*
X86596601Y-179380000I0J75000D01*
G01*
X86596601Y-178080000D01*
G75*
G02*
X86671601Y-178005000I75000J0D01*
G01*
X86821601Y-178005000D01*
G75*
G02*
X86896601Y-178080000I0J-75000D01*
G01*
X86896601Y-179380000D01*
G75*
G02*
X86821601Y-179455000I-75000J0D01*
G01*
G37*
G36*
G01*
X87321601Y-179455000D02*
X87171601Y-179455000D01*
G75*
G02*
X87096601Y-179380000I0J75000D01*
G01*
X87096601Y-178080000D01*
G75*
G02*
X87171601Y-178005000I75000J0D01*
G01*
X87321601Y-178005000D01*
G75*
G02*
X87396601Y-178080000I0J-75000D01*
G01*
X87396601Y-179380000D01*
G75*
G02*
X87321601Y-179455000I-75000J0D01*
G01*
G37*
G36*
G01*
X87821601Y-179455000D02*
X87671601Y-179455000D01*
G75*
G02*
X87596601Y-179380000I0J75000D01*
G01*
X87596601Y-178080000D01*
G75*
G02*
X87671601Y-178005000I75000J0D01*
G01*
X87821601Y-178005000D01*
G75*
G02*
X87896601Y-178080000I0J-75000D01*
G01*
X87896601Y-179380000D01*
G75*
G02*
X87821601Y-179455000I-75000J0D01*
G01*
G37*
G36*
G01*
X88321601Y-179455000D02*
X88171601Y-179455000D01*
G75*
G02*
X88096601Y-179380000I0J75000D01*
G01*
X88096601Y-178080000D01*
G75*
G02*
X88171601Y-178005000I75000J0D01*
G01*
X88321601Y-178005000D01*
G75*
G02*
X88396601Y-178080000I0J-75000D01*
G01*
X88396601Y-179380000D01*
G75*
G02*
X88321601Y-179455000I-75000J0D01*
G01*
G37*
G36*
G01*
X88321601Y-175055000D02*
X88171601Y-175055000D01*
G75*
G02*
X88096601Y-174980000I0J75000D01*
G01*
X88096601Y-173680000D01*
G75*
G02*
X88171601Y-173605000I75000J0D01*
G01*
X88321601Y-173605000D01*
G75*
G02*
X88396601Y-173680000I0J-75000D01*
G01*
X88396601Y-174980000D01*
G75*
G02*
X88321601Y-175055000I-75000J0D01*
G01*
G37*
G36*
G01*
X87821601Y-175055000D02*
X87671601Y-175055000D01*
G75*
G02*
X87596601Y-174980000I0J75000D01*
G01*
X87596601Y-173680000D01*
G75*
G02*
X87671601Y-173605000I75000J0D01*
G01*
X87821601Y-173605000D01*
G75*
G02*
X87896601Y-173680000I0J-75000D01*
G01*
X87896601Y-174980000D01*
G75*
G02*
X87821601Y-175055000I-75000J0D01*
G01*
G37*
G36*
G01*
X87321601Y-175055000D02*
X87171601Y-175055000D01*
G75*
G02*
X87096601Y-174980000I0J75000D01*
G01*
X87096601Y-173680000D01*
G75*
G02*
X87171601Y-173605000I75000J0D01*
G01*
X87321601Y-173605000D01*
G75*
G02*
X87396601Y-173680000I0J-75000D01*
G01*
X87396601Y-174980000D01*
G75*
G02*
X87321601Y-175055000I-75000J0D01*
G01*
G37*
G36*
G01*
X86821601Y-175055000D02*
X86671601Y-175055000D01*
G75*
G02*
X86596601Y-174980000I0J75000D01*
G01*
X86596601Y-173680000D01*
G75*
G02*
X86671601Y-173605000I75000J0D01*
G01*
X86821601Y-173605000D01*
G75*
G02*
X86896601Y-173680000I0J-75000D01*
G01*
X86896601Y-174980000D01*
G75*
G02*
X86821601Y-175055000I-75000J0D01*
G01*
G37*
G36*
G01*
X86321601Y-175055000D02*
X86171601Y-175055000D01*
G75*
G02*
X86096601Y-174980000I0J75000D01*
G01*
X86096601Y-173680000D01*
G75*
G02*
X86171601Y-173605000I75000J0D01*
G01*
X86321601Y-173605000D01*
G75*
G02*
X86396601Y-173680000I0J-75000D01*
G01*
X86396601Y-174980000D01*
G75*
G02*
X86321601Y-175055000I-75000J0D01*
G01*
G37*
G36*
G01*
X85458001Y-52677800D02*
X85308001Y-52677800D01*
G75*
G02*
X85233001Y-52602800I0J75000D01*
G01*
X85233001Y-51302800D01*
G75*
G02*
X85308001Y-51227800I75000J0D01*
G01*
X85458001Y-51227800D01*
G75*
G02*
X85533001Y-51302800I0J-75000D01*
G01*
X85533001Y-52602800D01*
G75*
G02*
X85458001Y-52677800I-75000J0D01*
G01*
G37*
G36*
G01*
X85958001Y-52677800D02*
X85808001Y-52677800D01*
G75*
G02*
X85733001Y-52602800I0J75000D01*
G01*
X85733001Y-51302800D01*
G75*
G02*
X85808001Y-51227800I75000J0D01*
G01*
X85958001Y-51227800D01*
G75*
G02*
X86033001Y-51302800I0J-75000D01*
G01*
X86033001Y-52602800D01*
G75*
G02*
X85958001Y-52677800I-75000J0D01*
G01*
G37*
G36*
G01*
X86458001Y-52677800D02*
X86308001Y-52677800D01*
G75*
G02*
X86233001Y-52602800I0J75000D01*
G01*
X86233001Y-51302800D01*
G75*
G02*
X86308001Y-51227800I75000J0D01*
G01*
X86458001Y-51227800D01*
G75*
G02*
X86533001Y-51302800I0J-75000D01*
G01*
X86533001Y-52602800D01*
G75*
G02*
X86458001Y-52677800I-75000J0D01*
G01*
G37*
G36*
G01*
X86958001Y-52677800D02*
X86808001Y-52677800D01*
G75*
G02*
X86733001Y-52602800I0J75000D01*
G01*
X86733001Y-51302800D01*
G75*
G02*
X86808001Y-51227800I75000J0D01*
G01*
X86958001Y-51227800D01*
G75*
G02*
X87033001Y-51302800I0J-75000D01*
G01*
X87033001Y-52602800D01*
G75*
G02*
X86958001Y-52677800I-75000J0D01*
G01*
G37*
G36*
G01*
X87458001Y-52677800D02*
X87308001Y-52677800D01*
G75*
G02*
X87233001Y-52602800I0J75000D01*
G01*
X87233001Y-51302800D01*
G75*
G02*
X87308001Y-51227800I75000J0D01*
G01*
X87458001Y-51227800D01*
G75*
G02*
X87533001Y-51302800I0J-75000D01*
G01*
X87533001Y-52602800D01*
G75*
G02*
X87458001Y-52677800I-75000J0D01*
G01*
G37*
G36*
G01*
X87458001Y-57077800D02*
X87308001Y-57077800D01*
G75*
G02*
X87233001Y-57002800I0J75000D01*
G01*
X87233001Y-55702800D01*
G75*
G02*
X87308001Y-55627800I75000J0D01*
G01*
X87458001Y-55627800D01*
G75*
G02*
X87533001Y-55702800I0J-75000D01*
G01*
X87533001Y-57002800D01*
G75*
G02*
X87458001Y-57077800I-75000J0D01*
G01*
G37*
G36*
G01*
X86958001Y-57077800D02*
X86808001Y-57077800D01*
G75*
G02*
X86733001Y-57002800I0J75000D01*
G01*
X86733001Y-55702800D01*
G75*
G02*
X86808001Y-55627800I75000J0D01*
G01*
X86958001Y-55627800D01*
G75*
G02*
X87033001Y-55702800I0J-75000D01*
G01*
X87033001Y-57002800D01*
G75*
G02*
X86958001Y-57077800I-75000J0D01*
G01*
G37*
G36*
G01*
X86458001Y-57077800D02*
X86308001Y-57077800D01*
G75*
G02*
X86233001Y-57002800I0J75000D01*
G01*
X86233001Y-55702800D01*
G75*
G02*
X86308001Y-55627800I75000J0D01*
G01*
X86458001Y-55627800D01*
G75*
G02*
X86533001Y-55702800I0J-75000D01*
G01*
X86533001Y-57002800D01*
G75*
G02*
X86458001Y-57077800I-75000J0D01*
G01*
G37*
G36*
G01*
X85958001Y-57077800D02*
X85808001Y-57077800D01*
G75*
G02*
X85733001Y-57002800I0J75000D01*
G01*
X85733001Y-55702800D01*
G75*
G02*
X85808001Y-55627800I75000J0D01*
G01*
X85958001Y-55627800D01*
G75*
G02*
X86033001Y-55702800I0J-75000D01*
G01*
X86033001Y-57002800D01*
G75*
G02*
X85958001Y-57077800I-75000J0D01*
G01*
G37*
G36*
G01*
X85458001Y-57077800D02*
X85308001Y-57077800D01*
G75*
G02*
X85233001Y-57002800I0J75000D01*
G01*
X85233001Y-55702800D01*
G75*
G02*
X85308001Y-55627800I75000J0D01*
G01*
X85458001Y-55627800D01*
G75*
G02*
X85533001Y-55702800I0J-75000D01*
G01*
X85533001Y-57002800D01*
G75*
G02*
X85458001Y-57077800I-75000J0D01*
G01*
G37*
M02*
